<svg fill="none" height="40" viewBox="0 0 40 40" width="40" xmlns="http://www.w3.org/2000/svg"><path clip-rule="evenodd" d="m10.4771 6.78533-6.79754 11.68517c-.56559.9722-.56559 2.1701 0 3.1424l6.79754 11.6851c.5656.9723 1.6108 1.5712 2.742 1.5712h13.595c1.1312 0 2.1765-.5989 2.7421-1.5712l6.7975-11.6851c.5656-.9723.5656-2.1702 0-3.1424l-6.7975-11.68517c-.5656-.97228-1.6109-1.57122-2.7421-1.57122h-13.595c-1.1312 0-2.1764.59894-2.742 1.57122zm-7.71155 11.16137c-.75413 1.2964-.75413 2.8936 0 4.1899l6.7975 11.6852c.75415 1.2963 2.14785 2.0949 3.65605 2.0949h13.595c1.5083 0 2.902-.7986 3.6561-2.0949l6.7975-11.6852c.7541-1.2963.7541-2.8935 0-4.1899l-6.7975-11.68511c-.7541-1.29637-2.1478-2.09496-3.6561-2.09496h-13.595c-1.5082 0-2.9019.79859-3.65605 2.09496z" fill="#000" fill-rule="evenodd"/><path d="m6.52948 21.0474c-.36164-.6217-.36164-1.3897 0-2.0114l5.87262-10.09525c.3581-.61561 1.0166-.99434 1.7288-.99434h11.7715c.7122 0 1.3707.37873 1.7288.99434l5.8726 10.09525c.3617.6217.3617 1.3897 0 2.0114l-5.8726 10.0952c-.3581.6156-1.0166.9944-1.7288.9944h-11.7715c-.7122 0-1.3707-.3788-1.7288-.9944z" fill="#d0ff00"/><path clip-rule="evenodd" d="m13.3385 9.48543-5.87261 10.09527c-.16575.2849-.16575.6369 0 .9219l5.87261 10.0952c.1642.2822.466.4558.7924.4558h11.7715c.3264 0 .6282-.1736.7924-.4558l5.8726-10.0952c.1658-.285.1658-.637 0-.9219l-5.8726-10.09527c-.1642-.28216-.466-.45574-.7924-.45574h-11.7715c-.3264 0-.6282.17358-.7924.45574zm-6.80902 9.55057c-.36164.6217-.36164 1.3897 0 2.0114l5.87262 10.0952c.3581.6156 1.0166.9944 1.7288.9944h11.7715c.7122 0 1.3707-.3788 1.7288-.9944l5.8726-10.0952c.3617-.6217.3617-1.3897 0-2.0114l-5.8726-10.09525c-.3581-.61561-1.0166-.99434-1.7288-.99434h-11.7715c-.7122 0-1.3707.37873-1.7288.99434z" fill="#355000" fill-rule="evenodd"/><g fill="#4aa800"><path d="m21.2479 9.0297v6.7785c0 2.3523 1.7362 4.3022 4.0062 4.6563-.0225-.1377-.0343-.2789-.0343-.4228 0-.2183.027-.4303.0777-.633-1.7055-.3246-2.9942-1.8132-2.9942-3.6005v-6.7785z"/><path d="m29.078 26.501h-9.1141c.0346.1693.0527.3445.0527.5239 0 .1793-.0181.3544-.0527.5236h8.5047z"/><path d="m8.29586 21.9292h3.26644c2.623 0 4.7493-2.1104 4.7493-4.7136v-.9194c-.2047.0505-.4188.0774-.6393.0774-.1416 0-.2805-.0111-.4161-.0324v.8744c0 2.0247-1.6538 3.6661-3.6939 3.6661h-3.87579z"/><path d="m7.04255 21.9292-.49622-.853c.00245.0043.00493.0086.00742.0129z"/></g><path d="m15.6723 16.3736c1.4573 0 2.6386-1.1724 2.6386-2.6186 0-1.4463-1.1813-2.6187-2.6386-2.6187-1.4572 0-2.6385 1.1724-2.6385 2.6187 0 1.4462 1.1813 2.6186 2.6385 2.6186z" fill="#427100"/><path d="m17.3781 29.6437c1.4572 0 2.6385-1.1725 2.6385-2.6188s-1.1813-2.6187-2.6385-2.6187-2.6385 1.1725-2.6385 2.6187c0 1.4463 1.1813 2.6188 2.6385 2.6188z" fill="#427100"/><path d="m27.8584 22.6604c1.4572 0 2.6385-1.1724 2.6385-2.6187 0-1.4462-1.1813-2.6187-2.6385-2.6187s-2.6386 1.1724-2.6386 2.6187 1.1814 2.6187 2.6386 2.6187z" fill="#427100"/></svg>