<svg fill="none" height="40" viewBox="0 0 40 40" width="40" xmlns="http://www.w3.org/2000/svg"><g fill="#80144e"><path d="m10.8607 22.964c1.637 0 2.9641-1.3271 2.9641-2.9641s-1.3271-2.9641-2.9641-2.9641c-1.63702 0-2.96408 1.3271-2.96408 2.9641s1.32706 2.9641 2.96408 2.9641z"/><path d="m29.1391 22.964c1.637 0 2.9641-1.3271 2.9641-2.9641s-1.3271-2.9641-2.9641-2.9641-2.9641 1.3271-2.9641 2.9641 1.3271 2.9641 2.9641 2.9641z"/><path d="m19.9999 13.805c1.637 0 2.9641-1.327 2.9641-2.9641 0-1.63697-1.3271-2.96404-2.9641-2.96404s-2.9641 1.32707-2.9641 2.96404c0 1.6371 1.3271 2.9641 2.9641 2.9641z"/><path d="m19.9987 32.123c1.637 0 2.9641-1.3271 2.9641-2.9641s-1.3271-2.9641-2.9641-2.9641-2.9641 1.3271-2.9641 2.9641 1.3271 2.9641 2.9641 2.9641z"/></g><path clip-rule="evenodd" d="m5.67784 20.9082c-.5016-.5016-.5016-1.3149 0-1.8165l13.41386-13.41385c.5016-.5016 1.3148-.5016 1.8164 0l13.4139 13.41385c.5016.5016.5016 1.3149 0 1.8165l-13.4139 13.4139c-.5016.5016-1.3148.5016-1.8164 0zm14.32206-7.1032c.7386 0 1.4142-.2701 1.9332-.717l4.9682 4.9682c.2627-.3022.5856-.5507.95-.7267l-5.1874-5.1874c.1922-.3928.3001-.8344.3001-1.3012 0-1.63697-1.3271-2.96404-2.9641-2.96404s-2.9641 1.32707-2.9641 2.96404c0 1.6371 1.3271 2.9641 2.9641 2.9641zm-2.6639-1.6628-5.1874 5.1873c-.3894-.1882-.8264-.2937-1.2879-.2937-1.63702 0-2.96408 1.3271-2.96408 2.9641s1.32706 2.9641 2.96408 2.9641c.4615 0 .8984-.1055 1.2879-.2937l5.1866 5.1866c.1778-.3631.4277-.6845.7311-.9456l-4.9677-4.9677c.4524-.5204.7262-1.2001.7262-1.9437s-.2738-1.4233-.7262-1.9436l4.9683-4.9683c-.3033-.2611-.5532-.5826-.7309-.9458zm5.3271 15.7164 5.1883-5.1882c.3894.1881.8262.2936 1.2877.2936 1.637 0 2.9641-1.3271 2.9641-2.9641s-1.3271-2.9641-2.9641-2.9641-2.9641 1.3271-2.9641 2.9641c0 .7977.3152 1.5217.8276 2.0545-.0347-.036-.0684-.0729-.1013-.1107l-4.9688 4.9688c-.5191-.4472-1.1949-.7177-1.9338-.7177-1.637 0-2.9641 1.3271-2.9641 2.9641s1.3271 2.9641 2.9641 2.9641 2.9641-1.3271 2.9641-2.9641c0-.4664-.1077-.9077-.2997-1.3003z" fill="#f4bedb" fill-rule="evenodd"/><path d="m12.1486 17.3295c.3645.1761.6874.4246.95.7268l4.9683-4.9683c-.3033-.2611-.5532-.5826-.7309-.9458z" fill="#4d1935"/><path d="m22.6639 12.1421c-.1777.3632-.4275.6847-.7308.9459l4.9682 4.9682c.2627-.3022.5856-.5507.95-.7267z" fill="#4d1935"/><path d="m27.8514 22.6704c-.3645-.1761-.6874-.4245-.9501-.7267l-4.9688 4.9688c.3032.2613.553.5828.7306.9461z" fill="#4d1935"/><path d="m17.3352 27.8569c.1778-.3631.4277-.6845.7311-.9456l-4.9677-4.9677c-.2627.3022-.5856.5507-.95.7267z" fill="#4d1935"/><path clip-rule="evenodd" d="m2.38905 23.3588c-1.852066-1.8521-1.852067-4.8549 0-6.7069l14.26275-14.26284c1.8521-1.852076 4.8549-1.85208 6.7069-.00001l14.2523 14.25225c1.852 1.8521 1.852 4.8549 0 6.7069l-14.2628 14.2629c-1.8521 1.852-4.8549 1.852-6.7069 0zm.83836-5.8686 14.26279-14.26278c1.389-1.38905 3.6411-1.38905 5.0302 0l14.2522 14.25228c1.389 1.389 1.389 3.6411 0 5.0302l-14.2628 14.2628c-1.389 1.389-3.6411 1.3891-5.0302 0l-14.25219-14.2523c-1.38904-1.389-1.38904-3.6411 0-5.0302z" fill="#000" fill-rule="evenodd"/><path clip-rule="evenodd" d="m5.67784 19.0917c-.5016.5016-.5016 1.3149 0 1.8165l13.41386 13.4139c.5016.5016 1.3148.5016 1.8164 0l13.4139-13.4139c.5016-.5016.5016-1.3149 0-1.8165l-13.4139-13.41385c-.5016-.5016-1.3148-.5016-1.8164 0zm-.76849-.7685c-.92603.9261-.92603 2.4275 0 3.3535l13.41385 13.4139c.926.926 2.4274.926 3.3535 0l13.4138-13.4139c.926-.926.926-2.4274 0-3.3535l-13.4138-13.41384c-.9261-.92604-2.4275-.92604-3.3535 0z" fill="#4d1935" fill-rule="evenodd"/></svg>