<svg fill="none" height="40" viewBox="0 0 40 40" width="40" xmlns="http://www.w3.org/2000/svg"><path d="m35.1173 35.0132c-1.2939 1.2937-3.3915 1.2937-4.6854 0l-4.5795-4.5788c.9274-.5916 1.815-1.2937 2.6231-2.1061.8082-.8125 1.4927-1.6602 2.0668-2.5698l4.5706 4.57c1.2939 1.2937 1.2939 3.391 0 4.6847z" fill="#004099"/><path clip-rule="evenodd" d="m17.4237 32.0421c8.0297 0 14.5391-6.5085 14.5391-14.5371 0-8.02857-6.5094-14.53705-14.5391-14.53705-8.02973 0-14.5391 6.50848-14.5391 14.53705 0 8.0287 6.50937 14.5371 14.5391 14.5371zm15.5904-14.5371c0 8.6092-6.9801 15.5883-15.5904 15.5883-8.61037 0-15.59045-6.9791-15.59045-15.5883 0-8.60914 6.98008-15.58825 15.59045-15.58825 8.6103 0 15.5904 6.97911 15.5904 15.58825z" fill="#000" fill-rule="evenodd"/><path d="m21.5595 14.8264c1.4366 0 2.6012-1.1645 2.6012-2.601 0-1.4364-1.1646-2.60087-2.6012-2.60087-1.4367 0-2.6013 1.16447-2.6013 2.60087 0 1.4365 1.1646 2.601 2.6013 2.601z" fill="#9df"/><g clip-rule="evenodd" fill-rule="evenodd"><path d="m29.7092 17.5051c0 6.7841-5.5004 12.2837-12.2855 12.2837-6.785 0-12.28539-5.4996-12.28539-12.2837s5.50039-12.28374 12.28539-12.28374c6.7851 0 12.2855 5.49964 12.2855 12.28374zm-5.5485-5.2797c0 1.4365-1.1646 2.601-2.6012 2.601-1.4367 0-2.6013-1.1645-2.6013-2.601 0-1.4364 1.1646-2.60087 2.6013-2.60087 1.4366 0 2.6012 1.16447 2.6012 2.60087z" fill="#28a2fd"/><path d="m30.7925 17.5051c0 7.3826-5.9856 13.3671-13.3688 13.3671s-13.36873-5.9845-13.36873-13.3671c0-7.3825 5.98553-13.36703 13.36873-13.36703s13.3688 5.98453 13.3688 13.36703zm-13.3688 12.2837c6.7851 0 12.2855-5.4996 12.2855-12.2837s-5.5004-12.28374-12.2855-12.28374c-6.785 0-12.28539 5.49964-12.28539 12.28374s5.50039 12.2837 12.28539 12.2837z" fill="#004099"/><path d="m29.7499 17.4918c0 6.7886-5.5033 12.2917-12.2916 12.2917-6.7884 0-12.29172-5.5031-12.29172-12.2917 0-6.7887 5.50332-12.29175 12.29172-12.29175 6.7883 0 12.2916 5.50305 12.2916 12.29175zm-12.2916 11.2955c6.2383 0 11.2956-5.0572 11.2956-11.2955 0-6.2384-5.0573-11.29557-11.2956-11.29557-6.2384 0-11.29566 5.05717-11.29566 11.29557 0 6.2383 5.05726 11.2955 11.29566 11.2955z" fill="#0080ff"/></g></svg>