<svg fill="none" height="40" viewBox="0 0 40 40" width="40" xmlns="http://www.w3.org/2000/svg"><path clip-rule="evenodd" d="m19.7648.978263c.337-.193016.7509-.193196 1.0881-.000475l15.9137 9.095412c.3349.1914.5568.5489.55.9571-.1832 10.8772-6.5896 23.1352-16.512 28.0411-.3195.158-.6971.1482-1.0077-.0245-10.18184-5.6587-16.35296-16.1589-16.46348-28.0151-.0037-.3973.2092-.763.5504-.9584zm16.4326 10.785237c.02-.4559-.2236-.8796-.6198-1.1061l-14.6474-8.37171c-.3847-.21986-.857-.21966-1.2415.00054l-14.62329 8.37477c-.39254.2248-.63487.6451-.62071 1.0972.34265 10.9412 6.0301 20.5882 15.3088 26.0015.3549.207.7919.2186 1.1545.0253 8.9972-4.7946 14.8472-15.9597 15.2894-26.0215z" fill="#000" fill-rule="evenodd"/><path d="m33.528 13.1819c-.1946 8.4848-5.1946 16.8181-12.5081 21.7037l-.1454.0853c-.1604.0903-.3409.2741-.5213.2792-.1956 0-.4011-.1789-.5716-.2792l-.1604-.0904c-8.7878-5.7138-12.49805-14.8805-12.49805-21.6835v-.1656c0-.3914.21056-.7528.54644-.9535l12.11201-6.99533c.1755-.10037.376-.15055.5716-.14553.1804 0 .3609.05018.5213.14553l11.9667 6.91503c.4261.2459.6868.6976.6868 1.1893z" fill="#f60"/><path clip-rule="evenodd" d="m34.6113 13.182c-.0017-.8766-.4683-1.6836-1.2281-2.1223l-11.9619-6.91228c-.3174-.18709-.6807-.29105-1.0541-.29359-.391-.00749-.7817.09299-1.1234.28845l-12.11601 6.99762-.01392.0082c-.65404.3908-1.07405 1.1002-1.07405 1.8834v.1656c0 7.1474 3.87743 16.6662 12.99088 22.5918l.0289.0188.1781.1002c.0116.0072.031.0199.0765.0503l.0038.0025c.0438.0292.1138.0759.1899.1208.1307.077.4428.252.8453.252h.015l.0151-.0004c.2226-.0062.4061-.066.5344-.1215.1275-.055.2316-.1195.3002-.1648.0533-.0351.1105-.0761.143-.0993.0068-.0049.0124-.0089.0168-.012.0205-.0145.0309-.0216.0345-.024l.1832-.1075.0263-.0175c7.5719-5.0582 12.7857-13.7017 12.9894-22.5797l.0002-.0198m-1.0833-.0001v-.005c0-.0041-.0001-.0082-.0001-.0123-.0061-.485-.2656-.929-.6867-1.172l-11.9667-6.91503c-.1604-.09535-.3409-.14553-.5213-.14553-.1956-.00502-.3961.04516-.5716.14553l-12.11201 6.99533c-.33588.2007-.54644.5621-.54644.9535v.1656c0 6.803 3.71025 15.9697 12.49805 21.6835l.1604.0904c.0413.0243.0847.0533.1295.0832.14.0934.2939.196.4421.196.125-.0035.2501-.0928.3685-.1774.0525-.0375.1036-.0741.1528-.1018l.1454-.0853c7.312-4.8846 12.3116-13.2156 12.5081-21.6987z" fill="#852100" fill-rule="evenodd"/><path clip-rule="evenodd" d="m32.4445 13.1789c-.1934 8.0742-4.9659 16.0775-12.0004 20.7885l-.1119.0656-.0041.0024-.145-.0817c-8.4416-5.5034-11.97666-14.3053-11.97666-20.7567v-.1656s-.00009-.0027.00277-.0077c.00274-.0047.00725-.0099.01368-.0143l12.09661-6.98642.0065-.00253.0058-.00022 11.9673 6.91547c.0885.051.1427.1418.1454.2432zm1.0835.008c-.1965 8.4831-5.1961 16.8141-12.5081 21.6987l-.1454.0853c-.0492.0277-.1003.0643-.1528.1018-.1184.0846-.2435.1739-.3685.1774-.1482 0-.3021-.1026-.4421-.196-.0448-.0299-.0882-.0589-.1295-.0832l-.1604-.0904c-8.7878-5.7138-12.49805-14.8805-12.49805-21.6835v-.1656c0-.3914.21056-.7528.54644-.9535l12.11201-6.99533c.1755-.10037.376-.15055.5716-.14553.1804 0 .3609.05018.5213.14553l11.9667 6.91503c.4211.243.6806.687.6867 1.172l.0001.0123zm-13.1749 21.2045v-.2246c.0177 0 .0345.0006.0505.0017l.046.0783z" fill="#ffa66b" fill-rule="evenodd"/><path d="m20.9455 20.739c1.2152-.2812 2.121-1.3713 2.121-2.6732 0-1.5152-1.2271-2.7436-2.7409-2.7436s-2.7409 1.2284-2.7409 2.7436c0 1.3019.9058 2.3919 2.1209 2.6732l-1.2524 2.3966c-.2675.508.0713 1.1382.6122 1.1382h2.5203c.5409 0 .8797-.6302.6123-1.1382z" fill="#ffd1b3"/></svg>