<svg width="130" height="39" viewBox="0 0 130 39" fill="none" xmlns="http://www.w3.org/2000/svg">
<g clip-path="url(#clip0_19_3331)">
<g clip-path="url(#clip1_19_3331)">
<path d="M36.9729 9.04395H38.7389V13.1748H38.7696C38.9846 12.8472 39.2815 12.5605 39.6398 12.3762C39.9827 12.1766 40.3973 12.064 40.8375 12.064C42.02 12.064 43.2587 12.8472 43.2587 15.0687V19.1586H41.503V15.2683C41.503 14.2548 41.1344 13.5024 40.1619 13.5024C39.476 13.5024 38.9948 13.9579 38.8105 14.4852C38.7542 14.6285 38.7389 14.8128 38.7389 15.0124V19.1586H36.9729V9.04395Z" fill="white"/>
<path d="M45.946 16.1846C45.987 17.4387 46.9698 17.9812 48.0857 17.9812C48.8996 17.9812 49.4831 17.8686 50.0103 17.669L50.2663 18.8821C49.6674 19.1227 48.8432 19.3223 47.8451 19.3223C45.5928 19.3223 44.2671 17.9249 44.2671 15.8007C44.2671 13.876 45.4342 12.0691 47.6608 12.0691C49.8875 12.0691 50.6553 13.9221 50.6553 15.4475C50.6553 15.7751 50.6246 16.031 50.599 16.1897H45.9512L45.946 16.1846ZM48.9968 14.9612C49.0122 14.3213 48.7255 13.2669 47.5584 13.2669C46.4733 13.2669 46.0177 14.2497 45.946 14.9612H48.9968Z" fill="white"/>
<path d="M61.1386 18.8769C60.7239 19.0919 59.8128 19.3171 58.6611 19.3171C55.6103 19.3171 53.7573 17.3925 53.7573 14.4748C53.7573 11.3114 55.9533 9.4021 58.8863 9.4021C60.038 9.4021 60.8673 9.64268 61.2205 9.83207L60.8365 11.2295C60.381 11.0299 59.7514 10.8609 58.9528 10.8609C57.0026 10.8609 55.5898 12.0843 55.5898 14.3929C55.5898 16.5018 56.8286 17.8531 58.9375 17.8531C59.649 17.8531 60.3912 17.7098 60.8468 17.5L61.1334 18.882L61.1386 18.8769Z" fill="white"/>
<path d="M68.5192 15.6266C68.5192 18.1757 66.7225 19.3172 64.9566 19.3172C62.991 19.3172 61.481 17.9608 61.481 15.7392C61.481 13.5177 62.9756 12.064 65.0692 12.064C67.1628 12.064 68.5192 13.5177 68.5192 15.6266ZM63.2879 15.6983C63.2879 17.0394 63.9431 18.0478 65.0129 18.0478C66.011 18.0478 66.7072 17.065 66.7072 15.6676C66.7072 14.5824 66.2209 13.3437 65.0231 13.3437C63.8253 13.3437 63.2828 14.5414 63.2828 15.6932" fill="white"/>
<path d="M69.5436 14.2855C69.5436 13.487 69.5283 12.8164 69.4873 12.2175H71.028L71.1151 13.2566H71.156C71.4529 12.714 72.2105 12.0588 73.3622 12.0588C74.5753 12.0588 75.8243 12.842 75.8243 15.0379V19.1585H74.0737V15.2376C74.0737 14.2394 73.7051 13.487 72.7479 13.487C72.0518 13.487 71.5655 13.9835 71.3812 14.5107C71.3249 14.6694 71.3096 14.8793 71.3096 15.084V19.1585H69.5436V14.2855Z" fill="white"/>
<path d="M77.1242 17.5513C77.5235 17.7918 78.281 18.0478 78.9055 18.0478C79.6733 18.0478 80.0163 17.7355 80.0163 17.28C80.0163 16.8244 79.7296 16.5685 78.8748 16.2665C77.5235 15.7955 76.9502 15.0533 76.9655 14.2445C76.9655 13.0212 77.979 12.064 79.5863 12.064C80.3592 12.064 81.0247 12.2636 81.424 12.4786L81.081 13.7173C80.7841 13.5484 80.2262 13.3181 79.6119 13.3181C78.9977 13.3181 78.6445 13.6149 78.6445 14.0449C78.6445 14.4749 78.9721 14.7001 79.8576 15.0124C81.1117 15.4679 81.6952 16.1078 81.7106 17.1366C81.7106 18.3907 80.7278 19.3172 78.8902 19.3172C78.0507 19.3172 77.2931 19.1022 76.7812 18.8207L77.1242 17.5513Z" fill="white"/>
<path d="M83.9785 16.1846C84.0246 17.4387 85.0023 17.9812 86.1181 17.9812C86.932 17.9812 87.5156 17.8686 88.0428 17.669L88.2987 18.8821C87.6998 19.1227 86.8757 19.3223 85.8776 19.3223C83.6253 19.3223 82.2996 17.9249 82.2996 15.8007C82.2996 13.876 83.4666 12.0691 85.6933 12.0691C87.9199 12.0691 88.6877 13.9221 88.6877 15.4475C88.6877 15.7751 88.657 16.031 88.6314 16.1897H83.9836L83.9785 16.1846ZM87.0293 14.9612C87.0446 14.3213 86.758 13.2669 85.5909 13.2669C84.5057 13.2669 84.0502 14.2497 83.9785 14.9612H87.0293Z" fill="white"/>
<path d="M89.6752 14.4595C89.6752 13.5177 89.6598 12.8471 89.6189 12.2226H91.1443L91.2006 13.5484H91.2569C91.5998 12.5656 92.4086 12.064 93.1508 12.064C93.3197 12.064 93.4221 12.0793 93.5654 12.1049V13.7583C93.4221 13.7276 93.2686 13.702 93.0536 13.702C92.2141 13.702 91.6408 14.2445 91.4872 15.0277C91.4565 15.1864 91.4309 15.3707 91.4309 15.5703V19.1585H89.6803V14.4544L89.6752 14.4595Z" fill="white"/>
<path d="M95.7618 12.2227L96.888 15.7444C97.0876 16.3586 97.2309 16.9114 97.3589 17.4847H97.3998C97.5278 16.9165 97.6865 16.374 97.8708 15.7444L98.9662 12.2227H100.819L98.1677 19.1637H96.4426L93.8628 12.2227H95.7567H95.7618Z" fill="white"/>
<path d="M106.777 17.495C106.777 18.1194 106.803 18.7337 106.874 19.1637H105.293L105.18 18.3959H105.139C104.709 18.9384 103.987 19.3223 103.086 19.3223C101.689 19.3223 100.906 18.3088 100.906 17.2544C100.906 15.5038 102.457 14.6182 105.026 14.6336V14.521C105.026 14.0654 104.842 13.3129 103.614 13.3129C102.928 13.3129 102.216 13.5279 101.745 13.8248L101.402 12.6833C101.914 12.3711 102.81 12.0691 103.91 12.0691C106.132 12.0691 106.777 13.4819 106.777 14.9919V17.5001V17.495ZM105.067 15.7699C103.829 15.7392 102.646 16.0105 102.646 17.065C102.646 17.7509 103.086 18.0631 103.644 18.0631C104.34 18.0631 104.857 17.6076 105.011 17.1059C105.052 16.978 105.067 16.8346 105.067 16.722V15.7699Z" fill="white"/>
<path d="M109.981 10.4412V12.2225H111.65V13.5329H109.981V16.5939C109.981 17.4334 110.212 17.8736 110.877 17.8736C111.205 17.8736 111.363 17.8429 111.563 17.7866L111.589 19.1277C111.333 19.2249 110.877 19.3119 110.319 19.3119C109.679 19.3119 109.137 19.0816 108.809 18.7284C108.441 18.3291 108.266 17.7047 108.266 16.7884V13.5278H107.268V12.2174H108.266V10.9377L109.976 10.4412H109.981Z" fill="white"/>
<path d="M114.429 10.2826C114.429 10.8099 114.046 11.2245 113.431 11.2245C112.817 11.2245 112.464 10.8099 112.464 10.2826C112.464 9.75541 112.863 9.32544 113.447 9.32544C114.03 9.32544 114.414 9.74006 114.429 10.2826ZM112.561 12.2175H114.327V19.1585H112.561V12.2226V12.2175Z" fill="white"/>
<path d="M122.394 15.6266C122.394 18.1757 120.598 19.3172 118.832 19.3172C116.866 19.3172 115.356 17.9608 115.356 15.7392C115.356 13.5177 116.851 12.064 118.95 12.064C121.048 12.064 122.4 13.5177 122.4 15.6266H122.394ZM117.168 15.6983C117.168 17.0394 117.823 18.0478 118.893 18.0478C119.891 18.0478 120.588 17.065 120.588 15.6676C120.588 14.5824 120.101 13.3437 118.909 13.3437C117.716 13.3437 117.168 14.5414 117.168 15.6932" fill="white"/>
<path d="M123.418 14.2855C123.418 13.487 123.403 12.8164 123.362 12.2175H124.903L124.984 13.2566H125.025C125.322 12.714 126.08 12.0588 127.232 12.0588C128.445 12.0588 129.699 12.842 129.699 15.0379V19.1585H127.948V15.2376C127.948 14.2394 127.58 13.487 126.622 13.487C125.926 13.487 125.44 13.9835 125.256 14.5107C125.199 14.6694 125.184 14.8793 125.184 15.084V19.1585H123.418V14.2855Z" fill="white"/>
<path d="M31.2397 28.3671L30.4155 31.0903H28.6035L31.6799 21.4875H33.9168L37.0392 31.0903H35.1555L34.2853 28.3671H31.2345H31.2397ZM33.9884 27.0414L33.2309 24.6765C33.0466 24.093 32.8879 23.4378 32.7446 22.8798H32.7139C32.5705 23.4378 32.4272 24.1032 32.2583 24.6765L31.5161 27.0414H33.9782H33.9884Z" fill="white"/>
<path d="M39.5936 20.9705H37.8276V31.0851H39.5936V20.9705Z" fill="white"/>
<path d="M42.8387 20.9705H41.0728V31.0851H42.8387V20.9705Z" fill="white"/>
<path d="M46.1865 22.2143C46.1865 22.7415 45.8026 23.1561 45.1884 23.1561C44.5741 23.1561 44.2209 22.7415 44.2209 22.2143C44.2209 21.6871 44.6202 21.2622 45.2037 21.2622C45.7873 21.2622 46.1712 21.6768 46.1865 22.2143ZM44.3182 24.1543H46.0842V31.0953H44.3182V24.1543Z" fill="white"/>
<path d="M52.943 29.4215C52.943 30.046 52.9686 30.6602 53.0402 31.0902H51.4585L51.3459 30.3224H51.305C50.8801 30.865 50.1481 31.2489 49.2524 31.2489C47.8549 31.2489 47.0718 30.2354 47.0718 29.1809C47.0718 27.4303 48.6228 26.5447 51.1924 26.5601V26.4475C51.1924 25.9919 51.0081 25.2395 49.7796 25.2395C49.0937 25.2395 48.3822 25.4544 47.9113 25.7513L47.5683 24.6099C48.0802 24.2976 48.9811 23.9956 50.0765 23.9956C52.298 23.9956 52.943 25.4084 52.943 26.9184V29.4266V29.4215ZM51.2333 27.6965C49.9946 27.6657 48.8122 27.937 48.8122 28.9915C48.8122 29.6774 49.2524 29.9897 49.8103 29.9897C50.5065 29.9897 51.0234 29.5341 51.177 29.0324C51.218 28.9045 51.2333 28.7612 51.2333 28.6485V27.6913V27.6965Z" fill="white"/>
<path d="M54.2946 26.2174C54.2946 25.4189 54.2792 24.7483 54.2383 24.1494H55.779L55.866 25.1885H55.907C56.2039 24.6459 56.9615 23.9907 58.1132 23.9907C59.3263 23.9907 60.5804 24.7739 60.5804 26.9698V31.0904H58.8298V27.1695C58.8298 26.1713 58.4612 25.4189 57.504 25.4189C56.8079 25.4189 56.3216 25.9154 56.1373 26.4426C56.081 26.6013 56.0657 26.8112 56.0657 27.0108V31.0853H54.2997V26.2123L54.2946 26.2174Z" fill="white"/>
<path d="M67.1327 30.8754C66.7642 31.0444 66.0373 31.244 65.1671 31.244C63.0019 31.244 61.5891 29.8466 61.5891 27.6967C61.5891 25.5468 63.0121 23.9907 65.4486 23.9907C66.0885 23.9907 66.7437 24.134 67.1429 24.3183L66.8307 25.6287C66.5441 25.5008 66.1346 25.3574 65.505 25.3574C64.1638 25.3574 63.3653 26.3402 63.3807 27.6097C63.3807 29.0327 64.3072 29.8466 65.505 29.8466C66.1192 29.8466 66.5441 29.7186 66.887 29.5753L67.1276 30.8703L67.1327 30.8754Z" fill="white"/>
<path d="M69.1289 28.1111C69.1698 29.3652 70.1526 29.9078 71.2685 29.9078C72.0824 29.9078 72.666 29.7951 73.1932 29.5955L73.4491 30.8087C72.8502 31.0492 72.0261 31.2489 71.0279 31.2489C68.7757 31.2489 67.45 29.8514 67.45 27.7272C67.45 25.8025 68.617 23.9956 70.8386 23.9956C73.0601 23.9956 73.833 25.8486 73.833 27.374C73.833 27.7016 73.8023 27.9575 73.7767 28.1162H69.134L69.1289 28.1111ZM72.1797 26.8877C72.195 26.2479 71.9084 25.1934 70.7413 25.1934C69.6561 25.1934 69.2006 26.1762 69.1289 26.8877H72.1797Z" fill="white"/>
<path d="M4.30493 28.6228C4.37061 28.6127 4.32009 28.6077 4.30493 28.6228Z" fill="white"/>
<path d="M27.2832 20.2436L25.7936 17.6382L24.7852 15.8875V15.3347L23.5516 13.0006L23.8997 12.6013L23.6591 12.0792L23.828 11.3933L23.1114 10.2518L23.0909 9.60173L22.8759 9.182L22.4818 8.18896L21.9801 9.25366L22.0927 9.66316L21.2789 11.3114L21.3761 11.9973L21.0844 12.7293L21.4273 13.1388L21.0844 13.9015L18.9294 11.465L17.0201 9.53007L16.0475 9.02332L15.4333 7.49793L14.5938 6.99629L13.7543 6.05444L12.8585 6.99629L12.3006 7.42627L9.88967 10.3951L9.38291 10.6971L8.43082 12.6576L8.09299 11.9922L8.37452 11.2295L7.87288 8.94653L8.08275 8.22479L7.53504 7.06284L7.42243 6.20801L7.0846 4.98975L6.28607 7.50305L6.43452 8.18896L5.8561 9.79625L6.13763 10.1699L5.74349 11.2346L5.9124 11.6902L5.34934 13.1388L5.51826 13.8247L4.9552 15.1965L4.42285 13.2156V12.3044L4.72997 11.7721L3.94681 9.4021L4.37166 9.33556L4.27441 8.80321L3.44005 6.28991L2.60058 9.25878L2.88211 9.46865L2.02216 12.3812L2.26786 12.6679L0.640098 17.7149L1.03424 17.935L0.158936 19.9262V20.1975C2.05799 20.003 7.20233 19.5475 13.5649 19.5475C19.9275 19.5475 25.4302 20.0491 27.2883 20.2436" fill="white"/>
<path d="M25.8394 22.46C24.4215 22.2603 26.4997 20.9448 27.1959 20.5302C26.812 20.4892 26.2899 20.4381 25.6347 20.3818C23.1674 20.1668 18.883 19.875 13.5596 19.875C8.23606 19.875 3.7418 20.1719 1.42813 20.3818C0.870186 20.4329 0.424856 20.4739 0.107494 20.5097V20.7503C0.107494 20.7503 0.189394 20.9397 0.460687 21.3236C0.522112 21.4106 0.598893 21.513 0.685912 21.6256C0.762693 21.7229 0.849711 21.8304 0.946968 21.9481C1.11077 22.1477 16.641 21.9788 1.08005 22.419C0.957205 22.419 0.85483 22.6442 0.675674 22.7159C0.36855 22.8439 0 22.9155 0 23.0486C0 23.1152 0.0972561 23.2483 0.235462 23.4172C0.383906 23.5963 0.522112 24.0212 0.77293 24.0212C6.10666 24.0212 0.844593 24.0877 1.15684 24.487C1.33087 24.7071 1.38718 24.876 1.20802 24.8862C-0.491399 24.9937 1.2285 25.0756 1.54586 25.2957C1.67383 25.3828 1.81204 25.48 1.94512 25.5773C2.33927 25.8639 2.65151 26.1966 2.22153 26.1864C0.0153563 26.1403 1.78644 26.2939 1.97583 26.4014C2.0219 26.427 2.08845 26.5652 2.16011 26.7597C2.22153 26.9184 2.96375 27.1487 1.56122 27.333C1.41789 27.3535 3.52681 27.6504 2.51842 27.8244C1.64824 27.9729 0.353193 28.2953 2.19082 28.3875C2.4314 28.3977 5.0522 28.7202 2.8665 28.7202C2.77948 28.7202 2.47747 28.7611 2.35974 28.7663C2.00143 28.7867 2.55425 29.2577 2.22665 29.2577C0.967442 29.2577 2.91256 29.6672 2.76924 29.6876C2.55425 29.7183 2.93304 30.2353 2.759 30.3019C2.74365 30.307 2.52354 30.4196 2.50307 30.4196C2.1038 30.4708 3.19921 30.4043 2.91256 30.696C2.80507 30.8035 2.16011 30.9315 2.95863 30.9724C3.05589 30.9724 2.2676 31.0953 2.42628 31.0953C2.457 31.0953 3.1685 31.3103 3.19921 31.3103C3.49098 31.3103 2.81531 30.8547 3.34254 30.7319C3.59336 30.6755 3.39373 30.3633 3.55753 30.3326C4.11547 30.2405 4.32022 29.8361 4.18713 29.8105C2.71293 29.5341 4.16666 29.3498 4.25879 29.2935C5.24671 28.6536 4.49938 28.8123 4.33046 28.6844C4.28951 28.6536 4.28439 28.6383 4.29463 28.6281C4.24856 28.6332 4.13594 28.6383 3.90048 28.6332C3.63431 28.628 4.02333 28.1418 3.76228 28.1008C2.97911 27.9729 4.14618 27.7425 4.25879 27.5787C4.37141 27.4047 3.9875 27.1283 4.13594 27.0873C4.5608 26.9747 5.06244 27.2255 5.07779 26.9337C5.07779 26.9133 4.68877 26.8877 4.68877 26.857C4.68877 26.6471 3.75204 26.7495 3.70085 26.5089C3.6855 26.427 4.13594 26.4782 4.02845 26.3195C3.79299 25.9663 3.31183 25.8998 3.77251 25.8076C3.90048 25.782 4.09499 25.7667 4.37653 25.7718C5.30814 25.7871 5.09315 25.6438 4.8065 25.5107C4.57104 25.4032 4.28951 25.2957 4.55056 25.2906C4.76555 25.2906 4.85769 25.1473 4.89864 24.9733C4.96518 24.6764 1.89394 24.3334 4.91399 24.2874C5.24671 24.2874 3.72644 24.5177 5.51801 24.5177C16.5847 24.5177 6.31653 24.6406 5.84049 24.702C5.52312 24.7429 5.26719 24.8402 5.26207 24.9118C5.25183 25.0347 5.59479 25.1883 5.90703 25.2804C6.12202 25.3418 6.16809 25.7155 5.31326 25.8281C5.0522 25.8639 4.93959 25.9714 4.92423 26.1096C4.90887 26.2478 5.35421 26.2376 5.49753 26.3809C5.6818 26.5652 5.60502 26.8928 5.87632 26.9082C6.63901 27.0822 5.9275 27.1283 5.7074 27.2511C5.59479 27.3125 5.62038 27.722 6.12714 27.6964C6.49057 27.7579 6.39331 27.9473 6.10154 28.0496C5.81489 28.152 6.53663 28.2441 5.82001 28.326C5.69204 28.3414 6.27046 28.582 5.59479 28.6229C5.57943 28.7714 5.64597 28.9301 5.83537 28.9454C5.92239 29.0631 6.20904 29.0939 6.29605 29.1911C6.4189 29.3293 6.40355 29.5341 6.40355 29.5341C6.40355 29.5341 7.30445 29.9129 6.65437 30.0203C6.55711 30.0357 6.42914 30.0459 6.2551 30.0511C6.01452 30.0511 5.55896 30.435 6.2551 30.435C6.70555 30.435 6.47009 30.6704 6.52128 30.7114C6.84888 30.9878 6.70555 31.2796 6.39331 31.2796C5.39004 31.2796 6.27046 31.4229 6.82328 31.6379C7.00756 31.7095 6.95637 31.9194 7.05363 31.9296C7.24814 31.945 7.33516 31.3819 7.55015 31.3666C7.95965 31.3359 7.80096 31.1158 7.39146 31.0185C6.57758 30.824 7.16624 30.4401 7.50408 30.3787C7.673 30.3428 5.23136 30.1432 7.84703 29.9794C8.01595 29.9692 7.9187 29.3344 8.00571 29.2884C8.2463 29.1655 7.00756 28.6741 8.41521 28.6741C8.73769 28.6741 8.69674 28.4284 7.85727 28.4284C7.28909 28.4284 7.27885 28.2902 7.68835 28.2441C8.20023 28.1827 7.1816 27.4149 8.17463 27.4507C8.36403 27.4559 8.82471 27.3535 8.53806 27.3279C7.4273 27.2358 8.36403 26.7648 8.06714 26.6829C7.76513 26.5959 5.03172 26.0636 8.40498 26.1813C10.9234 26.2734 8.73258 26.514 9.36218 26.5498C10.3501 26.601 11.9113 26.5601 11.9369 26.642C12.0035 26.8877 9.23421 26.9747 8.93733 27.0003C8.46128 27.0412 9.11136 27.4661 9.40313 27.5582C9.67954 27.6453 12.285 27.7886 9.86894 27.8807C8.67627 27.9268 13.1296 28.6792 10.9643 28.8891C8.79912 29.1041 11.2203 29.2986 11.4762 29.36C12.4795 29.6774 10.7442 29.9333 11.8652 29.9896C13.063 29.9896 11.5837 30.266 11.7936 30.266C13.2217 30.3326 14.7471 30.307 13.063 30.6346C12.0342 30.8342 12.1519 31.0236 12.7201 31.0339C13.534 31.0492 13.6978 31.4894 13.8616 31.5099C14.0765 31.5355 13.9844 31.2284 14.1124 31.1874C14.5475 31.0492 14.184 30.5425 14.5935 30.4298C14.5935 30.4298 16.7639 30.1278 15.4381 30.0511C14.1124 29.9794 19.3437 28.9915 16.0575 28.9096C12.7661 28.8277 17.0352 28.5308 17.0352 28.5308C17.0352 28.5308 18.7039 28.0701 17.7006 28.0292C7.99548 27.6504 18.8882 27.6811 19.0468 27.5582C19.226 27.42 17.9719 27.2511 18.3968 27.0105C18.5452 26.9235 19.4154 26.8416 19.5741 26.8263C20.2805 26.7802 20.4391 26.4987 19.917 26.4577C18.7602 26.3656 19.1083 25.9356 20.0604 25.6797C20.2344 25.6336 14.1584 25.3725 17.5931 25.2855C17.7416 25.2855 16.9072 24.9426 17.9207 24.9426C19.6611 24.9426 17.4498 25.2548 21.1148 25.2548C22.5122 25.2548 19.9221 25.6541 21.4578 25.823C22.9934 25.997 21.7342 25.9407 21.1148 26.1301C20.4954 26.3195 20.8794 26.5806 21.4117 26.6778C21.9441 26.7751 21.6625 27.1539 21.3144 27.1897C20.9305 27.2306 21.8366 27.7886 21.509 27.7681C20.8947 27.7374 22.0208 28.3977 22.1283 28.4233C22.3433 28.4694 22.4508 28.7151 22.0157 28.7304C21.7495 28.7407 22.0413 29.0683 22.3075 29.3242C22.4764 29.4829 22.5225 29.662 22.63 29.616C22.7375 29.5699 22.3126 29.2065 22.4815 29.2065C22.9217 29.2065 22.5225 28.7919 22.9115 28.7867C23.6844 28.7765 22.6863 28.5717 23.1316 28.4745C23.5718 28.3772 22.6965 27.9677 23.1521 27.9882C23.6076 28.0087 22.8245 27.3074 23.8687 27.1334C24.9129 26.9593 23.6998 26.6215 23.6998 26.6215C23.6998 26.6215 18.4633 26.2274 23.9404 26.2274C24.5546 26.2274 23.2493 25.9254 23.5872 25.9254C24.9846 25.8998 22.8501 25.5312 24.0786 25.5312C24.6212 25.5312 24.6416 25.3111 24.7645 25.3009C25.4197 25.2548 25.7422 24.9733 24.2577 24.9733C21.381 24.9681 24.1502 24.1543 24.8208 24.1799C25.4913 24.2055 24.5137 24.0161 24.8208 23.7652C24.9436 23.668 -4.53009 23.2687 25.7831 23.2687C26.4332 23.2687 26.8478 22.5982 25.8292 22.4497" fill="white"/>
<path d="M31.9565 11.0247H29.218V9.55566H36.4713V11.0247H33.7072V19.1584H31.9565V11.0247Z" fill="white"/>
</g>
</g>
<defs>
<clipPath id="clip0_19_3331">
<rect width="130" height="39" fill="white"/>
</clipPath>
<clipPath id="clip1_19_3331">
<rect width="130.016" height="27.1293" fill="white" transform="translate(0 5)"/>
</clipPath>
</defs>
</svg>
