<svg width="800" height="1364" viewBox="0 0 800 1364" fill="none" xmlns="http://www.w3.org/2000/svg">
<g clip-path="url(#clip0_251_465)">
<path fill-rule="evenodd" clip-rule="evenodd" d="M0 0H800V800H0V0ZM199.04 134.47V123.64L199.03 123.66H128.62V148.13H171.14C166.12 164.78 151.68 174.81 130.22 174.81C115.78 174.81 104.15 170.59 95.32 161.97C86.69 153.34 82.28 142.51 82.28 129.07C82.28 115.63 86.5 104.6 95.12 95.97C103.75 87.14 114.78 82.73 128.22 82.73C144.87 82.73 159.31 90.76 165.93 102.19L189.6 88.55C177.57 68.69 154.7 55.85 128.42 55.85C107.56 55.85 90.11 62.87 75.87 77.11C61.83 91.35 54.81 108.8 54.81 129.06C54.81 149.32 61.83 166.57 76.07 180.81C90.31 194.85 108.36 201.87 130.03 201.87C150.29 201.87 166.94 195.65 179.78 183.21C192.62 170.78 199.04 154.53 199.04 134.47ZM240.49 116.02C245.06 103.18 256.5 96.76 269.46 96.76V125.65C262.03 124.65 255.17 126.25 249.26 130.47C243.35 134.68 240.49 141.5 240.49 151.13V199.07H215.91V98.77H240.49V116.02ZM339.26 178.41C323.82 178.41 314.39 172.19 310.98 159.55H386.6C387.2 155.74 387.6 152.33 387.6 148.92C387.6 133.88 382.79 121.44 373.16 111.21C363.73 100.98 351.49 95.96 336.85 95.96C321.41 95.96 308.57 100.98 298.74 111.21C288.91 121.24 283.89 133.68 283.89 148.92C283.89 164.16 288.91 176.8 298.94 186.83C308.97 196.85 322.21 201.87 338.86 201.87C358.12 201.87 372.76 194.65 382.59 180.41L361.73 168.38C356.71 175 349.09 178.41 339.26 178.41ZM336.86 119.23C348.69 119.23 358.72 125.85 361.73 139.49H310.58C313.59 126.65 323.02 119.23 336.86 119.23ZM480.89 98.77H506.77V199.07H480.89V187.23C473.07 197.06 462.24 201.87 448.19 201.87C434.14 201.87 423.32 196.85 413.69 186.62C404.26 176.39 399.45 163.75 399.45 148.91C399.45 134.07 404.27 121.63 413.69 111.4C423.32 101.17 434.75 95.95 448.19 95.95C461.63 95.95 473.06 100.76 480.89 110.59V98.77ZM453.01 177.2C461.04 177.2 467.65 174.59 472.87 169.38C478.28 163.96 480.89 157.14 480.89 148.92C480.89 140.7 478.28 133.88 472.87 128.66C467.65 123.24 461.04 120.64 453.01 120.64C444.98 120.64 438.37 123.25 433.15 128.66C427.93 133.88 425.33 140.7 425.33 148.92C425.33 157.14 427.94 163.96 433.15 169.38C438.36 174.59 444.98 177.2 453.01 177.2ZM568.96 123.64H591.63V98.77H568.96V70.69L543.08 78.51V98.77H525.63V123.64H543.08V165.36C543.08 192.84 556.12 203.07 591.63 199.06V175.59C576.78 176.39 568.96 176.19 568.96 165.36V123.64ZM125.63 235.01C139.07 235.01 150.5 239.62 159.73 248.65C168.96 257.68 173.57 268.91 173.57 282.15C173.57 295.39 168.96 306.62 159.73 315.65C150.5 324.68 139.07 329.29 125.63 329.29H100.96V375.43H73.28V235.01H125.63ZM125.63 303.41C137.46 303.41 146.09 294.18 146.09 282.15C146.09 270.12 137.47 260.89 125.63 260.89H100.96V303.41H125.63ZM192.43 236.31H218.31V375.43H192.43V236.31ZM322.22 275.13H348.1V375.42H322.22V363.58C314.4 373.41 303.57 378.22 289.52 378.22C275.47 378.22 264.65 373.2 255.02 362.98C245.59 352.75 240.78 340.11 240.78 325.27C240.78 310.43 245.59 297.99 255.02 287.76C264.65 277.53 276.08 272.31 289.52 272.31C302.96 272.31 314.39 277.12 322.22 286.95V275.13ZM294.34 353.56C302.37 353.56 308.98 350.95 314.2 345.74C319.61 340.32 322.22 333.5 322.22 325.28C322.22 317.06 319.61 310.24 314.2 305.02C308.98 299.6 302.37 297 294.34 297C286.31 297 279.7 299.61 274.48 305.02C269.26 310.24 266.66 317.06 266.66 325.28C266.66 333.5 269.27 340.32 274.48 345.74C279.69 350.95 286.32 353.56 294.34 353.56ZM370.37 325.28C370.37 340.32 375.39 352.76 385.42 362.99L385.43 363C395.66 373.23 408.3 378.25 423.34 378.25C442.79 378.25 459.85 368.02 468.67 352.17L446.2 339.33C442.19 347.55 433.56 352.57 423.13 352.57C415.3 352.57 408.88 349.96 403.87 344.95C398.86 339.73 396.25 333.11 396.25 325.29C396.25 309.24 407.69 297.81 423.13 297.81C433.36 297.81 441.99 303.03 446 311.25L468.26 298.21C460.04 282.36 442.79 272.33 423.33 272.33C408.29 272.33 395.65 277.34 385.42 287.57C375.39 297.8 370.37 310.24 370.37 325.28ZM509.99 335.91C513.4 348.55 522.83 354.77 538.27 354.77C548.1 354.77 555.72 351.36 560.74 344.74L581.6 356.77C571.77 371.01 557.13 378.23 537.87 378.23C521.22 378.23 507.98 373.21 497.95 363.19C487.92 353.16 482.9 340.52 482.9 325.28C482.9 310.04 487.92 297.6 497.75 287.57C507.58 277.34 520.42 272.32 535.86 272.32C550.5 272.32 562.74 277.33 572.17 287.57C581.8 297.8 586.61 310.24 586.61 325.28C586.61 328.69 586.21 332.1 585.61 335.91H509.99ZM560.74 315.85C557.73 302.21 547.7 295.59 535.87 295.59C522.03 295.59 512.6 303.01 509.59 315.85H560.74ZM158.12 443.54V418.38H54.81V443.54H92.53V551.78H120.21V443.54H158.12ZM201.24 554.59C186.4 554.59 173.76 549.57 163.53 539.34C153.3 529.11 148.28 516.47 148.28 501.63C148.28 486.79 153.3 474.35 163.53 464.12C173.76 453.89 186.4 448.67 201.24 448.67C216.08 448.67 228.72 453.88 238.95 464.12C249.18 474.35 254.4 486.79 254.4 501.63C254.4 516.47 249.19 529.11 238.95 539.34C228.72 549.57 216.08 554.59 201.24 554.59ZM201.24 529.31C209.06 529.31 215.48 526.7 220.7 521.49C225.91 516.27 228.52 509.65 228.52 501.63C228.52 493.61 225.91 486.99 220.7 481.77C215.48 476.56 209.07 473.95 201.24 473.95C193.41 473.95 187 476.56 181.78 481.77C176.76 486.99 174.16 493.6 174.16 501.63C174.16 509.66 176.77 516.27 181.78 521.49C186.99 526.7 193.41 529.31 201.24 529.31ZM58.61 595.93L97.93 736.35H129.42L155.69 643.67L182.17 736.35H213.67L252.98 595.93H223.9L197.02 700.04L167.53 595.93H143.86L114.57 700.04L87.69 595.93H58.61ZM303.55 739.16C288.71 739.16 276.07 734.14 265.84 723.91C255.61 713.68 250.59 701.04 250.59 686.2C250.59 671.36 255.61 658.92 265.84 648.69C276.07 638.46 288.71 633.24 303.55 633.24C318.39 633.24 331.03 638.45 341.26 648.69C351.49 658.92 356.71 671.36 356.71 686.2C356.71 701.04 351.5 713.68 341.26 723.91C331.03 734.14 318.39 739.16 303.55 739.16ZM303.55 713.88C311.37 713.88 317.79 711.27 323.01 706.06C328.22 700.84 330.83 694.23 330.83 686.2C330.83 678.17 328.22 671.56 323.01 666.34C317.79 661.13 311.38 658.52 303.55 658.52C295.72 658.52 289.31 661.13 284.09 666.34C279.07 671.56 276.47 678.17 276.47 686.2C276.47 694.23 279.08 700.84 284.09 706.06C289.3 711.27 295.72 713.88 303.55 713.88ZM431.33 634.04C417.69 634.04 405.65 640.46 400.84 653.3H400.83V636.05H374.95V736.35H400.83V688.41C400.83 678.78 403.84 671.96 410.06 667.75C416.28 663.53 423.5 661.93 431.33 662.93V634.04ZM542.87 736.35H512.78L476.27 690.81V736.35H450.4V595.93H476.27V680.18L510.77 636.05H541.66L501.35 685.6L542.87 736.35ZM574.99 695.59C562.32 695.59 552.31 705.7 552.31 718.27C552.31 731.04 562.32 740.75 574.99 740.75C587.66 740.75 597.67 730.74 597.67 718.17C597.67 705.6 587.66 695.59 574.99 695.59ZM574.99 699.27C585.81 699.27 593.58 707.03 593.58 718.17C593.58 729.31 585.42 737.07 574.99 737.07C564.56 737.07 556.39 729.4 556.39 718.27C556.39 707.14 564.17 699.27 574.99 699.27ZM575.09 706.73H567.22V729.1H572.12V720.42H574.47L579.89 729.1H585L579.07 719.6C581.73 718.78 583.67 716.94 583.67 713.57V713.47C583.67 708.88 580.3 706.73 575.09 706.73ZM578.87 713.78C578.87 715.93 577.54 717.05 574.99 717.05H572.13V710.51H574.99C577.44 710.51 578.87 711.33 578.87 713.68V713.78Z" fill="white"/>
<path d="M747.73 1236.89H739.91V1254H732.76V1236.89H725.01V1230H747.74V1236.89H747.73ZM779.49 1254H772.34V1244.11L766.93 1253.74H763.72L758.31 1244.11V1254H751.16V1230H757.24L765.33 1244.51L773.42 1230H779.5V1254H779.49Z" fill="white"/>
<path fill-rule="evenodd" clip-rule="evenodd" d="M0 817V1157.27L400 1364L800 1157.27V817H0ZM420.73 891C413.93 891 408.23 896.86 408.23 903.66C408.23 910.46 413.77 916.16 420.73 916.16C427.69 916.16 433.39 910.46 433.39 903.66C433.39 896.86 427.53 891 420.73 891ZM431.01 925.66H410.6V1004.79H431.01V925.66ZM87.46 949.4C87.46 916.96 111.51 891.8 145.06 891.8C165.32 891.8 183.2 902.09 192.69 917.91L173.86 928.83C168.48 919.02 157.72 913 145.06 913C123.38 913 109.14 928.03 109.14 949.4C109.14 970.77 123.38 985.64 145.06 985.64C157.72 985.64 168.64 979.63 173.86 969.97L192.69 980.89C183.35 996.72 165.47 1007 145.06 1007C111.51 1007 87.46 981.68 87.46 949.4ZM240.8 988.48C248.71 988.48 255.04 985.16 258.52 980.57L274.98 990.07C267.54 1000.83 255.67 1007 240.48 1007C213.89 1007 197.12 988.8 197.12 965.22C197.12 941.64 214.05 923.44 238.9 923.44C262.32 923.44 278.94 941.96 278.94 965.22C278.94 968.23 278.62 970.92 278.15 973.61H218.49C221.34 984.06 230.04 988.49 240.8 988.49V988.48ZM258.52 957.78C255.99 946.39 247.44 941.8 238.9 941.8C227.98 941.8 220.54 947.66 218.17 957.78H258.52ZM333.7 946.86V924.07C323.73 924.07 313.76 928.5 309.65 939.26V925.65H289.24V1004.78H309.65V966.96C309.65 950.34 323.1 945.59 333.7 946.86ZM377.53 978.2V945.29H395.4V925.67H377.52V903.51L357.11 909.68V925.66H343.34V945.28H357.11V978.2C357.11 999.57 366.77 1007.96 395.41 1004.79V986.27C383.7 986.9 377.53 986.75 377.53 978.2ZM475.8 924.87V925.66H492.58V945.28H475.8V1004.78H455.39V945.28H444V925.66H455.39V924.87C455.39 903.03 467.42 890.21 492.58 891.8V911.42C481.98 910.63 475.8 914.11 475.8 924.87ZM515.52 891C508.72 891 503.02 896.86 503.02 903.66C503.02 910.46 508.56 916.16 515.52 916.16C522.48 916.16 528.18 910.46 528.18 903.66C528.18 896.86 522.32 891 515.52 891ZM525.8 925.66H505.39V1004.79H525.8V925.66ZM582.14 988.48C590.05 988.48 596.38 985.16 599.86 980.57L616.32 990.07C608.88 1000.83 597.01 1007 581.82 1007C555.23 1007 538.46 988.8 538.46 965.22C538.46 941.64 555.39 923.44 580.24 923.44C603.66 923.44 620.28 941.96 620.28 965.22C620.28 968.23 619.96 970.92 619.49 973.61H559.83C562.68 984.06 571.38 988.49 582.14 988.49V988.48ZM599.86 957.78C597.33 946.39 588.78 941.8 580.24 941.8C569.32 941.8 561.88 947.66 559.51 957.78H599.86ZM692.13 1004.79H712.54V894H692.13V934.99C686.43 927.71 678.04 923.44 666.49 923.44C645.29 923.44 627.88 941.64 627.88 965.22C627.88 988.8 645.28 1007 666.49 1007C678.05 1007 686.43 1002.73 692.13 995.45V1004.79ZM670.29 942.91C682.79 942.91 692.13 951.93 692.13 965.22C692.13 978.51 682.95 987.53 670.29 987.53C657.63 987.53 648.29 978.51 648.29 965.22C648.29 951.93 657.79 942.91 670.29 942.91ZM96.54 1079.89H106.623V1111.61C106.623 1115.76 106.258 1118.95 105.529 1121.18C104.549 1124.1 102.772 1126.45 100.197 1128.22C97.6224 1129.98 94.2272 1130.85 90.0117 1130.85C85.0671 1130.85 81.2617 1129.48 78.5957 1126.72C75.9297 1123.94 74.5853 1119.87 74.5625 1114.52L84.0986 1113.42C84.2126 1116.29 84.6341 1118.32 85.3633 1119.51C86.457 1121.31 88.1204 1122.21 90.3535 1122.21C92.6094 1122.21 94.2044 1121.57 95.1387 1120.29C96.0729 1118.99 96.54 1116.32 96.54 1112.26V1079.89ZM151.604 1130H162.609L142.546 1079.89H131.848L112.331 1130H123.063L127.199 1118.62H147.229L151.604 1130ZM137.077 1091.58L143.981 1110.18H130.31L137.077 1091.58ZM168.112 1130V1079.89H177.956L198.464 1113.35V1079.89H207.863V1130H197.712L177.512 1097.32V1130H168.112ZM268.396 1130V1121.08H249.323C249.825 1120.21 250.474 1119.32 251.271 1118.41C252.092 1117.5 254.017 1115.66 257.048 1112.88C260.078 1110.1 262.175 1107.97 263.337 1106.48C265.091 1104.25 266.368 1102.12 267.165 1100.09C267.985 1098.04 268.396 1095.89 268.396 1093.63C268.396 1089.67 266.983 1086.35 264.157 1083.69C261.332 1081.02 257.447 1079.69 252.502 1079.69C247.99 1079.69 244.23 1080.84 241.223 1083.14C238.215 1085.44 236.426 1089.24 235.856 1094.52L245.427 1095.48C245.609 1092.68 246.293 1090.67 247.478 1089.46C248.662 1088.26 250.257 1087.65 252.263 1087.65C254.291 1087.65 255.874 1088.23 257.014 1089.39C258.176 1090.53 258.757 1092.17 258.757 1094.32C258.757 1096.25 258.096 1098.21 256.774 1100.2C255.795 1101.63 253.14 1104.37 248.811 1108.4C243.433 1113.39 239.833 1117.4 238.01 1120.43C236.187 1123.44 235.093 1126.63 234.729 1130H268.396ZM291.159 1079.69C296.013 1079.69 299.807 1081.42 302.541 1084.88C305.799 1088.98 307.429 1095.79 307.429 1105.29C307.429 1114.77 305.788 1121.58 302.507 1125.73C299.795 1129.15 296.013 1130.85 291.159 1130.85C286.283 1130.85 282.352 1128.99 279.367 1125.25C276.382 1121.49 274.89 1114.8 274.89 1105.19C274.89 1095.75 276.53 1088.96 279.812 1084.81C282.523 1081.4 286.306 1079.69 291.159 1079.69ZM291.159 1087.65C289.997 1087.65 288.96 1088.03 288.049 1088.78C287.137 1089.51 286.431 1090.83 285.93 1092.74C285.269 1095.23 284.938 1099.41 284.938 1105.29C284.938 1111.17 285.235 1115.21 285.827 1117.42C286.42 1119.61 287.16 1121.07 288.049 1121.8C288.96 1122.53 289.997 1122.89 291.159 1122.89C292.321 1122.89 293.358 1122.53 294.27 1121.8C295.181 1121.04 295.887 1119.71 296.389 1117.8C297.049 1115.34 297.38 1111.17 297.38 1105.29C297.38 1099.41 297.084 1095.38 296.491 1093.19C295.899 1090.98 295.147 1089.51 294.235 1088.78C293.347 1088.03 292.321 1087.65 291.159 1087.65ZM346.325 1130V1121.08H327.253C327.754 1120.21 328.404 1119.32 329.201 1118.41C330.021 1117.5 331.947 1115.66 334.978 1112.88C338.008 1110.1 340.104 1107.97 341.267 1106.48C343.021 1104.25 344.297 1102.12 345.095 1100.09C345.915 1098.04 346.325 1095.89 346.325 1093.63C346.325 1089.67 344.912 1086.35 342.087 1083.69C339.261 1081.02 335.376 1079.69 330.432 1079.69C325.92 1079.69 322.16 1080.84 319.152 1083.14C316.145 1085.44 314.356 1089.24 313.786 1094.52L323.356 1095.48C323.539 1092.68 324.222 1090.67 325.407 1089.46C326.592 1088.26 328.187 1087.65 330.192 1087.65C332.22 1087.65 333.804 1088.23 334.943 1089.39C336.105 1090.53 336.687 1092.17 336.687 1094.32C336.687 1096.25 336.026 1098.21 334.704 1100.2C333.724 1101.63 331.07 1104.37 326.74 1108.4C321.363 1113.39 317.762 1117.4 315.939 1120.43C314.117 1123.44 313.023 1126.63 312.658 1130H346.325ZM371.687 1130V1119.92H351.179V1111.51L372.917 1079.69H380.983V1111.47H387.204V1119.92H380.983V1130H371.687ZM371.687 1111.47V1094.35L360.168 1111.47H371.687ZM392.775 1107.03V1116.64H411.643V1107.03H392.775ZM435.329 1079.89H445.412V1111.61C445.412 1115.76 445.048 1118.95 444.318 1121.18C443.339 1124.1 441.561 1126.45 438.986 1128.22C436.411 1129.98 433.016 1130.85 428.801 1130.85C423.856 1130.85 420.051 1129.48 417.385 1126.72C414.719 1123.94 413.374 1119.87 413.352 1114.52L422.888 1113.42C423.002 1116.29 423.423 1118.32 424.152 1119.51C425.246 1121.31 426.91 1122.21 429.143 1122.21C431.398 1122.21 432.993 1121.57 433.928 1120.29C434.862 1118.99 435.329 1116.32 435.329 1112.26V1079.89ZM490.393 1130H501.398L481.335 1079.89H470.637L451.12 1130H461.853L465.988 1118.62H486.018L490.393 1130ZM475.866 1091.58L482.771 1110.18H469.099L475.866 1091.58ZM506.901 1130V1079.89H516.745L537.253 1113.35V1079.89H546.652V1130H536.501L516.301 1097.32V1130H506.901ZM607.185 1130V1121.08H588.112C588.614 1120.21 589.263 1119.32 590.061 1118.41C590.881 1117.5 592.806 1115.66 595.837 1112.88C598.867 1110.1 600.964 1107.97 602.126 1106.48C603.881 1104.25 605.157 1102.12 605.954 1100.09C606.774 1098.04 607.185 1095.89 607.185 1093.63C607.185 1089.67 605.772 1086.35 602.946 1083.69C600.121 1081.02 596.236 1079.69 591.291 1079.69C586.779 1079.69 583.02 1080.84 580.012 1083.14C577.004 1085.44 575.215 1089.24 574.646 1094.52L584.216 1095.48C584.398 1092.68 585.082 1090.67 586.267 1089.46C587.451 1088.26 589.047 1087.65 591.052 1087.65C593.08 1087.65 594.663 1088.23 595.803 1089.39C596.965 1090.53 597.546 1092.17 597.546 1094.32C597.546 1096.25 596.885 1098.21 595.563 1100.2C594.584 1101.63 591.929 1104.37 587.6 1108.4C582.222 1113.39 578.622 1117.4 576.799 1120.43C574.976 1123.44 573.882 1126.63 573.518 1130H607.185ZM629.948 1079.69C634.802 1079.69 638.596 1081.42 641.33 1084.88C644.589 1088.98 646.218 1095.79 646.218 1105.29C646.218 1114.77 644.577 1121.58 641.296 1125.73C638.584 1129.15 634.802 1130.85 629.948 1130.85C625.072 1130.85 621.141 1128.99 618.156 1125.25C615.171 1121.49 613.679 1114.8 613.679 1105.19C613.679 1095.75 615.319 1088.96 618.601 1084.81C621.312 1081.4 625.095 1079.69 629.948 1079.69ZM629.948 1087.65C628.786 1087.65 627.749 1088.03 626.838 1088.78C625.926 1089.51 625.22 1090.83 624.719 1092.74C624.058 1095.23 623.728 1099.41 623.728 1105.29C623.728 1111.17 624.024 1115.21 624.616 1117.42C625.209 1119.61 625.949 1121.07 626.838 1121.8C627.749 1122.53 628.786 1122.89 629.948 1122.89C631.11 1122.89 632.147 1122.53 633.059 1121.8C633.97 1121.04 634.676 1119.71 635.178 1117.8C635.839 1115.34 636.169 1111.17 636.169 1105.29C636.169 1099.41 635.873 1095.38 635.28 1093.19C634.688 1090.98 633.936 1089.51 633.024 1088.78C632.136 1088.03 631.11 1087.65 629.948 1087.65ZM685.114 1130V1121.08H666.042C666.543 1120.21 667.193 1119.32 667.99 1118.41C668.811 1117.5 670.736 1115.66 673.767 1112.88C676.797 1110.1 678.894 1107.97 680.056 1106.48C681.81 1104.25 683.086 1102.12 683.884 1100.09C684.704 1098.04 685.114 1095.89 685.114 1093.63C685.114 1089.67 683.701 1086.35 680.876 1083.69C678.05 1081.02 674.165 1079.69 669.221 1079.69C664.709 1079.69 660.949 1080.84 657.941 1083.14C654.934 1085.44 653.145 1089.24 652.575 1094.52L662.146 1095.48C662.328 1092.68 663.011 1090.67 664.196 1089.46C665.381 1088.26 666.976 1087.65 668.981 1087.65C671.009 1087.65 672.593 1088.23 673.732 1089.39C674.895 1090.53 675.476 1092.17 675.476 1094.32C675.476 1096.25 674.815 1098.21 673.493 1100.2C672.513 1101.63 669.859 1104.37 665.529 1108.4C660.152 1113.39 656.551 1117.4 654.729 1120.43C652.906 1123.44 651.812 1126.63 651.447 1130H685.114ZM691.779 1117.11L701.35 1116.12C701.623 1118.29 702.432 1120.01 703.776 1121.28C705.121 1122.54 706.67 1123.16 708.425 1123.16C710.43 1123.16 712.128 1122.36 713.518 1120.74C714.908 1119.1 715.603 1116.64 715.603 1113.35C715.603 1110.28 714.908 1107.98 713.518 1106.45C712.15 1104.9 710.362 1104.13 708.151 1104.13C705.394 1104.13 702.922 1105.35 700.734 1107.78L692.941 1106.66L697.863 1080.58H723.259V1089.57H705.144L703.64 1098.08C705.782 1097.01 707.969 1096.47 710.202 1096.47C714.463 1096.47 718.075 1098.02 721.037 1101.12C723.999 1104.22 725.48 1108.24 725.48 1113.18C725.48 1117.31 724.284 1120.99 721.892 1124.22C718.633 1128.64 714.11 1130.85 708.322 1130.85C703.697 1130.85 699.925 1129.61 697.009 1127.13C694.092 1124.65 692.349 1121.31 691.779 1117.11ZM341.211 1201.89H331.094V1228.62C331.094 1234.23 331.424 1238.46 332.085 1241.34C332.541 1243.27 333.486 1245.13 334.922 1246.91C336.357 1248.66 338.306 1250.1 340.767 1251.21C343.25 1252.31 346.885 1252.85 351.67 1252.85C355.635 1252.85 358.848 1252.35 361.309 1251.35C363.77 1250.33 365.729 1248.96 367.188 1247.25C368.669 1245.54 369.683 1243.44 370.229 1240.96C370.776 1238.48 371.05 1234.23 371.05 1228.21V1201.89H360.933V1229.61C360.933 1233.58 360.785 1236.41 360.488 1238.12C360.192 1239.83 359.315 1241.28 357.856 1242.46C356.398 1243.63 354.233 1244.21 351.362 1244.21C348.537 1244.21 346.304 1243.59 344.663 1242.36C343.045 1241.11 342.02 1239.46 341.587 1237.41C341.336 1236.13 341.211 1233.34 341.211 1229.03V1201.89ZM379.185 1235.7L389.028 1234.74C389.621 1238.04 390.817 1240.47 392.617 1242.02C394.44 1243.57 396.89 1244.34 399.966 1244.34C403.224 1244.34 405.674 1243.66 407.314 1242.29C408.978 1240.9 409.81 1239.29 409.81 1237.44C409.81 1236.25 409.456 1235.25 408.75 1234.43C408.066 1233.59 406.859 1232.86 405.127 1232.24C403.942 1231.83 401.242 1231.1 397.026 1230.06C391.603 1228.71 387.798 1227.06 385.61 1225.1C382.534 1222.34 380.996 1218.98 380.996 1215.02C380.996 1212.47 381.714 1210.08 383.149 1207.87C384.608 1205.64 386.693 1203.94 389.404 1202.78C392.139 1201.62 395.431 1201.04 399.282 1201.04C405.571 1201.04 410.299 1202.42 413.467 1205.17C416.657 1207.93 418.332 1211.61 418.491 1216.21L408.374 1216.66C407.941 1214.08 407.007 1212.24 405.571 1211.12C404.159 1209.98 402.028 1209.41 399.18 1209.41C396.24 1209.41 393.939 1210.02 392.275 1211.22C391.204 1212 390.669 1213.04 390.669 1214.33C390.669 1215.52 391.17 1216.53 392.173 1217.38C393.449 1218.45 396.548 1219.56 401.47 1220.73C406.392 1221.89 410.026 1223.1 412.373 1224.35C414.743 1225.58 416.589 1227.28 417.91 1229.44C419.255 1231.58 419.927 1234.24 419.927 1237.41C419.927 1240.28 419.129 1242.97 417.534 1245.47C415.939 1247.98 413.683 1249.85 410.767 1251.08C407.85 1252.28 404.215 1252.89 399.863 1252.89C393.529 1252.89 388.664 1251.43 385.269 1248.51C381.873 1245.57 379.845 1241.3 379.185 1235.7ZM462.617 1252H473.623L453.56 1201.89H442.861L423.345 1252H434.077L438.213 1240.62H458.242L462.617 1252ZM448.091 1213.58L454.995 1232.18H441.323L448.091 1213.58Z" fill="white"/>
</g>
<defs>
<clipPath id="clip0_251_465">
<rect width="800" height="1364" fill="white"/>
</clipPath>
</defs>
</svg>
