<svg width="30" height="30" viewBox="0 0 30 30" fill="none" xmlns="http://www.w3.org/2000/svg">
<g clip-path="url(#clip0_915_773)">
<path fill-rule="evenodd" clip-rule="evenodd" d="M15 5C12.285 5 11.939 5.013 10.878 5.06C9.81 5.11 9.084 5.275 8.452 5.526C7.793 5.781 7.231 6.125 6.68 6.68C6.119 7.233 5.781 7.793 5.526 8.45C5.275 9.084 5.112 9.812 5.06 10.879L5.05918 10.8984C5.01482 11.9502 5 12.3015 5 15C5 17.6995 5.01482 18.0508 5.05918 19.1026L5.06 19.122C5.112 20.188 5.275 20.916 5.526 21.55C5.781 22.207 6.119 22.767 6.68 23.321C7.231 23.88 7.793 24.219 8.452 24.475C9.084 24.725 9.81 24.89 10.878 24.941C11.939 24.987 12.285 25 15 25C17.716 25 18.06 24.987 19.122 24.941C20.19 24.89 20.916 24.725 21.548 24.475C22.208 24.219 22.769 23.88 23.321 23.321C23.882 22.767 24.22 22.207 24.474 21.55C24.725 20.916 24.896 20.188 24.94 19.122L24.9408 19.1026C24.9852 18.0508 25 17.6995 25 15C25 12.3015 24.9852 11.9502 24.9408 10.8984L24.94 10.879C24.896 9.812 24.725 9.084 24.474 8.45C24.22 7.793 23.882 7.233 23.321 6.68C22.769 6.125 22.208 5.781 21.548 5.526C20.916 5.275 20.19 5.11 19.122 5.06C18.06 5.013 17.716 5 15 5ZM15 6.8C17.6439 6.8 17.9799 6.8137 19.0078 6.85561L19.042 6.857C20.018 6.907 20.546 7.069 20.898 7.206C21.366 7.385 21.698 7.601 22.05 7.951C22.4 8.302 22.616 8.635 22.795 9.102C22.932 9.454 23.099 9.982 23.143 10.959L23.1455 11.0199C23.1866 12.0262 23.201 12.3792 23.201 15C23.201 17.6218 23.1866 17.9748 23.1455 18.981V18.9811L23.143 19.042C23.099 20.018 22.932 20.547 22.795 20.898C22.616 21.366 22.4 21.699 22.05 22.049C21.698 22.4 21.366 22.615 20.898 22.795C20.546 22.932 20.018 23.094 19.042 23.143L18.9806 23.1455C17.9737 23.1866 17.6205 23.201 15 23.201C12.3795 23.201 12.0263 23.1866 11.0194 23.1455L10.958 23.143C9.982 23.094 9.454 22.932 9.103 22.795C8.635 22.615 8.302 22.4 7.951 22.049C7.601 21.699 7.385 21.366 7.206 20.898C7.069 20.547 6.9 20.018 6.858 19.042L6.85696 19.0171C6.81378 17.9829 6.8 17.6529 6.8 15C6.8 12.3481 6.81378 12.0181 6.85696 10.9839L6.858 10.959C6.9 9.982 7.069 9.454 7.206 9.102C7.385 8.635 7.601 8.302 7.951 7.951C8.302 7.601 8.635 7.385 9.103 7.206C9.454 7.069 9.982 6.907 10.958 6.857L10.9922 6.85561C12.0201 6.8137 12.3561 6.8 15 6.8ZM15.136 18.473C13.298 18.473 11.801 16.975 11.801 15.136C11.801 13.298 13.298 11.803 15.136 11.803C16.975 11.803 18.473 13.298 18.473 15.136C18.473 16.975 16.975 18.473 15.136 18.473ZM15.136 10C12.302 10 10 12.302 10 15.136C10 17.97 12.302 20.273 15.136 20.273C17.97 20.273 20.272 17.97 20.272 15.136C20.272 12.302 17.97 10 15.136 10ZM20.195 10.401C20.859 10.401 21.401 9.865 21.401 9.205C21.401 8.542 20.859 8 20.195 8C19.533 8 19 8.542 19 9.205C19 9.865 19.533 10.401 20.195 10.401Z" fill="#D9D7CE"/>
</g>
<defs>
<clipPath id="clip0_915_773">
<rect width="30" height="30" fill="white"/>
</clipPath>
</defs>
</svg>
