<svg width="30" height="30" viewBox="0 0 30 30" fill="none" xmlns="http://www.w3.org/2000/svg">
<g clip-path="url(#clip0_915_776)">
<path fill-rule="evenodd" clip-rule="evenodd" d="M12.7296 17.5897L12.7285 11.4077L18.6729 14.5097L12.7296 17.5897ZM25.7811 10.3374C25.7811 10.3374 25.5666 8.8216 24.9066 8.1539C24.0706 7.2772 23.1323 7.2728 22.7022 7.2222C19.6244 7 15.0055 7 15.0055 7H14.9967C14.9967 7 10.3778 7 7.2989 7.2222C6.8699 7.2728 5.9316 7.2772 5.0956 8.1539C4.4356 8.8216 4.2211 10.3374 4.2211 10.3374C4.2211 10.3374 4 12.1172 4 13.8981V15.5668C4 17.3477 4.2211 19.1275 4.2211 19.1275C4.2211 19.1275 4.4356 20.6433 5.0956 21.311C5.9316 22.1877 7.0305 22.1602 7.5211 22.2515C9.2811 22.4209 15 22.4726 15 22.4726C15 22.4726 19.6244 22.466 22.7022 22.2427C23.1323 22.1921 24.0706 22.1877 24.9066 21.311C25.5666 20.6433 25.7811 19.1275 25.7811 19.1275C25.7811 19.1275 26 17.3477 26 15.5668V13.8981C26 12.1172 25.7811 10.3374 25.7811 10.3374V10.3374Z" fill="#D9D7CE"/>
</g>
<defs>
<clipPath id="clip0_915_776">
<rect width="30" height="30" fill="white"/>
</clipPath>
</defs>
</svg>
