<svg width="172" height="70" viewBox="0 0 172 70" fill="none" xmlns="http://www.w3.org/2000/svg">
<path fill-rule="evenodd" clip-rule="evenodd" d="M34.0587 0.0168618C33.827 0.0316963 33.4714 0.0542216 33.2687 0.0669027C32.5406 0.112398 31.7039 0.189407 31.5832 0.222016C31.5156 0.240303 31.2549 0.279406 31.0039 0.30887C30.5857 0.357988 30.269 0.405431 29.4413 0.542873C29.1539 0.590623 28.3096 0.76457 28.0193 0.835872C27.942 0.854876 27.7287 0.895552 27.5452 0.926314C27.3618 0.957077 27.2038 0.993412 27.1941 1.00702C27.1845 1.02065 27.0423 1.06464 26.8781 1.10477C26.7139 1.1449 26.4137 1.21812 26.211 1.26747C26.0082 1.3168 25.8186 1.36879 25.7896 1.38294C25.7606 1.39709 25.6105 1.4432 25.456 1.48538C25.3015 1.52752 25.1356 1.5817 25.0873 1.60576C25.0391 1.62979 24.9127 1.66886 24.8064 1.69258C24.7002 1.7163 24.5979 1.7444 24.5792 1.755C24.545 1.77434 24.0902 1.93192 23.6302 2.08389C23.3343 2.18158 23.048 2.28884 22.8577 2.37326C22.7804 2.40755 22.6777 2.44723 22.6294 2.46152C22.5107 2.49659 21.9933 2.70301 21.7341 2.81871C21.3403 2.99443 21.267 3.02557 21.2466 3.02557C21.1908 3.02557 19.3681 3.90269 18.8021 4.20191C18.6766 4.26825 18.496 4.36311 18.4008 4.41264C18.3056 4.46216 18.2057 4.52413 18.1789 4.55032C18.152 4.57646 18.1161 4.5979 18.0992 4.5979C18.0628 4.5979 17.7004 4.79902 17.4443 4.96138C17.3445 5.02465 17.253 5.07643 17.241 5.07643C17.229 5.07643 17.1764 5.1049 17.1241 5.1397C17.0717 5.17449 16.942 5.25704 16.8358 5.32311C16.3134 5.64814 16.009 5.84369 15.9931 5.86437C15.9834 5.87695 15.923 5.91345 15.8587 5.94551C15.761 5.99426 15.528 6.15033 15.3764 6.26859C15.3559 6.28459 15.3005 6.31754 15.2535 6.34181C15.2064 6.36608 15.1363 6.4141 15.0977 6.44852C15.0282 6.51046 14.7684 6.70245 14.6649 6.76839C14.596 6.81227 14.3245 7.01121 13.9971 7.25779C13.8552 7.3646 13.6814 7.49483 13.6108 7.5472C13.5403 7.59956 13.4509 7.66823 13.4123 7.69978C13.3737 7.73133 13.2213 7.8522 13.0737 7.96838C12.9261 8.08452 12.7746 8.20816 12.7371 8.24306C12.6997 8.27795 12.6027 8.36036 12.5217 8.42616C12.2842 8.61918 12.2291 8.66673 11.8679 8.99015C11.6789 9.15934 11.5062 9.3082 11.4839 9.32098C11.4618 9.33373 11.1202 9.65726 10.7249 10.0399C9.87816 10.8597 9.04528 11.7254 8.65739 12.1888C8.5721 12.2907 8.47357 12.4048 8.43842 12.4424C8.37746 12.5076 7.95565 13.0087 7.58665 13.4543C7.49181 13.5688 7.37523 13.7187 7.32762 13.7874C7.28001 13.856 7.2311 13.9199 7.21895 13.9293C7.17618 13.9624 6.96996 14.2355 6.78779 14.5003C6.73639 14.575 6.67262 14.6579 6.64608 14.6844C6.61957 14.7109 6.56679 14.7808 6.52887 14.8398C6.49095 14.8989 6.39671 15.0358 6.31946 15.1442C6.24221 15.2526 6.15176 15.3812 6.11847 15.43C6.03118 15.5579 6.00256 15.5987 5.84578 15.8193C5.76832 15.9282 5.70498 16.0252 5.70498 16.0347C5.70498 16.0443 5.62078 16.1782 5.51783 16.3323C5.41491 16.4864 5.29349 16.674 5.24806 16.7492C5.20262 16.8244 5.09721 16.989 5.01385 17.1149C4.93049 17.2407 4.86227 17.36 4.86227 17.3798C4.86227 17.3996 4.8504 17.4158 4.83594 17.4159C4.82147 17.416 4.78007 17.4859 4.74397 17.5713C4.70791 17.6567 4.65753 17.7469 4.63207 17.7717C4.60658 17.7965 4.4636 18.0455 4.31433 18.3251C4.16503 18.6048 4.02184 18.854 3.9961 18.8791C3.97037 18.9041 3.94933 18.9393 3.94933 18.9572C3.94933 18.9865 3.67398 19.5447 3.59683 19.6717C3.53946 19.7662 3.28219 20.3248 3.28219 20.3549C3.28219 20.3712 3.25933 20.4069 3.23134 20.4341C3.20339 20.4613 3.14872 20.5754 3.10989 20.6877C3.07102 20.8 3.01578 20.9365 2.9871 20.991C2.86259 21.2279 2.68527 21.6228 2.68527 21.6632C2.68527 21.6875 2.6643 21.7377 2.63871 21.7747C2.61311 21.8118 2.56504 21.9281 2.53189 22.0332C2.49875 22.1382 2.45096 22.2536 2.42571 22.2895C2.40043 22.3255 2.30299 22.5779 2.20917 22.8505C2.11535 23.1231 2.02978 23.3538 2.01903 23.3632C1.98894 23.3895 1.81446 23.8967 1.73683 24.1836C1.69866 24.3246 1.64417 24.4938 1.61576 24.5596C1.58732 24.6254 1.53791 24.7715 1.50596 24.8843C1.47397 24.9971 1.43535 25.1048 1.42011 25.1236C1.40484 25.1424 1.38149 25.2193 1.36821 25.2945C1.33823 25.464 1.24995 25.8237 1.22141 25.8926C1.1654 26.0278 0.989555 26.7002 0.926422 27.0206C0.887552 27.218 0.839552 27.441 0.819784 27.5162C0.800015 27.5914 0.752929 27.8068 0.715182 27.9948C0.677436 28.1828 0.631964 28.3673 0.614162 28.4049C0.59636 28.4425 0.56518 28.5887 0.544849 28.7296C0.524554 28.8706 0.491267 29.1014 0.470901 29.2424C0.450536 29.3834 0.427291 29.5295 0.41925 29.5671C0.402045 29.6476 0.203305 31.0587 0.156886 31.4299C0.139294 31.5709 0.109027 31.9632 0.0896798 32.3016C0.0703325 32.64 0.0420315 33.1322 0.0267924 33.3953C-0.00863654 34.0079 -0.00902272 35.9518 0.0261956 36.5742C0.138066 38.5525 0.112187 38.2604 0.295231 39.6132C0.353519 40.0439 0.41616 40.4438 0.434454 40.5019C0.452748 40.56 0.477819 40.7152 0.490108 40.8468C0.521078 41.1775 0.577083 41.5171 0.614057 41.5988C0.631122 41.6364 0.685231 41.8594 0.734319 42.0944C0.783407 42.3294 0.847628 42.637 0.877053 42.778C0.960552 43.1781 1.16329 43.9676 1.2194 44.1111C1.27962 44.2651 1.32035 44.4201 1.35322 44.6203C1.37341 44.7435 1.40231 44.8523 1.41741 44.8622C1.43254 44.8721 1.47871 44.9955 1.52008 45.1365C1.64557 45.5644 1.94017 46.4483 2.00421 46.5892C2.02985 46.6456 2.12455 46.8992 2.21461 47.1526C2.30468 47.4061 2.39822 47.6445 2.42252 47.6824C2.44678 47.7204 2.49422 47.8359 2.52792 47.9393C2.56163 48.0427 2.60085 48.1427 2.61511 48.1615C2.62937 48.1803 2.661 48.2572 2.68548 48.3324C2.70995 48.4076 2.76729 48.5382 2.81294 48.6227C2.85858 48.7072 2.89594 48.7868 2.89594 48.7998C2.89594 48.8127 2.94096 48.9205 2.99598 49.0393C3.051 49.1581 3.1168 49.3091 3.14219 49.3749C3.16761 49.4407 3.2095 49.5188 3.23531 49.5486C3.26108 49.5782 3.28219 49.6122 3.28219 49.6242C3.28219 49.6985 3.95794 51.0219 4.33782 51.6916C4.50075 51.9788 4.67354 52.2864 4.72182 52.3752C4.7701 52.464 4.82147 52.5418 4.83594 52.5481C4.85044 52.5544 4.86227 52.5748 4.86227 52.5936C4.86227 52.6123 4.91511 52.7071 4.97969 52.8044C5.16673 53.0859 5.24433 53.2128 5.29992 53.328C5.3285 53.3872 5.37278 53.4564 5.3983 53.4818C5.42383 53.5072 5.50617 53.6279 5.58128 53.7501C5.65635 53.8723 5.79785 54.0876 5.89575 54.2286C5.99361 54.3696 6.08157 54.5025 6.09122 54.5239C6.10783 54.5607 6.30994 54.8393 6.64425 55.2861C6.72635 55.3959 6.79348 55.5027 6.79348 55.5237C6.79348 55.5446 6.80788 55.5617 6.82551 55.5617C6.84313 55.5617 6.92463 55.6579 7.00665 55.7753C7.08868 55.8928 7.20855 56.0494 7.27309 56.1233C7.33763 56.1972 7.3904 56.2683 7.3904 56.2813C7.3904 56.2944 7.45491 56.3724 7.53377 56.4546C7.6126 56.5369 7.71664 56.6637 7.76495 56.7363C7.81327 56.8089 7.91085 56.932 7.98174 57.0097C8.05267 57.0875 8.16538 57.2203 8.23224 57.3049C8.3519 57.4564 8.43744 57.5536 8.62814 57.7551C8.68123 57.8112 8.7247 57.87 8.7247 57.8858C8.7247 57.9016 8.73656 57.9196 8.75103 57.9259C8.76553 57.9321 8.84847 58.015 8.93537 58.11C9.35722 58.571 9.58219 58.8077 9.95365 59.1814C10.1757 59.4048 10.4155 59.647 10.4863 59.7195C10.6125 59.8485 11.336 60.5175 11.7595 60.8968C11.8768 61.0017 12.0689 61.1747 12.1865 61.2813C12.3041 61.3878 12.4187 61.475 12.4411 61.475C12.4635 61.475 12.4818 61.4885 12.4818 61.5051C12.4818 61.5217 12.6338 61.6563 12.8196 61.8042C13.0054 61.9521 13.2633 62.1578 13.3928 62.2612C13.5223 62.3646 13.6885 62.4953 13.7622 62.5517C13.8359 62.6081 13.9256 62.6812 13.9614 62.7141C13.9974 62.747 14.0357 62.7739 14.0467 62.7739C14.0577 62.7739 14.1503 62.8392 14.2526 62.9192C14.355 62.9991 14.4749 63.0875 14.5191 63.1157C14.5634 63.1439 14.6506 63.2093 14.7129 63.261C14.7751 63.3127 14.8375 63.355 14.8515 63.355C14.8655 63.355 14.9537 63.4127 15.0476 63.4831C15.3872 63.7383 16.5078 64.4741 16.7129 64.5766C16.7708 64.6055 16.8261 64.6406 16.8358 64.6545C16.863 64.6937 17.4585 65.0298 17.5006 65.0298C17.5212 65.0298 17.5381 65.0457 17.5381 65.0651C17.5381 65.0845 17.5657 65.1115 17.5995 65.125C17.6333 65.1386 17.7843 65.2188 17.9351 65.3034C18.3282 65.5238 18.5836 65.6618 18.7846 65.7625C18.8811 65.8108 19.0391 65.8957 19.1357 65.951C19.2323 66.0063 19.3666 66.0759 19.4342 66.1056C19.5017 66.1353 19.6677 66.216 19.8028 66.2851C20.1565 66.4657 20.1887 66.4812 20.5642 66.6523C20.7512 66.7375 20.9197 66.8072 20.9387 66.8072C20.9577 66.8072 20.9785 66.8195 20.985 66.8346C20.9914 66.8496 21.1863 66.9373 21.418 67.0293C21.6498 67.1214 21.871 67.2154 21.9096 67.2381C21.9794 67.279 22.276 67.394 22.6119 67.5102C22.7084 67.5437 22.8036 67.5827 22.8234 67.597C22.8689 67.63 23.2792 67.7795 23.5775 67.8718C23.703 67.9106 23.8215 67.9536 23.8408 67.9674C23.8952 68.0063 24.5129 68.2084 24.8061 68.2834C24.9507 68.3204 25.085 68.3631 25.1045 68.3784C25.124 68.3936 25.2506 68.4378 25.3858 68.4766C25.521 68.5155 25.7027 68.5689 25.7896 68.5954C25.8765 68.622 26.0819 68.6772 26.2461 68.7181C27.0382 68.9154 27.1426 68.9434 27.159 68.9627C27.176 68.9828 27.6097 69.0689 27.9315 69.1161C28.0184 69.1288 28.1053 69.151 28.1246 69.1652C28.1439 69.1796 28.3414 69.2247 28.5635 69.2656C28.7856 69.3065 29.0068 69.3545 29.0551 69.3722C29.1034 69.39 29.3641 69.4354 29.6345 69.4731C29.9048 69.5108 30.1656 69.5501 30.2138 69.5603C30.2621 69.5706 30.5544 69.6103 30.8634 69.6487C31.1724 69.6871 31.4568 69.7318 31.4955 69.748C31.5836 69.785 32.8649 69.8969 33.6549 69.9364C35.5205 70.0299 37.0165 70.0209 38.7463 69.9055C39.5523 69.8518 40.3827 69.7749 40.4493 69.7479C40.4879 69.7321 40.7644 69.6876 41.0637 69.6489C41.3631 69.6102 41.6396 69.5721 41.6782 69.5642C41.7646 69.5465 42.1408 69.4907 42.5385 69.4366C42.7026 69.4142 42.8527 69.3845 42.8721 69.3706C42.8914 69.3567 43.1047 69.3106 43.3461 69.2683C43.5875 69.2259 43.8008 69.1796 43.8201 69.1653C43.8394 69.151 44.0519 69.1062 44.2923 69.0656C44.5327 69.0251 44.746 68.9793 44.7663 68.9639C44.7867 68.9484 44.9218 68.9081 45.0666 68.8743C45.2115 68.8405 45.3774 68.7938 45.4353 68.7707C45.4932 68.7475 45.675 68.7022 45.8391 68.6701C46.0033 68.638 46.1534 68.5995 46.1727 68.5846C46.192 68.5698 46.3421 68.523 46.5063 68.4808C46.6704 68.4386 46.8222 68.3908 46.8436 68.3746C46.865 68.3583 46.9993 68.315 47.1421 68.2782C47.2848 68.2414 47.5517 68.156 47.7352 68.0883C47.9187 68.0206 48.2074 67.9202 48.3768 67.8651C48.6421 67.7787 49.2333 67.5538 49.5786 67.4078C49.6366 67.3833 49.7669 67.3351 49.8683 67.3007C49.9697 67.2663 50.0527 67.2274 50.0527 67.2144C50.0527 67.2013 50.095 67.1803 50.1467 67.1677C50.1984 67.155 50.34 67.0995 50.4612 67.0443C50.5825 66.9891 50.6905 66.944 50.7012 66.944C50.7119 66.944 50.914 66.854 51.1503 66.7441C51.3867 66.6342 51.6354 66.5235 51.703 66.4982C51.7706 66.4729 51.8338 66.4415 51.8434 66.4283C51.8602 66.4056 52.3337 66.1665 52.513 66.0904C52.56 66.0704 52.6774 66.0107 52.7739 65.9576C52.8705 65.9045 53.0917 65.7881 53.2655 65.6989C53.4393 65.6097 53.6632 65.4842 53.763 65.42C53.8629 65.3558 53.9695 65.3033 54 65.3033C54.0306 65.3033 54.0555 65.2904 54.0555 65.2746C54.0555 65.2588 54.099 65.2268 54.1521 65.2034C54.2052 65.1801 54.3277 65.1103 54.4242 65.0484C54.5208 64.9865 54.6586 64.9053 54.7305 64.868C54.8024 64.8307 54.9446 64.7463 55.0465 64.6804C55.1484 64.6144 55.3108 64.5127 55.4074 64.4543C55.504 64.3958 55.6 64.3341 55.6208 64.317C55.6789 64.2696 55.9462 64.0994 56.1065 64.0078C56.1855 63.9628 56.258 63.9157 56.2677 63.9034C56.2773 63.891 56.4116 63.7972 56.5661 63.6949C56.7206 63.5927 56.8644 63.4936 56.8857 63.4747C56.907 63.4558 57.0146 63.3789 57.1248 63.3037C57.235 63.2285 57.423 63.0923 57.5426 63.0012C57.6621 62.91 57.802 62.8141 57.8534 62.7882C57.9047 62.7623 57.9521 62.7293 57.9587 62.7148C57.9653 62.7003 58.0704 62.6115 58.1922 62.5175C58.3141 62.4235 58.4504 62.3159 58.4952 62.2783C58.5399 62.2407 58.6281 62.1714 58.6912 62.1244C58.7543 62.0774 58.8322 62.015 58.8644 61.9856C58.8966 61.9563 58.9582 61.9083 59.0012 61.8789C59.0443 61.8496 59.1539 61.7572 59.2449 61.6736C59.3358 61.59 59.4364 61.5072 59.4683 61.4897C59.5003 61.4722 59.6267 61.3678 59.7493 61.2578C59.8718 61.1477 60.0709 60.9708 60.1917 60.8647C60.3125 60.7586 60.5437 60.5487 60.7054 60.3983C60.8671 60.2479 61.0843 60.046 61.188 59.9495C61.4293 59.7253 62.2687 58.8778 62.5086 58.6163C62.6098 58.506 62.7778 58.3235 62.8821 58.2107C63.2341 57.8298 63.6127 57.3925 63.962 56.9631C64.1532 56.7281 64.3429 56.4978 64.3836 56.4513C64.4243 56.4048 64.4822 56.3279 64.5123 56.2804C64.5424 56.2329 64.5851 56.1787 64.6073 56.1599C64.6295 56.1411 64.7218 56.0257 64.8125 55.9035C64.9893 55.6653 65.0371 55.602 65.1611 55.4421C65.2048 55.3857 65.3104 55.2395 65.3957 55.1173C65.481 54.9952 65.5797 54.8567 65.6152 54.8097C65.6507 54.7627 65.7527 54.6166 65.8419 54.485C65.9311 54.3534 66.0148 54.238 66.028 54.2286C66.0411 54.2192 66.0902 54.1424 66.137 54.0579C66.1839 53.9734 66.2341 53.8888 66.2487 53.8699C66.3216 53.7754 66.5814 53.3847 66.6011 53.3399C66.6136 53.3117 66.7188 53.1425 66.8351 52.9639C66.9513 52.7854 67.071 52.5859 67.1009 52.5209C67.1309 52.4557 67.1765 52.3788 67.2024 52.35C67.2283 52.321 67.3319 52.1436 67.4327 51.9556C67.5335 51.7676 67.6294 51.5978 67.6459 51.5782C67.6624 51.5586 67.7894 51.3202 67.9281 51.0484C68.0668 50.7766 68.2 50.5311 68.2242 50.5029C68.2483 50.4747 68.2797 50.4132 68.2941 50.3662C68.3253 50.2642 68.5735 49.7633 68.6213 49.7059C68.6398 49.6836 68.6788 49.5963 68.708 49.5116C68.7372 49.427 68.7852 49.3116 68.8145 49.2553C68.9181 49.0568 69.0761 48.7065 69.1384 48.5375C69.173 48.4435 69.2117 48.3512 69.2245 48.3324C69.2372 48.3136 69.284 48.1983 69.3284 48.0761C69.3729 47.9539 69.419 47.8462 69.4309 47.8368C69.4553 47.8176 69.4863 47.7393 69.681 47.2045C69.7562 46.9977 69.8672 46.6977 69.9276 46.5379C69.9879 46.3781 70.077 46.1166 70.1256 45.9569C70.1742 45.7971 70.2261 45.6509 70.2409 45.6321C70.2557 45.6133 70.3031 45.4685 70.3463 45.3104C70.3894 45.1523 70.4375 44.9985 70.453 44.9686C70.4686 44.9387 70.5085 44.7913 70.5418 44.6409C70.5751 44.4905 70.6139 44.3521 70.6282 44.3333C70.6425 44.3145 70.6902 44.153 70.7342 43.9744C70.7782 43.7958 70.8268 43.6339 70.8421 43.6146C70.8575 43.5954 70.878 43.5185 70.8877 43.4437C70.9122 43.2539 70.9763 42.96 71.0328 42.778C71.0591 42.6934 71.1074 42.4858 71.1402 42.3166C71.173 42.1474 71.212 41.9936 71.2269 41.9748C71.2419 41.956 71.2888 41.6868 71.3312 41.3766C71.3736 41.0664 71.4176 40.7895 71.429 40.7613C71.4982 40.5903 71.7338 38.8682 71.7681 38.2832C71.7802 38.0764 71.8053 37.7648 71.8238 37.5907C71.9635 36.2749 71.9561 33.9777 71.806 32.1367C71.7068 30.9206 71.5122 29.3905 71.4357 29.2253C71.4183 29.1877 71.3788 28.957 71.3479 28.7126C71.285 28.2149 71.2691 28.1271 71.2241 28.0289C71.2069 27.9913 71.1605 27.7934 71.1211 27.5892C71.0816 27.3849 71.0381 27.2003 71.0245 27.179C71.0107 27.1577 70.9963 27.1197 70.9924 27.0945C70.9508 26.8271 70.863 26.4107 70.8387 26.366C70.8219 26.3349 70.7741 26.1683 70.7324 25.9956C70.6908 25.823 70.6348 25.6407 70.6079 25.5906C70.581 25.5405 70.559 25.4741 70.5588 25.443C70.5586 25.378 70.2913 24.4946 70.1574 24.1164C70.1077 23.9761 70.0671 23.8447 70.0671 23.8244C70.0671 23.8042 69.9952 23.6037 69.9074 23.3789C69.8196 23.1541 69.6988 22.8317 69.6388 22.6625C69.5789 22.4933 69.4848 22.2584 69.4298 22.1404C69.3747 22.0225 69.3297 21.9169 69.3297 21.9059C69.3297 21.8754 69.0767 21.2659 69.0479 21.2269C69.034 21.2081 68.9483 21.0236 68.8575 20.8168C68.6741 20.3991 68.13 19.2901 67.9938 19.0564C67.9774 19.0282 67.9259 18.9283 67.8794 18.8343C67.833 18.7403 67.7586 18.6018 67.7142 18.5266C67.6697 18.4514 67.5552 18.2438 67.4596 18.0652C67.3641 17.8866 67.2657 17.7174 67.2409 17.6892C67.2009 17.6435 67.1458 17.5503 66.9808 17.2489C66.9538 17.1997 66.8814 17.0825 66.82 16.9885C66.4757 16.4622 66.1805 16.002 66.1335 15.9182C66.104 15.8657 66.0605 15.8005 66.0368 15.7733C65.9391 15.661 65.7459 15.3746 65.6978 15.2709C65.6695 15.2098 65.6309 15.1598 65.6119 15.1598C65.5929 15.1598 65.5682 15.1317 65.557 15.0975C65.5458 15.0632 65.5087 15.0055 65.4745 14.9693C65.4403 14.9331 65.3739 14.8425 65.327 14.768C65.28 14.6935 65.2173 14.607 65.1876 14.5759C65.1579 14.5447 65.0784 14.4402 65.0108 14.3437C64.8342 14.0913 64.7313 13.9593 64.3547 13.5017C64.2617 13.3888 64.1067 13.1965 64.0103 13.0745C63.7469 12.7412 63.735 12.7269 63.656 12.6502C63.6157 12.6111 63.5683 12.5545 63.5506 12.5244C63.514 12.4619 63.1934 12.1041 62.8952 11.7928C62.7842 11.6769 62.6933 11.5706 62.6933 11.5567C62.6933 11.5427 62.5985 11.4454 62.4827 11.3404C62.3668 11.2354 62.272 11.1377 62.272 11.1232C62.272 11.0999 60.9126 9.76493 60.7924 9.67025C60.7661 9.6495 60.678 9.5649 60.5967 9.48225C60.4566 9.33982 60.2371 9.14396 60.2176 9.14396C60.2126 9.14396 60.1473 9.0863 60.0724 9.01578C59.9204 8.8727 59.7315 8.7098 59.3927 8.42962C59.2672 8.32581 59.1469 8.22487 59.1254 8.20535C59.1039 8.1858 59.0182 8.11597 58.9349 8.05017C58.8517 7.98437 58.7429 7.89643 58.6931 7.85476C58.4488 7.65002 57.3324 6.81415 56.9699 6.5645C56.5251 6.25817 55.4943 5.58251 55.1923 5.39937C55.1319 5.36273 55.0213 5.29228 54.9465 5.24279C54.7295 5.09916 54.0634 4.72037 53.4983 4.4191C53.402 4.36776 53.314 4.31125 53.3027 4.29355C53.2914 4.27584 53.2358 4.2514 53.1789 4.23927C53.1222 4.2271 53.0394 4.19008 52.995 4.15696C52.9131 4.09578 52.6482 3.95858 52.1419 3.715C51.9874 3.64069 51.8136 3.55568 51.7556 3.52608C51.5563 3.42429 50.6857 3.02557 50.6627 3.02557C50.6501 3.02557 50.5748 2.99614 50.4954 2.96015C49.9956 2.73356 49.8085 2.65413 49.684 2.61567C49.6067 2.59182 49.5277 2.56098 49.5084 2.54711C49.4891 2.53323 49.3864 2.49478 49.2802 2.46159C49.174 2.4284 49.0713 2.38998 49.0519 2.37617C49.0326 2.36236 48.922 2.31786 48.8062 2.27725C48.6903 2.23668 48.5639 2.18961 48.5252 2.17262C48.4866 2.15567 48.3444 2.10788 48.2092 2.06642C48.074 2.02496 47.9476 1.97963 47.9283 1.96569C47.8909 1.93865 47.3647 1.77058 47.0154 1.67409C46.8995 1.6421 46.7889 1.60402 46.7696 1.58953C46.7503 1.57503 46.6081 1.52923 46.4536 1.4878C46.2991 1.44634 46.1577 1.39856 46.1393 1.38157C46.121 1.36458 46.0725 1.35071 46.0316 1.35071C45.9528 1.35071 45.4626 1.22748 45.3124 1.16996C45.2834 1.15885 45.1412 1.1234 44.9964 1.09117C44.8516 1.05897 44.7164 1.02018 44.696 1.005C44.6756 0.989823 44.5255 0.954343 44.3624 0.926212C44.0312 0.869027 43.9503 0.852313 43.2759 0.701882C43.0151 0.643706 42.6596 0.572747 42.4858 0.544171C41.6142 0.400851 41.3224 0.358022 40.8706 0.30699C40.6003 0.276432 40.3474 0.238013 40.3088 0.221571C40.2378 0.191356 39.2704 0.104194 38.6226 0.0696713C38.429 0.0593487 38.2315 0.0420531 38.1837 0.0312177C38.0436 -0.000467998 34.5204 -0.0127389 34.0587 0.0168618ZM43.2407 34.6942V62.2953H36.1868C29.7869 62.2953 29.1309 62.2903 29.1115 62.2413C29.0998 62.2115 29.0902 52.6827 29.0902 41.0662V19.9451H27.2137C26.0006 19.9451 25.3296 19.933 25.3156 19.911C25.3023 19.89 25.0209 19.8768 24.5887 19.8768H23.8836L23.9007 16.4358L23.9179 12.9949L24.0234 12.9066C24.2618 12.7073 24.5382 12.4714 24.6274 12.3912C24.6797 12.3442 24.8222 12.2211 24.9441 12.1177C25.0661 12.0143 25.2167 11.8836 25.2789 11.8272C25.3411 11.7708 25.4921 11.64 25.6143 11.5366C25.7366 11.4332 25.917 11.2782 26.0151 11.1921C26.4652 10.7971 26.6736 10.616 26.8976 10.4257C27.0303 10.313 27.1904 10.1727 27.2532 10.114C27.3162 10.0553 27.4273 9.95709 27.5003 9.89567C27.7859 9.65531 28.089 9.39635 28.1802 9.31487C28.2327 9.26787 28.3833 9.13713 28.5147 9.02433C28.6462 8.91153 28.8037 8.7731 28.8648 8.7167C28.9258 8.6603 29.0291 8.57006 29.0944 8.51616C29.1597 8.46226 29.3301 8.31613 29.4732 8.19144C29.6162 8.06675 29.8295 7.88224 29.9472 7.78141C30.4973 7.31015 30.5754 7.24203 30.6467 7.17063L30.723 7.09434L36.9819 7.09372L43.2407 7.09311V34.6942ZM99.6673 18.497C98.7959 18.5401 98.1916 18.6586 97.2094 18.9791C96.9066 19.0778 96.135 19.4314 95.9278 19.5664C95.8505 19.6167 95.7636 19.6689 95.7346 19.6824C95.3761 19.8497 94.5441 20.53 94.0668 21.0462C93.9355 21.1881 93.8694 21.2706 93.4976 21.7567C93.4186 21.8601 93.3107 22.0216 93.258 22.1156C93.2054 22.2096 93.1441 22.3096 93.1219 22.3378C93.0615 22.4146 92.8422 22.8654 92.7147 23.1752C92.6528 23.3256 92.5804 23.4948 92.5538 23.5512C92.5272 23.6076 92.4723 23.7922 92.4319 23.9614C92.3914 24.1306 92.3502 24.2998 92.3404 24.3374C92.0958 25.2677 92.1128 26.7921 92.3788 27.7849C92.4285 27.9702 92.4691 28.1448 92.4691 28.1728C92.4691 28.2008 92.4916 28.2722 92.5192 28.3314C92.5467 28.3906 92.6078 28.5314 92.6549 28.6442C92.7021 28.757 92.7761 28.9339 92.8193 29.0373C92.9942 29.4558 93.3337 30.0142 93.6899 30.4695C94.3944 31.3701 95.3279 32.1079 96.4207 32.6281C96.6951 32.7587 96.9427 32.8655 96.9709 32.8655C96.9991 32.8655 97.0318 32.8749 97.0436 32.8865C97.1391 32.9794 98.3803 33.2962 98.8948 33.359C99.2909 33.4073 100.454 33.4199 100.95 33.3813C101.459 33.3415 102.291 33.1893 102.547 33.089C102.614 33.0624 102.803 33 102.967 32.9503C103.318 32.8434 104.044 32.5051 104.39 32.2869C104.525 32.2017 104.68 32.1086 104.733 32.0801C104.855 32.0152 105.324 31.658 105.497 31.4983C105.569 31.4325 105.688 31.3234 105.763 31.2559C105.979 31.0615 106.332 30.6819 106.399 30.5727C106.432 30.5178 106.471 30.4729 106.484 30.4729C106.498 30.4729 106.615 30.3152 106.745 30.1225C106.874 29.9298 107.017 29.7182 107.062 29.6523C107.107 29.5864 107.163 29.4787 107.186 29.4131C107.209 29.3474 107.257 29.257 107.292 29.2121C107.328 29.1673 107.357 29.116 107.357 29.0981C107.357 29.0802 107.403 28.9708 107.46 28.8549C107.516 28.739 107.619 28.4596 107.689 28.234C107.759 28.0084 107.839 27.7546 107.865 27.67C107.92 27.4969 107.976 27.1981 108.005 26.9181C108.031 26.6762 108.032 25.2105 108.007 24.9868C107.966 24.6271 107.911 24.3018 107.885 24.269C107.87 24.2502 107.838 24.1503 107.813 24.0469C107.727 23.6808 107.529 23.1422 107.344 22.768C107.24 22.5596 107.145 22.3545 107.131 22.3122C107.118 22.2699 107.092 22.2353 107.074 22.2353C107.056 22.2353 107.02 22.1847 106.994 22.1228C106.967 22.061 106.923 21.9876 106.897 21.9598C106.87 21.932 106.818 21.8558 106.781 21.7903C106.637 21.5357 106.012 20.8387 105.598 20.4718C105.37 20.2695 105.155 20.0979 104.906 19.92C104.794 19.8405 104.471 19.6375 104.455 19.6375C104.447 19.6375 104.358 19.5837 104.257 19.5179C104.157 19.4521 104.049 19.3982 104.017 19.3982C103.986 19.3982 103.94 19.3752 103.916 19.347C103.892 19.3188 103.857 19.2957 103.839 19.2957C103.821 19.2957 103.709 19.2478 103.589 19.1892C103.354 19.0742 103.024 18.9567 102.634 18.8492C102.499 18.8119 102.357 18.7669 102.318 18.7492C101.999 18.6028 100.47 18.4573 99.6673 18.497ZM78.8102 25.961V33.139H80.8467H82.8833V30.5583V27.9777H86.3946H89.9059V26.3541V24.7305H86.3946H82.8833V23.4829V22.2353H86.7457H90.6081V20.5091V18.783H84.7092H78.8102V25.961ZM110.412 25.9591V33.139H112.413H114.415V30.9722C114.415 29.0278 114.42 28.8032 114.47 28.7846C114.501 28.7732 114.916 28.7638 115.394 28.7638H116.262L116.359 28.892C116.443 29.0033 116.976 29.7763 117.248 30.1823C117.298 30.2575 117.351 30.3268 117.365 30.3362C117.379 30.3456 117.425 30.4215 117.469 30.5049C117.512 30.5883 117.566 30.6754 117.588 30.6984C117.636 30.7495 117.806 30.9888 118.025 31.3154C118.116 31.4497 118.294 31.7112 118.421 31.8964C118.549 32.0817 118.674 32.2707 118.698 32.3165C118.723 32.3623 118.757 32.4161 118.773 32.4361C118.842 32.5189 119.074 32.8427 119.167 32.9856L119.266 33.139H121.597H123.928L123.849 33.0279C123.806 32.9668 123.72 32.8491 123.657 32.7664C123.595 32.6837 123.544 32.5952 123.544 32.5699C123.544 32.5445 123.53 32.5237 123.512 32.5237C123.495 32.5237 123.451 32.4792 123.416 32.4247C123.38 32.3703 123.239 32.1665 123.102 31.9718C122.965 31.7772 122.796 31.5333 122.726 31.4299C122.656 31.3265 122.557 31.1881 122.508 31.1223C122.349 30.9123 121.822 30.1582 121.782 30.0835C121.76 30.0439 121.731 30.0037 121.718 29.9943C121.704 29.9849 121.607 29.8529 121.503 29.7008C121.399 29.5488 121.231 29.3072 121.13 29.164C121.029 29.0208 120.946 28.8876 120.946 28.8679C120.946 28.8483 120.93 28.8322 120.912 28.8322C120.893 28.8322 120.854 28.7875 120.825 28.7329C120.796 28.6783 120.748 28.6108 120.72 28.5829C120.624 28.4895 120.45 28.174 120.469 28.1268C120.479 28.1012 120.511 28.0802 120.541 28.0802C120.57 28.0802 120.595 28.0678 120.595 28.0526C120.595 28.026 120.836 27.9093 120.891 27.9093C120.936 27.9093 121.348 27.6565 121.378 27.6105C121.393 27.5869 121.422 27.5675 121.441 27.5675C121.553 27.5675 122.164 27.0413 122.433 26.7138C122.802 26.2628 123.106 25.7219 123.211 25.3286C123.246 25.197 123.288 25.073 123.303 25.053C123.319 25.033 123.359 24.8715 123.393 24.6941C123.51 24.0753 123.448 22.4273 123.3 22.2539C123.282 22.2335 123.241 22.1095 123.209 21.9783C123.124 21.6359 122.663 20.8073 122.468 20.6459C122.446 20.6271 122.363 20.5386 122.285 20.4494C122.207 20.3601 122.044 20.2071 121.922 20.1094C121.8 20.0117 121.693 19.9218 121.683 19.9098C121.667 19.8896 121.406 19.7263 121.069 19.5249C120.991 19.4788 120.865 19.4218 120.788 19.3981C120.71 19.3745 120.631 19.3431 120.612 19.3283C120.593 19.3136 120.474 19.2674 120.349 19.2257C120.223 19.184 120.105 19.1382 120.085 19.124C120.066 19.1097 119.924 19.0731 119.769 19.0425C119.615 19.012 119.378 18.9644 119.243 18.9368C118.623 18.8104 118.485 18.8063 114.424 18.7927L110.412 18.7793V25.9591ZM128.881 20.5091V22.2353H131.111H133.341V27.6871V33.139H135.36H137.379V27.6871V22.2353H139.591H141.803V20.5091V18.783H135.342H128.881V20.5091ZM143.804 25.961V33.139H145.806H147.807L147.816 30.4131L147.825 27.6871L150.502 27.6784L153.179 27.6696V30.4043V33.139H155.198H157.217V25.961V18.783H155.198H153.179V21.4664V24.1498L150.502 24.1411L147.825 24.1323L147.816 21.4577L147.807 18.783H145.806H143.804V25.961ZM160.026 25.961V33.139H166.013H172V31.4814V29.8237L168.023 29.815L164.047 29.8063V28.6271V27.4479L167.585 27.4391L171.122 27.4304V25.8925V24.3545H167.576H164.029V23.2265V22.0985H167.962H171.895V20.4408V18.783H165.961H160.026V25.961ZM100.891 22.0975C101.077 22.1345 101.294 22.195 101.373 22.232C101.451 22.2689 101.558 22.3095 101.61 22.3222C101.661 22.3349 101.704 22.357 101.704 22.3714C101.704 22.3858 101.747 22.4061 101.801 22.4165C101.889 22.4337 102.224 22.6346 102.441 22.8005C102.624 22.9399 103.045 23.3882 103.178 23.5854C103.255 23.6982 103.333 23.8079 103.351 23.8291C103.421 23.9106 103.63 24.3466 103.669 24.4923C103.691 24.5763 103.732 24.693 103.76 24.7517C103.787 24.8104 103.836 25.0179 103.867 25.2129C103.966 25.818 103.891 27.0566 103.744 27.2406C103.728 27.2606 103.697 27.3516 103.674 27.4428C103.635 27.5994 103.454 27.9659 103.267 28.2667C103.107 28.5247 102.714 28.9345 102.429 29.1401C102.063 29.4043 101.907 29.5027 101.804 29.5342C101.759 29.548 101.642 29.5943 101.546 29.6369C100.777 29.9759 99.533 29.9792 98.7544 29.6443C98.1453 29.3824 97.9063 29.2303 97.5103 28.8525C97.2341 28.589 96.9416 28.2211 96.8314 27.9986C96.7931 27.9213 96.7344 27.8042 96.7009 27.7384C96.6157 27.5706 96.4381 27.0985 96.3989 26.9351C96.3427 26.701 96.3192 25.6305 96.3619 25.2523C96.4497 24.4745 96.9045 23.582 97.4934 23.0319C97.7168 22.8231 97.9972 22.6113 98.05 22.6113C98.0705 22.6113 98.0872 22.598 98.0872 22.5818C98.0872 22.5656 98.1543 22.5201 98.2364 22.4807C98.4843 22.3616 98.7831 22.2353 98.817 22.2353C98.8345 22.2353 98.8984 22.2112 98.959 22.1818C99.2786 22.0266 100.307 21.9817 100.891 22.0975ZM117.961 22.2481C118.106 22.2821 118.288 22.3374 118.365 22.371C118.442 22.4047 118.541 22.4429 118.586 22.456C118.63 22.4691 118.788 22.5979 118.938 22.7421C119.203 22.9964 119.214 23.0141 119.315 23.3291C119.398 23.5893 119.418 23.7157 119.418 23.9655C119.418 24.137 119.399 24.3138 119.377 24.3586C119.354 24.4033 119.311 24.5163 119.28 24.6096C119.152 24.9996 118.836 25.2936 118.292 25.5291C118.178 25.5787 118.005 25.6361 117.908 25.6565C117.716 25.6973 114.648 25.7434 114.502 25.7077L114.415 25.6862V23.9494C114.415 22.9941 114.426 22.2019 114.439 22.189C114.452 22.1761 115.191 22.1703 116.08 22.176C117.495 22.1851 117.731 22.1941 117.961 22.2481ZM63.914 25.491C63.9393 25.5217 63.911 25.5819 63.8133 25.7046C63.7384 25.7986 63.6198 25.9569 63.5496 26.0564C63.4794 26.1558 63.3331 26.3515 63.2245 26.4914C63.1158 26.6312 62.9637 26.8328 62.8865 26.9394C62.8092 27.046 62.7298 27.1502 62.71 27.1709C62.6902 27.1916 62.6044 27.3086 62.5194 27.4307C62.4344 27.5529 62.3455 27.6717 62.3218 27.6948C62.2982 27.7178 62.2421 27.7947 62.1971 27.8657C62.1075 28.0071 62.0454 28.0875 61.9384 28.2005C61.8998 28.2413 61.8375 28.3271 61.8 28.3911C61.7625 28.4551 61.663 28.5921 61.579 28.6955C61.4225 28.8878 60.9637 29.4927 60.7883 29.738C60.7345 29.8132 60.6079 29.985 60.5068 30.1198C59.8774 30.9598 59.6977 31.1907 59.6734 31.1907C59.6584 31.1907 59.637 31.2253 59.6259 31.2676C59.6079 31.336 59.4146 31.5929 59.2702 31.7404C59.241 31.7702 59.2171 31.8064 59.2171 31.821C59.2171 31.8355 59.0861 32.0188 58.926 32.2283C58.7658 32.4378 58.6073 32.6476 58.5737 32.6946C58.5401 32.7416 58.4726 32.8339 58.4239 32.8997C58.3751 32.9655 58.3085 33.0567 58.2758 33.1024C58.2432 33.1481 58.1809 33.2218 58.1374 33.2663C58.094 33.3108 58.0584 33.3541 58.0584 33.3626C58.0584 33.3764 57.8282 33.6969 57.6911 33.8739C57.6053 33.9847 57.4549 34.1828 57.2859 34.4076C57.199 34.5233 57.1112 34.635 57.0908 34.656C57.0704 34.677 57.0443 34.7173 57.0326 34.7455C57.021 34.7737 56.9192 34.9157 56.8064 35.0611C56.6935 35.2065 56.5617 35.3807 56.5135 35.4482C56.4652 35.5158 56.3704 35.638 56.3028 35.7199C56.2352 35.8017 56.0851 36.0008 55.9692 36.1621C55.7355 36.4876 55.5928 36.6763 55.5025 36.7793C55.4695 36.8169 55.4267 36.8727 55.4074 36.9034C55.3881 36.9341 55.3051 37.0494 55.223 37.1598C55.1409 37.2701 54.9987 37.4614 54.907 37.5849C54.6407 37.9436 54.4222 38.2328 54.2414 38.4661C54.1488 38.5854 54.0425 38.7315 54.0051 38.7908C53.9677 38.85 53.865 38.9864 53.7769 39.094C53.6887 39.2015 53.5613 39.3682 53.4937 39.4645C53.4261 39.5608 53.3432 39.6728 53.3095 39.7134C53.1933 39.8531 52.8633 40.3003 52.7002 40.5392C52.6104 40.6708 52.5185 40.7938 52.4961 40.8126C52.4737 40.8314 52.4168 40.9006 52.3698 40.9664C52.3227 41.0322 52.2712 41.1014 52.2553 41.1202C52.2394 41.139 52.163 41.239 52.0856 41.3424C52.0082 41.4458 51.9231 41.5563 51.8965 41.588C51.8699 41.6196 51.8198 41.6888 51.7851 41.7418C51.7505 41.7947 51.6296 41.9572 51.5166 42.1029L51.311 42.3679H49.8556C48.2493 42.3679 48.2854 42.3732 48.4434 42.1592C48.6431 41.8889 49.1775 41.1841 49.2157 41.1407C49.2389 41.1143 49.3124 41.0143 49.379 40.9185C49.5522 40.6694 49.7848 40.3702 49.8157 40.3569C49.8301 40.3506 49.842 40.3265 49.842 40.3032C49.842 40.28 49.8908 40.2082 49.9503 40.1437C50.0099 40.0792 50.1305 39.9226 50.2184 39.7957C50.3062 39.6688 50.3907 39.565 50.4061 39.565C50.4215 39.565 50.443 39.5381 50.4539 39.5052C50.4647 39.4723 50.5092 39.403 50.5528 39.3511C50.5964 39.2993 50.6873 39.1777 50.7549 39.0809C50.8225 38.9841 50.9094 38.8717 50.948 38.8312C50.9867 38.7907 51.0405 38.7164 51.0678 38.6662C51.095 38.616 51.1424 38.5477 51.1731 38.5145C51.2271 38.4561 51.266 38.4052 51.6234 37.9243C51.7143 37.8021 51.7976 37.6945 51.8086 37.6851C51.8196 37.6757 51.8975 37.568 51.9817 37.4458C52.0659 37.3236 52.1759 37.175 52.2262 37.1156C52.2764 37.0561 52.357 36.9519 52.4052 36.884C52.4535 36.8161 52.5622 36.6724 52.6466 36.5648C52.7311 36.4572 52.8381 36.3112 52.8843 36.2405C52.9306 36.1698 52.9919 36.0852 53.0205 36.0525C53.0954 35.9669 53.4353 35.5123 53.5887 35.2924C53.6608 35.189 53.7677 35.0494 53.8263 34.9821C53.8848 34.9149 53.9563 34.8242 53.9853 34.7806C54.0143 34.7369 54.1328 34.5782 54.2487 34.428C54.3645 34.2777 54.4866 34.1146 54.5199 34.0655C54.6428 33.8846 54.6724 33.845 54.7856 33.7106C54.8492 33.6351 54.919 33.541 54.9406 33.5014C54.9799 33.4296 55.1576 33.1988 55.2408 33.1115C55.2651 33.0861 55.3031 33.0319 55.3254 32.9911C55.3806 32.8898 55.7836 32.3727 55.8183 32.3585C55.8337 32.3522 55.8463 32.3314 55.8463 32.3122C55.8463 32.2929 55.9056 32.2026 55.978 32.1114C56.0504 32.0203 56.1492 31.8892 56.1974 31.8202C56.2457 31.7512 56.3208 31.6575 56.3642 31.612C56.4077 31.5666 56.4432 31.5206 56.4432 31.5098C56.4432 31.4991 56.5341 31.3735 56.6451 31.2309C56.7562 31.0882 56.8549 30.9528 56.8646 30.93C56.8742 30.9072 56.926 30.8374 56.9795 30.7747C57.0848 30.6516 57.2967 30.3727 57.602 29.9553C58.0982 29.277 58.1922 29.1536 58.2462 29.1099C58.2781 29.0842 58.3042 29.0497 58.3042 29.0334C58.3042 29.007 58.4644 28.7861 58.6064 28.6166C58.6348 28.5826 58.7612 28.4099 58.8872 28.2327C59.0132 28.0556 59.1313 27.9016 59.1496 27.8906C59.1679 27.8796 59.237 27.7909 59.3031 27.6934C59.4369 27.4963 59.9606 26.7913 60.0292 26.716C60.0534 26.6895 60.1441 26.5664 60.2307 26.4426C60.3173 26.3187 60.4016 26.2121 60.4179 26.2057C60.4342 26.1993 60.473 26.1455 60.5041 26.0861C60.5351 26.0267 60.5825 25.955 60.6094 25.9268C60.6362 25.8986 60.7246 25.7909 60.8058 25.6875C60.8871 25.5841 60.9697 25.4882 60.9895 25.4744C61.0093 25.4606 61.6674 25.4491 62.452 25.4488C63.5515 25.4484 63.8867 25.4581 63.914 25.491ZM51.5801 25.6207C51.696 25.6423 51.7987 25.6713 51.8083 25.6851C51.818 25.699 51.9165 25.7277 52.0271 25.7489C52.2866 25.7987 52.8774 26.0786 53.1752 26.2928C53.5654 26.5734 53.9105 26.9252 54.1949 27.3321C54.3114 27.4988 54.4067 27.6471 54.4067 27.6617C54.4067 27.6762 54.4387 27.7464 54.4779 27.8175C54.5743 27.9926 54.7421 28.4457 54.7885 28.656C54.8676 29.0151 54.9008 29.5748 54.8623 29.9006C54.8145 30.3054 54.7628 30.566 54.7047 30.6951C54.6793 30.7515 54.6389 30.8591 54.6151 30.9343C54.542 31.1643 54.1965 31.786 54.0928 31.8743C54.0817 31.8837 54.0257 31.9529 53.9684 32.0281C53.6933 32.3885 52.9551 32.9615 52.5808 33.1051C52.5132 33.131 52.4494 33.1641 52.439 33.1786C52.4286 33.1932 52.318 33.2303 52.1932 33.2612C52.0684 33.292 51.9505 33.3288 51.9312 33.3428C51.809 33.4318 50.9327 33.5304 50.5442 33.4988C50.2258 33.473 49.6982 33.3831 49.6492 33.3464C49.6297 33.3317 49.5413 33.3026 49.4528 33.2816C49.1844 33.2179 48.634 32.9303 48.2994 32.6789C48.033 32.4787 47.8898 32.342 47.6639 32.0725C47.3565 31.7058 47.3274 31.6635 47.1744 31.3597C47.0944 31.2009 47.0078 31.0326 46.9819 30.9856C46.9559 30.9386 46.8897 30.7386 46.8346 30.5412C46.7414 30.2072 46.7345 30.1386 46.7345 29.55C46.7345 29.2022 46.7456 28.8638 46.7591 28.798C46.8058 28.5708 46.9549 28.1309 47.0486 27.9435C47.2938 27.4534 47.3698 27.3188 47.4104 27.3034C47.4346 27.2942 47.4543 27.2728 47.4543 27.2557C47.4543 27.1424 48.1077 26.4946 48.4375 26.281C48.5437 26.2122 48.6701 26.1299 48.7184 26.0981C48.8894 25.9855 49.3522 25.789 49.5344 25.7516C49.6359 25.7308 49.7352 25.7012 49.7549 25.6859C49.7861 25.6616 49.9913 25.6222 50.3511 25.5712C50.5301 25.5459 51.3579 25.5792 51.5801 25.6207ZM50.3072 27.8635C50.2638 27.8725 50.2282 27.8925 50.2282 27.908C50.2282 27.9234 50.1866 27.9463 50.1357 27.9587C50.0115 27.989 49.5977 28.2638 49.5011 28.38C49.4585 28.4313 49.3862 28.5194 49.3405 28.5758C49.2059 28.742 49.0344 29.2725 49.0344 29.5226C49.0344 29.7362 49.2059 30.3325 49.2945 30.4269C49.3156 30.4493 49.3961 30.5451 49.4733 30.6396C49.5505 30.7342 49.6386 30.8202 49.669 30.8306C49.6994 30.8411 49.7574 30.8797 49.7978 30.9163C49.8382 30.953 49.9793 31.0336 50.1112 31.0954C50.3458 31.2052 50.3613 31.2077 50.8076 31.2054C51.2516 31.2032 51.2702 31.2001 51.4911 31.0911C51.6159 31.0294 51.7897 30.9239 51.8773 30.8564C52.0244 30.7432 52.335 30.4018 52.335 30.3533C52.335 30.3418 52.3662 30.2658 52.4043 30.1844C52.5759 29.8177 52.5707 29.2548 52.3919 28.8419C52.2391 28.4895 51.8463 28.1118 51.4923 27.9771C51.4247 27.9513 51.3581 27.914 51.3444 27.8942C51.3189 27.8574 50.4593 27.8319 50.3072 27.8635ZM62.0613 34.4343C62.1289 34.4523 62.3185 34.4996 62.4827 34.5394C62.8296 34.6234 63.2102 34.7953 63.665 35.0734C63.8402 35.1805 64.2907 35.5713 64.4139 35.7231C64.4429 35.7588 64.5298 35.8632 64.6071 35.9552C64.8356 36.2274 65.1446 36.7895 65.2199 37.0698C65.2426 37.1544 65.2834 37.2928 65.3104 37.3774C65.4694 37.8742 65.4601 39.0173 65.294 39.377C65.2766 39.4146 65.2442 39.5219 65.2219 39.6155C65.1833 39.7773 64.9558 40.2808 64.9049 40.317C64.8917 40.3264 64.8609 40.3725 64.8365 40.4195C64.7606 40.5657 64.5441 40.8639 64.5139 40.8639C64.498 40.8639 64.4432 40.9256 64.3919 41.001C64.2913 41.149 63.8059 41.5619 63.6063 41.6694C63.5387 41.7057 63.4755 41.7454 63.4658 41.7576C63.4307 41.8016 62.8178 42.0944 62.7607 42.0944C62.7283 42.0944 62.6461 42.1171 62.5779 42.1448C62.3382 42.2423 61.723 42.3393 61.3415 42.3398C60.9755 42.3402 60.1641 42.2019 60.0792 42.1247C60.0608 42.108 60.0126 42.0944 59.972 42.0944C59.8897 42.0944 59.3661 41.8569 59.2854 41.7829C59.2569 41.7568 59.1737 41.7057 59.1005 41.6693C58.9629 41.6008 58.9463 41.5881 58.5856 41.2741C58.3391 41.0594 58.0323 40.7058 57.9183 40.505C57.8756 40.4298 57.8213 40.3452 57.7977 40.317C57.7456 40.2549 57.5317 39.8142 57.5317 39.7691C57.5317 39.7514 57.4847 39.5993 57.4273 39.4311C57.2516 38.9163 57.2237 37.954 57.3702 37.4629C57.5166 36.9721 57.5669 36.83 57.6611 36.6415C57.7177 36.5281 57.7965 36.3897 57.8363 36.3339C57.876 36.278 57.9671 36.1435 58.0387 36.0348C58.2897 35.6539 58.761 35.2492 59.4103 34.8569C59.5953 34.7452 59.9295 34.614 60.1664 34.5602C60.3106 34.5275 60.4713 34.485 60.5237 34.4658C60.5759 34.4465 60.7024 34.4178 60.8046 34.402C61.0307 34.367 61.8914 34.3892 62.0613 34.4343ZM113.383 36.1894C113.328 36.307 113.236 36.5186 113.179 36.6596C113.044 36.9961 112.788 37.5608 112.761 37.5825C112.75 37.5919 112.729 37.6458 112.715 37.7022C112.692 37.7923 112.599 38.0103 112.378 38.4883C112.343 38.5635 112.296 38.6866 112.272 38.7618C112.249 38.837 112.211 38.9292 112.188 38.9668C112.164 39.0044 112.108 39.1275 112.063 39.2403C112.018 39.3531 111.967 39.4624 111.951 39.4833C111.935 39.5041 111.892 39.6055 111.855 39.7085C111.819 39.8115 111.772 39.9252 111.751 39.9611C111.688 40.0712 111.465 40.5641 111.465 40.5942C111.465 40.6098 111.426 40.7067 111.377 40.8094C111.329 40.9122 111.29 41.0056 111.29 41.0171C111.29 41.0286 111.237 41.1488 111.172 41.2842C111.107 41.4196 111.034 41.5919 111.009 41.6671C110.985 41.7423 110.953 41.8192 110.939 41.838C110.925 41.8568 110.884 41.9491 110.849 42.0431C110.813 42.1371 110.772 42.2226 110.756 42.233C110.741 42.2435 110.663 42.4204 110.584 42.6261C110.504 42.8319 110.388 43.1079 110.326 43.2395C110.155 43.5977 110.106 43.7093 110.077 43.8035C110.05 43.8935 109.839 44.3561 109.775 44.4662C109.755 44.5017 109.714 44.6093 109.685 44.7055C109.656 44.8015 109.604 44.934 109.569 44.9998C109.438 45.2468 109.292 45.5697 109.268 45.6675C109.254 45.7233 109.206 45.8379 109.16 45.9224C109.115 46.0069 109.078 46.0882 109.078 46.1033C109.078 46.1183 109.03 46.2293 108.972 46.3499C108.914 46.4706 108.867 46.5777 108.867 46.5881C108.867 46.6171 108.58 47.2683 108.551 47.307C108.536 47.3258 108.488 47.4412 108.444 47.5634C108.4 47.6856 108.353 47.8009 108.34 47.8197C108.328 47.8385 108.288 47.9308 108.253 48.0248C108.218 48.1188 108.179 48.2034 108.167 48.2128C108.155 48.2222 108.076 48.3991 107.991 48.6059C107.906 48.8127 107.784 49.0919 107.72 49.2264C107.655 49.3609 107.603 49.484 107.603 49.4998C107.602 49.5157 107.581 49.5696 107.554 49.6194C107.527 49.6693 107.486 49.7693 107.462 49.8416C107.438 49.9139 107.397 50.0116 107.372 50.0586C107.279 50.2304 107.118 50.5919 107.075 50.7251C107.051 50.8003 106.995 50.931 106.95 51.0156C106.906 51.1002 106.859 51.2111 106.846 51.262C106.834 51.313 106.801 51.3726 106.774 51.3944C106.747 51.4163 106.725 51.4477 106.725 51.4642C106.725 51.4811 107.725 51.494 109.016 51.4938L111.307 51.4935L111.366 51.3315C111.476 51.0263 111.648 50.5884 111.715 50.4431C111.751 50.3632 111.811 50.2325 111.848 50.1526C111.885 50.0726 111.934 49.9458 111.957 49.8706C111.981 49.7954 112.029 49.6723 112.064 49.5971C112.17 49.3746 112.312 49.0254 112.354 48.8877L112.393 48.7593L115.516 48.7681L118.639 48.7768L118.686 48.9135C118.712 48.9887 118.748 49.081 118.765 49.1186C118.783 49.1562 118.833 49.2792 118.877 49.392C118.921 49.5048 118.976 49.6279 118.999 49.6655C119.023 49.7031 119.068 49.8144 119.101 49.9129C119.134 50.0114 119.175 50.1007 119.193 50.1114C119.211 50.1222 119.225 50.1546 119.225 50.1835C119.225 50.2124 119.307 50.423 119.407 50.6515C119.506 50.88 119.622 51.1592 119.664 51.272L119.741 51.4771L122.08 51.4859L124.419 51.4946L124.374 51.4004C124.349 51.3486 124.285 51.2139 124.232 51.1011C124.046 50.7111 124.001 50.606 124.001 50.5695C124.001 50.5493 123.955 50.4376 123.899 50.3213C123.646 49.7945 123.579 49.645 123.579 49.6005C123.579 49.5743 123.532 49.4599 123.474 49.3462C123.416 49.2325 123.369 49.1303 123.369 49.1191C123.369 49.1079 123.321 48.9999 123.263 48.8793C123.205 48.7587 123.158 48.6372 123.158 48.6093C123.158 48.5814 123.144 48.5504 123.127 48.5402C123.11 48.5301 123.06 48.4254 123.015 48.3075C122.97 48.1896 122.906 48.047 122.874 47.9906C122.841 47.9342 122.795 47.8266 122.772 47.7514C122.748 47.6762 122.693 47.5377 122.648 47.4437C122.421 46.9612 122.385 46.882 122.385 46.8585C122.385 46.8444 122.356 46.7704 122.32 46.694C122.284 46.6176 122.226 46.4781 122.191 46.3841C122.157 46.2901 122.118 46.2055 122.105 46.1961C122.092 46.1867 122.038 46.0714 121.984 45.9398C121.795 45.4744 121.759 45.3889 121.581 45.0015C121.483 44.7862 121.402 44.5954 121.402 44.5775C121.402 44.5596 121.365 44.4666 121.319 44.3707C121.098 43.909 120.979 43.6315 120.959 43.5342C120.947 43.4755 120.927 43.4275 120.914 43.4275C120.902 43.4275 120.854 43.3313 120.807 43.2138C120.76 43.0964 120.709 42.9831 120.693 42.9623C120.677 42.9414 120.635 42.8415 120.598 42.7401C120.534 42.564 120.439 42.3472 120.263 41.9748C120.218 41.8808 120.17 41.7654 120.156 41.7184C120.143 41.6714 120.094 41.5555 120.049 41.461C120.005 41.3664 119.957 41.2471 119.944 41.1961C119.931 41.145 119.909 41.1032 119.896 41.1032C119.882 41.1032 119.851 41.0455 119.825 40.975C119.8 40.9045 119.758 40.8007 119.733 40.7443C119.708 40.6879 119.637 40.5264 119.576 40.3854C119.515 40.2444 119.378 39.929 119.271 39.6846C119.165 39.4403 119.036 39.1403 118.986 39.0181C118.935 38.8959 118.884 38.7883 118.872 38.7789C118.86 38.7695 118.839 38.7156 118.825 38.6592C118.812 38.6028 118.755 38.4644 118.698 38.3516C118.554 38.0636 118.383 37.6639 118.383 37.6174C118.383 37.5959 118.329 37.4677 118.263 37.3326C118.044 36.8824 117.961 36.6984 117.961 36.6602C117.961 36.6256 117.755 36.1658 117.685 36.0444C117.659 35.9999 117.38 35.9919 115.569 35.9843L113.484 35.9755L113.383 36.1894ZM78.7048 43.8018V51.4942H80.8819H83.0589V49.2939V47.0936L84.6477 47.0729C86.3204 47.051 86.5716 47.0319 87.3602 46.8674C87.5919 46.819 87.8158 46.779 87.8576 46.7783C87.8995 46.7777 87.939 46.7656 87.9454 46.7516C87.9518 46.7374 88.0756 46.6895 88.2205 46.645C88.3653 46.6005 88.4996 46.5525 88.5189 46.5384C88.5382 46.5242 88.6172 46.493 88.6945 46.4689C88.8596 46.4175 89.3538 46.1951 89.3792 46.1607C89.3888 46.1476 89.4678 46.1021 89.5548 46.0594C89.6417 46.0167 89.7207 45.9712 89.7303 45.9582C89.74 45.9452 89.7992 45.9055 89.862 45.87C89.9247 45.8344 89.9761 45.7937 89.9761 45.7795C89.9761 45.7652 90.0196 45.7309 90.0727 45.7034C90.1597 45.6582 90.22 45.6119 90.4501 45.4138C90.543 45.3338 90.8753 44.9763 91.0294 44.7905C91.1573 44.6363 91.2121 44.551 91.3674 44.2649C91.4183 44.1709 91.4711 44.0863 91.4845 44.0769C91.5218 44.0509 91.7164 43.5731 91.7839 43.342C91.8168 43.2292 91.8562 43.1215 91.8715 43.1027C91.8868 43.0839 91.9288 42.9071 91.9648 42.7097C92.0588 42.1938 92.0588 40.8247 91.9646 40.3341C91.9286 40.1461 91.8866 39.9769 91.8714 39.9581C91.8562 39.9393 91.8168 39.8316 91.7839 39.7188C91.751 39.606 91.7042 39.4676 91.68 39.4112C91.6558 39.3548 91.6071 39.2394 91.5719 39.1548C91.5367 39.0702 91.49 38.978 91.4682 38.9498C91.4464 38.9216 91.3594 38.7831 91.2749 38.6421C91.0243 38.2239 90.6297 37.7991 90.1517 37.433C90.0261 37.3369 89.9076 37.2457 89.8883 37.2303C89.8327 37.1862 89.6256 37.0686 89.3967 36.9513C89.2809 36.8918 89.1545 36.8261 89.1158 36.8051C88.9639 36.7228 88.7197 36.6274 88.5189 36.572C88.403 36.54 88.3003 36.5025 88.2907 36.4887C88.281 36.4749 88.123 36.4302 87.9396 36.3896C87.7561 36.3489 87.5744 36.3007 87.5358 36.2825C87.4971 36.2644 87.2443 36.2238 86.974 36.1924C86.5497 36.1431 85.9499 36.1335 82.5936 36.1223L78.7048 36.1094V43.8018ZM94.0141 43.8035V51.4942H100.018H106.023V49.6656V47.8371L102.187 47.8284L98.3506 47.8197L98.3417 41.9662L98.3328 36.1127H96.1734H94.0141V43.8035ZM126.037 43.8035V51.4942H128.197H130.356V47.2728C130.356 44.743 130.369 43.0515 130.388 43.0515C130.418 43.0515 130.572 43.2333 130.802 43.5414C130.856 43.6134 130.957 43.7364 131.026 43.8148C131.095 43.8931 131.196 44.0188 131.252 44.094C131.307 44.1692 131.369 44.2461 131.39 44.2649C131.41 44.2837 131.498 44.3914 131.584 44.5042C131.67 44.617 131.781 44.757 131.83 44.8154C131.957 44.9676 132.013 45.0374 132.104 45.1536C132.276 45.3761 132.309 45.4177 132.428 45.5616C132.495 45.6436 132.634 45.816 132.735 45.9448C133.103 46.4101 133.516 46.9331 133.594 47.0313C133.638 47.0865 133.71 47.168 133.753 47.2123C133.797 47.2567 133.832 47.3039 133.833 47.3171C133.833 47.3303 133.914 47.4335 134.013 47.5463C134.112 47.6591 134.231 47.8096 134.277 47.8807C134.324 47.9518 134.39 48.0382 134.426 48.0727C134.461 48.1072 134.559 48.2259 134.644 48.3365C134.729 48.447 134.814 48.555 134.833 48.5764C134.852 48.5978 134.931 48.6961 135.008 48.7948C135.086 48.8936 135.22 49.0607 135.307 49.1661C135.394 49.2716 135.536 49.4501 135.623 49.5629C135.71 49.6757 135.791 49.7757 135.804 49.7851C135.816 49.7945 135.901 49.9022 135.992 50.0244C136.083 50.1466 136.176 50.2619 136.197 50.2807C136.219 50.2995 136.339 50.4457 136.464 50.6055C136.588 50.7653 136.743 50.9564 136.806 51.0303C136.87 51.1042 136.922 51.1772 136.922 51.1927C136.922 51.208 136.983 51.2822 137.058 51.3574L137.195 51.4942H139.095H140.995V43.8035V36.1127H138.853H136.711V40.1632C136.711 44.029 136.709 44.2136 136.649 44.2136C136.614 44.2136 136.535 44.1483 136.473 44.0684C136.352 43.9132 136.265 43.8048 136.097 43.5982C136.039 43.5271 135.95 43.4172 135.898 43.3542C135.847 43.2911 135.622 43.0087 135.397 42.7268C135.173 42.4448 134.947 42.1629 134.894 42.1005C134.841 42.038 134.792 41.9717 134.785 41.9532C134.779 41.9347 134.739 41.8846 134.698 41.8419C134.656 41.7991 134.567 41.6916 134.499 41.6031C134.432 41.5146 134.29 41.3362 134.183 41.2067C134.077 41.0771 133.856 40.8004 133.692 40.5917C133.528 40.3831 133.369 40.1859 133.339 40.1536C133.31 40.1213 133.215 40.0025 133.13 39.8897C133.044 39.7769 132.926 39.6294 132.868 39.5619C132.809 39.4944 132.733 39.4002 132.698 39.3525C132.663 39.3048 132.524 39.1293 132.389 38.9625C132.253 38.7957 132.108 38.6152 132.065 38.5615C131.717 38.1172 131.412 37.7371 131.283 37.5886C131.186 37.4766 131.1 37.3682 130.836 37.0217C130.794 36.967 130.744 36.9055 130.725 36.885C130.705 36.8644 130.619 36.7553 130.532 36.6425C130.445 36.5297 130.313 36.3644 130.237 36.2751L130.099 36.1127H128.068H126.037V43.8035ZM143.875 43.8035V51.4942H150.283H156.691V49.7168V47.9393H152.443H148.195L148.176 47.8624C148.165 47.8202 148.161 47.2549 148.166 46.6063L148.176 45.427L151.994 45.4184L155.813 45.4096V43.7522V42.0947L151.994 42.086L148.176 42.0773L148.166 40.9493C148.161 40.329 148.165 39.7867 148.176 39.7445L148.195 39.6676H152.39H156.585V37.8901V36.1127H150.23H143.875V43.8035ZM158.13 37.9412V39.7696L160.509 39.7784L162.888 39.7872L162.897 45.6407L162.906 51.4942H165.065H167.224L167.233 45.6407L167.242 39.7872L169.621 39.7784L172 39.7696V37.9412V36.1127H165.065H158.13V37.9412ZM61.1474 36.6616C60.763 36.7167 60.4025 36.8842 60.1368 37.1312C60.0027 37.2558 59.7938 37.5456 59.7622 37.6509C59.7481 37.6979 59.7111 37.7748 59.68 37.8218C59.6352 37.8895 59.6238 37.9994 59.625 38.3516C59.6265 38.7894 59.6283 38.7993 59.7467 39.0216C60.0061 39.5092 60.2299 39.7277 60.6804 39.9331C60.8716 40.0203 60.9162 40.0265 61.359 40.0265C61.8299 40.0265 61.8346 40.0257 62.0613 39.9103C62.3914 39.7423 62.6004 39.5751 62.7619 39.3499C62.8401 39.2409 62.904 39.1452 62.904 39.1372C62.904 39.1291 62.9474 39.0337 63.0006 38.925C63.0882 38.7459 63.097 38.6928 63.0956 38.3516C63.0942 38.0036 63.086 37.959 62.9853 37.752C62.7396 37.2474 62.4764 36.9808 62.0348 36.7894C61.9165 36.7381 61.3718 36.6116 61.3472 36.6296C61.344 36.6319 61.2542 36.6463 61.1474 36.6616ZM86.0786 39.7107C86.1655 39.7428 86.261 39.7693 86.2909 39.7696C86.3207 39.7699 86.4866 39.8408 86.6595 39.9271C86.9892 40.0917 87.3 40.3586 87.4318 40.5904C87.4693 40.6562 87.5183 40.7331 87.5407 40.7613C87.5632 40.7895 87.6068 40.8962 87.6377 40.9983C87.7147 41.2531 87.7166 42.1582 87.6406 42.3721C87.4617 42.8761 87.1398 43.2285 86.6134 43.4972C86.43 43.5907 86.333 43.6236 85.8854 43.7433C85.7957 43.7673 85.2629 43.7818 84.4107 43.7836L83.0764 43.7864L83.0674 41.7075L83.0583 39.6286L84.4894 39.6405C85.7346 39.6507 85.9411 39.6599 86.0786 39.7107ZM115.796 41.5562C115.909 41.8428 116.037 42.1696 116.081 42.2824C116.124 42.3952 116.179 42.5336 116.201 42.59C116.224 42.6464 116.259 42.7387 116.28 42.7951C116.3 42.8515 116.338 42.9361 116.363 42.9831C116.408 43.0651 116.458 43.1928 116.652 43.718C116.701 43.8496 116.762 43.9876 116.789 44.0247C116.816 44.0618 116.838 44.1127 116.838 44.1379C116.838 44.1631 116.875 44.2635 116.922 44.361C116.968 44.4585 117.025 44.5999 117.048 44.6751C117.071 44.7503 117.144 44.9365 117.209 45.0889C117.275 45.2413 117.329 45.3913 117.329 45.4222C117.329 45.4735 117.176 45.4783 115.54 45.4783C114.371 45.4783 113.744 45.4664 113.73 45.4437C113.709 45.4102 113.814 45.0986 113.888 44.9749C113.919 44.9229 114.13 44.4026 114.391 43.7351C114.431 43.6317 114.474 43.5394 114.486 43.53C114.499 43.5206 114.519 43.4632 114.531 43.4025C114.543 43.3418 114.599 43.1957 114.655 43.0778C114.711 42.9599 114.778 42.8019 114.804 42.7268C114.83 42.6516 114.869 42.567 114.891 42.5388C114.914 42.5106 114.941 42.4389 114.953 42.3796C114.964 42.3202 115.037 42.1261 115.115 41.9481C115.194 41.7702 115.257 41.6073 115.257 41.5861C115.257 41.5649 115.27 41.5475 115.286 41.5475C115.302 41.5475 115.335 41.4668 115.36 41.3681C115.412 41.164 115.485 41.0348 115.548 41.0349C115.572 41.0349 115.683 41.2695 115.796 41.5562ZM169.085 48.9748C168.96 49.0397 168.802 49.1448 168.734 49.2083C168.05 49.8478 168.234 50.9859 169.083 51.3685C169.289 51.4616 169.35 51.4727 169.647 51.4727C169.949 51.4727 170.003 51.4624 170.209 51.366C170.335 51.3073 170.469 51.2314 170.508 51.1973C170.66 51.0638 170.834 50.8197 170.895 50.6567C170.93 50.5627 170.971 50.4712 170.988 50.4534C171.028 50.4089 171.025 49.9351 170.984 49.8615C170.966 49.8289 170.913 49.7176 170.866 49.6142C170.767 49.3947 170.541 49.1349 170.377 49.0517C170.314 49.0196 170.215 48.9677 170.157 48.9365C170.082 48.8964 169.943 48.8762 169.682 48.8681C169.318 48.8568 169.31 48.8584 169.085 48.9748ZM170.192 49.1186C170.39 49.2271 170.595 49.4023 170.595 49.4634C170.595 49.4859 170.618 49.5126 170.645 49.5227C170.73 49.5544 170.822 49.8861 170.823 50.1611C170.824 50.456 170.748 50.6851 170.581 50.8949C170.438 51.0739 170.357 51.1415 170.209 51.2066C170.142 51.2363 170.055 51.2779 170.016 51.299C169.978 51.32 169.833 51.3409 169.694 51.3453C169.235 51.36 168.835 51.1318 168.59 50.7161C168.483 50.5328 168.475 50.4987 168.474 50.1953C168.473 49.9143 168.485 49.8449 168.565 49.6797C168.667 49.4696 168.799 49.3263 169.039 49.1655C169.26 49.0181 169.34 48.9995 169.7 49.0119C169.969 49.0211 170.042 49.0371 170.192 49.1186ZM169.121 50.144V50.7764H169.277H169.433L169.444 50.5798C169.454 50.3947 169.46 50.3827 169.549 50.3727C169.628 50.3638 169.66 50.3869 169.738 50.5067C169.899 50.7557 169.937 50.7816 170.118 50.7699L170.281 50.7593L170.157 50.5812C170.089 50.4832 170.034 50.3861 170.034 50.3653C170.034 50.3446 170.081 50.2892 170.138 50.2423C170.262 50.1407 170.305 49.9676 170.25 49.7904C170.22 49.6953 170.175 49.6471 170.061 49.5885C169.931 49.5218 169.858 49.5115 169.516 49.5116L169.121 49.5117V50.144ZM169.931 49.8217C169.948 49.8486 169.963 49.9111 169.963 49.9606C169.964 50.0859 169.833 50.1611 169.614 50.1611H169.437V49.9788C169.437 49.8785 169.449 49.7848 169.463 49.7705C169.508 49.7259 169.896 49.7684 169.931 49.8217Z" fill="white"/>
</svg>
