<svg width="228" height="252" viewBox="0 0 228 252" fill="none" xmlns="http://www.w3.org/2000/svg">
<g clip-path="url(#clip0_1318_336)">
<path d="M38.6888 21.3042C37.3689 22.8967 35.8396 24.0404 34.1074 24.7352C32.372 25.4268 30.4969 25.7758 28.4755 25.7758C26.4541 25.7758 24.456 25.4567 22.7073 24.8217C20.9585 24.1867 19.4657 23.299 18.2223 22.1553C16.9789 21.0117 16.0081 19.6486 15.31 18.0694C14.6118 16.4868 14.2627 14.7613 14.2627 12.8896C14.2627 11.0178 14.6118 9.29897 15.31 7.72974C16.0081 6.16052 16.9789 4.80074 18.2223 3.66039C19.4657 2.51672 20.9618 1.62239 22.7073 0.974089C24.456 0.32911 26.3777 0.0032959 28.4755 0.0032959C30.3406 0.0032959 32.0794 0.295864 33.6985 0.887648C35.3176 1.47611 36.7339 2.46352 37.9507 3.8499L35.8529 5.40915C34.9984 4.2555 33.9046 3.41104 32.5714 2.8791C31.2383 2.34716 29.8718 2.08119 28.4755 2.08119C26.6902 2.08119 25.0777 2.35714 23.6415 2.91235C22.2052 3.46756 20.9818 4.2289 19.9711 5.1997C18.9604 6.17049 18.1858 7.31416 17.6405 8.63072C17.0953 9.94727 16.826 11.3669 16.826 12.8896C16.826 14.4123 17.0986 15.8352 17.6405 17.1518C18.1824 18.4683 18.9604 19.612 19.9711 20.5828C20.9818 21.5536 22.2052 22.3149 23.6415 22.8701C25.0777 23.4253 26.6902 23.7013 28.4755 23.7013C29.1737 23.7013 29.8984 23.6281 30.6498 23.4752C31.4012 23.3256 32.1326 23.0929 32.8441 22.7837C33.5555 22.4712 34.2338 22.0789 34.8821 21.6068C35.5304 21.1347 36.0989 20.5628 36.5909 19.8913L38.6888 21.3109V21.3042Z" fill="white"/>
<path d="M43.4663 0.621704H60.2823V2.6996H46.0296V11.4301H59.388V13.508H46.0296V23.0696H60.904V25.1475H43.4663V0.621704Z" fill="white"/>
<path d="M66.5724 0.621704H73.7968C74.1592 0.621704 74.6512 0.635003 75.273 0.65495C75.8947 0.678223 76.5662 0.74804 77.291 0.864402C78.0158 0.980764 78.7538 1.16362 79.5052 1.41962C80.2566 1.67561 80.9282 2.04465 81.5233 2.52672C82.1184 3.01212 82.6104 3.62385 82.9994 4.36192C83.3884 5.09998 83.5812 6.00096 83.5812 7.06484C83.5812 8.24176 83.3551 9.21256 82.903 9.9739C82.4508 10.7352 81.879 11.3536 81.1941 11.8257C80.5092 12.3011 79.7512 12.6502 78.9234 12.883C78.0956 13.1157 77.3043 13.2753 76.5529 13.3683L84.552 25.1475H81.6396L73.9132 13.508H69.1357V25.1475H66.5724V0.621704ZM69.1357 11.4301H74.5715C75.9179 11.4301 77.0117 11.2805 77.8529 10.9779C78.694 10.6787 79.349 10.3097 79.8144 9.87083C80.2798 9.43198 80.5957 8.95988 80.7652 8.45121C80.9348 7.94255 81.0179 7.48042 81.0179 7.06484C81.0179 6.64926 80.9348 6.18714 80.7652 5.67847C80.5957 5.1698 80.2798 4.6977 79.8144 4.25885C79.349 3.82 78.694 3.45097 77.8529 3.15175C77.0117 2.85253 75.9179 2.70292 74.5715 2.70292H69.1357V11.4334V11.4301Z" fill="white"/>
<path d="M96.0054 2.70292H86.6067V0.621704H107.964V2.6996H98.5654V25.1475H96.0021V2.70292H96.0054Z" fill="white"/>
<path d="M112.276 0.621704H114.84V25.1475H112.276V0.621704Z" fill="white"/>
<path d="M122.453 0.621704H138.92V2.6996H125.016V11.4301H137.949V13.508H125.016V25.1475H122.453V0.621704Z" fill="white"/>
<path d="M144.12 0.621704H146.683V25.1475H144.12V0.621704Z" fill="white"/>
<path d="M154.296 0.621704H171.112V2.6996H156.859V11.4301H170.218V13.508H156.859V23.0696H171.734V25.1475H154.296V0.621704Z" fill="white"/>
<path d="M177.053 0.621704H185.558C187.938 0.621704 189.96 0.881026 191.615 1.39967C193.271 1.91831 194.651 2.58324 195.751 3.39112C196.852 4.19901 197.719 5.09334 198.354 6.0741C198.989 7.05487 199.455 7.99574 199.751 8.89672C200.047 9.79769 200.236 10.6122 200.316 11.3403C200.392 12.0684 200.432 12.5804 200.432 12.883C200.432 13.1855 200.392 13.6975 200.316 14.4256C200.239 15.1537 200.05 15.9682 199.751 16.8692C199.451 17.7702 198.986 18.711 198.354 19.6918C197.719 20.6726 196.852 21.5669 195.751 22.3781C194.651 23.186 193.271 23.8509 191.615 24.3696C189.96 24.8882 187.938 25.1475 185.558 25.1475H177.053V0.621704ZM179.617 23.0696H184.896C186.708 23.0696 188.404 22.8668 189.983 22.4645C191.562 22.0623 192.935 21.4439 194.099 20.6127C195.266 19.7816 196.183 18.7243 196.855 17.4443C197.53 16.1644 197.866 14.645 197.866 12.8896C197.866 11.1342 197.53 9.61484 196.855 8.33485C196.18 7.05487 195.262 5.99764 194.099 5.16648C192.935 4.33532 191.562 3.71694 189.983 3.31466C188.404 2.91238 186.708 2.70957 184.896 2.70957H179.617V23.0763V23.0696Z" fill="white"/>
<path d="M0 226.727H17.4543V230.676H4.68773V236.704H16.7861V240.654H4.68773V247.306H18.1259V251.256H0V226.73V226.727Z" fill="white"/>
<path d="M19.7616 226.727H25.1575L32.342 245.258L39.7493 226.727H44.8094L34.1639 251.252H30.1079L19.7616 226.727Z" fill="white"/>
<path d="M47.7118 226.727H65.1661V230.676H52.3996V236.704H64.4946V240.654H52.3996V247.306H65.8344V251.256H47.7085V226.73L47.7118 226.727Z" fill="white"/>
<path d="M70.5287 226.727H79.6847C80.9514 226.727 82.1716 226.836 83.3518 227.056C84.5287 227.275 85.5793 227.651 86.4969 228.183C87.4145 228.715 88.1459 229.43 88.6912 230.331C89.2364 231.232 89.509 232.375 89.509 233.762C89.509 235.54 88.9804 237.03 87.9265 238.23C86.8726 239.43 85.3632 240.158 83.405 240.414L90.4033 251.256H84.7448L78.6408 240.863H75.2164V251.256H70.5287V226.73V226.727ZM78.8669 237.119C79.5351 237.119 80.2067 237.09 80.8749 237.033C81.5432 236.977 82.1583 236.837 82.7168 236.617C83.2753 236.398 83.7275 236.062 84.0732 235.613C84.419 235.165 84.5952 234.533 84.5952 233.725C84.5952 233.01 84.4323 232.432 84.1098 231.993C83.7873 231.554 83.3651 231.225 82.8431 231.005C82.3212 230.786 81.746 230.64 81.111 230.573C80.4793 230.503 79.8643 230.47 79.2691 230.47H75.2131V237.119H78.8602H78.8669Z" fill="white"/>
<path d="M117.459 249.451C114.208 251.066 110.574 251.874 106.555 251.874C104.52 251.874 102.651 251.568 100.953 250.957C99.2536 250.345 97.7875 249.48 96.5607 248.36C95.3339 247.24 94.3697 245.897 93.6749 244.324C92.98 242.755 92.6343 241.009 92.6343 239.094C92.6343 237.179 92.98 235.347 93.6749 233.742C94.3697 232.139 95.3306 230.769 96.5607 229.639C97.7875 228.509 99.2536 227.634 100.953 227.023C102.651 226.411 104.52 226.105 106.555 226.105C108.589 226.105 110.451 226.331 112.213 226.78C113.975 227.229 115.551 228.033 116.941 229.187L113.48 232.442C112.635 231.68 111.611 231.092 110.408 230.676C109.204 230.261 107.931 230.055 106.594 230.055C105.258 230.055 103.995 230.281 102.891 230.73C101.787 231.178 100.836 231.803 100.042 232.601C99.247 233.399 98.6319 234.327 98.1997 235.391C97.7642 236.455 97.5481 237.595 97.5481 238.818C97.5481 240.135 97.7642 241.348 98.1997 242.456C98.6319 243.563 99.247 244.523 100.042 245.331C100.836 246.139 101.784 246.774 102.891 247.236C103.995 247.698 105.228 247.928 106.594 247.928C107.785 247.928 108.908 247.825 109.962 247.615C111.016 247.406 111.954 247.083 112.772 246.645V240.86H107.376V236.91H117.463V249.451H117.459Z" fill="white"/>
<path d="M123.081 226.727H132.237C133.504 226.727 134.724 226.836 135.904 227.056C137.081 227.275 138.132 227.651 139.049 228.183C139.967 228.715 140.698 229.43 141.244 230.331C141.789 231.232 142.062 232.375 142.062 233.762C142.062 235.54 141.533 237.03 140.479 238.23C139.425 239.43 137.916 240.158 135.957 240.414L142.956 251.256H137.297L131.193 240.863H127.769V251.256H123.081V226.73V226.727ZM131.419 237.119C132.088 237.119 132.759 237.09 133.431 237.033C134.099 236.977 134.714 236.837 135.273 236.617C135.831 236.398 136.283 236.062 136.632 235.613C136.978 235.165 137.154 234.533 137.154 233.725C137.154 233.01 136.995 232.432 136.672 231.993C136.35 231.554 135.928 231.225 135.406 231.005C134.884 230.786 134.308 230.64 133.673 230.573C133.042 230.503 132.427 230.47 131.832 230.47H127.776V237.119H131.423H131.419Z" fill="white"/>
<path d="M146.603 226.727H164.057V230.676H151.291V236.704H163.386V240.654H151.291V247.306H164.726V251.256H146.6V226.73L146.603 226.727Z" fill="white"/>
<path d="M169.417 226.727H186.871V230.676H174.104V236.704H186.199V240.654H174.104V247.306H187.539V251.256H169.413V226.73L169.417 226.727Z" fill="white"/>
<path d="M192.23 226.727H198.447L211.214 244.946H211.287V226.727H215.978V251.252H210.024L196.998 232.442H196.925V251.252H192.237V226.727H192.23Z" fill="white"/>
<path d="M218.402 245.777C218.402 245.162 218.528 244.583 218.781 244.041C219.033 243.503 219.379 243.031 219.811 242.625C220.247 242.219 220.752 241.9 221.334 241.664C221.916 241.428 222.538 241.308 223.199 241.308C223.861 241.308 224.483 241.428 225.064 241.664C225.646 241.9 226.152 242.219 226.587 242.625C227.023 243.031 227.365 243.503 227.621 244.041C227.874 244.583 228 245.162 228 245.777C228 246.392 227.874 246.97 227.621 247.512C227.368 248.054 227.023 248.526 226.587 248.929C226.152 249.331 225.646 249.653 225.064 249.889C224.483 250.125 223.861 250.245 223.199 250.245C222.538 250.245 221.916 250.129 221.334 249.889C220.752 249.653 220.247 249.334 219.811 248.929C219.376 248.523 219.033 248.051 218.781 247.512C218.525 246.974 218.402 246.395 218.402 245.777ZM219.253 245.777C219.253 246.282 219.356 246.758 219.562 247.206C219.768 247.655 220.051 248.044 220.407 248.377C220.766 248.709 221.185 248.972 221.667 249.165C222.149 249.357 222.661 249.454 223.203 249.454C223.744 249.454 224.256 249.357 224.739 249.165C225.221 248.972 225.64 248.709 225.995 248.377C226.351 248.044 226.634 247.655 226.84 247.206C227.046 246.758 227.149 246.282 227.149 245.777C227.149 245.271 227.046 244.796 226.84 244.347C226.634 243.898 226.351 243.509 225.995 243.177C225.64 242.844 225.217 242.582 224.739 242.389C224.256 242.196 223.744 242.1 223.203 242.1C222.661 242.1 222.149 242.196 221.667 242.389C221.185 242.582 220.766 242.844 220.407 243.177C220.051 243.509 219.768 243.898 219.562 244.347C219.356 244.796 219.253 245.271 219.253 245.777ZM221.357 243.194H223.475C224.137 243.194 224.626 243.327 224.941 243.589C225.257 243.852 225.413 244.234 225.413 244.73C225.413 245.178 225.29 245.514 225.041 245.74C224.792 245.966 224.483 246.096 224.107 246.136L225.526 248.297H224.469L223.103 246.206H222.368V248.297H221.361V243.194H221.357ZM222.365 245.414H223.1C223.256 245.414 223.409 245.408 223.565 245.398C223.721 245.384 223.861 245.355 223.984 245.308C224.107 245.261 224.21 245.188 224.286 245.092C224.363 244.995 224.403 244.863 224.403 244.696C224.403 244.53 224.363 244.397 224.286 244.301C224.21 244.204 224.107 244.131 223.984 244.085C223.861 244.035 223.718 244.008 223.565 244.001C223.412 243.995 223.256 243.988 223.1 243.988H222.365V245.418V245.414Z" fill="black"/>
<path d="M44.5833 45.717V198.933H170.078V45.717H44.5833ZM146.556 172.269H67.9754V69.6079H145.429V90.4866H92.2784V109.626H139.269V130.505H92.2784V151.384H146.553V172.263L146.556 172.269Z" fill="white"/>
</g>
<defs>
<clipPath id="clip0_1318_336">
<rect width="228" height="251.874" fill="white"/>
</clipPath>
</defs>
</svg>
