<svg width="14" height="14" viewBox="0 0 14 14" fill="none" xmlns="http://www.w3.org/2000/svg">
<path d="M7.45417 12.5394C5.94306 12.5394 4.65625 12.0082 3.59375 10.9457C2.53125 9.88316 2 8.59635 2 7.08524C2 6.05816 2.27448 5.0901 2.82344 4.18108C3.3724 3.27205 4.19583 2.56962 5.29375 2.07378C5.43542 2.01476 5.55937 1.99115 5.66562 2.00295C5.77187 2.01476 5.86042 2.05017 5.93125 2.1092C6.00208 2.16823 6.04931 2.24792 6.07292 2.34826C6.09653 2.44861 6.09062 2.55781 6.05521 2.67587C5.99618 2.87656 5.95486 3.07726 5.93125 3.27795C5.90764 3.47865 5.89583 3.68524 5.89583 3.89774C5.89583 5.21997 6.35625 6.34149 7.27708 7.26233C8.19792 8.18316 9.31944 8.64358 10.6417 8.64358C10.9604 8.64358 11.2437 8.61406 11.4917 8.55504C11.7396 8.49601 11.9462 8.46649 12.1115 8.46649C12.2059 8.46649 12.2885 8.48125 12.3594 8.51076C12.4302 8.54028 12.4833 8.58455 12.5187 8.64358C12.5542 8.7026 12.5748 8.77049 12.5807 8.84722C12.5866 8.92396 12.566 9.00955 12.5187 9.10399C12.1292 10.1193 11.4769 10.9457 10.562 11.5832C9.64705 12.2207 8.61111 12.5394 7.45417 12.5394Z" fill="#232323"/>
</svg>
