<svg width="14" height="14" viewBox="0 0 14 14" fill="none" xmlns="http://www.w3.org/2000/svg">
<g clip-path="url(#clip0_1348_753)">
<path d="M6.99943 9.9161C6.19249 9.9161 5.50464 9.63172 4.93589 9.06297C4.36714 8.49422 4.08276 7.80638 4.08276 6.99943C4.08276 6.19249 4.36714 5.50464 4.93589 4.93589C5.50464 4.36714 6.19249 4.08276 6.99943 4.08276C7.80638 4.08276 8.49422 4.36714 9.06297 4.93589C9.63172 5.50464 9.9161 6.19249 9.9161 6.99943C9.9161 7.80638 9.63172 8.49422 9.06297 9.06297C8.49422 9.63172 7.80638 9.9161 6.99943 9.9161ZM1.1661 7.58276C1.00082 7.58276 0.862278 7.52686 0.750472 7.41506C0.638666 7.30325 0.582764 7.16471 0.582764 6.99943C0.582764 6.83415 0.638666 6.69561 0.750472 6.58381C0.862278 6.472 1.00082 6.4161 1.1661 6.4161H2.33276C2.49804 6.4161 2.63658 6.472 2.74839 6.58381C2.86019 6.69561 2.9161 6.83415 2.9161 6.99943C2.9161 7.16471 2.86019 7.30325 2.74839 7.41506C2.63658 7.52686 2.49804 7.58276 2.33276 7.58276H1.1661ZM11.6661 7.58276C11.5008 7.58276 11.3623 7.52686 11.2505 7.41506C11.1387 7.30325 11.0828 7.16471 11.0828 6.99943C11.0828 6.83415 11.1387 6.69561 11.2505 6.58381C11.3623 6.472 11.5008 6.4161 11.6661 6.4161H12.8328C12.998 6.4161 13.1366 6.472 13.2484 6.58381C13.3602 6.69561 13.4161 6.83415 13.4161 6.99943C13.4161 7.16471 13.3602 7.30325 13.2484 7.41506C13.1366 7.52686 12.998 7.58276 12.8328 7.58276H11.6661ZM6.99943 2.9161C6.83415 2.9161 6.69561 2.86019 6.58381 2.74839C6.472 2.63658 6.4161 2.49804 6.4161 2.33276V1.1661C6.4161 1.00082 6.472 0.862278 6.58381 0.750472C6.69561 0.638666 6.83415 0.582764 6.99943 0.582764C7.16471 0.582764 7.30325 0.638666 7.41506 0.750472C7.52686 0.862278 7.58276 1.00082 7.58276 1.1661V2.33276C7.58276 2.49804 7.52686 2.63658 7.41506 2.74839C7.30325 2.86019 7.16471 2.9161 6.99943 2.9161ZM6.99943 13.4161C6.83415 13.4161 6.69561 13.3602 6.58381 13.2484C6.472 13.1366 6.4161 12.998 6.4161 12.8328V11.6661C6.4161 11.5008 6.472 11.3623 6.58381 11.2505C6.69561 11.1387 6.83415 11.0828 6.99943 11.0828C7.16471 11.0828 7.30325 11.1387 7.41506 11.2505C7.52686 11.3623 7.58276 11.5008 7.58276 11.6661V12.8328C7.58276 12.998 7.52686 13.1366 7.41506 13.2484C7.30325 13.3602 7.16471 13.4161 6.99943 13.4161ZM3.29526 4.11193L2.66818 3.49943C2.55151 3.39249 2.49561 3.25637 2.50047 3.0911C2.50533 2.92582 2.56124 2.78485 2.66818 2.66818C2.78485 2.55151 2.92582 2.49318 3.0911 2.49318C3.25637 2.49318 3.39249 2.55151 3.49943 2.66818L4.11193 3.29526C4.21888 3.41193 4.27235 3.54804 4.27235 3.7036C4.27235 3.85915 4.21888 3.99526 4.11193 4.11193C4.00499 4.2286 3.87131 4.2845 3.71089 4.27964C3.55047 4.27478 3.41193 4.21888 3.29526 4.11193ZM10.4994 11.3307L9.88693 10.7036C9.77999 10.5869 9.72651 10.4484 9.72651 10.288C9.72651 10.1276 9.77999 9.99388 9.88693 9.88693C9.99388 9.77026 10.1276 9.71436 10.288 9.71922C10.4484 9.72408 10.5869 9.77999 10.7036 9.88693L11.3307 10.4994C11.4473 10.6064 11.5033 10.7425 11.4984 10.9078C11.4935 11.073 11.4376 11.214 11.3307 11.3307C11.214 11.4473 11.073 11.5057 10.9078 11.5057C10.7425 11.5057 10.6064 11.4473 10.4994 11.3307ZM9.88693 4.11193C9.77026 4.00499 9.71436 3.87131 9.71922 3.71089C9.72408 3.55047 9.77999 3.41193 9.88693 3.29526L10.4994 2.66818C10.6064 2.55151 10.7425 2.49561 10.9078 2.50047C11.073 2.50533 11.214 2.56124 11.3307 2.66818C11.4473 2.78485 11.5057 2.92582 11.5057 3.0911C11.5057 3.25637 11.4473 3.39249 11.3307 3.49943L10.7036 4.11193C10.5869 4.21888 10.4508 4.27235 10.2953 4.27235C10.1397 4.27235 10.0036 4.21888 9.88693 4.11193ZM2.66818 11.3307C2.55151 11.214 2.49318 11.073 2.49318 10.9078C2.49318 10.7425 2.55151 10.6064 2.66818 10.4994L3.29526 9.88693C3.41193 9.77999 3.55047 9.72651 3.71089 9.72651C3.87131 9.72651 4.00499 9.77999 4.11193 9.88693C4.2286 9.99388 4.2845 10.1276 4.27964 10.288C4.27478 10.4484 4.21888 10.5869 4.11193 10.7036L3.49943 11.3307C3.39249 11.4473 3.25637 11.5033 3.0911 11.4984C2.92582 11.4935 2.78485 11.4376 2.66818 11.3307Z" fill="#D9D7CE"/>
</g>
<defs>
<clipPath id="clip0_1348_753">
<rect width="14" height="14" fill="white"/>
</clipPath>
</defs>
</svg>
