<svg xmlns="http://www.w3.org/2000/svg" width="102" height="28" fill="none"><g clip-path="url(#a)"><path fill="#fff" d="M35.928 14.848H34l-.783 3.72h-2.2l2.14-10.045h4.141c1.687 0 2.831 1.19 2.831 2.545 0 2.696-2.138 3.78-4.201 3.78Zm.27-4.85h-1.174l-.723 3.374h.753c1.476 0 2.831-.331 2.831-2.093 0-.799-.828-1.28-1.686-1.28Zm11.251 5.889c-.271 1.22-.347 2.108-.361 2.68h-2.124c.03-.376.166-1.084.286-1.776-.542.979-1.43 1.942-2.907 1.942-1.476 0-2.289-1.009-2.289-2.41 0-3.388 3.027-5.481 5.904-5.481.873 0 2.003.15 2.53.346l-1.04 4.7Zm-1.883-3.644c-1.732 0-3.313 1.837-3.313 3.855 0 .678.241 1.235 1.024 1.235 1.054 0 2.063-1.446 2.485-3.253l.407-1.747a1.676 1.676 0 0 0-.603-.09m10.241 5.316c-.677 3.042-1.792 4.427-5.135 4.427-1.01 0-1.973-.195-2.62-.421l.406-1.491c.723.391 1.49.512 2.169.512 1.882 0 2.605-.994 2.952-2.41l.24-.994c-.723.964-1.476 1.386-2.726 1.386-1.55 0-2.304-.964-2.304-2.244 0-3.404 3.103-5.467 5.994-5.467.829 0 1.868.15 2.44.331l-1.415 6.37Zm-1.476-5.301c-1.731 0-3.343 1.777-3.343 3.885 0 .678.241 1.175.98 1.175 1.415 0 2.198-1.807 2.514-3.148l.437-1.822a1.987 1.987 0 0 0-.587-.09m9.503 1.114c1.084.241 1.777.934 1.777 1.988 0 2.59-2.47 3.208-4.548 3.208h-3.72l2.138-10.045h4.022c1.34 0 2.786.617 2.786 2.108s-.994 2.47-2.455 2.74Zm-2.47.693h-.95l-.676 3.162h1.038c1.266 0 2.576-.391 2.576-1.943 0-1.054-1.175-1.22-1.988-1.22m1.174-4.201h-1.25l-.602 2.876h1.07c1.174 0 2.319-.452 2.319-1.792 0-.843-.844-1.084-1.536-1.084Zm11.371 6.024c-.27 1.22-.346 2.108-.361 2.68h-2.124c.03-.376.166-1.084.286-1.776-.542.979-1.43 1.942-2.906 1.942-1.476 0-2.29-1.009-2.29-2.41 0-3.388 3.028-5.481 5.904-5.481.874 0 2.003.15 2.53.346l-1.039 4.7Zm-1.882-3.644c-1.732 0-3.313 1.837-3.313 3.855 0 .678.24 1.235 1.024 1.235 1.054 0 2.063-1.446 2.485-3.253l.406-1.747a1.676 1.676 0 0 0-.602-.09m10.949 1.325-1.055 5h-2.078l.95-4.548c.06-.271.12-.527.12-.784 0-.572-.272-.978-.995-.978-1.13 0-1.671 1.009-1.882 1.988l-.919 4.322h-2.093l1.235-5.874c.12-.557.226-1.114.286-1.687h1.958l-.226 1.34c.723-1.008 1.476-1.49 2.726-1.49s2.063.602 2.063 1.852c0 .271-.03.558-.09.859m5.452.873 2.38 4.127h-2.38l-2.048-3.961-.814 3.96h-2.093l2.29-10.858h2.078l-1.34 6.416 3.237-3.117h2.455l-3.765 3.433ZM18.258.795a11.971 11.971 0 0 0-4.306-.797 11.97 11.97 0 0 0-4.305.797C4.058 2.613.007 7.871.007 14.06c0 4.466 2.11 8.447 5.386 11.001a9.96 9.96 0 0 0 3.343 1.93 13.867 13.867 0 0 0 5.216 1.014c7.689 0 13.945-6.256 13.945-13.945 0-6.187-4.051-11.445-9.64-13.264"/><path fill="#000" d="M13.952 26.817c-7.038 0-12.764-5.725-12.764-12.763S6.914 1.29 13.952 1.29c7.038 0 12.764 5.726 12.764 12.764 0 7.038-5.726 12.763-12.764 12.763Z"/><path fill="#DDE05B" d="M24.565 12.324c0 5.862-4.752 10.613-10.613 10.613-5.862 0-10.613-4.751-10.613-10.613 0-5.861 4.751-10.613 10.613-10.613 5.862 0 10.613 4.752 10.613 10.613Z"/><path fill="#000" d="M13.952 23.209c-6.072 0-11.013-4.94-11.013-11.012S7.88 1.184 13.952 1.184s11.013 4.94 11.013 11.013c0 6.072-4.941 11.012-11.013 11.012m0-21.227c-5.632 0-10.214 4.582-10.214 10.215 0 5.632 4.582 10.213 10.214 10.213 5.632 0 10.214-4.581 10.214-10.213 0-5.632-4.582-10.215-10.214-10.215Z"/><path fill="#9ED5D6" d="M20.788 19.03A8.809 8.809 0 1 1 3.56 15.34a8.809 8.809 0 0 1 17.227 3.692Z"/><path fill="#000" d="M12.193 26.396c-.648 0-1.3-.069-1.948-.208a9.147 9.147 0 0 1-5.802-4 9.146 9.146 0 0 1-1.272-6.933c1.063-4.964 5.968-8.138 10.933-7.074 4.964 1.064 8.138 5.969 7.074 10.933a9.147 9.147 0 0 1-4.002 5.802 9.146 9.146 0 0 1-4.983 1.48Zm-.02-17.622c-3.88 0-7.377 2.706-8.222 6.649a8.355 8.355 0 0 0 1.163 6.33 8.355 8.355 0 0 0 5.298 3.655 8.353 8.353 0 0 0 6.331-1.162 8.355 8.355 0 0 0 3.655-5.299c.971-4.534-1.927-9.013-6.462-9.985a8.409 8.409 0 0 0-1.763-.188"/><path fill="#FFE72D" d="M25.335 17.556a5.466 5.466 0 1 1-10.932 0 5.466 5.466 0 0 1 10.932 0Z"/><path fill="#000" d="M19.869 23.421a5.872 5.872 0 0 1-5.865-5.865 5.872 5.872 0 0 1 5.865-5.865 5.872 5.872 0 0 1 5.865 5.865 5.872 5.872 0 0 1-5.865 5.865Zm0-10.931a5.073 5.073 0 0 0-5.067 5.066 5.073 5.073 0 0 0 5.067 5.067 5.073 5.073 0 0 0 5.067-5.067 5.073 5.073 0 0 0-5.067-5.067Z"/></g><defs><clipPath id="a"><path fill="#fff" d="M0 0h102v28H0z"/></clipPath></defs></svg>