<svg width="24" height="24" viewBox="0 0 24 24" fill="none" xmlns="http://www.w3.org/2000/svg">
<g clip-path="url(#clip0_14665_3616)">
<path fill-rule="evenodd" clip-rule="evenodd" d="M12.2174 0.0782471C5.75979 0.0782471 0.524937 5.31207 0.524937 11.7676C0.524937 13.9771 1.13788 16.0437 2.20224 17.8059L0.0931854 24.0782L6.56428 22.0054C8.29459 22.9623 10.2402 23.4626 12.2174 23.4591C18.672 23.4591 23.9068 18.2253 23.9068 11.7697C23.9068 5.31207 18.672 0.0782471 12.2174 0.0782471ZM12.2174 21.5002C10.2399 21.5002 8.39689 20.91 6.86143 19.8922L3.12373 21.0891L4.33822 17.4757C3.13128 15.8178 2.48229 13.8193 2.4849 11.7687C2.4849 6.40543 6.85108 2.03614 12.2174 2.03614C17.5838 2.03614 21.9469 6.40543 21.9469 11.7687C21.9469 17.1402 17.5848 21.5002 12.2174 21.5002ZM17.6977 14.4265C17.4036 14.266 15.9655 13.4884 15.6953 13.3787C15.4209 13.2689 15.2242 13.213 15.014 13.5029C14.8038 13.7928 14.2064 14.4451 14.0262 14.6377C13.844 14.8303 13.669 14.8479 13.376 14.6874C13.084 14.5279 12.1336 14.1759 11.0319 13.1167C10.1726 12.2936 9.61036 11.2945 9.4478 10.989C9.28421 10.6836 9.4478 10.5283 9.60311 10.3844C9.74185 10.256 9.91372 10.0468 10.069 9.87911C10.2243 9.71034 10.2792 9.58921 10.3859 9.39248C10.4935 9.19576 10.448 9.01975 10.3807 8.86858C10.3123 8.71638 9.7698 7.22544 9.54202 6.61871C9.31631 6.01198 9.06575 6.1031 8.88973 6.09585C8.71579 6.0886 8.51907 6.0565 8.32028 6.04926C8.12356 6.04201 7.79224 6.10517 7.51268 6.393C7.22589 6.67669 6.42554 7.36936 6.37377 8.83856C6.31683 10.3067 7.33253 11.7645 7.47541 11.9685C7.61726 12.1756 9.4157 15.3562 12.4038 16.666C15.394 17.9747 15.4064 17.5751 15.9551 17.5461C16.5039 17.5181 17.7505 16.8907 18.0259 16.2032C18.3013 15.5157 18.323 14.9193 18.2537 14.792C18.1812 14.6646 17.9845 14.5818 17.6946 14.4223L17.6977 14.4265Z" fill="black"/>
</g>
<defs>
<clipPath id="clip0_14665_3616">
<rect width="24" height="24" fill="white"/>
</clipPath>
</defs>
</svg>
