<svg width="99" height="32" viewBox="0 0 99 32" fill="none" xmlns="http://www.w3.org/2000/svg">
<path d="M47.9533 7.67039V18.1891C47.9533 24.8407 42.8486 27.0063 40.5283 27.6251C39.9095 27.7798 38.9814 27.4704 38.672 26.5423C38.5173 25.7688 38.9814 24.9954 39.7548 24.686C42.0752 24.0673 44.8595 22.3657 44.8595 18.1891V7.67039C44.8595 6.89695 45.4783 6.12351 46.4064 6.12351C47.1798 6.12351 47.9533 6.74226 47.9533 7.67039ZM22.1205 20.5094C22.7392 21.7469 21.5017 23.4485 19.9548 22.5204C19.9548 22.5204 14.0767 18.6532 9.74546 16.9516L7.11577 21.9016C6.96108 22.3657 5.87827 23.1391 4.95015 22.5204C-2.32017 18.3438 -0.927979 10.1454 8.19859 12.9298L11.9111 5.81414C12.6845 4.57664 14.2314 4.88601 14.6955 5.81414L22.1205 20.5094ZM6.8064 15.8688C0.928272 14.1673 4.02202 18.1891 5.25952 18.9626L6.8064 15.8688ZM16.8611 16.9516L13.1486 9.9907L11.1376 14.1673C12.5298 14.6313 15.6236 16.3329 16.8611 16.9516ZM40.0642 14.3219C40.0642 18.9626 36.3517 22.6751 31.7111 22.6751H26.7611C25.833 22.6751 25.2142 21.9016 25.2142 21.1282V7.67039C25.2142 6.74226 25.9876 6.12351 26.7611 6.12351H31.7111C36.3517 6.12351 40.0642 9.83601 40.0642 14.3219ZM36.9705 14.3219C36.9705 11.5376 34.6502 9.21726 31.8658 9.21726H28.4626V19.5813H31.8658C34.6502 19.5813 36.9705 17.261 36.9705 14.3219ZM64.1955 7.67039V15.4048C64.1955 17.8798 62.4939 19.5813 60.0189 19.5813C57.5439 19.5813 55.8423 17.8798 55.8423 15.4048V7.67039C55.8423 5.65945 52.7486 5.65945 52.7486 7.67039V15.4048C52.7486 19.5813 55.8423 22.6751 60.0189 22.6751C64.1955 22.6751 67.2892 19.5813 67.2892 15.4048V7.67039C67.2892 5.65945 64.1955 5.65945 64.1955 7.67039ZM97.2986 6.12351H85.8517C83.8408 6.12351 83.8408 9.21726 85.8517 9.21726H90.0283V21.1282C90.0283 23.1391 93.122 23.1391 93.122 21.1282V9.21726H97.2986C99.4642 9.21726 99.4642 6.12351 97.2986 6.12351ZM73.4767 10.1454C73.6314 8.7532 76.4158 7.97976 78.7361 9.9907C80.283 11.2282 82.2939 9.37195 80.9017 7.67039C78.272 4.73132 70.383 4.88601 70.383 10.4548C70.383 16.3329 79.5095 15.0954 78.5814 18.4985C78.1173 20.0454 74.5595 20.6641 72.858 18.3438C71.4658 16.3329 68.9908 18.3438 70.2283 20.0454C73.7861 25.1501 81.8298 22.9844 81.8298 18.0344C81.8298 12.311 73.322 13.3938 73.4767 10.1454Z" fill="black"/>
</svg>
