<svg width="71" height="32" viewBox="0 0 71 32" fill="none" xmlns="http://www.w3.org/2000/svg">
<path d="M17.125 25.2662H22.7957L28.5627 8.38086H22.6731L17.125 25.2662Z" fill="black"/>
<path d="M17.1252 8.38086H11.5156L14.3202 16.9169L17.1252 8.38086Z" fill="#991BB0"/>
<path d="M8.72648 16.777L5.90623 25.2662L0 8.38086H5.96769L8.72648 16.777Z" fill="#1ACB56"/>
<path d="M19.9296 16.8235L17.1249 25.2662L14.3203 16.9169L17.1249 8.38086L19.9296 16.8235Z" fill="#004CFF"/>
<path d="M5.90625 25.2662H11.5769L14.3204 16.9169L11.5155 8.38086L5.90625 25.2662Z" fill="#FF1755"/>
<path d="M41.5092 8.38086V17.5639C41.5092 19.0898 40.2454 20.3268 38.6869 20.3268C37.1284 20.3268 35.8646 19.0898 35.8646 17.5639V8.38086H30.3613V17.5639C30.3613 22.0651 34.0889 25.714 38.6872 25.714C43.2849 25.714 47.0125 22.0651 47.0125 17.5639V8.38086H41.5092Z" fill="black"/>
<path d="M59.8748 7.9159C58.2193 7.9159 56.7365 8.64032 55.7134 9.78462V8.38062H50.3262V25.266H55.7134V15.6691C55.7134 14.7248 56.2674 13.8561 57.1381 13.4902C57.7349 13.2393 58.3897 13.0998 59.0788 13.0998C60.1185 13.0998 61.0843 13.4131 61.8902 13.9484L62.287 8.46957C61.5561 8.11822 60.7401 7.91589 59.8748 7.91589" fill="black"/>
<path d="M70.5317 2.62207H65.1445V25.2664H70.5317V2.62207Z" fill="black"/>
</svg>
