<svg width="16" height="16" viewBox="0 0 16 16" fill="none" xmlns="http://www.w3.org/2000/svg">
<mask id="mask0_756_24472" style="mask-type:alpha" maskUnits="userSpaceOnUse" x="0" y="0" width="16" height="16">
<rect width="16" height="16" fill="#D9D9D9"/>
</mask>
<g mask="url(#mask0_756_24472)">
<path d="M12.51 10.2314C12.5925 10.0228 12.8884 10.023 12.9709 10.2314L13.5764 11.7666C13.6016 11.8304 13.6523 11.8811 13.7161 11.9062L15.2502 12.5117C15.4592 12.5941 15.4592 12.8893 15.2502 12.9717L13.7161 13.5771C13.6523 13.6023 13.6016 13.653 13.5764 13.7168L12.9709 15.252C12.8883 15.4604 12.5925 15.4605 12.51 15.252L11.9055 13.7168C11.8804 13.6531 11.8296 13.6023 11.7659 13.5771L10.2307 12.9717C10.0222 12.8892 10.0222 12.5942 10.2307 12.5117L11.7659 11.9062C11.8296 11.8811 11.8804 11.8303 11.9055 11.7666L12.51 10.2314ZM12.7405 1.48242C14.0495 1.48242 15.1114 2.54354 15.1116 3.85254V10.0947C14.7844 9.72377 14.3811 9.42181 13.926 9.21289V3.85254C13.9259 3.1981 13.395 2.66797 12.7405 2.66797H3.25903C2.60467 2.66811 2.0746 3.19818 2.07446 3.85254V12.1494C2.07464 12.8037 2.6047 13.3338 3.25903 13.334H9.00122C9.11259 13.7668 9.3041 14.167 9.55786 14.5195H3.25903L3.01685 14.5068C1.90138 14.3935 1.01499 13.5071 0.901611 12.3916L0.888916 12.1494V3.85254C0.889052 2.54362 1.95011 1.48256 3.25903 1.48242H12.7405ZM6.22192 6.43066C6.22192 5.95975 6.74483 5.67696 7.13892 5.93457L9.83813 7.70117C10.2128 7.94642 10.1912 8.50327 9.7981 8.71777L7.09888 10.1895C6.70399 10.4048 6.22192 10.1188 6.22192 9.66895V6.43066Z" fill="#333333"/>
</g>
</svg>
