<svg width="23" height="16" viewBox="0 0 23 16" fill="none" xmlns="http://www.w3.org/2000/svg">
<g clip-path="url(#clip0_4532_15505)">
<path fill-rule="evenodd" clip-rule="evenodd" d="M0 11H23V5H0V11Z" fill="white"/>
<path fill-rule="evenodd" clip-rule="evenodd" d="M0 5H23V2C23 0.895431 22.1046 0 21 0H2C0.89543 0 0 0.895431 0 2V5Z" fill="#80A7D8"/>
<path fill-rule="evenodd" clip-rule="evenodd" d="M0 14C0 15.1046 0.895431 16 2 16H21C22.1046 16 23 15.1046 23 14V11H0V14Z" fill="#80A7D8"/>
<path fill-rule="evenodd" clip-rule="evenodd" d="M11.5295 8.10962L11.599 9.92952C11.599 9.92952 11.599 9.96357 11.6215 9.96357C11.6426 9.96357 11.6426 9.92952 11.6426 9.92952L11.7121 8.10962H11.5295Z" fill="#F1BD51"/>
<path fill-rule="evenodd" clip-rule="evenodd" d="M11.6214 9.96871C11.599 9.96871 11.5935 9.94214 11.5935 9.9292L11.524 8.11135L11.5363 8.10999L11.6031 9.9292C11.6031 9.9292 11.6031 9.95713 11.6214 9.95713C11.6371 9.95713 11.6371 9.9292 11.6371 9.9292L11.7066 8.10999L11.6507 9.9292C11.6507 9.94214 11.6426 9.96871 11.6214 9.96871Z" fill="#7A361D"/>
<path fill-rule="evenodd" clip-rule="evenodd" d="M11.5763 8.10962L11.6212 9.35944L11.6655 8.10962H11.5763Z" fill="#7A361D"/>
<path fill-rule="evenodd" clip-rule="evenodd" d="M11.4495 8.69824C11.3457 8.92709 11.4324 9.11371 11.3306 9.31327C11.2241 9.51284 11.2897 9.67698 11.2842 9.76961C11.276 9.86156 11.2029 9.88744 11.22 9.90856C11.2398 9.92967 11.319 9.88812 11.3484 9.76484C11.3785 9.64361 11.3067 9.57345 11.4297 9.32894C11.5561 9.08306 11.4577 8.97273 11.5841 8.75409L11.4495 8.69824Z" fill="#F1BD51"/>
<path fill-rule="evenodd" clip-rule="evenodd" d="M11.2402 9.91874L11.2149 9.91193C11.2053 9.89899 11.2149 9.88537 11.2293 9.87106C11.247 9.85063 11.275 9.81998 11.2764 9.76822C11.2791 9.7437 11.2764 9.71441 11.2723 9.67967C11.2614 9.58704 11.247 9.459 11.3256 9.3112C11.3761 9.21176 11.3788 9.11709 11.3829 9.01696C11.3857 8.91616 11.3911 8.81195 11.4458 8.69617L11.4547 8.70025C11.4028 8.814 11.3973 8.91752 11.3952 9.01765C11.3911 9.11777 11.3857 9.21585 11.3365 9.31529C11.2586 9.45968 11.275 9.58841 11.2839 9.67967C11.2866 9.71441 11.2894 9.7437 11.2894 9.76958C11.2839 9.82475 11.2559 9.85608 11.2375 9.87787C11.2245 9.89354 11.2204 9.89899 11.2245 9.90444C11.2696 9.89899 11.3215 9.85472 11.344 9.76345C11.3536 9.72395 11.3536 9.68853 11.3508 9.65039C11.3454 9.5741 11.344 9.48897 11.4267 9.32618C11.4895 9.20495 11.4963 9.11709 11.5018 9.03263C11.5073 8.94477 11.5148 8.86167 11.579 8.75065C11.5243 8.86576 11.5189 8.94681 11.512 9.03263C11.5073 9.11777 11.4991 9.20903 11.4376 9.33095C11.3563 9.49169 11.359 9.57615 11.3604 9.64902C11.3631 9.68921 11.3631 9.72463 11.3536 9.76754C11.331 9.85608 11.2819 9.90852 11.2443 9.91806L11.2402 9.91874Z" fill="#7A361D"/>
<path fill-rule="evenodd" clip-rule="evenodd" d="M11.4799 8.7561C11.3975 8.98427 11.4826 9.13479 11.3737 9.32891C11.4942 9.18996 11.4145 9.01152 11.5187 8.77517L11.4799 8.7561Z" fill="#7A361D"/>
<path fill-rule="evenodd" clip-rule="evenodd" d="M11.7121 8.10963L11.6426 6.29314C11.6426 6.29314 11.6426 6.25977 11.6215 6.25977C11.599 6.25977 11.599 6.29314 11.599 6.29314L11.5295 8.10963H11.7121Z" fill="#F1BD51"/>
<path fill-rule="evenodd" clip-rule="evenodd" d="M11.7067 8.11165L11.6372 6.2938C11.6372 6.2938 11.6372 6.26451 11.6215 6.26451C11.6031 6.26451 11.6031 6.29311 11.6031 6.29311L11.5364 8.11165L11.5936 6.29311C11.5936 6.27881 11.599 6.25293 11.6215 6.25293C11.6426 6.25293 11.6508 6.27881 11.6508 6.29311L11.7203 8.10961L11.7067 8.11165Z" fill="#7A361D"/>
<path fill-rule="evenodd" clip-rule="evenodd" d="M11.6655 8.10962L11.6219 6.86389L11.5763 8.10962H11.6655Z" fill="#7A361D"/>
<path fill-rule="evenodd" clip-rule="evenodd" d="M11.7938 7.52295C11.8977 7.29546 11.8082 7.10884 11.9127 6.9086C12.0193 6.70836 11.9523 6.54421 11.9578 6.45294C11.966 6.36168 12.0418 6.3358 12.022 6.314C12.0049 6.29289 11.9257 6.3358 11.8936 6.45635C11.8635 6.57759 11.938 6.64842 11.8109 6.89362C11.6859 7.13813 11.787 7.24847 11.6606 7.46778L11.7938 7.52295Z" fill="#F1BD51"/>
<path fill-rule="evenodd" clip-rule="evenodd" d="M11.7993 7.5256L11.7898 7.52152C11.841 7.40845 11.8431 7.30561 11.8485 7.20549C11.8513 7.10332 11.8567 7.00661 11.9086 6.9058C11.9824 6.76141 11.9701 6.63677 11.9578 6.54346C11.9578 6.50804 11.953 6.47671 11.9558 6.45287C11.9578 6.39634 11.9872 6.36501 12.0049 6.3439C12.0193 6.32755 12.022 6.32142 12.0193 6.31801C11.9756 6.32074 11.9237 6.36569 11.9004 6.45764C11.8888 6.49919 11.8916 6.5346 11.8943 6.57138C11.897 6.64767 11.9004 6.73212 11.8164 6.89559C11.7556 7.01682 11.7474 7.10536 11.742 7.1905C11.7351 7.27768 11.7297 7.35941 11.6661 7.46975C11.7181 7.35533 11.7249 7.27428 11.7297 7.18846C11.7365 7.10264 11.742 7.01478 11.8062 6.89014C11.8888 6.73144 11.8861 6.6463 11.8806 6.57138C11.8806 6.5346 11.8779 6.49714 11.8888 6.45628C11.9127 6.35752 11.9674 6.3112 11.9995 6.30439L12.0022 6.30371L12.0275 6.3112C12.0398 6.32278 12.0275 6.3364 12.0138 6.35071C11.9981 6.37114 11.9674 6.40179 11.966 6.45287C11.9633 6.47807 11.966 6.50804 11.9701 6.5421C11.9797 6.63677 11.9954 6.76413 11.9182 6.91125C11.8663 7.00933 11.8635 7.10536 11.8594 7.20549C11.8567 7.30629 11.8513 7.41118 11.7993 7.5256Z" fill="#7A361D"/>
<path fill-rule="evenodd" clip-rule="evenodd" d="M11.7643 7.46512C11.8481 7.23831 11.7589 7.08643 11.8706 6.89368C11.75 7.03194 11.827 7.21039 11.7228 7.44537L11.7643 7.46512Z" fill="#7A361D"/>
<path fill-rule="evenodd" clip-rule="evenodd" d="M11.6216 8.01978L9.79778 8.0872C9.79778 8.0872 9.76294 8.0872 9.76294 8.10968C9.76294 8.1342 9.79778 8.1342 9.79778 8.1342L11.6216 8.20231V8.01978Z" fill="#F1BD51"/>
<path fill-rule="evenodd" clip-rule="evenodd" d="M11.623 8.19669L9.79785 8.1388C9.78623 8.1388 9.75891 8.13335 9.75891 8.10951C9.75891 8.08908 9.78623 8.08295 9.79785 8.08295L11.6217 8.01416L11.623 8.02574L9.79785 8.09385C9.79785 8.09385 9.76847 8.09385 9.76847 8.10951C9.76847 8.1279 9.79785 8.1279 9.79785 8.1279L11.623 8.19669Z" fill="#7A361D"/>
<path fill-rule="evenodd" clip-rule="evenodd" d="M11.6218 8.06506L10.3704 8.10933L11.6218 8.15633V8.06506Z" fill="#7A361D"/>
<path fill-rule="evenodd" clip-rule="evenodd" d="M11.032 7.93936C10.8038 7.83447 10.616 7.92369 10.4172 7.81948C10.2143 7.71596 10.0504 7.78134 9.95679 7.77453C9.86594 7.76636 9.84067 7.69144 9.81813 7.71119C9.79764 7.7289 9.84067 7.80791 9.96226 7.83856C10.0845 7.8692 10.1542 7.79701 10.3994 7.92165C10.6453 8.04833 10.7574 7.94821 10.9773 8.07353L11.032 7.93936Z" fill="#F1BD51"/>
<path fill-rule="evenodd" clip-rule="evenodd" d="M10.9797 8.06776C10.865 8.01668 10.7809 8.00987 10.6969 8.00237C10.6102 7.99692 10.5207 7.99011 10.3964 7.92677C10.2365 7.84504 10.1525 7.84776 10.078 7.85117C10.0377 7.85389 10.0029 7.85457 9.96192 7.84368C9.8697 7.8212 9.81779 7.7708 9.80959 7.7347L9.80823 7.73061L9.81506 7.70678C9.83077 7.69384 9.84306 7.70678 9.85741 7.71972C9.87517 7.73811 9.90727 7.76535 9.95919 7.76876C9.98036 7.77012 10.0138 7.76671 10.0459 7.76263C10.1402 7.75309 10.2714 7.73811 10.4196 7.81439C10.5193 7.86615 10.6129 7.87092 10.714 7.87365C10.8158 7.87637 10.9169 7.88114 11.0344 7.93358L11.0316 7.94448C10.9141 7.89204 10.813 7.88863 10.714 7.88454C10.6102 7.88114 10.5138 7.87909 10.4128 7.82529C10.2686 7.74969 10.1402 7.76399 10.0487 7.77421C10.0138 7.77829 9.9831 7.78102 9.95646 7.77897C9.90181 7.77489 9.8697 7.74696 9.8499 7.72789C9.83487 7.71563 9.82804 7.71154 9.82326 7.71563C9.82804 7.76058 9.8697 7.80962 9.96465 7.83278C10.0029 7.84232 10.0377 7.84163 10.078 7.84027C10.1525 7.83687 10.2393 7.83278 10.4018 7.91655C10.5234 7.97922 10.6129 7.98535 10.6969 7.99216C10.7837 7.99829 10.8677 8.00442 10.9797 8.06776Z" fill="#7A361D"/>
<path fill-rule="evenodd" clip-rule="evenodd" d="M10.9746 7.9673C10.7464 7.88761 10.5955 7.97275 10.3994 7.86377C10.5381 7.98501 10.7198 7.90464 10.9548 8.01021L10.9746 7.9673Z" fill="#7A361D"/>
<path fill-rule="evenodd" clip-rule="evenodd" d="M11.6217 8.20207L13.4455 8.13396C13.4455 8.13396 13.479 8.13396 13.479 8.10944C13.479 8.08696 13.4455 8.08696 13.4455 8.08696L11.6217 8.01953V8.20207Z" fill="#F1BD51"/>
<path fill-rule="evenodd" clip-rule="evenodd" d="M11.6231 8.20873L11.6217 8.19647L13.4455 8.12836C13.4455 8.12836 13.4735 8.12836 13.4735 8.10929C13.4735 8.09362 13.4455 8.09362 13.4455 8.09362L11.6217 8.02551L13.4455 8.08273C13.4578 8.08273 13.4831 8.08885 13.4831 8.10929C13.4831 8.13381 13.4578 8.13858 13.4455 8.13858L11.6231 8.20873Z" fill="#7A361D"/>
<path fill-rule="evenodd" clip-rule="evenodd" d="M11.6217 8.15609L12.8731 8.10977L11.6217 8.06482V8.15609Z" fill="#7A361D"/>
<path fill-rule="evenodd" clip-rule="evenodd" d="M12.21 8.28254C12.4408 8.38675 12.6287 8.29685 12.8288 8.40242C13.0276 8.50731 13.1929 8.44056 13.2851 8.44873C13.376 8.45554 13.4013 8.52978 13.4238 8.51071C13.4457 8.49232 13.4013 8.41331 13.2797 8.38266C13.1588 8.35338 13.0864 8.42626 12.8439 8.30025C12.5966 8.17493 12.4846 8.27505 12.2673 8.14905L12.21 8.28254Z" fill="#F1BD51"/>
<path fill-rule="evenodd" clip-rule="evenodd" d="M13.416 8.52C13.4064 8.52 13.3961 8.51182 13.3866 8.50297C13.3668 8.48458 13.3374 8.45802 13.2855 8.45461C13.2595 8.45189 13.2308 8.45529 13.196 8.46006C13.0997 8.47028 12.9733 8.48322 12.8265 8.40693C12.7247 8.35517 12.6318 8.35176 12.5286 8.34768C12.4275 8.34495 12.323 8.34019 12.2069 8.28706L12.2124 8.27752C12.3258 8.32929 12.4275 8.33337 12.5286 8.33678C12.6318 8.34087 12.7274 8.34495 12.8319 8.39672C12.9754 8.473 13.1011 8.45802 13.1933 8.44848C13.2308 8.44508 13.2595 8.44099 13.2855 8.44371C13.3401 8.4478 13.3722 8.47504 13.3934 8.49343C13.4105 8.50774 13.416 8.5091 13.4187 8.50706C13.416 8.46346 13.3722 8.41306 13.28 8.39059C13.2384 8.37969 13.2035 8.38037 13.1666 8.38173C13.0888 8.3865 13.0047 8.39059 12.8408 8.30613C12.7185 8.24415 12.6318 8.23734 12.5478 8.23121C12.4596 8.22372 12.377 8.21827 12.2643 8.15356C12.3777 8.20669 12.4596 8.21214 12.5478 8.21963C12.6318 8.22576 12.7206 8.23325 12.8463 8.2966C13.0047 8.37833 13.0888 8.37424 13.1666 8.37015C13.2035 8.36879 13.2397 8.36675 13.2828 8.37833C13.3784 8.40217 13.4255 8.45733 13.433 8.48798V8.49139L13.4255 8.51523C13.4242 8.51931 13.4214 8.52 13.416 8.52Z" fill="#7A361D"/>
<path fill-rule="evenodd" clip-rule="evenodd" d="M12.2676 8.25322C12.4971 8.33563 12.6494 8.25049 12.8441 8.35811C12.7054 8.23823 12.5251 8.31792 12.2888 8.21167L12.2676 8.25322Z" fill="#7A361D"/>
<path fill-rule="evenodd" clip-rule="evenodd" d="M11.5565 8.04639L10.316 9.38066C10.316 9.38066 10.2928 9.4045 10.3092 9.42153C10.3235 9.43583 10.3475 9.41199 10.3475 9.41199L11.6856 8.17443L11.5565 8.04639Z" fill="#F1BD51"/>
<path fill-rule="evenodd" clip-rule="evenodd" d="M10.321 9.43253C10.2889 9.40938 10.3039 9.38554 10.3114 9.376L11.5526 8.04309L11.5614 8.05058L10.321 9.38418C10.3182 9.38418 10.3012 9.40461 10.3114 9.41619C10.3237 9.42981 10.3463 9.40801 10.3463 9.40801L11.683 8.17182L10.3531 9.41687C10.3531 9.41687 10.3381 9.43185 10.321 9.43253Z" fill="#7A361D"/>
<path fill-rule="evenodd" clip-rule="evenodd" d="M11.5883 8.07837L10.7372 8.99309L11.6552 8.14307L11.5883 8.07837Z" fill="#7A361D"/>
<path fill-rule="evenodd" clip-rule="evenodd" d="M11.0829 8.40491C10.8452 8.49209 10.7762 8.68893 10.5637 8.75567C10.3465 8.82378 10.2768 8.9852 10.2079 9.04514C10.1382 9.10508 10.0665 9.07034 10.0637 9.09963C10.0637 9.12687 10.1477 9.15207 10.257 9.08737C10.3622 9.02403 10.3595 8.92186 10.6225 8.83809C10.8882 8.75363 10.8937 8.60515 11.1389 8.54045L11.0829 8.40491Z" fill="#F1BD51"/>
<path fill-rule="evenodd" clip-rule="evenodd" d="M10.1247 9.13399C10.1035 9.13399 10.0844 9.12922 10.0728 9.12241L10.0577 9.09925C10.0577 9.08086 10.0755 9.08018 10.0953 9.0795C10.1219 9.07677 10.1623 9.07405 10.2019 9.04068C10.2224 9.02569 10.2394 9.00253 10.2579 8.97597C10.318 8.90173 10.3993 8.80025 10.5612 8.74985C10.6677 8.71647 10.7381 8.65245 10.8105 8.58366C10.8849 8.51487 10.9628 8.44403 11.081 8.40112L11.0851 8.41066C10.969 8.45425 10.8931 8.52372 10.8187 8.59183C10.7436 8.66198 10.6746 8.72669 10.5639 8.76006C10.4075 8.8091 10.3248 8.91059 10.2688 8.9821C10.2463 9.01003 10.2285 9.03318 10.2101 9.04885C10.167 9.08563 10.1247 9.08903 10.0953 9.09176C10.0782 9.09176 10.0687 9.09176 10.0687 9.09925C10.1062 9.12717 10.1725 9.13058 10.2517 9.08358C10.2886 9.06179 10.3112 9.03523 10.3378 9.0073C10.3877 8.95281 10.4478 8.88879 10.6226 8.83294C10.7517 8.79071 10.8187 8.73282 10.8822 8.67901C10.9492 8.62112 11.012 8.56731 11.1384 8.53394C11.0188 8.57821 10.9574 8.62997 10.8904 8.68718C10.8262 8.74303 10.7599 8.80093 10.6247 8.84316C10.4539 8.89833 10.3965 8.96031 10.346 9.01547C10.3207 9.0434 10.2955 9.06996 10.2579 9.09176C10.2073 9.12241 10.1623 9.13399 10.1247 9.13399Z" fill="#7A361D"/>
<path fill-rule="evenodd" clip-rule="evenodd" d="M11.0613 8.4668C10.8427 8.56964 10.7956 8.73651 10.5839 8.79713C10.7662 8.78419 10.8359 8.60165 11.0784 8.51039L11.0613 8.4668Z" fill="#7A361D"/>
<path fill-rule="evenodd" clip-rule="evenodd" d="M11.6857 8.17487L12.9262 6.84264C12.9262 6.84264 12.9508 6.81812 12.9358 6.80109C12.9187 6.78543 12.8948 6.80859 12.8948 6.80859L11.5566 8.04682L11.6857 8.17487Z" fill="#F1BD51"/>
<path fill-rule="evenodd" clip-rule="evenodd" d="M11.69 8.17869L11.6832 8.17324L12.9244 6.83829C12.9244 6.83761 12.9414 6.81785 12.9305 6.80491C12.9189 6.7947 12.8991 6.81241 12.8991 6.81241L11.5596 8.05064L12.8923 6.80423C12.8991 6.79606 12.9244 6.78176 12.9387 6.79742C12.9537 6.81377 12.9387 6.83556 12.9305 6.8451L11.69 8.17869Z" fill="#7A361D"/>
<path fill-rule="evenodd" clip-rule="evenodd" d="M11.6551 8.14292L12.5076 7.22888L11.5881 8.07821L11.6551 8.14292Z" fill="#7A361D"/>
<path fill-rule="evenodd" clip-rule="evenodd" d="M12.1605 7.81695C12.3955 7.72909 12.4645 7.53361 12.681 7.46618C12.8955 7.39943 12.9679 7.23597 13.0369 7.17672C13.1065 7.11746 13.1783 7.1522 13.1783 7.12291C13.181 7.09498 13.097 7.0691 12.9877 7.13449C12.8784 7.19919 12.8811 7.29931 12.6195 7.38445C12.3565 7.46891 12.3483 7.61807 12.1058 7.68413L12.1605 7.81695Z" fill="#F1BD51"/>
<path fill-rule="evenodd" clip-rule="evenodd" d="M12.1605 7.82223L12.1577 7.81202C12.2752 7.76911 12.3483 7.69759 12.4235 7.63084C12.4966 7.56069 12.569 7.49531 12.681 7.46125C12.834 7.41289 12.9153 7.31413 12.9727 7.24057C12.9959 7.21197 13.0143 7.18881 13.0341 7.17178C13.0744 7.13637 13.1182 7.13364 13.1462 7.1316C13.1667 7.13024 13.1728 7.12887 13.1728 7.12343C13.1387 7.0955 13.0717 7.09141 12.9904 7.13909C12.9556 7.15952 12.9303 7.18677 12.9064 7.21333C12.8545 7.26986 12.7944 7.33252 12.6209 7.3911C12.4897 7.43196 12.4235 7.48781 12.3579 7.54366C12.2909 7.60088 12.2302 7.65536 12.1058 7.68874C12.2247 7.64583 12.2875 7.59202 12.3511 7.53481C12.4153 7.47896 12.4849 7.42243 12.6195 7.3802C12.7903 7.32367 12.8463 7.26101 12.8955 7.2072C12.9235 7.17859 12.9474 7.15271 12.985 7.12887C13.0649 7.08188 13.1359 7.0812 13.1694 7.09959L13.1851 7.12479C13.1824 7.14045 13.1667 7.14181 13.1462 7.14386C13.1209 7.14454 13.0799 7.14726 13.0423 7.18064C13.0225 7.19698 13.0048 7.21946 12.9822 7.2467C12.9235 7.32231 12.8408 7.42311 12.6837 7.47079C12.5737 7.50416 12.5048 7.57091 12.4303 7.63834C12.3565 7.70713 12.2793 7.77864 12.1605 7.82223Z" fill="#7A361D"/>
<path fill-rule="evenodd" clip-rule="evenodd" d="M12.1808 7.75512C12.4008 7.65159 12.4479 7.48472 12.6611 7.42615C12.4787 7.43773 12.4063 7.62026 12.1665 7.71153L12.1808 7.75512Z" fill="#7A361D"/>
<path fill-rule="evenodd" clip-rule="evenodd" d="M11.686 8.04643L10.3478 6.80887C10.3478 6.80887 10.3239 6.78504 10.3089 6.80138C10.2932 6.81773 10.3157 6.84225 10.3157 6.84225L11.5569 8.17448L11.686 8.04643Z" fill="#F1BD51"/>
<path fill-rule="evenodd" clip-rule="evenodd" d="M11.5618 8.17349L10.3118 6.84534C10.3036 6.83581 10.2893 6.81401 10.3063 6.79767C10.3214 6.782 10.3439 6.7963 10.3528 6.80448L11.6896 8.04272L11.6834 8.05021L10.3466 6.81333C10.3466 6.81333 10.3241 6.79494 10.3118 6.80516C10.3009 6.8181 10.3186 6.83785 10.3214 6.83785L11.5618 8.17349Z" fill="#7A361D"/>
<path fill-rule="evenodd" clip-rule="evenodd" d="M11.6552 8.07833L10.7372 7.229L11.5883 8.14304L11.6552 8.07833Z" fill="#7A361D"/>
<path fill-rule="evenodd" clip-rule="evenodd" d="M11.3254 7.57485C11.24 7.33851 11.044 7.2704 10.9743 7.05517C10.9081 6.83858 10.7462 6.76979 10.6854 6.69964C10.6253 6.63016 10.6594 6.55933 10.6301 6.55729C10.6021 6.55524 10.5781 6.64174 10.6396 6.74868C10.7066 6.85561 10.8077 6.85356 10.893 7.11579C10.9771 7.37733 11.1253 7.38618 11.1922 7.63002L11.3254 7.57485Z" fill="#F1BD51"/>
<path fill-rule="evenodd" clip-rule="evenodd" d="M11.1974 7.62804C11.1523 7.50884 11.1011 7.44754 11.0437 7.38148C10.9863 7.31677 10.9303 7.24798 10.8879 7.11789C10.8306 6.94557 10.7691 6.88904 10.7144 6.83864C10.6851 6.81344 10.6571 6.78892 10.6359 6.75146C10.586 6.66564 10.5901 6.59413 10.6079 6.56756L10.6332 6.55054C10.6475 6.55258 10.6502 6.56961 10.6502 6.59004C10.653 6.61592 10.6557 6.65611 10.6878 6.69561C10.7035 6.714 10.7288 6.73375 10.7568 6.75555C10.8306 6.81412 10.9303 6.89381 10.9802 7.05319C11.0143 7.16012 11.0785 7.22891 11.1482 7.30315C11.2145 7.37671 11.2869 7.45367 11.3333 7.57219L11.3217 7.57627C11.2787 7.46049 11.2083 7.38352 11.1386 7.31064C11.0696 7.2364 11.0041 7.16489 10.9692 7.05523C10.92 6.90198 10.821 6.8223 10.7493 6.76372C10.7226 6.74124 10.6974 6.72217 10.6796 6.70378C10.6448 6.66088 10.6427 6.61865 10.64 6.59072C10.6373 6.57097 10.6373 6.56348 10.6304 6.5628C10.6024 6.59685 10.5983 6.6636 10.6448 6.74601C10.668 6.78211 10.6946 6.80459 10.7226 6.83047C10.7759 6.88155 10.8415 6.94013 10.8989 7.11381C10.9371 7.24321 10.9972 7.30996 11.0505 7.37535C11.1079 7.44073 11.1625 7.50271 11.1974 7.62804Z" fill="#7A361D"/>
<path fill-rule="evenodd" clip-rule="evenodd" d="M11.2656 7.55357C11.1594 7.33494 10.9918 7.28862 10.9319 7.07544C10.9448 7.25729 11.1301 7.32881 11.2193 7.56924L11.2656 7.55357Z" fill="#7A361D"/>
<path fill-rule="evenodd" clip-rule="evenodd" d="M11.5562 8.1748L12.8943 9.41168C12.8943 9.41168 12.9182 9.4362 12.936 9.42121C12.9503 9.40486 12.9264 9.38103 12.9264 9.38103L11.6853 8.04675L11.5562 8.1748Z" fill="#F1BD51"/>
<path fill-rule="evenodd" clip-rule="evenodd" d="M12.9211 9.42519C12.9013 9.42519 12.8918 9.41633 12.8918 9.41565L11.5522 8.18014L11.5591 8.17197L12.8986 9.40816C12.8986 9.40816 12.9184 9.42996 12.9307 9.41565C12.9409 9.40476 12.9239 9.38364 12.9239 9.38364L11.6834 8.05005L12.9307 9.37615C12.9409 9.38705 12.9532 9.40952 12.9382 9.42383C12.9334 9.42519 12.9293 9.42519 12.9211 9.42519Z" fill="#7A361D"/>
<path fill-rule="evenodd" clip-rule="evenodd" d="M11.5881 8.14283L12.5076 8.99284L11.6551 8.07812L11.5881 8.14283Z" fill="#7A361D"/>
<path fill-rule="evenodd" clip-rule="evenodd" d="M11.915 8.64911C12.0045 8.88409 12.2006 8.95152 12.2675 9.16811C12.3338 9.38266 12.497 9.45349 12.5565 9.5216C12.6193 9.59243 12.5824 9.66327 12.6118 9.66532C12.6384 9.66599 12.6664 9.58222 12.6009 9.47392C12.5366 9.36631 12.4355 9.36767 12.3515 9.10749C12.2648 8.84391 12.1152 8.83573 12.051 8.59326L11.915 8.64911Z" fill="#F1BD51"/>
<path fill-rule="evenodd" clip-rule="evenodd" d="M12.6117 9.67006C12.5946 9.67006 12.5946 9.65167 12.5919 9.63124C12.5891 9.60536 12.5864 9.56585 12.5543 9.52567C12.5372 9.50796 12.5154 9.48821 12.4874 9.46777C12.4129 9.4092 12.3118 9.32883 12.2619 9.16877C12.2298 9.06184 12.1636 8.99237 12.0939 8.91813C12.0276 8.84389 11.9552 8.76828 11.9102 8.65045L11.9204 8.64569C11.9662 8.76215 12.0338 8.83708 12.1035 8.91063C12.1725 8.98624 12.2408 9.05639 12.2729 9.16605C12.3221 9.32134 12.4238 9.40034 12.4942 9.4596C12.5222 9.4814 12.5475 9.4991 12.5625 9.51954C12.598 9.56108 12.6007 9.60331 12.6007 9.63056C12.6035 9.65303 12.6062 9.65848 12.6117 9.65848C12.6411 9.62375 12.6465 9.55768 12.5973 9.47731C12.5741 9.44121 12.5502 9.41669 12.5222 9.39081C12.4648 9.34041 12.4033 9.28183 12.346 9.10883C12.305 8.97874 12.2476 8.91268 12.1902 8.84661C12.1342 8.78054 12.0796 8.71856 12.0475 8.5946C12.0884 8.71312 12.141 8.7751 12.2005 8.84048C12.2544 8.90519 12.3139 8.97261 12.3569 9.10543C12.4115 9.2757 12.4757 9.33292 12.529 9.38264C12.557 9.4092 12.585 9.43304 12.6062 9.4705C12.654 9.55155 12.6554 9.62238 12.6356 9.65508L12.6117 9.67006Z" fill="#7A361D"/>
<path fill-rule="evenodd" clip-rule="evenodd" d="M11.9781 8.66836C12.0803 8.88699 12.2492 8.93262 12.3092 9.14649C12.2962 8.96327 12.1137 8.89312 12.0217 8.65405L11.9781 8.66836Z" fill="#7A361D"/>
<path fill-rule="evenodd" clip-rule="evenodd" d="M11.5362 8.07568L10.9023 9.78252C10.9023 9.78252 10.8907 9.81385 10.9105 9.82134C10.9317 9.83088 10.9453 9.79955 10.9453 9.79955L11.7042 8.14652L11.5362 8.07568Z" fill="#F1BD51"/>
<path fill-rule="evenodd" clip-rule="evenodd" d="M10.9254 9.82768C10.8879 9.81815 10.8933 9.79295 10.8988 9.78001L11.5313 8.07385L11.5416 8.07862L10.9084 9.78409C10.9084 9.78477 10.8988 9.81134 10.9118 9.81679L10.9398 9.79635L11.7007 8.14332L10.9493 9.80248C10.9493 9.80248 10.9425 9.82087 10.9254 9.82768Z" fill="#7A361D"/>
<path fill-rule="evenodd" clip-rule="evenodd" d="M11.5817 8.09363L11.1425 9.26444L11.663 8.12836L11.5817 8.09363Z" fill="#7A361D"/>
<path fill-rule="evenodd" clip-rule="evenodd" d="M11.2377 8.5885C11.0533 8.75946 11.0642 8.96583 10.8907 9.1109C10.7172 9.2553 10.7145 9.43238 10.6721 9.51412C10.6305 9.59585 10.5519 9.59176 10.5615 9.61832C10.5703 9.64489 10.6598 9.63535 10.735 9.53523C10.8081 9.43443 10.7691 9.34043 10.9802 9.16267C11.1899 8.9849 11.1387 8.84528 11.3388 8.69067L11.2377 8.5885Z" fill="#F1BD51"/>
<path fill-rule="evenodd" clip-rule="evenodd" d="M10.5905 9.63616C10.5864 9.63616 10.5837 9.63616 10.581 9.63548L10.5557 9.6205C10.5489 9.60415 10.5666 9.59598 10.5837 9.58848C10.6076 9.57418 10.6452 9.55783 10.6677 9.5122C10.68 9.48904 10.6882 9.45976 10.6971 9.42638C10.7224 9.33716 10.7599 9.21388 10.8884 9.10763C10.9724 9.03543 11.012 8.94757 11.0564 8.8563C11.096 8.76503 11.1404 8.67104 11.2319 8.58386L11.2401 8.59272C11.1507 8.67717 11.1056 8.77048 11.0639 8.85971C11.0216 8.95438 10.9813 9.04156 10.8931 9.11376C10.7695 9.21933 10.7347 9.33988 10.7067 9.42979C10.6971 9.4652 10.6882 9.49449 10.6773 9.51697C10.6534 9.56601 10.6131 9.58576 10.5878 9.59666C10.5707 9.60619 10.5639 9.61028 10.5666 9.61641C10.6103 9.62935 10.6718 9.60755 10.7292 9.53195C10.7545 9.4979 10.7668 9.4652 10.7784 9.42979C10.8064 9.35827 10.8358 9.27858 10.9744 9.15939C11.0789 9.07153 11.1172 8.9932 11.1575 8.91624C11.1978 8.83859 11.2347 8.76503 11.3365 8.68671C11.2429 8.77116 11.208 8.84472 11.1684 8.92033C11.1281 8.99797 11.0885 9.07766 10.9813 9.16825C10.8453 9.28403 10.816 9.3644 10.7893 9.43319C10.7756 9.46929 10.764 9.50403 10.7388 9.53808C10.6882 9.60687 10.6254 9.63616 10.5905 9.63616Z" fill="#7A361D"/>
<path fill-rule="evenodd" clip-rule="evenodd" d="M11.2418 8.65369C11.0783 8.83213 11.1008 9.00445 10.925 9.14135C11.0899 9.0603 11.0851 8.86346 11.271 8.68842L11.2418 8.65369Z" fill="#7A361D"/>
<path fill-rule="evenodd" clip-rule="evenodd" d="M11.7044 8.14616L12.3424 6.44001C12.3424 6.44001 12.354 6.40936 12.3315 6.4005C12.3117 6.39165 12.2994 6.42298 12.2994 6.42298L11.5364 8.07533L11.7044 8.14616Z" fill="#F1BD51"/>
<path fill-rule="evenodd" clip-rule="evenodd" d="M11.7126 8.14686L11.7003 8.14345L12.3342 6.4373C12.3342 6.4373 12.3465 6.4121 12.3315 6.40529L12.3049 6.42504L11.5419 8.07807L12.2919 6.42095C12.2919 6.42095 12.3021 6.4012 12.3172 6.39575L12.3493 6.40801C12.3541 6.423 12.3465 6.4407 12.3465 6.44207L11.7126 8.14686Z" fill="#7A361D"/>
<path fill-rule="evenodd" clip-rule="evenodd" d="M11.6631 8.12826L12.1023 6.95813L11.5818 8.09352L11.6631 8.12826Z" fill="#7A361D"/>
<path fill-rule="evenodd" clip-rule="evenodd" d="M12.0075 7.63404C12.1906 7.46241 12.181 7.25535 12.3545 7.11164C12.528 6.96725 12.5294 6.79016 12.569 6.70775C12.6148 6.62602 12.6933 6.63147 12.6838 6.60422C12.6708 6.57698 12.5854 6.58651 12.5103 6.68595C12.4331 6.78744 12.4761 6.88075 12.265 7.05851C12.054 7.23696 12.1038 7.37727 11.9037 7.5312L12.0075 7.63404Z" fill="#F1BD51"/>
<path fill-rule="evenodd" clip-rule="evenodd" d="M12.0098 7.63872L12.0016 7.63055C12.0938 7.54541 12.1368 7.45278 12.1778 7.36084C12.2195 7.26752 12.2591 7.18034 12.3486 7.10747C12.4756 7.00326 12.5098 6.88066 12.5364 6.79212C12.5474 6.75806 12.5542 6.72809 12.5658 6.7063C12.5918 6.6559 12.6314 6.63683 12.6539 6.62525C12.6703 6.61571 12.6806 6.61163 12.6785 6.6055C12.6314 6.59324 12.5685 6.61503 12.5153 6.68995C12.4873 6.72333 12.4784 6.75806 12.462 6.79212C12.4381 6.86431 12.406 6.94537 12.2673 7.06388C12.1662 7.15106 12.1232 7.2287 12.0856 7.30567C12.0474 7.38331 12.0098 7.45755 11.9087 7.5352C11.9989 7.45006 12.0364 7.3765 12.0767 7.30022C12.1136 7.22325 12.1553 7.14356 12.2591 7.0557C12.3978 6.93924 12.4244 6.85887 12.4524 6.78939C12.4675 6.75193 12.4804 6.71788 12.505 6.68382C12.5597 6.60958 12.6232 6.57893 12.6635 6.58643L12.6874 6.60277C12.6929 6.61844 12.6785 6.62661 12.6608 6.63478C12.6355 6.64636 12.5979 6.66339 12.5767 6.71039C12.5638 6.73218 12.5569 6.76079 12.5474 6.79484C12.5221 6.88611 12.4845 7.00939 12.3568 7.11564C12.27 7.18716 12.2325 7.27434 12.1874 7.3656C12.1457 7.45755 12.1034 7.55222 12.0098 7.63872Z" fill="#7A361D"/>
<path fill-rule="evenodd" clip-rule="evenodd" d="M12.002 7.56952C12.1659 7.39108 12.1434 7.21808 12.3196 7.08118C12.1529 7.16291 12.1584 7.3577 11.9698 7.53479L12.002 7.56952Z" fill="#7A361D"/>
<path fill-rule="evenodd" clip-rule="evenodd" d="M11.655 8.02716L9.94453 7.39442C9.94453 7.39442 9.91379 7.38148 9.90422 7.40191C9.89808 7.42371 9.93018 7.43665 9.93018 7.43665L11.5866 8.19471L11.655 8.02716Z" fill="#F1BD51"/>
<path fill-rule="evenodd" clip-rule="evenodd" d="M11.5883 8.19073L9.92705 7.44153C9.91407 7.4354 9.8929 7.42041 9.89904 7.3993C9.90997 7.38023 9.93661 7.38295 9.94754 7.38908L11.658 8.02114L11.6552 8.03204L9.94481 7.3993C9.94208 7.3993 9.9168 7.3884 9.90997 7.40406C9.90451 7.42041 9.92978 7.43199 9.92978 7.43199L11.5883 8.19073Z" fill="#7A361D"/>
<path fill-rule="evenodd" clip-rule="evenodd" d="M11.6377 8.06966L10.4635 7.63171L11.6029 8.15344L11.6377 8.06966Z" fill="#7A361D"/>
<path fill-rule="evenodd" clip-rule="evenodd" d="M11.1427 7.72784C10.972 7.54326 10.7636 7.55484 10.6181 7.38116C10.474 7.20884 10.2984 7.20543 10.2144 7.16525C10.1325 7.12302 10.1379 7.04469 10.1099 7.05355C10.0833 7.06172 10.0901 7.15095 10.1939 7.22655C10.293 7.30147 10.3879 7.2606 10.5662 7.4697C10.7465 7.68084 10.8852 7.62976 11.0416 7.82864L11.1427 7.72784Z" fill="#F1BD51"/>
<path fill-rule="evenodd" clip-rule="evenodd" d="M11.044 7.8263C10.9573 7.73231 10.8856 7.69689 10.8077 7.65875C10.7291 7.61857 10.6506 7.57906 10.5611 7.47349C10.445 7.33727 10.3651 7.30799 10.2954 7.28211C10.2585 7.27053 10.2264 7.25622 10.1888 7.23102C10.1157 7.17517 10.085 7.10911 10.0905 7.07233L10.1075 7.04917C10.1219 7.04304 10.1328 7.05734 10.141 7.07573C10.1526 7.10025 10.1704 7.13635 10.2168 7.15951C10.2366 7.17041 10.266 7.17858 10.2981 7.18743C10.3903 7.214 10.5174 7.24941 10.6226 7.37882C10.6943 7.46396 10.7811 7.50278 10.8733 7.54569C10.9669 7.58656 11.0611 7.63083 11.1479 7.72414L11.139 7.73163C11.0536 7.64104 10.96 7.59677 10.8705 7.55523C10.7735 7.51232 10.6882 7.47145 10.613 7.38631C10.5092 7.25963 10.3849 7.22421 10.2954 7.19901C10.2612 7.18879 10.2339 7.18062 10.2114 7.17041C10.1622 7.14452 10.1424 7.10638 10.1301 7.08186C10.1219 7.06415 10.1185 7.0553 10.1103 7.0587C10.098 7.1023 10.1191 7.16496 10.197 7.22149C10.2319 7.24601 10.2633 7.25827 10.2981 7.27189C10.3705 7.29777 10.4518 7.32706 10.5707 7.46668C10.6574 7.57089 10.7373 7.60971 10.8132 7.64786C10.8931 7.68804 10.9669 7.7255 11.044 7.8263Z" fill="#7A361D"/>
<path fill-rule="evenodd" clip-rule="evenodd" d="M11.0789 7.73178C10.8986 7.57104 10.7251 7.59011 10.5878 7.41711C10.6691 7.58126 10.8658 7.57581 11.0441 7.76379L11.0789 7.73178Z" fill="#7A361D"/>
<path fill-rule="evenodd" clip-rule="evenodd" d="M11.5872 8.19477L13.2976 8.82751C13.2976 8.82751 13.327 8.84114 13.3379 8.81934C13.3468 8.79823 13.3147 8.78597 13.3147 8.78597L11.6555 8.02722L11.5872 8.19477Z" fill="#F1BD51"/>
<path fill-rule="evenodd" clip-rule="evenodd" d="M13.3177 8.83723C13.3081 8.83723 13.3033 8.83451 13.2951 8.83247L11.5847 8.20041L11.5888 8.19087L13.3006 8.82293C13.3006 8.82293 13.3245 8.83247 13.332 8.81748C13.3402 8.8025 13.3122 8.79092 13.3122 8.79092L11.6537 8.03149L13.3177 8.7807C13.33 8.78683 13.3525 8.80182 13.343 8.82157C13.3375 8.83315 13.3273 8.83723 13.3177 8.83723Z" fill="#7A361D"/>
<path fill-rule="evenodd" clip-rule="evenodd" d="M11.603 8.15348L12.7772 8.5887L11.6379 8.0697L11.603 8.15348Z" fill="#7A361D"/>
<path fill-rule="evenodd" clip-rule="evenodd" d="M12.0995 8.49474C12.273 8.67932 12.4813 8.66774 12.6241 8.84074C12.7689 9.01442 12.9451 9.01647 13.0278 9.05665C13.1118 9.09956 13.1043 9.17789 13.135 9.16835C13.1589 9.1595 13.1507 9.07027 13.0497 8.99467C12.9479 8.92043 12.857 8.96266 12.6787 8.75288C12.497 8.54242 12.357 8.59282 12.2033 8.39258L12.0995 8.49474Z" fill="#F1BD51"/>
<path fill-rule="evenodd" clip-rule="evenodd" d="M13.1294 9.17512C13.1157 9.17512 13.1096 9.16082 13.1014 9.14515C13.0891 9.12132 13.072 9.08522 13.0283 9.06206C13.0051 9.05048 12.9757 9.04299 12.9415 9.03277C12.852 9.00757 12.725 8.97147 12.6212 8.84411C12.5501 8.75897 12.46 8.7181 12.3691 8.67724C12.2769 8.63433 12.1806 8.59074 12.0966 8.49947L12.1034 8.4913C12.1874 8.58257 12.2824 8.62411 12.3746 8.66702C12.4675 8.70857 12.5542 8.74875 12.6294 8.83593C12.7332 8.96262 12.8575 8.99667 12.9449 9.02256C12.9798 9.03277 13.0078 9.04095 13.0303 9.05184C13.0802 9.07636 13.1 9.11519 13.1123 9.13971C13.1212 9.16082 13.1239 9.16422 13.1321 9.16218C13.1437 9.12063 13.1239 9.05661 13.0467 8.9994C13.0119 8.97556 12.9798 8.96262 12.9429 8.95104C12.8719 8.92516 12.7919 8.89519 12.6703 8.75625C12.585 8.65204 12.505 8.61253 12.4279 8.57439C12.3513 8.53489 12.2769 8.49743 12.2011 8.39526C12.2851 8.48857 12.3568 8.52467 12.4354 8.56486C12.5132 8.60232 12.5918 8.64318 12.6813 8.74875C12.7974 8.88497 12.876 8.91358 12.9477 8.94014C12.9852 8.95308 13.0173 8.96398 13.0522 8.99123C13.1348 9.05048 13.156 9.11995 13.1505 9.1506L13.1362 9.17376C13.1348 9.17444 13.1321 9.17512 13.1294 9.17512Z" fill="#7A361D"/>
<path fill-rule="evenodd" clip-rule="evenodd" d="M12.166 8.49012C12.3436 8.65222 12.5171 8.63043 12.6544 8.80683C12.5718 8.64201 12.3771 8.64609 12.2009 8.45947L12.166 8.49012Z" fill="#7A361D"/>
<path fill-rule="evenodd" clip-rule="evenodd" d="M11.5873 8.0271L9.93016 8.78584C9.93016 8.78584 9.89805 8.7981 9.90488 8.81922C9.91445 8.84101 9.94519 8.82739 9.94519 8.82739L11.6556 8.19465L11.5873 8.0271Z" fill="#F1BD51"/>
<path fill-rule="evenodd" clip-rule="evenodd" d="M9.92728 8.83725C9.91635 8.83725 9.90474 8.83316 9.89927 8.82158C9.89244 8.80183 9.91362 8.78617 9.92728 8.78072L11.5844 8.02197L11.5885 8.03151L9.93001 8.79093C9.93001 8.79093 9.90474 8.80251 9.9102 8.8175C9.91635 8.83316 9.94162 8.82295 9.94436 8.82295L11.6548 8.19089L9.94709 8.83248C9.94162 8.83452 9.93411 8.83725 9.92728 8.83725Z" fill="#7A361D"/>
<path fill-rule="evenodd" clip-rule="evenodd" d="M11.6029 8.0697L10.4635 8.5887L11.6377 8.15348L11.6029 8.0697Z" fill="#7A361D"/>
<path fill-rule="evenodd" clip-rule="evenodd" d="M11.0118 8.17743C10.7597 8.16789 10.621 8.3225 10.3943 8.30275C10.1702 8.28232 10.0432 8.40491 9.95641 8.4342C9.86693 8.46349 9.81501 8.40219 9.80272 8.42943C9.78837 8.45395 9.8601 8.51048 9.98305 8.49209C10.1074 8.47439 10.147 8.37971 10.4195 8.40083C10.6941 8.4233 10.7597 8.28845 11.0118 8.3225V8.17743Z" fill="#F1BD51"/>
<path fill-rule="evenodd" clip-rule="evenodd" d="M9.93642 8.50139C9.86333 8.50139 9.81756 8.47482 9.80322 8.45439L9.79639 8.42647C9.80595 8.4108 9.82029 8.41693 9.8401 8.42374C9.86538 8.43191 9.90431 8.44485 9.95076 8.42987C9.97672 8.42238 10.0034 8.40671 10.0341 8.39037C10.1181 8.34541 10.2288 8.28275 10.3941 8.29638C10.5061 8.30795 10.5983 8.27322 10.6912 8.2378C10.7862 8.20375 10.8825 8.16697 11.0116 8.17242V8.18331C10.89 8.17786 10.7889 8.21464 10.694 8.24802C10.6011 8.28412 10.5088 8.31681 10.3941 8.30795C10.2342 8.29297 10.1195 8.35427 10.0375 8.40126C10.0081 8.41693 9.98014 8.43055 9.95623 8.43941C9.90431 8.45575 9.86333 8.44349 9.83737 8.43396C9.81483 8.42647 9.80937 8.42647 9.80868 8.43055C9.83122 8.47142 9.88724 8.50071 9.98287 8.4864C10.0232 8.48027 10.058 8.46529 10.0901 8.4503C10.1591 8.41761 10.2363 8.38151 10.4194 8.39582C10.5553 8.40739 10.6393 8.37947 10.722 8.35291C10.806 8.32566 10.8852 8.29978 11.0116 8.31681C10.8798 8.31 10.8073 8.33724 10.7247 8.3638C10.642 8.39105 10.558 8.41761 10.4194 8.40671C10.239 8.39241 10.1618 8.42987 10.0949 8.45984C10.0607 8.47619 10.0286 8.49117 9.9856 8.49866C9.96852 8.49934 9.95076 8.50139 9.93642 8.50139Z" fill="#7A361D"/>
<path fill-rule="evenodd" clip-rule="evenodd" d="M10.9694 8.22534C10.7269 8.23828 10.621 8.37518 10.397 8.34794C10.5732 8.4072 10.7064 8.26553 10.9667 8.27302L10.9694 8.22534Z" fill="#7A361D"/>
<path fill-rule="evenodd" clip-rule="evenodd" d="M11.655 8.19471L13.3149 7.43665C13.3149 7.43665 13.347 7.42371 13.3374 7.40191C13.3265 7.38148 13.2971 7.39442 13.2971 7.39442L11.5867 8.02716L11.655 8.19471Z" fill="#F1BD51"/>
<path fill-rule="evenodd" clip-rule="evenodd" d="M11.6578 8.20078L11.6537 8.19057L13.3122 7.43182C13.3122 7.43182 13.3402 7.42024 13.332 7.4039C13.3238 7.38891 13.2999 7.39913 13.2999 7.39913L11.5881 8.03187L13.2945 7.38959C13.3081 7.38346 13.3348 7.38006 13.343 7.39913C13.3518 7.42024 13.3293 7.43523 13.3177 7.44204L11.6578 8.20078Z" fill="#7A361D"/>
<path fill-rule="evenodd" clip-rule="evenodd" d="M11.6379 8.15344L12.7772 7.63171L11.603 8.06966L11.6379 8.15344Z" fill="#7A361D"/>
<path fill-rule="evenodd" clip-rule="evenodd" d="M12.2325 8.0444C12.4819 8.05462 12.6233 7.89865 12.8487 7.91976C13.0741 7.94019 13.2012 7.81623 13.2865 7.78763C13.376 7.76038 13.4279 7.81896 13.4416 7.79308C13.4532 7.76856 13.3842 7.71134 13.2572 7.72905C13.1342 7.7488 13.0973 7.84211 12.822 7.82032C12.5474 7.79852 12.4819 7.93202 12.2325 7.89865V8.0444Z" fill="#F1BD51"/>
<path fill-rule="evenodd" clip-rule="evenodd" d="M12.2543 8.05044H12.2332V8.03886C12.3568 8.04295 12.4531 8.00822 12.5481 7.97348C12.6437 7.93738 12.7359 7.90469 12.8493 7.9149C13.0105 7.92853 13.1239 7.86723 13.2059 7.82159C13.2359 7.80457 13.2632 7.79026 13.2871 7.78209C13.3404 7.76506 13.3787 7.77937 13.4067 7.78822C13.4258 7.79571 13.434 7.79707 13.434 7.79094C13.4135 7.75212 13.3548 7.72215 13.2605 7.73441C13.2175 7.74122 13.1854 7.75485 13.1533 7.77187C13.0815 7.80457 13.0057 7.83998 12.8227 7.82568C12.6881 7.8141 12.6013 7.84203 12.5228 7.86927C12.4388 7.89583 12.3582 7.92172 12.2332 7.90537C12.3582 7.9115 12.436 7.88494 12.5173 7.85769C12.5986 7.83181 12.684 7.80457 12.8227 7.8141C13.003 7.82909 13.0802 7.79299 13.1471 7.76234C13.1813 7.74531 13.2161 7.72896 13.2578 7.7242C13.352 7.70921 13.419 7.73646 13.4415 7.76847L13.4456 7.79639C13.4388 7.8107 13.4217 7.80593 13.4019 7.79912C13.3766 7.79026 13.3404 7.77732 13.2899 7.79299C13.268 7.80116 13.24 7.8141 13.2106 7.83181C13.1266 7.87881 13.0146 7.94011 12.8466 7.92512C12.7359 7.9149 12.6464 7.94964 12.5522 7.98438C12.4627 8.01707 12.3718 8.05044 12.2543 8.05044Z" fill="#7A361D"/>
<path fill-rule="evenodd" clip-rule="evenodd" d="M12.2755 7.99517C12.5173 7.98427 12.6239 7.84737 12.8438 7.87325C12.6703 7.814 12.5344 7.95771 12.2769 7.95022L12.2755 7.99517Z" fill="#7A361D"/>
<path fill-rule="evenodd" clip-rule="evenodd" d="M11.7042 8.07568L10.9453 6.42265C10.9453 6.42265 10.9317 6.39132 10.9105 6.40085C10.8907 6.40971 10.9023 6.44036 10.9023 6.44036L11.5362 8.14651L11.7042 8.07568Z" fill="#F1BD51"/>
<path fill-rule="evenodd" clip-rule="evenodd" d="M11.5418 8.14357L10.899 6.44219C10.899 6.44083 10.8908 6.42312 10.8963 6.40881L10.9257 6.39587C10.9427 6.40132 10.9496 6.42107 10.9496 6.42107L11.7098 8.07342L11.7003 8.07819L10.9257 6.40064L10.912 6.40541L10.9079 6.43742L11.5418 8.14357Z" fill="#7A361D"/>
<path fill-rule="evenodd" clip-rule="evenodd" d="M11.663 8.09364L11.1425 6.95825L11.5817 8.12838L11.663 8.09364Z" fill="#7A361D"/>
<path fill-rule="evenodd" clip-rule="evenodd" d="M11.5557 7.50308C11.5652 7.25107 11.4106 7.11281 11.429 6.88873C11.4494 6.66397 11.3255 6.5366 11.2962 6.44942C11.2696 6.36156 11.3282 6.31116 11.3044 6.29754C11.2764 6.28596 11.2206 6.35407 11.2403 6.47803C11.2587 6.60335 11.3534 6.63877 11.3309 6.91393C11.3098 7.18841 11.4426 7.25176 11.4106 7.5024L11.5557 7.50308Z" fill="#F1BD51"/>
<path fill-rule="evenodd" clip-rule="evenodd" d="M11.5609 7.50304H11.5487C11.5528 7.3784 11.5174 7.28236 11.484 7.18837C11.4479 7.09165 11.4131 7.00243 11.4227 6.88801C11.437 6.72454 11.3764 6.6142 11.3307 6.53315C11.3137 6.50114 11.2987 6.47458 11.2912 6.45278C11.2762 6.39898 11.2899 6.35879 11.2987 6.33223C11.3042 6.31316 11.3069 6.30567 11.3014 6.30294C11.2592 6.32474 11.2327 6.38331 11.2442 6.47662C11.2524 6.51885 11.2667 6.55086 11.2817 6.58492C11.3137 6.65439 11.3505 6.73135 11.3362 6.91389C11.3253 7.04943 11.3532 7.1332 11.3784 7.21357C11.405 7.29735 11.4322 7.37567 11.4145 7.50236C11.42 7.37635 11.3948 7.29939 11.3682 7.21698C11.3416 7.13524 11.3137 7.05079 11.3239 6.91321C11.3389 6.7334 11.3042 6.65711 11.2722 6.58968C11.2565 6.55495 11.2402 6.52294 11.2347 6.48003C11.2204 6.38672 11.247 6.32065 11.2762 6.29817L11.3069 6.29272C11.3212 6.29954 11.3164 6.31656 11.3096 6.33631C11.2987 6.36152 11.2871 6.39966 11.3014 6.44802C11.3096 6.47117 11.3253 6.49705 11.3416 6.5277C11.3852 6.60944 11.4492 6.72318 11.4343 6.88937C11.4254 7.00039 11.4574 7.09029 11.4942 7.18496C11.5289 7.27896 11.565 7.37635 11.5609 7.50304Z" fill="#7A361D"/>
<path fill-rule="evenodd" clip-rule="evenodd" d="M11.5064 7.46044C11.4942 7.21865 11.3586 7.11172 11.3825 6.89172C11.3239 7.0654 11.4662 7.20094 11.4601 7.4584L11.5064 7.46044Z" fill="#7A361D"/>
<path fill-rule="evenodd" clip-rule="evenodd" d="M11.5364 8.14615L12.2994 9.79986C12.2994 9.79986 12.3117 9.83119 12.3315 9.82166C12.354 9.81348 12.3424 9.78215 12.3424 9.78215L11.7044 8.07532L11.5364 8.14615Z" fill="#F1BD51"/>
<path fill-rule="evenodd" clip-rule="evenodd" d="M12.3343 9.82755C12.3022 9.82074 12.292 9.80235 12.292 9.80235L11.531 8.14796L11.5419 8.1432L12.3049 9.79622C12.3049 9.79622 12.3172 9.82415 12.3316 9.81666C12.3466 9.81121 12.3343 9.78464 12.3343 9.78396L11.7004 8.07849L12.3466 9.77988C12.3514 9.79282 12.3568 9.81802 12.3343 9.82755Z" fill="#7A361D"/>
<path fill-rule="evenodd" clip-rule="evenodd" d="M11.5818 8.12824L12.1023 9.26432L11.6631 8.09351L11.5818 8.12824Z" fill="#7A361D"/>
<path fill-rule="evenodd" clip-rule="evenodd" d="M11.6883 8.71887C11.6774 8.9702 11.8334 9.10914 11.8136 9.3339C11.7932 9.55731 11.9171 9.68399 11.9437 9.77389C11.9744 9.86108 11.9117 9.91216 11.9396 9.9251C11.9648 9.93736 12.0207 9.86721 12.0036 9.74325C11.9839 9.61997 11.8906 9.58319 11.9117 9.30802C11.9342 9.03558 11.8014 8.9702 11.8334 8.72092L11.6883 8.71887Z" fill="#F1BD51"/>
<path fill-rule="evenodd" clip-rule="evenodd" d="M11.9372 9.93079C11.9202 9.92262 11.9277 9.90491 11.9345 9.88788C11.9427 9.86132 11.957 9.82386 11.9399 9.77482C11.9318 9.7503 11.9175 9.72442 11.8997 9.69309C11.8562 9.61136 11.7935 9.49829 11.8058 9.33279C11.816 9.22177 11.784 9.13322 11.7499 9.03787C11.7152 8.9432 11.675 8.84512 11.6804 8.71912L11.6927 8.7198C11.6886 8.84376 11.7247 8.94115 11.7588 9.03446C11.7962 9.12914 11.8282 9.22041 11.8187 9.33415C11.8044 9.49489 11.8657 9.60727 11.9093 9.68968C11.9277 9.71965 11.9427 9.74621 11.9495 9.77141C11.9665 9.82386 11.9542 9.86268 11.944 9.89061C11.9372 9.90968 11.9372 9.91649 11.9427 9.91989C11.9808 9.8981 12.0114 9.83884 11.9971 9.74417C11.9917 9.7033 11.9774 9.67129 11.9597 9.63656C11.9304 9.56845 11.8936 9.4908 11.9079 9.30827C11.9175 9.17273 11.8909 9.09032 11.863 9.00858C11.8364 8.92481 11.8105 8.84648 11.8269 8.7198C11.8214 8.84512 11.848 8.92345 11.8745 9.00518C11.8997 9.08691 11.9304 9.17205 11.9175 9.30895C11.9025 9.48876 11.9399 9.56572 11.9692 9.63315C11.9862 9.66721 12.0012 9.6999 12.0087 9.74349C12.021 9.83544 11.9944 9.90082 11.9651 9.92466L11.9372 9.93079Z" fill="#7A361D"/>
<path fill-rule="evenodd" clip-rule="evenodd" d="M11.7366 8.76208C11.7502 9.00319 11.8857 9.11081 11.8592 9.3308C11.9177 9.15576 11.7768 9.02158 11.7842 8.76549L11.7366 8.76208Z" fill="#7A361D"/>
<path fill-rule="evenodd" clip-rule="evenodd" d="M11.6218 7.37061C12.033 7.37061 12.3636 7.70094 12.3636 8.1096C12.3636 8.51962 12.033 8.85132 11.6218 8.85132C11.2092 8.85132 10.8772 8.51962 10.8772 8.1096C10.8772 7.70094 11.2092 7.37061 11.6218 7.37061Z" fill="#F1BD51"/>
<path fill-rule="evenodd" clip-rule="evenodd" d="M11.6219 7.37596C11.2148 7.37596 10.8829 7.70561 10.8829 8.1095C10.8829 8.5168 11.2148 8.84645 11.6219 8.84645C12.0304 8.84645 12.3583 8.5168 12.3583 8.1095C12.3583 7.70561 12.0304 7.37596 11.6219 7.37596ZM11.6219 8.85735C11.2087 8.85735 10.8733 8.52293 10.8733 8.1095C10.8733 7.70016 11.2087 7.36438 11.6219 7.36438C12.0345 7.36438 12.372 7.70016 12.372 8.1095C12.372 8.52293 12.0345 8.85735 11.6219 8.85735Z" fill="#7A361D"/>
<path fill-rule="evenodd" clip-rule="evenodd" d="M12.0914 7.95132C11.9582 7.83826 11.7936 7.82055 11.7007 7.90773C11.6351 7.99355 11.6406 8.0998 11.7205 8.20878C11.7123 8.20878 11.7007 8.21491 11.6952 8.21831C11.6378 8.10934 11.6283 7.99628 11.6658 7.89479C11.7936 7.79263 11.9657 7.78105 12.0914 7.95132Z" fill="#7A361D"/>
<path fill-rule="evenodd" clip-rule="evenodd" d="M11.8859 7.91675C11.8087 7.91675 11.7936 7.93446 11.7588 7.96238C11.7246 7.99167 11.7069 7.98554 11.7007 7.99167C11.6953 7.99644 11.7007 8.01483 11.7124 8.0087C11.7246 8.00189 11.7472 7.99167 11.782 7.96238C11.8141 7.93446 11.851 7.93446 11.8859 7.93446C11.9869 7.93446 12.0443 8.01959 12.0566 8.01483C12.0676 8.0087 11.9979 7.91675 11.8859 7.91675Z" fill="#7A361D"/>
<path fill-rule="evenodd" clip-rule="evenodd" d="M12.0133 8.01451C11.9424 7.93482 11.8042 7.92869 11.7469 8.01996H11.7701C11.8273 7.92869 11.9656 7.96751 11.9744 8.00838V8.01996L12.0133 8.01451Z" fill="#7A361D"/>
<path fill-rule="evenodd" clip-rule="evenodd" d="M11.8737 7.95667C11.9002 7.95667 11.9254 7.9805 11.9254 8.00843C11.9254 8.03635 11.9002 8.05951 11.8737 8.05951C11.8457 8.05951 11.8219 8.03635 11.8219 8.00843C11.8219 7.9805 11.8457 7.95667 11.8737 7.95667Z" fill="#7A361D"/>
<path fill-rule="evenodd" clip-rule="evenodd" d="M11.7469 8.01976C11.8042 8.07016 11.9308 8.07697 12.0133 8.01431L11.9744 8.00818C11.9172 8.07016 11.8266 8.06471 11.7694 8.01976V8.00818L11.7469 8.01976Z" fill="#7A361D"/>
<path fill-rule="evenodd" clip-rule="evenodd" d="M12.0214 8.04251C11.9254 8.11743 11.8273 8.10994 11.7701 8.07725C11.7129 8.04251 11.7129 8.03162 11.7245 8.03162C11.7354 8.03162 11.7476 8.04251 11.7939 8.06499C11.8389 8.08679 11.9084 8.08679 12.0214 8.04251Z" fill="#7A361D"/>
<path fill-rule="evenodd" clip-rule="evenodd" d="M11.7414 8.21472C11.7584 8.21949 11.7693 8.23992 11.7612 8.25695C11.755 8.27534 11.7346 8.28556 11.7203 8.27806C11.704 8.27398 11.6978 8.26172 11.6951 8.2481C11.6897 8.25831 11.6658 8.29305 11.6215 8.29305H11.6113L11.6215 8.31076C11.6338 8.31076 11.6658 8.31076 11.6897 8.29305C11.7067 8.31621 11.736 8.32234 11.7612 8.30735C11.7836 8.28964 11.7918 8.25763 11.7734 8.23379C11.7666 8.22289 11.755 8.21608 11.7414 8.21472Z" fill="#7A361D"/>
<path fill-rule="evenodd" clip-rule="evenodd" d="M11.8082 8.4522C11.7591 8.41815 11.7353 8.36707 11.6781 8.36707C11.6658 8.36707 11.6433 8.3732 11.6222 8.38477H11.6113L11.6222 8.40112C11.6433 8.40112 11.6781 8.3732 11.7203 8.39567C11.7591 8.41815 11.7816 8.44062 11.8082 8.4522Z" fill="#7A361D"/>
<path fill-rule="evenodd" clip-rule="evenodd" d="M11.7934 8.4522C11.6776 8.41815 11.6551 8.44063 11.6217 8.44063H11.6108L11.6217 8.46515C11.666 8.46515 11.6898 8.43041 11.7934 8.4522Z" fill="#7A361D"/>
<path fill-rule="evenodd" clip-rule="evenodd" d="M11.8082 8.45214C11.6856 8.44057 11.7244 8.51549 11.6222 8.51549H11.6113L11.6222 8.53251C11.7469 8.53251 11.6897 8.46508 11.8082 8.45214Z" fill="#7A361D"/>
<path fill-rule="evenodd" clip-rule="evenodd" d="M11.7241 8.63444C11.7241 8.57859 11.6778 8.53296 11.6219 8.53296C11.5661 8.53296 11.5177 8.57859 11.5177 8.63444C11.5313 8.57859 11.5885 8.54318 11.6457 8.55816C11.6853 8.56633 11.7145 8.59562 11.7241 8.63444Z" fill="#7A361D"/>
<path fill-rule="evenodd" clip-rule="evenodd" d="M11.1523 7.95132C11.2842 7.83826 11.4502 7.82055 11.5417 7.90773C11.6086 7.99355 11.6004 8.0998 11.5246 8.20878C11.5301 8.20878 11.5417 8.21491 11.5472 8.21831C11.6032 8.10934 11.6168 7.99628 11.5765 7.89479C11.4502 7.79263 11.2794 7.78105 11.1523 7.95132Z" fill="#7A361D"/>
<path fill-rule="evenodd" clip-rule="evenodd" d="M11.3588 7.91675C11.4319 7.91675 11.4497 7.93446 11.4845 7.96238C11.5173 7.99167 11.5337 7.98554 11.5419 7.99167C11.5467 7.99644 11.5419 8.01483 11.5296 8.0087C11.5173 8.00189 11.4961 7.99167 11.4599 7.96238C11.4271 7.93446 11.3923 7.93446 11.3588 7.93446C11.2564 7.93446 11.2004 8.01959 11.1867 8.01483C11.1744 8.0087 11.2441 7.91675 11.3588 7.91675Z" fill="#7A361D"/>
<path fill-rule="evenodd" clip-rule="evenodd" d="M11.2268 8.01451C11.301 7.93482 11.4373 7.92869 11.4958 8.01996H11.4713C11.4141 7.92869 11.2786 7.96751 11.269 8.00838V8.01996L11.2268 8.01451Z" fill="#7A361D"/>
<path fill-rule="evenodd" clip-rule="evenodd" d="M11.3702 7.95667C11.3412 7.95667 11.319 7.98027 11.319 8.00793C11.319 8.03558 11.3412 8.05852 11.3702 8.05852C11.3965 8.05852 11.4188 8.03558 11.4188 8.00793C11.4188 7.98027 11.3965 7.95667 11.3702 7.95667Z" fill="#7A361D"/>
<path fill-rule="evenodd" clip-rule="evenodd" d="M11.4958 8.01976C11.4373 8.07016 11.3133 8.07697 11.2268 8.01431L11.2697 8.00818C11.3242 8.07016 11.4148 8.06471 11.472 8.01976V8.00818L11.4958 8.01976Z" fill="#7A361D"/>
<path fill-rule="evenodd" clip-rule="evenodd" d="M11.2203 8.04251C11.3191 8.11743 11.4145 8.10994 11.4717 8.07725C11.5289 8.04251 11.5289 8.03162 11.5173 8.03162C11.5064 8.03162 11.4955 8.04251 11.4492 8.06499C11.4029 8.08679 11.3361 8.08679 11.2203 8.04251Z" fill="#7A361D"/>
<path fill-rule="evenodd" clip-rule="evenodd" d="M11.5015 8.21472C11.4845 8.21949 11.4749 8.23992 11.4831 8.25695C11.4872 8.27534 11.5069 8.28556 11.524 8.27806C11.5362 8.27398 11.5464 8.26172 11.5464 8.2481C11.5519 8.25831 11.5757 8.29305 11.6214 8.29305H11.6329L11.6214 8.31076C11.6105 8.31076 11.5757 8.31076 11.5519 8.29305C11.5362 8.31621 11.5042 8.32234 11.4831 8.30735C11.4579 8.28964 11.4524 8.25763 11.4668 8.23379C11.4777 8.22289 11.4892 8.21608 11.5015 8.21472Z" fill="#7A361D"/>
<path fill-rule="evenodd" clip-rule="evenodd" d="M11.4324 8.4522C11.4841 8.41815 11.5066 8.36707 11.5638 8.36707C11.5761 8.36707 11.5986 8.3732 11.621 8.38477H11.6333L11.621 8.40112C11.5986 8.40112 11.5638 8.3732 11.5243 8.39567C11.4841 8.41815 11.4603 8.44062 11.4324 8.4522Z" fill="#7A361D"/>
<path fill-rule="evenodd" clip-rule="evenodd" d="M11.4496 8.4522C11.564 8.41815 11.5865 8.44063 11.6212 8.44063H11.6335L11.6212 8.46515C11.5763 8.46515 11.5517 8.43041 11.4496 8.4522Z" fill="#7A361D"/>
<path fill-rule="evenodd" clip-rule="evenodd" d="M11.4324 8.45214C11.5591 8.44057 11.5175 8.51549 11.621 8.51549H11.6333L11.621 8.53251C11.4964 8.53251 11.5522 8.46508 11.4324 8.45214Z" fill="#7A361D"/>
<path fill-rule="evenodd" clip-rule="evenodd" d="M11.5177 8.63444C11.5177 8.57859 11.5654 8.53296 11.6212 8.53296C11.6771 8.53296 11.7241 8.57859 11.7241 8.63444C11.7118 8.57859 11.6546 8.54318 11.596 8.55816C11.5592 8.56633 11.5272 8.59562 11.5177 8.63444Z" fill="#7A361D"/>
</g>
<defs>
<clipPath id="clip0_4532_15505">
<rect width="23" height="16" fill="white"/>
</clipPath>
</defs>
</svg>
