<svg width="23" height="16" viewBox="0 0 23 16" fill="none" xmlns="http://www.w3.org/2000/svg">
<g clip-path="url(#clip0_4532_15506)">
<path d="M0 2C0 0.895431 0.895431 0 2 0H21C22.1046 0 23 0.895431 23 2V14C23 15.1046 22.1046 16 21 16H2C0.89543 16 0 15.1046 0 14V2Z" fill="#009C49"/>
<path d="M11.5878 1.93408L1.229 8.00002L11.5878 14.0659L21.9466 8.00002L11.5878 1.93408Z" fill="#FED953"/>
<path d="M11.4998 11.4286C13.3907 11.4286 14.9235 9.89353 14.9235 7.99998C14.9235 6.10643 13.3907 4.57141 11.4998 4.57141C9.609 4.57141 8.07617 6.10643 8.07617 7.99998C8.07617 9.89353 9.609 11.4286 11.4998 11.4286Z" fill="#253271"/>
<path d="M11.6757 6.40677C10.717 6.13808 9.71036 6.08261 8.72758 6.24432C8.49464 6.60196 8.33317 7.00066 8.25195 7.41873C9.23023 7.26205 10.2312 7.31965 11.1847 7.5875C12.661 7.98456 13.8561 8.77019 14.5191 9.67029C14.7424 9.27058 14.8801 8.82952 14.9237 8.37465C14.2449 7.52295 13.0889 6.78682 11.6757 6.40677Z" fill="#F0F0F0"/>
</g>
<defs>
<clipPath id="clip0_4532_15506">
<rect width="23" height="16" fill="white"/>
</clipPath>
</defs>
</svg>
