<svg width="23" height="16" viewBox="0 0 23 16" fill="none" xmlns="http://www.w3.org/2000/svg">
<g clip-path="url(#clip0_4532_15511)">
<path d="M0 2C0 0.895431 0.895431 0 2 0H21C22.1046 0 23 0.895431 23 2V14C23 15.1046 22.1046 16 21 16H2C0.89543 16 0 15.1046 0 14V2Z" fill="#CB001C"/>
<path fill-rule="evenodd" clip-rule="evenodd" d="M0 14.4577H23V13.2529H0V14.4577Z" fill="white"/>
<path fill-rule="evenodd" clip-rule="evenodd" d="M0 13.2537H23V12.0497H0V13.2537Z" fill="#CB001C"/>
<path fill-rule="evenodd" clip-rule="evenodd" d="M0 12.0497H23V10.8441H0V12.0497Z" fill="white"/>
<path fill-rule="evenodd" clip-rule="evenodd" d="M0 10.8441H23V9.63849H0V10.8441Z" fill="#CB001C"/>
<path fill-rule="evenodd" clip-rule="evenodd" d="M0 9.63927H23V8.43527H0V9.63927Z" fill="white"/>
<path fill-rule="evenodd" clip-rule="evenodd" d="M0 8.43528H23V7.22888H0V8.43528Z" fill="#CB001C"/>
<path fill-rule="evenodd" clip-rule="evenodd" d="M0 7.22887H23V6.02487H0V7.22887Z" fill="white"/>
<path fill-rule="evenodd" clip-rule="evenodd" d="M0 6.02567H23V4.82007H0V6.02567Z" fill="#CB001C"/>
<path fill-rule="evenodd" clip-rule="evenodd" d="M0 4.82007H23V3.61447H0V4.82007Z" fill="white"/>
<path fill-rule="evenodd" clip-rule="evenodd" d="M0 3.61447H23V2.40967H0V3.61447Z" fill="#CB001C"/>
<path fill-rule="evenodd" clip-rule="evenodd" d="M23 2.40999V1.99999C23 1.71941 22.9422 1.45233 22.8379 1.20999H2V2.40999H23Z" fill="white"/>
<path d="M0 2C0 0.89543 0.895431 0 2 0H12.3V8.44H0V2Z" fill="#2A3560"/>
<path fill-rule="evenodd" clip-rule="evenodd" d="M1.33377 1.2495H1L1.27279 1.4463L1.16608 1.7647L1.43887 1.5679L1.71166 1.7647L1.60816 1.4463L1.88095 1.2495H1.54398L1.43887 0.929504L1.33377 1.2495Z" fill="white"/>
<path fill-rule="evenodd" clip-rule="evenodd" d="M1.33377 2.65641H1L1.27279 2.85241L1.16608 3.17241L1.43887 2.97561L1.71166 3.17241L1.60816 2.85241L1.88095 2.65641H1.54398L1.43887 2.33801L1.33377 2.65641Z" fill="white"/>
<path fill-rule="evenodd" clip-rule="evenodd" d="M1.33377 4.06401H1L1.27279 4.26161L1.16608 4.58001L1.43887 4.38321L1.71166 4.58001L1.60816 4.26161L1.88095 4.06401H1.54398L1.43887 3.74561L1.33377 4.06401Z" fill="white"/>
<path fill-rule="evenodd" clip-rule="evenodd" d="M1.33377 5.47234H1L1.27279 5.66994L1.16608 5.98754L1.43887 5.79154L1.71166 5.98754L1.60816 5.66994L1.88095 5.47234H1.54398L1.43887 5.15314L1.33377 5.47234Z" fill="white"/>
<path fill-rule="evenodd" clip-rule="evenodd" d="M1.33377 6.88135H1L1.27279 7.07655L1.16608 7.39575L1.43887 7.19815L1.71166 7.39575L1.60816 7.07655L1.88095 6.88135H1.54398L1.43887 6.56055L1.33377 6.88135Z" fill="white"/>
<path fill-rule="evenodd" clip-rule="evenodd" d="M2.42339 1.67111L2.52368 1.99031H2.86226L2.59107 2.18791L2.69297 2.50631L2.42339 2.31031L2.1522 2.50631L2.2541 2.18791L1.98291 1.99031H2.31989L2.42339 1.67111Z" fill="white"/>
<path fill-rule="evenodd" clip-rule="evenodd" d="M2.42339 3.07968L2.52368 3.39728H2.86226L2.59107 3.59568L2.69297 3.91328L2.42339 3.71808L2.1522 3.91328L2.2541 3.59568L1.98291 3.39728H2.31989L2.42339 3.07968Z" fill="white"/>
<path fill-rule="evenodd" clip-rule="evenodd" d="M2.42339 4.48752L2.52368 4.80592H2.86226L2.59107 5.00352L2.69297 5.32192L2.42339 5.12512L2.1522 5.32192L2.2541 5.00352L1.98291 4.80592H2.31989L2.42339 4.48752Z" fill="white"/>
<path fill-rule="evenodd" clip-rule="evenodd" d="M2.42339 5.89609L2.52368 6.21369H2.86226L2.59107 6.41129L2.69297 6.72889L2.42339 6.53129L2.1522 6.72889L2.2541 6.41129L1.98291 6.21369H2.31989L2.42339 5.89609Z" fill="white"/>
<path fill-rule="evenodd" clip-rule="evenodd" d="M3.4169 0.929688L3.522 1.24889H3.85898L3.58619 1.44649L3.69129 1.76489L3.4169 1.56809L3.14732 1.76489L3.25082 1.44649L2.97803 1.24889H3.3134L3.4169 0.929688Z" fill="white"/>
<path fill-rule="evenodd" clip-rule="evenodd" d="M3.4169 2.33832L3.522 2.65592H3.85898L3.58619 2.85272L3.69129 3.17272L3.4169 2.97512L3.14732 3.17272L3.25082 2.85272L2.97803 2.65592H3.3134L3.4169 2.33832Z" fill="white"/>
<path fill-rule="evenodd" clip-rule="evenodd" d="M3.4169 3.74609L3.522 4.06369H3.85898L3.58619 4.26129L3.69129 4.58049L3.4169 4.38289L3.14732 4.58049L3.25082 4.26129L2.97803 4.06369H3.3134L3.4169 3.74609Z" fill="white"/>
<path fill-rule="evenodd" clip-rule="evenodd" d="M3.4169 5.15314L3.522 5.47234H3.85898L3.58619 5.66994L3.69129 5.98754L3.4169 5.79154L3.14732 5.98754L3.25082 5.66994L2.97803 5.47234H3.3134L3.4169 5.15314Z" fill="white"/>
<path fill-rule="evenodd" clip-rule="evenodd" d="M3.4169 6.56097L3.522 6.88097H3.85898L3.58619 7.07697L3.69129 7.39537L3.4169 7.19857L3.14732 7.39537L3.25082 7.07697L2.97803 6.88097H3.3134L3.4169 6.56097Z" fill="white"/>
<path fill-rule="evenodd" clip-rule="evenodd" d="M4.40093 1.67111L4.50443 1.99031H4.84301L4.56861 2.18791L4.67372 2.50631L4.40093 2.31031L4.12974 2.50631L4.23484 2.18791L3.96045 1.99031H4.29743L4.40093 1.67111Z" fill="white"/>
<path fill-rule="evenodd" clip-rule="evenodd" d="M4.40093 3.07968L4.50443 3.39728H4.84301L4.56861 3.59568L4.67372 3.91328L4.40093 3.71808L4.12974 3.91328L4.23484 3.59568L3.96045 3.39728H4.29743L4.40093 3.07968Z" fill="white"/>
<path fill-rule="evenodd" clip-rule="evenodd" d="M4.40093 4.48752L4.50443 4.80592H4.84301L4.56861 5.00352L4.67372 5.32192L4.40093 5.12512L4.12974 5.32192L4.23484 5.00352L3.96045 4.80592H4.29743L4.40093 4.48752Z" fill="white"/>
<path fill-rule="evenodd" clip-rule="evenodd" d="M4.40093 5.89609L4.50443 6.21369H4.84301L4.56861 6.41129L4.67372 6.72889L4.40093 6.53129L4.12974 6.72889L4.23484 6.41129L3.96045 6.21369H4.29743L4.40093 5.89609Z" fill="white"/>
<path fill-rule="evenodd" clip-rule="evenodd" d="M5.39737 0.929688L5.50247 1.24889H5.83624L5.56345 1.44649L5.67176 1.76489L5.39737 1.56809L5.12458 1.76489L5.22808 1.44649L4.9585 1.24889H5.29387L5.39737 0.929688Z" fill="white"/>
<path fill-rule="evenodd" clip-rule="evenodd" d="M5.39737 2.33832L5.50247 2.65592H5.83624L5.56345 2.85272L5.67176 3.17272L5.39737 2.97512L5.12458 3.17272L5.22808 2.85272L4.9585 2.65592H5.29387L5.39737 2.33832Z" fill="white"/>
<path fill-rule="evenodd" clip-rule="evenodd" d="M5.39737 3.74609L5.50247 4.06369H5.83624L5.56345 4.26129L5.67176 4.58049L5.39737 4.38289L5.12458 4.58049L5.22808 4.26129L4.9585 4.06369H5.29387L5.39737 3.74609Z" fill="white"/>
<path fill-rule="evenodd" clip-rule="evenodd" d="M5.39737 5.15314L5.50247 5.47234H5.83624L5.56345 5.66994L5.67176 5.98754L5.39737 5.79154L5.12458 5.98754L5.22808 5.66994L4.9585 5.47234H5.29387L5.39737 5.15314Z" fill="white"/>
<path fill-rule="evenodd" clip-rule="evenodd" d="M5.39737 6.56097L5.50247 6.88097H5.83624L5.56345 7.07697L5.67176 7.39537L5.39737 7.19857L5.12458 7.39537L5.22808 7.07697L4.9585 6.88097H5.29387L5.39737 6.56097Z" fill="white"/>
<path fill-rule="evenodd" clip-rule="evenodd" d="M6.38188 1.67111L6.48538 1.99031H6.82075L6.54957 2.18791L6.65146 2.50631L6.38188 2.31031L6.1107 2.50631L6.21259 2.18791L5.94141 1.99031H6.27678L6.38188 1.67111Z" fill="white"/>
<path fill-rule="evenodd" clip-rule="evenodd" d="M6.38188 3.07968L6.48538 3.39728H6.82075L6.54957 3.59568L6.65146 3.91328L6.38188 3.71808L6.1107 3.91328L6.21259 3.59568L5.94141 3.39728H6.27678L6.38188 3.07968Z" fill="white"/>
<path fill-rule="evenodd" clip-rule="evenodd" d="M6.38188 4.48752L6.48538 4.80592H6.82075L6.54957 5.00352L6.65146 5.32192L6.38188 5.12512L6.1107 5.32192L6.21259 5.00352L5.94141 4.80592H6.27678L6.38188 4.48752Z" fill="white"/>
<path fill-rule="evenodd" clip-rule="evenodd" d="M6.38188 5.89609L6.48538 6.21369H6.82075L6.54957 6.41129L6.65146 6.72889L6.38188 6.53129L6.1107 6.72889L6.21259 6.41129L5.94141 6.21369H6.27678L6.38188 5.89609Z" fill="white"/>
<path fill-rule="evenodd" clip-rule="evenodd" d="M7.37491 0.929688L7.48001 1.24889H7.81538L7.5442 1.44649L7.6493 1.76489L7.37491 1.56809L7.10533 1.76489L7.20722 1.44649L6.93604 1.24889H7.27141L7.37491 0.929688Z" fill="white"/>
<path fill-rule="evenodd" clip-rule="evenodd" d="M7.37491 2.33832L7.48001 2.65592H7.81538L7.5442 2.85272L7.6493 3.17272L7.37491 2.97512L7.10533 3.17272L7.20722 2.85272L6.93604 2.65592H7.27141L7.37491 2.33832Z" fill="white"/>
<path fill-rule="evenodd" clip-rule="evenodd" d="M7.37491 3.74609L7.48001 4.06369H7.81538L7.5442 4.26129L7.6493 4.58049L7.37491 4.38289L7.10533 4.58049L7.20722 4.26129L6.93604 4.06369H7.27141L7.37491 3.74609Z" fill="white"/>
<path fill-rule="evenodd" clip-rule="evenodd" d="M7.37491 5.15314L7.48001 5.47234H7.81538L7.5442 5.66994L7.6493 5.98754L7.37491 5.79154L7.10533 5.98754L7.20722 5.66994L6.93604 5.47234H7.27141L7.37491 5.15314Z" fill="white"/>
<path fill-rule="evenodd" clip-rule="evenodd" d="M7.37491 6.56097L7.48001 6.88097H7.81538L7.5442 7.07697L7.6493 7.39537L7.37491 7.19857L7.10533 7.39537L7.20722 7.07697L6.93604 6.88097H7.27141L7.37491 6.56097Z" fill="white"/>
<path fill-rule="evenodd" clip-rule="evenodd" d="M8.35928 1.67111L8.46278 1.99031H8.80136L8.52857 2.18791L8.63207 2.50631L8.35928 2.31031L8.0881 2.50631L8.1932 2.18791L7.92041 1.99031H8.25739L8.35928 1.67111Z" fill="white"/>
<path fill-rule="evenodd" clip-rule="evenodd" d="M8.35928 3.07968L8.46278 3.39728H8.80136L8.52857 3.59568L8.63207 3.91328L8.35928 3.71808L8.0881 3.91328L8.1932 3.59568L7.92041 3.39728H8.25739L8.35928 3.07968Z" fill="white"/>
<path fill-rule="evenodd" clip-rule="evenodd" d="M8.35928 4.48752L8.46278 4.80592H8.80136L8.52857 5.00352L8.63207 5.32192L8.35928 5.12512L8.0881 5.32192L8.1932 5.00352L7.92041 4.80592H8.25739L8.35928 4.48752Z" fill="white"/>
<path fill-rule="evenodd" clip-rule="evenodd" d="M8.35928 5.89609L8.46278 6.21369H8.80136L8.52857 6.41129L8.63207 6.72889L8.35928 6.53129L8.0881 6.72889L8.1932 6.41129L7.92041 6.21369H8.25739L8.35928 5.89609Z" fill="white"/>
<path fill-rule="evenodd" clip-rule="evenodd" d="M9.35586 0.929688L9.46097 1.24889H9.79634L9.52515 1.44649L9.62705 1.76489L9.35586 1.56809L9.08628 1.76489L9.18818 1.44649L8.91699 1.24889H9.25236L9.35586 0.929688Z" fill="white"/>
<path fill-rule="evenodd" clip-rule="evenodd" d="M9.35586 2.33832L9.46097 2.65592H9.79634L9.52515 2.85272L9.62705 3.17272L9.35586 2.97512L9.08628 3.17272L9.18818 2.85272L8.91699 2.65592H9.25236L9.35586 2.33832Z" fill="white"/>
<path fill-rule="evenodd" clip-rule="evenodd" d="M9.35586 3.74609L9.46097 4.06369H9.79634L9.52515 4.26129L9.62705 4.58049L9.35586 4.38289L9.08628 4.58049L9.18818 4.26129L8.91699 4.06369H9.25236L9.35586 3.74609Z" fill="white"/>
<path fill-rule="evenodd" clip-rule="evenodd" d="M9.35586 5.15314L9.46097 5.47234H9.79634L9.52515 5.66994L9.62705 5.98754L9.35586 5.79154L9.08628 5.98754L9.18818 5.66994L8.91699 5.47234H9.25236L9.35586 5.15314Z" fill="white"/>
<path fill-rule="evenodd" clip-rule="evenodd" d="M9.35586 6.56097L9.46097 6.88097H9.79634L9.52515 7.07697L9.62705 7.39537L9.35586 7.19857L9.08628 7.39537L9.18818 7.07697L8.91699 6.88097H9.25236L9.35586 6.56097Z" fill="white"/>
<path fill-rule="evenodd" clip-rule="evenodd" d="M10.3402 1.67111L10.4421 1.99031H10.7791L10.5095 2.18791L10.6098 2.50631L10.3402 2.31031L10.0658 2.50631L10.1709 2.18791L9.90137 1.99031H10.2351L10.3402 1.67111Z" fill="white"/>
<path fill-rule="evenodd" clip-rule="evenodd" d="M10.3402 3.07968L10.4421 3.39728H10.7791L10.5095 3.59568L10.6098 3.91328L10.3402 3.71808L10.0658 3.91328L10.1709 3.59568L9.90137 3.39728H10.2351L10.3402 3.07968Z" fill="white"/>
<path fill-rule="evenodd" clip-rule="evenodd" d="M10.3402 4.48752L10.4421 4.80592H10.7791L10.5095 5.00352L10.6098 5.32192L10.3402 5.12512L10.0658 5.32192L10.1709 5.00352L9.90137 4.80592H10.2351L10.3402 4.48752Z" fill="white"/>
<path fill-rule="evenodd" clip-rule="evenodd" d="M10.3402 5.89609L10.4421 6.21369H10.7791L10.5095 6.41129L10.6098 6.72889L10.3402 6.53129L10.0658 6.72889L10.1709 6.41129L9.90137 6.21369H10.2351L10.3402 5.89609Z" fill="white"/>
<path fill-rule="evenodd" clip-rule="evenodd" d="M11.3334 0.929688L11.4401 1.24889H11.7739L11.5027 1.44649L11.6078 1.76489L11.3334 1.56809L11.0638 1.76489L11.1657 1.44649L10.8945 1.24889H11.2299L11.3334 0.929688Z" fill="white"/>
<path fill-rule="evenodd" clip-rule="evenodd" d="M11.3334 2.33832L11.4401 2.65592H11.7739L11.5027 2.85272L11.6078 3.17272L11.3334 2.97512L11.0638 3.17272L11.1657 2.85272L10.8945 2.65592H11.2299L11.3334 2.33832Z" fill="white"/>
<path fill-rule="evenodd" clip-rule="evenodd" d="M11.3334 3.74609L11.4401 4.06369H11.7739L11.5027 4.26129L11.6078 4.58049L11.3334 4.38289L11.0638 4.58049L11.1657 4.26129L10.8945 4.06369H11.2299L11.3334 3.74609Z" fill="white"/>
<path fill-rule="evenodd" clip-rule="evenodd" d="M11.3334 5.15314L11.4401 5.47234H11.7739L11.5027 5.66994L11.6078 5.98754L11.3334 5.79154L11.0638 5.98754L11.1657 5.66994L10.8945 5.47234H11.2299L11.3334 5.15314Z" fill="white"/>
<path fill-rule="evenodd" clip-rule="evenodd" d="M11.3334 6.56097L11.4401 6.88097H11.7739L11.5027 7.07697L11.6078 7.39537L11.3334 7.19857L11.0638 7.39537L11.1657 7.07697L10.8945 6.88097H11.2299L11.3334 6.56097Z" fill="white"/>
</g>
<defs>
<clipPath id="clip0_4532_15511">
<rect width="23" height="16" fill="white"/>
</clipPath>
</defs>
</svg>
