<svg width="23" height="16" viewBox="0 0 23 16" fill="none" xmlns="http://www.w3.org/2000/svg">
<g clip-path="url(#clip0_4532_15514)">
<path fill-rule="evenodd" clip-rule="evenodd" d="M0 10.6667H23V5.33333H0V10.6667Z" fill="white"/>
<path fill-rule="evenodd" clip-rule="evenodd" d="M0 5.33291H23V1.99957C23 0.895005 22.1046 -0.000427246 21 -0.000427246H2C0.89543 -0.000427246 0 0.895004 0 1.99957V5.33291Z" fill="#2A43B6"/>
<path fill-rule="evenodd" clip-rule="evenodd" d="M0 13.9996C0 15.1041 0.895431 15.9996 2 15.9996H21C22.1046 15.9996 23 15.1041 23 13.9996V10.6662H0V13.9996Z" fill="#2A43B6"/>
<path fill-rule="evenodd" clip-rule="evenodd" d="M11.3052 7.82219L11.5809 7.91179L11.4854 7.26965L11.3052 7.82219Z" fill="#2A43B6"/>
<path fill-rule="evenodd" clip-rule="evenodd" d="M11.3892 7.91194L11.6644 7.82234L11.4857 7.26981L11.3892 7.91194Z" fill="#2A43B6"/>
<path fill-rule="evenodd" clip-rule="evenodd" d="M11.457 7.67146V7.9616L12.039 7.67146H11.457Z" fill="#2A43B6"/>
<path fill-rule="evenodd" clip-rule="evenodd" d="M11.397 7.77755L11.5681 8.01168L12.0394 7.67142L11.397 7.77755Z" fill="#2A43B6"/>
<path fill-rule="evenodd" clip-rule="evenodd" d="M11.4028 8.01179L11.574 7.77766L10.9321 7.67152L11.4028 8.01179Z" fill="#2A43B6"/>
<path fill-rule="evenodd" clip-rule="evenodd" d="M10.9316 7.67146L11.5147 7.9616V7.67146H10.9316Z" fill="#2A43B6"/>
<path fill-rule="evenodd" clip-rule="evenodd" d="M11.3716 7.85818L11.8268 8.31952L11.6481 7.76805L11.3716 7.85818Z" fill="#2A43B6"/>
<path fill-rule="evenodd" clip-rule="evenodd" d="M11.3569 7.97867L11.8266 8.31947L11.5276 7.744L11.3569 7.97867Z" fill="#2A43B6"/>
<path fill-rule="evenodd" clip-rule="evenodd" d="M11.1436 8.31947L11.6148 7.97867L11.4426 7.744L11.1436 8.31947Z" fill="#2A43B6"/>
<path fill-rule="evenodd" clip-rule="evenodd" d="M11.1436 8.31947L11.5998 7.85814L11.3238 7.76801L11.1436 8.31947Z" fill="#2A43B6"/>
<path fill-rule="evenodd" clip-rule="evenodd" d="M14.2144 8.6929L14.4901 8.78143L14.3946 8.13983L14.2144 8.6929Z" fill="#2A43B6"/>
<path fill-rule="evenodd" clip-rule="evenodd" d="M14.2979 8.78123L14.5731 8.6927L14.3949 8.14017L14.2979 8.78123Z" fill="#2A43B6"/>
<path fill-rule="evenodd" clip-rule="evenodd" d="M14.3662 8.54074V8.83087L14.946 8.54074H14.3662Z" fill="#2A43B6"/>
<path fill-rule="evenodd" clip-rule="evenodd" d="M14.3062 8.64634L14.4779 8.88261L14.9464 8.54074L14.3062 8.64634Z" fill="#2A43B6"/>
<path fill-rule="evenodd" clip-rule="evenodd" d="M14.3119 8.8825L14.4825 8.64623L13.8423 8.54063L14.3119 8.8825Z" fill="#2A43B6"/>
<path fill-rule="evenodd" clip-rule="evenodd" d="M13.8418 8.54074L14.4221 8.83087V8.54074H13.8418Z" fill="#2A43B6"/>
<path fill-rule="evenodd" clip-rule="evenodd" d="M14.2803 8.72795L14.7355 9.18982L14.5557 8.63835L14.2803 8.72795Z" fill="#2A43B6"/>
<path fill-rule="evenodd" clip-rule="evenodd" d="M14.2661 8.84842L14.7357 9.18976L14.4367 8.61429L14.2661 8.84842Z" fill="#2A43B6"/>
<path fill-rule="evenodd" clip-rule="evenodd" d="M14.0522 9.18971L14.5219 8.84838L14.3518 8.61424L14.0522 9.18971Z" fill="#2A43B6"/>
<path fill-rule="evenodd" clip-rule="evenodd" d="M14.0522 9.18971L14.509 8.72784L14.2325 8.63824L14.0522 9.18971Z" fill="#2A43B6"/>
<path fill-rule="evenodd" clip-rule="evenodd" d="M14.2144 6.95146L14.4901 7.04159L14.3946 6.39999L14.2144 6.95146Z" fill="#2A43B6"/>
<path fill-rule="evenodd" clip-rule="evenodd" d="M14.2979 7.0417L14.5731 6.95157L14.3949 6.4001L14.2979 7.0417Z" fill="#2A43B6"/>
<path fill-rule="evenodd" clip-rule="evenodd" d="M14.3662 6.80075V7.09088L14.946 6.80075H14.3662Z" fill="#2A43B6"/>
<path fill-rule="evenodd" clip-rule="evenodd" d="M14.3062 6.90682L14.4779 7.14256L14.9464 6.80069L14.3062 6.90682Z" fill="#2A43B6"/>
<path fill-rule="evenodd" clip-rule="evenodd" d="M14.3119 7.14251L14.4825 6.90678L13.8423 6.80064L14.3119 7.14251Z" fill="#2A43B6"/>
<path fill-rule="evenodd" clip-rule="evenodd" d="M13.8418 6.80075L14.4221 7.09088V6.80075H13.8418Z" fill="#2A43B6"/>
<path fill-rule="evenodd" clip-rule="evenodd" d="M14.2803 6.98699L14.7355 7.44992L14.5557 6.89845L14.2803 6.98699Z" fill="#2A43B6"/>
<path fill-rule="evenodd" clip-rule="evenodd" d="M14.2661 7.10794L14.7357 7.44981L14.4367 6.87434L14.2661 7.10794Z" fill="#2A43B6"/>
<path fill-rule="evenodd" clip-rule="evenodd" d="M14.0522 7.4497L14.5219 7.10784L14.3518 6.87424L14.0522 7.4497Z" fill="#2A43B6"/>
<path fill-rule="evenodd" clip-rule="evenodd" d="M14.0522 7.44971L14.509 6.98677L14.2325 6.89877L14.0522 7.44971Z" fill="#2A43B6"/>
<path fill-rule="evenodd" clip-rule="evenodd" d="M8.39746 8.6929L8.67266 8.78143L8.57613 8.13983L8.39746 8.6929Z" fill="#2A43B6"/>
<path fill-rule="evenodd" clip-rule="evenodd" d="M8.47998 8.78123L8.75518 8.6927L8.57598 8.14017L8.47998 8.78123Z" fill="#2A43B6"/>
<path fill-rule="evenodd" clip-rule="evenodd" d="M8.54785 8.54074V8.83087L9.12927 8.54074H8.54785Z" fill="#2A43B6"/>
<path fill-rule="evenodd" clip-rule="evenodd" d="M8.48828 8.64634L8.65944 8.88261L9.12961 8.54074L8.48828 8.64634Z" fill="#2A43B6"/>
<path fill-rule="evenodd" clip-rule="evenodd" d="M8.49414 8.8825L8.6653 8.64623L8.02344 8.54063L8.49414 8.8825Z" fill="#2A43B6"/>
<path fill-rule="evenodd" clip-rule="evenodd" d="M8.02344 8.54074L8.60539 8.83087V8.54074H8.02344Z" fill="#2A43B6"/>
<path fill-rule="evenodd" clip-rule="evenodd" d="M8.46191 8.72795L8.9187 9.18982L8.73898 8.63835L8.46191 8.72795Z" fill="#2A43B6"/>
<path fill-rule="evenodd" clip-rule="evenodd" d="M8.44824 8.84842L8.9184 9.18976L8.61887 8.61429L8.44824 8.84842Z" fill="#2A43B6"/>
<path fill-rule="evenodd" clip-rule="evenodd" d="M8.23389 9.18971L8.70512 8.84838L8.53396 8.61424L8.23389 9.18971Z" fill="#2A43B6"/>
<path fill-rule="evenodd" clip-rule="evenodd" d="M8.23389 9.18971L8.69068 8.72784L8.41414 8.63824L8.23389 9.18971Z" fill="#2A43B6"/>
<path fill-rule="evenodd" clip-rule="evenodd" d="M8.39746 6.95146L8.67266 7.04159L8.57613 6.39999L8.39746 6.95146Z" fill="#2A43B6"/>
<path fill-rule="evenodd" clip-rule="evenodd" d="M8.47998 7.0417L8.75518 6.95157L8.57598 6.4001L8.47998 7.0417Z" fill="#2A43B6"/>
<path fill-rule="evenodd" clip-rule="evenodd" d="M8.54785 6.80075V7.09088L9.12927 6.80075H8.54785Z" fill="#2A43B6"/>
<path fill-rule="evenodd" clip-rule="evenodd" d="M8.48828 6.90682L8.65944 7.14256L9.12961 6.80069L8.48828 6.90682Z" fill="#2A43B6"/>
<path fill-rule="evenodd" clip-rule="evenodd" d="M8.49414 7.14251L8.6653 6.90678L8.02344 6.80064L8.49414 7.14251Z" fill="#2A43B6"/>
<path fill-rule="evenodd" clip-rule="evenodd" d="M8.02344 6.80075L8.60539 7.09088V6.80075H8.02344Z" fill="#2A43B6"/>
<path fill-rule="evenodd" clip-rule="evenodd" d="M8.46191 6.98699L8.9187 7.44992L8.73898 6.89845L8.46191 6.98699Z" fill="#2A43B6"/>
<path fill-rule="evenodd" clip-rule="evenodd" d="M8.44824 7.10794L8.9184 7.44981L8.61887 6.87434L8.44824 7.10794Z" fill="#2A43B6"/>
<path fill-rule="evenodd" clip-rule="evenodd" d="M8.23389 7.4497L8.70512 7.10784L8.53396 6.87424L8.23389 7.4497Z" fill="#2A43B6"/>
<path fill-rule="evenodd" clip-rule="evenodd" d="M8.23389 7.44971L8.69068 6.98677L8.41414 6.89877L8.23389 7.44971Z" fill="#2A43B6"/>
</g>
<defs>
<clipPath id="clip0_4532_15514">
<rect width="23" height="16" fill="white"/>
</clipPath>
</defs>
</svg>
