<svg width="23" height="16" viewBox="0 0 23 16" fill="none" xmlns="http://www.w3.org/2000/svg">
<g clip-path="url(#clip0_4532_15515)">
<path fill-rule="evenodd" clip-rule="evenodd" d="M0 10.6666H23V5.33325H0V10.6666Z" fill="white"/>
<path fill-rule="evenodd" clip-rule="evenodd" d="M0 14.0001C0 15.1046 0.895431 16.0001 2 16.0001H21C22.1046 16.0001 23 15.1047 23 14.0001V10.6667H0V14.0001Z" fill="#3564C2"/>
<path fill-rule="evenodd" clip-rule="evenodd" d="M0 5.33333H23V2C23 0.895432 22.1046 0 21 0H2C0.89543 0 0 0.895431 0 2V5.33333Z" fill="#3564C2"/>
<path fill-rule="evenodd" clip-rule="evenodd" d="M10.5972 8.71877L11.6504 6.90063L12.7025 8.71877H10.5972Z" fill="#F5CD28"/>
<path fill-rule="evenodd" clip-rule="evenodd" d="M10.7002 8.65886L11.6491 7.021L12.5985 8.65886H10.7002Z" fill="#95D4FD"/>
<path fill-rule="evenodd" clip-rule="evenodd" d="M10.8887 8.5073C10.8759 8.5073 10.8626 8.50463 10.8503 8.5025L10.8215 8.49503L10.8188 8.47583L10.8535 8.48596C10.8812 8.49023 10.9084 8.49343 10.941 8.49343C10.9218 8.50303 10.9063 8.5073 10.8887 8.5073Z" fill="#95D4FD"/>
<path fill-rule="evenodd" clip-rule="evenodd" d="M10.8012 8.6235L10.7788 8.61176C10.79 8.60696 10.7991 8.59416 10.8129 8.5787C10.8364 8.57123 10.8492 8.57443 10.8636 8.5787C10.8732 8.58083 10.8823 8.58403 10.8956 8.58456C10.9148 8.59576 10.9436 8.59363 10.9617 8.58563L10.9889 8.5819L10.9687 8.60056C10.9495 8.61016 10.9132 8.6155 10.8897 8.5995C10.8807 8.60056 10.8689 8.59843 10.8588 8.59523C10.8455 8.5915 10.8364 8.58883 10.8215 8.5931C10.8124 8.60536 10.8049 8.61656 10.8012 8.6235Z" fill="#95D4FD"/>
<path fill-rule="evenodd" clip-rule="evenodd" d="M10.9841 8.64116C10.9574 8.63743 10.9387 8.63743 10.9099 8.63796L10.8838 8.62943V8.63849C10.8651 8.64009 10.8582 8.64009 10.8534 8.63583L10.8491 8.63849V8.62889C10.8635 8.62143 10.8753 8.62143 10.8838 8.62036H10.9099C10.9419 8.62036 10.9665 8.62036 10.9841 8.64116Z" fill="#95D4FD"/>
<path fill-rule="evenodd" clip-rule="evenodd" d="M11.2485 8.49948C11.2117 8.49948 11.2 8.48722 11.1925 8.45042C11.1792 8.44828 11.1525 8.44828 11.1344 8.45682L11.1056 8.45735L11.0981 8.44028H11.1301C11.1499 8.42908 11.1824 8.42908 11.2053 8.44028C11.216 8.48082 11.224 8.48508 11.2517 8.48615C11.2523 8.47868 11.2656 8.47228 11.2773 8.46642L11.2997 8.47335C11.2752 8.48722 11.2629 8.49255 11.2576 8.49948H11.2485Z" fill="#95D4FD"/>
<path fill-rule="evenodd" clip-rule="evenodd" d="M11.1874 8.59628L11.1655 8.58401C11.1778 8.57974 11.1853 8.56694 11.1997 8.55148C11.2285 8.53121 11.2445 8.51948 11.2855 8.53014C11.3186 8.55628 11.3277 8.56321 11.3533 8.56588C11.3693 8.56588 11.3805 8.56374 11.3922 8.56161C11.4013 8.56054 11.4103 8.55894 11.421 8.55681C11.4125 8.57601 11.4034 8.57708 11.3949 8.57921C11.3826 8.58081 11.3703 8.58348 11.3522 8.58348C11.3207 8.58028 11.3085 8.57014 11.2893 8.55468C11.2471 8.53921 11.2375 8.54668 11.2146 8.56268C11.1997 8.57814 11.1922 8.58988 11.1874 8.59628Z" fill="#95D4FD"/>
<path fill-rule="evenodd" clip-rule="evenodd" d="M11.3784 8.6557C11.3507 8.6557 11.332 8.64717 11.3107 8.63864L11.2867 8.62797C11.2797 8.63597 11.2712 8.64024 11.2648 8.6429L11.2573 8.62904H11.2643C11.2632 8.62477 11.2728 8.6205 11.2856 8.61304L11.3176 8.62264C11.3373 8.63117 11.3544 8.6381 11.3784 8.63864C11.3869 8.6381 11.3939 8.63597 11.4019 8.6349C11.4115 8.63277 11.4216 8.62904 11.4349 8.62904C11.4237 8.6461 11.4152 8.6493 11.4061 8.65197C11.3971 8.65357 11.3891 8.65517 11.3784 8.6557Z" fill="#95D4FD"/>
<path fill-rule="evenodd" clip-rule="evenodd" d="M11.6063 8.46559C11.5797 8.45706 11.553 8.45653 11.5258 8.45706H11.4933L11.4863 8.43999H11.5178C11.5551 8.43839 11.5823 8.43999 11.6095 8.44959L11.6959 8.44906L11.6063 8.46559Z" fill="#95D4FD"/>
<path fill-rule="evenodd" clip-rule="evenodd" d="M11.646 8.57446C11.6135 8.57179 11.598 8.56166 11.5815 8.54939L11.5623 8.53713C11.5452 8.519 11.5164 8.51419 11.4919 8.51099C11.4828 8.51899 11.4732 8.52219 11.4674 8.52486L11.4604 8.51206H11.4674C11.4652 8.50726 11.4748 8.50246 11.4882 8.495C11.5223 8.49713 11.5538 8.503 11.5756 8.5238L11.5916 8.535C11.6082 8.54673 11.6204 8.55473 11.646 8.55686C11.6684 8.54673 11.6759 8.54193 11.6866 8.5398L11.6727 8.56486C11.6658 8.56913 11.6588 8.57393 11.646 8.57446Z" fill="#95D4FD"/>
<path fill-rule="evenodd" clip-rule="evenodd" d="M11.6894 8.61925C11.6633 8.61925 11.643 8.61658 11.6233 8.61072C11.5998 8.59632 11.571 8.61125 11.5619 8.61818L11.5513 8.60432C11.5673 8.59312 11.6019 8.57712 11.6302 8.59418C11.6531 8.60272 11.6809 8.60325 11.7086 8.60272C11.7187 8.59898 11.7294 8.59365 11.7401 8.58885C11.755 8.58298 11.7699 8.57605 11.7785 8.56805L11.7817 8.56592H11.8035L11.7843 8.58352C11.7795 8.59045 11.7641 8.59845 11.747 8.60538C11.7369 8.60858 11.7262 8.61445 11.7187 8.61818C11.7086 8.61925 11.6979 8.61925 11.6894 8.61925Z" fill="#95D4FD"/>
<path fill-rule="evenodd" clip-rule="evenodd" d="M11.9198 8.51093C11.8926 8.49973 11.851 8.50026 11.8312 8.50186L11.8232 8.49333L11.8312 8.4848C11.8526 8.4848 11.8963 8.48266 11.9219 8.49493C11.9411 8.49013 11.9523 8.47626 11.9667 8.4576L11.9806 8.44266C12.0115 8.4384 12.0328 8.44 12.0542 8.4496C12.0286 8.4576 12.0094 8.45706 11.9875 8.45706C11.964 8.488 11.9496 8.50613 11.9198 8.51093Z" fill="#95D4FD"/>
<path fill-rule="evenodd" clip-rule="evenodd" d="M11.9462 8.61093L11.9414 8.59387C11.9414 8.59387 11.967 8.58587 11.9867 8.58427C12.0059 8.56133 12.0214 8.57307 12.0331 8.58107C12.0395 8.5864 12.0454 8.59173 12.0534 8.59387C12.0795 8.58373 12.0939 8.56347 12.1073 8.53467C12.1099 8.5704 12.0918 8.59867 12.0545 8.61093C12.0374 8.60667 12.0289 8.60027 12.0225 8.596C12.0107 8.5864 12.0075 8.58427 11.9947 8.5992C11.9713 8.60347 11.9462 8.61093 11.9462 8.61093Z" fill="#95D4FD"/>
<path fill-rule="evenodd" clip-rule="evenodd" d="M12.0211 8.54166L12.0137 8.53046H12.0201C12.0163 8.52246 12.0265 8.51712 12.0393 8.50539L12.0563 8.49099C12.067 8.48032 12.0766 8.47019 12.1011 8.46699C12.1177 8.44566 12.1363 8.46379 12.1481 8.47339C12.1214 8.47392 12.1177 8.47232 12.1086 8.48246C12.0841 8.48619 12.0782 8.49259 12.0675 8.50272C12.0627 8.50859 12.0585 8.51286 12.0499 8.51926C12.0361 8.53046 12.0275 8.53686 12.0211 8.54166Z" fill="#95D4FD"/>
<path fill-rule="evenodd" clip-rule="evenodd" d="M12.1552 8.6119L12.1392 8.6087C12.1402 8.6023 12.1514 8.56124 12.1578 8.54524C12.1781 8.53137 12.1909 8.5239 12.2058 8.5271C12.2165 8.53137 12.2266 8.5415 12.2373 8.56124C12.2432 8.5623 12.2549 8.56924 12.2666 8.57617C12.2784 8.58257 12.2901 8.58897 12.3024 8.59377C12.2821 8.6055 12.2704 8.59857 12.2576 8.59057C12.2474 8.58417 12.2368 8.5783 12.2266 8.57457C12.2138 8.5543 12.2069 8.5463 12.201 8.54417C12.193 8.54364 12.1845 8.54684 12.1701 8.5559C12.1685 8.5671 12.1568 8.6055 12.1552 8.6119Z" fill="#95D4FD"/>
<path fill-rule="evenodd" clip-rule="evenodd" d="M12.3118 8.51091C12.2894 8.47251 12.2803 8.45385 12.2585 8.44745C12.2574 8.46291 12.2521 8.47731 12.2483 8.48478L12.2275 8.47625C12.2361 8.47038 12.2425 8.45545 12.2542 8.43518C12.2942 8.43838 12.3038 8.46345 12.3161 8.49011C12.3443 8.49331 12.3603 8.49225 12.3758 8.47838C12.3678 8.50985 12.3449 8.51091 12.3118 8.51091Z" fill="#95D4FD"/>
<path fill-rule="evenodd" clip-rule="evenodd" d="M12.5104 8.59641C12.4827 8.59321 12.4731 8.58414 12.4656 8.57614C12.456 8.56814 12.4496 8.56174 12.4363 8.55641C12.4229 8.54787 12.4133 8.55161 12.3973 8.58574L12.3813 8.57934C12.3904 8.55907 12.4048 8.53187 12.424 8.53027L12.4464 8.54361C12.4576 8.54681 12.4677 8.55481 12.4773 8.56334C12.4848 8.57134 12.4933 8.57827 12.5061 8.58521C12.5008 8.57294 12.5104 8.56921 12.5264 8.56601C12.5173 8.58521 12.5152 8.58574 12.5104 8.59641Z" fill="#95D4FD"/>
<path fill-rule="evenodd" clip-rule="evenodd" d="M11.8376 8.62497L11.8296 8.61163H11.8365C11.8355 8.60577 11.8445 8.6015 11.8579 8.59403C11.8856 8.57217 11.8952 8.56363 11.9112 8.53483C11.9325 8.5311 11.9448 8.5327 11.9555 8.53483C11.9709 8.53697 11.9837 8.53963 12.0003 8.53963C11.9827 8.5567 11.9688 8.55403 11.9533 8.5519C11.9421 8.54977 11.9309 8.5487 11.9187 8.5471C11.9091 8.5743 11.8963 8.5855 11.8733 8.60363C11.8525 8.61643 11.8424 8.62123 11.8376 8.62497Z" fill="#95D4FD"/>
<path fill-rule="evenodd" clip-rule="evenodd" d="M11.0249 8.51295L11.0078 8.51188C11.0078 8.50175 11.0169 8.49428 11.0505 8.47722C11.0622 8.46335 11.0755 8.46815 11.0867 8.47242L11.1054 8.49268C11.0969 8.49268 11.0878 8.49002 11.0809 8.48788V8.49002L11.059 8.49215C11.0339 8.50548 11.0259 8.51082 11.0249 8.51295Z" fill="#95D4FD"/>
<path fill-rule="evenodd" clip-rule="evenodd" d="M11.1236 8.60152C11.1162 8.60152 11.1098 8.59832 11.1039 8.59512C11.0964 8.59032 11.0879 8.58605 11.0778 8.58338C11.0703 8.59032 11.0602 8.59512 11.0543 8.59832L11.0474 8.58445H11.0543C11.0522 8.57912 11.0623 8.57485 11.0751 8.56738C11.0943 8.56898 11.1039 8.57432 11.113 8.58018C11.122 8.58605 11.1311 8.59085 11.1444 8.59298C11.1359 8.59938 11.1295 8.60152 11.1236 8.60152Z" fill="#95D4FD"/>
<path fill-rule="evenodd" clip-rule="evenodd" d="M11.654 8.28651L11.6455 7.03638H11.654V8.28651Z" fill="white"/>
<path fill-rule="evenodd" clip-rule="evenodd" d="M11.1978 7.81102V7.80249H12.1022L11.1978 7.81102Z" fill="white"/>
<path fill-rule="evenodd" clip-rule="evenodd" d="M12.3307 8.19528L11.3149 7.62088L11.3192 7.61182L12.3307 8.19528Z" fill="white"/>
<path fill-rule="evenodd" clip-rule="evenodd" d="M10.9727 8.20462L11.9911 7.60889L11.9959 7.61582L10.9727 8.20462Z" fill="white"/>
<path fill-rule="evenodd" clip-rule="evenodd" d="M11.4494 8.16604L11.4414 8.16231L11.8249 7.50098L11.4494 8.16604Z" fill="white"/>
<path fill-rule="evenodd" clip-rule="evenodd" d="M11.8929 8.2172L11.458 7.48173L11.4655 7.47693L11.8929 8.2172Z" fill="white"/>
<path fill-rule="evenodd" clip-rule="evenodd" d="M11.7892 7.8068C11.7892 7.88307 11.7263 7.94547 11.6489 7.94547C11.5732 7.94547 11.5103 7.88307 11.5103 7.8068C11.5103 7.72894 11.5732 7.6676 11.6489 7.6676C11.7263 7.6676 11.7892 7.72894 11.7892 7.8068Z" fill="#95D4FD"/>
<path fill-rule="evenodd" clip-rule="evenodd" d="M12.4277 8.36255L11.9575 8.37055C11.9575 8.37055 11.9597 8.43882 11.9912 8.44148C12.0212 8.44362 12.4111 8.43722 12.4266 8.46815C12.4432 8.49962 12.0474 8.51562 12.0474 8.51562C12.0474 8.51562 12.3961 8.51295 12.4143 8.53962C12.4336 8.56628 12.2228 8.57162 12.2383 8.57588C12.2565 8.58015 12.4854 8.57162 12.5063 8.59668C12.5288 8.62335 12.4031 8.64042 12.4031 8.64042C12.4031 8.64042 12.593 8.65908 12.5972 8.65802C12.5518 8.57802 12.4277 8.36255 12.4277 8.36255Z" fill="#487BA2"/>
<path fill-rule="evenodd" clip-rule="evenodd" d="M11.5802 7.71511C11.5652 7.72577 11.6154 7.73217 11.6116 7.76524C11.6079 7.78817 11.5802 7.82017 11.569 7.84151C11.5562 7.86284 11.6234 7.94124 11.6842 7.89911C11.7455 7.85591 11.738 7.77911 11.7178 7.76524C11.6687 7.73217 11.6367 7.68311 11.5802 7.71511Z" fill="#C0003B"/>
<path fill-rule="evenodd" clip-rule="evenodd" d="M11.6684 7.89481C11.6652 7.88627 11.6455 7.86707 11.6284 7.85534C11.613 7.84627 11.589 7.83987 11.582 7.84521C11.5826 7.84627 11.582 7.85267 11.5799 7.85374C11.5788 7.85374 11.5767 7.85854 11.5762 7.85694C11.5762 7.85534 11.5778 7.84094 11.5788 7.84041C11.5895 7.83241 11.6188 7.84361 11.6311 7.85107C11.6428 7.85854 11.6722 7.88147 11.6684 7.89481Z" fill="black"/>
<path fill-rule="evenodd" clip-rule="evenodd" d="M11.2468 7.9995C11.3025 7.9867 11.318 8.05017 11.3356 8.0619C11.3538 8.07257 11.4014 8.07737 11.4142 8.0843C11.4265 8.0923 11.4742 8.12377 11.4742 8.12377C11.4742 8.12377 11.4961 8.06723 11.5202 8.0619C11.5458 8.05603 11.6523 8.13017 11.6523 8.13017C11.6523 8.13017 11.6635 8.0619 11.6924 8.0715C11.7213 8.08003 11.863 8.18723 11.863 8.18723C11.863 8.18723 11.87 8.14937 11.9005 8.13923C11.9309 8.12803 12.0363 8.19257 12.0363 8.19257C12.0363 8.19257 12.0475 8.1403 12.0689 8.1403C12.131 8.1403 12.3332 8.35897 12.3776 8.3643C12.3979 8.3659 12.3038 8.39363 12.3038 8.39363C12.3038 8.39363 12.3203 8.4075 12.3107 8.41977C12.3022 8.43203 12.0235 8.4219 12.0235 8.4219C12.0235 8.4219 12.0315 8.44057 12.0267 8.44643C12.0187 8.45763 10.8125 8.46563 10.8125 8.46563C10.9243 8.27203 11.1468 8.02243 11.2468 7.9995Z" fill="#5B7133"/>
<path fill-rule="evenodd" clip-rule="evenodd" d="M11.7231 8.45672C11.7648 8.44552 11.7354 8.32872 11.5049 8.15112C11.8697 8.40339 11.6381 8.43859 12.012 8.44872C11.9451 8.45352 11.7231 8.45672 11.7231 8.45672Z" fill="#263732"/>
<path fill-rule="evenodd" clip-rule="evenodd" d="M11.6636 8.14221C11.6636 8.14221 12.0096 8.40888 12.0246 8.42168C12.0412 8.42221 12.0979 8.42435 12.0979 8.42435C12.0979 8.42435 12.0503 8.42115 11.6636 8.14221Z" fill="#263732"/>
<path fill-rule="evenodd" clip-rule="evenodd" d="M11.8696 8.19531C11.8696 8.19531 12.1606 8.42251 12.1141 8.42411C12.0649 8.42465 12.2729 8.42891 12.3093 8.42145C12.1216 8.41078 12.1595 8.40331 11.8696 8.19531Z" fill="#263732"/>
<path fill-rule="evenodd" clip-rule="evenodd" d="M12.0464 8.20361L12.3024 8.39348C12.3024 8.39348 12.3435 8.38228 12.3637 8.37268C12.2869 8.38495 12.2736 8.35028 12.0464 8.20361Z" fill="#263732"/>
<path fill-rule="evenodd" clip-rule="evenodd" d="M11.2921 8.02443C11.3119 8.03776 11.3178 8.06336 11.3301 8.07136C11.3424 8.0783 11.4611 8.13376 11.5275 8.20203C11.5927 8.2703 11.6922 8.35563 11.6569 8.36736C11.6221 8.3775 11.5879 8.34016 11.5879 8.34016C11.5879 8.34016 11.6371 8.4207 11.5708 8.4255C11.5055 8.4319 11.3445 8.18816 11.3445 8.18816C11.3445 8.18816 11.421 8.40843 11.3226 8.39883C11.2231 8.3903 11.2338 8.2319 11.2338 8.2319C11.2338 8.2319 11.2071 8.30763 11.1878 8.3055C11.168 8.30336 11.1878 8.20736 11.1878 8.20736C11.1878 8.20736 11.0733 8.39723 11.03 8.3759C10.9846 8.35403 11.2055 8.00896 11.2921 8.02443Z" fill="#93C438"/>
<path fill-rule="evenodd" clip-rule="evenodd" d="M11.5291 8.08904C11.5264 8.07144 11.543 8.07677 11.5788 8.0949C11.6141 8.1109 11.8998 8.33277 11.8928 8.3557C11.8853 8.37864 11.5451 8.19517 11.5291 8.08904Z" fill="#93C438"/>
<path fill-rule="evenodd" clip-rule="evenodd" d="M11.7412 8.12604C11.7188 8.12124 11.9673 8.37298 12.0254 8.35804C12.0846 8.34098 11.7566 8.13031 11.7412 8.12604Z" fill="#93C438"/>
<path fill-rule="evenodd" clip-rule="evenodd" d="M11.9126 8.14797C11.8854 8.1453 12.1542 8.3885 12.2123 8.37517C12.271 8.36397 11.9552 8.15117 11.9126 8.14797Z" fill="#93C438"/>
<path fill-rule="evenodd" clip-rule="evenodd" d="M12.071 8.16141C12.0412 8.16727 12.2716 8.34434 12.2993 8.34221C12.3286 8.34061 12.1398 8.14967 12.071 8.16141Z" fill="#93C438"/>
<path fill-rule="evenodd" clip-rule="evenodd" d="M11.2744 7.66815C11.2744 7.66815 11.4172 7.50228 11.6494 7.50228C11.8826 7.50228 12.0243 7.66815 12.0243 7.66815L11.9682 7.56895C11.9682 7.56895 11.8526 7.45215 11.6504 7.45215C11.4477 7.45215 11.3327 7.56682 11.3327 7.56682L11.2744 7.66815Z" fill="#B0008A"/>
<path fill-rule="evenodd" clip-rule="evenodd" d="M11.9323 7.50779C11.9323 7.50779 11.8306 7.42139 11.6493 7.42139C11.468 7.42139 11.3669 7.50885 11.3669 7.50885L11.3198 7.58832C11.3198 7.58832 11.43 7.46405 11.6493 7.46405C11.8697 7.46405 11.9804 7.58885 11.9804 7.58885L11.9323 7.50779Z" fill="#C0003B"/>
<path fill-rule="evenodd" clip-rule="evenodd" d="M11.8977 7.43692C11.8977 7.43692 11.8052 7.36865 11.6495 7.36865C11.495 7.36865 11.4126 7.43105 11.4126 7.43105L11.3623 7.51639C11.3623 7.51639 11.4548 7.42519 11.6506 7.42519C11.8448 7.42519 11.9389 7.51639 11.9389 7.51639L11.8977 7.43692Z" fill="#F3CD2D"/>
<path fill-rule="evenodd" clip-rule="evenodd" d="M11.8535 7.37235L11.8985 7.44808C11.8985 7.44808 11.8065 7.38035 11.6492 7.38035C11.493 7.38035 11.3994 7.45181 11.3994 7.45181L11.4443 7.37555C11.4443 7.37555 11.508 7.32861 11.6492 7.32861C11.7915 7.32861 11.8535 7.37235 11.8535 7.37235Z" fill="#93C438"/>
<path fill-rule="evenodd" clip-rule="evenodd" d="M11.8225 7.3193L11.8605 7.38277C11.8605 7.38277 11.7706 7.33797 11.6497 7.33797C11.5294 7.33797 11.4331 7.39557 11.4331 7.39557L11.4695 7.33263C11.4695 7.33263 11.5337 7.2937 11.6497 7.2937C11.7679 7.2937 11.8225 7.3193 11.8225 7.3193Z" fill="#6091BE"/>
<path fill-rule="evenodd" clip-rule="evenodd" d="M11.8032 7.2849L11.8327 7.3377C11.8327 7.3377 11.7765 7.29983 11.6508 7.29983C11.524 7.29983 11.4668 7.3377 11.4668 7.3377L11.4973 7.28276C11.4973 7.28276 11.5534 7.26196 11.6497 7.26196C11.7487 7.26196 11.8032 7.2849 11.8032 7.2849Z" fill="#2F4791"/>
<path fill-rule="evenodd" clip-rule="evenodd" d="M11.4194 8.48279L11.8928 8.48705C11.8928 8.48705 11.8104 8.49665 11.812 8.50625C11.8153 8.51585 11.9811 8.51959 11.9811 8.51959C11.9811 8.51959 11.8789 8.52705 11.8773 8.53825C11.8746 8.54679 11.9238 8.55212 11.9238 8.55212C11.9238 8.55212 11.8313 8.56065 11.8313 8.57132C11.8313 8.58039 11.9495 8.58519 11.9415 8.58519C11.9319 8.58519 11.7848 8.58679 11.7848 8.59959C11.7848 8.61132 11.8896 8.63585 11.8896 8.63585L11.2681 8.64759C11.2681 8.64759 11.3649 8.63265 11.3649 8.61452C11.3649 8.59425 11.297 8.58999 11.297 8.58999C11.297 8.58999 11.55 8.59425 11.5617 8.58252C11.573 8.57132 11.5082 8.56225 11.5082 8.56225C11.5082 8.56225 11.6093 8.56812 11.6157 8.55692C11.6232 8.54519 11.4804 8.52492 11.4804 8.52492C11.4804 8.52492 11.5639 8.52705 11.5762 8.51319C11.5874 8.49932 11.4194 8.48279 11.4194 8.48279Z" fill="white"/>
<path fill-rule="evenodd" clip-rule="evenodd" d="M11.3292 8.49424C11.3292 8.49424 10.8628 8.50811 10.8227 8.53477C10.7826 8.56091 11.0832 8.58704 11.0832 8.58704C11.0832 8.58704 10.7729 8.59024 10.7489 8.61797C10.7253 8.64731 10.9345 8.64251 10.9345 8.64251L10.7002 8.65904L10.812 8.46704L11.3292 8.49424Z" fill="#487BA2"/>
<path fill-rule="evenodd" clip-rule="evenodd" d="M10.2911 8.52494C10.297 8.53987 10.2874 8.55801 10.2714 8.56387C10.2548 8.56867 10.2378 8.55961 10.2335 8.54414C10.2282 8.52707 10.2367 8.51001 10.2532 8.50521C10.2692 8.49934 10.2863 8.50841 10.2911 8.52494Z" fill="#F3CD2D"/>
<path fill-rule="evenodd" clip-rule="evenodd" d="M10.4325 8.65986L10.3205 8.67L10.352 8.73613L10.4325 8.65986ZM10.3392 8.82146C10.321 8.838 10.3072 8.84866 10.3194 8.87586L10.3088 8.8812L10.2597 8.77506L10.2688 8.77026C10.2784 8.7884 10.2853 8.79106 10.2938 8.78733C10.2997 8.78466 10.305 8.7804 10.3098 8.7756L10.3392 8.74786L10.3029 8.67053L10.2816 8.67266C10.272 8.67373 10.2618 8.67426 10.2538 8.67906C10.2378 8.68706 10.2389 8.70253 10.2437 8.71693L10.2341 8.72066L10.1968 8.6412L10.2064 8.63586C10.2272 8.66093 10.2448 8.65986 10.2741 8.65773L10.457 8.6412L10.4912 8.67906L10.3392 8.82146Z" fill="#F3CD2D"/>
<path fill-rule="evenodd" clip-rule="evenodd" d="M10.505 9.08389C10.4868 9.09829 10.4868 9.10949 10.5002 9.12869L10.4916 9.13509L10.421 9.03856L10.4295 9.03163C10.444 9.05083 10.4542 9.05349 10.4734 9.03963L10.6135 8.93616L10.3958 9.00389L10.3889 8.99323L10.5125 8.80763L10.4033 8.88763C10.36 8.92016 10.3563 8.92603 10.3712 8.95163L10.3622 8.95856L10.3135 8.88923L10.3215 8.88389C10.3434 8.90363 10.3498 8.90576 10.3926 8.87376L10.4953 8.79749C10.5157 8.78309 10.5146 8.77136 10.5012 8.75323L10.5103 8.74683L10.5681 8.82576L10.4766 8.96069L10.6307 8.91323L10.6874 8.99003L10.6788 8.99643C10.6633 8.97776 10.6553 8.97296 10.6344 8.98789L10.505 9.08389Z" fill="#F3CD2D"/>
<path fill-rule="evenodd" clip-rule="evenodd" d="M10.5451 9.17176C10.5632 9.18829 10.5733 9.18829 10.5888 9.17123L10.696 9.04963C10.7115 9.03203 10.7109 9.02136 10.6912 9.00536L10.6992 8.99683L10.848 9.13069L10.8229 9.19149L10.8123 9.18883C10.8149 9.15149 10.8053 9.10989 10.7771 9.08536C10.7552 9.06563 10.7483 9.07256 10.7328 9.09123L10.6896 9.13976L10.6939 9.14456C10.7189 9.16589 10.7333 9.17176 10.7648 9.15469L10.7733 9.16323L10.7109 9.23576L10.6997 9.22616C10.7157 9.19576 10.7088 9.17763 10.6853 9.15683L10.6795 9.15149L10.632 9.20483C10.6192 9.21869 10.6123 9.22989 10.6304 9.24536C10.6608 9.27309 10.704 9.28056 10.7429 9.27576L10.7461 9.28483L10.6869 9.31469L10.5376 9.18029L10.5451 9.17176Z" fill="#F3CD2D"/>
<path fill-rule="evenodd" clip-rule="evenodd" d="M10.8797 9.28748C10.925 9.31734 10.949 9.31041 10.9682 9.28001C10.9858 9.25228 10.9757 9.23201 10.9453 9.21174C10.9272 9.20108 10.9218 9.20694 10.9122 9.22348L10.8738 9.28481L10.8797 9.28748ZM10.9282 9.40801C10.9261 9.43414 10.924 9.45708 10.948 9.47468L10.9416 9.48374L10.8728 9.44001C10.8728 9.43041 10.8738 9.41868 10.8749 9.40908L10.8808 9.36268C10.8877 9.31574 10.8776 9.30561 10.8664 9.29814L10.8264 9.36108C10.8146 9.38134 10.8168 9.39254 10.8376 9.40588L10.8317 9.41441L10.7314 9.35094L10.7368 9.34028C10.757 9.35361 10.7682 9.35254 10.78 9.33228L10.8653 9.19468C10.8765 9.17601 10.8738 9.16481 10.8541 9.15148L10.86 9.14294L10.9805 9.21868C11.0221 9.24534 11.0338 9.28481 11.0146 9.31468C10.996 9.34561 10.9592 9.34294 10.9288 9.33174C10.9341 9.34294 10.933 9.35574 10.932 9.36748L10.9282 9.40801Z" fill="#F3CD2D"/>
<path fill-rule="evenodd" clip-rule="evenodd" d="M11.0671 9.3135C11.0767 9.29216 11.0729 9.28203 11.0511 9.27243L11.0559 9.26123L11.1636 9.3119L11.1593 9.32203C11.1375 9.3119 11.1257 9.31456 11.1177 9.3359L11.0511 9.48256C11.0415 9.50443 11.0463 9.5151 11.0671 9.5247L11.0633 9.53536L10.9551 9.4847L10.9599 9.4751C10.9817 9.4847 10.9919 9.4815 11.002 9.46016L11.0671 9.3135Z" fill="#F3CD2D"/>
<path fill-rule="evenodd" clip-rule="evenodd" d="M11.3324 9.44066H11.3175C11.3132 9.40599 11.2977 9.36386 11.2609 9.35266C11.2135 9.33719 11.1841 9.39479 11.1719 9.43213C11.1468 9.50946 11.1745 9.55373 11.2103 9.56546C11.2407 9.57506 11.2689 9.56013 11.2919 9.54146L11.2988 9.55053C11.2647 9.58199 11.2268 9.59799 11.1815 9.58359C11.1185 9.56279 11.0908 9.49559 11.11 9.43426C11.1303 9.36759 11.1953 9.31746 11.2609 9.33826C11.2727 9.34199 11.2807 9.34732 11.2876 9.35266C11.2945 9.35799 11.3004 9.36333 11.3063 9.36599C11.3153 9.36759 11.3249 9.36653 11.3324 9.36599L11.3361 9.36493L11.3324 9.44066Z" fill="#F3CD2D"/>
<path fill-rule="evenodd" clip-rule="evenodd" d="M11.4207 9.42088L11.3653 9.52061L11.4373 9.53394L11.4207 9.42088ZM11.4991 9.59208C11.5039 9.61661 11.5039 9.63368 11.5338 9.63954L11.5317 9.65074L11.4165 9.63208L11.4181 9.62141C11.4394 9.62408 11.4453 9.62035 11.4474 9.61021C11.4479 9.60328 11.4474 9.59741 11.4463 9.58994L11.4399 9.54995L11.3567 9.53661L11.3461 9.55528C11.3413 9.56434 11.3365 9.57288 11.3354 9.58248C11.3322 9.59901 11.3461 9.60808 11.361 9.61181L11.3583 9.62301L11.2725 9.60808L11.2741 9.59741C11.305 9.59421 11.3146 9.57821 11.329 9.55315L11.4202 9.39101L11.4709 9.38354L11.4991 9.59208Z" fill="#F3CD2D"/>
<path fill-rule="evenodd" clip-rule="evenodd" d="M11.8413 9.46406L11.8269 9.46939C11.8099 9.43846 11.7805 9.40592 11.7427 9.40752C11.6931 9.41072 11.6851 9.47526 11.6872 9.51526C11.6931 9.59526 11.7352 9.62726 11.7709 9.62512C11.8045 9.62299 11.8237 9.59792 11.8381 9.57232L11.8483 9.57819C11.828 9.62032 11.7987 9.64912 11.7507 9.65232C11.684 9.65606 11.6349 9.60219 11.6307 9.53926C11.6264 9.46939 11.6691 9.39846 11.7379 9.39366C11.7501 9.39366 11.7597 9.39579 11.7683 9.39792C11.7768 9.40059 11.7837 9.40272 11.7901 9.40219C11.7987 9.40112 11.8061 9.39739 11.8136 9.39259L11.8179 9.39099L11.8413 9.46406Z" fill="#F3CD2D"/>
<path fill-rule="evenodd" clip-rule="evenodd" d="M11.8887 9.62297C11.9122 9.61763 11.9191 9.60803 11.9127 9.58563L11.877 9.42777C11.8722 9.4059 11.861 9.40057 11.8386 9.4059L11.8364 9.3947L12.0311 9.34937L12.0647 9.4059L12.0562 9.41177C12.0279 9.38883 11.9884 9.3723 11.9516 9.38083C11.9228 9.3883 11.925 9.39737 11.9308 9.42243L11.9447 9.48483L11.9522 9.48377C11.9842 9.47683 11.9975 9.46723 12.0002 9.43257L12.0124 9.42883L12.0354 9.52323L12.0231 9.52643C12.006 9.4955 11.9879 9.49177 11.9554 9.49977L11.9495 9.50083L11.9655 9.56963C11.9698 9.5883 11.9735 9.60057 11.9975 9.59523C12.037 9.58617 12.0674 9.55523 12.086 9.52003L12.0951 9.52217L12.086 9.5883L11.8908 9.63417L11.8887 9.62297Z" fill="#F3CD2D"/>
<path fill-rule="evenodd" clip-rule="evenodd" d="M12.305 9.4197L12.2607 9.3173C12.249 9.29223 12.2404 9.2773 12.209 9.28903L12.2047 9.2773L12.2842 9.24316L12.2895 9.25276C12.2623 9.2709 12.2644 9.28316 12.2762 9.30983L12.3508 9.48156L12.3226 9.4933L12.1252 9.37223L12.1759 9.49116C12.1908 9.52423 12.1967 9.52956 12.2319 9.52156L12.2362 9.53223L12.1503 9.56956L12.1455 9.55996C12.1732 9.54183 12.1743 9.53063 12.161 9.50236L12.1007 9.36103C12.0884 9.35463 12.0719 9.3525 12.058 9.3557L12.0532 9.34503L12.13 9.31143L12.305 9.4197Z" fill="#F3CD2D"/>
<path fill-rule="evenodd" clip-rule="evenodd" d="M12.4616 9.11865L12.5139 9.16452L12.5059 9.17412C12.4782 9.16292 12.4371 9.15279 12.4104 9.17145L12.5171 9.32772C12.5294 9.34745 12.54 9.34959 12.5598 9.33465L12.5656 9.34425L12.4686 9.41199L12.4627 9.40239C12.4824 9.39012 12.4846 9.37839 12.4712 9.35919L12.3651 9.20185C12.3395 9.22372 12.3331 9.26052 12.3342 9.29252L12.3219 9.29732L12.2974 9.23172L12.4616 9.11865Z" fill="#F3CD2D"/>
<path fill-rule="evenodd" clip-rule="evenodd" d="M12.6201 9.12557C12.6596 9.08771 12.6586 9.06211 12.6334 9.03704C12.6099 9.01251 12.588 9.01731 12.5628 9.04291C12.5457 9.05784 12.5521 9.06584 12.565 9.07811L12.6158 9.12984L12.6201 9.12557ZM12.7474 9.10584C12.772 9.11331 12.7944 9.12024 12.8158 9.10211L12.8238 9.11011L12.765 9.16771C12.7548 9.16451 12.7452 9.16184 12.7351 9.15811L12.6923 9.14157C12.6484 9.12504 12.6356 9.13091 12.6265 9.14157L12.6778 9.19491C12.6949 9.21144 12.7056 9.21091 12.7222 9.19384L12.7302 9.20237L12.6457 9.28557L12.6377 9.27757C12.6543 9.26157 12.6543 9.24984 12.6398 9.23331L12.5281 9.11757C12.5109 9.10104 12.4992 9.10211 12.4831 9.11811L12.4751 9.11064L12.5767 9.00984C12.6131 8.97571 12.6521 8.97304 12.6778 8.99811C12.7024 9.02477 12.6923 9.05944 12.6735 9.08771C12.6853 9.08397 12.6981 9.08877 12.7088 9.09304L12.7474 9.10584Z" fill="#F3CD2D"/>
<path fill-rule="evenodd" clip-rule="evenodd" d="M12.7313 8.88389L12.7953 8.97935L12.8364 8.91855L12.7313 8.88389ZM12.9159 8.88762C12.9409 8.89562 12.9559 8.90255 12.9735 8.87909L12.9825 8.88602L12.9153 8.98095L12.9063 8.97455C12.9175 8.95589 12.9164 8.95055 12.9089 8.94362C12.9041 8.94042 12.8977 8.93829 12.8908 8.93615L12.8524 8.92335L12.8033 8.99269L12.8156 9.01135C12.8215 9.01882 12.8273 9.02789 12.8359 9.03322C12.8487 9.04282 12.8631 9.03375 12.8732 9.02255L12.8817 9.02949L12.83 9.10095L12.8215 9.09562C12.8316 9.06575 12.8225 9.04975 12.8065 9.02469L12.7036 8.87109L12.718 8.82202L12.9159 8.88762Z" fill="#F3CD2D"/>
<path fill-rule="evenodd" clip-rule="evenodd" d="M12.978 8.8661C12.9892 8.84264 12.986 8.8325 12.9652 8.82184L12.8222 8.74984C12.8014 8.7397 12.7908 8.74397 12.7806 8.76584L12.7705 8.76104L12.8233 8.65384L12.8334 8.6581C12.8222 8.67944 12.826 8.6917 12.8462 8.70077L12.9897 8.77277C13.0068 8.78077 13.0153 8.78557 13.026 8.76317C13.0441 8.72637 13.035 8.68264 13.0201 8.64637L13.027 8.6405L13.0777 8.68904L12.9881 8.8709L12.978 8.8661Z" fill="#F3CD2D"/>
<path fill-rule="evenodd" clip-rule="evenodd" d="M13.0038 8.52497C13.0086 8.5095 13.0267 8.4999 13.0416 8.50577C13.0587 8.51057 13.0662 8.5271 13.0614 8.54417C13.0566 8.56017 13.0384 8.56924 13.024 8.5639C13.0075 8.55857 12.999 8.5415 13.0038 8.52497Z" fill="#F3CD2D"/>
<path fill-rule="evenodd" clip-rule="evenodd" d="M10.2346 8.33962C10.226 8.28415 10.2052 8.27082 10.1711 8.27775C10.1375 8.28255 10.129 8.30335 10.1338 8.33855C10.1375 8.36042 10.1466 8.36042 10.1652 8.35775L10.2356 8.34549L10.2346 8.33962ZM10.2927 8.22389C10.3124 8.20789 10.3322 8.19402 10.329 8.16415L10.3402 8.16309L10.353 8.24575C10.345 8.25215 10.3354 8.25695 10.3274 8.26282L10.29 8.28895C10.2495 8.31562 10.2479 8.32949 10.2506 8.34335L10.3242 8.33109C10.3471 8.32842 10.353 8.31829 10.3492 8.29535L10.3604 8.29269L10.3786 8.41215L10.3679 8.41375C10.3636 8.38975 10.3556 8.38229 10.3332 8.38655L10.1748 8.41109C10.1514 8.41535 10.1455 8.42442 10.1492 8.44842L10.1386 8.45055L10.1167 8.30762C10.1092 8.25802 10.1311 8.22389 10.1652 8.21855C10.2015 8.21322 10.2234 8.24202 10.234 8.27295C10.2399 8.26175 10.2495 8.25429 10.2607 8.24735L10.2927 8.22389Z" fill="#F3CD2D"/>
<path fill-rule="evenodd" clip-rule="evenodd" d="M10.3306 8.15101C10.3317 8.12701 10.3237 8.11848 10.3008 8.11794L10.1413 8.11101C10.1178 8.10994 10.1098 8.11848 10.1098 8.14301L10.0986 8.14194L10.1061 7.94034L10.1685 7.92114L10.1728 7.93234C10.1429 7.95368 10.1178 7.98728 10.1168 8.02514C10.1157 8.05448 10.1253 8.05554 10.1488 8.05608L10.2144 8.05928V8.05181C10.2154 8.01928 10.2106 8.00381 10.1776 7.99101V7.97821L10.2741 7.98248V7.99528C10.2394 8.00328 10.2314 8.02034 10.2298 8.05181V8.05928L10.2992 8.06248C10.3184 8.06248 10.3317 8.06194 10.3328 8.03794C10.3344 7.99528 10.3125 7.95901 10.2826 7.93181L10.2874 7.92221L10.3488 7.94941L10.3413 8.15101H10.3306Z" fill="#F3CD2D"/>
<path fill-rule="evenodd" clip-rule="evenodd" d="M10.2486 7.80109L10.2539 7.78242C10.2619 7.74242 10.2518 7.72109 10.2139 7.71202C10.1787 7.70455 10.159 7.72055 10.1521 7.75149C10.1467 7.77762 10.1569 7.77975 10.1787 7.78615L10.2486 7.80109ZM10.2614 7.80375L10.3297 7.81869C10.3526 7.82509 10.3611 7.81815 10.367 7.79362L10.3771 7.79629L10.3515 7.91415L10.3403 7.91095C10.3462 7.88802 10.3403 7.87789 10.3185 7.87362L10.1622 7.83789C10.1398 7.83362 10.1307 7.83895 10.1259 7.86242L10.1147 7.86082L10.1409 7.74242C10.1569 7.66935 10.1937 7.64802 10.2251 7.65655C10.2849 7.66935 10.2774 7.72909 10.2678 7.77495L10.2614 7.80375Z" fill="#F3CD2D"/>
<path fill-rule="evenodd" clip-rule="evenodd" d="M10.3481 7.59893C10.4031 7.62293 10.426 7.6112 10.4404 7.57867C10.458 7.5328 10.4361 7.50827 10.3919 7.4896L10.2841 7.4448C10.2623 7.43627 10.2527 7.4416 10.2436 7.464L10.2329 7.45973L10.2644 7.38293L10.274 7.3872C10.2655 7.4096 10.2692 7.41973 10.29 7.42933L10.4004 7.47467C10.4532 7.49653 10.4724 7.53173 10.4479 7.592C10.4233 7.6544 10.3828 7.67307 10.3359 7.65387L10.2196 7.60587C10.1977 7.5968 10.1876 7.6016 10.1791 7.62453L10.1689 7.6192L10.2137 7.5088L10.2233 7.51307C10.2148 7.53493 10.218 7.54507 10.2399 7.5552L10.3481 7.59893Z" fill="#F3CD2D"/>
<path fill-rule="evenodd" clip-rule="evenodd" d="M10.4848 7.38703C10.5099 7.40303 10.5189 7.40997 10.5371 7.3801C10.5557 7.35343 10.5547 7.3241 10.5189 7.3017C10.4939 7.2857 10.4693 7.2809 10.4363 7.33317L10.4261 7.3497L10.4848 7.38703ZM10.4235 7.32517C10.4453 7.2889 10.4443 7.2649 10.4149 7.2473C10.3851 7.22863 10.3648 7.23983 10.3483 7.26703C10.344 7.2729 10.3397 7.28303 10.3403 7.28997C10.3429 7.29637 10.3493 7.3001 10.3541 7.30277L10.4139 7.34117L10.4235 7.32517ZM10.4827 7.48943L10.4736 7.4841C10.4859 7.46437 10.4837 7.45157 10.4651 7.4393L10.3301 7.3529C10.3109 7.34063 10.2997 7.3433 10.2875 7.36303L10.2773 7.35717L10.3419 7.25583C10.3883 7.18277 10.4203 7.18117 10.4453 7.19717C10.4736 7.21583 10.4693 7.25477 10.4581 7.2825V7.28303C10.4837 7.2553 10.5163 7.23023 10.5536 7.25477C10.5867 7.27557 10.5925 7.31397 10.5584 7.3689L10.4827 7.48943Z" fill="#F3CD2D"/>
<path fill-rule="evenodd" clip-rule="evenodd" d="M10.6082 7.27448C10.6247 7.25688 10.6247 7.24514 10.6071 7.23021L10.4893 7.12141C10.4711 7.10594 10.461 7.10701 10.4445 7.12461L10.437 7.11714L10.5165 7.02808L10.5245 7.03608C10.5085 7.05368 10.5085 7.06488 10.5255 7.08088L10.6434 7.18914C10.6583 7.20248 10.6653 7.20834 10.6818 7.18914C10.709 7.15928 10.7122 7.11608 10.7074 7.07608L10.7154 7.07234L10.7501 7.13261L10.6162 7.28248L10.6082 7.27448Z" fill="#F3CD2D"/>
<path fill-rule="evenodd" clip-rule="evenodd" d="M10.666 6.94115C10.6516 6.92355 10.6388 6.92302 10.6212 6.93848L10.6143 6.92995L10.7055 6.85315L10.7129 6.86168C10.6943 6.87822 10.6921 6.88782 10.7076 6.90702L10.8095 7.03075C10.8249 7.04888 10.8356 7.04888 10.8543 7.03395L10.8607 7.04142L10.7695 7.11875L10.7631 7.11022C10.7807 7.09422 10.7817 7.08408 10.7673 7.06542L10.666 6.94115Z" fill="#F3CD2D"/>
<path fill-rule="evenodd" clip-rule="evenodd" d="M10.9506 6.77236L10.9416 6.78463C10.9122 6.76489 10.8701 6.75049 10.8376 6.77076C10.796 6.79849 10.821 6.85876 10.8408 6.89183C10.8845 6.96116 10.9357 6.96703 10.9672 6.94623C10.9949 6.92969 11.0008 6.89876 11.0018 6.86889L11.0125 6.86943C11.0146 6.91529 11.0024 6.95476 10.9618 6.98143C10.9064 7.01716 10.8376 6.99476 10.804 6.93983C10.7666 6.88116 10.7693 6.79956 10.8285 6.76223C10.8376 6.75583 10.8477 6.75316 10.8557 6.75049C10.8637 6.74836 10.8712 6.74676 10.8765 6.74356C10.8845 6.73823 10.8888 6.73129 10.893 6.72383L10.8952 6.72009L10.9506 6.77236Z" fill="#F3CD2D"/>
<path fill-rule="evenodd" clip-rule="evenodd" d="M11.0675 6.68586L11.0707 6.8L11.1379 6.77226L11.0675 6.68586ZM11.2216 6.78986C11.2381 6.80906 11.2461 6.82453 11.2749 6.81333L11.2787 6.82453L11.1715 6.86826L11.1667 6.85813C11.1853 6.84906 11.1896 6.84373 11.1853 6.83413C11.1837 6.82826 11.1779 6.8224 11.1741 6.81706L11.1485 6.7856L11.0707 6.8176L11.0712 6.84053C11.0723 6.84906 11.0723 6.85973 11.0765 6.8688C11.0819 6.8848 11.0989 6.8848 11.1133 6.88L11.1176 6.89066L11.0355 6.9232L11.0317 6.91306C11.0563 6.89333 11.0563 6.87573 11.0563 6.8464L11.0504 6.6608L11.0899 6.6272L11.2216 6.78986Z" fill="#F3CD2D"/>
<path fill-rule="evenodd" clip-rule="evenodd" d="M11.4593 6.74531C11.4609 6.76984 11.462 6.77731 11.4919 6.77411C11.5329 6.76931 11.5607 6.74211 11.5505 6.65037C11.5409 6.56931 11.5084 6.55117 11.4641 6.55651C11.4385 6.55811 11.4401 6.56931 11.4412 6.58957L11.4593 6.74531ZM11.3767 6.78904C11.4007 6.78584 11.4076 6.77837 11.4049 6.75384L11.3879 6.59384C11.3852 6.57037 11.3767 6.56291 11.3527 6.56611L11.3511 6.55651L11.4663 6.54317C11.4871 6.54051 11.5052 6.54051 11.5228 6.54531C11.5665 6.55757 11.6028 6.59384 11.6087 6.65197C11.6151 6.70744 11.5879 6.75117 11.5495 6.77144C11.5329 6.77997 11.5137 6.78477 11.4924 6.78691L11.3788 6.79971L11.3767 6.78904Z" fill="#F3CD2D"/>
<path fill-rule="evenodd" clip-rule="evenodd" d="M11.6265 6.76253C11.6515 6.76466 11.6595 6.7572 11.6606 6.7332L11.6723 6.5716C11.6734 6.54973 11.6654 6.5412 11.6419 6.53906L11.643 6.52893L11.8414 6.54173L11.859 6.60573L11.8483 6.61C11.827 6.5796 11.795 6.55133 11.7566 6.54973C11.7273 6.54813 11.7273 6.55773 11.7257 6.5828L11.7219 6.64733H11.7273C11.7609 6.64946 11.7758 6.6452 11.7897 6.61266L11.8025 6.6132L11.7961 6.70973L11.7827 6.70866C11.7758 6.67453 11.7598 6.66493 11.7273 6.66386L11.7198 6.6628L11.7161 6.7332C11.7139 6.75293 11.715 6.76626 11.739 6.76733C11.7795 6.77106 11.8185 6.75026 11.8462 6.72093L11.8553 6.72626L11.8265 6.78706L11.6265 6.7732V6.76253Z" fill="#F3CD2D"/>
<path fill-rule="evenodd" clip-rule="evenodd" d="M12.1572 6.79942L12.1934 6.69329C12.202 6.66502 12.2052 6.64955 12.1742 6.63675L12.1774 6.62609L12.2612 6.65435L12.2564 6.66395C12.2249 6.65969 12.218 6.67142 12.2089 6.69915L12.1508 6.87622L12.122 6.86609L12.0558 6.64209L12.0142 6.76475C12.0041 6.79835 12.0052 6.80689 12.0356 6.82449L12.0324 6.83515L11.9438 6.80529L11.9465 6.79409C11.9785 6.79942 11.987 6.79195 11.9966 6.76475L12.0462 6.61702C12.0398 6.60315 12.0302 6.58982 12.0164 6.58395L12.0212 6.57275L12.1006 6.59995L12.1572 6.79942Z" fill="#F3CD2D"/>
<path fill-rule="evenodd" clip-rule="evenodd" d="M12.2981 6.72341C12.3093 6.70208 12.304 6.69141 12.2832 6.68128L12.2891 6.67114L12.3936 6.72554L12.3899 6.73514C12.368 6.72394 12.3568 6.72661 12.3472 6.74848L12.2757 6.89141C12.2645 6.91274 12.2693 6.92341 12.2896 6.93461L12.2853 6.94421L12.1792 6.89034L12.184 6.88021C12.2053 6.89088 12.2165 6.88821 12.2261 6.86794L12.2981 6.72341Z" fill="#F3CD2D"/>
<path fill-rule="evenodd" clip-rule="evenodd" d="M12.566 6.92038L12.5516 6.91505C12.558 6.88038 12.5542 6.83611 12.5228 6.81478C12.4806 6.78651 12.4364 6.83345 12.414 6.86598C12.3697 6.93265 12.3836 6.98331 12.414 7.00411C12.4412 7.02331 12.471 7.01638 12.4988 7.00465L12.503 7.01531C12.462 7.03611 12.4209 7.04145 12.3809 7.01318C12.327 6.97531 12.319 6.90385 12.3548 6.85051C12.3932 6.79238 12.4694 6.76251 12.5254 6.80091C12.5356 6.80785 12.5425 6.81638 12.5473 6.82331C12.5532 6.82971 12.558 6.83611 12.5628 6.83931C12.5702 6.84411 12.5782 6.84625 12.5873 6.84678H12.591L12.566 6.92038Z" fill="#F3CD2D"/>
<path fill-rule="evenodd" clip-rule="evenodd" d="M12.6912 6.99211L12.5888 7.04117L12.6406 7.09184L12.6912 6.99211ZM12.6587 7.17611C12.6464 7.19904 12.6368 7.21397 12.6587 7.23477L12.6502 7.24331L12.5675 7.16171L12.575 7.15371C12.5915 7.16757 12.5968 7.16811 12.6038 7.16117C12.6086 7.15637 12.6128 7.14944 12.6139 7.14411L12.6331 7.10784L12.5728 7.04757L12.5531 7.05824C12.5451 7.06197 12.535 7.06731 12.5286 7.07424C12.5174 7.08544 12.5232 7.10037 12.5328 7.11264L12.5254 7.11957L12.4619 7.05824L12.4699 7.05024C12.4987 7.06571 12.5142 7.05824 12.5408 7.04651L12.7067 6.96704L12.7531 6.98944L12.6587 7.17611Z" fill="#F3CD2D"/>
<path fill-rule="evenodd" clip-rule="evenodd" d="M12.8183 7.25677C12.8492 7.3021 12.8738 7.30637 12.9026 7.28557C12.9292 7.26743 12.9287 7.24343 12.9084 7.2141C12.8962 7.19597 12.8892 7.20077 12.8738 7.21037L12.8146 7.25037L12.8183 7.25677ZM12.8151 7.3869C12.8028 7.4093 12.7927 7.43063 12.8071 7.45517L12.798 7.46157L12.7516 7.3933C12.7554 7.38263 12.7618 7.3757 12.7666 7.36503L12.7895 7.32557C12.8146 7.28503 12.8092 7.2717 12.8023 7.25943L12.7404 7.3021C12.7207 7.31597 12.7202 7.32663 12.734 7.3469L12.725 7.35277L12.6572 7.2541L12.6668 7.2477C12.6802 7.26743 12.6908 7.26957 12.7095 7.25677L12.8418 7.1661C12.861 7.1533 12.8626 7.14103 12.8492 7.1213L12.8578 7.11597L12.9394 7.23437C12.9655 7.27543 12.9623 7.31597 12.9324 7.3357C12.902 7.3565 12.8695 7.3389 12.8482 7.31597C12.8482 7.32877 12.8402 7.33943 12.8343 7.35063L12.8151 7.3869Z" fill="#F3CD2D"/>
<path fill-rule="evenodd" clip-rule="evenodd" d="M13.0394 7.50311L12.9253 7.50631L12.953 7.57511L13.0394 7.50311ZM12.9376 7.65884C12.9168 7.67484 12.9029 7.68498 12.9136 7.71324L12.9034 7.71751L12.8586 7.60871L12.8698 7.60391C12.8778 7.62364 12.8832 7.62578 12.8933 7.62311C12.8986 7.62098 12.9045 7.61618 12.9093 7.61138L12.9408 7.58471L12.9093 7.50631L12.8864 7.50791C12.8778 7.50844 12.8666 7.50898 12.8586 7.51164C12.8437 7.51804 12.8426 7.53511 12.848 7.55004L12.8368 7.55324L12.8037 7.47111L12.8144 7.46631C12.833 7.49244 12.8512 7.49244 12.88 7.49191L13.0645 7.48551L13.0965 7.52498L12.9376 7.65884Z" fill="#F3CD2D"/>
<path fill-rule="evenodd" clip-rule="evenodd" d="M13.1189 7.89214L13.112 7.88147C13.1456 7.84414 13.1626 7.82014 13.1568 7.79027C13.1504 7.7572 13.1141 7.73107 13.0314 7.74867C12.9498 7.7652 12.9248 7.79614 12.9322 7.834C12.9402 7.8692 12.9669 7.8692 12.9968 7.86334C13.024 7.858 13.0245 7.85054 13.0208 7.82494L13.033 7.82227L13.0565 7.93374L13.0437 7.93587C13.0352 7.90974 13.0277 7.90814 13.0026 7.914L12.9541 7.92414C12.9488 7.90067 12.9488 7.89907 12.9381 7.87934C12.929 7.86334 12.9221 7.84947 12.9178 7.8324C12.904 7.76094 12.9429 7.70654 13.0112 7.6932C13.0784 7.67987 13.1536 7.71294 13.1685 7.78494C13.1717 7.79347 13.1706 7.8036 13.1696 7.81214C13.1685 7.81854 13.1674 7.826 13.1685 7.83294C13.1706 7.8404 13.1776 7.85214 13.1834 7.858L13.1189 7.89214Z" fill="#F3CD2D"/>
<path fill-rule="evenodd" clip-rule="evenodd" d="M13.0329 8.02397C12.9743 8.0245 12.9561 8.04424 12.9572 8.07997C12.9577 8.1285 12.9876 8.14344 13.0361 8.14237L13.1524 8.14024C13.1753 8.13917 13.1823 8.13117 13.1812 8.10664H13.1929L13.1951 8.19037H13.1833C13.1833 8.1653 13.1759 8.1573 13.1529 8.1573L13.0329 8.15997C12.9764 8.16157 12.9444 8.13597 12.9439 8.07144C12.9428 8.00317 12.9727 7.96957 13.0239 7.9685L13.1497 7.9669C13.1721 7.96637 13.178 7.95784 13.178 7.93384H13.1892L13.1919 8.05384H13.1812C13.1801 8.0293 13.1732 8.02237 13.1503 8.02237L13.0329 8.02397Z" fill="#F3CD2D"/>
<path fill-rule="evenodd" clip-rule="evenodd" d="M13.1387 8.3235L13.0395 8.26803L13.0289 8.34003L13.1387 8.3235ZM12.9713 8.40296C12.9457 8.40616 12.9275 8.4067 12.9233 8.4371L12.9126 8.4355L12.9302 8.31816L12.9414 8.3203C12.9393 8.34216 12.9419 8.3475 12.951 8.34856C12.9579 8.3507 12.9659 8.34856 12.9718 8.34803L13.0113 8.34323L13.0267 8.2579L13.0054 8.24723C12.9979 8.2435 12.9889 8.23816 12.9798 8.2371C12.9633 8.2339 12.9542 8.24776 12.9499 8.26323L12.9403 8.26056L12.9542 8.1731L12.9649 8.17523C12.9691 8.2067 12.9835 8.2163 13.0086 8.22963L13.1686 8.32296L13.1755 8.3731L12.9713 8.40296Z" fill="#F3CD2D"/>
</g>
<defs>
<clipPath id="clip0_4532_15515">
<rect width="23" height="16" fill="white"/>
</clipPath>
</defs>
</svg>
