<svg width="23" height="16" viewBox="0 0 23 16" fill="none" xmlns="http://www.w3.org/2000/svg">
<g clip-path="url(#clip0_4532_15521)">
<path d="M0 0H23V16H0V0Z" fill="white"/>
<path d="M8.51855 1.77783H23V3.55561H8.51855V1.77783Z" fill="#3E73B7"/>
<path d="M8.51855 5.3335H23V7.11127H8.51855V5.3335Z" fill="#3E73B7"/>
<path d="M0 8.88892H23V10.6667H0V8.88892Z" fill="#3E73B7"/>
<path d="M0 12.4443H23V14.2221H0V12.4443Z" fill="#3E73B7"/>
<path d="M4.25947 4.44456L4.34859 5.75309C3.18985 6.6281 3.89727 7.14553 3.07612 7.42561C3.62271 6.81519 2.90914 6.82426 3.53359 5.50666" fill="#FCD116"/>
<path d="M4.25947 4.44456L4.34859 5.75309C3.18985 6.6281 3.89727 7.14553 3.07612 7.42561C3.62271 6.81519 2.90914 6.82426 3.53359 5.50666" stroke="black" stroke-width="0.0586667" stroke-miterlimit="20"/>
<path d="M3.86514 5.43807C3.22583 6.53759 3.64511 7.14215 3.07624 7.42544" stroke="black" stroke-width="0.0586667" stroke-miterlimit="20"/>
<path d="M4.26006 4.4446L4.17094 3.13607C5.32968 2.26106 4.62226 1.74363 5.44341 1.46355C4.89682 2.07397 5.6104 2.0649 4.98594 3.3825" fill="#FCD116"/>
<path d="M4.26006 4.4446L4.17094 3.13607C5.32968 2.26106 4.62226 1.74363 5.44341 1.46355C4.89682 2.07397 5.6104 2.0649 4.98594 3.3825" stroke="black" stroke-width="0.0586667" stroke-miterlimit="20"/>
<path d="M4.65439 3.4506C5.2937 2.35108 4.87442 1.74653 5.44329 1.46323" stroke="black" stroke-width="0.0586667" stroke-miterlimit="20"/>
<path d="M4.259 4.44447L3.005 4.53746C2.16645 3.32835 1.67057 4.06653 1.40216 3.20968C1.98715 3.78003 1.97845 3.03543 3.24116 3.68703" fill="#FCD116"/>
<path d="M4.259 4.44447L3.005 4.53746C2.16645 3.32835 1.67057 4.06653 1.40216 3.20968C1.98715 3.78003 1.97845 3.03543 3.24116 3.68703" stroke="black" stroke-width="0.0586667" stroke-miterlimit="20"/>
<path d="M3.30717 4.03288C2.25347 3.36578 1.6741 3.80328 1.40261 3.20969" stroke="black" stroke-width="0.0586667" stroke-miterlimit="20"/>
<path d="M4.26004 4.44445L5.51405 4.35145C6.3526 5.56056 6.84847 4.82239 7.11688 5.67924C6.53189 5.10889 6.54059 5.85349 5.27789 5.20188" fill="#FCD116"/>
<path d="M4.26004 4.44445L5.51405 4.35145C6.3526 5.56056 6.84847 4.82239 7.11688 5.67924C6.53189 5.10889 6.54059 5.85349 5.27789 5.20188" stroke="black" stroke-width="0.0586667" stroke-miterlimit="20"/>
<path d="M5.21187 4.85604C6.26558 5.52314 6.84494 5.08563 7.11643 5.67923" stroke="black" stroke-width="0.0586667" stroke-miterlimit="20"/>
<path d="M4.25955 4.44374L3.43585 5.43476C2.02356 5.19852 2.17315 6.08637 1.40271 5.67853C2.20286 5.65019 1.69213 5.1301 3.02655 4.65917" fill="#FCD116"/>
<path d="M4.25955 4.44374L3.43585 5.43476C2.02356 5.19852 2.17315 6.08637 1.40271 5.67853C2.20286 5.65019 1.69213 5.1301 3.02655 4.65917" stroke="black" stroke-width="0.0586667" stroke-miterlimit="20"/>
<path d="M3.30709 4.85539C2.10995 5.16115 1.99675 5.898 1.40253 5.67858" stroke="black" stroke-width="0.0586667" stroke-miterlimit="20"/>
<path d="M4.25949 4.44371L5.08319 3.45269C6.49548 3.68893 6.34589 2.80109 7.11633 3.20892C6.31619 3.23726 6.82691 3.75735 5.49249 4.22828" fill="#FCD116"/>
<path d="M4.25949 4.44371L5.08319 3.45269C6.49548 3.68893 6.34589 2.80109 7.11633 3.20892C6.31619 3.23726 6.82691 3.75735 5.49249 4.22828" stroke="black" stroke-width="0.0586667" stroke-miterlimit="20"/>
<path d="M5.21147 4.03206C6.40861 3.7263 6.52181 2.98945 7.11603 3.20887" stroke="black" stroke-width="0.0586667" stroke-miterlimit="20"/>
<path d="M4.25909 4.44358L3.30936 3.58407C3.53576 2.11038 2.6849 2.26647 3.07575 1.46253C3.1029 2.29747 3.60132 1.76453 4.05264 3.15698" fill="#FCD116"/>
<path d="M4.25909 4.44358L3.30936 3.58407C3.53576 2.11038 2.6849 2.26647 3.07575 1.46253C3.1029 2.29747 3.60132 1.76454 4.05264 3.15698" stroke="black" stroke-width="0.0586667" stroke-miterlimit="20"/>
<path d="M3.86484 3.45003C3.57182 2.20085 2.86567 2.08272 3.07595 1.46267" stroke="black" stroke-width="0.0586667" stroke-miterlimit="20"/>
<path d="M4.25947 4.44362L5.2092 5.30313C4.9828 6.77683 5.83365 6.62074 5.44281 7.42467C5.41565 6.58974 4.91723 7.12267 4.46592 5.73023" fill="#FCD116"/>
<path d="M4.25947 4.44362L5.2092 5.30313C4.9828 6.77683 5.83365 6.62074 5.44281 7.42467C5.41565 6.58974 4.91723 7.12267 4.46592 5.73023" stroke="black" stroke-width="0.0586667" stroke-miterlimit="20"/>
<path d="M4.65371 5.43742C4.94674 6.68661 5.65288 6.80473 5.44261 7.42478" stroke="black" stroke-width="0.0586667" stroke-miterlimit="20"/>
<path d="M4.25949 4.44434H4.82171L4.25949 7.671L3.69727 4.44434H4.25949V7.671V4.44434Z" fill="#FCD116"/>
<path d="M4.25949 4.44434H4.82171L4.25949 7.671L3.69727 4.44434H4.25949ZM4.25949 4.44434V7.671" stroke="black" stroke-width="0.0586667" stroke-miterlimit="20"/>
<path d="M4.25956 4.44434H3.69733L4.25956 1.21767L4.82178 4.44434H4.25956V1.21767V4.44434Z" fill="#FCD116"/>
<path d="M4.25956 4.44434H3.69733L4.25956 1.21767L4.82178 4.44434H4.25956ZM4.25956 4.44434V1.21767" stroke="black" stroke-width="0.0586667" stroke-miterlimit="20"/>
<path d="M4.25928 4.44458V5.03124L1.16706 4.44458L4.25928 3.85791V4.44458H1.16706H4.25928Z" fill="#FCD116"/>
<path d="M4.25928 4.44458V5.03124L1.16706 4.44458L4.25928 3.85791V4.44458ZM4.25928 4.44458H1.16706" stroke="black" stroke-width="0.0586667" stroke-miterlimit="20"/>
<path d="M4.25928 4.44458V3.85792L7.3515 4.44458L4.25928 5.03125V4.44458H7.3515H4.25928Z" fill="#FCD116"/>
<path d="M4.25928 4.44458V3.85792L7.3515 4.44458L4.25928 5.03125V4.44458ZM4.25928 4.44458H7.3515" stroke="black" stroke-width="0.0586667" stroke-miterlimit="20"/>
<path d="M4.25937 4.44462L4.65692 4.85946L2.07284 6.72622L3.86182 4.02979L4.25937 4.44462L2.07284 6.72622L4.25937 4.44462Z" fill="#FCD116"/>
<path d="M4.25937 4.44462L4.65692 4.85946L2.07284 6.72622L3.86182 4.02979L4.25937 4.44462ZM4.25937 4.44462L2.07284 6.72622" stroke="black" stroke-width="0.0586667" stroke-miterlimit="20"/>
<path d="M4.25968 4.44454L3.86212 4.0297L6.44621 2.16294L4.65723 4.85938L4.25968 4.44454L6.44621 2.16294L4.25968 4.44454Z" fill="#FCD116"/>
<path d="M4.25968 4.44454L3.86212 4.0297L6.44621 2.16294L4.65723 4.85938L4.25968 4.44454ZM4.25968 4.44454L6.44621 2.16294" stroke="black" stroke-width="0.0586667" stroke-miterlimit="20"/>
<path d="M4.25919 4.44462L3.86164 4.85946L2.07266 2.16302L4.65674 4.02979L4.25919 4.44462L2.07266 2.16302L4.25919 4.44462Z" fill="#FCD116"/>
<path d="M4.25919 4.44462L3.86164 4.85946L2.07266 2.16302L4.65674 4.02979L4.25919 4.44462ZM4.25919 4.44462L2.07266 2.16302" stroke="black" stroke-width="0.0586667" stroke-miterlimit="20"/>
<path d="M4.25937 4.44454L4.65692 4.0297L6.4459 6.72614L3.86182 4.85938L4.25937 4.44454L6.4459 6.72614L4.25937 4.44454Z" fill="#FCD116"/>
<path d="M4.25937 4.44454L4.65692 4.0297L6.4459 6.72614L3.86182 4.85938L4.25937 4.44454ZM4.25937 4.44454L6.4459 6.72614" stroke="black" stroke-width="0.0586667" stroke-miterlimit="20"/>
<path d="M4.25926 5.52001C4.82852 5.52001 5.29 5.03846 5.29 4.44445C5.29 3.85044 4.82852 3.3689 4.25926 3.3689C3.68999 3.3689 3.22852 3.85044 3.22852 4.44445C3.22852 5.03846 3.68999 5.52001 4.25926 5.52001Z" fill="#FCD116" stroke="black" stroke-width="0.0586667" stroke-miterlimit="20"/>
<path d="M5.01875 4.01421C4.95316 4.09243 4.91568 3.95554 4.68142 3.95554C4.44716 3.95554 4.40968 4.10221 4.3722 4.07287C4.33471 4.04354 4.56897 3.86754 4.64394 3.85776C4.7189 3.84798 4.93442 3.92621 5.01875 4.01421ZM4.74701 4.10221C4.8126 4.16087 4.75638 4.28798 4.69079 4.28798C4.6252 4.28798 4.50338 4.17065 4.5596 4.09243" fill="black"/>
<path d="M4.74701 4.10221C4.8126 4.16087 4.75638 4.28798 4.69079 4.28798C4.6252 4.28798 4.50338 4.17065 4.5596 4.09243M5.01875 4.01421C4.95316 4.09243 4.91568 3.95554 4.68142 3.95554C4.44716 3.95554 4.40968 4.10221 4.3722 4.07287C4.33471 4.04354 4.56897 3.86754 4.64394 3.85776C4.7189 3.84798 4.93442 3.92621 5.01875 4.01421Z" stroke="black" stroke-width="0.00586667" stroke-miterlimit="20"/>
<path d="M4.4375 4.19011C4.44687 4.07278 4.54057 4.05322 4.6905 4.05322C4.84043 4.05322 4.90602 4.17056 4.96224 4.19989C4.89665 4.19989 4.84043 4.10211 4.6905 4.10211C4.54057 4.10211 4.54057 4.10211 4.4375 4.19989" fill="black"/>
<path d="M4.4375 4.19011C4.44687 4.07278 4.54057 4.05322 4.6905 4.05322C4.84043 4.05322 4.90602 4.17056 4.96224 4.19989C4.89665 4.19989 4.84043 4.10211 4.6905 4.10211C4.54057 4.10211 4.54057 4.10211 4.4375 4.19989" stroke="black" stroke-width="0.00586667" stroke-miterlimit="20"/>
<path d="M4.46556 4.21947C4.50304 4.16081 4.54989 4.27814 4.65296 4.27814C4.75604 4.27814 4.81226 4.24881 4.87785 4.19992C4.94345 4.15103 4.78415 4.31725 4.68108 4.31725C4.578 4.31725 4.43745 4.25858 4.46556 4.21947Z" fill="black" stroke="black" stroke-width="0.00586667" stroke-miterlimit="20"/>
<path d="M4.78448 4.27806C4.9063 4.20962 4.83134 4.11184 4.78448 4.09229C4.80322 4.11184 4.87819 4.20962 4.78448 4.27806ZM4.25974 4.86473C4.31596 4.86473 4.33471 4.84517 4.40967 4.84517C4.48463 4.84517 4.66267 4.95273 4.76574 4.91362C4.55022 5.00162 4.63456 4.94295 4.25974 4.94295H4.21289" fill="black"/>
<path d="M4.25974 4.86473C4.31596 4.86473 4.33471 4.84517 4.40967 4.84517C4.48463 4.84517 4.66267 4.95273 4.76574 4.91362C4.55022 5.00162 4.63456 4.94295 4.25974 4.94295H4.21289M4.78448 4.27806C4.9063 4.20962 4.83134 4.11184 4.78448 4.09229C4.80322 4.11184 4.87819 4.20962 4.78448 4.27806Z" stroke="black" stroke-width="0.00586667" stroke-miterlimit="20"/>
<path d="M4.80327 5.00166C4.76579 4.93321 4.77516 4.95277 4.7002 4.84521C4.77516 4.90388 4.7939 4.93321 4.80327 5.00166Z" fill="black" stroke="black" stroke-width="0.00586667" stroke-miterlimit="20"/>
<path d="M4.25974 5.09961C4.494 5.09961 4.45652 5.05072 4.76574 4.91383C4.54085 4.94316 4.494 5.02138 4.25974 5.02138H4.21289M4.25974 4.73783C4.32534 4.73783 4.34408 4.68894 4.41904 4.68894C4.494 4.68894 4.59708 4.71827 4.64393 4.75738C4.6533 4.76716 4.61582 4.67916 4.54085 4.66938C4.46589 4.65961 4.494 4.5325 4.40967 4.51294C4.40967 4.55205 4.43778 4.54227 4.44715 4.60094C4.44715 4.64983 4.36282 4.64983 4.34408 4.60094C4.36282 4.67916 4.30659 4.67916 4.25974 4.67916H4.241" fill="black"/>
<path d="M4.25974 5.09961C4.494 5.09961 4.45652 5.05072 4.76574 4.91383C4.54085 4.94316 4.494 5.02138 4.25974 5.02138H4.21289M4.25974 4.73783C4.32534 4.73783 4.34408 4.68894 4.41904 4.68894C4.494 4.68894 4.59708 4.71827 4.64393 4.75738C4.6533 4.76716 4.61582 4.67916 4.54085 4.66938C4.46589 4.65961 4.494 4.5325 4.40967 4.51294C4.40967 4.55205 4.43778 4.54227 4.44715 4.60094C4.44715 4.64983 4.36282 4.64983 4.34408 4.60094C4.36282 4.67916 4.30659 4.67916 4.25974 4.67916H4.241" stroke="black" stroke-width="0.00586667" stroke-miterlimit="20"/>
<path d="M3.4998 4.01421C3.5654 4.09243 3.60288 3.95554 3.83714 3.95554C4.0714 3.95554 4.10888 4.10221 4.14636 4.07287C4.18384 4.04354 3.94958 3.86754 3.87462 3.85776C3.79966 3.84798 3.58414 3.92621 3.4998 4.01421ZM3.77154 4.10221C3.70595 4.16087 3.76217 4.28798 3.82777 4.28798C3.89336 4.28798 4.01517 4.17065 3.95895 4.09243" fill="black"/>
<path d="M3.77154 4.10221C3.70595 4.16087 3.76217 4.28798 3.82777 4.28798C3.89336 4.28798 4.01517 4.17065 3.95895 4.09243M3.4998 4.01421C3.5654 4.09243 3.60288 3.95554 3.83714 3.95554C4.0714 3.95554 4.10888 4.10221 4.14636 4.07287C4.18384 4.04354 3.94958 3.86754 3.87462 3.85776C3.79966 3.84798 3.58414 3.92621 3.4998 4.01421Z" stroke="black" stroke-width="0.00586667" stroke-miterlimit="20"/>
<path d="M4.08057 4.19011C4.0712 4.07278 3.97749 4.05322 3.82757 4.05322C3.67764 4.05322 3.61205 4.17056 3.55583 4.19989C3.62142 4.19989 3.67764 4.10211 3.82757 4.10211C3.97749 4.10211 3.97749 4.10211 4.08057 4.19989" fill="black"/>
<path d="M4.08057 4.19011C4.0712 4.07278 3.97749 4.05322 3.82757 4.05322C3.67764 4.05322 3.61205 4.17056 3.55583 4.19989C3.62142 4.19989 3.67764 4.10211 3.82757 4.10211C3.97749 4.10211 3.97749 4.10211 4.08057 4.19989" stroke="black" stroke-width="0.00586667" stroke-miterlimit="20"/>
<path d="M4.053 4.21947C4.01552 4.16081 3.96866 4.27814 3.86559 4.27814C3.76252 4.27814 3.70629 4.24881 3.6407 4.19992C3.57511 4.15103 3.7344 4.31725 3.83748 4.31725C3.94055 4.31725 4.08111 4.25858 4.053 4.21947Z" fill="black" stroke="black" stroke-width="0.00586667" stroke-miterlimit="20"/>
<path d="M3.73407 4.27806C3.61226 4.20962 3.68722 4.11184 3.73407 4.09229C3.71533 4.11184 3.64037 4.20962 3.73407 4.27806ZM4.25881 4.86473C4.20259 4.86473 4.18385 4.84517 4.10889 4.84517C4.03392 4.84517 3.85589 4.95273 3.75281 4.91362C3.96833 5.00162 3.884 4.94295 4.25881 4.94295H4.30566" fill="black"/>
<path d="M4.25881 4.86473C4.20259 4.86473 4.18385 4.84517 4.10889 4.84517C4.03392 4.84517 3.85589 4.95273 3.75281 4.91362C3.96833 5.00162 3.884 4.94295 4.25881 4.94295H4.30566M3.73407 4.27806C3.61226 4.20962 3.68722 4.11184 3.73407 4.09229C3.71533 4.11184 3.64037 4.20962 3.73407 4.27806Z" stroke="black" stroke-width="0.00586667" stroke-miterlimit="20"/>
<path d="M3.71577 5.00166C3.75326 4.93321 3.74388 4.95277 3.81885 4.84521C3.74388 4.90388 3.72514 4.93321 3.71577 5.00166Z" fill="black" stroke="black" stroke-width="0.00586667" stroke-miterlimit="20"/>
<path d="M4.25881 5.09936C4.02455 5.09936 4.06203 5.05047 3.75281 4.91358C3.9777 4.94292 4.02455 5.02114 4.25881 5.02114H4.30566M4.25881 4.73758C4.19322 4.73758 4.17448 4.6887 4.09952 4.6887C4.02455 4.6887 3.92148 4.71803 3.87463 4.75714C3.86526 4.76692 3.90274 4.67892 3.9777 4.66914C4.05266 4.65936 4.02455 4.53225 4.10889 4.5127C4.10889 4.55181 4.08078 4.54203 4.0714 4.6007C4.0714 4.64958 4.15574 4.64958 4.17448 4.6007C4.15574 4.67892 4.21196 4.67892 4.25881 4.67892H4.27755" fill="black"/>
<path d="M4.25881 5.09936C4.02455 5.09936 4.06203 5.05047 3.75281 4.91358C3.9777 4.94292 4.02455 5.02114 4.25881 5.02114H4.30566M4.25881 4.73758C4.19322 4.73758 4.17448 4.6887 4.09952 4.6887C4.02455 4.6887 3.92148 4.71803 3.87463 4.75714C3.86526 4.76692 3.90274 4.67892 3.9777 4.66914C4.05266 4.65936 4.02455 4.53225 4.10889 4.5127C4.10889 4.55181 4.08078 4.54203 4.0714 4.6007C4.0714 4.64958 4.15574 4.64958 4.17448 4.6007C4.15574 4.67892 4.21196 4.67892 4.25881 4.67892H4.27755" stroke="black" stroke-width="0.00586667" stroke-miterlimit="20"/>
<path d="M4.25935 5.1875C4.2125 5.1875 4.09068 5.21683 4.25935 5.21683C4.42802 5.21683 4.3062 5.1875 4.25935 5.1875Z" fill="black" stroke="black" stroke-width="0.00586667" stroke-miterlimit="20"/>
</g>
<defs>
<clipPath id="clip0_4532_15521">
<rect width="23" height="16" rx="2" fill="white"/>
</clipPath>
</defs>
</svg>
