<svg width="72" height="72" viewBox="0 0 72 72" fill="none" xmlns="http://www.w3.org/2000/svg">
<circle cx="36" cy="36" r="35" fill="#2FD74D" stroke="#DBDBDB" stroke-width="2"/>
<path fill-rule="evenodd" clip-rule="evenodd" d="M28.4939 47.1899C28.4939 47.1899 31.9416 49.4929 36.2487 49.4929C44.0198 49.4929 50.3197 43.2603 50.3197 35.5721C50.3197 27.8839 44.0198 21.6514 36.2487 21.6514C28.4775 21.6514 22.1777 27.8839 22.1777 35.5721C22.1777 40.0746 24.9199 43.8303 24.9199 43.8303L23.2033 48.8979L28.4939 47.1899ZM19.4977 35.5724C19.4977 26.4197 26.9974 19 36.2488 19C45.5002 19 53 26.4197 53 35.5724C53 44.725 45.5002 52.1447 36.2488 52.1447C31.586 52.1447 28.1786 50.0981 28.1786 50.0981L19 53L21.9285 44.1751C21.9285 44.1751 19.4977 40.1149 19.4977 35.5724ZM41.1739 37.5059C41.7381 37.7613 44.4826 39.0764 44.4826 39.0764C44.4826 39.0764 44.8172 39.1333 44.8363 39.5022C44.8383 39.5408 44.8426 39.5876 44.8476 39.6415C44.8901 40.1021 44.981 41.0865 44.0905 42.0375C43.0958 43.0998 40.9802 43.5915 39.9787 43.3144C39.9425 43.3044 39.9033 43.2936 39.8612 43.2821C38.7391 42.9739 35.5872 42.1082 33.5053 40.1876C31.3455 38.1949 29.5964 36.0974 28.8808 34.5506C28.1653 33.0037 28.2051 32.086 28.2448 31.6534C28.2846 31.2208 28.5144 29.2163 29.8703 28.357C29.8703 28.357 30.3229 28.0732 30.5588 28.0732H31.8785C31.8785 28.0732 32.2324 28.1342 32.3949 28.4989C32.5574 28.8637 33.6701 31.45 33.7528 31.6495C33.7544 31.6534 33.7561 31.6574 33.7578 31.6615C33.8438 31.8682 34.0447 32.3512 33.705 32.7848C33.3586 33.227 32.634 34.0525 32.634 34.0525C32.634 34.0525 32.3471 34.308 32.5957 34.7148C32.8443 35.1216 33.7187 36.4636 34.8622 37.4775C36.0057 38.4914 37.4061 39.2372 38.1041 39.4643C38.7445 39.6725 38.9262 39.435 39.1585 39.1315C39.1794 39.1041 39.2008 39.0762 39.2229 39.048C39.4908 38.7074 40.3228 37.6667 40.3228 37.6667C40.3228 37.6667 40.6097 37.2505 41.1739 37.5059Z" fill="#FEFEFE"/>

  <metadata>
    © 2025 Claro. Todos os direitos reservados - CNPJ: 40.432.544/0001-47
  </metadata>
</svg>
