<svg width="32" height="32" viewBox="0 0 32 32" fill="none" xmlns="http://www.w3.org/2000/svg">
<circle cx="16" cy="16" r="15.5" fill="#2FD74D" stroke="#DBDBDB"/>
<path d="M16.1094 8.44434C20.221 8.44434 23.5544 11.7419 23.5547 15.8096C23.5547 19.8774 20.2211 23.1758 16.1094 23.1758C14.0372 23.1757 12.5225 22.2656 12.5225 22.2656L8.44336 23.5557L9.74512 19.6338C9.74512 19.6338 8.66504 17.8285 8.66504 15.8096C8.6653 11.7421 11.998 8.44451 16.1094 8.44434ZM16.1094 9.62305C12.6558 9.62319 9.85566 12.3928 9.85547 15.8096C9.85547 17.8046 11.0669 19.4704 11.0742 19.4805L10.3115 21.7324L12.6631 20.9736C12.6778 20.9834 14.2045 21.997 16.1094 21.9971C19.5632 21.9971 22.3633 19.2266 22.3633 15.8096C22.3631 12.3927 19.5631 9.62305 16.1094 9.62305ZM14.168 12.4766C14.168 12.4766 14.3252 12.5041 14.3975 12.666C14.4696 12.8281 14.9637 13.9766 15.001 14.0664C15.0378 14.1551 15.1344 14.3748 14.9805 14.5713C14.8265 14.7678 14.5039 15.1348 14.5039 15.1348C14.4984 15.1398 14.3793 15.2521 14.4873 15.4287C14.5978 15.6096 14.9861 16.2057 15.4941 16.6562C16.0024 17.1069 16.6253 17.4391 16.9355 17.54C17.2455 17.6406 17.3137 17.5058 17.4326 17.3545C17.5497 17.2056 17.9082 16.7571 17.9209 16.7412C17.9209 16.7412 18.0491 16.5554 18.2998 16.6689C18.5508 16.7826 19.7705 17.3672 19.7705 17.3672C19.7793 17.3688 19.9195 17.3978 19.9277 17.5566C19.9363 17.7208 20.0377 18.2116 19.5957 18.6836C19.1536 19.1555 18.2137 19.3739 17.7686 19.251C17.3234 19.1278 15.8516 18.7468 14.8916 17.8613C13.9317 16.9757 13.154 16.043 12.8359 15.3555C12.5181 14.6683 12.5361 14.2607 12.5537 14.0684C12.5714 13.8761 12.6731 12.9855 13.2754 12.6035C13.2754 12.6035 13.4772 12.4766 13.582 12.4766H14.168Z" fill="#FEFEFE"/>

  <metadata>
    © 2025 Claro. Todos os direitos reservados - CNPJ: 40.432.544/0001-47
  </metadata>
</svg>
