<svg width="500" height="360" xmlns="http://www.w3.org/2000/svg"><g fill="none" fill-rule="evenodd"><path d="M159.899 111.078a3.176 3.176 0 0 1-3.18 3.175 3.176 3.176 0 0 1-3.178-3.175 3.176 3.176 0 0 1 3.179-3.174 3.176 3.176 0 0 1 3.179 3.174" fill="#FFF"/><path d="M159.899 111.078a3.176 3.176 0 0 1-3.18 3.175 3.176 3.176 0 0 1-3.178-3.175 3.176 3.176 0 0 1 3.179-3.174 3.176 3.176 0 0 1 3.179 3.174zM37.064 208.182h10.178" stroke="#212121" stroke-width=".5" stroke-linecap="round" stroke-linejoin="round"/><path d="M131.367 201.315c0-3.792-3.079-6.866-6.877-6.866H13.877c-3.782 0-6.877 3.09-6.877 6.866 0 3.777 3.095 6.867 6.877 6.867h24.102s3.527.32 3.55 4.696h-.017l-.003.578.006-.001c.018 2.867 2.37 5.208 5.246 5.208h100.778c2.887 0 5.249-2.359 5.249-5.24 0-2.883-2.362-5.241-5.249-5.241h-9.295c-3.741 0-6.784-2.983-6.875-6.695l-.002-.172z" fill="#D3D3D3"/><path d="M131.367 201.315c0-3.792-3.079-6.866-6.877-6.866H13.877c-3.782 0-6.877 3.09-6.877 6.866 0 3.777 3.095 6.867 6.877 6.867h24.102s3.527.32 3.55 4.696h-.017l-.003.578.006-.001c.018 2.867 2.37 5.208 5.246 5.208h100.778c2.887 0 5.249-2.359 5.249-5.24 0-2.883-2.362-5.241-5.249-5.241h-9.295c-3.741 0-6.784-2.983-6.875-6.695l-.002-.172zm-8.069 6.867h19.415m-105.489 0h12.584" stroke="#212121" stroke-width=".5" stroke-linecap="round" stroke-linejoin="round"/><path d="m54.671 208.027.1.162c-.12-.007-.194-.007-.194-.007l-.405-.155h.5zm97.86 5.08c-1.774 3.574-8.22 3.11-8.22 3.11H98.333c.004.003.01.005.012.008H63.711s-5.673-.885-5.673-4.542c0-3.433 3.094-3.645 3.094-3.645v-.011H94.05a27.79 27.79 0 0 0 1.47 0l40.478.011c-2.138-.718-3.432-2.337-3.848-3.048-1.235-1.911-1.029-4.198-1.029-4.198 0 3.096-3.367 3.971-5.683 4.21l-42.14.079.015.012h-68.72s-4.95.623-7.335-4.184c0 0-.323 2.655 1.352 4.509 0 0 1.834 2.815 5.846 2.609h35.528a.26.26 0 0 1 .078.155c0 .36-.734.251-.734.251h-9.879s2.363.962 2.327 4.681c0 0-.239 1.975 1.007 3.354 0 0 1.364 2.094 4.347 1.94h59.203c.494.012.874.007 1.093 0h31.382l-.03-.008h8.321c2.983.154 4.347-1.941 4.347-1.941 1.246-1.379 1.084-3.353 1.084-3.353z" fill="#212121"/><path stroke="#212121" stroke-width=".5" stroke-linecap="round" stroke-linejoin="round" d="M52.766 208.182h2.59m65.327-52.473H49.428m110.376-17.085h11.975m-28.072 36.777H74.229m171.724-25.922h50.453m119.175 26.155h12.276m-210.22-60.412H187.74m47.862 41.582h33.58m150.423 48.479h49.688m-289.284-29.649h-29.455m228.184 56.606H336.67m75.071 36.055h-21.79m102.822-63.468h-11.195"/><path fill="#FFF" d="m335.65 219.9-102.277-46.3-104.738 44.386 101.218 45.637z"/><path stroke="#212121" stroke-width=".5" stroke-linecap="round" stroke-linejoin="round" d="m335.65 219.9-102.277-46.3-104.738 44.386 101.218 45.637z"/><path fill="#212121" d="m318.266 219.683-85.1-38.523-87.146 36.932 84.218 37.97z"/><path stroke="#212121" stroke-width=".5" stroke-linecap="round" stroke-linejoin="round" d="m318.266 219.683-85.1-38.523-87.146 36.932 84.218 37.97z"/><path fill="#D3D3D3" d="m309.373 223.404-76.313-34.546-78.147 33.119 75.52 34.05z"/><path stroke="#212121" stroke-width=".5" stroke-linecap="round" stroke-linejoin="round" d="m309.373 223.404-76.313-34.546-78.147 33.119 75.52 34.05z"/><path fill="#212121" d="m335.367 219.91-105.514 43.713-100.945-45.62-.272.067-.001 95.68 12.632 5.688 1.41-.584 73.225 33.344v.369l13.95 6.718 17.547-7.062v-1.191l73.223-30.335 1.41.607 13.619-5.642-.003-95.675z"/><path fill="#FFF" d="M229.945 359.429V263.56l-101.31-45.49v95.68"/><path stroke="#212121" stroke-width=".5" stroke-linecap="round" stroke-linejoin="round" d="M229.945 360v-96.44l-101.31-45.49v97.394"/><path fill="#FFFD77" d="M215.901 287.956v-12.378L142.68 242.7l-.001 12.24z"/><path stroke="#212121" stroke-width=".5" stroke-linecap="round" stroke-linejoin="round" d="M215.901 287.956v-12.378L142.68 242.7l-.001 12.24z"/><path fill="#FFF" d="m142.678 254.94 2.822 1.273v-12.246l-2.822-1.268z"/><path stroke="#212121" stroke-width=".5" stroke-linecap="round" stroke-linejoin="round" d="m142.678 254.94 2.822 1.273v-12.246l-2.822-1.268z"/><path fill="#212121" d="m141.267 320.61 1.41-.584V242.78l-1.41-.588z"/><path fill="#FFF" d="m322.033 321.123-1.41-.584v-77.054l1.41-.59z"/><path stroke="#212121" stroke-width=".5" stroke-linecap="round" stroke-linejoin="round" d="m322.033 321.123-1.41-.584v-77.054l1.41-.59z"/><path fill="#FFF" d="M215.901 287.956v-2.923L145.6 253.466l-2.921 1.474z"/><path stroke="#212121" stroke-width=".5" stroke-linecap="round" stroke-linejoin="round" d="M215.901 287.956v-2.923L145.6 253.466l-2.921 1.474z"/><path fill="#FFFD77" d="M215.901 313.245v-12.378L142.68 267.99l-.001 12.24z"/><path stroke="#212121" stroke-width=".5" stroke-linecap="round" stroke-linejoin="round" d="M215.901 313.245v-12.378L142.68 267.99l-.001 12.24z"/><path fill="#FFF" d="m142.678 280.23 2.822 1.271v-12.246l-2.822-1.267z"/><path stroke="#212121" stroke-width=".5" stroke-linecap="round" stroke-linejoin="round" d="m142.678 280.23 2.822 1.271v-12.246l-2.822-1.267z"/><path fill="#FFF" d="M215.901 313.245v-2.923L145.6 278.755l-2.921 1.474z"/><path stroke="#212121" stroke-width=".5" stroke-linecap="round" stroke-linejoin="round" d="M215.901 313.245v-2.923L145.6 278.755l-2.921 1.474z"/><path fill="#FFFD77" d="M215.901 338.534v-12.378l-73.222-32.878-.001 12.24z"/><path stroke="#212121" stroke-width=".5" stroke-linecap="round" stroke-linejoin="round" d="M215.901 338.534v-12.378l-73.222-32.878-.001 12.24z"/><path fill="#FFFD77" d="M320.622 293.962v12.378L247.4 337.518v-12.241z"/><path stroke="#212121" stroke-width=".5" stroke-linecap="round" stroke-linejoin="round" d="M320.622 293.962v12.378L247.4 337.518v-12.241z"/><path fill="#FFFD77" d="M320.622 268.673v12.378L247.4 312.229v-12.241z"/><path stroke="#212121" stroke-width=".5" stroke-linecap="round" stroke-linejoin="round" d="M320.622 268.673v12.378L247.4 312.229v-12.241z"/><path fill="#FFFD77" d="M320.622 243.384v12.378L247.4 286.94v-12.241z"/><path stroke="#212121" stroke-width=".5" stroke-linecap="round" stroke-linejoin="round" d="M320.622 243.384v12.378L247.4 286.94v-12.241z"/><path fill="#FFF" d="m142.678 305.518 2.822 1.272v-12.246l-2.822-1.267z"/><path stroke="#212121" stroke-width=".5" stroke-linecap="round" stroke-linejoin="round" d="m142.678 305.518 2.822 1.272v-12.246l-2.822-1.267z"/><path fill="#FFF" d="M215.901 338.534v-2.923L145.6 304.044l-2.921 1.474z"/><path stroke="#212121" stroke-width=".5" stroke-linecap="round" stroke-linejoin="round" d="M215.901 338.534v-2.923L145.6 304.044l-2.921 1.474z"/><path fill="#FFF" d="m320.248 256.046-2.822 1.272v-12.246l2.822-1.267z"/><path stroke="#212121" stroke-width=".5" stroke-linecap="round" stroke-linejoin="round" d="m320.248 256.046-2.822 1.272v-12.246l2.822-1.267z"/><path fill="#FFF" d="M247.399 286.844v-2.924l69.928-29.35 2.921 1.476z"/><path stroke="#212121" stroke-width=".5" stroke-linecap="round" stroke-linejoin="round" d="M247.399 286.844v-2.924l69.928-29.35 2.921 1.476z"/><path fill="#FFF" d="m320.248 281.172-2.822 1.272v-12.246l2.822-1.267z"/><path stroke="#212121" stroke-width=".5" stroke-linecap="round" stroke-linejoin="round" d="m320.248 281.172-2.822 1.272v-12.246l2.822-1.267z"/><path fill="#FFF" d="M247.399 311.97v-2.923l69.928-29.35 2.921 1.476z"/><path stroke="#212121" stroke-width=".5" stroke-linecap="round" stroke-linejoin="round" d="M247.399 311.97v-2.923l69.928-29.35 2.921 1.476z"/><path fill="#FFF" d="m320.248 306.461-2.822 1.272v-12.246l2.822-1.267z"/><path stroke="#212121" stroke-width=".5" stroke-linecap="round" stroke-linejoin="round" d="m320.248 306.461-2.822 1.272v-12.246l2.822-1.267z"/><path fill="#FFF" d="M247.399 337.26v-2.924l69.928-29.35 2.921 1.476z"/><path stroke="#212121" stroke-width=".5" stroke-linecap="round" stroke-linejoin="round" d="M247.399 337.26v-2.924l69.928-29.35 2.921 1.476zm-17.454-55.391-101.31-45.501m87.266 39.211v79.847"/><path stroke="#FFF3EF" stroke-width=".5" stroke-linecap="round" stroke-linejoin="round" d="M247.399 274.699v78.511m-17.454-71.274 105.798-44.876"/><path fill="#212121" d="m309.373 223.383-76.244-34.526v-7.698l85.137 38.524z"/><path stroke="#212121" stroke-width=".5" stroke-linecap="round" stroke-linejoin="round" d="m309.373 223.383-76.244-34.526v-7.698l85.137 38.524z"/><path d="M252.994 216.366s-4.617-1.802-8.52 0l-19.318 8.92s-1.939 1.434 4.182 4.524c0 0 6.244 3.122 9.792 1.648l20.302-8.434s1.47-3.004-6.438-6.658" fill="#212121"/><path d="M252.994 216.366s-4.617-1.802-8.52 0l-19.318 8.92s-1.939 1.434 4.182 4.524c0 0 6.244 3.122 9.792 1.648l20.302-8.434s1.47-3.004-6.438-6.658z" stroke="#212121" stroke-width=".5" stroke-linecap="round" stroke-linejoin="round"/><path d="m339.185 20.246-.031-.036-99.35 182.921a6.94 6.94 0 0 0-1.202 2.895 6.978 6.978 0 0 0 8.743 7.867l.017.024 195.858-68.19" fill="#FFF"/><path d="m339.185 20.246-.031-.036-99.35 182.921a6.94 6.94 0 0 0-1.202 2.895 6.978 6.978 0 0 0 8.743 7.867l.017.024 195.858-68.19M324.219 61.102l-49.085 86.008m4.851 48.03 40.084-14.431m5.056-1.819 15.109-5.439m-31.516 6.7 72.052-26.348m-111.792 11.276 26.569-40.698m-33.749 51.696 5.161-7.905" stroke="#212121" stroke-width=".5" stroke-linecap="round" stroke-linejoin="round"/><path d="M229.931 222.652v-14.129s-.283-2.288-2.42-1.594c-2.138.695-2.064 3.496-2.064 3.496v14.254l4.484-2.027z" fill="#212121"/><path d="M251.203 212.517c0-4.535-3.597-9.752-8.035-11.653-2.526-1.082-4.777-.883-6.25.302l-.008-.01-13.057 9.873 12.13 16.045 13.134-9.912-.044-.058c1.318-.863 2.13-2.442 2.13-4.587" fill="#FFFD77"/><path d="M251.203 212.517c0-4.535-3.597-9.752-8.035-11.653-2.526-1.082-4.777-.883-6.25.302l-.008-.01-13.057 9.873 12.13 16.045 13.134-9.912-.044-.058c1.318-.863 2.13-2.442 2.13-4.587z" stroke="#212121" stroke-width=".5" stroke-linecap="round" stroke-linejoin="round"/><path d="M237.876 222.622c0-4.535-3.597-9.752-8.035-11.653-4.437-1.9-8.035.142-8.035 4.562 0 4.419 3.598 9.637 8.035 11.653 4.438 2.016 8.035-.027 8.035-4.562" fill="#212121"/><path d="M237.876 222.622c0-4.535-3.597-9.752-8.035-11.653-4.437-1.9-8.035.142-8.035 4.562 0 4.419 3.598 9.637 8.035 11.653 4.438 2.016 8.035-.027 8.035-4.562z" stroke="#212121" stroke-width=".5"/><path d="M244.147 228.9v-14.128s-.283-2.289-2.421-1.595c-2.137.695-2.063 3.497-2.063 3.497v14.254l4.484-2.028z" fill="#212121"/><path d="M468.053 103.758c0-38.062-30.19-81.846-67.432-97.794C363.38-9.985 333.19 7.155 333.19 44.247c0 37.09 30.19 80.874 67.43 97.793 37.243 16.918 67.433-.221 67.433-38.282" fill="#FFFD77"/><path d="M468.053 103.758c0-38.062-30.19-81.846-67.432-97.794C363.38-9.985 333.19 7.155 333.19 44.247c0 37.09 30.19 80.874 67.43 97.793 37.243 16.918 67.433-.221 67.433-38.282z" stroke="#212121" stroke-width=".5" stroke-linecap="round" stroke-linejoin="round"/><path d="M414.659 56.933c1.618-1.842 5.074-1.18 7.719 1.484 2.645 2.664 3.478 6.322 1.86 8.167-2.951 3.362-6.59 5.453-10.835 6.23-2.367.71-5.084 1.188-7.952 1.69-2.487.434-5.06.882-7.444 1.497-5.62 1.44-8.744 3.503-9.836 6.497-1.456 3.988-.396 8.143.75 10.927 1.525 3.71 4.086 7.197 7.21 9.82 3.13 2.63 7.333 4.097 10.966 3.827 3.357-.255 5.496-1.961 5.583-4.45.086-2.513-1.176-4.423-2.386-5.371-1.42-1.111-2.95-1.061-4.2.134-1.755 1.678-5.252.791-7.81-1.978-2.558-2.768-3.208-6.37-1.452-8.046 4.206-4.026 11.023-3.432 17.369 1.529 6.127 4.793 9.938 12.223 9.709 18.92-.22 6.359-4.528 10.467-11.528 10.987-6.671.489-14.406-2.386-20.688-7.675-5.64-4.74-10.23-10.957-12.926-17.506-2.811-6.823-3.294-13.487-1.36-18.775 1.865-5.102 6.303-7.71 10.469-9.213a52.615 52.615 0 0 1-3.185-2.333c-5.312-4.193-10.053-9.575-14.093-15.994-1.956-3.103-1.59-6.295.818-7.132 2.406-.84 5.942.995 7.897 4.1 2.828 4.494 5.906 8.022 9.41 10.786 2.663 2.099 5.58 3.75 8.912 5.044 3.316 1.1 6.149 1.519 8.65 1.273a12.502 12.502 0 0 0 1.453-.223c2.658-.565 4.934-1.953 6.92-4.216m-21.102-13.78c.765.96 1.746 1.688 2.76 2.05 1.015.363 1.943.317 2.612-.131.669-.447 1-1.24.933-2.236-.068-.995-.527-2.072-1.292-3.031-.765-.959-1.746-1.686-2.76-2.047-1.014-.36-1.942-.314-2.611.135-.67.447-1.002 1.24-.934 2.233.068.995.527 2.07 1.292 3.028m-7.244-13.875c2.279-1.523 5.436-1.688 8.887-.466 3.453 1.223 6.789 3.693 9.393 6.955 2.605 3.264 4.167 6.931 4.398 10.323.23 3.393-.897 6.1-3.175 7.622-2.28 1.522-5.436 1.676-8.89.436-3.453-1.24-6.79-3.723-9.394-6.987-2.605-3.262-4.166-6.916-4.396-10.292-.23-3.375.898-6.07 3.177-7.591" fill="#212121"/><path stroke="#212121" stroke-width=".5" stroke-linecap="round" stroke-linejoin="round" d="m293.771 159.304 41.805-37.737"/><path d="M450.862 285.632h-5.134a5.314 5.314 0 0 0-5.32 5.31 5.314 5.314 0 0 0 5.318 5.31h4.494c3.783 0 6.877 3.09 6.877 6.866s-3.094 6.865-6.877 6.865H318.187c-3.783 0-6.877-3.089-6.877-6.865 0-3.776 3.094-6.867 6.877-6.867h11.7a5.314 5.314 0 0 0 5.317-5.31 5.314 5.314 0 0 0-5.318-5.31h-23.528c-3.782 0-6.877-3.088-6.877-6.866 0-3.776 3.095-6.866 6.877-6.866h144.504c3.782 0 6.877 3.09 6.877 6.866 0 3.778-3.095 6.867-6.877 6.867" fill="#FFF"/><path d="M450.862 285.632h-5.134a5.314 5.314 0 0 0-5.32 5.31 5.314 5.314 0 0 0 5.318 5.31h4.494c3.783 0 6.877 3.09 6.877 6.866s-3.094 6.865-6.877 6.865H318.187c-3.783 0-6.877-3.089-6.877-6.865 0-3.776 3.094-6.867 6.877-6.867h11.7a5.314 5.314 0 0 0 5.317-5.31 5.314 5.314 0 0 0-5.318-5.31h-23.528c-3.782 0-6.877-3.088-6.877-6.866 0-3.776 3.095-6.866 6.877-6.866h144.504c3.782 0 6.877 3.09 6.877 6.866 0 3.778-3.095 6.867-6.877 6.867zm-122.361 0h8.848" stroke="#212121" stroke-width=".5" stroke-linecap="round" stroke-linejoin="round"/><path d="M456.814 302.57c-2.384 4.806-7.335 4.182-7.335 4.182h-61.81l.015.012h-68.72s-4.95.623-7.335-4.184c0 0-.322 2.655 1.352 4.51 0 0 1.835 2.814 5.846 2.608h79.594c.664.016 1.176.01 1.47 0h42.19l-.04-.01h7.576c4.011.205 5.845-2.61 5.845-2.61 1.674-1.854 1.352-4.509 1.352-4.509m.648-24.294c-2.384 4.806-7.335 4.182-7.335 4.182H307.07s-4.929.624-7.313-4.182c0 0-.344 2.655 1.33 4.509 0 0 1.834 2.815 5.845 2.609h30.538c.19.072.091.207.091.207 0 .251-.212.222-.212.222h-5.083c2.046 1.288 2.837 3.074 2.837 3.074l.085-.001-.097.045s.981 2.606-.412 4.873c0 0-.91 1.528-2.509 2.18 0 0-.052.083 0 .074h111.45s-3.199-1.877-3.199-4.783c0 0-.468-1.242.338-2.773 1.06-1.984 3.137-2.673 3.137-2.673l.66-.076 5.71-.37c4.011.207 5.845-2.608 5.845-2.608 1.674-1.854 1.352-4.51 1.352-4.51" fill="#212121"/><path stroke="#FFF" stroke-width=".5" stroke-linecap="round" stroke-linejoin="round" d="M405.475 285.632h8.848m3.989 0h21.456"/><path d="M282.748 73.605h-1.994c-4.928.473-4.562 6.867-4.562 6.867 0 3.776-3.094 6.865-6.877 6.865h-62.9c-3.781 0-6.876-3.09-6.876-6.865 0-3.778 3.095-6.867 6.877-6.867h6.28c1.298-.187 5.273-1.18 5.273-6.317l.029.012a6.505 6.505 0 0 1-.03-.561c0-3.776 3.095-6.866 6.877-6.866h57.903c3.782 0 6.877 3.09 6.877 6.866 0 3.777-3.095 6.866-6.877 6.866" fill="#FFF"/><path d="M282.748 73.605h-1.994c-4.928.473-4.562 6.867-4.562 6.867 0 3.776-3.094 6.865-6.877 6.865h-62.9c-3.781 0-6.876-3.09-6.876-6.865 0-3.778 3.095-6.867 6.877-6.867h6.28c1.298-.187 5.273-1.18 5.273-6.317l.029.012a6.505 6.505 0 0 1-.03-.561c0-3.776 3.095-6.866 6.877-6.866h57.903c3.782 0 6.877 3.09 6.877 6.866 0 3.777-3.095 6.866-6.877 6.866zm-64.779-6.225c0 1.717.584 3.298 1.565 4.554" stroke="#212121" stroke-width=".5" stroke-linecap="round" stroke-linejoin="round"/><path d="M147.642 114.253H136.09a3.033 3.033 0 0 1-3.026-3.022 3.033 3.033 0 0 1 3.026-3.021h11.553a3.033 3.033 0 0 1 3.026 3.021 3.033 3.033 0 0 1-3.026 3.022" fill="#FFF"/><path d="M147.642 114.253H136.09a3.033 3.033 0 0 1-3.026-3.022h0a3.033 3.033 0 0 1 3.026-3.021h11.553a3.033 3.033 0 0 1 3.026 3.021h0a3.033 3.033 0 0 1-3.026 3.022z" stroke="#212121" stroke-width=".5" stroke-linecap="round" stroke-linejoin="round"/><path d="M379.588 211.873a3.176 3.176 0 0 1-3.179 3.175 3.176 3.176 0 0 1-3.179-3.175 3.176 3.176 0 0 1 3.18-3.174 3.176 3.176 0 0 1 3.178 3.174" fill="#FFF"/><path d="M379.588 211.873a3.176 3.176 0 0 1-3.179 3.175 3.176 3.176 0 0 1-3.179-3.175 3.176 3.176 0 0 1 3.18-3.174 3.176 3.176 0 0 1 3.178 3.174z" stroke="#212121" stroke-width=".5" stroke-linecap="round" stroke-linejoin="round"/><path d="M392.455 215.048h-6.052a3.032 3.032 0 0 1-3.025-3.022 3.032 3.032 0 0 1 3.025-3.021h6.052a3.033 3.033 0 0 1 3.026 3.021 3.033 3.033 0 0 1-3.026 3.022" fill="#FFF"/><path d="M392.455 215.048h-6.052a3.032 3.032 0 0 1-3.025-3.022 3.032 3.032 0 0 1 3.025-3.021h6.052a3.033 3.033 0 0 1 3.026 3.021 3.033 3.033 0 0 1-3.026 3.022z" stroke="#212121" stroke-width=".5" stroke-linecap="round" stroke-linejoin="round"/><path d="M281.466 73.331s7.104.778 7.837-5.86c0 0 .34-2.638-1.192-4.532 0 0 1.742 6.423-6.83 6.423h-24.71c.005-.006-.008.006 0 0l-29.68-.121c-3.132-.323-7.685-1.506-7.685-5.693 0 0-2.762 3.9.607 8.386 0 0 1.857 1.425 3.714 1.425h26.441s3.9.317 3.9 4.917c0 4.943-7.67 6.141-7.67 6.141h-46.835l.016-.01h11.585s-8.718.626-11.115-4.208c0 0-.219 2.67 1.466 4.535 0 0 1.844 2.525 5.88 2.318h11.25l-.04.01 16.418.008c.296.009.81.016 1.477 0l2.347-.007h29.972c4.034.208 5.88-2.318 5.88-2.318 1.684-1.865 1.36-4.535 1.36-4.535-.049-5.029 3.147-6.33 3.147-6.33s1.293-.549 2.46-.549" fill="#212121"/><path stroke="#212121" stroke-width=".5" stroke-linecap="round" stroke-linejoin="round" d="M256.272 73.33h24.894m-32.412 0h4.079"/></g></svg>