<svg width="500" height="360" xmlns="http://www.w3.org/2000/svg"><g fill="none" fill-rule="evenodd"><path stroke="#555574" stroke-width=".5" d="M108 228.5h304m-335 0h23"/><path d="M77.942 4.794c-18.342.678-36.768.882-55.17.708C14.457 5.423 4.637 5.59 0 8.672c9.291 2.937 21.678 2.58 33.061 2.496a488.116 488.116 0 0 1 34.42.959c2.671.169 6.16.886 5.423 2.044a472.041 472.041 0 0 0 72.754.08c2.55-.196 5.125-.413 7.704-.327 2.637.088 5.162.488 7.707.808 9.976 1.255 20.49 1.292 30.856 1.32 9.226.025 18.641.036 27.409-1.245 7.113-1.038 13.503-2.888 20.53-4.038 13.128-2.148 27.537-1.731 41.504-2.02a387.43 387.43 0 0 0 36.625-2.48c2.8-.325 6.273-1.166 5.583-2.42-22.69-.29-45.395-.711-67.948-1.854-12.99-.658-25.933-1.555-38.987-1.87-18.333-.44-36.803.283-54.688 2.132-4.134.427-8.781 1.387-12.987 1.51-3.152.091-6.434-.403-9.616-.505-9.534-.303-19.155-.112-28.674.199-10.929.357-21.815.928-32.734 1.333" fill="#212121" mask="url(#nggmntsyllwb)" transform="translate(91.298 271.942)"/><path stroke="#555574" stroke-width=".5" d="M416.798 228.624h7.637"/><path d="M208.071 173.315s-3.043.15-4.214 4.123c0 0 .99-4.95-2.627-9.275 0 0-7.205-7.708-11.996-7.615 0 0 5.455-2.856 5.226-5.966 0 0 7.835 3.3 8.706 5.061 0 0 2.477 8.068 4.304 9.38 0 0 3.946 4.041 4.598 4.76 0 0-2.119-1.159-3.997-.468" fill="#212121"/><path d="M208.071 173.315s-3.043.15-4.214 4.123c0 0 .99-4.95-2.627-9.275 0 0-7.205-7.708-11.996-7.615 0 0 5.455-2.856 5.226-5.966 0 0 7.835 3.3 8.706 5.061 0 0 2.477 8.068 4.304 9.38 0 0 3.946 4.041 4.598 4.76 0 0-2.119-1.159-3.997-.468z" stroke="#212121" stroke-width=".5" stroke-linecap="round" stroke-linejoin="round"/><path d="M291.848 186.408s-2.621 2.386-3.117 5.215c0 0-2.24-4.44-3.173-5.28 0 0 2.317 1.75 3.814.262l7.575-8.614s2.927 3.347 7.16 3.473c0 0-6.426.683-12.259 4.944" fill="#212121"/><path d="M291.848 186.408s-2.621 2.386-3.117 5.215c0 0-2.24-4.44-3.173-5.28 0 0 2.317 1.75 3.814.262l7.575-8.614s2.927 3.347 7.16 3.473c0 0-6.426.683-12.259 4.944z" stroke="#212121" stroke-width=".5" stroke-linecap="round" stroke-linejoin="round"/><path d="M291.41 186.605s-2.62 2.385-3.117 5.215c0 0-2.24-4.441-3.173-5.281 0 0 2.317 1.752 3.814.262l7.575-8.613s2.927 3.347 7.16 3.473c0 0-6.426.683-12.259 4.944zm160.688-78.715c-9.607 2.512-68.327 10.815-68.327 10.815-5.209.152-14.652 8.24-14.652 8.24-14.642 8.61-56.591-.092-56.591-.092-5.259-1.584-29.585-5.961-29.585-5.961-20.184-2.761-27.1 2.647-27.1 2.647-8.3 6.439-9.802 26.682-10.046 31.575l-.136 7.785s1.853 7.113 1.494 12.197c0 0-.273 4.15-1.863 7.742 0 0-3.528 10.794-5.92 15.754 0 0-.901 1.897-1.536 2.483 0 0 .61 6.883 4.745 11.643 0 0-.776 2.202-1.376 3.16 3.79 17.644 12.037 14.465 12.037 14.465l.12.109c-1.535 2.901-2.354 6.32-1.803 10.28 0 0 1.535 10.125 13.892 8.277l13.642-.247s12.817-.026 20.223-7.185c0 0 17.71-11.28 26.218-13.152 0 0 26.804-.063 36.133-12.107 0 0 13.58-19.502 23.12-24.297 0 0 12.615-1.458 15.908-3.453 0 0 39.198-12.518 51.85-12.67 0 0 9.455-1.383 9.455-30.29 0 0-.252-26.059-8.47-36.617l-1.432-1.1z" fill="#FFF"/><path d="M291.41 186.605s-2.62 2.385-3.117 5.215c0 0-2.24-4.441-3.173-5.281 0 0 2.317 1.752 3.814.262l7.575-8.613s2.927 3.347 7.16 3.473c0 0-6.426.683-12.259 4.944zm160.688-78.715c-9.607 2.512-68.327 10.815-68.327 10.815-5.209.152-14.652 8.24-14.652 8.24-14.642 8.61-56.591-.092-56.591-.092-5.259-1.584-29.585-5.961-29.585-5.961-20.184-2.761-27.1 2.647-27.1 2.647-8.3 6.439-9.802 26.682-10.046 31.575l-.136 7.785s1.853 7.113 1.494 12.197c0 0-.273 4.15-1.863 7.742 0 0-3.528 10.794-5.92 15.754 0 0-.901 1.897-1.536 2.483 0 0 .61 6.883 4.745 11.643 0 0-.776 2.202-1.376 3.16 3.79 17.644 12.037 14.465 12.037 14.465l.12.109c-1.535 2.901-2.354 6.32-1.803 10.28 0 0 1.535 10.125 13.892 8.277l13.642-.247s12.817-.026 20.223-7.185c0 0 17.71-11.28 26.218-13.152 0 0 26.804-.063 36.133-12.107 0 0 13.58-19.502 23.12-24.297 0 0 12.615-1.458 15.908-3.453 0 0 39.198-12.518 51.85-12.67 0 0 9.455-1.383 9.455-30.29 0 0-.252-26.059-8.47-36.617l-1.432-1.1z" stroke="#212121" stroke-width=".5" stroke-linecap="round" stroke-linejoin="round"/><path d="M207.835 173.295s-3.043.15-4.214 4.122c0 0 .989-4.95-2.627-9.275 0 0-7.205-7.708-11.996-7.615 0 0 5.455-2.856 5.226-5.965 0 0 7.835 3.3 8.706 5.06 0 0 2.477 8.069 4.304 9.38 0 0 3.946 4.042 4.598 4.76 0 0-2.12-1.158-3.997-.467m-167.42-21.666c-2.517 35.191 7.252 33.031 7.252 33.031 10.766-1.057 57.268 3.888 57.268 3.888 4.847.23 11.025 7.864 11.025 7.864 1.5.328 14.32 5.908 14.32 5.908 16.168 5.484 24.232 1.156 24.232 1.156 3.283-2.327 9.596-2.882 9.596-2.882 3.72-.108 12.184 9.32 12.184 9.32 6.4 2.417 10.794 12.706 10.794 12.706 3.871 5.097 11.408 8.226 11.408 8.226 7.537 3.13 11.839-2.577 11.839-2.577 2.366-1.953 4.03-7.972 4.77-11.153l.506.583s13.636 7.993 19.253 4.875c0 0 4.19-2.797 6.555-6.721l1.484-3.163c-4.99-7.414-4.744-11.644-4.744-11.644 1.367-1.148 3.573-7.318 3.573-7.318 1.373-3.373 4.554-12.956 4.554-12.956 1.092-2.447 1.192-5.703 1.192-5.703.346-4.558-1.496-12.198-1.496-12.198l.029-7.782-.024-.008.332-18.635c.794-8.952-1.944-22.018-1.944-22.018-3.286-10.57-16.364-7.957-16.364-7.957-2.491-8.856-16.343-5.105-16.343-5.105-11.094 2.554-61.56 14.624-61.56 14.624-4.449.687-18.327 3.523-18.327 3.523-7.2 2.084-16.739.486-16.739.486-6.18-1.294-61.228 1.32-61.228 1.32-13.266.61-13.398 30.31-13.398 30.31" fill="#FFF"/><path d="M207.835 173.295s-3.043.15-4.214 4.122c0 0 .989-4.95-2.627-9.275 0 0-7.205-7.708-11.996-7.615 0 0 5.455-2.856 5.226-5.965 0 0 7.835 3.3 8.706 5.06 0 0 2.477 8.069 4.304 9.38 0 0 3.946 4.042 4.598 4.76 0 0-2.12-1.158-3.997-.467zm-167.42-21.666c-2.517 35.191 7.252 33.031 7.252 33.031 10.766-1.057 57.268 3.888 57.268 3.888 4.847.23 11.025 7.864 11.025 7.864 1.5.328 14.32 5.908 14.32 5.908 16.168 5.484 24.232 1.156 24.232 1.156 3.283-2.327 9.596-2.882 9.596-2.882 3.72-.108 12.184 9.32 12.184 9.32 6.4 2.417 10.794 12.706 10.794 12.706 3.871 5.097 11.408 8.226 11.408 8.226 7.537 3.13 11.839-2.577 11.839-2.577 2.366-1.953 4.03-7.972 4.77-11.153l.506.583s13.636 7.993 19.253 4.875c0 0 4.19-2.797 6.555-6.721l1.484-3.163c-4.99-7.414-4.744-11.644-4.744-11.644 1.367-1.148 3.573-7.318 3.573-7.318 1.373-3.373 4.554-12.956 4.554-12.956 1.092-2.447 1.192-5.703 1.192-5.703.346-4.558-1.496-12.198-1.496-12.198l.029-7.782-.024-.008.332-18.635c.794-8.952-1.944-22.018-1.944-22.018-3.286-10.57-16.364-7.957-16.364-7.957-2.491-8.856-16.343-5.105-16.343-5.105-11.094 2.554-61.56 14.624-61.56 14.624-4.449.687-18.327 3.523-18.327 3.523-7.2 2.084-16.739.486-16.739.486-6.18-1.294-61.228 1.32-61.228 1.32-13.266.61-13.398 30.31-13.398 30.31z" stroke="#212121" stroke-width=".5" stroke-linecap="round" stroke-linejoin="round"/><path d="M175.274 153.148s8.39 15.381 12.225 19.24c0 0 11.703 9.828 17.522 13.627 0 0 15.324 9.063 13.797 17.829l-3.815 13.831" stroke="#212121" stroke-width=".5"/><path d="M215.795 215.093c-1.402 2.278-9.685 8.342-9.685 8.342-8.354 2.91-4.86 8.16-4.86 8.16s4.769 1.676 9.208-3.325c0 0 2.407-2.268 3.947-7.924l1.39-5.253z" fill="#D3D3D3"/><path d="M215.795 215.093c-1.402 2.278-9.685 8.342-9.685 8.342-8.354 2.91-4.86 8.16-4.86 8.16s4.769 1.676 9.208-3.325c0 0 2.407-2.268 3.947-7.924l1.39-5.253zm-83.3-30.939s5.435 16.212 31.874 16.436m81.738-37.72.471-26.428c.794-8.952-1.943-22.017-1.943-22.017-3.286-10.57-16.365-7.958-16.365-7.958l17.837 56.404zm-29.344 48.521s23.92 6.08 26.264 1.298c0 0-4.79-6.805-4.745-11.643" stroke="#212121" stroke-width=".5"/><path d="M215.87 217.695s13.636 7.993 19.254 4.876c0 0 6.573-4.386 7.903-9.881m-58.289-49.896s6.91-1.37 10.196-7.826c0 0 5.896-19.18 12.177-25.067m5.113 22.173s-5.35 12.309-2.173 19.162c0 0 4.447 7.807 17.245 12.644" stroke="#212121" stroke-width=".5"/><path d="M194.935 154.968s7.521 2.599 8.855 5.784c0 0 1.477 8.142 6.261 10.483m-7.077 8.39s1.434-7.383 8.293-6.686" stroke="#212121" stroke-width=".5"/><path d="M204.348 176.325c-.674-9.69-13.94-16.147-13.94-16.147m49.082 46.027s9.77 15.977 25.306 12.55c0 0 10.855-2.261 14.279-3.992 0 0 28.154-13.364 31.233-18.414 0 0 2.138-3.286 1.236-8.717 0 0-.932-6.421 1.659-11.21m-3.375-5.11s-1.915 10.969 1.716 16.32" stroke="#212121" stroke-width=".5"/><path d="M303.243 166.791s.12 12.646 2.417 14.811c0 0 2.652 2.197 4.217 1.872" stroke="#212121" stroke-width=".5"/><path d="M290.527 156.248s8.44 17.116 7.621 23.093c0 0 1.558 2.355 7.512 2.261" stroke="#212121" stroke-width=".5"/><path d="M281.768 170.814s4.09 12.605 3.242 17.59l3.924-1.603s7.88-7.545 8.936-11.234m-35.843 24.79s17.488-4.601 22.982-11.954" stroke="#212121" stroke-width=".5"/><path d="M289.122 201.801s.72-9.98-2.755-13.952m-32.652 42.466s-8.247 3.178-12.037-14.466" stroke="#212121" stroke-width=".5"/><path d="M252.299 234.48s4.621-4.925 10.592-4.432c0 0 2.528 1.585 2.65 5.798 0 0 3.426 6.846 7.452 8.712 0 0 1.568 2.748-4.093 4.369 0 0-9.396 1.322-13.086-1.779 0 0-4.107-2.848-4.443-8.714 0 0 .263-2.711.928-3.953" fill="#D3D3D3"/><path d="M252.299 234.48s4.621-4.925 10.592-4.432c0 0 2.528 1.585 2.65 5.798 0 0 3.426 6.846 7.452 8.712 0 0 1.568 2.748-4.093 4.369 0 0-9.396 1.322-13.086-1.779 0 0-4.107-2.848-4.443-8.714 0 0 .263-2.711.928-3.953zm22.31-2.618s7.408 14.513 15.965 14.961m90.851-62.957s17.555-19.36 35.725-26.089m-169.233 15.334s8.803-27.177 25.268-41.354m62.33 86.43s13.625-.892 17.415-7.079M192.2 137.774s3.202 17.249-3.076 22.754m-109.464-.881s12.418 8.816 16.319 14.904c0 0 8.463 10.59 14.353 16.223m6.11-50.798s21.979-12.296 31.958-14.818m183.002 19.903s-11.526-16.528-34.635-21.71" stroke="#212121" stroke-width=".5"/><path d="M240.86 208.64s10.277 13.086 22.78 10.537c0 0-6.097 4.13-10.389 10.811 0 0-2.498 1.296-6.024-1.978 0 0-3.71-3.616-5.297-12.07 0 0 1.057-1.709 1.338-3.17 0 0-2.16-3.197-2.409-4.13" fill="#D3D3D3"/><path d="M215.564 217.135s1.09-4.86 1.426-5.488c0 0 19.955 5.278 25.153 2.094 0 0-.461 1.802-2.347 3.938 0 0-3.27 3.73-5.283 4.777 0 0-3.856 3.183-18.949-5.321" fill="#D3D3D3"/><path d="M242.628 212.666c-.564 2.192-8.618 1.452-8.618 1.452-6.078-.335-16.936-2.933-16.936-2.933l.125-.418 1.32-5.321c1.322-3.268.252-5.28.252-5.28-1.006-5.277-9.558-11.561-9.558-11.561-6.037-4.086-13.458-9.866-13.458-9.866-8.426-6.348-9.62-8.358-9.62-8.358-2.328-2.64-8.93-14.454-8.93-14.454 3.815 6.787 10.941 13.49 10.941 13.49 3.857 4.525 23.812 19.104 23.812 19.104 7.883 4.524 9.014 12.715 9.014 12.715s.08 7.28-.173 7.718c0 0 18.017 4.337 21.192 3.677l.637.035z" fill="#D3D3D3"/><path d="M217.361 198s2.196 3.676 1.158 6.189l-2.075 7.447-.88 3.571s-3.396 3.655-9.464 7.93c0 0-7.892 2.387-5.188 8.2 0 0-6.148-.997-13.1-8.232l-.679-.537s-2.1-6.188-7.036-10.524l.503.105s14.29 8.767 24.855 6.002c10.565-2.765 0 0 0 0s8.553-3.771 11.739-13.826c0 0 1.808-2.189.167-6.326" fill="#D3D3D3"/><path d="M190.733 215.821s6.848 4.514 15.955 1.893m33.53-19.421c-7.596.15-19.463 2.798-19.463 2.798m32.607 29.36s4.477-7.49 11.434-11.697" stroke="#212121" stroke-width=".5"/><path d="M133.096 186.227s7.673 15.082 20.626 17.303c0 0 .42-.106 1.363-.734 0 0 2.201-1.382 6.477-2.073 0 0-19.579.167-28.466-14.496M220.8 202.69s15.346-3.338 18.573-4.098c0 0-11.907.705-18.908 2.841l.335 1.257zm68.544 44.157s-17.062-2.472-23.35-28.111l-1.217.294s-9.013 5.237-12.828 15.459c0 0 4.968-5.28 11.089-4.65 0 0 2.326 1.381 2.809 5.99 0 0 3.06 6.431 7.252 8.484 0 0 1.803 2.408-2.725 4.315 0 0 12.64.398 18.97-1.78" fill="#D3D3D3"/><path d="M265.992 218.737s10.145-2.43 12.074-3.351c0 0 19.326-8.505 30.269-16.8 0 0-13.961 12.317-30.563 19.23 0 0-10.69 2.89-9.684 7.918l-3.522-.126 1.426-6.87zm-26.579-13.364s-.975-2.263-.912-4.43c0 0 1.164-1.31 2.673-4.996 0 0 4.213-10.62 6.414-18.602 0 0-2.83 18.098-8.175 28.028" fill="#D3D3D3"/><path d="M239.58 201.812s7.211 13.07 17.608 15.25c0 0 10.062 2.177 22.471-4.86 0 0 30.269-16.34 31.861-23.21 0 0 .63 6.033-2.85 8.756 0 0-5.786 5.237-27.25 15.543 0 0-2.452 1.445-4.088 1.948 0 0-10.502 3.582-16.915 3.77 0 0-13.081.44-21.004-13.636l.168-3.561zm1.09-5.991-.88 2.074s-6.037.408-18.865 2.89l-1.551-3.833s1.006 2.094 4.947 1.676c0 0 12.912-1.006 16.35-2.807" fill="#D3D3D3"/><path d="M288.84 201.288s.416-2.347-.547-9.469l-2.304-3.707-.764.388s-3.931 5.561-17.954 10.463c0 0 10.25-1.445 18.488-9.677 0 0 2.452 3.015 3.081 12.002m14.715-19.512s1.73.062 2.044.03c0 0 2.107 1.949 4.119 1.918 0 0 .629 2.545 1.603 3.96l.221 2.135s-2.969-6.525-7.987-8.043M88.071 166.62s5.45 4.609 7.378 7.541c0 0 10.816 13.071 13.416 15.418 0 0-2.432-1.51-7.965-1.592l-7.463-.838s-5.366-6.369-5.366-20.529" fill="#D3D3D3"/><path d="M311.101 186.52s-2.138-2.953-1.384-13.07c0 0 0 8.546 1.426 10.892l-.042 2.178zm-1.55-3.351s-5.304-2.996-6.121-14.182c0 0 .188 9.238 2.263 12.318 0 0 2.778 2.44 3.857 1.864m-4.391-1.802s-5-2.325-9.716-14.202c0 0 3.301 7.698 2.956 11.971 0 0 .88 2.169 6.76 2.231" fill="#D3D3D3"/><path d="M297.927 179.168s.157-1.822-.157-2.765l-.975 1.79 1.132.975z" fill="#212121"/><path d="M297.927 179.168s.157-1.822-.157-2.765l-.975 1.79 1.132.975z" stroke="#212121" stroke-width=".5" stroke-linecap="round" stroke-linejoin="round"/><path d="M264.231 199.382s15.051-4.148 20.29-10.683c0 0 .505-.168.379-3.52 0 0-.525-3.246-.65-3.811 0 0-2.81 12.777-20.019 18.014m20.585-17.554s.565 3.603.503 4.587c0 0 1.006.754 2.095.776l1.405-.566s7.442-8.557 7.599-8.651c.157-.095 1.163-1.76 1.227-2.388 0 0-.63-2.922-.85-3.52 0 0 .755 3.834-4.119 8.956 0 0-4.37 6.671-7.86.806m-99.148-19.481s4.276-.587 5.87-5.782c0 0 1.927-5.865 1.173-13.992 0 0-1.007 16.339-7.043 19.774" fill="#D3D3D3"/><path d="M190.615 159.33s3.018-1.675 5.03-7.205c0 0 2.348-6.117 2.684-7.373 0 0-3.774 8.797-5.786 9.97 0 0-1.09 3.687-1.928 4.609m18.697 1.592s-9.223-4.777-10.145-6.871c0 0-2.6-2.43-.839-8.128 0 0-2.767 7.08-3.06 8.882 0 0 6.876 2.555 8.636 5.656 0 0 1.174 7.29 5.743 10.306 0 0-1.425-4.106-.335-9.845m-6.54 18.308.849-1.814s.912-4.47-2.316-8.24c0 0 2.39 6.912 1.467 10.054" fill="#D3D3D3"/><path d="M210.123 159.917s1.593 12.024 2.348 13.91c0 0-1.929-1.718-2.516-3.688 0 0-1.676-4.273.168-10.222m75.07 84.46s2.201 1.78 4.654 2.157c0 0 4.401-.692 9.212-5.09 0 0 18.456-11.395 25.626-13.071l.775-.168s-13.855 2.933-21.654 7.457c0 0-11.654 11.731-23.476 4.44 0 0 3.186 3.604 4.863 4.275m46.66-16.633s19.243-1.13 28.047-9.803c0 0 4.275-5.027 5.282-6.661 0 0-17.356 15.207-33.329 16.464m4.402-9.845s11.738-1.005 16.015-6.2c0 0-6.708 4.273-16.015 6.2m47.038-35.862s19.452-18.936 31.861-23.293c0 0-31.19 22.79-31.861 23.293" fill="#D3D3D3"/><path d="m228.27 106.467-6.832-16.117 15.178 11.704L244.58 72l9.558 34.181 15.344-18.848-2.342 26.443 32.024-17.393-16.221 24.509s-18.688-2.874-27.1 2.648c0 0-5.803 4.224-9.12 21.21 0 0 .315-19.322-2.088-30.326 0 0-1.315-9.603-16.364-7.957" fill="#FFFD77"/><path d="m228.27 106.467-6.832-16.117 15.178 11.704L244.58 72l9.558 34.181 15.344-18.848-2.342 26.443 32.024-17.393-16.221 24.509s-18.688-2.874-27.1 2.648c0 0-5.803 4.224-9.12 21.21 0 0 .315-19.322-2.088-30.326 0 0-1.315-9.603-16.364-7.957z" stroke="#212121" stroke-width=".5" stroke-linecap="round" stroke-linejoin="round"/></g></svg>