<svg xmlns="http://www.w3.org/2000/svg" width="256" height="256"><path fill="#212121" d="M40 0h216v216c0 22.091-17.909 40-40 40H0V40C0 17.909 17.909 0 40 0Z"/><path fill="#00F598" d="M199.186 86.379c4.798-6.527 3.309-15.828-3.309-20.723-.165 0-.165-.163-.33-.163-6.95-4.569-16.214-2.937-21.177 3.59-7.28 9.627-14.89 16.317-23.659 20.396-7.61 3.1-15.551 4.732-23.823 5.058-7.776-.163-15.552-1.958-22.666-5.058-9.264-4.08-17.04-10.77-23.658-20.396-4.798-6.69-14.393-8.322-21.176-3.59-6.783 4.732-8.438 14.196-3.64 20.886 14.89 21.375 41.195 31.981 44.338 32.96-11.911 8.648-24.816 20.397-30.441 36.061-6.121 16.48-6.121 34.43 0 50.91 5.956 15.501 17.537 28.065 32.427 35.571 16.544 8.159 37.059 8.159 55.753 0 19.688-8.648 31.93-24.476 34.081-42.261 1.986-18.765-7.279-35.572-23.161-42.751-16.545-7.18-35.074-1.958-47.978 13.217-5.13 6.527-3.971 15.827 2.647 20.886 6.617 5.058 16.047 3.916 21.176-2.611 3.64-4.569 7.776-6.037 11.912-4.569 3.143 1.469 6.121 5.548 5.625 12.727-.496 7.18-6.783 13.707-16.544 18.276-10.258 4.568-21.673 4.568-29.449.49-8.272-4.243-14.724-11.26-18.033-19.908a41.307 41.307 0 0 1 0-29.534c3.64-9.627 12.408-18.275 28.29-27.902 6.618-4.08 13.898-8.159 20.68-11.748-.496.979 36.563-18.928 52.115-39.814ZM126.193 8c-19.476 0-35.29 15.781-35.29 35.217s15.814 35.218 35.29 35.218 35.29-15.782 35.29-35.218C161.482 23.781 145.668 8 126.192 8Zm-.084 45.652c-5.688 0-10.372-4.675-10.372-10.518 0-5.677 4.684-10.351 10.54-10.351 5.688 0 10.372 4.674 10.372 10.35 0 5.844-4.684 10.52-10.54 10.52Z"/></svg>