<svg width="500" height="360" xmlns="http://www.w3.org/2000/svg"><g fill="none" fill-rule="evenodd"><path fill="#D3D3D3" d="M69 267.128 242.602 337 461 196.09 284.782 132z"/><path stroke="#212121" stroke-width=".5" stroke-linecap="round" stroke-linejoin="round" d="M461 196.091 284.782 132 69 267.128 242.602 337z"/><path fill="#00EF9F" d="M448.305 188.398 278.748 127 75 275.37 248.762 345 449 195.447z"/><path stroke="#212121" stroke-width=".5" stroke-linecap="round" stroke-linejoin="round" d="M448.305 188.398 278.748 127 75 275.37 248.762 345 449 195.447z"/><path fill="#FFF" d="M77 265.243 235.635 350 461 205.99 299.748 127z"/><path stroke="#212121" stroke-width=".5" stroke-linecap="round" stroke-linejoin="round" d="M461 205.989 299.748 127 77 265.242 235.635 350z"/><path fill="#FFF" d="M449.205 189 444 192.206l6 3.794z"/><path stroke="#212121" stroke-width=".5" stroke-linecap="round" stroke-linejoin="round" d="M449.205 189 444 192.206l6 3.794zM287 160l120 59m-140-59 130 64m-140-58 130 64m-139-57 130 64"/><path fill="#212121" d="M394.904 198 320 160.956l6.096-3.956L401 194.045z"/><path stroke="#212121" stroke-width=".5" stroke-linecap="round" stroke-linejoin="round" d="m239 178 130 64m-140-58 130 64m-139-58 83 41m-85-27 118 58m-140-57 130 64m-139-59 130 64m-140-57 130 64m-139-58 130 64m-140-59 130 64m-139-58 130 64m-140-57 55 26"/><path d="M192.451 244.546c1.783-1.258 4.322-1.273 5.669-.029 1.346 1.245.989 3.28-.795 4.54-3.252 2.295-6.69 3.926-10.242 4.861-2.056.68-4.322 1.266-6.713 1.88-2.072.533-4.215 1.081-6.256 1.705-4.804 1.461-7.82 3.003-9.497 4.856-2.232 2.465-2.54 4.75-2.403 6.234.179 1.978 1.23 3.716 2.955 4.893 1.73 1.18 4.616 1.572 7.535 1.018 2.7-.516 4.845-1.741 5.598-3.194.76-1.47.297-2.438-.391-2.855-.806-.488-2.02-.29-3.329.543-1.836 1.166-4.333 1.037-5.577-.286-1.245-1.32-.767-3.333 1.069-4.498 4.404-2.8 9.59-3.217 13.204-1.048 3.486 2.1 4.425 5.995 2.396 9.916-1.927 3.722-6.436 6.582-12.058 7.647-5.353 1.005-10.612.177-14.076-2.206-3.113-2.13-5.004-5.224-5.326-8.711-.339-3.63 1.1-7.422 4.061-10.687 2.854-3.15 7.05-5.153 10.732-6.49a19.19 19.19 0 0 1-1.863-.99c-3.024-1.826-5.277-4.4-6.698-7.648-.69-1.568.469-3.452 2.59-4.208 2.12-.76 4.4-.103 5.087 1.468.994 2.275 2.448 3.965 4.447 5.166 1.516.913 3.356 1.538 5.62 1.908 2.305.26 4.416.181 6.45-.246a18.834 18.834 0 0 0 1.205-.295c2.246-.634 4.419-1.7 6.606-3.244m-12.817-5.566c.34.468.91.777 1.61.87a3.566 3.566 0 0 0 2.092-.377c.65-.336 1.13-.835 1.35-1.405.22-.57.154-1.14-.185-1.607-.339-.468-.91-.776-1.611-.867a3.584 3.584 0 0 0-2.093.38c-.651.337-1.13.833-1.35 1.402-.219.567-.152 1.137.187 1.604m-1.897-7.196c2.213-1.147 4.746-1.61 7.13-1.304 2.386.306 4.336 1.348 5.491 2.938 1.153 1.592 1.374 3.54.62 5.483-.753 1.944-2.386 3.646-4.6 4.792-2.21 1.144-4.737 1.595-7.112 1.271-2.376-.324-4.319-1.38-5.472-2.972-1.155-1.59-1.382-3.524-.639-5.449.743-1.926 2.37-3.615 4.582-4.76" fill="#00EF9F"/><path d="M192.451 244.546c1.783-1.258 4.322-1.273 5.669-.029 1.346 1.245.989 3.28-.795 4.54-3.252 2.295-6.69 3.926-10.242 4.861-2.056.68-4.322 1.266-6.713 1.88-2.072.533-4.215 1.081-6.256 1.705-4.804 1.461-7.82 3.003-9.497 4.856-2.232 2.465-2.54 4.75-2.403 6.234.179 1.978 1.23 3.716 2.955 4.893 1.73 1.18 4.616 1.572 7.535 1.018 2.7-.516 4.845-1.741 5.598-3.194.76-1.47.297-2.438-.391-2.855-.806-.488-2.02-.29-3.329.543-1.836 1.166-4.333 1.037-5.577-.286-1.245-1.32-.767-3.333 1.069-4.498 4.404-2.8 9.59-3.217 13.204-1.048 3.486 2.1 4.425 5.995 2.396 9.916-1.927 3.722-6.436 6.582-12.058 7.647-5.353 1.005-10.612.177-14.076-2.206-3.113-2.13-5.004-5.224-5.326-8.711-.339-3.63 1.1-7.422 4.061-10.687 2.854-3.15 7.05-5.153 10.732-6.49a19.19 19.19 0 0 1-1.863-.99c-3.024-1.826-5.277-4.4-6.698-7.648-.69-1.568.469-3.452 2.59-4.208 2.12-.76 4.4-.103 5.087 1.468.994 2.275 2.448 3.965 4.447 5.166 1.516.913 3.356 1.538 5.62 1.908 2.305.26 4.416.181 6.45-.246a18.834 18.834 0 0 0 1.205-.295c2.246-.634 4.419-1.7 6.606-3.244zm-12.817-5.566c.34.468.91.777 1.61.87a3.566 3.566 0 0 0 2.092-.377c.65-.336 1.13-.835 1.35-1.405.22-.57.154-1.14-.185-1.607-.339-.468-.91-.776-1.611-.867a3.584 3.584 0 0 0-2.093.38c-.651.337-1.13.833-1.35 1.402-.219.567-.152 1.137.187 1.604zm-1.897-7.196c2.213-1.147 4.746-1.61 7.13-1.304 2.386.306 4.336 1.348 5.491 2.938 1.153 1.592 1.374 3.54.62 5.483-.753 1.944-2.386 3.646-4.6 4.792-2.21 1.144-4.737 1.595-7.112 1.271-2.376-.324-4.319-1.38-5.472-2.972-1.155-1.59-1.382-3.524-.639-5.449.743-1.926 2.37-3.615 4.582-4.76z" stroke="#212121" stroke-width=".5" stroke-linecap="round" stroke-linejoin="round"/><path d="m218.722 223.088-58.766-7.178-27.393 71.26 57.575 9.387 28.584-73.469zm-4.139 2.19-26.52 68.206-51.462-8.317 25.53-66.37 52.452 6.48z" fill="#00EF9F"/><path d="m218.722 223.088-58.766-7.178-27.393 71.26 57.575 9.387 28.584-73.469zm-4.139 2.19-26.52 68.206-51.462-8.317 25.53-66.37 52.452 6.48h0z" stroke="#212121" stroke-width=".5" stroke-linecap="round" stroke-linejoin="round"/><path d="M211.085 299.705a53.538 53.538 0 0 1 15.838-7.045l-.938-.937a35.212 35.212 0 0 1-5.176 12.727c-.286.434.015.968.455 1.118 3.794 1.3 7.898.945 11.434-.927l-1.043-1.043-2.029 4.481c-.239.527.04 1.122.658 1.146l7.645.299-.384-1.42c-2.596 1.706-2.024 5.423-.058 7.4 2.445 2.461 9.703 3.784 8.85 8.38l1.12-.455a479.45 479.45 0 0 0-55.451-20.234c-.944-.28-1.346 1.19-.406 1.47a476.28 476.28 0 0 1 55.087 20.08c.408.177 1.02.077 1.12-.456.667-3.59-2.407-5.933-5.252-7.376-1.616-.818-3.564-1.62-4.576-3.205-.81-1.27-1.098-3.346.336-4.288.633-.416.386-1.389-.386-1.42l-7.645-.298.659 1.146 2.029-4.48c.308-.68-.33-1.421-1.043-1.043-3.19 1.69-6.851 1.943-10.26.775l.456 1.119a36.388 36.388 0 0 0 5.33-13.091c.11-.562-.344-1.092-.938-.937a54.838 54.838 0 0 0-16.201 7.199c-.818.536-.054 1.855.77 1.315" fill="#212121"/><path stroke="#212121" stroke-width=".25" stroke-linecap="round" stroke-linejoin="round" d="m89.781 204.067-29.897 16.602m290.425-77.818-8.055 4.382m36.468-16.203-21.765 11.828m-204.762 54.988-8.054 4.382m211.433-62.254-2.997 1.634m-212.856 63.039-34.239 19.03M74.239 237.56 40 256.59m68.023 32.631L90.05 299.295m164.434-173.317-41.708 23.331m-70.069 153.318-22.21 12.499m41.604-3.75-12.825 7.291m17.83-5.312-32.011 18.332m259.424-68.327-32.011 18.332M211.525 126.186l-32.011 18.332m-33.366 3.073-22.881 12.551m1.226 4.123-13.738 7.543m221.027-43.789-13.738 7.543m49.607-14.209-18.889 10.435m-144.398 40.81-18.889 10.435M358.579 284.67l-7.593 4.21m-44.271 34.333L290.927 332M431 250.065l-42.093 24.275m-6.862 20.408-14.584 8.296m.469-3.75-31.75 18.124m3.758-193.925-6.097 3.32m-166.769 21.406-19.095 10.118m-32.172 159.914-13.451 7.603m14.989-136.988-16.637 9.224m24.486-13.79-5.239 2.91m-35.517 13.569-13.703 7.609"/><path d="m173.029 166.383-70.739 38.856c-1.3.714-2.88.69-4.158-.064l-29.59-17.474c-1.214-.717-1.186-2.48.05-3.157l70.676-38.73a4.2 4.2 0 0 1 4.137.058l29.666 17.352c1.218.712 1.195 2.48-.042 3.159zm-31.52-24.855-81.162 42.486-.006 2.007L99.83 209.34l81.263-44.661v-2.048l-39.582-21.103z" fill="#D3D3D3"/><path d="m173.029 166.383-70.739 38.856c-1.3.714-2.88.69-4.158-.064l-29.59-17.474c-1.214-.717-1.186-2.48.05-3.157l70.676-38.73a4.2 4.2 0 0 1 4.137.058l29.666 17.352c1.218.712 1.195 2.48-.042 3.159zm-31.52-24.855-81.162 42.486-.006 2.007L99.83 209.34l81.263-44.661v-2.048l-39.582-21.103z" stroke="#212121" stroke-width=".5" stroke-linecap="round" stroke-linejoin="round"/><path d="m173.029 164.191-70.739 38.857c-1.3.714-2.88.69-4.158-.064l-29.59-17.475c-1.214-.717-1.186-2.48.05-3.157l70.676-38.728a4.2 4.2 0 0 1 4.137.056l29.666 17.352c1.218.713 1.195 2.48-.042 3.16zm-31.52-24.76-81.168 44.493 39.488 23.319 81.263-44.66-39.582-23.152z" fill="#FFF"/><path d="m173.029 164.191-70.739 38.857c-1.3.714-2.88.69-4.158-.064l-29.59-17.475c-1.214-.717-1.186-2.48.05-3.157l70.676-38.728a4.2 4.2 0 0 1 4.137.056l29.666 17.352c1.218.713 1.195 2.48-.042 3.16zm-31.52-24.76-81.168 44.493 39.488 23.319 81.263-44.66-39.582-23.152zm-41.585 69.825v-2.108" stroke="#212121" stroke-width=".5" stroke-linecap="round" stroke-linejoin="round"/><path d="M100.706 153.688v52.34l-1.212.667-14.215-9.78v-26.902s.524-5.62-3.958-6.763c0 0-3.053-.667-3.387 2.858v26.467l-1.14.782-14.268-9.885v-52.52l38.18 22.736z" fill="#D3D3D3"/><path d="M100.706 153.688v52.34l-1.212.667-14.215-9.78v-26.902s.524-5.62-3.958-6.763c0 0-3.053-.667-3.387 2.858v26.467l-1.14.782-14.268-9.885v-52.52l38.18 22.736z" stroke="#212121" stroke-width=".5" stroke-linecap="round" stroke-linejoin="round"/><path d="M99.466 154.546v52.34l-15.427-9.114v-26.901s.525-5.62-3.958-6.764c0 0-3.053-.667-3.387 2.859v26.467l-15.408-9.103v-52.52l38.18 22.736z" fill="#FFF"/><path d="M99.466 154.546v52.34l-15.427-9.114v-26.901s.525-5.62-3.958-6.764c0 0-3.053-.667-3.387 2.859v26.467l-15.408-9.103v-52.52l38.18 22.736z" stroke="#212121" stroke-width=".5" stroke-linecap="round" stroke-linejoin="round"/><path d="M179.394 110.386v52.507l-1.212.666-14.215-9.947v-26.901s.525-5.62-3.958-6.764c0 0-3.053-.666-3.387 2.859v26.467l-1.14.78-14.268-9.883V87.65l38.18 22.736z" fill="#FFF"/><path d="M179.394 110.386v52.507l-1.212.666-14.215-9.947v-26.901s.525-5.62-3.958-6.764c0 0-3.053-.666-3.387 2.859v26.467l-1.14.78-14.268-9.883V87.65l38.18 22.736z" stroke="#212121" stroke-width=".5" stroke-linecap="round" stroke-linejoin="round"/><path d="M178.154 111.243v52.34l-15.427-9.114v-26.9s.525-5.621-3.958-6.764c0 0-3.053-.667-3.387 2.858v26.467l-15.408-9.103v-52.52l38.18 22.736z" fill="#D3D3D3"/><path d="M178.154 111.243v52.34l-15.427-9.114v-26.9s.525-5.621-3.958-6.764c0 0-3.053-.667-3.387 2.858v26.467l-15.408-9.103v-52.52l38.18 22.736z" stroke="#212121" stroke-width=".5" stroke-linecap="round" stroke-linejoin="round"/><path d="m77.915 164.095-.31-.56 2.099-.88-.001.034a2.8 2.8 0 0 1 .74-.146c2.21-.116 4.14 2.41 4.31 5.64.128 2.424-.769 4.556-2.158 5.521a3.064 3.064 0 0 1-.86.415l-1.507.73-.448-.84c-1.63-.692-2.891-2.82-3.027-5.403-.095-1.776.365-3.393 1.162-4.51" fill="#D3D3D3"/><path d="m77.915 164.095-.31-.56 2.099-.88-.001.034a2.8 2.8 0 0 1 .74-.146c2.21-.116 4.14 2.41 4.31 5.64.128 2.424-.769 4.556-2.158 5.521a3.064 3.064 0 0 1-.86.415l-1.507.73-.448-.84c-1.63-.692-2.891-2.82-3.027-5.403-.095-1.776.365-3.393 1.162-4.51z" stroke="#212121" stroke-width=".5" stroke-linecap="round" stroke-linejoin="round"/><path d="M74.94 169.368c-.17-3.23 1.481-5.945 3.691-6.062 2.21-.117 4.139 2.408 4.31 5.64.171 3.231-1.482 5.945-3.69 6.062-2.21.117-4.14-2.409-4.31-5.64" fill="#FFF"/><path d="M74.94 169.368c-.17-3.23 1.481-5.945 3.691-6.062 2.21-.117 4.139 2.408 4.31 5.64.171 3.231-1.482 5.945-3.69 6.062-2.21.117-4.14-2.409-4.31-5.64z" stroke="#212121" stroke-width=".5" stroke-linecap="round" stroke-linejoin="round"/><path d="m157.509 122.793-.31-.56 2.099-.88-.001.034a2.76 2.76 0 0 1 .74-.145c2.21-.117 4.14 2.408 4.31 5.64.128 2.423-.768 4.556-2.158 5.52a3.064 3.064 0 0 1-.859.416l-1.508.73-.448-.84c-1.628-.692-2.89-2.82-3.027-5.404-.095-1.776.365-3.393 1.162-4.51" fill="#D3D3D3"/><path d="m157.509 122.793-.31-.56 2.099-.88-.001.034a2.76 2.76 0 0 1 .74-.145c2.21-.117 4.14 2.408 4.31 5.64.128 2.423-.768 4.556-2.158 5.52a3.064 3.064 0 0 1-.859.416l-1.508.73-.448-.84c-1.628-.692-2.89-2.82-3.027-5.404-.095-1.776.365-3.393 1.162-4.51z" stroke="#212121" stroke-width=".5" stroke-linecap="round" stroke-linejoin="round"/><path d="M154.534 128.067c-.17-3.232 1.481-5.946 3.691-6.063 2.21-.116 4.139 2.408 4.31 5.64.171 3.231-1.482 5.945-3.69 6.062-2.21.117-4.14-2.408-4.31-5.64" fill="#FFF"/><path d="M154.534 128.067c-.17-3.232 1.481-5.946 3.691-6.063 2.21-.116 4.139 2.408 4.31 5.64.171 3.231-1.482 5.945-3.69 6.062-2.21.117-4.14-2.408-4.31-5.64z" stroke="#212121" stroke-width=".5" stroke-linecap="round" stroke-linejoin="round"/><path d="M60.264 100.098c.314-5.294 6.125-11.695 12.98-14.296l56.036-30.784c4.125-1.566 7.709-1.332 9.862.304l38.612 22.848-1.145 13.433-17.454 21.152-20.187-4.002-39.044 47.816-39.773-23.379.113-33.092z" fill="#00EF9F"/><path d="M60.264 100.098c.314-5.294 6.125-11.695 12.98-14.296l56.036-30.784c4.125-1.566 7.709-1.332 9.862.304l38.612 22.848-1.145 13.433-17.454 21.152-20.187-4.002-39.044 47.816-39.773-23.379.113-33.092z" stroke="#212121" stroke-width=".5" stroke-linecap="round" stroke-linejoin="round"/><path d="m99.924 156.557 81.263-44.66-.138-28.113c.228-5.518-5.142-7.882-11.996-5.28l-56.037 30.783c-6.853 2.6-12.778 9.7-13.092 14.995v32.275z" fill="#212121"/><path d="m99.924 156.557 81.263-44.66-.138-28.113c.228-5.518-5.142-7.882-11.996-5.28l-56.037 30.783c-6.853 2.6-12.778 9.7-13.092 14.995v32.275z" stroke="#212121" stroke-width=".5" stroke-linecap="round" stroke-linejoin="round"/><path d="M101.148 17.981c2.152-4.619 8.724-7.981 16.5-7.981 6.802 0 12.682 2.573 15.49 6.309h.013c6.024 7.787 4.606 16.636 4.606 16.636l-6.29 47.253c0 4.985-6.186 9.026-13.82 9.026-7.632 0-13.819-4.041-13.819-9.026 0-.117.007-.232.014-.348l-6.13-46.905s-1.22-7.636 3.436-14.964" fill="#212121"/><path d="M101.148 17.981c2.152-4.619 8.724-7.981 16.5-7.981 6.802 0 12.682 2.573 15.49 6.309h.013c6.024 7.787 4.606 16.636 4.606 16.636l-6.29 47.253c0 4.985-6.186 9.026-13.82 9.026-7.632 0-13.819-4.041-13.819-9.026 0-.117.007-.232.014-.348l-6.13-46.905s-1.22-7.636 3.436-14.964zm-4.085 99.823-23.082-13.529m-2.671-1.525-5.723-3.239" stroke="#212121" stroke-width=".5" stroke-linecap="round" stroke-linejoin="round"/><path stroke="#FFF" stroke-width=".5" stroke-linecap="round" stroke-linejoin="round" d="m101.259 34.533 2.48 22.104m.191 2.668.572 4.954"/><path d="M143.731 108.155c.46-.9 1.36-1.55 2.009-1.454.65.098.804.905.344 1.805-.84 1.642-1.835 3.1-2.969 4.347-.637.773-1.362 1.566-2.127 2.403a83.47 83.47 0 0 0-1.99 2.231c-1.508 1.774-2.37 3.115-2.71 4.217-.456 1.47-.252 2.37 0 2.865.337.66.949 1.001 1.725.963.779-.04 1.86-.668 2.823-1.638.89-.897 1.485-1.896 1.552-2.607.069-.718-.23-.938-.532-.904-.354.039-.759.429-1.11 1.068-.493.896-1.4 1.51-2.024 1.367-.624-.142-.731-.985-.238-1.882 1.181-2.15 2.968-3.65 4.553-3.826 1.529-.171 2.401.951 2.22 2.857-.172 1.81-1.382 4.008-3.238 5.878-1.767 1.784-3.756 2.898-5.317 2.979-1.402.072-2.5-.531-3.095-1.7-.618-1.217-.626-2.964-.02-4.92.583-1.884 1.8-3.697 2.926-5.134a6.69 6.69 0 0 1-.798.126c-1.326.124-2.48-.226-3.43-1.039-.46-.394-.306-1.378.345-2.196.65-.82 1.548-1.164 2.008-.77.665.569 1.413.806 2.288.725.664-.062 1.404-.31 2.26-.76a10.756 10.756 0 0 0 2.644-2.16c.712-.8 1.337-1.735 1.901-2.84m-5.317 1.276c.185.082.43.048.691-.097.261-.145.506-.381.691-.668.185-.285.287-.586.287-.846s-.102-.447-.287-.53c-.185-.081-.43-.047-.691.098-.261.143-.506.38-.691.666-.184.286-.286.587-.286.847s.102.449.286.53m-1.661-2.114c.628-.973 1.463-1.778 2.352-2.269.888-.49 1.724-.606 2.352-.328.628.278.974.918.974 1.802s-.346 1.906-.974 2.878c-.628.973-1.464 1.78-2.352 2.273-.889.492-1.724.61-2.352.332-.629-.278-.974-.92-.974-1.806s.345-1.91.974-2.882" fill="#212121"/><path d="M143.731 108.155c.46-.9 1.36-1.55 2.009-1.454.65.098.804.905.344 1.805-.84 1.642-1.835 3.1-2.969 4.347-.637.773-1.362 1.566-2.127 2.403a83.47 83.47 0 0 0-1.99 2.231c-1.508 1.774-2.37 3.115-2.71 4.217-.456 1.47-.252 2.37 0 2.865.337.66.949 1.001 1.725.963.779-.04 1.86-.668 2.823-1.638.89-.897 1.485-1.896 1.552-2.607.069-.718-.23-.938-.532-.904-.354.039-.759.429-1.11 1.068-.493.896-1.4 1.51-2.024 1.367-.624-.142-.731-.985-.238-1.882 1.181-2.15 2.968-3.65 4.553-3.826 1.529-.171 2.401.951 2.22 2.857-.172 1.81-1.382 4.008-3.238 5.878-1.767 1.784-3.756 2.898-5.317 2.979-1.402.072-2.5-.531-3.095-1.7-.618-1.217-.626-2.964-.02-4.92.583-1.884 1.8-3.697 2.926-5.134a6.69 6.69 0 0 1-.798.126c-1.326.124-2.48-.226-3.43-1.039-.46-.394-.306-1.378.345-2.196.65-.82 1.548-1.164 2.008-.77.665.569 1.413.806 2.288.725.664-.062 1.404-.31 2.26-.76a10.756 10.756 0 0 0 2.644-2.16c.712-.8 1.337-1.735 1.901-2.84zm-5.317 1.277c.185.082.43.048.691-.097.261-.145.506-.381.691-.668.185-.285.287-.586.287-.846s-.102-.447-.287-.53c-.185-.081-.43-.047-.691.098-.261.143-.506.38-.691.666-.184.286-.286.587-.286.847s.102.449.286.53zm-1.661-2.114c.628-.973 1.463-1.778 2.352-2.269.888-.49 1.724-.606 2.352-.328.628.278.974.918.974 1.802s-.346 1.906-.974 2.878c-.628.973-1.464 1.78-2.352 2.273-.889.492-1.724.61-2.352.332-.629-.278-.974-.92-.974-1.806s.345-1.91.974-2.882z" stroke="#212121" stroke-width=".5" stroke-linecap="round" stroke-linejoin="round"/><path d="M144.44 108.455c.46-.9 1.36-1.55 2.01-1.454.649.097.803.905.343 1.804-.839 1.642-1.835 3.102-2.968 4.347-.638.773-1.363 1.566-2.128 2.404a83.47 83.47 0 0 0-1.99 2.23c-1.508 1.775-2.369 3.115-2.71 4.218-.456 1.47-.252 2.37 0 2.865.337.66.949 1 1.726.962.778-.04 1.86-.667 2.822-1.638.891-.896 1.486-1.895 1.553-2.606.068-.718-.231-.939-.533-.904-.354.039-.758.428-1.109 1.067-.494.897-1.4 1.51-2.025 1.368-.624-.142-.73-.985-.238-1.883 1.181-2.15 2.969-3.65 4.553-3.826 1.53-.17 2.401.952 2.22 2.858-.171 1.81-1.382 4.008-3.237 5.878-1.768 1.784-3.756 2.898-5.318 2.978-1.402.072-2.5-.53-3.094-1.699-.618-1.217-.626-2.965-.022-4.92.584-1.884 1.8-3.698 2.927-5.134-.272.06-.538.101-.798.125-1.325.124-2.48-.225-3.43-1.038-.46-.394-.306-1.378.345-2.197.65-.82 1.548-1.163 2.009-.77.664.57 1.413.807 2.288.726.664-.062 1.404-.311 2.259-.76a10.756 10.756 0 0 0 2.645-2.16c.711-.8 1.336-1.735 1.9-2.84m-5.317 1.275c.185.083.43.048.691-.096.262-.145.507-.382.692-.668.185-.286.286-.586.286-.846s-.101-.448-.286-.53c-.185-.081-.43-.048-.692.096a2.018 2.018 0 0 0-.69.668c-.185.286-.287.586-.287.846s.102.45.286.53m-1.661-2.114c.628-.972 1.464-1.778 2.352-2.268.889-.49 1.724-.606 2.353-.328.628.278.973.918.973 1.801 0 .885-.345 1.906-.973 2.879-.629.973-1.464 1.78-2.353 2.273-.888.492-1.724.61-2.352.332-.628-.279-.974-.92-.974-1.806s.346-1.91.974-2.883" fill="#FFF"/><path d="M144.44 108.455c.46-.9 1.36-1.55 2.01-1.454.649.097.803.905.343 1.804-.839 1.642-1.835 3.102-2.968 4.347-.638.773-1.363 1.566-2.128 2.404a83.47 83.47 0 0 0-1.99 2.23c-1.508 1.775-2.369 3.115-2.71 4.218-.456 1.47-.252 2.37 0 2.865.337.66.949 1 1.726.962.778-.04 1.86-.667 2.822-1.638.891-.896 1.486-1.895 1.553-2.606.068-.718-.231-.939-.533-.904-.354.039-.758.428-1.109 1.067-.494.897-1.4 1.51-2.025 1.368-.624-.142-.73-.985-.238-1.883 1.181-2.15 2.969-3.65 4.553-3.826 1.53-.17 2.401.952 2.22 2.858-.171 1.81-1.382 4.008-3.237 5.878-1.768 1.784-3.756 2.898-5.318 2.978-1.402.072-2.5-.53-3.094-1.699-.618-1.217-.626-2.965-.022-4.92.584-1.884 1.8-3.698 2.927-5.134-.272.06-.538.101-.798.125-1.325.124-2.48-.225-3.43-1.038-.46-.394-.306-1.378.345-2.197.65-.82 1.548-1.163 2.009-.77.664.57 1.413.807 2.288.726.664-.062 1.404-.311 2.259-.76a10.756 10.756 0 0 0 2.645-2.16c.711-.8 1.336-1.735 1.9-2.84zm-5.317 1.276c.185.083.43.048.691-.096.262-.145.507-.382.692-.668.185-.286.286-.586.286-.846s-.101-.448-.286-.53c-.185-.081-.43-.048-.692.096a2.018 2.018 0 0 0-.69.668c-.185.286-.287.586-.287.846s.102.45.286.53zm-1.661-2.114c.628-.972 1.464-1.778 2.352-2.268.889-.49 1.724-.606 2.353-.328.628.278.973.918.973 1.801 0 .885-.345 1.906-.973 2.879-.629.973-1.464 1.78-2.353 2.273-.888.492-1.724.61-2.352.332-.628-.279-.974-.92-.974-1.806s.346-1.91.974-2.883z" stroke="#212121" stroke-width=".5" stroke-linecap="round" stroke-linejoin="round"/><path d="m319.974 141.091-11.365 7.018-7.861.935 1.243-5.68 13.932-8.82-1.173-.57-13.55 8.578a.55.55 0 0 0-.246.35l-1.459 6.666a.554.554 0 0 0 .61.67l8.758-1.043a.526.526 0 0 0 .226-.078l11.468-7.082a.555.555 0 1 0-.583-.944" fill="#212121"/><path d="m319.974 141.091-11.365 7.018-7.861.935 1.243-5.68 13.932-8.82-1.173-.57-13.55 8.578a.55.55 0 0 0-.246.35l-1.459 6.666a.554.554 0 0 0 .61.67l8.758-1.043a.526.526 0 0 0 .226-.078l11.468-7.082a.555.555 0 1 0-.583-.944z" stroke="#212121" stroke-width=".5" stroke-linecap="round" stroke-linejoin="round"/><path d="M323.049 138.01a.552.552 0 0 0 .67.878 3.33 3.33 0 0 0 .411-.352l-1.081-.526z" fill="#212121"/><path d="M323.049 138.01a.552.552 0 0 0 .67.878 3.33 3.33 0 0 0 .411-.352l-1.081-.526z" stroke="#212121" stroke-width=".5" stroke-linecap="round" stroke-linejoin="round"/><path d="M323.758 138.068c.688-.497 1.029-1.073 1.014-1.711-.028-1.092-1.12-1.832-1.29-1.94l-4.388-2.295c-1.525-.76-2.998.201-3.048.237l-14.807 9.373a.549.549 0 0 0-.245.35l-1.46 6.666a.552.552 0 0 0 .609.67l8.76-1.043a.545.545 0 0 0 .225-.078l11.469-7.083a.554.554 0 1 0-.584-.943l-11.365 7.018-7.862.935 1.243-5.68 14.62-9.255c.01-.005 1.01-.647 1.938-.179l4.333 2.264c.19.126.731.58.74 1.013.006.249-.585.91-.957 1.178l1.055.503z" fill="#00EF9F"/><path d="M323.758 138.068c.688-.497 1.029-1.073 1.014-1.711-.028-1.092-1.12-1.832-1.29-1.94l-4.388-2.295c-1.525-.76-2.998.201-3.048.237l-14.807 9.373a.549.549 0 0 0-.245.35l-1.46 6.666a.552.552 0 0 0 .609.67l8.76-1.043a.545.545 0 0 0 .225-.078l11.469-7.083a.554.554 0 1 0-.584-.943l-11.365 7.018-7.862.935 1.243-5.68 14.62-9.255c.01-.005 1.01-.647 1.938-.179l4.333 2.264c.19.126.731.58.74 1.013.006.249-.585.91-.957 1.178l1.055.503z" stroke="#212121" stroke-width=".5" stroke-linecap="round" stroke-linejoin="round"/></g></svg>