<svg xmlns="http://www.w3.org/2000/svg" width="300" height="150"><path fill="#E0D9FF" d="M0 0h300v150H0z"/><path fill="#fff" d="M164.504 66.611a3.025 3.025 0 0 0-.731-4.267 3.132 3.132 0 0 0-4.264.728c-1.46 1.977-3.006 3.339-4.789 4.164a13.998 13.998 0 0 1-4.799 1.038 12.322 12.322 0 0 1-4.578-1.038c-1.863-.835-3.436-2.187-4.772-4.164a3.067 3.067 0 0 0-5.009 3.54c3.006 4.37 8.329 6.554 8.953 6.761-2.394 1.77-5.009 4.165-6.141 7.39a14.923 14.923 0 0 0 0 10.41 13.645 13.645 0 0 0 6.555 7.286c3.34 1.67 7.494 1.67 11.24 0 3.957-1.77 6.455-5.01 6.87-8.64.417-3.85-1.457-7.286-4.676-8.742-3.34-1.459-7.08-.417-9.684 2.705a3.04 3.04 0 0 0 4.789 3.747c.728-.935 1.56-1.249 2.394-.935.624.31 1.249 1.142 1.145 2.601-.103 1.46-1.355 2.809-3.339 3.747-2.08.935-4.371.935-5.93.103a7.734 7.734 0 0 1-3.644-4.06 8.432 8.432 0 0 1 0-6.034c.728-1.977 2.498-3.747 5.724-5.724a74.062 74.062 0 0 1 4.164-2.394c-.094.103 7.4-3.95 10.522-8.222zM149.828 51a7.076 7.076 0 1 0 7.076 7.076A7.083 7.083 0 0 0 149.828 51zm0 9.156a2.08 2.08 0 1 1 2.097-2.08 2.084 2.084 0 0 1-2.097 2.08z"/></svg>