<svg width="134" height="101" xmlns="http://www.w3.org/2000/svg"><path fill="#fff" d="M130.784 56.288c-21.53 7.926-77.248 6.27-103.918 2.648-.541-.073-13.382-1.039-17.464-3.34l-.006-1.105c.005-.015.56-1.363 7.834-2.513-.311.484-.306.57-.197.998a.242.242 0 0 0-.063.152v1.42a.25.25 0 0 0 .05.15c.02.027.121.143.458.32 3.618 4.115 90.153 6.51 108.317-.05a.251.251 0 0 0 .166-.236v-1.216c0-.119-.091-.206-.202-.23.332-.453.219-.818-.089-1.144 4.486.35 12.498 1.772 5.114 4.146Zm-28.135 6.214c-.048.052-3.051 1.656-4.595 2.188.529-.948 2.359-2.697 4.763-2.759a1.209 1.209 0 0 1-.168.571Zm-33.32 9.432c-.664-1.072-3.649-1.556-4.547-1.743 2.613-1.077 3.019-2.889 9.218-5.164.155-.07 2.905-1.328 4.897-2.319 1.156-.02 2.395-.045 3.715-.074.202.272.125 1.015.541 1.121.533-.1.034-.844-.01-1.134a852.62 852.62 0 0 0 5.35-.14c-.543.246-17.595 7.29-19.164 9.453Zm8.391-9.207a224.184 224.184 0 0 1-3.901 1.835c-4.406 1.433-7.651 4.321-7.642 4.321-.179.102-.384.214-.592.325 4.887-5.334 4.585-6.942 12.135-6.48Zm-13.5 7.2c-.009.007-.008.021-.016.031-1.941-.947-5.099-1.05-6.572-1.043 1.13-1.294 3.497-3.787 5.101-4.453l1.795-1.689c2.573.034 3.988.042 6.651.03-2.742 1.853-4.333 4.52-6.959 7.123Zm-12.398-5.95c.354 3.284-2.298 3.015-4.24 3.038-2.765-.76-1.624-3.566-1.433-4.744.533.021 1.383.053 2.465.091 1.42.551 2.845 1.394 3.208 1.614ZM17.47 54.44v-.98c20.504 7.412 105.095 4.243 107.991.537v.557C96.891 62.245 14.96 57.265 17.47 54.44Zm106.54-1.915c.03.05.147.085.171.095a.655.655 0 0 1-.133.112l-.038-.207ZM18.187 51.83c.28-.04.59-.078.887-.117-4.983 5.562 86.821 8.21 104.874 1.406.258.284.718-.102.746-.55.021-.232-.512-.68-.744-.36l-.107-.585c-.057-.32-.555-.227-.493.09l.199 1.074c-25.305 7.152-94.081 2.782-103.41.164.028-.212-.363-.21-.511-.239.697-.206.585-.928-.126-.509l.09-.56.321-.043c.611.718 1.746.914 1.176.203a2.62 2.62 0 0 1-.853-.58c.07-.279.241-.91.53-1.814-.087.468 5.073 2.964 4.105 1.605-1.161-.526-2.865-.993-3.7-1.836a.244.244 0 0 0-.327-.013c.115-.354.244-.736.394-1.16-.232.017 4.558 2.544 3.607 1.111-1.621-.527-2.77-1.065-3.428-1.6.165-.452.346-.929.551-1.44.274.19.52.416.887.522.249.01.348-.357.118-.47a4.605 4.605 0 0 1-.812-.533c.196-.482.414-.989.646-1.513 1.379 1.231 1.786.405.2-.442.229-.509.476-1.034.74-1.574.225.412 5.725 3.902 4.905 2.348-1.595-.78-3.458-1.638-4.686-2.8.228-.46.474-.93.728-1.409 2.648 2.97 2.959 1.956.246-.459.247-.455.502-.914.773-1.383.197.5 5.651 3.921 4.794 2.262a12.221 12.221 0 0 1-4.535-2.696c.249-.422.498-.845.766-1.275.24.19.482.444.783.515.246.01.345-.35.124-.468a3.466 3.466 0 0 1-.628-.477c.408-.64.839-1.288 1.29-1.939.033.727 4.846 4.257 4.101 2.572-1.547-.464-2.684-1.905-3.926-2.82.305-.444.614-.89.948-1.318.223.476 2.497 2.722 2.075 1.33-.649-.413-1.254-1.018-1.76-1.745.44-.582.906-1.17 1.397-1.766.496 1.2 4.069 3.33 5.187 2.844a.251.251 0 0 0-.176-.308c-1.835-.476-3.565-1.463-4.779-2.819a55.467 55.467 0 0 1 2.861-3.16c.285.2 2.735 1.292 1.92.23a8.437 8.437 0 0 1-1.556-.609 54.173 54.173 0 0 1 1.57-1.51c.418.483 5.5 3.815 4.725 2.216-1.548-.597-3.009-1.465-4.359-2.564a53.616 53.616 0 0 1 2.153-1.863c.002.462 3.07 1.81 2.174.644-.733-.154-1.335-.535-1.838-.908a54.007 54.007 0 0 1 1.775-1.382c.33.378 4.735 2.785 3.85 1.35a11.71 11.71 0 0 1-3.415-1.657c.203-.148.414-.292.621-.438.527.107 1.604.835 2.027.3-.13-.544-1.129-.35-1.535-.647.41-.282.828-.56 1.252-.835.495.31 6.831 2.827 5.745 1.385a23.05 23.05 0 0 1-5.236-1.706c.393-.248.775-.502 1.181-.744.197.674 1.434.607 2.073.851 1.203-.452-1.474-.812-1.788-1.017a55.544 55.544 0 0 1 4.519-2.373c.205.29.675.327 1.003.424.699-.279-.15-.59-.487-.676 4.777-2.185 10.297-3.902 16.662-4.826.23-.024.224-.292.214-.466.047-.017 3.249.036 3.28-.018.027.108.111.196.228.196.192-.07 2.131.19 2.115-.195h2.445c.019.152-.07.556.114.638H67.22a.25.25 0 0 0 0 .5h8.491c.231.01.345-.317.141-.44 16.983.998 40.943 13.02 48.11 40.872.138.316.568.155.854.232.226.302 1.013.532.437 1.061-.128.184-3.705 4.474-55.432 4.474-16.617-.497-50.379-1.533-52.343-5.013 0-.004.016-.343.709-.752ZM72.384 8.628v1.325c-.034.011-1.391-.019-1.415.011V8.505c.099.016.751.123 1.415.123Zm-5.811-3.676c1.106-.16 5.62-.725 9.932.023-.021.943-2.641 3.647-5.601 3.062-.115-.162-3.31-.517-4.331-3.085Zm-.654-.618v-.348c3.013-.432 6.547-.667 11.513.107v.283c-1.548.064-5.593-.486-5.967-.35-2.546-.07-4.372.376-5.546.308Zm0-.91c.348-.249.796-.13.871-.503.001-.097.079-2.373 4.927-2.373.309-.037 4.566.018 5.025 2.706l.69.314v.017c-4.945-.757-8.435-.538-11.513-.104v-.057ZM134.43 54.27c-.799-1.936-8.503-2.627-10.034-2.746-7.663-28.099-30.404-39.664-48.343-41.06-.019-.209.097-.713-.25-.706h-2.919V8.603c.099.002.171-.066.209-.152 3.186-1.088 3.796-2.84 3.909-3.397.249-.163.929.235.818-.305.217-.069.073-1.186.112-1.342.039-.27-.707-.439-.859-.553C75.959-1.499 66.417-.323 66.31 2.72c-.558.23-.993.262-.891.842-.445-.029-.427.603 0 .508.001.006-.002.431.001.436-.417-.032-.447.558-.038.514.005.001.241-.048.639-.105.813 2.532 3.643 3.317 4.448 3.492v1.368h-3.234c-.27-.004-.261.313-.25.503C53.19 12.535 44.421 17.15 35.847 24.82 29.245 30.562 23.045 41 20.992 47.221c-.227-.01-.339.301-.158.44-.638 1.777-.977 3.023-1.087 3.456-.047.006-.086.013-.133.02-.085-.222-.418-.167-.455.06a.89.89 0 0 0-.072.01c-.106-.509-.831.064-1.053.14C8.748 52.882 8.556 53.78 9 55.918c3.361 2.601 15.939 3.416 16.996 3.584 4.369.692 16.457 1.784 19.064 1.974-2.399 5.644-1.278 9.44-4.331 13.04-1.733 1.831-3.898 4.79-3.921 4.818-4.369 5.81-3.596 8.88-6.704 10.53C27.236 92.214 1.841 99.037 0 100.371c1.072.391 24.774-7.572 27.365-8.575-.03.187.596 2.675 1.95 3.971a.251.251 0 0 0 .338-.371c-1.337-1.234-1.724-3.654-1.898-3.769.674-.263.811-.412 1.542-.848-.218.517.841.693.924 2.012.024.101.628 2.481 1.908 3.9a.249.249 0 1 0 .371-.334c-1.189-1.319-1.783-3.64-1.787-3.64-.153-1.239-.952-2.04-1.233-2.1 4.43-1.616 2.745-4.264 7.733-10.988.651-1.337 5.089-5.313 6.033-8.753.666-3.268.437-3.977 2.083-8.733.087.11.149.104.307.11-.212 1.57-1.428 4.21 1.883 5.258 1.09.051 3.212.041 4.075-.855-.042.067 1.327-1.66.583-3.049-.081-.05-1.026-.637-2.203-1.198.852.03 1.794.06 2.809.092 2.202 4.441.431 6.08-1.414 10.226a.253.253 0 0 0-.353-.02c-4.337 3.47-6.361 1.605-7.141-.78-.08-.315-.576-.172-.481.138.739 3.133 4.141 4.225 7.657 1.26-.461.851-.8 1.43-.812 1.45-1.598 2.734-1.448 9.203-.601 7.568-.006-.045-.534-4.454 1.037-7.322.99-1.98 5.44-8.337 2.725-12.502 3.124.095 6.82.19 10.411.245l-1.386 1.302c-1.855.78-4.549 3.791-5.468 4.862-.204-.03-.439.116-.338.32-1.418.248-4.964 1.965-3.419 2.02.022-.016 2.307-1.408 3.656-1.555.194-.049.142-.086.336-.29 1.216-.042 5.314.013 7.265 1.22 1.088.15 3.814.783 4.543 1.554-.247.195-.493.388-.737.593-.1-.166-.356-.108-.413.067-1.541.124-6.702.752-9.414 3.678-.4.14-2.819.956-4.423.867-1.417 1.332 4.915-.38 4.536-.377.364.894.78 1.74 1.121 1.825.195.005.324-.236.204-.395-.223-.315-.81-1.237-.889-1.752 2.489-2.488 7.03-3.16 8.697-3.326-.135.441-1.178 3.471-.134 2.427.072-.53.481-1.864.673-2.472 2.926-2.115 5.844-3.964 8.374-4.985-.247.52.338 5.353.967 3.537-.509-1.008-.419-2.992-.334-3.98 5.537-2.186 3.285-1.05 8.012-3.374-.019.391.063 4.055.746 2.687-.213-.82-.248-2.1-.246-2.92.949-.64 3.085-1.009 3.405-1.836 3.436-.105 7.19-.239 11.168-.415a6.538 6.538 0 0 0-2.943 2.84c-2.693 1.386-9.047 4.87-11.871 6.494-.756.546-1.311 1.632-2.375 1.862-.548.12-.762 1.064-1.761 1.243-1.222.784-5.53 3.148-7.099 4.294-2.176 1.126-5.361 3.657-7.01 6.1-.013.013-1.303 1.53-3.783 2.541-.073.034-1.766.858-2.857 1.792-.052.037-5.334 3.768-14.684 10.887-.245.181.035.605.302.398 9.343-7.112 14.618-10.84 14.689-10.89 1.059-.906 2.75-1.729 2.752-1.73 4.42-1.986 4.423-3.819 6.709-5.74 2.565-2.377 8.356-5.517 12.238-7.7.298-.86 1.603-.88 1.816-1.358l1.335-1.28c3.082-1.755 8.142-4.554 11.437-6.26 1.207.44 4.975-1.987 5.49-2.338.274-.187.786-1.248.719-1.3.014.012 32.126-3.45 31.013-7.63ZM31.397 89.674a.248.248 0 0 0-.204.288c.057.332.562 3.259.825 3.835a.25.25 0 1 0 .455-.207c-.199-.438-.637-2.828-.788-3.712-.023-.136-.156-.233-.288-.204m13.007-17.441c.013.013.108.103.302.222.23.276 3.505 1.217 3.895.389-.009-.137-.105-.263-.265-.233-2.56.168-3.564-.72-3.585-.738-.227-.225-.585.137-.347.36m3.72.008c.04.16 4.535-.645 2.965-1.162-4.784 1.944-6.226-.95-6.284-1.076-1.324-.657.38 2.375 3.319 2.238m25.86-7.043c-.249-.207-.573.184-.319.387.611.387 1.575 1.592 2.046 1.944 1.008-.307-1.807-2.308-1.728-2.33M60.854 83.39a.249.249 0 0 0-.164-.312.249.249 0 0 0-.313.164c-.827 3.216-3.654 3.682-2.59 4.097.218-.046 2.07-.874 3.067-3.95m-6.718-.8c.078-.044 1.93-1.123 2.014-3.982a.25.25 0 0 0-.5-.016c-.076 2.567-1.692 3.524-1.761 3.564-.283.157-.032.599.246.435m32.026-67.439c-2.304.373 16.595 5.17 23.293 18.286.149.281.603.042.437-.243-7.098-12.804-23.564-17.992-23.73-18.043m24.324 20.782c-.414.405 1.265 2.22 1.781 4.066a.25.25 0 1 0 .473-.16c-.527-1.556-1.854-3.732-1.91-3.824a.25.25 0 0 0-.344-.082m-63.141-18.21c.386.093 4 1.078 2.924.046-.523.118-3.853-1.1-2.924-.045m-9.54 6.122a.25.25 0 0 0-.013.354c.556.712 1.817 1.006 1.22.247-.458-.05-.772-.824-1.208-.601m.118 5.02c-.153.36.54.438.729.55.298.121.485-.356.178-.467-.215-.044-.777-.447-.907-.083m-4.453-.403c-1.545-.6 1.502 2.88 1.89 2.153a.25.25 0 0 0-.082-.343c-.693-.425-1.318-1.05-1.808-1.81m-3.19 9.945a1.05 1.05 0 0 1-.399-.23c-.237-.223-.58.151-.34.367.188.166.416.315.664.352.275.01.345-.413.074-.489m-3.485 9.416c-1.027-.39-1.997-.76-2.8-1.486-.236-.219-.581.156-.336.371 1.159 1.021 2.573 1.43 3.942 1.951.782-.358-.466-.707-.806-.836m1.385-5.771c-.625-.475-.997.188-.224.447.637.48 1.008-.186.224-.447"/></svg>