<svg width="500" height="360" xmlns="http://www.w3.org/2000/svg"><g fill="none" fill-rule="evenodd"><path d="M397.262 237.754c0-67.515-76.71-122.246-171.337-122.246S54.588 170.239 54.588 237.754c0 67.515 76.71 122.246 171.337 122.246s171.337-54.731 171.337-122.246" fill="#FFF"/><path d="M175.187 112.62 0 0l175.187 112.62z" fill="url(#spprtgrnb)" mask="url(#spprtgrnc)" transform="translate(56.513 247.38)"/><path stroke="#212121" stroke-width=".5" stroke-linecap="round" stroke-linejoin="round" mask="url(#spprtgrne)" d="m1.56 131.591 175.514 112.831" transform="translate(54.588 115.508)"/><path d="m0 0 238.717 154.01L0 0" fill="url(#spprtgrng)" mask="url(#spprtgrnh)" transform="translate(67.102 192.513)"/><path stroke="#212121" stroke-width=".5" stroke-linecap="round" stroke-linejoin="round" mask="url(#spprtgrnj)" d="m11.584 75.926 239.96 154.368" transform="translate(54.588 115.508)"/><path d="m0 0 254.118 163.636L0 0" fill="url(#spprtgrnl)" mask="url(#spprtgrnm)" transform="translate(102.717 153.048)"/><path stroke="#212121" stroke-width=".5" stroke-linecap="round" stroke-linejoin="round" mask="url(#spprtgrno)" d="m47.741 37.021 254.742 163.891" transform="translate(54.588 115.508)"/><path d="M231.016 149.198 0 0l231.016 149.198z" fill="url(#spprtgrnq)" mask="url(#spprtgrnr)" transform="translate(158.545 126.096)"/><path stroke="#212121" stroke-width=".5" stroke-linecap="round" stroke-linejoin="round" mask="url(#spprtgrnt)" d="m103.457 10.593 231.155 148.816" transform="translate(54.588 115.508)"/><path d="M155.936 100.107 0 0l155.936 100.107z" fill="url(#spprtgrnv)" mask="url(#spprtgrnw)" transform="translate(238.439 116.47)"/><path stroke="#212121" stroke-width=".5" stroke-linecap="round" stroke-linejoin="round" mask="url(#spprtgrny)" d="m184.088.236 156.334 100.678" transform="translate(54.588 115.508)"/><path fill="url(#spprtgrnz)" d="m291.658 115.508 59.679 38.503" transform="translate(44)"/><path stroke="#212121" stroke-width=".5" stroke-linecap="round" stroke-linejoin="round" mask="url(#spprtgrnB)" d="m280.701.16 59.676 38.478" transform="translate(54.588 115.508)"/><path d="M0 71.23 119.358 0 0 71.23z" fill="url(#spprtgrnD)" mask="url(#spprtgrnE)" transform="translate(264.428 285.882)"/><path stroke="#212121" stroke-width=".5" stroke-linecap="round" stroke-linejoin="round" mask="url(#spprtgrnG)" d="M328.783 170.536 208.904 241.81" transform="translate(54.588 115.508)"/><path d="M0 136.684 230.053 0 0 136.684z" fill="url(#spprtgrnI)" mask="url(#spprtgrnJ)" transform="translate(164.32 215.615)"/><path stroke="#212121" stroke-width=".5" stroke-linecap="round" stroke-linejoin="round" mask="url(#spprtgrnL)" d="m340.437 98.903-231.31 137.381" transform="translate(54.588 115.508)"/><path d="M0 155.936 262.78 0 0 155.936z" fill="url(#spprtgrnN)" mask="url(#spprtgrnO)" transform="translate(103.68 167.487)"/><path stroke="#212121" stroke-width=".5" stroke-linecap="round" stroke-linejoin="round" mask="url(#spprtgrnQ)" d="M340.346 34.314 48.569 207.543" transform="translate(54.588 115.508)"/><path d="M0 148.235 248.342 0 0 148.235z" fill="url(#spprtgrnS)" mask="url(#spprtgrnT)" transform="translate(66.139 132.834)"/><path stroke="#212121" stroke-width=".5" stroke-linecap="round" stroke-linejoin="round" mask="url(#spprtgrnV)" d="M288.685.236 1.318 170.9" transform="translate(54.588 115.508)"/><path d="M0 105.882 178.075 0 0 105.882z" fill="url(#spprtgrnX)" mask="url(#spprtgrnY)" transform="translate(56.513 115.508)"/><path stroke="#212121" stroke-width=".5" stroke-linecap="round" stroke-linejoin="round" mask="url(#spprtgrnaa)" d="M179.543.236 1.318 106.07" transform="translate(54.588 115.508)"/><path d="M397.572 237.65c0-67.571-76.557-122.348-170.996-122.348-94.439 0-170.996 54.777-170.996 122.349S132.137 360 226.576 360c94.439 0 170.996-54.777 170.996-122.35z" stroke="#212121" stroke-width=".5" stroke-linecap="round" stroke-linejoin="round"/><path d="M346.997 144.176c-6.027 3.154-14.53 7.23-23.961 10.62 0 0-9.08 5.318-18.236 5.399 0 0-11.048-5.163-19.38-6.572 0 0-8.685-4.224-14.256-2.817 0 0-13.304 1.878-19.873.94l-6.1-1.408s-8.442-5.634-11.49.468c0 0-3.049 7.952 7.27 13.482 0 0 2.734 1.07 10.864 1.54 0 0 8.444 1.486 12.509 0 0 0 3.354.547 3.084 2.894 0 0 .356 3.912-1.365 5.946 0 0-6.566 8.081-17.354 15.62l-16.415 7.987s-16.572 4.914-14.384 12.95c0 0 1.175 4.53 7.74 2.254 0 0-7.193 3.354-4.73 8.304 0 0 .82 5.26 11.139 3.052 0 0 2.345 3.79 7.856 4.487 0 0 9.418 1.508 11.92 1.16 0 0 2.507 1.766 7.078 1.296 0 0 2.812 2.39 11.02.08 0 0 3.282.288 8.325-2.536l7.161-4.37s8.567-3.841 12.311-6.252c0 0 16.91-6.927 21.935-16.463 0 0 .806-3.09 7.372-6.255 0 0 14.844-6.844 30.521-10.284 0 0 9.457-1.515 17.728-4.943 0 0 11.504-2.84 23.382-5.868l-51.671-30.71z" fill="#212121"/><path d="m335.502 259.017 11.757-5.285 78.747-46.888s2.278 3.24 2.3-5.072c0 0-.148-2.617-2.385-4.178l-14.661-11.539-112.37-65.012-9.63-2.462s-4.427-1.805-8.121-.17l-34.036 19.38-37.716 21.697s-17.718 9.526-18.847 11.509c0 0-.66 1.172-.66 1.769l.17 1.129.767 1.045 1.661 1.364 1.214.575 27.833 16.198 36.16 20.886 37.949 22.036 31.56 20.078 8.308 2.94z" fill="#D3D3D3"/><path d="m335.502 259.017 11.757-5.285 78.747-46.888s2.278 3.24 2.3-5.072c0 0-.148-2.617-2.385-4.178l-14.661-11.539-112.37-65.012-9.63-2.462s-4.427-1.805-8.121-.17l-34.036 19.38-37.716 21.697s-17.718 9.526-18.847 11.509c0 0-.66 1.172-.66 1.769l.17 1.129.767 1.045 1.661 1.364 1.214.575 27.833 16.198 36.16 20.886 37.949 22.036 31.56 20.078 8.308 2.94z" stroke="#212121" stroke-width=".5" stroke-linecap="round" stroke-linejoin="round"/><path d="m429.804 198.951 3.166-1.207 8.603-41.32 12.835-61.521 1.39-8.135s-.553-5.126-4.036-8.012l-3.216-2.432-10.195-5.785-24.202-14.01-15.786-9.168-67.189-38.828-11.98-6.855S315.927-.3 314.25.56l-3.631 1.731 2.897.655 18.567 9.909 111.99 64.912s8.858 4.49 7.609 10.287l-13.743 65.13-8.968 44.559.208.79.625.417z" fill="#FFF"/><path d="m429.804 198.951 3.166-1.207 8.603-41.32 12.835-61.521 1.39-8.135s-.553-5.126-4.036-8.012l-3.216-2.432-10.195-5.785-24.202-14.01-15.786-9.168-67.189-38.828-11.98-6.855S315.927-.3 314.25.56l-3.631 1.731 2.897.655 18.567 9.909 111.99 64.912s8.858 4.49 7.609 10.287l-13.743 65.13-8.968 44.559.208.79.625.417z" stroke="#212121"/><path fill="#FFF" d="m368.102 230.624-26.428-15.494-37.884-22.25-42.956-25.306-22.48-13.179.389-.433 27.381-16.083 17.747-10.628 2.669-1.62 1.107.512 21.77 12.677 20.794 11.932L350 162.26l20.615 11.822 19.932 11.651 22.773 13.241 4.258 2.303-.624.568zM315.502 205l-29.956 17.646-42.392-24.78 29.274-17.362z"/><path fill="#00EF9F" d="m426.395 191.838-137.956-78.932 23.136-109.1L449.53 82.739z"/><path stroke="#212121" stroke-width=".5" stroke-linecap="round" stroke-linejoin="round" d="m426.395 191.838-137.956-78.932 23.136-109.1L449.53 82.739z"/><path d="m432.243 197.951-3.063.838-.128-.375 23.135-110.31c0-6.806-7.083-10.358-7.083-10.358L316.726 3.466c-2.152-1.57-3.948-1.334-5.04-1.339l1.718-.809.856-.347c1.272-1.573 6.493 1.893 6.526 1.914L448.46 76.747c.069.035 6.917 3.553 6.917 10.088l-23.135 111.116zm-8.432-7.717-132.357-76.782L314.59 8.297 442.485 82.3l.136.078.14.07c.041.02 4.185 2.307 4.185 5.657l-23.135 102.13zm24.936-114.017L321.636 2.657l-.552-.295c-.135-.08-5.661-3.725-7.266-1.803l-3.831 1.66c-.5.583-.639 1.247-.639 1.247l-23.135 113.016 142.445 82.635.267.784 3.92-1.7 23.134-111.366c0-6.912-7.176-10.59-7.232-10.618z" fill="#212121"/><path d="m193.85 169.06 85.887-49.424c.052-.034 5.336-3.103 10.689.002l134.126 77.809c.033.018 3.2 1.826 3.256 3.87.026.93-.626 1.821-1.928 2.646l-85.315 50.03c-.007.006-.064.049-.07.056-.055.048-5.425 4.946-12.66-.074L193.792 176.41c-.032-.014-3.242-1.43-3.36-3.42-.076-1.258 1.074-2.581 3.417-3.93m234.96 37.425v-4.78a.267.267 0 0 0-.004-.04l.01-.055c.02-.095.04-.205.038-.323-.074-2.636-3.595-4.644-3.785-4.75L290.95 118.732c-5.94-3.447-11.688-.033-11.742-.002l-85.88 49.422c-2.715 1.565-4.041 3.214-3.939 4.9.003.065.019.12.04.163v4.92a.77.77 0 0 1-.016.099c-.013.072-.03.16-.024.256.163 2.697 3.933 4.293 3.939 4.293l133.949 77.513c2.337 1.624 4.734 2.446 7.124 2.446 3.917 0 6.502-2.215 6.74-2.437l85.283-50.01c1.392-.881 2.185-1.902 2.36-3.035a.27.27 0 0 0 .026-.116l-.001-.076a.805.805 0 0 1 .017-.1c.015-.071.03-.15.028-.243a.905.905 0 0 0-.044-.24" fill="#212121"/><path d="m246.792 149.543-.106.18 8.038 4.727-7.587 4.776-8.373-4.922 8.028-4.761zm39.858-23.64 8.364 4.836-4.359 2.586-8.295-4.878 4.29-2.544zm125.127 78.64-7.645-4.496 5.311-3.148 7.718 4.462-5.384 3.181zm-70.866.585 8.701 5.116-7.586 4.776-8.702-5.117 7.587-4.775zm-11.978-7.044 11.468 6.743-7.587 4.777-11.468-6.744 7.587-4.776zm-44.631-26.243 44.121 25.943-7.511 4.729.092.146-44.29-26.042 7.588-4.776zm-12.369-7.272 11.859 6.972-7.588 4.777-11.86-6.974 7.59-4.775zm-8.185-4.812 7.675 4.512-7.587 4.776-7.675-4.513 7.587-4.775zm-.51-.3-7.587 4.776-8.004-4.707 7.587-4.777 8.004 4.708zm14.665-12.018-7.808 4.914-14.082-8.28 8.075-4.789-.013.023 13.828 8.132zm2.428-9.108-8.153 5.132-7.6-4.47 8.535-5.062-.068.117 7.286 4.283zm1.282.145-8.117-4.772 8.348-4.951 7.868 4.626-8.099 5.097zm17.54.454-8.098 5.097-8.932-5.251 8.03-5.055-.08-.13 9.08 5.34zm.94-.056-8.92-5.245 4.364-2.588 8.994 5.2-4.437 2.633zm9.59 5.639-9.072-5.335 4.442-2.636 9.045 5.231-4.468 2.65.053.09zm9.32 5.48-8.905-5.236 4.523-2.682 8.911 5.152-4.564 2.706.034.06zm9.219 5.42-8.769-5.156 4.567-2.709-.035-.059 8.912 5.152-4.675 2.772zm9.6 5.645-9.082-5.34 4.655-2.762-.024-.04 9.205 5.322-4.754 2.82zm9.285 5.46-8.768-5.156 4.758-2.822 8.842 5.111-4.832 2.866zm9.65 5.674-9.133-5.371 4.836-2.868 9.135 5.28-4.876 2.894.039.065zm9.369 5.509-8.926-5.249 4.916-2.916 8.98 5.191-4.98 2.955.01.019zm9.413 5.535-8.917-5.244 4.996-2.963 8.967 5.185-5.058 3 .012.022zm9.508 5.59-9.015-5.301 5.036-2.986-.042-.07 9.138 5.283-5.155 3.009.038.064zm8.95 5.262-8.505-5 5.196-3.033 8.535 4.935-5.225 3.098zm.518.304 5.23-3.1 9.176 5.305-5.306 3.147-9.1-5.352zm.567 10.802 8.053-5.123 8.125 4.777-8.362 4.942-7.816-4.596zm-9.435 4.987 8.109-5.157 8.624 5.071-8.418 4.975-8.315-4.889zm-11.701 3.234 7.764-4.94 11.735 6.901-8.063 4.764-11.436-6.725zm-4.577-2.08 15.496 9.111-8.411 4.97-15.155-8.91 8.142-5.054-.072-.118zm-9.37-5.51 8.994 5.288-8.204 5.093-8.95-5.262 8.16-5.12zM322.3 183.659l4.167 2.45.047.075.04-.025 4.519 2.658-8.159 5.12-8.772-5.158 8.158-5.12zm-9.606-5.648 9.096 5.348-8.159 5.119-9.089-5.344 8.152-5.123zm-9.29-5.463 8.78 5.163-8.152 5.122-8.772-5.157 8.145-5.128zm-9.353-5.5 8.844 5.2-8.145 5.128-8.844-5.2 8.145-5.128zm-6.708-14.06-7.808 4.916-8.931-5.251 7.808-4.915 8.93 5.25zm11.918-3.526-7.979 5.022.21.335-9.363-5.505 8.151-5.131 8.98 5.28zm10.647 5.652-8.855-5.207 8.097-5.097 8.845 5.2-8.093 5.095.006.009zm9.272 5.451-.756-.444-.01-.017-.009.005-7.998-4.701 8.098-5.098 8.78 5.162-8.105 5.093zm37.886 22.277-8.911-5.24 8.111-5.09 8.911 5.24-8.11 5.09zm9.41 5.534-8.9-5.234 8.112-5.089 8.9 5.233-8.112 5.09zm9.475 5.57-8.964-5.27 8.111-5.09 8.994 5.289-8.15 5.057.01.015zm9.005 5.295-8.51-5.004 8.157-5.063 8.406 4.944-8.053 5.123zm-31.078-7.13 8.9 5.234-7.82 4.908-8.9-5.234 7.82-4.907zm-44.133-26.56-3.03-1.78-.014-.025-.014.009-5.714-3.36 8.151-5.132 8.78 5.162-8.16 5.127zm38.185 22.454-3.362-1.977-.065-.105-.054.035-5.73-3.37 8.167-5.122 8.91 5.24-8.03 5.037.164.262zm19.08 11.218 8.211-5.097 8.408 4.944-8.073 5.136.043.067-8.589-5.05zm7.7-5.397-8.05 4.996.19.307-3.449-2.028-.065-.105-.056.034-5.728-3.368 8.165-5.123 8.993 5.287zm-9.504-5.588-8.027 5.037.166.266-9.204-5.413 8.166-5.123 8.9 5.233zm-18.831-11.073-8.004 5.023.194.31-3.579-2.105-.065-.104-.056.034-5.728-3.369 8.165-5.123 9.073 5.334zm-9.583-5.634-8.166 5.124-2.924-1.72-.065-.104-.055.033-5.728-3.368 8.165-5.124 8.773 5.159zm-9.283-5.458-8.165 5.124-3.149-1.852-.119-.19-.1.061-5.721-3.365 8.158-5.126 9.096 5.348zm-18.895-11.11-7.994 5.033.19.302-3.41-2.006-.037-.057-.03.019-5.715-3.36 8.152-5.131 8.844 5.2zm-11.781 3.606-7.808 4.915-8.98-5.28 7.807-4.915 8.98 5.28zm-7.299 5.215 7.808-4.914 8.845 5.2-7.808 4.914-8.845-5.2zm9.355 5.5 7.808-4.915 8.779 5.162-7.815 4.911-8.772-5.158zm9.282 5.458 7.815-4.91 9.095 5.347-7.821 4.907-9.089-5.344zm9.6 5.644 7.82-4.907 8.774 5.158-7.821 4.907-8.773-5.158zm9.283 5.459 7.82-4.907 9.073 5.334-7.82 4.907-9.073-5.334zm9.583 5.634 7.82-4.907 8.912 5.24-7.821 4.906-8.91-5.239zm18.832 11.073 7.82-4.907 8.993 5.288-7.864 4.881-8.95-5.262zm9.46 5.563 7.864-4.881 8.409 4.943-7.766 4.94-8.507-5.002zm16.897-.18-.07-.11-.057.036-5.67-3.334 8.108-5.158 9.11 5.356-8.082 5.14.034.053-3.373-1.983zm20.8-8.163-8.054 5.123-9.109-5.356 8.054-5.123 9.11 5.356zm-46.87-27.559-8.103 5.085.01.015-9.09-5.345 8.11-5.09 9.074 5.335zm-9.583-5.634-8.111 5.09-8.772-5.16 8.11-5.089 8.773 5.159zm-9.283-5.46-8.111 5.09-9.09-5.344 8.105-5.093 9.096 5.348zm-28.249-16.61-8.077 5.085.026.042-9.026-5.308 8.098-5.098 8.98 5.28zm-18.87-.626-8.04 5.06.134.216-9.178-5.396 8.153-5.131 8.93 5.251zm-17.683 20.168-.09-.145-.075.048-4.948-2.91 8.003-5.037-.17-.272 9.242 5.434-8.144 5.127-3.818-2.245zm4.328 2.544 8.118-5.11-.032-.051 9.039 5.315-8.145 5.127-8.98-5.28zm52.663 30.966-.086-.136-.07.044-5.498-3.232 8.158-5.12 9.072 5.335-8.158 5.119-3.418-2.01zm3.928 2.31 8.159-5.12 8.91 5.24-8.157 5.12-8.912-5.24zm9.422 5.54 8.094-5.08-.076-.123 9.04 5.316-8.158 5.12-8.9-5.233zm-87.116-51.333-.09.057-8.122-4.776 8.45-5.011-.028.047 19.087 11.223-8.145 5.127-2.372-1.395-.194-.31-.16.102-8.32-4.891-.106-.173zM368.1 230.352l-25.566-15.032 7.587-4.777 25.814 15.178-7.835 4.631zm.001.61 8.352-4.936.085.05.09-.153 41.574-24.567-131.424-75.985-.132-.077-48.915 29.012 130.237 76.577.133.078zm-82.59-8.567-41.917-24.564 28.776-17.068 42.624 24.211-29.482 17.421zm-13.146-42.24-29.806 17.679 42.821 25.092.133.079 30.528-18.04L272.5 180.23l-.133-.075z" fill="#212121"/><path d="m251.449 209.822 2.467 1.414 8.224 4.773-10.691-6.187zm80.602-67.748c-3.31 1.439-9.52 3.932-13.204 5.257 0 0-9.08 5.317-18.236 5.398 0 0-11.048-5.164-19.38-6.572 0 0-8.685-4.224-14.255-2.817 0 0-13.306 1.878-19.874.94l-6.099-1.408s-.64-.426-1.629-.916l-10.135 5.831c.47 2.714 2.24 6.193 7.543 9.035 0 0 2.734 1.07 10.865 1.54 0 0 8.443 1.486 12.508 0 0 0 3.353.547 3.084 2.894 0 0 .355 3.912-1.365 5.946 0 0-6.566 8.081-17.354 15.62l-16.415 7.987s-2.969.882-6.226 2.506l50.67 29.322c.487-.231.991-.486 1.52-.781l7.162-4.371s8.566-3.84 12.31-6.251c0 0 16.91-6.927 21.936-16.463 0 0 .805-3.09 7.371-6.255 0 0 14.843-6.844 30.521-10.284 0 0 9.457-1.515 17.727-4.943 0 0 3.289-.812 8.16-2.03l-47.205-29.185z" fill="#212121"/><path d="M397.824 56.457S381.58 68.23 376.447 72.611c0 0-21.684 17.76-24.509 19.637 0 0-14.813 9.154-33.091 15.725 0 0-9.08 5.317-18.237 5.398 0 0-11.047-5.163-19.38-6.572 0 0-8.684-4.224-14.255-2.817 0 0-13.304 1.879-19.873.94l-6.1-1.408s-8.442-5.634-11.49.468c0 0-3.049 7.952 7.27 13.482 0 0 2.734 1.07 10.864 1.54 0 0 8.444 1.486 12.509 0 0 0 3.354.547 3.084 2.894 0 0 .356 3.912-1.365 5.946 0 0-6.566 8.081-17.354 15.62l-16.415 7.987s-16.572 4.914-14.384 12.95c0 0 1.176 4.53 7.74 2.254 0 0-7.193 3.354-4.73 8.304 0 0 .82 5.262 11.139 3.052 0 0 2.345 3.79 7.856 4.487 0 0 9.418 1.508 11.92 1.16 0 0 2.507 1.766 7.078 1.296 0 0 2.812 2.39 11.02.08 0 0 3.282.288 8.324-2.536l7.162-4.37s8.567-3.84 12.311-6.252c0 0 16.91-6.927 21.935-16.462 0 0 .805-3.09 7.372-6.255 0 0 14.844-6.844 30.521-10.285 0 0 9.457-1.515 17.727-4.942 0 0 43.212-10.673 48.607-12.683 0 0 18.481-6.48 21.787-9.056l5.019-22.158s1.95-4.301-3.75-7.589l-44.935-25.989z" fill="#FFF"/><path d="M397.824 56.457S381.58 68.23 376.447 72.611c0 0-21.684 17.76-24.509 19.637 0 0-14.813 9.154-33.091 15.725 0 0-9.08 5.317-18.237 5.398 0 0-11.047-5.163-19.38-6.572 0 0-8.684-4.224-14.255-2.817 0 0-13.304 1.879-19.873.94l-6.1-1.408s-8.442-5.634-11.49.468c0 0-3.049 7.952 7.27 13.482 0 0 2.734 1.07 10.864 1.54 0 0 8.444 1.486 12.509 0 0 0 3.354.547 3.084 2.894 0 0 .356 3.912-1.365 5.946 0 0-6.566 8.081-17.354 15.62l-16.415 7.987s-16.572 4.914-14.384 12.95c0 0 1.176 4.53 7.74 2.254 0 0-7.193 3.354-4.73 8.304 0 0 .82 5.262 11.139 3.052 0 0 2.345 3.79 7.856 4.487 0 0 9.418 1.508 11.92 1.16 0 0 2.507 1.766 7.078 1.296 0 0 2.812 2.39 11.02.08 0 0 3.282.288 8.324-2.536l7.162-4.37s8.567-3.84 12.311-6.252c0 0 16.91-6.927 21.935-16.462 0 0 .805-3.09 7.372-6.255 0 0 14.844-6.844 30.521-10.285 0 0 9.457-1.515 17.727-4.942 0 0 43.212-10.673 48.607-12.683 0 0 18.481-6.48 21.787-9.056l5.019-22.158s1.95-4.301-3.75-7.589l-44.935-25.989z" stroke="#212121" stroke-width=".5" stroke-linecap="round" stroke-linejoin="round"/><path d="m221.461 166.655 6.644-.694s5.96-2.12 10.25-2.477l13.325-6.497s.227-5.974-1.649-7.486m-22.161 28.51s-1.172-4.02 2.697-5.462c0 0 4.436-1.216 8.198-1.036l3.293.155s3.87-.969 6.215-.472c0 0 4.807-4.276 11.14-5.644l2.344-2.068 1.482-2.05m-15.593 22.225s-3.477-6.272 5.434-8.18h6.801s3.87-1.766 5.628-1.719c0 0 4.062-4.53 10.005-4.354 0 0 4.16.92 4.816 2.425m-8.371-5.535 2.109 3.24" stroke="#212121" stroke-width=".5" stroke-linecap="round" stroke-linejoin="round"/><path d="M258.591 140.01s16.113 3.754 28.753-1.996c0 0 11.232-5.732 14.163-6.973m-33.535 13.769s12.569 7.175 23.482 7.543m-10.224 3.06s7.973 10.159 9.943 11.636c0 0 2.142 1.606 2.368 4.826m-29.749-62.025s-1.761 6.259-3.637 9.154m13.913-9.154s-9.465 6.102-10.829 12.048m-11.55-13.3s-1.698 7.512-4.042 10.406m66.496-2.426s11.215 10.19 14.182 23.95m-12.823-14.625s7.776 10.366 8.03 18.28m-8.03-11.958s5.68 7.676 5.731 12.288m-6.237.297s2.501 4.984 2.832 7.543M300.61 113.37s4.98 3.942 6.573 7.877m-51.17 38.243s-2.45-2.308-4.333-2.504m12.156 12.058s-.663-2.174-4.424-3.493m-11.14 5.644s2.025.562 3.417 2.423m-9.631-1.95s1.876 1.65 2.227 2.773m-5.93-10.958s-.87-5.01-3.8-6.498m25.326 18.493s3.766 1.379 4.697 4.078m.931-5.797s4.211.962 5.097 2.558" stroke="#212121" stroke-width=".5" stroke-linecap="round" stroke-linejoin="round"/><path d="M389.326 62.694s30.67 4.995 34.892 36.57c0 0 .325 14.694-6.639 22.666 0 0 17.965-5.856 23.91-9.738l5.02-22.157s1.76-4.402-3.749-7.588l-44.935-25.99-8.5 6.237z" fill="#212121"/><path d="M215.613 166.386s1.592 1.414 5.848 0l6.606-.699s5.853-2.057 10-2.46c0 0-.64-3.563-2.99-5.62 0 0 2.312 4.114-4.33 5.62 0 0-12.76 3.562-15.134 3.159m22.455-4.952s.832.296 1.407.039c0 0 10.814-4.75 11.108-6.954 0 0 .588-3.1-.385-4.497 0 0 1.333 1.354 1.235 6.838l-12.87 6.22-.495-1.646zm-20.357 14.869s1.866 3.183 9.867 1.493c0 0-.44-2.155.465-3.55 0 0-7.036 2.424-10.332 2.057m12.68-4.016s5.3-1.395 11.667-.906c0 0 3.846-.784 6.047-.49 0 0 5.31-4.359 11.158-5.546l2.36-2.1 1.237-1.81s-8.859 5.205-24.505 9.008c0 0-5.786.84-7.964 1.844m3.28 9.476s1.638.515 3.865.735c0 0 6.606 1.077 9.69.906 0 0-1.078-2.301-.148-4.09 0 0-4.208 2.62-13.408 2.45m19.739-6.545h6.386s2.495-1.322 5.541-1.745c0 0 3.836-3.832 8.24-4.223l-1.617-2.39s-.879 2.539-6.934 4.98c0 0-5.689 2.882-11.616 3.378m-5.12 8.44s2.11 1.478 6.496 1.036c0 0 3.31 2.558 10.818.083 0 0 3.918.156 8.689-2.709l6.938-4.2 6.843-3.274s4.643-2.369 5.21-2.902c0 0-.28-2.883-2.335-4.474 0 0 .883 3.854-8.818 8.57 0 0-6.779 4.88-9.758 4.974 0 0-5.087 2.457-16.93 2.481 0 0-5.428.204-7.153.415m43.49-16.44s1.811 1.909 1.958 4.284c0 0 9.843-4.256 14.878-8.79 0 0 4.393-3.085 6.887-7.894 0 0 .427-1.24 2.066-2.587 0 0-.954-3.501-1.565-4.578 0 0 .813 6.176-5.747 11.94 0 0-6.503 4.888-12.404 7.284 0 0-3.518 2.46-6.072.34" fill="#D3D3D3"/><path d="M316.565 147.653s1.224 2.963 1.432 4.163c0 0 2.41-2.13 8.99-4.701 0 0 9.421-3.943 18.083-6.404 0 0 5.713-1.657 11.376-2.717 0 0 7.916-1.555 14.65-4.347l25.428-6.391s19.159-4.876 21.348-5.67c0 0 2.78-2.814 4.772-9.97 0 0-48.329 19.598-78.697 26.753 0 0-16.364 5.905-24.43 9.799 0 0-1.802 1.46-2.952-.515" fill="#212121"/><path d="M229.685 104.235s4.841 7.276 9.099 7.716c0 0 5.505 1.323 7.34 1.102 0 0 4.092-.605 4.881-2.736 0 0-.991 4.671-3.487 8.369 0 0-6.288-.073-10.642-1.494 0 0-9.197-3.957-7.191-12.957m21.797 6.21s-1.156 4.923-3.376 8.394c0 0 7.621 1.39 11.88-.056 0 0 1.773-3.036 2.873-6.807 0 0-1.94 5.21-7.584 4.58 0 0-4.698-.32-3.793-6.11m11.757 1.922s-1.016 3.722-2.679 6.49c0 0 1.896.256 2.758 1.89 0 0 .25-1.132 1.866-3.189 0 0-3.132 1.029-1.945-5.19" fill="#D3D3D3"/><path d="M206.394 272.218s-4.811-2.153-8.193-1.89c0 0-4.634.028-10.701 1.2l-24.945 3.404-24.655.677-47.475 36.343c8.243 7.57 17.703 14.424 28.169 20.42 4.806-3.617 10.178-7.294 14.595-9.374 0 0 13.385 2.89 32.548-5.288 0 0 12.118-6.488 16.909-8.18 0 0 21.344-9.012 21.418-14.382 0 0 4.098-4.597 2.33-7.982 0 0 2.46-2.679 1.826-7.12 0 0 3.958-2.54-1.826-7.828" fill="#212121"/><path d="m77.227 327.312 47.11-40.937c2.442-3.09 7.822-2.445 7.822-2.445 1.957.434 12.43.336 12.43.336 5.886-.614 15.405-4.44 15.405-4.44 5.948-2.746 13.596-8.221 13.596-8.221 1.742-2.309 7.932-4.088 7.932-4.088 3.799-.254 7.653-4.058 7.653-4.058l7.33-4.45c5.115-3.935 5.209-8.482 5.209-8.482l3.527-1.5c2.826-1.43 3.288-5.165 3.288-5.165.593-2.47-2.303-4.438-2.303-4.438 3.948-1.545 3.723-5.066 3.723-5.066-.172-4.378-3.917-4.98-3.917-4.98-2.016-.945-5.662-.682-5.662-.682s-2.168-.367-3.185-.249c0 0 3.83-.9 2.736-6.369-.638-3.186-6.163-4.465-6.163-4.465-3.466-.632-10.628-.028-10.628-.028-3.083.322-19.871 2.354-19.871 2.354-5.134-.317-23.82 3.899-23.82 3.899-1.388.285-4.289-3.098-4.289-3.098.348-.745 5.663-10.94 5.663-10.94l1.974-4.176c1.878-10.544-4.592-15.542-4.592-15.542-3.124-2.794-4.837-.205-4.837-.205-2.547 1.4-2.74 9.076-2.74 9.076l-.961 1.659-.791 1.926c-.724 1.21-2.795 5.82-2.795 5.82-1.057 2.095-7.889 8.6-7.889 8.6-2.343 1.996-3.948 13.12-3.948 13.12l-4.841 14.753c-1.709 4.006-4.672 6.157-4.672 6.157-5.063 3.08-24.977 15.93-24.977 15.93-9.159 6.719-21.39 12.395-32.046 16.599 0 0-10.01 8.534 2.909 27.34 0 0 14.484 21.548 26.62 16.455" fill="#FFF"/><path d="m77.227 327.312 47.11-40.937c2.442-3.09 7.822-2.445 7.822-2.445 1.957.434 12.43.336 12.43.336 5.886-.614 15.405-4.44 15.405-4.44 5.948-2.746 13.596-8.221 13.596-8.221 1.742-2.309 7.932-4.088 7.932-4.088 3.799-.254 7.653-4.058 7.653-4.058l7.33-4.45c5.115-3.935 5.209-8.482 5.209-8.482l3.527-1.5c2.826-1.43 3.288-5.165 3.288-5.165.593-2.47-2.303-4.438-2.303-4.438 3.948-1.545 3.723-5.066 3.723-5.066-.172-4.378-3.917-4.98-3.917-4.98-2.016-.945-5.662-.682-5.662-.682s-2.168-.367-3.185-.249c0 0 3.83-.9 2.736-6.369-.638-3.186-6.163-4.465-6.163-4.465-3.466-.632-10.628-.028-10.628-.028-3.083.322-19.871 2.354-19.871 2.354-5.134-.317-23.82 3.899-23.82 3.899-1.388.285-4.289-3.098-4.289-3.098.348-.745 5.663-10.94 5.663-10.94l1.974-4.176c1.878-10.544-4.592-15.542-4.592-15.542-3.124-2.794-4.837-.205-4.837-.205-2.547 1.4-2.74 9.076-2.74 9.076l-.961 1.659-.791 1.926c-.724 1.21-2.795 5.82-2.795 5.82-1.057 2.095-7.889 8.6-7.889 8.6-2.343 1.996-3.948 13.12-3.948 13.12l-4.841 14.753c-1.709 4.006-4.672 6.157-4.672 6.157-5.063 3.08-24.977 15.93-24.977 15.93-9.159 6.719-21.39 12.395-32.046 16.599 0 0-10.01 8.534 2.909 27.34 0 0 14.484 21.548 26.62 16.455z" stroke="#212121" stroke-width=".5" stroke-linecap="round" stroke-linejoin="round"/><path d="M126.768 206.827s6.815.26 8.558-.346m56.678 25.748s.916 3.945 1.353 5.424m2.826-4.158.397 3.822.04.386m-2.642-4.97s.83 3.883 1.1 5.13m-19.924 10.016s3.802-2.949 7.262-3.735c0 0 10.694-2.045 12.485-2.545l6.805-1.307 4.52-.868m-33.412 22.734s4.356-4.424 11.711-5.898c0 0 14.684-3.826 15.936-4.779l1.253-.954m-74.825 34.046s1.006-7.528-6.205-15.568m70.274-22.773s.577 4.214 1.115 5.3m.368-4.639s.262 2.525.77 3.323m-58.06-29.476s-1.02-1.623-1.612-3.547m66.732 11.508c-3.635-.898-8.409.875-8.409.875-2.7 1.274-8.182 1.701-8.182 1.701-2.986-.117-8.475 1.594-8.475 1.594-2.45.964-6.607-.872-6.607-.872m-26.162 15.53s10.237-5.454 13.028-8.648m-18.08 19.293s14.624-2.528 18.745-5.589m-12.896 14.503s9.44.132 13.693-1.463m-28.762-61.182s4.05-.317 5.93-.617m-4.3-2.926s1.802.357 4.278-.346m-3.317-1.313s4.225-.184 5.597-1.284c0 0 2.072-2.556 1.646-6.658 0 0-1.08-2.668-4.504-1.134 0 0-2.202 1.146-2.74 9.076z" stroke="#212121" stroke-width=".5" stroke-linecap="round" stroke-linejoin="round"/><path d="M135.15 220.158s-.988-1.546-1.354-2.965c0 0 9.603-13.012 8.465-20.064 0 0 1.223 3.954.293 8.313 0 0-4.385 9.574-7.404 14.716m33.658 11.656s3.12 1.273 5.137 1.053c0 0 .514.012 1.322-.294 0 0 3.78-1.212 7.156-1.506 0 0 .832-.083 1.31-.055 0 0 4.807-.385 7.799-1.533 0 0 2.421-1.02 5.523-1.277 0 0 1.725-.257 2.556-2.46 0 0-4.798 1.81-10.228 2.705 0 0-17.15 3.93-20.575 3.367" fill="#D3D3D3"/><path d="M181.951 219.25s1.342 6.089 2.483 7.529m.22-4.701s2.873 5.735 2.846 6.934m-6.344-5.152s1.005 4.293 1.86 5.619" stroke="#212121" stroke-width=".5" stroke-linecap="round" stroke-linejoin="round"/><path d="M175.022 247.608s3.132-2.326 6.361-3.452c0 0 2.717-.637 4.429-.931 0 0 7.756-1.543 8.882-1.837l10.3-1.964 1.126-.215s2.57-.784 3.328-3.232c0 0-6.264 1.811-10.57 2.35 0 0-15.953 2.84-17.959 3.723 0 0-4.356.783-5.897 5.558m-2.208 14.239s2.44-2.792 8.056-4.885l7.67-2.057s7.928-2.082 11.305-3.373c0 0 .623-.282 1.724-1.218l3.548-1.531s1.761-.22 3.01-4.138c0 0-5.054 3.428-11.507 4.8 0 0-20.412 4.53-23.806 12.402m-35.912 22.148h6.937s6.716-.147 16.772-4.775c0 0 3.817-1.543 12.454-7.567 0 0 2.373-2.741 8.392-4.382 0 0 3.523-.098 7.536-4.016l7.243-4.408s2.899-1.775 4.427-5.289c0 0-4.917 4.505-18.13 10.48 0 0-7.892 3.015-13.935 6.955 0 0-11.51 7.835-22.276 10.97l-9.42 2.032z" fill="#D3D3D3"/><path d="M184.806 258.96s.976 3.938.482 4.628m1.708-4.006s.55 1.893.258 2.49" stroke="#212121" stroke-width=".5" stroke-linecap="round" stroke-linejoin="round"/><path d="M173.42 261.847s3.002-2.856 8.037-4.481c0 0 14.607-3.93 18.424-5.29 0 0 1.495-.676 1.505-.991 0 0-.11.698-.202.79 0 0-3.997 2.515-13.844 5.527 0 0-7.865 1.617-13.92 4.445m2.055-13.968s3.168-2.524 6.471-3.332l14.236-2.988 9.938-1.86s.758.465 1.223 1.15c0 0-23.023 4.19-31.868 7.03m-2.948-14.547s1.308.27 2.753-.233c0 0 5.351-1.664 8.38-1.555 0 0 4.783-.263 8.22-1.69 0 0 4.964-1.795 8.39-.842 0 0-5.422.512-10.888 2.643 0 0-11.4 3.685-16.855 1.677m-48.299 52.793-46.61 40.452-.49.49s-4.012 2.154-9.517-.587l50.574-37.71s2.104-1.91 6.043-2.645" fill="#D3D3D3"/></g></svg>