<svg width="500" height="360" xmlns="http://www.w3.org/2000/svg"><g fill="none" fill-rule="evenodd"><path stroke="#555574" stroke-width=".5" mask="url(#wbvrtpppyb)" d="M0 .642h384.638" transform="translate(69.977 61.457)"/><path stroke="#555574" stroke-width=".5" mask="url(#wbvrtpppyd)" d="M0 .642h28.72" transform="translate(31 61.457)"/><path stroke="#555574" stroke-width=".5" mask="url(#wbvrtpppyf)" d="M0 .642h9.232" transform="translate(460.769 61.457)"/><path d="m370.304 10.53-.815-3.982c-.848-4.51-5.47-6.291-10.227-6.291h-220.25c-4.802 0-9.14 1.719-9.936 6.29l-1.083 3.95 1.464-.993 9.555 137.868h220.25l9.554-137.87 1.488 1.027z" fill="#FFF"/><path d="m370.304 10.53-.815-3.982c-.848-4.51-5.47-6.291-10.227-6.291h-220.25c-4.802 0-9.14 1.719-9.936 6.29l-1.083 3.95 1.464-.993 9.555 137.868h220.25l9.554-137.87 1.488 1.027z" stroke="#212121" stroke-width=".5" stroke-linecap="round" stroke-linejoin="round"/><path d="m358.56 153.716 9.714-140.178c-.048-3.863-3.204-6.99-7.078-6.99H137.078a7.088 7.088 0 0 0-7.08 6.99l9.716 140.178H358.56z" fill="#FFF"/><path d="m358.56 153.716 9.714-140.178c-.048-3.863-3.204-6.99-7.078-6.99H137.078a7.088 7.088 0 0 0-7.08 6.99l9.716 140.178H358.56z" stroke="#212121" stroke-width=".5" stroke-linecap="round" stroke-linejoin="round"/><path fill="#D3D3D3" d="M180.405 126.946h81.572l1.368-63.106h-86.93z"/><path stroke="#212121" stroke-width=".5" stroke-linecap="round" stroke-linejoin="round" d="M180.405 126.946h81.572l1.368-63.106h-86.93z"/><path fill="#D3D3D3" d="m179.57 38.108 83.774.043.427-31.926-85.56.021z"/><path stroke="#212121" stroke-width=".5" stroke-linecap="round" stroke-linejoin="round" d="m179.57 38.108 83.774.043.427-31.926-85.56.021z"/><path fill="#D3D3D3" d="M276.395 20.973h79.331l-4.57 60.67h-75.533z"/><path stroke="#212121" stroke-width=".5" stroke-linecap="round" stroke-linejoin="round" d="M276.395 20.973h79.331l-4.57 60.67h-75.533z"/><path fill="#FFF" d="m275.86 74.253 75.861-.1-.633 7.49-75.494.085z"/><path stroke="#212121" stroke-width=".5" d="m275.86 74.253 75.861-.1-.633 7.49-75.494.085z"/><path fill="#FFF" d="M276.093 74.152h7.157l-.631 7.49h-7.042z"/><path stroke="#212121" stroke-width=".5" d="M276.093 74.152h7.157l-.631 7.49h-7.042z"/><path fill="#FFF" d="m278.693 76.164-.407 3.996 3.455-2.037z"/><path stroke="#212121" stroke-width=".5" stroke-linecap="round" stroke-linejoin="round" d="m278.693 76.164-.407 3.996 3.455-2.037z"/><path d="M298.33 78.195a.904.904 0 1 1 1.808 0 .904.904 0 0 1-1.808 0" fill="#FFF"/><path d="M298.33 78.195a.904.904 0 1 1 1.808 0 .904.904 0 0 1-1.808 0z" stroke="#212121" stroke-width=".5"/><path fill="#FFF" d="m347.988 78.195-62.013.063"/><path stroke="#212121" stroke-width=".5" d="m347.988 78.195-62.013.063"/><path fill="#D3D3D3" d="M288.751 90.444h4.435l-.354 4.71h-4.28z"/><path stroke="#212121" stroke-width=".5" d="M288.751 90.444h4.435l-.354 4.71h-4.28z"/><path d="M293.521 142.676h32.378a4.435 4.435 0 0 0 4.422-4.422 4.435 4.435 0 0 0-4.422-4.422h-32.378a4.436 4.436 0 0 0-4.422 4.422 4.436 4.436 0 0 0 4.422 4.422" fill="#212121"/><path d="M293.521 142.676h32.378a4.435 4.435 0 0 0 4.422-4.422h0a4.435 4.435 0 0 0-4.422-4.422h-32.378a4.436 4.436 0 0 0-4.422 4.422h0a4.436 4.436 0 0 0 4.422 4.422z" stroke="#212121" stroke-width=".5" stroke-linecap="round" stroke-linejoin="round"/><path stroke="#FFF3EF" stroke-width=".5" stroke-linecap="round" stroke-linejoin="round" d="M323.621 138.254h-27.822"/><path d="M198.6 53.023h32.378a4.435 4.435 0 0 0 4.422-4.422 4.435 4.435 0 0 0-4.422-4.422H198.6a4.436 4.436 0 0 0-4.422 4.422 4.436 4.436 0 0 0 4.422 4.422" fill="#212121"/><path d="M198.6 53.023h32.378a4.435 4.435 0 0 0 4.422-4.422 4.435 4.435 0 0 0-4.422-4.422H198.6a4.436 4.436 0 0 0-4.422 4.422 4.436 4.436 0 0 0 4.422 4.422z" stroke="#212121" stroke-width=".5" stroke-linecap="round" stroke-linejoin="round"/><path stroke="#FFF3EF" stroke-width=".5" stroke-linecap="round" stroke-linejoin="round" d="M228.7 48.601h-27.822"/><path fill="#FFF" d="M248.12 133.288h-60.76"/><path stroke="#212121" stroke-width=".5" d="M248.12 133.288h-60.76"/><path fill="#FFF" d="M244.515 136.882h-54.538"/><path stroke="#212121" stroke-width=".5" d="M244.515 136.882h-54.538"/><path fill="#FFF" d="m333.479 122.909-46.871-.397"/><path stroke="#212121" stroke-width=".5" d="m333.479 122.909-46.871-.397"/><path fill="#FFF" d="M328.316 126.904h-35.549"/><path stroke="#212121" stroke-width=".5" d="M328.316 126.904h-35.549"/><path fill="#FFF" d="m348.629 92.828-47.394.115"/><path stroke="#212121" stroke-width=".5" d="m348.629 92.828-47.394.115"/><path fill="#D3D3D3" d="M287.913 100.478h4.435l-.353 4.71h-4.28z"/><path stroke="#212121" stroke-width=".5" d="M287.913 100.478h4.435l-.353 4.71h-4.28z"/><path fill="#FFF" d="m356.071 102.863-55.902-.309"/><path stroke="#212121" stroke-width=".5" d="m356.071 102.863-55.902-.309"/><path fill="#D3D3D3" d="M287.34 109.827h4.435l-.354 4.71h-4.28z"/><path stroke="#212121" stroke-width=".5" d="M287.34 109.827h4.435l-.354 4.71h-4.28z"/><path fill="#FFF" d="m329.171 112.212-29.161.223"/><path stroke="#212121" stroke-width=".5" d="m329.171 112.212-29.161.223"/><path d="M199.67 154.119h32.377a4.435 4.435 0 0 0 4.422-4.423 4.435 4.435 0 0 0-4.422-4.421H199.67a4.436 4.436 0 0 0-4.423 4.421 4.436 4.436 0 0 0 4.423 4.423" fill="#212121"/><path d="M199.67 154.119h32.377a4.435 4.435 0 0 0 4.422-4.423 4.435 4.435 0 0 0-4.422-4.421H199.67a4.436 4.436 0 0 0-4.423 4.421 4.436 4.436 0 0 0 4.423 4.423z" stroke="#212121" stroke-width=".5" stroke-linecap="round" stroke-linejoin="round"/><path stroke="#FFF3EF" stroke-width=".5" stroke-linecap="round" stroke-linejoin="round" d="M229.769 149.697h-27.821"/><path fill="#FFF" d="M139.425 154.967h46.2L178.152 9.694l-46.25-.524z"/><path stroke="#212121" stroke-width=".5" stroke-linecap="round" stroke-linejoin="round" d="M139.425 154.967h46.2L178.152 9.694l-46.25-.524zm34.171-103.142h-30.937m26.331 6.107h-25.2m28.284 6.674h-27.153m23.507 6.674h-23.507m27.641 6.674h-26.509m16.918 6.673h-16.919m23.709 6.674h-22.578m25.084-65.593-5.114 5.14m5.127-.013-5.14-5.114"/><path d="M165.853 141.774a2.256 2.256 0 1 0 4.513 0 2.256 2.256 0 0 0-4.513 0m-7.744 0a2.256 2.256 0 1 0 4.513 0 2.256 2.256 0 0 0-4.513 0m-7.743 0a2.256 2.256 0 1 0 4.513 0 2.256 2.256 0 0 0-4.513 0" fill="#212121"/><path stroke="#FFF" stroke-width=".5" stroke-linecap="round" stroke-linejoin="round" d="M179.457 148.01h-29.091"/><path d="M184.92 31.65a1.365 1.365 0 0 1 2.729 0c0 .752-.612 1.364-1.365 1.364a1.366 1.366 0 0 1-1.364-1.365m-.848 0c0 1.22.993 2.211 2.212 2.211a2.2 2.2 0 0 0 1.197-.356l1.333 1.333a.42.42 0 0 0 .6 0 .423.423 0 0 0 0-.598l-1.323-1.322c.253-.36.405-.796.405-1.268 0-1.22-.993-2.211-2.212-2.211a2.214 2.214 0 0 0-2.212 2.211" fill="#FFF"/><path d="M184.92 31.65a1.365 1.365 0 0 1 2.729 0c0 .752-.612 1.364-1.365 1.364a1.366 1.366 0 0 1-1.364-1.365zm-.848 0c0 1.219.993 2.21 2.212 2.21a2.2 2.2 0 0 0 1.197-.356l1.333 1.333a.42.42 0 0 0 .6 0 .423.423 0 0 0 0-.598l-1.323-1.322c.253-.36.405-.796.405-1.268 0-1.22-.993-2.211-2.212-2.211a2.214 2.214 0 0 0-2.212 2.211z" stroke="#212121" stroke-width=".5"/><path fill="#FFF" mask="url(#wbvrtpppyh)" d="M33.757 21.788H268.86V8.781H33.757z" transform="translate(96.85)"/><path stroke="#212121" stroke-width=".5" mask="url(#wbvrtpppyh)" d="M33.757 21.788H268.86V8.781H33.757z" transform="translate(96.85)"/><path fill="#212121" mask="url(#wbvrtpppyh)" d="M56.053 19.118H51.78l-.267-4.272h4.272z" transform="translate(96.85)"/><path stroke="#212121" stroke-width=".5" stroke-linecap="round" stroke-linejoin="round" mask="url(#wbvrtpppyh)" d="M56.053 19.118H51.78l-.267-4.272h4.272z" transform="translate(96.85)"/><path d="M54.858 14.78a1.308 1.308 0 0 0-2.616 0" stroke="#212121" stroke-width=".5" mask="url(#wbvrtpppyh)" transform="translate(96.85)"/><g mask="url(#wbvrtpppyh)" transform="translate(96.85)"><path fill="#FFF" d="M242.425 16.784H122.671"/><path stroke="#212121" stroke-width=".5" d="M242.425 16.784H122.671"/></g><path stroke="#212121" stroke-width=".5" stroke-linecap="round" stroke-linejoin="round" mask="url(#wbvrtpppyh)" d="M51.546 30.895H40.659m10.816-2.002H40.589m10.673-2.003H40.376m10.653-2.002H40.142" transform="translate(96.85)"/><path d="M40.228 3.723c-5.47 0-9.904 4.434-9.904 9.904l9.904 142.913h224.118l9.904-142.913c0-5.47-4.435-9.904-9.904-9.904H40.228zm0 5.65h224.118a4.26 4.26 0 0 1 4.251 4.1l-9.523 137.418H45.5L35.977 13.472a4.259 4.259 0 0 1 4.251-4.1z" fill="#212121" mask="url(#wbvrtpppyh)" transform="translate(96.85)"/><path d="M40.228 3.723c-5.47 0-9.904 4.434-9.904 9.904l9.904 142.913h224.118l9.904-142.913c0-5.47-4.435-9.904-9.904-9.904H40.228zm0 5.65h224.118a4.26 4.26 0 0 1 4.251 4.1l-9.523 137.418H45.5L35.977 13.472a4.259 4.259 0 0 1 4.251-4.1h0z" stroke="#212121" stroke-width=".5" stroke-linecap="round" stroke-linejoin="round" mask="url(#wbvrtpppyh)" transform="translate(96.85)"/><path d="m287.132 290.065-17.03-123.174c0-4.007-4.126-7.285-9.169-7.285H45.125c-5.043 0-9.168 3.278-9.168 7.285L15.79 290.065l-1.196 5.051v1.218l.042 1.36c.22 3.854 4.224 6.959 9.126 6.959h255.211c4.902 0 8.905-3.105 9.127-6.96l.04-.738v-2.653l-1.009-4.237z" fill="#212121" mask="url(#wbvrtpppyh)" transform="translate(96.85)"/><path d="m287.132 290.065-17.03-123.174c0-4.007-4.126-7.285-9.169-7.285H45.125c-5.043 0-9.168 3.278-9.168 7.285L15.79 290.065l-1.196 5.051v1.218l.042 1.36c.22 3.854 4.224 6.959 9.126 6.959h255.211c4.902 0 8.905-3.105 9.127-6.96l.04-.738v-2.653l-1.009-4.237z" stroke="#212121" stroke-width=".5" mask="url(#wbvrtpppyh)" transform="translate(96.85)"/><path d="M278.974 301.587H23.763c-5.043 0-9.169-3.278-9.169-7.285l21.362-130.476c0-4.007 4.126-7.285 9.169-7.285h215.808c5.043 0 9.169 3.278 9.169 7.285l18.04 130.476c0 4.007-4.126 7.285-9.168 7.285" fill="#FFF" mask="url(#wbvrtpppyh)" transform="translate(96.85)"/><path d="M278.974 301.587H23.763c-5.043 0-9.169-3.278-9.169-7.285l21.362-130.476c0-4.007 4.126-7.285 9.169-7.285h215.808c5.043 0 9.169 3.278 9.169 7.285l18.04 130.476c0 4.007-4.126 7.285-9.168 7.285z" stroke="#212121" stroke-width=".5" mask="url(#wbvrtpppyh)" transform="translate(96.85)"/><path d="M40.815 219.25h14.118l-1.65 11.438h-14.35l1.882-11.438zm9.255-56.291h19.663l-.936 6.962.176.023H48.922l1.148-6.985zm205.566 6.985h-15.059l.127-.014-.783-6.971h14.77l.945 6.985zm-38.01 49.306h.277l.005.068.858-.066v-.002h14.929l.007.077.796-.077h27.813l1.55 11.438h-45.389l-.846-11.438zm-15.587.052.73-.04v-.012h13.995l.846 11.438h-14.968l-.603-11.386zm-20.442-.052h4.333v.05l.861-.03v-.02h14.382l.605 11.438h-19.89l-.29-11.438zm-75.857 0h.421v.003l.86.065.004-.068h14.97v.012l.859.047.003-.059h14.863v.02l.86.03.003-.05h15.4v.031l.861.008v-.039h14.857l.001.04.86-.009v-.03h10.173l.29 11.437h-76.164l.88-11.438zm-21.013 0h5.335l.796.077.007-.077h14.013l-.88 11.438H83.524l1.204-11.438zm-13.903 0h3l.724.086.01-.086h9.304l-1.204 11.438H69.407l1.417-11.438zm-.867 0-1.417 11.438H54.154l1.649-11.438h14.154zm5.153-11.928-1.315 11.068H40.956l1.82-11.068H75.11zm-7.248-11.83-1.437 10.97H42.917l1.804-10.97h23.14zm-8.628-12.316-1.667 11.455H44.863l1.883-11.455h12.488zm1.854-.86h-14.2l1.892-11.51h13.954l-1.646 11.51zm16.228-11.51-1.405 11.51H61.958l1.646-11.51h13.712zm5.77-.862H69.661l.938-6.985h13.147l-.795 6.97.133.015zm14.094 0H83.817l.796-6.985h13.148l-.653 6.98.072.005zm14.084 0H97.973l.653-6.985h13.149l-.511 6.985zm14.157 0h-13.294l.511-6.985h13.152l-.369 6.985zm14.156 0h-13.294l.368-6.985h13.151l-.225 6.985zm14.156 0h-13.295l.226-6.985h13.151l-.082 6.985zm14.157 0h-13.296l.082-6.985h13.153l.06 6.985zm14.155 0H168.75l-.06-6.985h13.151l.204 6.985zm14.156 0h-13.294l-.204-6.985h13.152l.346 6.985zm14.157 0h-13.294l-.346-6.985h13.15l.49 6.985zm14.154 0H211.22l-.49-6.985h13.15l.632 6.985zm.808 0 .055-.005-.63-6.98h14.31l.787 6.985H225.32zm17.142 24.687-1.274-11.455h16.239l1.552 11.455h-16.517zm-3.26 11.83-1.15-10.968h21.043l1.485 10.969h-21.377zm-21.337.861h14.675l1.07 11.068h-14.909l-.836-11.068zm-62.893 0h14.605l.116 11.068h-14.84l.12-11.068zm-16.001 0h15.14l-.118 11.068H138.61l.36-11.068zm-15.472 0h14.61l-.36 11.068h-14.845l.595-11.068zm-15.578 0h14.717l-.596 11.068h-14.953l.832-11.068zm-24.078-11.83-1.193 10.97H67.294l1.437-10.97h15.112zm5.684-12.316-1.175 11.455H74.216l1.414-11.455h13.897zm16.321-.86H91.927l1.156-11.51h13.68l-.915 11.51zm104.444-11.51.804 11.51h-14.24l-.558-11.51h13.994zm14.007 0 1.037 11.51h-13.379l-.803-11.51H224.3zm2.539 23.825-1.023-11.455h14.509l1.273 11.455h-14.759zm-108.061 0H105.05l.922-11.455h13.493l-.69 11.455zm46.65-11.455.057 11.455h-14.698l.192-11.455h14.448zm15.051 0 .302 11.455h-14.436l-.057-11.455h14.191zm15.036 0 .545 11.455h-14.418l-.301-11.455h14.174zm15.188 0 .793 11.455h-14.572l-.547-11.455h14.326zm14.249 0 1.023 11.455h-13.618l-.793-11.455h13.388zm-74.834 0-.191 11.455h-14.643l.44-11.455h14.394zm-15.256 0-.44 11.455H119.64l.688-11.455h14.533zm-29.751 0-.922 11.455h-14.97l1.174-11.455h14.718zm-21.594 23.286 1.193-10.97h14.156l-.963 10.97H83.516zm15.25 0 .963-10.97h14.459l-.728 10.97H98.766zm15.556 0 .729-10.97h14.343l-.497 10.97h-14.575zm15.436 0 .496-10.97h15.177l-.25 10.97h-15.423zm16.284 0 .251-10.97h14.293l-.02 10.97h-14.524zm15.386 0 .018-10.97h14.785l.218 10.97h-15.021zm15.883 0-.22-10.97h14.523l.454 10.97h-14.757zm15.619 0-.454-10.97h14.504l.689 10.97h-14.74zm15.602 0-.69-10.97h14.56l.925 10.97h-14.795zm15.659 0-.925-10.97h13.92l1.15 10.97H224.19zm15.209-35.656 1.286 11.51H226.2l-1.037-11.51H239.4zm-43.964 0 .557 11.51h-14.09l-.312-11.51h13.845zm-14.707 0 .313 11.51h-14.347l-.065-11.51h14.1zm-14.96 0 .064 11.51h-14.077l.18-11.51h13.833zm-14.695 0-.179 11.51H137.05l.42-11.51h13.605zm-14.467 0-.42 11.51h-14.58l.673-11.51h14.327zm-15.19 0-.672 11.51h-14.034l.916-11.51h13.79zm-29.198 0-1.157 11.51H76.778l1.405-11.51H92.22zm-17.456 12.37-1.414 11.455H58.438l1.667-11.455h14.658zm-.102 35.214 1.316-11.068h15.178l-1.072 11.068H74.661zm16.288 0 1.072-11.068h15.036l-.831 11.068H90.949zm79.605 0-.116-11.068h15.104l.359 11.068h-15.347zm16.21 0-.36-11.068h14.857l.598 11.068h-15.096zm15.958 0-.597-11.068h14.879l.835 11.068h-15.117zm31.754 0-1.07-11.068h27.29l1.5 11.068h-27.72zm22.835-36.075h-15.76l-1.287-11.51h15.488l1.56 11.51zm-1.868-20.217H49.34l-11.419 69.45h226.926l-9.403-69.45z" fill="#212121" mask="url(#wbvrtpppyh)" transform="translate(96.85)"/><path fill="#212121" mask="url(#wbvrtpppyh)" d="m91.842 209.754 25.796-58.933-6.328-98.604-30.965 62.79z" transform="translate(96.85)"/><path fill="#FFF" mask="url(#wbvrtpppyh)" d="m89.05 209.196 2.784.558-11.574-94.615-2.784-.558z" transform="translate(96.85)"/><path stroke="#212121" stroke-width=".5" mask="url(#wbvrtpppyh)" d="m89.05 209.196 2.784.558-11.574-94.615-2.784-.558z" transform="translate(96.85)"/><path fill="#FFF" mask="url(#wbvrtpppyh)" d="m77.403 114.459 2.784.558 31.123-62.8-2.783-.559z" transform="translate(96.85)"/><path stroke="#212121" stroke-width=".5" stroke-linecap="round" stroke-linejoin="round" mask="url(#wbvrtpppyh)" d="m77.403 114.459 2.784.558 31.123-62.8-2.783-.559z" transform="translate(96.85)"/><path fill="#212121" mask="url(#wbvrtpppyh)" d="m118.235 150.82 8.26-98.603h-15.184zm66.267 0-8.261-98.603h15.185z" transform="translate(96.85)"/><path d="M113.001 79.632a1.05 1.05 0 0 1-1.047-.983l-.575-8.98a1.05 1.05 0 0 1 .98-1.114 1.06 1.06 0 0 1 1.115.98l.577 8.98a1.05 1.05 0 0 1-.982 1.115c-.022.002-.045.002-.068.002" fill="#FFF" mask="url(#wbvrtpppyh)" transform="translate(96.85)"/><path d="M113.001 79.632a1.05 1.05 0 0 1-1.047-.983l-.575-8.98a1.05 1.05 0 0 1 .98-1.114 1.06 1.06 0 0 1 1.115.98l.577 8.98a1.05 1.05 0 0 1-.982 1.115c-.022.002-.045.002-.068.002z" stroke="#212121" stroke-width=".5" stroke-linecap="round" stroke-linejoin="round" mask="url(#wbvrtpppyh)" transform="translate(96.85)"/><path d="m111.57 69.638.576 8.98c.02.315.187.578.42.756.002-.043.02-.081.018-.125l-.67-10.437a1.032 1.032 0 0 0-.345.826" fill="#212121" mask="url(#wbvrtpppyh)" transform="translate(96.85)"/><path d="M113.761 73.534a1.05 1.05 0 0 1-2.095.134" stroke="#212121" stroke-width=".5" stroke-linecap="round" stroke-linejoin="round" mask="url(#wbvrtpppyh)" transform="translate(96.85)"/><path d="M116.587 137.805a1.05 1.05 0 0 1-1.047-.982l-.576-8.98a1.05 1.05 0 0 1 .98-1.115 1.06 1.06 0 0 1 1.116.98l.576 8.98a1.05 1.05 0 0 1-1.05 1.117" fill="#FFF" mask="url(#wbvrtpppyh)" transform="translate(96.85)"/><path d="M116.587 137.805a1.05 1.05 0 0 1-1.047-.982l-.576-8.98a1.05 1.05 0 0 1 .98-1.115 1.06 1.06 0 0 1 1.116.98l.576 8.98a1.05 1.05 0 0 1-1.05 1.117z" stroke="#212121" stroke-width=".5" stroke-linecap="round" stroke-linejoin="round" mask="url(#wbvrtpppyh)" transform="translate(96.85)"/><path d="m115.143 127.848.576 8.98c.02.315.187.578.42.756.003-.043.021-.081.018-.125l-.67-10.438a1.036 1.036 0 0 0-.344.827" fill="#212121" mask="url(#wbvrtpppyh)" transform="translate(96.85)"/><path d="M117.347 131.707a1.05 1.05 0 0 1-.981 1.115c-.023.002-.046.002-.069.002a1.05 1.05 0 0 1-1.046-.982" stroke="#212121" stroke-width=".5" stroke-linecap="round" stroke-linejoin="round" mask="url(#wbvrtpppyh)" transform="translate(96.85)"/><path d="m202.209 359.531-4.469-54.407.972-2.975-.294-2.154-.087-.01-13.12-142.788.22-5.076s-.203-.498-.667-2.517l-.262 1.217-8.261-98.604h-49.745l-8.26 98.604h.142c-.112.322-.237.918-.06 1.488l.447 4.888-13.986 144.046s-.152.637-.005 1.004l1.463 2.877-4.452 54.62s101.379-.213 100.424-.213" fill="#FC440F" mask="url(#wbvrtpppyh)" transform="translate(96.85)"/><path d="m202.209 359.531-4.469-54.407.972-2.975-.294-2.154-.087-.01-13.12-142.788.22-5.076s-.203-.498-.667-2.517l-.262 1.217-8.261-98.604h-49.745l-8.26 98.604h.142c-.112.322-.237.918-.06 1.488l.447 4.888-13.986 144.046s-.152.637-.005 1.004l1.463 2.877-4.452 54.62s101.379-.213 100.424-.213z" stroke="#212121" stroke-width=".5" stroke-linecap="round" stroke-linejoin="round" mask="url(#wbvrtpppyh)" transform="translate(96.85)"/><path fill="#212121" mask="url(#wbvrtpppyh)" d="m104.774 302.247 93.938-.097-.973 2.974h-91.502zm13.784-150.013 66.614-.12-.24 4.428h-65.964z" transform="translate(96.85)"/><g mask="url(#wbvrtpppyh)" transform="translate(96.85)"><path fill="#FFF" d="M120.467 152.18h45.693"/><path stroke="#212121" stroke-width=".5" stroke-linecap="round" stroke-linejoin="round" d="M120.467 152.18h45.693"/></g><g mask="url(#wbvrtpppyh)" transform="translate(96.85)"><path fill="#FFF" d="M125.522 156.219h28.616"/><path stroke="#212121" stroke-width=".5" stroke-linecap="round" stroke-linejoin="round" d="M125.522 156.219h28.616"/></g><g mask="url(#wbvrtpppyh)" transform="translate(96.85)"><path fill="#FFF" d="M159.1 156.219h17.377"/><path stroke="#212121" stroke-width=".5" stroke-linecap="round" stroke-linejoin="round" d="M159.1 156.219h17.377"/></g><g mask="url(#wbvrtpppyh)" transform="translate(96.85)"><path fill="#FFF" d="M172.738 152.18h10.731"/><path stroke="#212121" stroke-width=".5" stroke-linecap="round" stroke-linejoin="round" d="M172.738 152.18h10.731"/></g><g mask="url(#wbvrtpppyh)" transform="translate(96.85)"><path fill="#FFF" d="M109.574 302.239h51.524"/><path stroke="#212121" stroke-width=".5" stroke-linecap="round" stroke-linejoin="round" d="M109.574 302.239h51.524"/></g><g mask="url(#wbvrtpppyh)" transform="translate(96.85)"><path fill="#FFF" d="M112.788 305.199h12.263"/><path stroke="#212121" stroke-width=".5" stroke-linecap="round" stroke-linejoin="round" d="M112.788 305.199h12.263"/></g><g mask="url(#wbvrtpppyh)" transform="translate(96.85)"><path fill="#FFF" d="M132.456 305.199h37.066"/><path stroke="#212121" stroke-width=".5" stroke-linecap="round" stroke-linejoin="round" d="M132.456 305.199h37.066"/></g><g mask="url(#wbvrtpppyh)" transform="translate(96.85)"><path fill="#FFF" d="M176.77 305.199h12.342"/><path stroke="#212121" stroke-width=".5" stroke-linecap="round" stroke-linejoin="round" d="M176.77 305.199h12.342"/></g><g mask="url(#wbvrtpppyh)" transform="translate(96.85)"><path fill="#FFF" d="M169.13 302.239h22.529"/><path stroke="#212121" stroke-width=".5" stroke-linecap="round" stroke-linejoin="round" d="M169.13 302.239h22.529"/></g><path d="M41.397 258.807c0 .973-1.14 1.763-2.546 1.763-1.407 0-2.547-.79-2.547-1.763 0-.974 1.14-1.763 2.547-1.763 1.406 0 2.546.79 2.546 1.763" fill="#FFF" mask="url(#wbvrtpppyh)" transform="translate(96.85)"/><path d="M41.397 258.807c0 .973-1.14 1.763-2.546 1.763-1.407 0-2.547-.79-2.547-1.763 0-.974 1.14-1.763 2.547-1.763 1.406 0 2.546.79 2.546 1.763z" stroke="#212121" stroke-width=".5" mask="url(#wbvrtpppyh)" transform="translate(96.85)"/><path d="M84.987 231.87c0 .974-1.14 1.764-2.547 1.764-1.406 0-2.546-.79-2.546-1.764 0-.973 1.14-1.763 2.546-1.763 1.407 0 2.547.79 2.547 1.763" fill="#FFF" mask="url(#wbvrtpppyh)" transform="translate(96.85)"/><path d="M84.987 231.87c0 .974-1.14 1.764-2.547 1.764-1.406 0-2.546-.79-2.546-1.764 0-.973 1.14-1.763 2.546-1.763 1.407 0 2.547.79 2.547 1.763z" stroke="#212121" stroke-width=".5" stroke-linecap="round" stroke-linejoin="round" mask="url(#wbvrtpppyh)" transform="translate(96.85)"/><path d="M5.644 280.062c0 .973-1.14 1.763-2.547 1.763-1.406 0-2.547-.79-2.547-1.763 0-.974 1.14-1.764 2.547-1.764 1.406 0 2.547.79 2.547 1.764" fill="#212121" mask="url(#wbvrtpppyh)" transform="translate(96.85)"/><path d="M5.644 280.062c0 .973-1.14 1.763-2.547 1.763-1.406 0-2.547-.79-2.547-1.763 0-.974 1.14-1.764 2.547-1.764 1.406 0 2.547.79 2.547 1.764z" stroke="#212121" stroke-width=".5" stroke-linecap="round" stroke-linejoin="round" mask="url(#wbvrtpppyh)" transform="translate(96.85)"/><path d="M238.384 284.763c0 .973-1.14 1.763-2.547 1.763-1.406 0-2.546-.79-2.546-1.763 0-.973 1.14-1.763 2.546-1.763 1.407 0 2.547.79 2.547 1.763" fill="#212121" mask="url(#wbvrtpppyh)" transform="translate(96.85)"/><path d="M238.384 284.763c0 .973-1.14 1.763-2.547 1.763-1.406 0-2.546-.79-2.546-1.763 0-.973 1.14-1.763 2.546-1.763 1.407 0 2.547.79 2.547 1.763z" stroke="#212121" stroke-width=".5" stroke-linecap="round" stroke-linejoin="round" mask="url(#wbvrtpppyh)" transform="translate(96.85)"/><path d="M53.544 268.895c0 .974-1.14 1.763-2.547 1.763-1.406 0-2.547-.79-2.547-1.763 0-.973 1.14-1.763 2.547-1.763 1.406 0 2.547.79 2.547 1.763" fill="#FFF" mask="url(#wbvrtpppyh)" transform="translate(96.85)"/><path d="M53.544 268.895c0 .974-1.14 1.763-2.547 1.763-1.406 0-2.547-.79-2.547-1.763 0-.973 1.14-1.763 2.547-1.763 1.406 0 2.547.79 2.547 1.763z" stroke="#212121" stroke-width=".5" mask="url(#wbvrtpppyh)" transform="translate(96.85)"/><path d="M81.46 256.26c0 .973-1.14 1.763-2.546 1.763s-2.547-.79-2.547-1.763c0-.973 1.14-1.763 2.547-1.763 1.406 0 2.547.79 2.547 1.763" fill="#212121" mask="url(#wbvrtpppyh)" transform="translate(96.85)"/><path d="M81.46 256.26c0 .973-1.14 1.763-2.546 1.763s-2.547-.79-2.547-1.763c0-.973 1.14-1.763 2.547-1.763 1.406 0 2.547.79 2.547 1.763z" stroke="#212121" stroke-width=".5" stroke-linecap="round" stroke-linejoin="round" mask="url(#wbvrtpppyh)" transform="translate(96.85)"/><path d="M303.328 265.075c0 .974-1.14 1.763-2.547 1.763-1.406 0-2.547-.79-2.547-1.763 0-.973 1.141-1.763 2.547-1.763 1.406 0 2.547.79 2.547 1.763" fill="#FC440F" mask="url(#wbvrtpppyh)" transform="translate(96.85)"/><path d="M303.328 265.075c0 .974-1.14 1.763-2.547 1.763-1.406 0-2.547-.79-2.547-1.763 0-.973 1.141-1.763 2.547-1.763 1.406 0 2.547.79 2.547 1.763z" stroke="#212121" stroke-width=".5" stroke-linecap="round" stroke-linejoin="round" mask="url(#wbvrtpppyh)" transform="translate(96.85)"/><path d="M48.548 326.783c0 .974-1.14 1.763-2.547 1.763-1.406 0-2.547-.79-2.547-1.763 0-.973 1.141-1.763 2.547-1.763 1.406 0 2.547.79 2.547 1.763" fill="#212121" mask="url(#wbvrtpppyh)" transform="translate(96.85)"/><path d="M48.548 326.783c0 .974-1.14 1.763-2.547 1.763-1.406 0-2.547-.79-2.547-1.763 0-.973 1.141-1.763 2.547-1.763 1.406 0 2.547.79 2.547 1.763z" stroke="#212121" stroke-width=".5" stroke-linecap="round" stroke-linejoin="round" mask="url(#wbvrtpppyh)" transform="translate(96.85)"/><path d="M253.959 249.501c0 .974-1.14 1.763-2.547 1.763-1.406 0-2.547-.79-2.547-1.763 0-.973 1.141-1.763 2.547-1.763 1.406 0 2.547.79 2.547 1.763" fill="#212121" mask="url(#wbvrtpppyh)" transform="translate(96.85)"/><path d="M253.959 249.501c0 .974-1.14 1.763-2.547 1.763-1.406 0-2.547-.79-2.547-1.763 0-.973 1.141-1.763 2.547-1.763 1.406 0 2.547.79 2.547 1.763z" stroke="#212121" stroke-width=".5" stroke-linecap="round" stroke-linejoin="round" mask="url(#wbvrtpppyh)" transform="translate(96.85)"/><path d="M301.859 291.522c0 .973-1.14 1.763-2.547 1.763-1.406 0-2.547-.79-2.547-1.763 0-.974 1.14-1.763 2.547-1.763 1.406 0 2.547.79 2.547 1.763" fill="#FFF" mask="url(#wbvrtpppyh)" transform="translate(96.85)"/><path d="M301.859 291.522c0 .973-1.14 1.763-2.547 1.763-1.406 0-2.547-.79-2.547-1.763 0-.974 1.14-1.763 2.547-1.763 1.406 0 2.547.79 2.547 1.763z" stroke="#212121" stroke-width=".5" mask="url(#wbvrtpppyh)" transform="translate(96.85)"/><path d="M51.389 270.365c0 .973-1.14 1.763-2.547 1.763-1.406 0-2.547-.79-2.547-1.763 0-.974 1.14-1.763 2.547-1.763 1.406 0 2.547.79 2.547 1.763" fill="#212121" mask="url(#wbvrtpppyh)" transform="translate(96.85)"/><path d="M51.389 270.365c0 .973-1.14 1.763-2.547 1.763-1.406 0-2.547-.79-2.547-1.763 0-.974 1.14-1.763 2.547-1.763 1.406 0 2.547.79 2.547 1.763z" stroke="#212121" stroke-width=".5" stroke-linecap="round" stroke-linejoin="round" mask="url(#wbvrtpppyh)" transform="translate(96.85)"/><path d="M203.022 321.2c0 .974-1.14 1.763-2.546 1.763s-2.547-.79-2.547-1.763c0-.973 1.14-1.763 2.547-1.763 1.406 0 2.546.79 2.546 1.763" fill="#FFF" mask="url(#wbvrtpppyh)" transform="translate(96.85)"/><path d="M203.022 321.2c0 .974-1.14 1.763-2.546 1.763s-2.547-.79-2.547-1.763c0-.973 1.14-1.763 2.547-1.763 1.406 0 2.546.79 2.546 1.763z" stroke="#212121" stroke-width=".5" mask="url(#wbvrtpppyh)" transform="translate(96.85)"/><path d="M229.862 255.672c0 .973-1.14 1.763-2.547 1.763-1.406 0-2.546-.79-2.546-1.763 0-.973 1.14-1.763 2.546-1.763 1.407 0 2.547.79 2.547 1.763" fill="#FC440F" mask="url(#wbvrtpppyh)" transform="translate(96.85)"/><path d="M229.862 255.672c0 .973-1.14 1.763-2.547 1.763-1.406 0-2.546-.79-2.546-1.763 0-.973 1.14-1.763 2.546-1.763 1.407 0 2.547.79 2.547 1.763z" stroke="#212121" stroke-width=".5" stroke-linecap="round" stroke-linejoin="round" mask="url(#wbvrtpppyh)" transform="translate(96.85)"/><path d="M273.942 242.743c0 .973-1.14 1.763-2.547 1.763-1.406 0-2.547-.79-2.547-1.763 0-.973 1.14-1.763 2.547-1.763 1.406 0 2.547.79 2.547 1.763" fill="#FFF" mask="url(#wbvrtpppyh)" transform="translate(96.85)"/><path d="M273.942 242.743c0 .973-1.14 1.763-2.547 1.763-1.406 0-2.547-.79-2.547-1.763 0-.973 1.14-1.763 2.547-1.763 1.406 0 2.547.79 2.547 1.763z" stroke="#212121" stroke-width=".5" mask="url(#wbvrtpppyh)" transform="translate(96.85)"/><path d="M307.834 265.075c0 .974-1.14 1.763-2.547 1.763-1.406 0-2.547-.79-2.547-1.763 0-.973 1.141-1.763 2.547-1.763 1.406 0 2.547.79 2.547 1.763" fill="#212121" mask="url(#wbvrtpppyh)" transform="translate(96.85)"/><path d="M307.834 265.075c0 .974-1.14 1.763-2.547 1.763-1.406 0-2.547-.79-2.547-1.763 0-.973 1.141-1.763 2.547-1.763 1.406 0 2.547.79 2.547 1.763z" stroke="#212121" stroke-width=".5" stroke-linecap="round" stroke-linejoin="round" mask="url(#wbvrtpppyh)" transform="translate(96.85)"/><path d="M83.714 275.948c0 .973-1.14 1.763-2.547 1.763-1.406 0-2.547-.79-2.547-1.763 0-.974 1.14-1.763 2.547-1.763 1.406 0 2.547.79 2.547 1.763" fill="#FC440F" mask="url(#wbvrtpppyh)" transform="translate(96.85)"/><path d="M83.714 275.948c0 .973-1.14 1.763-2.547 1.763-1.406 0-2.547-.79-2.547-1.763 0-.974 1.14-1.763 2.547-1.763 1.406 0 2.547.79 2.547 1.763z" stroke="#212121" stroke-width=".5" stroke-linecap="round" stroke-linejoin="round" mask="url(#wbvrtpppyh)" transform="translate(96.85)"/><path d="M95.664 249.795c0 .974-1.14 1.763-2.547 1.763-1.406 0-2.546-.79-2.546-1.763 0-.973 1.14-1.763 2.546-1.763 1.407 0 2.547.79 2.547 1.763" fill="#FC440F" mask="url(#wbvrtpppyh)" transform="translate(96.85)"/><path d="M95.664 249.795c0 .974-1.14 1.763-2.547 1.763-1.406 0-2.546-.79-2.546-1.763 0-.973 1.14-1.763 2.546-1.763 1.407 0 2.547.79 2.547 1.763z" stroke="#212121" stroke-width=".5" stroke-linecap="round" stroke-linejoin="round" mask="url(#wbvrtpppyh)" transform="translate(96.85)"/><path d="M5.35 237.454c0 .973-1.14 1.763-2.547 1.763-1.406 0-2.546-.79-2.546-1.763 0-.974 1.14-1.763 2.546-1.763 1.407 0 2.547.79 2.547 1.763" fill="#FC440F" mask="url(#wbvrtpppyh)" transform="translate(96.85)"/><path d="M5.35 237.454c0 .973-1.14 1.763-2.547 1.763-1.406 0-2.546-.79-2.546-1.763 0-.974 1.14-1.763 2.546-1.763 1.407 0 2.547.79 2.547 1.763z" stroke="#212121" stroke-width=".5" stroke-linecap="round" stroke-linejoin="round" mask="url(#wbvrtpppyh)" transform="translate(96.85)"/><path d="M213.7 251.265c0 .973-1.141 1.763-2.547 1.763-1.406 0-2.547-.79-2.547-1.763 0-.974 1.14-1.764 2.547-1.764 1.406 0 2.547.79 2.547 1.764" fill="#FFF" mask="url(#wbvrtpppyh)" transform="translate(96.85)"/><path d="M213.7 251.265c0 .973-1.141 1.763-2.547 1.763-1.406 0-2.547-.79-2.547-1.763 0-.974 1.14-1.764 2.547-1.764 1.406 0 2.547.79 2.547 1.764z" stroke="#212121" stroke-width=".5" mask="url(#wbvrtpppyh)" transform="translate(96.85)"/><path d="M199.594 276.535c0 .974-1.14 1.763-2.547 1.763-1.406 0-2.546-.79-2.546-1.763 0-.973 1.14-1.763 2.546-1.763 1.407 0 2.547.79 2.547 1.763" fill="#FFF" mask="url(#wbvrtpppyh)" transform="translate(96.85)"/><path d="M199.594 276.535c0 .974-1.14 1.763-2.547 1.763-1.406 0-2.546-.79-2.546-1.763 0-.973 1.14-1.763 2.546-1.763 1.407 0 2.547.79 2.547 1.763z" stroke="#212121" stroke-width=".5" stroke-linecap="round" stroke-linejoin="round" mask="url(#wbvrtpppyh)" transform="translate(96.85)"/><path d="M241.323 283c0 .973-1.14 1.763-2.547 1.763-1.406 0-2.547-.79-2.547-1.763 0-.973 1.14-1.763 2.547-1.763 1.406 0 2.547.79 2.547 1.763" fill="#FFF" mask="url(#wbvrtpppyh)" transform="translate(96.85)"/><path d="M241.323 283c0 .973-1.14 1.763-2.547 1.763-1.406 0-2.547-.79-2.547-1.763 0-.973 1.14-1.763 2.547-1.763 1.406 0 2.547.79 2.547 1.763z" stroke="#212121" stroke-width=".5" mask="url(#wbvrtpppyh)" transform="translate(96.85)"/><path d="M266.693 309.152c0 .974-1.14 1.764-2.547 1.764-1.406 0-2.547-.79-2.547-1.764 0-.973 1.141-1.763 2.547-1.763 1.406 0 2.547.79 2.547 1.763" fill="#FC440F" mask="url(#wbvrtpppyh)" transform="translate(96.85)"/><path d="M266.693 309.152c0 .974-1.14 1.764-2.547 1.764-1.406 0-2.547-.79-2.547-1.764 0-.973 1.141-1.763 2.547-1.763 1.406 0 2.547.79 2.547 1.763z" stroke="#212121" stroke-width=".5" stroke-linecap="round" stroke-linejoin="round" mask="url(#wbvrtpppyh)" transform="translate(96.85)"/><path d="M169.17 224.25c-1.948-1.284-4.57-.854-5.872.957-1.612 2.227-3.428 3.878-5.518 5.017a14.445 14.445 0 0 1-1.142.56c-1.967.858-4.166 1.31-6.713 1.38-2.547-.07-4.746-.522-6.712-1.38-2.577-1.132-4.755-2.955-6.65-5.577-1.298-1.811-3.917-2.24-5.868-.958-1.96 1.282-2.521 3.792-1.235 5.604 2.688 3.746 6.057 6.514 10.001 8.227.778.336 1.574.633 2.39.888-3.448 2.268-7.23 5.446-9.152 9.804-2.024 4.522-2.177 9.418-.386 13.787 1.748 4.192 5.158 7.6 9.606 9.6 4.992 2.227 11.39 2.232 17.047.01 5.888-2.329 9.615-6.594 10-11.412.393-5.07-2.452-9.585-7.213-11.502-4.897-1.985-10.372-.568-14.025 3.61-1.54 1.742-1.226 4.27.717 5.645 1.955 1.377 4.796 1.078 6.329-.664 1.084-1.241 2.34-1.699 3.45-1.255.948.379 1.898 1.463 1.717 3.37-.18 1.89-2.027 3.758-4.828 4.877-3.044 1.209-6.474 1.27-8.933.16-2.446-1.107-4.351-3.023-5.367-5.393-.757-1.78-1.34-4.617.137-8.02 1.095-2.554 3.77-4.962 8.39-7.58 1.948-1.11 4.029-2.147 6.033-3.149 2.303-1.155 4.475-2.25 6.371-3.423 3.364-1.73 6.27-4.274 8.648-7.58 1.29-1.812.735-4.322-1.222-5.604m-21.458-7.569a2.872 2.872 0 0 1 2-.799 2.86 2.86 0 0 1 1.997.799c.536.515.833 1.199.836 1.928a2.635 2.635 0 0 1-.827 1.927 2.891 2.891 0 0 1-2.015.8 2.883 2.883 0 0 1-2.012-.799 2.633 2.633 0 0 1-.82-1.928 2.684 2.684 0 0 1 .841-1.928m-4.928 8.49c1.825 1.752 4.284 2.717 6.909 2.717s5.086-.965 6.919-2.718c1.82-1.752 2.793-4.082 2.75-6.56-.042-2.48-1.077-4.81-2.904-6.563a9.64 9.64 0 0 0-6.736-2.718 9.672 9.672 0 0 0-6.744 2.718c-1.832 1.753-2.875 4.083-2.925 6.562-.051 2.478.915 4.81 2.73 6.561M126.737 52.505l-.554 6.81h50.419l-.577-6.833z" fill="#212121" mask="url(#wbvrtpppyh)" transform="translate(96.85)"/></g></svg>