<?xml version="1.0" encoding="UTF-8"?><svg id="a" xmlns="http://www.w3.org/2000/svg" width="456.01" height="25" viewBox="0 0 456.01 25"><path d="m0,.32h8.18c5.71,0,8.73,3.18,8.73,8.08s-3.02,7.89-8.73,7.89h-3.73v8.38H0V.32h0Zm7.66,12.08c3.51,0,4.84-1.43,4.84-4.12s-1.33-4.06-4.84-4.06h-3.21v8.18h3.21Z" style="fill:#fff;"/><path d="m19.1,12.5c0-6.92,5.58-12.5,12.5-12.5s12.5,5.58,12.5,12.5-5.58,12.5-12.5,12.5-12.5-5.58-12.5-12.5Zm12.5,8.05c4.51,0,8.05-3.54,8.05-8.05s-3.54-8.05-8.05-8.05-8.05,3.54-8.05,8.05,3.54,8.05,8.05,8.05Z" style="fill:#fff;"/><path d="m46.73,12.5c0-6.92,5.58-12.5,12.5-12.5,2.27,0,4.42.62,6.2,1.69v5.36h-.23c-1.46-1.59-3.57-2.6-5.97-2.6-4.51,0-8.05,3.54-8.05,8.05s3.54,8.05,8.05,8.05c2.4,0,4.51-1.01,5.97-2.6h.23v5.32c-1.79,1.1-3.93,1.72-6.2,1.72-6.92,0-12.5-5.58-12.5-12.5h0Z" style="fill:#fff;"/><path d="m68.29,12.5c0-6.92,5.58-12.5,12.5-12.5s12.5,5.58,12.5,12.5-5.58,12.5-12.5,12.5-12.5-5.58-12.5-12.5Zm12.5,8.05c4.51,0,8.05-3.54,8.05-8.05s-3.54-8.05-8.05-8.05-8.05,3.54-8.05,8.05,3.54,8.05,8.05,8.05Z" style="fill:#fff;"/><path d="m113.57,18.12l-4.17,6.46h-3.74l6.15-9.15-5.86-8.72h3.72l3.91,6.03,3.91-6.03h3.72l-5.86,8.7,6.15,9.18h-3.74l-4.17-6.46h-.02Z" style="fill:#fff;"/><path d="m130.82,9.56h-7.94v-2.86h12.87l-8.82,17.88h-3.77l7.65-15.02s.01,0,.01,0Z" style="fill:#fff;"/></svg>