<?xml version="1.0" encoding="UTF-8"?><svg id="a" xmlns="http://www.w3.org/2000/svg" width="456" height="25" viewBox="0 0 456 25"><g id="b"><path d="M115.33.39c-3.56,0-7.13.45-9.38,2.67-2.25,2.22-3.12,5.55-3.12,9.63s.78,7.36,3.03,9.57c2.25,2.21,5.91,2.75,9.46,2.75s7.1-.45,9.36-2.67c2.25-2.21,3.14-5.57,3.14-9.65s-.79-7.33-3.04-9.55c-2.25-2.22-5.9-2.74-9.46-2.74h.01ZM120.73,18.57c-1.25,1.43-3.52,1.69-5.4,1.69s-4.14-.25-5.39-1.68c-1.26-1.43-1.34-3.4-1.34-5.89s.08-4.4,1.33-5.84c1.25-1.43,3.27-1.68,5.4-1.68s4.15.25,5.4,1.68c1.25,1.43,1.33,3.36,1.33,5.84s-.08,4.45-1.33,5.89h0ZM66,.83h-5.04c-.21,0-.39.17-.39.38v22.99c0,.21.17.38.39.38h5.04c.21,0,.39-.17.39-.38V1.21c0-.21-.18-.38-.39-.38ZM44.82,12.51L53.77,1.43c.2-.24.02-.6-.28-.6h-6.45c-.15,0-.3.07-.39.2l-5.92,7.84-5.78-7.84c-.09-.13-.24-.2-.39-.2h-6.48c-.3,0-.47.36-.28.6l9.06,11.29-9.07,11.27c-.19.24,0,.59.29.59h6.47c.16,0,.31-.08.4-.2l6.04-7.81,5.73,7.81c.09.13.24.2.39.2h6.39c.31,0,.48-.36.29-.6l-8.97-11.48h0ZM167.54,2.57c-2.05-1.91-5.34-2.14-8.02-2.14-3.45,0-5.64.73-6.97,1.42h-.92c-1.3-.72-3.6-1.42-7.2-1.42-2.67,0-5.94.2-7.96,1.89-1.67,1.4-2.05,3.26-2.05,7.09v14.78c0,.21.17.38.39.38h5.04c.22,0,.39-.17.39-.38v-12.16c0-2.2-.09-4.48.39-5.33.37-.66.95-1.4,3.68-1.4,3.26,0,4.03.23,4.55,1.67.12.34.18.83.21,1.42v15.8c0,.21.17.38.39.38h5.04c.21,0,.39-.17.39-.38v-15.8c.03-.59.09-1.08.21-1.42.51-1.44,1.28-1.67,4.55-1.67,2.74,0,3.32.74,3.68,1.4.48.85.39,3.14.39,5.33v12.16c0,.21.17.38.39.38h5.04c.21,0,.39-.17.39-.38v-13.88c0-3.97-.13-6.01-1.99-7.74h.02-.03ZM95.22,3.98C92.89.77,88.68-.2,84.32.03c-4.43.24-7.51,1.18-8.3,1.48-.49.19-.43.61-.43.86-.02.85-.08,3.04-.08,3.93,0,.39.49.57.89.43,1.62-.57,4.6-1.49,6.99-1.68,2.58-.21,6.1,0,7.07,1.47.46.7.49,1.76.54,2.86-1.61-.15-4.01-.35-6.38-.22-1.85.1-5.39.26-7.48,1.37-1.69.9-2.69,1.73-3.22,3.25-.43,1.23-.54,2.7-.4,3.91.31,2.75,1.26,4.11,2.55,5.07,2.04,1.51,4.6,2.3,9.91,2.19,7.07-.15,8.92-2.44,9.86-4.06,1.6-2.76,1.32-7.12,1.27-9.8-.02-1.11-.19-4.76-1.89-7.1h-.01.01ZM90.61,18.48c-.67,1.4-3.04,1.62-4.45,1.68-2.6.12-4.52.02-5.76-.6-.83-.4-1.43-1.34-1.48-2.39-.05-.9-.03-1.37.38-1.9.91-1.19,3.31-1.45,5.76-1.54,1.66-.07,4.2.13,6.06.35-.02,1.8-.13,3.61-.51,4.4h0ZM182.97.83h-5.04c-.21,0-.39.17-.39.38v22.99c0,.21.17.38.39.38h5.04c.21,0,.39-.17.39-.38V1.21c0-.21-.17-.38-.39-.38Z"/><path d="M207.9,24.75c-2.08,0-3.91-.46-5.5-1.38s-2.8-2.16-3.61-3.72l3.33-2.25c.66,1.17,1.48,2.05,2.45,2.63.97.58,2.09.86,3.35.86.9,0,1.69-.13,2.39-.38s1.23-.61,1.6-1.08c.37-.46.56-.98.56-1.56s-.16-1.11-.48-1.52-.85-.8-1.59-1.14c-.74-.34-1.78-.69-3.13-1.06l-.16-.03c-1.56-.43-2.86-.87-3.9-1.33s-1.93-1.15-2.68-2.09c-.75-.93-1.12-2.13-1.12-3.61,0-1.35.37-2.55,1.12-3.61.75-1.06,1.79-1.88,3.11-2.47,1.33-.59,2.83-.88,4.49-.88,2.01,0,3.73.43,5.15,1.3,1.42.86,2.53,2.02,3.32,3.45l-3.24,2.15c-.6-.96-1.36-1.72-2.28-2.26-.92-.55-1.92-.82-3.02-.82-.81,0-1.55.13-2.21.39s-1.19.61-1.57,1.08c-.38.46-.58.97-.58,1.52,0,.68.19,1.24.58,1.67s.94.79,1.67,1.08,1.72.61,2.98.95c1.56.4,2.88.85,3.96,1.32s2,1.17,2.76,2.1c.76.93,1.14,2.14,1.14,3.64,0,1.41-.37,2.64-1.12,3.7s-1.8,1.88-3.14,2.47-2.9.88-4.65.88h.02Z"/><path d="M220.05,24.36V6.79h4.08v2.31h.16c.51-.87,1.19-1.56,2.04-2.04.84-.48,1.76-.72,2.74-.72,1.05,0,1.96.26,2.74.79.78.52,1.37,1.29,1.78,2.3h.16c.6-.98,1.37-1.74,2.3-2.28s2.02-.8,3.26-.8c1.73,0,3.09.58,4.07,1.73.98,1.15,1.48,2.78,1.48,4.87v11.42h-4.1v-10.58c0-1.13-.25-2.03-.75-2.68-.5-.65-1.19-.98-2.07-.98-.7,0-1.32.16-1.83.48s-.91.78-1.19,1.38-.42,1.31-.42,2.11v10.26h-4.07v-10.58c0-.75-.11-1.4-.36-1.96s-.57-.98-.99-1.27c-.43-.29-.93-.43-1.51-.43-.7,0-1.32.16-1.83.48s-.91.78-1.19,1.38-.42,1.31-.42,2.11v10.26h-4.08,0Z"/><path d="M253.51,24.81c-1.07,0-2.03-.2-2.89-.61-.86-.4-1.53-.98-2.02-1.73s-.74-1.63-.74-2.66c0-1.24.33-2.33.98-3.27.65-.94,1.6-1.67,2.84-2.2,1.24-.52,2.7-.79,4.39-.79h2.5v-.67c0-.92-.32-1.66-.95-2.21-.63-.56-1.46-.84-2.49-.84-.75,0-1.42.16-2.01.48s-1.1.79-1.52,1.41l-2.89-1.99c.79-1.13,1.74-1.98,2.85-2.55s2.39-.85,3.85-.85,2.66.27,3.75.8,1.93,1.3,2.54,2.3c.6.99.9,2.16.9,3.51v11.42h-4.04v-2.21h-.19c-.43.84-1.08,1.49-1.96,1.96s-1.85.7-2.92.7h.02ZM254.63,21.38c.64,0,1.26-.12,1.86-.37s1.09-.61,1.49-1.11c.39-.49.6-1.09.6-1.8v-1.12h-1.63c-1.64,0-2.88.22-3.7.66-.83.44-1.23,1.08-1.23,1.91,0,.56.24,1,.72,1.33s1.11.5,1.91.5h-.02Z"/><path d="M266.43,24.36V6.79h4.08v3.24h.16c.64-1.17,1.51-2.09,2.6-2.73,1.09-.64,2.39-.96,3.91-.96h.19v4.1h-.29c-1.48,0-2.7.19-3.67.56s-1.7.92-2.18,1.63-.72,1.56-.72,2.52v9.21h-4.08Z"/><path d="M278.81,10.6v-3.81h11.58v3.81h-11.58,0ZM287.12,24.91c-1.8,0-3.17-.5-4.14-1.49s-1.44-2.43-1.44-4.31V1.59h4.1v17c0,.77.21,1.36.62,1.78.42.42,1.01.62,1.78.62.6,0,1.25-.11,1.96-.32v3.81c-.87.28-1.84.42-2.89.42h.01Z"/><path d="M306.2,24.36V.66h9.59c2.33,0,4.15.54,5.47,1.62,1.32,1.08,1.97,2.61,1.97,4.6,0,1.22-.28,2.24-.85,3.07s-1.34,1.4-2.33,1.75v.19c1.35.37,2.4,1.02,3.17,1.97s1.15,2.2,1.15,3.74c0,2.11-.72,3.78-2.15,4.97s-3.44,1.8-6.03,1.8h-10.01.02ZM315.73,20.48c1.31,0,2.35-.28,3.14-.84s1.19-1.37,1.19-2.44-.39-1.8-1.17-2.32c-.78-.52-1.83-.79-3.13-.79h-6v-3.88h5.55c1.09,0,1.96-.26,2.6-.79.64-.52.96-1.27.96-2.23,0-.87-.32-1.55-.96-2.01s-1.52-.69-2.63-.69h-4.87v15.97h5.33v.02Z"/><path d="M332.79,24.81c-1.07,0-2.03-.2-2.89-.61-.86-.4-1.53-.98-2.02-1.73s-.74-1.63-.74-2.66c0-1.24.33-2.33.98-3.27.65-.94,1.6-1.67,2.84-2.2,1.24-.52,2.7-.79,4.39-.79h2.5v-.67c0-.92-.32-1.66-.95-2.21-.63-.56-1.46-.84-2.49-.84-.75,0-1.42.16-2.01.48s-1.1.79-1.52,1.41l-2.89-1.99c.79-1.13,1.74-1.98,2.85-2.55,1.11-.57,2.39-.85,3.85-.85s2.66.27,3.75.8,1.93,1.3,2.54,2.3c.6.99.9,2.16.9,3.51v11.42h-4.04v-2.21h-.19c-.43.84-1.08,1.49-1.96,1.96s-1.85.7-2.92.7h.02ZM333.92,21.38c.64,0,1.26-.12,1.86-.37.6-.25,1.09-.61,1.49-1.11.39-.49.6-1.09.6-1.8v-1.12h-1.63c-1.64,0-2.88.22-3.7.66-.83.44-1.23,1.08-1.23,1.91,0,.56.24,1,.72,1.33s1.11.5,1.91.5h-.02Z"/><path d="M345.72,24.36V6.79h4.08v2.34h.16c.51-.85,1.23-1.54,2.15-2.04s1.9-.75,2.95-.75c1.84,0,3.27.58,4.3,1.75,1.03,1.16,1.54,2.82,1.54,4.96v11.32h-4.07v-10.52c0-1.11-.3-2.01-.9-2.68s-1.37-1.01-2.31-1.01c-.77,0-1.44.16-2.02.5s-1.02.8-1.33,1.41-.46,1.31-.46,2.1v10.2h-4.09Z"/><path d="M380.39,24.36h-4.1v-2.25h-.16c-.51.86-1.19,1.52-2.02,1.99s-1.75.7-2.76.7c-1.45,0-2.74-.39-3.86-1.19-1.12-.79-1.99-1.9-2.61-3.32s-.93-3.07-.93-4.92.31-3.38.91-4.75c.61-1.37,1.46-2.43,2.57-3.17,1.1-.75,2.37-1.12,3.8-1.12,1.01,0,1.93.23,2.78.7.84.47,1.56,1.14,2.13,1.99h.16V.66h4.1v23.7h-.01ZM376.41,15.57c0-1.07-.17-2.01-.51-2.83s-.84-1.44-1.48-1.87c-.64-.44-1.37-.66-2.18-.66s-1.54.22-2.16.66c-.63.44-1.12,1.07-1.48,1.87-.36.81-.53,1.75-.53,2.83s.18,2.01.55,2.81.86,1.43,1.51,1.87c.64.45,1.39.67,2.25.67.79,0,1.49-.22,2.1-.67.61-.45,1.09-1.08,1.43-1.87.34-.8.51-1.74.51-2.81h0Z"/><path d="M401.53,24.36V5.4l-5.1,2.63V3.64l5.9-3.02h3.43v23.74h-4.23,0Z"/><path d="M419.65,24.78c-2.78,0-4.91-1.04-6.4-3.11-1.49-2.07-2.23-5.12-2.23-9.14s.74-7.1,2.23-9.19,3.62-3.13,6.4-3.13,4.91,1.04,6.4,3.13c1.49,2.08,2.23,5.15,2.23,9.19s-.74,7.07-2.23,9.14c-1.49,2.08-3.62,3.11-6.4,3.11ZM419.65,20.86c1.39,0,2.45-.7,3.19-2.11s1.1-3.49,1.1-6.22-.37-4.85-1.1-6.27c-.74-1.42-1.8-2.13-3.19-2.13s-2.43.71-3.17,2.13c-.75,1.42-1.12,3.51-1.12,6.27s.37,4.81,1.12,6.22,1.81,2.11,3.17,2.11Z"/></g></svg>