<?xml version="1.0" encoding="utf-8"?>
<!-- Generator: Adobe Illustrator 26.5.0, SVG Export Plug-In . SVG Version: 6.00 Build 0)  -->
<svg version="1.1" id="a" xmlns="http://www.w3.org/2000/svg" xmlns:xlink="http://www.w3.org/1999/xlink" x="0px" y="0px"
	 viewBox="0 0 456 36.5" style="enable-background:new 0 0 456 36.5;" xml:space="preserve">
<style type="text/css">
	.st0{fill:none;}
	.st1{fill:url(#SVGID_1_);}
	.st2{fill:url(#SVGID_00000049217925487990589710000008352426791793432242_);}
	.st3{fill:url(#SVGID_00000152984748566222019920000013567141414717319358_);}
</style>
<path d="M3.1,33.4H0v-20h12.5v2.9H3.1v5.8h8.8v2.9H3.1V33.4L3.1,33.4z"/>
<path d="M20.9,33.8c-1.4,0-2.6-0.3-3.6-1s-1.8-1.5-2.4-2.7s-0.8-2.5-0.8-4.1s0.3-2.9,0.8-4.1c0.6-1.2,1.3-2,2.4-2.7s2.2-0.9,3.6-0.9
	s2.6,0.3,3.6,0.9s1.8,1.5,2.4,2.7c0.6,1.2,0.8,2.5,0.8,4.1s-0.3,2.9-0.8,4.1s-1.4,2-2.4,2.7S22.3,33.8,20.9,33.8L20.9,33.8z
	 M20.9,31c0.8,0,1.4-0.2,2-0.6s1-1,1.3-1.7s0.5-1.6,0.5-2.6s-0.1-1.9-0.5-2.6s-0.7-1.3-1.3-1.7c-0.6-0.4-1.2-0.6-2-0.6
	s-1.4,0.2-2,0.6c-0.6,0.4-1,1-1.3,1.7c-0.3,0.7-0.5,1.6-0.5,2.6s0.1,1.9,0.5,2.6s0.7,1.3,1.3,1.7C19.4,30.8,20.1,31,20.9,31z"/>
<path d="M29.3,21.6v-2.8h9.3v2.8C38.6,21.6,29.3,21.6,29.3,21.6z M36,33.9c-1.4,0-2.5-0.4-3.3-1.2s-1.1-2-1.1-3.5V14.4h3v14.5
	c0,0.7,0.2,1.2,0.5,1.6c0.4,0.4,0.9,0.6,1.6,0.6c0.5,0,1-0.1,1.6-0.3v2.8C37.6,33.8,36.9,33.9,36,33.9L36,33.9z"/>
<path d="M46.8,33.8c-1.4,0-2.6-0.3-3.6-1s-1.8-1.5-2.4-2.7S40,27.7,40,26.1s0.3-2.9,0.8-4.1c0.5-1.2,1.3-2,2.4-2.7s2.2-0.9,3.6-0.9
	s2.6,0.3,3.6,0.9s1.8,1.5,2.4,2.7s0.8,2.5,0.8,4.1s-0.3,2.9-0.8,4.1s-1.3,2-2.4,2.7S48.2,33.8,46.8,33.8L46.8,33.8z M46.8,31
	c0.8,0,1.4-0.2,2-0.6c0.6-0.4,1-1,1.3-1.7s0.5-1.6,0.5-2.6s-0.2-1.9-0.5-2.6c-0.3-0.7-0.7-1.3-1.3-1.7c-0.6-0.4-1.2-0.6-2-0.6
	s-1.4,0.2-2,0.6c-0.6,0.4-1,1-1.3,1.7c-0.3,0.7-0.5,1.6-0.5,2.6s0.2,1.9,0.5,2.6c0.3,0.7,0.7,1.3,1.3,1.7C45.4,30.8,46.1,31,46.8,31
	z"/>
<path d="M61.5,33.8c-1.4,0-2.7-0.3-3.7-0.9c-1-0.6-1.8-1.4-2.3-2.4l2.3-1.6c0.4,0.7,1,1.3,1.6,1.7c0.7,0.4,1.4,0.6,2.2,0.6
	s1.4-0.1,1.9-0.5s0.7-0.7,0.7-1.2c0-0.5-0.2-1-0.7-1.3s-1.2-0.6-2.3-0.8c-1.7-0.4-3-1-3.9-1.7c-0.9-0.8-1.3-1.7-1.3-2.9
	c0-1.3,0.5-2.4,1.5-3.2s2.3-1.2,4-1.2c1.3,0,2.4,0.3,3.4,0.8c0.9,0.5,1.7,1.3,2.3,2.2l-2.3,1.6c-0.4-0.7-0.9-1.2-1.5-1.5
	S62.1,21,61.4,21c-0.8,0-1.4,0.1-1.8,0.5S59,22.1,59,22.6c0,0.5,0.3,0.9,0.8,1.2s1.3,0.7,2.4,0.9c1.6,0.4,2.9,0.9,3.7,1.6
	s1.3,1.7,1.3,2.8c0,0.9-0.2,1.7-0.7,2.4c-0.5,0.7-1.1,1.2-2,1.6C63.6,33.6,62.7,33.8,61.5,33.8L61.5,33.8z"/>
<path d="M81.2,14.4c0,0.6-0.2,1-0.5,1.4c-0.3,0.3-0.8,0.5-1.4,0.5s-1-0.2-1.3-0.5s-0.5-0.8-0.5-1.4s0.2-1,0.5-1.4s0.8-0.5,1.3-0.5
	c0.6,0,1.1,0.2,1.4,0.5S81.2,13.8,81.2,14.4z M80.8,33.4h-3V18.8h3V33.4z"/>
<path d="M91,33.8c-1.4,0-2.6-0.3-3.7-1s-1.9-1.5-2.4-2.7C84.3,29,84,27.6,84,26.1s0.3-2.9,0.8-4s1.4-2.1,2.4-2.7
	c1.1-0.6,2.3-1,3.7-1c1.2,0,2.2,0.3,3.2,0.9c1,0.6,1.8,1.4,2.3,2.4l-2.3,1.6c-0.4-0.6-0.9-1.1-1.5-1.5s-1.2-0.5-1.9-0.5
	c-0.8,0-1.4,0.2-2,0.6c-0.6,0.4-1,1-1.3,1.7S87,25.1,87,26.1s0.2,1.8,0.5,2.6s0.8,1.3,1.3,1.7c0.6,0.4,1.2,0.6,2,0.6
	c0.7,0,1.3-0.2,1.9-0.5s1.1-0.9,1.5-1.5l2.3,1.6c-0.5,1-1.3,1.8-2.3,2.4S92.1,33.8,91,33.8L91,33.8z"/>
<path d="M105.1,33.8c-1.4,0-2.6-0.3-3.6-1s-1.8-1.5-2.4-2.7c-0.6-1.1-0.8-2.5-0.8-4.1s0.3-2.9,0.8-4.1c0.6-1.2,1.3-2,2.4-2.7
	s2.2-0.9,3.6-0.9s2.6,0.3,3.6,0.9s1.8,1.5,2.4,2.7s0.8,2.5,0.8,4.1s-0.3,2.9-0.8,4.1s-1.3,2-2.4,2.7S106.5,33.8,105.1,33.8
	L105.1,33.8z M101,16.7l2.8-3.8h2.7l2.8,3.8l-1.4,1l-2.7-2.5l-2.7,2.5L101,16.7L101,16.7z M105.1,31c0.8,0,1.4-0.2,2-0.6
	s1-1,1.3-1.7s0.5-1.6,0.5-2.6s-0.2-1.9-0.5-2.6s-0.7-1.3-1.3-1.7c-0.6-0.4-1.2-0.6-2-0.6s-1.4,0.2-2,0.6c-0.6,0.4-1,1-1.3,1.7
	c-0.3,0.7-0.5,1.6-0.5,2.6s0.2,1.9,0.5,2.6s0.7,1.3,1.3,1.7C103.7,30.8,104.3,31,105.1,31z"/>
<path d="M114.8,33.4V18.8h3v2h0.1c0.4-0.7,1.1-1.3,1.8-1.7c0.8-0.4,1.6-0.6,2.5-0.6c1.6,0,2.8,0.5,3.7,1.5s1.3,2.4,1.3,4.1v9.4h-3
	v-8.8c0-1-0.3-1.9-0.8-2.5c-0.6-0.6-1.3-0.9-2.1-0.9c-0.7,0-1.3,0.1-1.8,0.5c-0.5,0.3-0.9,0.7-1.2,1.3s-0.4,1.2-0.4,1.9v8.5
	L114.8,33.4L114.8,33.4z"/>
<path d="M134.3,14.4c0,0.6-0.2,1-0.5,1.4c-0.4,0.3-0.8,0.5-1.4,0.5s-1-0.2-1.4-0.5s-0.5-0.8-0.5-1.4s0.2-1,0.5-1.4s0.8-0.5,1.3-0.5
	c0.6,0,1.1,0.2,1.4,0.5S134.3,13.8,134.3,14.4L134.3,14.4z M133.9,33.4h-3V18.8h3V33.4z"/>
<path d="M144.1,33.8c-1.4,0-2.6-0.3-3.7-1s-1.9-1.5-2.4-2.7c-0.6-1.2-0.9-2.5-0.9-4.1s0.3-2.9,0.9-4s1.4-2.1,2.4-2.7
	c1.1-0.6,2.3-1,3.7-1c1.1,0,2.2,0.3,3.2,0.9c1,0.6,1.8,1.4,2.3,2.4l-2.4,1.6c-0.4-0.6-0.9-1.1-1.5-1.5s-1.2-0.5-1.9-0.5
	c-0.8,0-1.4,0.2-2,0.6c-0.6,0.4-1,1-1.3,1.7s-0.5,1.6-0.5,2.5s0.1,1.8,0.5,2.6c0.3,0.7,0.8,1.3,1.3,1.7c0.6,0.4,1.2,0.6,2,0.6
	c0.7,0,1.3-0.2,1.9-0.5s1.1-0.9,1.5-1.5l2.4,1.6c-0.5,1-1.3,1.8-2.3,2.4C146.4,33.5,145.3,33.8,144.1,33.8L144.1,33.8z"/>
<path d="M156.2,33.8c-0.9,0-1.7-0.2-2.4-0.5s-1.3-0.8-1.7-1.5s-0.6-1.4-0.6-2.2c0-1,0.3-2,0.8-2.7s1.4-1.4,2.4-1.8s2.3-0.6,3.7-0.6
	h2.2v-0.7c0-0.9-0.3-1.5-0.8-2s-1.3-0.8-2.2-0.8c-0.6,0-1.2,0.1-1.7,0.4c-0.5,0.3-1,0.7-1.3,1.2l-2.2-1.5c0.6-0.9,1.4-1.6,2.3-2
	s1.9-0.7,3.1-0.7s2.2,0.2,3.1,0.6c0.9,0.4,1.6,1.1,2.1,1.9s0.7,1.8,0.7,2.9v9.6h-3v-1.9h-0.2c-0.4,0.7-0.9,1.3-1.7,1.7
	S157.1,33.8,156.2,33.8L156.2,33.8z M157,31.2c0.6,0,1.1-0.1,1.7-0.3c0.6-0.2,1-0.6,1.4-1c0.4-0.5,0.6-1.1,0.6-1.7v-1H159
	c-1.5,0-2.6,0.2-3.4,0.6c-0.8,0.4-1.1,1-1.1,1.8c0,0.5,0.2,0.9,0.7,1.3S156.3,31.2,157,31.2L157,31.2z"/>
<path d="M172.1,33.8c-1.4,0-2.7-0.3-3.7-0.9c-1-0.6-1.8-1.4-2.4-2.4l2.3-1.6c0.4,0.7,1,1.3,1.6,1.7c0.6,0.4,1.4,0.6,2.2,0.6
	s1.4-0.1,1.9-0.5s0.7-0.7,0.7-1.2c0-0.5-0.2-1-0.7-1.3s-1.2-0.6-2.3-0.8c-1.7-0.4-3-1-3.9-1.7s-1.3-1.7-1.3-2.9
	c0-1.3,0.5-2.4,1.5-3.2s2.4-1.2,4-1.2c1.3,0,2.4,0.3,3.4,0.8c0.9,0.5,1.7,1.3,2.3,2.2l-2.3,1.6c-0.4-0.7-0.9-1.2-1.5-1.5
	s-1.2-0.5-1.9-0.5c-0.8,0-1.4,0.1-1.8,0.5s-0.7,0.7-0.7,1.2c0,0.5,0.3,0.9,0.8,1.2s1.3,0.7,2.4,0.9c1.6,0.4,2.9,0.9,3.7,1.6
	s1.3,1.7,1.3,2.8c0,0.9-0.2,1.7-0.7,2.4c-0.5,0.7-1.1,1.2-2,1.6C174.1,33.6,173.2,33.8,172.1,33.8L172.1,33.8z"/>
<path d="M179.9,36.5l1-6.7h3.5l-2.2,6.7H179.9L179.9,36.5z"/>
<path d="M202,33.8c-1.4,0-2.6-0.3-3.7-1s-1.9-1.5-2.4-2.7c-0.6-1.2-0.9-2.5-0.9-4.1s0.3-2.9,0.9-4s1.4-2.1,2.4-2.7
	c1.1-0.6,2.3-1,3.7-1c1.1,0,2.2,0.3,3.2,0.9c1,0.6,1.8,1.4,2.3,2.4l-2.4,1.6c-0.4-0.6-0.9-1.1-1.5-1.5s-1.2-0.5-1.9-0.5
	c-0.8,0-1.4,0.2-2,0.6c-0.6,0.4-1,1-1.3,1.7s-0.5,1.6-0.5,2.5s0.1,1.8,0.5,2.6c0.3,0.7,0.8,1.3,1.3,1.7c0.6,0.4,1.2,0.6,2,0.6
	c0.7,0,1.3-0.2,1.9-0.5s1.1-0.9,1.5-1.5l2.4,1.6c-0.5,1-1.3,1.8-2.3,2.4C204.3,33.5,203.2,33.8,202,33.8L202,33.8z"/>
<path d="M210.3,33.4V18.8h3v2.8h0.2c0.6-1,1.3-1.8,2.2-2.3c0.9-0.5,2-0.8,3.2-0.8h0.2v3h-0.2c-1.2,0-2.2,0.2-3,0.5s-1.4,0.8-1.9,1.4
	c-0.4,0.6-0.6,1.3-0.6,2.1v7.9L210.3,33.4L210.3,33.4z"/>
<path d="M224.9,14.4c0,0.6-0.2,1-0.5,1.4c-0.4,0.3-0.8,0.5-1.4,0.5s-1-0.2-1.4-0.5s-0.5-0.8-0.5-1.4s0.2-1,0.5-1.4s0.8-0.5,1.3-0.5
	c0.6,0,1.1,0.2,1.4,0.5S224.9,13.8,224.9,14.4L224.9,14.4z M224.5,33.4h-3V18.8h3V33.4z"/>
<path d="M234.7,33.8c-1.4,0-2.7-0.3-3.7-0.9c-1.1-0.6-1.9-1.5-2.4-2.6s-0.9-2.5-0.9-4s0.3-3,0.8-4.1s1.3-2.1,2.4-2.7
	c1-0.6,2.2-1,3.6-1c1.3,0,2.4,0.3,3.4,0.8c0.9,0.5,1.7,1.3,2.2,2.3s0.8,2.1,0.8,3.4c0,0.7-0.1,1.4-0.2,2.1h-10.9l0.1-2.5h8
	c0-0.7-0.1-1.3-0.4-1.9s-0.6-0.9-1.1-1.2s-1.1-0.5-1.9-0.5c-0.8,0-1.5,0.2-2,0.6c-0.6,0.4-1,1-1.2,1.8c-0.3,0.8-0.4,1.8-0.4,2.9
	c0,1,0.1,1.9,0.5,2.6c0.3,0.7,0.8,1.3,1.4,1.7c0.6,0.4,1.3,0.6,2.2,0.6c0.7,0,1.3-0.2,1.9-0.5s1.1-0.9,1.5-1.5l2.3,1.6
	c-0.6,1-1.3,1.7-2.3,2.3C237.2,33.5,236.1,33.8,234.7,33.8L234.7,33.8z"/>
<path d="M257.8,33.8c-1.4,0-2.6-0.3-3.7-1s-1.9-1.5-2.4-2.7c-0.6-1.2-0.9-2.5-0.9-4.1s0.3-2.9,0.9-4s1.4-2.1,2.4-2.7
	c1.1-0.6,2.3-1,3.7-1c1.1,0,2.2,0.3,3.2,0.9c1,0.6,1.8,1.4,2.3,2.4l-2.4,1.6c-0.4-0.6-0.9-1.1-1.5-1.5s-1.2-0.5-1.9-0.5
	c-0.8,0-1.5,0.2-2,0.6c-0.6,0.4-1,1-1.3,1.7s-0.5,1.6-0.5,2.5s0.1,1.8,0.5,2.6c0.3,0.7,0.8,1.3,1.3,1.7c0.6,0.4,1.2,0.6,2,0.6
	c0.7,0,1.3-0.2,1.9-0.5s1.1-0.9,1.5-1.5l2.4,1.6c-0.5,1-1.3,1.8-2.3,2.4S258.9,33.8,257.8,33.8L257.8,33.8z"/>
<path d="M271.9,33.8c-1.4,0-2.6-0.3-3.6-1s-1.8-1.5-2.4-2.7c-0.5-1.1-0.8-2.5-0.8-4.1s0.3-2.9,0.8-4.1c0.5-1.2,1.3-2,2.4-2.7
	s2.2-0.9,3.6-0.9s2.6,0.3,3.6,0.9s1.8,1.5,2.4,2.7s0.8,2.5,0.8,4.1s-0.3,2.9-0.8,4.1s-1.4,2-2.4,2.7S273.3,33.8,271.9,33.8
	L271.9,33.8z M271.9,31c0.8,0,1.4-0.2,2-0.6c0.6-0.4,1-1,1.3-1.7s0.5-1.6,0.5-2.6s-0.1-1.9-0.5-2.6s-0.7-1.3-1.3-1.7
	c-0.6-0.4-1.2-0.6-2-0.6s-1.4,0.2-2,0.6c-0.6,0.4-1,1-1.3,1.7c-0.3,0.7-0.5,1.6-0.5,2.6s0.1,1.9,0.5,2.6s0.7,1.3,1.3,1.7
	C270.5,30.8,271.1,31,271.9,31z"/>
<path d="M281.6,33.4V18.8h3v2h0.2c0.4-0.7,1-1.3,1.7-1.7c0.7-0.4,1.5-0.6,2.3-0.6c0.9,0,1.7,0.2,2.3,0.7c0.7,0.5,1.2,1.1,1.5,2h0.1
	c0.5-0.9,1.2-1.6,2-2c0.8-0.5,1.7-0.7,2.7-0.7c1.5,0,2.7,0.5,3.5,1.5c0.8,1,1.2,2.4,1.2,4.1v9.4h-3v-8.9c0-1-0.2-1.8-0.7-2.5
	c-0.5-0.6-1.1-0.9-1.9-0.9c-0.6,0-1.2,0.1-1.7,0.5c-0.5,0.3-0.8,0.7-1.1,1.3c-0.2,0.5-0.4,1.2-0.4,1.9v8.6h-3v-8.9
	c0-0.7-0.1-1.3-0.3-1.8s-0.5-0.9-0.9-1.2s-0.9-0.4-1.4-0.4c-0.6,0-1.2,0.1-1.6,0.5c-0.5,0.3-0.8,0.7-1.1,1.3
	c-0.3,0.5-0.4,1.2-0.4,1.9v8.6L281.6,33.4L281.6,33.4z"/>
<polygon class="st0" points="321.6,19 319.3,26.1 323.8,26.1 "/>
<linearGradient id="SVGID_1_" gradientUnits="userSpaceOnUse" x1="307.1906" y1="8.559" x2="354.3105" y2="35.769" gradientTransform="matrix(1 0 0 -1 0 38)">
	<stop  offset="0" style="stop-color:#FC3958"/>
	<stop  offset="1" style="stop-color:#FCB303"/>
</linearGradient>
<path class="st1" d="M344.6,0c0,4.3-3.5,7.8-7.9,7.8c4.3,0,7.9,3.5,7.9,7.8c0-4.3,3.5-7.8,7.9-7.8C348.1,7.8,344.6,4.3,344.6,0z"/>
<linearGradient id="SVGID_00000170260318940742508410000013404823320553687429_" gradientUnits="userSpaceOnUse" x1="312.101" y1="5.819666e-02" x2="359.211" y2="27.2682" gradientTransform="matrix(1 0 0 -1 0 38)">
	<stop  offset="0" style="stop-color:#FC3958"/>
	<stop  offset="1" style="stop-color:#FCB303"/>
</linearGradient>
<rect x="334.3" y="12.4" style="fill:url(#SVGID_00000170260318940742508410000013404823320553687429_);" width="5.3" height="22.3"/>
<linearGradient id="SVGID_00000173856166568979931840000013584801144994329788_" gradientUnits="userSpaceOnUse" x1="309.2116" y1="5.0673" x2="356.3216" y2="32.2673" gradientTransform="matrix(1 0 0 -1 0 38)">
	<stop  offset="0" style="stop-color:#FC3958"/>
	<stop  offset="1" style="stop-color:#FCB303"/>
</linearGradient>
<path style="fill:url(#SVGID_00000173856166568979931840000013584801144994329788_);" d="M317.8,30.7l6.1-4.1l1.4,4.3l1.2,3.9h5.6
	l-7.8-22.3h-5.8l-4.8,13.7h-1.6v4.6l-1.4,4h5.6l1.2-3.9L317.8,30.7L317.8,30.7z M321.6,19l2.3,7.1h-4.5L321.6,19L321.6,19z"/>
</svg>
