<?xml version="1.0" encoding="UTF-8"?><svg id="a" xmlns="http://www.w3.org/2000/svg" width="540" height="123.33" viewBox="0 0 540 123.33"><rect x="306.67" y="103.67" width="4.03" height="1.11"/><path d="M291.87,101.01c-.08-.44-.2-.7-.3-.87-.21-.4-.69-1-1.78-1-.36,0-1.04.04-1.67.71-.51.56-.98,1.49-.98,3.17,0,1.13.23,2.44,1.11,3.25.61.56,1.28.59,1.58.59.21,0,.75-.02,1.25-.4.8-.62.87-1.8.9-2.02l1.41.02c-.02.33-.06,1.47-.71,2.4-.37.54-1.18,1.36-2.79,1.36-.33,0-1.13-.03-1.94-.43-1.11-.56-2.45-1.9-2.45-4.74,0-2.48.95-3.79,1.81-4.44,1-.75,2.05-.81,2.5-.81,1.31,0,2.52.57,3.09,1.81.21.46.28.91.34,1.41h-1.38.01Z"/><path d="M297.96,98.49c.97-.65,1.92-.7,2.34-.7,1.51,0,2.44.71,2.85,1.13.69.65,1.48,1.89,1.48,4.08,0,.6-.03,3.22-2.08,4.56-.69.44-1.42.65-2.25.65-.36,0-1.21-.04-2.06-.54-2.24-1.28-2.28-4.07-2.28-4.67.02-1.7.52-3.5,2.01-4.51M298.09,105.43c.21.41.43.64.57.78.62.61,1.31.65,1.63.65.93,0,1.65-.47,2.11-1.27.27-.46.59-1.32.59-2.6,0-.28.03-2.21-1.07-3.25-.26-.24-.75-.62-1.62-.62-.21,0-.71.02-1.19.31-1.55.91-1.49,3.32-1.49,3.56,0,.28,0,1.47.49,2.44"/><polygon points="318.96 102.14 318.96 103.48 314.91 103.48 314.91 106.69 319.44 106.69 319.44 108.03 313.36 108.03 313.36 97.98 319.31 97.98 319.31 99.3 314.91 99.3 314.91 102.14 318.96 102.14"/><polygon points="324.31 97.98 328.75 105.65 328.75 97.98 330.21 97.98 330.21 108.03 328.61 108.03 324.13 100.35 324.13 108.03 322.64 108.03 322.64 97.98 324.31 97.98"/><path d="M341.57,102.93v4.15c-.11.08-.43.3-.78.49-.41.2-1.44.64-2.75.64-1.8,0-2.79-.81-3.27-1.37-.54-.62-1.21-1.85-1.21-3.86,0-.57.02-3.27,2.08-4.57.37-.23,1.15-.62,2.26-.62,1.27,0,2.52.51,3.13,1.7.18.34.33.72.4,1.51h-1.38c-.07-.36-.24-1.39-1.34-1.73-.33-.11-.67-.13-.78-.13-.41,0-1.37.1-2.04,1.05-.54.78-.71,1.92-.71,2.83,0,1.82.66,3.84,2.88,3.84.72,0,1.57-.26,2.19-.65v-2.05h-2.04v-1.23h3.36Z"/><rect x="345.13" y="97.98" width="1.57" height="10.05"/><polygon points="352.29 97.98 356.74 105.65 356.74 97.98 358.2 97.98 358.2 108.03 356.59 108.03 352.11 100.35 352.11 108.03 350.63 108.03 350.63 97.98 352.29 97.98"/><polygon points="367.72 102.14 367.72 103.48 363.68 103.48 363.68 106.69 368.21 106.69 368.21 108.03 362.13 108.03 362.13 97.98 368.08 97.98 368.08 99.3 363.68 99.3 363.68 102.14 367.72 102.14"/><polygon points="377.01 102.14 377.01 103.48 372.96 103.48 372.96 106.69 377.49 106.69 377.49 108.03 371.41 108.03 371.41 97.98 377.36 97.98 377.36 99.3 372.96 99.3 372.96 102.14 377.01 102.14"/><path d="M382.84,97.98c.56,0,1.29,0,1.85.07.41.07,1.61.24,2.26,1.37.16.26.4.78.38,1.54,0,.24-.03.98-.44,1.62-.21.33-.5.6-.81.81-.28.18-.54.27-.65.33l2.48,4.31h-1.83l-2.29-4.06h-1.55v4.06h-1.55v-10.05h2.16-.01ZM383.74,102.63c.41-.03,2.01-.06,1.99-1.71,0-.81-.46-1.19-.72-1.34-.57-.33-1.55-.27-2.15-.28h-.62v3.33h1.51-.01Z"/><polygon points="396.38 102.14 396.38 103.48 392.34 103.48 392.34 106.69 396.86 106.69 396.86 108.03 390.78 108.03 390.78 97.98 396.73 97.98 396.73 99.3 392.34 99.3 392.34 102.14 396.38 102.14"/><path d="M402.93,97.98c1.64.06,2.4.38,3.03.87.72.56,1.83,1.85,1.82,4.15,0,1.41-.46,2.93-1.52,3.91-1.23,1.14-2.82,1.11-4.34,1.11h-1.83v-10.05h2.84,0ZM402.46,106.69c.78,0,1.14-.02,1.51-.11.7-.16,1.68-.62,2.06-2.25.14-.61.14-1.11.14-1.34,0-1.45-.5-3.04-2.05-3.51-.52-.16-1-.17-2.05-.17h-.44v7.39h.83,0Z"/><polygon points="417.12 97.98 419.05 106.16 421.02 97.98 422.35 97.98 424.33 106.16 426.29 97.98 427.72 97.98 425.21 108.05 423.48 108.05 421.67 100.89 419.88 108.05 418.14 108.05 415.65 97.98 417.12 97.98"/><rect x="430.58" y="97.98" width="1.57" height="10.05"/><polygon points="441.91 97.98 441.91 99.3 439.27 99.3 439.27 108.03 437.71 108.03 437.71 99.3 435.08 99.3 435.08 97.98 441.91 97.98"/><polygon points="450.72 102.13 450.72 97.98 452.28 97.98 452.28 108.03 450.72 108.03 450.72 103.43 446.39 103.43 446.39 108.03 444.83 108.03 444.83 97.98 446.39 97.98 446.39 102.13 450.72 102.13"/><path d="M482.42,123.33c11.18,0,20.24-9.06,20.24-20.24s-9.06-20.24-20.24-20.24-20.24,9.06-20.24,20.24,9.06,20.24,20.24,20.24h0Z" style="fill:#e60012;"/><path d="M498.51,104.25s-.53.38-.9.38c-.28,0-.44-.24-.44-.5,0-.59.92-3.47.92-3.47l-2.24.03-.12.39s-.33-.66-1.51-.66c-2.28,0-3.54,1.97-3.59,3.12-.01.25-.02.29-.02.29-.06.06-.86.98-1.85.98-.79,0-.93-.66-.93-1.09,0-.46.38-2.28,1.46-2.28.59,0,.95.51.95.51l.32-1.04s-.5-.39-1.53-.39c-2.21,0-3.71,1.66-3.76,3.15-.01.22-.02.3-.02.31-.07.09-.62.71-1.32.71-.49,0-.49-.38-.49-.55,0-.23.95-3.47.95-3.47l-2.49.04-.89,3.15s-1.37.99-3.28,1.13c-.99.07-1.33-.53-1.33-.88v-.14s.4.03.7.03c.23,0,3.15-.2,3.15-1.99,0-1.02-1.02-1.41-2.31-1.41-2.38,0-4.05,1.48-4.05,3.23,0,1.6,1.37,2.29,3.13,2.29,2,0,3.95-1.22,3.95-1.22,0,0,.11,1.22,1.68,1.22s2.9-1.22,2.9-1.22c0,0,.71,1.18,2.33,1.18s2.92-1.34,2.92-1.34c0,0,.45,1.26,2.08,1.26,1.28,0,1.97-.84,1.97-.84,0,0,.37.84,1.48.84,1.36,0,2.38-.96,2.38-.96l-.24-.78h.04ZM478.08,101.32c.33.02.56.26.55.51-.06,1.58-2.01,1.34-2.01,1.34,0,0,.32-1.91,1.46-1.85h0ZM493.76,104.81c-.61,0-.61-.67-.61-.87,0-.52.41-2.57,1.52-2.57.47,0,.72.4.72.69,0,.06-.28,2.74-1.62,2.74h-.01Z" style="fill:#fff;"/><path d="M498.96,106.38s-5.24,1.82-15.23,1.7c-6.89-.08-12.15-2.12-12.15-2.12,0,0,.17-.33.28-.56.69-1.41,1.51-4.27,1.51-4.27,0,0,4.74-1.32,4.74-5.09,0-1.19-1.11-1.96-2.2-2.01-3.82-.15-4.88,5.29-5.11,6.22-.02.07-.02.08-.02.08-1.18-.16-1.85-.4-1.85-.4l-.27.74c.8.38,1.95.5,1.95.5-.23,1.46-1.36,4.22-1.36,4.22,0,0-1.05-.35-2.34-.35-1.68,0-2.26.8-2.3,1.3-.11,1.3,1.52,1.91,2.67,1.91,2.22,0,3.38-1.2,3.38-1.2,0,0,6.26,2.36,12.79,2.36,8.55,0,15.76-2.28,15.76-2.28l-.24-.78h.01l-.02.03ZM476.08,95.13c.74,0,.98.6.91,1.13-.36,3.15-3.48,3.86-3.48,3.86,0,0,.78-4.99,2.57-4.99h0ZM466.78,107.26c-.63.02-1.04-.4-1.04-.64,0-.52.64-.6,1.04-.57.98.06,1.82.39,1.82.39,0,0-.99.79-1.82.82Z" style="fill:#fff;"/><path d="M483.67,97.72c-.8,0-1.38.32-1.38,1.07s.68.96,1.38.96,1.35-.33,1.35-1.1-.78-.93-1.35-.93Z" style="fill:#fff;"/><path d="M311.78,72.82v-24.3l-6.54,3.37v-5.63l7.57-3.86h4.4v30.42h-5.43Z"/><path d="M328.07,64.31c.71,1.37,1.55,2.4,2.51,3.11.96.7,2.12,1.05,3.5,1.05,1.01,0,1.92-.21,2.72-.62.79-.41,1.41-1.01,1.85-1.79s.66-1.68.66-2.69-.22-1.91-.66-2.67c-.44-.77-1.05-1.36-1.85-1.77s-1.73-.62-2.79-.62-1.95.23-2.79.7c-.85.47-1.55,1.15-2.1,2.06l-4.57-2.1,1.23-16.57h17.35v4.94h-12.3l-.7,8.23-1.11.08c.74-.71,1.65-1.26,2.73-1.65,1.08-.38,2.2-.57,3.35-.57,1.95,0,3.65.41,5.1,1.21,1.45.81,2.57,1.95,3.35,3.44.78,1.48,1.17,3.2,1.17,5.14,0,2.06-.44,3.84-1.32,5.36s-2.12,2.7-3.74,3.54-3.52,1.25-5.72,1.25c-2.44,0-4.54-.55-6.31-1.65s-3.06-2.59-3.89-4.48l4.32-2.92h0Z"/><path d="M356.85,72.82v-25.33h-9.01v-5.06h23.4v5.06h-9.01v25.33h-5.39.01Z"/><path d="M392.07,62.42v-4.97h7.85c1.95,0,3.45-.43,4.5-1.29s1.58-2.1,1.58-3.72-.53-2.87-1.58-3.74-2.55-1.32-4.5-1.32h-5.43v25.45h-5.39v-30.39h11.52c3.42,0,6.11.88,8.04,2.63,1.94,1.76,2.9,4.21,2.9,7.36s-.93,5.6-2.79,7.36c-1.86,1.76-4.46,2.63-7.77,2.63h-8.93Z"/><path d="M415.59,72.82v-22.53h5.22v4.15h.21c.82-1.51,1.94-2.67,3.33-3.5s3.07-1.23,5.02-1.23h.25v5.26h-.37c-1.89,0-3.46.24-4.71.72s-2.18,1.18-2.79,2.1c-.62.92-.93,2-.93,3.23v11.8h-5.23,0Z"/><path d="M441.78,73.4c-2.16,0-4.05-.49-5.65-1.46-1.61-.97-2.84-2.35-3.7-4.13-.86-1.78-1.29-3.86-1.29-6.25s.43-4.51,1.29-6.29,2.1-3.15,3.7-4.11,3.49-1.44,5.65-1.44,4.01.48,5.61,1.44c1.61.96,2.84,2.33,3.72,4.11s1.32,3.88,1.32,6.29-.44,4.48-1.32,6.27c-.88,1.8-2.12,3.17-3.72,4.13-1.61.96-3.47,1.44-5.61,1.44h0ZM441.78,68.46c1.1,0,2.04-.28,2.84-.84s1.41-1.37,1.83-2.4c.42-1.04.64-2.26.64-3.66s-.21-2.63-.64-3.68-1.04-1.86-1.83-2.4c-.8-.55-1.74-.82-2.84-.82s-2.04.27-2.84.82-1.41,1.35-1.85,2.4-.66,2.28-.66,3.68.22,2.62.66,3.66,1.05,1.85,1.85,2.4,1.74.84,2.84.84Z"/><path d="M199.93,41.84c-4.57,0-9.13.58-12.03,3.42-2.89,2.84-4,7.12-4,12.35s.99,9.43,3.89,12.27c2.89,2.83,7.58,3.52,12.14,3.52s9.11-.58,12-3.42,4.03-7.14,4.03-12.37-1.01-9.4-3.9-12.25-7.56-3.52-12.13-3.52h0ZM206.85,65.16c-1.61,1.83-4.52,2.16-6.93,2.16s-5.31-.32-6.92-2.15-1.72-4.37-1.72-7.56.11-5.65,1.71-7.49,4.19-2.16,6.93-2.16,5.32.32,6.93,2.16c1.61,1.83,1.71,4.31,1.71,7.49s-.11,5.71-1.71,7.55h0ZM136.66,42.4h-6.46c-.28,0-.5.22-.5.49v29.48c0,.27.22.49.5.49h6.46c.27,0,.5-.22.5-.49v-29.48c0-.27-.23-.49-.5-.49ZM109.5,57.38l11.48-14.21c.25-.31.03-.77-.37-.77h-8.28c-.2,0-.38.09-.5.25l-7.58,10.05-7.4-10.05c-.12-.16-.31-.26-.51-.26h-8.3c-.4,0-.61.46-.37.77l11.62,14.48-11.63,14.46c-.24.31-.02.76.37.76h8.3c.2,0,.39-.09.51-.26l7.75-10.02,7.34,10.02c.12.16.31.26.51.26h8.2c.4,0,.61-.45.37-.76l-11.5-14.72h0ZM266.88,44.64c-2.63-2.45-6.85-2.74-10.28-2.74-4.42,0-7.23.94-8.94,1.82h-1.18c-1.67-.92-4.61-1.82-9.23-1.82-3.42,0-7.62.25-10.2,2.42-2.14,1.8-2.63,4.19-2.63,9.1v18.95c0,.27.23.49.5.49h6.46c.28,0,.5-.22.5-.49v-15.6c0-2.82-.11-5.75.5-6.84.47-.85,1.22-1.8,4.72-1.8,4.19,0,5.17.3,5.83,2.15.16.43.23,1.07.27,1.82v20.27c0,.27.22.49.5.49h6.46c.27,0,.5-.22.5-.49v-20.27c.03-.76.11-1.38.27-1.82.66-1.85,1.65-2.15,5.83-2.15,3.51,0,4.25.95,4.72,1.8.61,1.09.5,4.03.5,6.84v15.6c0,.27.22.49.5.49h6.46c.27,0,.5-.22.5-.49v-17.79c0-5.09-.17-7.7-2.56-9.93h0ZM174.13,46.45c-2.99-4.12-8.38-5.36-13.99-5.06-5.68.31-9.64,1.51-10.65,1.89-.63.24-.55.78-.56,1.1-.02,1.09-.11,3.9-.1,5.04,0,.5.62.74,1.14.56,2.07-.74,5.89-1.9,8.97-2.15,3.32-.27,7.82,0,9.07,1.88.59.9.62,2.26.69,3.66-2.07-.19-5.14-.45-8.18-.28-2.37.13-6.91.33-9.59,1.75-2.17,1.16-3.45,2.21-4.13,4.17-.55,1.58-.7,3.47-.52,5.02.4,3.52,1.62,5.28,3.27,6.5,2.61,1.93,5.9,2.95,12.71,2.8,9.06-.2,11.45-3.13,12.65-5.21,2.05-3.54,1.69-9.13,1.63-12.56-.03-1.42-.23-6.1-2.42-9.11h0ZM168.22,65.04c-.86,1.8-3.9,2.08-5.71,2.16-3.34.15-5.8.02-7.39-.76-1.05-.52-1.82-1.72-1.9-3.07-.06-1.15-.04-1.75.49-2.43,1.17-1.53,4.24-1.86,7.39-1.98,2.12-.08,5.38.16,7.77.45-.02,2.31-.17,4.63-.65,5.64h0ZM286.66,42.4h-6.46c-.28,0-.5.22-.5.49v29.48c0,.27.22.49.5.49h6.46c.27,0,.5-.22.5-.49v-29.48c0-.27-.23-.49-.5-.49Z"/><path d="M208.59,24.48h-108.73c-3.75,0-7.1-1.68-9.35-4.33-1.81-2.14-2.89-4.89-2.89-7.91h0c0-3.38,1.37-6.44,3.59-8.65,2.21-2.22,5.27-3.59,8.65-3.59h108.73c3.38,0,6.44,1.37,8.65,3.59,2.21,2.22,3.59,5.28,3.59,8.65h0c0,3.09-1.14,5.91-3.03,8.07-2.24,2.56-5.54,4.18-9.21,4.18h0Z"/><path d="M181.93,13.17c.16-1.04.94-1.76,2.09-1.76s1.87.72,1.98,1.76h-4.07,0ZM179.98,13.92c0,2.8,1.92,4.28,4.04,4.28,1.55,0,2.89-.64,3.64-1.95l-1.49-1.01c-.43.91-1.15,1.28-2.03,1.28-1.12,0-2.14-.75-2.19-1.9h5.8s.11-.35.11-.91c0-2.19-1.39-4.04-3.82-4.04-2.75,0-4.04,2.3-4.04,4.25M172.84,14c0-1.55.83-2.57,2.22-2.57,1.31,0,2.16,1.01,2.16,2.59,0,1.44-.88,2.43-2.22,2.43s-2.16-.99-2.16-2.46M170.92,21.88h1.95v-4.52h.06c.78.56,1.61.83,2.43.83,2.03,0,3.9-1.58,3.9-4.28s-1.52-4.25-3.82-4.25c-1.01,0-1.9.4-2.51,1.01h-.06v-.78h-1.95v11.97h0v.02ZM160.55,9.91l4.04,7.78-1.92,4.19h2.09l5.53-11.97h-2.11l-2.57,5.61-2.89-5.61h-2.17ZM150.72,17.98h1.95v-4.86h5.45v4.86h1.95V6.6h-1.95v4.68h-5.45v-4.68h-1.95v11.38h0ZM143.72,17.98h1.85v-8.07h-1.85v8.07ZM143.48,7.61c0-.64.56-1.18,1.15-1.18.7,0,1.18.54,1.18,1.18s-.48,1.15-1.18,1.15c-.59,0-1.15-.54-1.15-1.15M130.81,17.98v-8.07h1.85v.99h.08c.45-.75,1.36-1.23,2.3-1.23,1.31,0,1.95.8,2.19,1.39h.08c.35-.59,1.2-1.39,2.7-1.39,1.82,0,2.67,1.42,2.67,3.23v5.08h-1.85v-4.73c0-.96-.51-1.85-1.44-1.85-1.18,0-1.76.91-1.76,1.98v4.59h-1.82v-4.73c0-.91-.43-1.85-1.42-1.85-1.09,0-1.74.88-1.74,1.98v4.59h-1.85,0v.02ZM124.13,14.02c0,1.31.48,2.62,1.95,2.62,1.39,0,2-1.25,2-2.62,0-1.66-.61-2.8-2-2.8-1.28,0-1.95.99-1.95,2.8M122.26,14.02c0-3.02,1.9-4.36,3.82-4.36,2.22,0,3.82,1.55,3.82,4.36,0,2.38-1.42,4.17-3.82,4.17-2.19,0-3.82-1.66-3.82-4.17M116.32,15.74c0,.67.64.91,1.28.91,1.09,0,1.95-.59,1.95-1.87v-.3h-.83c-1.04,0-2.4.21-2.4,1.25M114.48,15.87c0-1.95,1.68-2.89,3.88-2.89h1.2v-.24c0-1.09-.83-1.52-1.66-1.52-.78,0-1.31.37-1.71.94l-1.28-.94c.85-1.12,1.73-1.55,3.13-1.55,1.87,0,3.31,1.12,3.31,3.07v5.24h-1.79v-.7h-.06c-.4.56-1.36.91-2.33.91-1.52,0-2.7-.85-2.7-2.33M111.43,17.98h1.85v-8.07h-1.85v8.07ZM111.19,7.61c0-.64.56-1.18,1.18-1.18.67,0,1.15.54,1.15,1.18s-.48,1.15-1.15,1.15c-.61,0-1.18-.54-1.18-1.15M100.2,17.98h2.01l2.91-4.17,2.89,4.17h2.16l-3.98-5.72,3.95-5.67h-2.19l-2.83,4.09-2.86-4.09h-2.04l3.81,5.67-3.83,5.72ZM190.67,13.95v4.04h-1.92v-8.07h1.92v1.25h.06c.7-1.18,1.71-1.49,3.13-1.49h.32v1.9h-.32c-2.25,0-3.18.8-3.18,2.38" style="fill:#fff;"/><rect x="206.3" y="6.44" width="1.95" height="11.54" style="fill:#fff;"/><path d="M198.81,6.44l-4.3,11.54h2.12l.86-2.45h4.6l.86,2.45h2.14l-4.32-11.54h-1.97.01ZM198.14,13.7l1.66-4.72,1.66,4.72s-3.32,0-3.32,0Z" style="fill:#fff;"/></svg>