<?xml version="1.0" encoding="UTF-8"?><svg id="a" xmlns="http://www.w3.org/2000/svg" width="456" height="27.58" viewBox="0 0 456 27.58"><polygon points="115.82 18.98 115.62 18.98 103.86 1.8 100.38 1.8 100.38 25.65 103.99 25.65 103.99 8.47 104.18 8.47 116.04 25.65 119.43 25.65 119.43 1.8 115.82 1.8 115.82 18.98"/><path d="m135.54,8.88c-1.22-.74-2.65-1.11-4.29-1.11s-3.1.37-4.33,1.11c-1.24.74-2.18,1.81-2.84,3.19-.66,1.39-.98,3-.98,4.85s.33,3.49.98,4.87c.66,1.38,1.6,2.44,2.84,3.19,1.24.75,2.68,1.13,4.33,1.13s3.06-.37,4.29-1.11c1.22-.74,2.17-1.8,2.84-3.19s1-3.01,1-4.88-.33-3.46-1-4.85-1.61-2.45-2.84-3.19h0Zm-.35,11.14c-.37.88-.89,1.55-1.56,2.01-.68.46-1.47.69-2.37.69s-1.72-.23-2.4-.69c-.68-.46-1.2-1.13-1.56-2.01-.37-.88-.55-1.91-.55-3.09s.18-2.21.55-3.08c.37-.87.89-1.54,1.56-2.01.68-.47,1.48-.71,2.4-.71s1.69.24,2.37.71,1.2,1.14,1.56,2.01c.37.87.55,1.9.55,3.08s-.18,2.21-.55,3.09Z"/><path d="m147.6,2.9h-3.58v5.29h-2.74v3.38h2.74v9.06c0,1.83.46,3.22,1.37,4.19.91.97,2.23,1.45,3.95,1.45,1.03,0,1.93-.14,2.71-.42v-3.32c-.69.21-1.32.32-1.9.32-.82,0-1.45-.23-1.89-.68s-.66-1.1-.66-1.93v-8.67h4.83v-3.38h-4.83V2.9Z"/><path d="m166.16,8.72c-1.14-.63-2.48-.95-4.03-.95-1.63,0-3.06.38-4.29,1.13-1.22.75-2.16,1.82-2.8,3.21s-.97,3.02-.97,4.92.34,3.45,1.03,4.82c.69,1.36,1.66,2.41,2.92,3.14s2.74,1.1,4.46,1.1c1.59,0,2.95-.34,4.09-1.02s2.04-1.58,2.71-2.72l-2.74-1.87c-.49.82-1.09,1.43-1.77,1.84-.69.41-1.45.61-2.29.61-1.01,0-1.87-.24-2.58-.71s-1.25-1.14-1.61-2.01c-.26-.63-.43-1.34-.5-2.14h11.69c.19-.82.29-1.65.29-2.51,0-1.57-.32-2.94-.95-4.11s-1.52-2.07-2.66-2.71v-.02h0Zm-8.26,6.33c.08-.52.2-1,.35-1.43.33-.94.83-1.63,1.48-2.09s1.46-.69,2.4-.69c.88,0,1.62.18,2.21.53.59.35,1.03.84,1.32,1.47.29.62.43,1.36.43,2.22h-8.2,0Z"/><polygon points="181.82 4.77 181.82 8.64 186.82 6.03 186.82 25.65 190.53 25.65 190.53 1.8 187.59 1.8 181.82 4.77"/><path d="m209.74,1.8h-5.25l-9.38,16.34v2.58h10.89v4.93h3.74v-4.93h3v-3.42h-3V1.8Zm-10.28,15.5l6.54-11.52v11.52h-6.54Z"/><path d="m235.63,1.8h-8.54v23.85h3.16v-8.93h5.64c2.54,0,4.5-.65,5.9-1.95s2.09-3.13,2.09-5.5-.73-4.2-2.18-5.51c-1.45-1.31-3.48-1.97-6.08-1.97h0Zm3.61,10.81c-.92.78-2.23,1.18-3.93,1.18h-5.06V4.77h5.06c1.7,0,3.01.39,3.93,1.18.92.78,1.39,1.9,1.39,3.34s-.46,2.55-1.39,3.34c0,0,0-.02,0-.02Z"/><path d="m253.1,8.94c-1.1.66-1.99,1.56-2.68,2.72h-.16v-3.26h-3.06v17.24h3.06v-9.67c0-.9.26-1.72.77-2.45.52-.73,1.26-1.31,2.22-1.72.97-.42,2.13-.63,3.48-.63h.29v-3.22h-.23c-1.37,0-2.61.33-3.71.98h.02Z"/><path d="m273.36,12.23c-.66-1.36-1.58-2.42-2.77-3.16s-2.59-1.11-4.21-1.11-2.99.37-4.19,1.11-2.13,1.79-2.77,3.16c-.64,1.36-.97,2.97-.97,4.82s.32,3.42.97,4.79c.64,1.36,1.57,2.42,2.77,3.16,1.2.74,2.6,1.11,4.19,1.11s3.01-.37,4.21-1.11c1.19-.74,2.12-1.79,2.77-3.16.66-1.36.98-2.96.98-4.79s-.33-3.45-.98-4.82Zm-2.72,8.09c-.39.93-.95,1.65-1.68,2.16-.73.5-1.59.76-2.58.76s-1.84-.25-2.56-.76c-.72-.5-1.27-1.22-1.66-2.16s-.58-2.02-.58-3.27.19-2.37.58-3.3.94-1.65,1.66-2.16c.72-.5,1.57-.76,2.56-.76s1.85.25,2.58.76c.73.51,1.29,1.22,1.68,2.16s.58,2.04.58,3.3-.19,2.34-.58,3.27Z"/><path d="m84.04,1.72c-1.32,0-2.31,1.02-2.31,2.28s.99,2.28,2.31,2.28,2.31-.99,2.31-2.28-1.02-2.28-2.31-2.28Z"/><rect x="82.51" y="9.06" width="3.49" height="16.6"/><path d="m73.05,8.07c-2.04,0-4.02.69-5.76,1.91-1.25-1.28-3.16-1.91-5.47-1.91-2.47,0-5.11.66-6.75,1.98v15.61h3.49v-13.8c.72-.56,1.68-.86,2.9-.86,2.21,0,3.89,1.09,3.89,3.82v10.84h3.49v-13.24c.99-.86,2.17-1.42,3.46-1.42,2.04,0,3.29,1.09,3.29,3.82v10.84h3.49v-11.5c0-4.08-2.21-6.09-6.03-6.09h0Z"/><path d="m47.99,8.63c-1.28-.36-2.5-.56-3.62-.56-4.88,0-8.1,3.33-8.1,9.16s3.79,9.16,9.03,9.16c1.91,0,4.02-.43,6.19-1.25V1.39l-3.49.92v6.32h-.01Zm.03,14.33c-.96.26-1.84.4-2.64.4-3.36,0-5.37-2.31-5.37-6.13,0-4.15,1.78-6.19,4.88-6.19.92,0,1.98.2,3.13.56v11.36h0Z"/><path d="m26.14,8.07c-4.81,0-8.27,3.06-8.27,9.03,0,6.39,3.52,9.29,8.86,9.29,2.17,0,4.41-.59,6.19-1.48v-2.87c-2.4.96-3.89,1.32-6.16,1.32-2.87,0-5.11-1.61-5.11-4.78h12.02c.16-6.88-2.31-10.51-7.54-10.51h.01Zm-4.48,7.77c0-3,1.84-4.88,4.48-4.88,2.9,0,4.28,2.08,4.28,4.88h-8.76Z"/><path d="m15.74,8.4c0-3.85-2.87-6.59-7.31-6.59H0v23.85h3.49v-10.18h4.12l4.71,10.18h4.12l-5.24-10.71c2.8-1.19,4.55-3.56,4.55-6.56h-.01Zm-8.37,4.18h-3.89v-7.87h3.89c2.96,0,4.68,1.45,4.68,3.92s-1.71,3.95-4.68,3.95Z"/><path d="m336.76,4.06c-.8-1.77-2.15-3.01-3.89-3.57C331.48.04,329.49,0,327.21,0h-28.23c-2.27,0-4.27.04-5.65.49-1.74.57-3.08,1.8-3.89,3.57-.68,1.51-.74,3.47-.74,5.89v7.69c0,2.41.05,4.37.74,5.88.8,1.77,2.15,3.01,3.89,3.57,1.39.45,3.38.49,5.65.49h28.23c2.27,0,4.26-.04,5.66-.49,1.74-.57,3.08-1.8,3.89-3.57.68-1.51.73-3.47.73-5.88v-7.69c0-2.41-.05-4.38-.73-5.89h0Zm-1.13,5.53v8.41c0,2.09-.08,3.68-.49,4.59-.59,1.34-1.6,2.3-2.85,2.7-1.11.36-2.28.42-5.05.42h-28.28c-2.76,0-3.94-.06-5.05-.42-1.24-.4-2.25-1.36-2.85-2.7-.41-.92-.49-2.5-.49-4.59v-8.41c0-2.09.08-3.68.49-4.6.59-1.34,1.6-2.3,2.85-2.7,1.11-.36,2.28-.42,5.05-.42h28.28c2.76,0,3.94.06,5.05.42,1.24.4,2.25,1.36,2.85,2.7.41.92.49,2.5.49,4.6Z"/><path d="m301.47,17.59c.42.75.92,1.32,1.48,1.72.57.4,1.26.59,2.08.59.61,0,1.15-.13,1.62-.38s.84-.62,1.1-1.09.39-1.01.39-1.62-.13-1.14-.4-1.61c-.27-.47-.64-.83-1.12-1.08s-1.03-.38-1.65-.38c-.57,0-1.09.12-1.57.35s-.9.58-1.25,1.05l-1.76-.81.64-8.48h8.38v1.93h-6.47l-.4,5-.11.02c.37-.33.81-.57,1.33-.74s1.06-.25,1.62-.25c.98,0,1.83.2,2.58.61.74.41,1.31.99,1.72,1.73s.6,1.6.6,2.58-.22,1.91-.65,2.68-1.04,1.37-1.83,1.79c-.79.42-1.71.64-2.76.64-1.26,0-2.34-.29-3.23-.87-.9-.58-1.55-1.33-1.96-2.25l1.63-1.12h-.01Z"/><path d="m320.03,7.52c-1.06,0-1.98.24-2.76.73-.78.49-1.38,1.2-1.8,2.13-.42.93-.64,2.04-.64,3.31s.2,2.41.62,3.34c.41.93,1,1.63,1.76,2.11s1.66.72,2.69.72c.82,0,1.54-.13,2.15-.4s1.17-.68,1.66-1.23v-3.35h-3.69v-1.95h5.75v6.09c-.75.93-1.61,1.64-2.59,2.11-.98.47-2.07.71-3.29.71-1.48,0-2.76-.32-3.84-.96-1.07-.64-1.91-1.58-2.49-2.8-.59-1.22-.88-2.68-.88-4.38s.3-3.16.89-4.38c.59-1.22,1.44-2.16,2.54-2.8,1.1-.64,2.4-.96,3.9-.96,1.17,0,2.23.26,3.18.78.95.52,1.71,1.23,2.29,2.12l-1.68,1.17c-.47-.62-1.04-1.13-1.71-1.52-.67-.39-1.37-.58-2.09-.58h.03,0Z"/></svg>