<?xml version="1.0" encoding="utf-8"?>
<!-- Generator: Adobe Illustrator 26.5.0, SVG Export Plug-In . SVG Version: 6.00 Build 0)  -->
<svg version="1.1" id="a" xmlns="http://www.w3.org/2000/svg" xmlns:xlink="http://www.w3.org/1999/xlink" x="0px" y="0px"
	 viewBox="0 0 456 36.5" style="enable-background:new 0 0 456 36.5;" xml:space="preserve">
<style type="text/css">
	.st0{fill:none;}
	.st1{fill:url(#SVGID_1_);}
	.st2{fill:url(#SVGID_00000118360782875589315500000004943232831028737933_);}
	.st3{fill:url(#SVGID_00000031929474826670479670000015959673714601618859_);}
</style>
<path d="M61.3,33.4h-3.1v-20h12.5v2.9h-9.5v5.8h8.8v2.9h-8.8L61.3,33.4L61.3,33.4z"/>
<path d="M79.1,33.8c-1.4,0-2.6-0.3-3.6-1s-1.8-1.5-2.4-2.7c-0.6-1.1-0.8-2.5-0.8-4.1s0.3-2.9,0.8-4.1c0.6-1.2,1.3-2,2.4-2.7
	s2.2-0.9,3.6-0.9s2.6,0.3,3.6,0.9s1.8,1.5,2.4,2.7s0.8,2.5,0.8,4.1S85.6,29,85,30.2s-1.3,2-2.4,2.7S80.4,33.8,79.1,33.8L79.1,33.8z
	 M79.1,31c0.8,0,1.4-0.2,2-0.6s1-1,1.3-1.7s0.5-1.6,0.5-2.6s-0.2-1.9-0.5-2.6s-0.7-1.3-1.3-1.7c-0.6-0.4-1.2-0.6-2-0.6
	s-1.4,0.2-2,0.6c-0.6,0.4-1,1-1.3,1.7c-0.3,0.7-0.5,1.6-0.5,2.6s0.2,1.9,0.5,2.6s0.7,1.3,1.3,1.7C77.6,30.8,78.3,31,79.1,31z"/>
<path d="M87.5,21.6v-2.8h9.3v2.8H87.5z M94.2,33.9c-1.4,0-2.5-0.4-3.3-1.2s-1.2-2-1.2-3.5V14.4h3v14.5c0,0.7,0.2,1.2,0.6,1.6
	c0.4,0.4,0.9,0.6,1.6,0.6c0.5,0,1-0.1,1.6-0.3v2.8C95.8,33.8,95.1,33.9,94.2,33.9L94.2,33.9z"/>
<path d="M105,33.8c-1.4,0-2.6-0.3-3.6-1s-1.8-1.5-2.4-2.7c-0.6-1.1-0.8-2.5-0.8-4.1s0.3-2.9,0.8-4.1c0.6-1.2,1.3-2,2.4-2.7
	s2.2-0.9,3.6-0.9s2.6,0.3,3.6,0.9s1.8,1.5,2.4,2.7s0.8,2.5,0.8,4.1s-0.3,2.9-0.8,4.1s-1.3,2-2.4,2.7S106.4,33.8,105,33.8L105,33.8z
	 M105,31c0.8,0,1.4-0.2,2-0.6s1-1,1.3-1.7s0.5-1.6,0.5-2.6s-0.2-1.9-0.5-2.6s-0.7-1.3-1.3-1.7c-0.6-0.4-1.2-0.6-2-0.6
	s-1.4,0.2-2,0.6c-0.6,0.4-1,1-1.3,1.7c-0.3,0.7-0.5,1.6-0.5,2.6s0.2,1.9,0.5,2.6s0.7,1.3,1.3,1.7C103.6,30.8,104.2,31,105,31z"/>
<path d="M119.7,33.8c-1.4,0-2.7-0.3-3.7-0.9c-1-0.6-1.8-1.4-2.3-2.4l2.3-1.6c0.4,0.7,1,1.3,1.6,1.7c0.7,0.4,1.4,0.6,2.2,0.6
	s1.4-0.1,1.9-0.5s0.7-0.7,0.7-1.2c0-0.5-0.2-1-0.7-1.3s-1.2-0.6-2.3-0.8c-1.7-0.4-3-1-3.9-1.7s-1.3-1.7-1.3-2.9
	c0-1.3,0.5-2.4,1.5-3.2s2.3-1.2,4-1.2c1.3,0,2.4,0.3,3.3,0.8c0.9,0.5,1.7,1.3,2.3,2.2l-2.3,1.6c-0.4-0.7-0.9-1.2-1.5-1.5
	s-1.2-0.5-1.9-0.5c-0.8,0-1.4,0.1-1.8,0.5s-0.7,0.7-0.7,1.2c0,0.5,0.3,0.9,0.8,1.2s1.3,0.7,2.4,0.9c1.6,0.4,2.9,0.9,3.7,1.6
	s1.3,1.7,1.3,2.8c0,0.9-0.2,1.7-0.7,2.4c-0.5,0.7-1.1,1.2-2,1.6C121.8,33.6,120.9,33.8,119.7,33.8L119.7,33.8z"/>
<path d="M139.4,14.4c0,0.6-0.2,1-0.5,1.4c-0.4,0.3-0.8,0.5-1.4,0.5s-1-0.2-1.4-0.5s-0.5-0.8-0.5-1.4s0.2-1,0.5-1.4s0.8-0.5,1.3-0.5
	c0.6,0,1.1,0.2,1.4,0.5S139.4,13.8,139.4,14.4L139.4,14.4z M139,33.4h-3V18.8h3V33.4z"/>
<path d="M149.2,33.8c-1.4,0-2.6-0.3-3.7-1s-1.9-1.5-2.4-2.7c-0.6-1.2-0.9-2.5-0.9-4.1s0.3-2.9,0.9-4s1.4-2.1,2.4-2.7
	c1.1-0.6,2.3-1,3.7-1c1.1,0,2.2,0.3,3.2,0.9c1,0.6,1.8,1.4,2.3,2.4l-2.4,1.6c-0.4-0.6-0.9-1.1-1.5-1.5s-1.2-0.5-1.9-0.5
	c-0.8,0-1.4,0.2-2,0.6c-0.6,0.4-1,1-1.3,1.7s-0.5,1.6-0.5,2.5s0.1,1.8,0.5,2.6c0.3,0.7,0.8,1.3,1.3,1.7c0.6,0.4,1.2,0.6,2,0.6
	c0.7,0,1.3-0.2,1.9-0.5s1.1-0.9,1.5-1.5l2.4,1.6c-0.5,1-1.3,1.8-2.3,2.4C151.4,33.5,150.3,33.8,149.2,33.8L149.2,33.8z"/>
<path d="M163.3,33.8c-1.4,0-2.6-0.3-3.6-1s-1.8-1.5-2.4-2.7s-0.8-2.5-0.8-4.1s0.3-2.9,0.8-4.1c0.6-1.2,1.3-2,2.4-2.7
	s2.2-0.9,3.6-0.9s2.6,0.3,3.6,0.9s1.8,1.5,2.4,2.7s0.8,2.5,0.8,4.1s-0.3,2.9-0.8,4.1s-1.4,2-2.4,2.7S164.7,33.8,163.3,33.8
	L163.3,33.8z M159.2,16.7l2.8-3.8h2.7l2.8,3.8l-1.4,1l-2.7-2.5l-2.7,2.5L159.2,16.7L159.2,16.7z M163.3,31c0.8,0,1.4-0.2,2-0.6
	s1-1,1.3-1.7s0.5-1.6,0.5-2.6s-0.1-1.9-0.5-2.6c-0.3-0.7-0.7-1.3-1.3-1.7c-0.6-0.4-1.2-0.6-2-0.6s-1.4,0.2-2,0.6
	c-0.6,0.4-1,1-1.3,1.7c-0.3,0.7-0.5,1.6-0.5,2.6s0.1,1.9,0.5,2.6c0.3,0.7,0.7,1.3,1.3,1.7C161.9,30.8,162.5,31,163.3,31z"/>
<path d="M173,33.4V18.8h3v2h0.1c0.4-0.7,1.1-1.3,1.9-1.7s1.6-0.6,2.5-0.6c1.6,0,2.8,0.5,3.7,1.5s1.3,2.4,1.3,4.1v9.4h-3v-8.8
	c0-1-0.3-1.9-0.8-2.5c-0.6-0.6-1.3-0.9-2.1-0.9c-0.7,0-1.3,0.1-1.8,0.5c-0.5,0.3-0.9,0.7-1.2,1.3s-0.4,1.2-0.4,1.9v8.5L173,33.4
	L173,33.4z"/>
<path d="M192.5,14.4c0,0.6-0.2,1-0.5,1.4c-0.4,0.3-0.8,0.5-1.4,0.5s-1-0.2-1.4-0.5s-0.5-0.8-0.5-1.4s0.2-1,0.5-1.4s0.8-0.5,1.3-0.5
	c0.6,0,1.1,0.2,1.4,0.5S192.5,13.8,192.5,14.4L192.5,14.4z M192.1,33.4h-3V18.8h3V33.4z"/>
<path d="M202.3,33.8c-1.4,0-2.6-0.3-3.7-1s-1.9-1.5-2.4-2.7c-0.6-1.2-0.9-2.5-0.9-4.1s0.3-2.9,0.9-4s1.4-2.1,2.4-2.7
	c1.1-0.6,2.3-1,3.7-1c1.1,0,2.2,0.3,3.2,0.9c1,0.6,1.8,1.4,2.3,2.4l-2.4,1.6c-0.4-0.6-0.9-1.1-1.5-1.5s-1.2-0.5-1.9-0.5
	c-0.8,0-1.4,0.2-2,0.6c-0.6,0.4-1,1-1.3,1.7s-0.5,1.6-0.5,2.5s0.1,1.8,0.5,2.6c0.3,0.7,0.8,1.3,1.3,1.7c0.6,0.4,1.2,0.6,2,0.6
	c0.7,0,1.3-0.2,1.9-0.5s1.1-0.9,1.5-1.5l2.4,1.6c-0.5,1-1.3,1.8-2.3,2.4C204.5,33.5,203.5,33.8,202.3,33.8L202.3,33.8z"/>
<path d="M214.4,33.8c-0.9,0-1.7-0.2-2.4-0.5s-1.3-0.8-1.7-1.5s-0.6-1.4-0.6-2.2c0-1,0.3-2,0.8-2.7s1.4-1.4,2.4-1.8s2.3-0.6,3.7-0.6
	h2.2v-0.7c0-0.9-0.3-1.5-0.8-2s-1.3-0.8-2.2-0.8c-0.6,0-1.2,0.1-1.7,0.4c-0.5,0.3-1,0.7-1.3,1.2l-2.2-1.5c0.6-0.9,1.4-1.6,2.3-2
	s1.9-0.7,3.1-0.7s2.2,0.2,3.1,0.6c0.9,0.4,1.6,1.1,2.1,1.9s0.7,1.8,0.7,2.9v9.6h-3v-1.9h-0.2c-0.4,0.7-0.9,1.3-1.7,1.7
	S215.3,33.8,214.4,33.8L214.4,33.8z M215.2,31.2c0.6,0,1.1-0.1,1.7-0.3c0.6-0.2,1-0.6,1.4-1c0.4-0.5,0.6-1.1,0.6-1.7v-1h-1.6
	c-1.5,0-2.6,0.2-3.4,0.6c-0.8,0.4-1.1,1-1.1,1.8c0,0.5,0.2,0.9,0.7,1.3S214.4,31.2,215.2,31.2L215.2,31.2z"/>
<path d="M230.2,33.8c-1.4,0-2.7-0.3-3.7-0.9c-1-0.6-1.8-1.4-2.4-2.4l2.3-1.6c0.4,0.7,1,1.3,1.6,1.7c0.6,0.4,1.4,0.6,2.2,0.6
	s1.4-0.1,1.9-0.5s0.7-0.7,0.7-1.2c0-0.5-0.2-1-0.7-1.3s-1.2-0.6-2.3-0.8c-1.7-0.4-3-1-3.9-1.7s-1.3-1.7-1.3-2.9
	c0-1.3,0.5-2.4,1.5-3.2s2.4-1.2,4-1.2c1.3,0,2.4,0.3,3.4,0.8c0.9,0.5,1.7,1.3,2.3,2.2l-2.3,1.6c-0.4-0.7-0.9-1.2-1.5-1.5
	s-1.2-0.5-1.9-0.5c-0.8,0-1.4,0.1-1.8,0.5s-0.7,0.7-0.7,1.2c0,0.5,0.3,0.9,0.8,1.2s1.3,0.7,2.4,0.9c1.6,0.4,2.9,0.9,3.7,1.6
	s1.3,1.7,1.3,2.8c0,0.9-0.2,1.7-0.7,2.4c-0.5,0.7-1.1,1.2-2,1.6C232.3,33.6,231.3,33.8,230.2,33.8L230.2,33.8z"/>
<path d="M238.1,36.5l1-6.7h3.5l-2.2,6.7H238.1L238.1,36.5z"/>
<path d="M260.2,33.8c-1.4,0-2.6-0.3-3.7-1s-1.9-1.5-2.4-2.7c-0.6-1.2-0.9-2.5-0.9-4.1s0.3-2.9,0.9-4s1.4-2.1,2.4-2.7
	c1.1-0.6,2.3-1,3.7-1c1.1,0,2.2,0.3,3.2,0.9c1,0.6,1.8,1.4,2.3,2.4l-2.4,1.6c-0.4-0.6-0.9-1.1-1.5-1.5s-1.2-0.5-1.9-0.5
	c-0.8,0-1.5,0.2-2,0.6c-0.6,0.4-1,1-1.3,1.7s-0.5,1.6-0.5,2.5s0.1,1.8,0.5,2.6s0.8,1.3,1.3,1.7c0.6,0.4,1.2,0.6,2,0.6
	c0.7,0,1.3-0.2,1.9-0.5s1.1-0.9,1.5-1.5l2.4,1.6c-0.5,1-1.3,1.8-2.3,2.4S261.4,33.8,260.2,33.8L260.2,33.8z"/>
<path d="M268.5,33.4V18.8h3v2.8h0.2c0.6-1,1.3-1.8,2.2-2.3c0.9-0.5,2-0.8,3.2-0.8h0.2v3H277c-1.2,0-2.2,0.2-3,0.5s-1.4,0.8-1.9,1.4
	c-0.4,0.6-0.6,1.3-0.6,2.1v7.9L268.5,33.4L268.5,33.4z"/>
<path d="M283.1,14.4c0,0.6-0.2,1-0.5,1.4c-0.4,0.3-0.8,0.5-1.4,0.5s-1-0.2-1.4-0.5s-0.5-0.8-0.5-1.4s0.2-1,0.5-1.4s0.8-0.5,1.3-0.5
	c0.6,0,1.1,0.2,1.4,0.5S283.1,13.8,283.1,14.4z M282.7,33.4h-3V18.8h3V33.4z"/>
<path d="M292.9,33.8c-1.4,0-2.7-0.3-3.7-0.9c-1-0.6-1.9-1.5-2.4-2.6s-0.9-2.5-0.9-4s0.3-3,0.8-4.1s1.3-2.1,2.4-2.7
	c1-0.6,2.2-1,3.6-1c1.3,0,2.4,0.3,3.4,0.8c1,0.5,1.7,1.3,2.2,2.3s0.8,2.1,0.8,3.4c0,0.7-0.1,1.4-0.2,2.1h-10.9l0.1-2.5h8
	c0-0.7-0.1-1.3-0.4-1.9s-0.6-0.9-1.1-1.2s-1.1-0.5-1.9-0.5c-0.8,0-1.5,0.2-2,0.6c-0.5,0.4-1,1-1.2,1.8c-0.3,0.8-0.4,1.8-0.4,2.9
	c0,1,0.1,1.9,0.5,2.6c0.3,0.7,0.8,1.3,1.4,1.7s1.3,0.6,2.2,0.6c0.7,0,1.3-0.2,1.9-0.5s1.1-0.9,1.5-1.5l2.3,1.6
	c-0.6,1-1.3,1.7-2.3,2.3C295.4,33.5,294.3,33.8,292.9,33.8L292.9,33.8z"/>
<path d="M316,33.8c-1.4,0-2.6-0.3-3.7-1s-1.9-1.5-2.4-2.7c-0.6-1.2-0.9-2.5-0.9-4.1s0.3-2.9,0.9-4s1.4-2.1,2.4-2.7
	c1.1-0.6,2.3-1,3.7-1c1.1,0,2.2,0.3,3.2,0.9c1,0.6,1.8,1.4,2.3,2.4l-2.4,1.6c-0.4-0.6-0.9-1.1-1.5-1.5s-1.2-0.5-1.9-0.5
	c-0.8,0-1.5,0.2-2,0.6c-0.6,0.4-1,1-1.3,1.7s-0.5,1.6-0.5,2.5s0.1,1.8,0.5,2.6s0.8,1.3,1.3,1.7c0.6,0.4,1.2,0.6,2,0.6
	c0.7,0,1.3-0.2,1.9-0.5s1.1-0.9,1.5-1.5l2.4,1.6c-0.5,1-1.3,1.8-2.3,2.4S317.1,33.8,316,33.8L316,33.8z"/>
<path d="M330.1,33.8c-1.4,0-2.6-0.3-3.6-1s-1.8-1.5-2.4-2.7c-0.5-1.1-0.8-2.5-0.8-4.1s0.3-2.9,0.8-4.1c0.5-1.2,1.3-2,2.4-2.7
	s2.2-0.9,3.6-0.9s2.6,0.3,3.6,0.9s1.8,1.5,2.4,2.7s0.8,2.5,0.8,4.1s-0.3,2.9-0.8,4.1s-1.4,2-2.4,2.7S331.5,33.8,330.1,33.8
	L330.1,33.8z M330.1,31c0.8,0,1.4-0.2,2-0.6c0.6-0.4,1-1,1.3-1.7s0.5-1.6,0.5-2.6s-0.1-1.9-0.5-2.6s-0.7-1.3-1.3-1.7
	c-0.6-0.4-1.2-0.6-2-0.6s-1.4,0.2-2,0.6c-0.6,0.4-1,1-1.3,1.7c-0.3,0.7-0.5,1.6-0.5,2.6s0.1,1.9,0.5,2.6s0.7,1.3,1.3,1.7
	C328.6,30.8,329.3,31,330.1,31z"/>
<path d="M339.8,33.4V18.8h3v2h0.2c0.4-0.7,1-1.3,1.7-1.7c0.7-0.4,1.5-0.6,2.3-0.6c0.9,0,1.7,0.2,2.3,0.7c0.7,0.5,1.2,1.1,1.5,2h0.1
	c0.5-0.9,1.2-1.6,2-2c0.8-0.5,1.7-0.7,2.7-0.7c1.5,0,2.7,0.5,3.5,1.5c0.8,1,1.2,2.4,1.2,4.1v9.4h-3v-8.9c0-1-0.2-1.8-0.7-2.5
	c-0.5-0.6-1.1-0.9-1.9-0.9c-0.6,0-1.2,0.1-1.7,0.5c-0.5,0.3-0.8,0.7-1.1,1.3c-0.2,0.5-0.4,1.2-0.4,1.9v8.6h-3v-8.9
	c0-0.7-0.1-1.3-0.3-1.8s-0.5-0.9-0.9-1.2s-0.9-0.4-1.4-0.4c-0.6,0-1.2,0.1-1.6,0.5c-0.5,0.3-0.8,0.7-1.1,1.3
	c-0.3,0.5-0.4,1.2-0.4,1.9v8.6L339.8,33.4L339.8,33.4z"/>
<polygon class="st0" points="379.7,19 377.5,26.1 382,26.1 "/>
<linearGradient id="SVGID_1_" gradientUnits="userSpaceOnUse" x1="365.3825" y1="8.5556" x2="412.4925" y2="35.7656" gradientTransform="matrix(1 0 0 -1 0 38)">
	<stop  offset="0" style="stop-color:#FC3958"/>
	<stop  offset="1" style="stop-color:#FCB303"/>
</linearGradient>
<path class="st1" d="M402.8,0c0,4.3-3.5,7.8-7.9,7.8c4.3,0,7.9,3.5,7.9,7.8c0-4.3,3.5-7.8,7.9-7.8C406.3,7.8,402.8,4.3,402.8,0z"/>
<linearGradient id="SVGID_00000090288443747771051610000008933873175670456765_" gradientUnits="userSpaceOnUse" x1="370.2822" y1="5.614979e-02" x2="417.4022" y2="27.2661" gradientTransform="matrix(1 0 0 -1 0 38)">
	<stop  offset="0" style="stop-color:#FC3958"/>
	<stop  offset="1" style="stop-color:#FCB303"/>
</linearGradient>
<rect x="392.5" y="12.4" style="fill:url(#SVGID_00000090288443747771051610000008933873175670456765_);" width="5.3" height="22.3"/>
<linearGradient id="SVGID_00000145769292586729419250000006995983183690785168_" gradientUnits="userSpaceOnUse" x1="367.3932" y1="5.0644" x2="414.5132" y2="32.2644" gradientTransform="matrix(1 0 0 -1 0 38)">
	<stop  offset="0" style="stop-color:#FC3958"/>
	<stop  offset="1" style="stop-color:#FCB303"/>
</linearGradient>
<path style="fill:url(#SVGID_00000145769292586729419250000006995983183690785168_);" d="M376,30.7l6.1-4.1l1.4,4.3l1.2,3.9h5.6
	l-7.8-22.3h-5.8l-4.8,13.7h-1.6v4.6l-1.4,4h5.6l1.2-3.9L376,30.7L376,30.7z M379.8,19l2.3,7.1h-4.5L379.8,19L379.8,19z"/>
</svg>
