<?xml version="1.0" encoding="utf-8" ?><svg xmlns="http://www.w3.org/2000/svg" xmlns:xlink="http://www.w3.org/1999/xlink" width="309" height="480" viewBox="0 0 309 480"><path d="M153.506 0C155.407 3.92523 158.698 8.20251 161.117 11.9532L177.544 37.4327L233.106 123.619L287.169 207.5L301.518 229.723C303.693 233.135 306.458 238.348 309 241.134L309 241.783C307.198 244.064 305.719 246.72 304.15 249.17L295.513 262.631L266.346 307.906L193.241 421.443L169.614 458.147C164.925 465.439 160.336 472.82 155.464 479.99C152.168 474.026 147.914 468.341 144.164 462.63L121.654 428.332L50.71 320.242L14.0121 264.328L4.54411 249.872C3.17609 247.783 1.73797 244.961 0 243.19L0 242.83C1.29965 241.455 2.31043 239.363 3.32497 237.749L10.0293 227.095L36.7474 184.785L113.939 62.5026L138.925 22.916C143.746 15.2681 148.406 7.46329 153.506 0Z"/><path fill="#FED739" d="M153.353 5.62502C154.68 6.59567 174.595 38.3422 177.2 42.3806L262.933 175.358L290.951 218.823C295.815 226.37 300.467 234.228 305.687 241.523C303.268 244.877 301.121 248.512 298.88 251.992L286.248 271.613L247.666 331.55L187.914 424.345C177.144 441.061 166.101 457.663 155.632 474.567C154.233 473.127 153.072 470.868 151.961 469.177L144.128 457.208L114.804 412.523L42.5155 302.375C29.4917 282.532 16.2558 262.799 3.47442 242.8C5.27899 240.463 6.78286 237.736 8.35919 235.236L17.143 221.304L46.1439 175.35L117.138 62.8997C129.186 43.8071 141.017 24.5286 153.353 5.62502Z"/><path d="M267.507 196.988C267.53 197.013 267.558 197.034 267.575 197.062C268.078 197.907 265.028 224.368 264.499 227.768C274.066 230.649 284.354 234.312 293.985 236.596C284.9 246.314 274.563 254.779 263.244 261.769C218.51 289.179 158.684 295.029 107.849 285.566C99.3698 283.979 90.9896 281.904 82.75 279.35C79.1228 278.23 75.53 276.476 71.8539 275.628L71.6073 275.573C72.7985 272.55 74.396 269.676 75.8832 266.79C75.1554 266.223 74.4374 265.672 73.9862 264.849C71.981 261.187 69.9958 248.438 68.911 243.589C75.4713 242.424 81.6668 240.015 88.4127 240.925C84.4786 238.424 80.0669 236.489 75.8896 234.412C76.8155 235.566 78.2177 236.339 79.0493 237.507C79.3346 237.908 79.2346 238.014 79.1554 238.478C77.208 241.008 65.3553 242.509 61.7601 243.38C63.5851 240.17 65.184 235.058 67.8179 232.596C68.7706 232.212 69.9835 232.49 70.9832 232.604L71.0845 232.265C69.4844 230.5 59.4628 225.941 56.8266 224.928C57.8856 225.95 60.053 227.225 60.5142 228.612C60.7981 229.466 60.0997 230.797 59.7508 231.578C58.7156 233.896 50.5273 250.42 49.4211 251.506C48.313 252.593 46.1782 251.379 44.9371 251.851C45.3966 252.421 45.9954 252.655 46.6395 252.966C50.7952 255.06 54.9364 257.296 59.2104 259.135C58.4484 258.235 56.8901 257.277 56.4616 256.203C55.9071 254.812 56.9299 253.055 57.5181 251.822C58.3926 249.99 59.9703 245.685 61.8674 245.014C61.945 245.125 62.0402 245.25 62.1041 245.372C62.924 246.945 65.2609 258.284 64.6967 259.588C64.3794 260.321 62.6412 259.812 61.9157 260.073C61.906 260.502 61.8696 260.58 62.243 260.864C64.6538 262.7 67.391 262.115 70.0073 265.764C72.0774 268.65 71.569 272.037 70.9996 275.305C66.084 272.725 60.7984 270.759 55.8306 268.208C40.4136 260.289 27.1504 250.047 15.169 237.565C25.0189 234.741 34.7851 231.562 44.5866 228.567C42.6834 218.258 42.0344 207.702 40.2701 197.363C45.9836 201.137 51.289 205.614 56.9826 209.464C77.9179 223.62 100.306 233.569 125.532 236.715C136.647 237.991 147.836 238.504 159.02 238.251C203.718 237.627 232.64 224.124 267.507 196.988Z"/><path fill="#FED739" d="M124.482 249.083C126.847 248.646 139.108 248.898 141.39 249.442L141.652 249.82C140.797 250.68 139.088 249.828 138.036 250.985C136.523 252.648 137.016 267.382 136.418 270.981C139.401 266.101 144.675 260.061 147.019 255.365C147.448 254.504 147.966 253.11 147.708 252.148C147.533 251.498 147 251.126 146.423 250.844C145.107 250.203 143.592 250.078 142.243 249.482C148.171 249.65 154.595 249.394 160.429 250.418C159.362 250.6 156.12 250.839 155.516 251.878C154.429 253.751 153.944 274.773 154.521 277.582C155.346 278.968 158.053 279.414 159.519 279.853C154.066 279.954 148.447 279.616 142.992 279.345L142.598 278.962C143.51 277.978 145.475 278.756 146.404 277.593C147.773 275.879 147.374 261.074 147.907 257.606C145.607 261.07 143.168 264.437 140.762 267.828C139.396 269.754 137.58 271.858 136.683 274.038C136.42 274.677 136.373 275.37 136.516 276.044C136.676 276.793 136.987 277.328 137.506 277.896C138.974 278.213 140.483 278.476 141.915 278.929C140.182 279.152 138.606 279.121 136.872 279.023C134.857 278.984 132.836 278.844 130.824 278.745C128.402 278.78 125.986 278.855 123.576 278.575C125.275 278.078 127.023 277.857 128.719 277.312C129.67 275.286 130.591 253.487 129.778 250.942C128.423 249.535 126.25 249.64 124.482 249.083Z"/><path fill="#FED739" d="M168.167 279.263C169.733 278.682 171.601 278.442 172.883 277.308C174.033 274.83 171.946 257.008 171.368 253.303C170.741 249.29 169.115 251.588 166.951 249.976C167.157 249.876 167.321 249.794 167.547 249.748C169.323 249.386 171.377 249.367 173.197 249.197C178.043 248.746 185.515 247.3 189.688 250.327C191.269 251.459 192.319 253.186 192.597 255.11C192.889 257.128 192.301 259.152 191.078 260.77C188.389 264.326 183.503 264.508 179.446 265.112C179.85 268.899 179.785 273.271 180.851 276.907C182.11 277.187 183.433 277.273 184.638 277.725L184.53 278.053C184.072 278.105 183.58 278.198 183.123 278.167C178.236 278.66 173.068 279.383 168.167 279.263Z"/><path fill="#FDCE31" d="M180.851 276.907C182.11 277.187 183.433 277.273 184.638 277.725L184.53 278.053C184.072 278.105 183.58 278.198 183.123 278.167C182.436 277.92 181.794 278.041 181.121 277.742L180.851 276.907Z"/><path d="M178.393 250.36C180.237 250.407 181.683 250.375 183.213 251.558C184.612 252.64 185.371 254.197 185.592 255.935C185.872 258.149 185.215 260.137 183.873 261.869C183.043 262.454 182.181 262.901 181.195 263.168C180.578 263.336 180.067 263.386 179.502 263.064C178.816 260.879 178.09 252.537 178.393 250.36Z"/><path fill="#FED739" d="M209.897 241.374C214.026 246.396 218.121 251.445 222.182 256.522C224.332 259.189 226.421 261.994 228.712 264.539C230.242 266.238 232.516 266.532 232.835 266.976C230.307 268.813 224.529 268.871 221.565 270.271L221.723 268.913C221.954 268.026 221.904 267.636 221.422 266.83C220.433 265.179 219.076 263.753 217.909 262.228C214.59 263.38 211.145 264.055 207.803 265.109C207.564 266.745 206.763 269.87 207.856 271.252C208.373 271.906 209.301 272.255 210.112 272.303C211.155 272.364 212.193 272.227 213.236 272.325C209.411 273.728 205.361 274.571 201.427 275.615C202.659 274.566 203.92 273.621 204.592 272.102C206.093 268.705 207.258 258.032 207.907 253.969C208.568 249.834 209.55 245.537 209.897 241.374Z"/><path d="M210.064 252.574C211.15 253.011 215.85 259.656 216.978 261.044L214.183 261.813C212.232 262.472 210.146 262.891 208.146 263.394C208.997 259.864 209.356 256.148 210.064 252.574Z"/><path fill="#FED739" d="M82.5861 269.257C83.8578 269.07 85.5995 268.994 86.6868 268.293C89.9684 266.178 103.286 248.089 106.824 243.68L109.86 261.831C110.548 265.865 110.87 271.281 112.707 274.953C113.25 276.04 114.511 276.898 115.438 277.642C113.161 277.067 101.604 274.639 100.486 273.434C101.606 272.997 103.707 274.013 104.285 272.728C104.913 271.33 104.074 267.339 103.517 265.919C100.659 265.243 97.7854 264.575 94.9714 263.734C94.1196 263.625 93.7382 263.45 93.0067 264.031C91.7986 264.989 90.4265 266.85 90.3047 268.437C90.2638 268.97 90.3704 269.485 90.7245 269.899C91.5802 270.899 93.6622 271.662 94.8202 272.415C90.7919 271.505 86.4249 270.776 82.5861 269.257Z"/><path d="M101.439 253.037C101.954 256.558 102.261 260.691 103.314 264.059C100.917 263.689 98.5225 262.985 96.1532 262.446C95.7429 262.312 95.3533 262.172 94.9574 262.001C94.8525 261.189 96.373 259.582 96.9128 258.882C98.4172 256.931 99.954 255.002 101.439 253.037Z"/><path fill="#FED739" d="M234.045 232.867C239.144 230.048 244.333 227.327 249.324 224.323C250.628 227.075 252.32 229.609 253.459 232.441C251.387 230.713 249.213 228.41 246.278 228.715C244.507 228.9 242.96 229.875 241.353 230.562C244.115 235.423 246.848 240.301 249.553 245.195C250.877 247.568 252.123 250.264 253.766 252.431C254.155 252.944 254.423 253.128 255.05 253.289C256.598 253.686 258.396 252.602 259.909 252.264C258.123 253.69 247.092 260.2 245.213 260.484L245.159 260.119C245.955 259.352 247.508 258.227 247.59 257.075C247.634 256.465 247.347 255.792 247.079 255.252C245.811 252.695 236.388 235.34 235.373 234.324C235.337 234.288 235.294 234.258 235.255 234.225C234.604 233.969 234.383 233.44 234.045 232.867Z"/><path fill="#FED739" d="M137.744 241.423C140.92 241.867 139.215 244.059 140.771 245.774C141.73 246.832 143.752 246.623 145.069 246.66C145.373 245.525 145.572 244.266 146.407 243.393C146.95 242.825 147.515 242.388 148.329 242.381C148.603 242.379 148.916 242.604 149.091 242.811C149.704 243.538 149.817 244.394 149.835 245.306C149.821 245.343 149.807 245.381 149.792 245.418C149.768 245.481 149.741 245.542 149.718 245.604C149.478 246.231 149.298 246.754 148.728 247.158C146.689 248.601 143.134 248.286 140.772 247.915C139.161 247.662 137.333 247.073 136.372 245.656C135.977 245.073 135.819 244.423 135.961 243.727C136.185 242.626 136.882 242.031 137.744 241.423Z"/><path fill="#FDCE31" d="M234.045 232.867C234.383 233.44 234.604 233.969 235.255 234.225C233.651 234.991 231.921 235.808 230.924 237.351C229.355 239.778 230.185 242.862 230.73 245.48C228.874 242.989 227.437 240.064 225.87 237.374C228.658 236.019 231.343 234.387 234.045 232.867Z"/><path fill="#FDCE31" d="M221.723 268.913L221.565 270.271C220.224 270.632 218.894 270.907 217.528 271.153C218.904 270.374 220.325 269.656 221.723 268.913Z"/><path d="M292.858 242.999C292.864 243.299 292.866 243.493 292.708 243.761C288.493 250.945 283.607 257.903 279.093 264.919L251.129 308.387L155.482 457.124L15.077 242.839C18.9643 246.48 22.7637 250.129 26.8711 253.529C41.6045 265.722 57.8923 273.978 75.6241 280.862C75.6931 282.077 75.9556 283.275 76.1803 284.469C76.9909 287.089 77.6743 289.514 79.127 291.881C82.2247 296.93 87.2675 299.614 92.8785 300.942C92.2352 302.175 91.7514 303.519 91.3179 304.839C89.1873 311.329 88.185 318.703 91.4414 325.017C95.006 331.928 101.831 334.902 108.828 337.128C110.145 331.332 111.827 326.103 115.405 321.266C119.51 315.717 125.533 312.629 132.279 311.639C134.39 311.33 137.039 311.151 138.835 312.541C140.701 313.985 141.339 316.872 141.593 319.08C142.374 325.852 140.212 332.861 135.954 338.155C129.357 346.358 120.199 349.222 110.123 350.285C111.263 355.999 112.578 362.174 115.519 367.272C117.712 371.074 120.916 374.018 125.23 375.134C133.374 377.242 142.075 372.083 148.902 368.102C144.961 385.818 147.164 404.347 155.147 420.645C161.84 407.289 164.266 393.235 162.89 378.357C162.574 374.938 162.229 371.478 161.394 368.142C166.15 370.781 171.325 373.814 176.629 375.126C180.83 376.165 185.406 375.74 189.128 373.433C196.641 368.775 198.511 358.228 200.329 350.287C194.419 349.885 188.795 348.619 183.561 345.776C176.838 342.123 171.781 336.275 169.615 328.888C168.286 324.353 167.783 318.492 170.162 314.241C170.903 312.916 171.893 312.051 173.381 311.665C177.783 310.52 184.56 312.918 188.378 315.168C196.458 319.931 199.42 328.497 201.64 337.056C203.399 336.567 205.148 336.019 206.83 335.303C212.401 332.93 217.406 329.159 219.685 323.343C222.447 316.295 220.539 307.723 217.636 301.007C221.087 299.94 224.442 298.735 227.293 296.441C232.465 292.28 234.212 286.009 234.933 279.711C257.893 270.398 274.906 260.351 292.858 242.999Z"/><path d="M153.35 23.1159C154.506 23.9113 172.878 52.724 175.322 56.4676L234.008 146.323C244.416 162.261 254.607 178.395 265.296 194.143C259.058 198.761 252.93 203.455 246.45 207.74C243.226 202.287 239.576 197.023 236.118 191.713L217.808 163.561L154.102 65.6375C152.933 66.405 134.973 94.8141 132.367 98.8239L61.4396 208.096C55.125 203.668 48.9346 199.138 42.7277 194.562C44.2664 192.774 45.4948 190.556 46.7738 188.57L53.4168 178.243L76.4755 142.454L153.35 23.1159Z"/><path d="M149.26 180.351C153.421 179.709 158.518 180.147 162.675 180.87C175.769 183.168 187.422 190.554 195.087 201.416C199.783 208.082 202.763 215.803 203.765 223.895C203.913 225.134 204.271 226.785 204.033 228.01C203.95 228.438 203.889 228.415 203.526 228.656C203.356 228.589 203.159 228.569 203.015 228.457C202.547 228.092 202.324 223.834 202.229 223.043C201.08 213.431 196.274 205.52 190.606 197.965C190.402 202.176 189.475 206.412 189.172 210.648C191.657 214.999 192.536 218.964 193.125 223.905C195.185 225.888 197.272 227.843 199.385 229.77C195.215 230.666 191 231.413 186.861 232.441C188.585 230.221 190.075 227.883 191.444 225.432C191.501 221.206 190.444 215.11 187.593 211.882C183.87 207.667 177.908 206.61 172.618 206.282C171.007 208.968 169.375 211.641 167.72 214.3C169.556 219.263 170.977 227.209 173.24 231.528C173.666 232.34 174.315 232.878 174.82 233.621C172.348 234.722 154.42 234.618 150.91 234.593C148.498 234.569 141.175 234.956 139.494 233.735C139.155 233.488 136.33 233.987 135.743 234.007C134.682 234.042 133.568 233.867 132.513 233.747L139.316 231.716C141.208 225.852 143.006 219.613 145.449 213.967C143.426 211.311 141.352 208.649 139.719 205.73C133.508 205.857 127.277 206.613 121.167 207.68C119.564 212.461 118.191 217.631 117.612 222.647C120.12 226.527 123.291 229.949 126.574 233.179C120.887 232.233 115.318 231.329 109.679 230.086C111.568 228.011 113.87 225.812 115.259 223.355C116.753 220.71 116.863 217.244 117.561 214.32C118.146 211.87 118.922 209.478 119.704 207.086L116.472 199.741C111.285 205.575 107.649 213.586 106.308 221.249C105.914 223.502 105.992 226.591 105.242 228.683L104.68 228.912C104.299 228.533 104.284 228.415 104.213 227.874C104.01 226.343 104.341 224.381 104.563 222.851C105.944 213.893 109.684 205.463 115.397 198.427C123.847 188.156 136.025 181.656 149.26 180.351Z"/><path fill="#FED739" d="M150.322 191.686C153.987 191.747 157.652 191.872 161.313 192.062C166.077 195.558 169.26 199.984 171.421 205.431C169.59 208.028 167.952 210.764 166.272 213.459C164.933 213.409 163.587 213.427 162.247 213.417C157.188 213.379 152.129 213.394 147.071 213.462C145.093 210.521 143.068 207.614 140.996 204.739C142.736 199.185 146.175 195.556 150.322 191.686Z"/><path fill="#FED739" d="M150.955 181.854C159.012 181.517 167.044 182.974 174.47 186.121C170.35 187.113 166.532 189.368 162.396 190.413C158.35 190.144 153.196 190.861 149.334 189.72C145.565 188.606 141.866 185.925 138.242 184.293C142.436 182.972 146.602 182.323 150.955 181.854Z"/><path d="M37.3195 203.397C38.0021 205.249 38.0619 207.663 38.3126 209.635C38.9963 215.014 39.3918 220.667 40.606 225.943L20.805 232.047L18.2829 232.867C21.9565 227.05 25.6638 221.256 29.4047 215.482C32.0003 211.448 34.4953 207.273 37.3195 203.397Z"/><path d="M270.955 203.156C271.646 203.63 288.885 229.858 289.325 231.257C288.765 231.429 288.474 231.18 287.943 230.96C281.418 229.147 274.992 226.998 268.472 225.17C269.827 217.969 269.877 210.422 270.955 203.156Z"/><path d="M168.588 153.666L169.16 153.923C171.429 157.159 171.92 162.488 171.51 166.374C171.277 168.582 170.547 171.016 168.724 172.437C167.432 173.443 166.15 173.364 164.618 173.161C163.925 172.827 163.235 172.418 162.683 171.874C161.651 170.859 161.23 169.232 161.243 167.823C161.289 162.715 165.036 157.126 168.588 153.666Z"/><path d="M111.399 164.812C114.176 165.205 116.86 167.049 118.964 168.843C121.406 170.926 124.298 173.988 124.504 177.346C124.603 178.953 124.009 179.933 122.978 181.095C121.982 181.798 120.954 182.379 119.7 182.389C118.173 182.401 116.946 181.62 115.945 180.538C112.313 176.617 111.139 169.986 111.399 164.812Z"/><path d="M217.88 197.84C220.457 197.416 223.16 197.943 225.696 198.386C223.622 203.029 218.986 206.85 214.428 208.893C212.772 209.414 210.95 209.895 209.335 208.963C207.67 208.001 207.125 206.165 206.637 204.436C206.69 204.266 206.749 204.099 206.804 203.929C207.049 203.182 207.286 202.534 207.776 201.906C210.106 198.921 214.36 198.309 217.88 197.84Z"/><path d="M215.774 185.353C216.603 185.304 217.489 185.396 218.321 185.429C216.598 190.199 213.646 195.211 209.091 197.787C207.31 198.794 205.652 199.168 203.668 198.631C202.339 197.706 200.923 196.316 200.682 194.628C200.501 193.366 201.116 192.164 201.894 191.218C205.028 187.403 211.025 185.776 215.774 185.353Z"/><path d="M183.348 157.934C183.53 158.148 183.668 158.366 183.783 158.624C185.362 162.184 184.287 169.198 182.661 172.687C181.933 174.251 180.765 175.89 179.055 176.464C177.538 176.974 176.335 176.501 174.969 175.862C174.321 175.361 173.711 174.828 173.329 174.087C172.582 172.643 172.763 170.912 173.256 169.418C174.772 164.825 179.085 160.122 183.348 157.934Z"/><path d="M85.8519 197.826C86.9254 197.708 88.0957 197.712 89.1751 197.774C92.9832 197.992 97.8296 199.056 100.401 202.047C101.122 202.886 101.679 203.971 101.534 205.109C101.327 206.724 99.8558 208.348 98.5837 209.243C96.9142 209.717 95.3884 209.546 93.7683 208.963C89.1999 207.317 84.5754 202.733 82.5439 198.389C83.6485 198.213 84.7512 198.025 85.8519 197.826Z"/><path d="M196.427 164.759L196.724 165.129C197.285 169.3 195.959 174.46 193.854 178.11C192.839 179.869 191.356 181.695 189.292 182.205C187.716 182.595 186.606 181.986 185.306 181.182C184.682 180.562 184.139 179.98 183.822 179.144C183.281 177.721 183.595 176.125 184.224 174.787C186.373 170.224 191.784 166.425 196.427 164.759Z"/><path d="M139.126 153.552C140.417 153.997 142.075 156.23 142.824 157.317C145.122 160.651 147.437 165.525 146.596 169.62C146.259 171.264 145.458 172.022 144.1 172.913C142.652 173.332 141.317 173.549 139.899 172.875C138.514 172.218 137.732 170.872 137.271 169.465C135.683 164.621 136.845 158.027 139.126 153.552Z"/><path d="M86.4083 210.605C87.8364 210.413 89.6161 210.515 91.0418 210.72C93.1171 211.019 95.3658 211.893 96.6361 213.646C97.4146 214.72 97.7468 216.113 97.4868 217.42C97.2841 218.477 96.6706 219.409 95.781 220.014C93.9222 221.268 91.8945 221.021 89.814 220.62C85.0209 219.422 80.9215 216.462 77.7296 212.774C80.535 211.446 83.3461 210.882 86.4083 210.605Z"/><path d="M218.316 210.579C222.252 210.124 227.008 210.969 230.428 212.893C227.681 215.892 224.829 217.899 221.171 219.645C220.103 220.103 218.92 220.471 217.782 220.694C216.027 221.037 214.043 220.992 212.518 219.948C211.496 219.247 210.796 218.185 210.61 216.954C210.436 215.722 210.772 214.473 211.541 213.496C213.171 211.39 215.827 210.871 218.316 210.579Z"/><path d="M153.82 152.119C153.93 152.185 153.991 152.217 154.094 152.293C156.593 154.115 158.111 159.289 158.636 162.299C159.1 164.958 159.275 168.089 157.618 170.396C156.7 171.673 155.545 171.955 154.09 172.189C153.162 172.102 152.19 171.912 151.401 171.394C150.103 170.542 149.466 169.137 149.22 167.65C148.377 162.535 150.886 156.215 153.82 152.119Z"/><path d="M206.888 174.279C207.436 174.207 207.781 174.161 208.299 174.372C208.592 175.476 208.204 176.807 207.859 177.868C206.524 181.97 203.844 187.26 199.851 189.241C198.329 189.996 197.167 189.846 195.627 189.31C194.461 188.452 193.448 187.433 193.093 185.982C192.748 184.57 193.275 183.148 194.059 181.984C196.671 178.105 202.366 175.2 206.888 174.279Z"/><path d="M90.4199 185.387C94.8278 185.074 100.146 186.635 103.803 189.099C105.357 190.146 106.916 191.557 107.271 193.485C107.567 195.091 106.906 196.21 106.029 197.482C105.629 197.833 105.198 198.232 104.715 198.464C103.371 199.107 101.985 198.967 100.618 198.485C96.7483 197.122 92.9585 192.501 91.2112 188.858C90.7343 187.864 90.0278 186.494 90.4199 185.387Z"/><path d="M124.69 157.948C126.37 158.468 127.911 159.835 129.147 161.044C131.951 163.789 135.198 168.035 135.19 172.085C135.187 173.73 134.516 174.645 133.408 175.752C132.096 176.465 130.62 176.931 129.133 176.533C127.652 176.136 126.608 174.98 125.888 173.678C123.431 169.235 123.319 162.708 124.69 157.948Z"/><path d="M99.6045 174.172C102.945 174.234 106.472 175.857 109.253 177.652C111.64 179.192 114.406 181.423 114.992 184.362C115.313 185.971 114.743 186.982 113.893 188.267C113.1 188.967 112.183 189.536 111.131 189.724C109.698 189.98 108.343 189.509 107.175 188.697C102.744 185.614 100.539 179.253 99.6045 174.172Z"/></svg>