<svg width="275" height="60" viewBox="0 0 275 60" fill="none" xmlns="http://www.w3.org/2000/svg">
<g clip-path="url(#clip0_38_2266)">
<path d="M267.19 13.83C266.15 13.83 265.54 14.24 265.25 15.14L258.76 33.97L251.3 15.14C250.96 14.24 250.4 13.83 249.43 13.83H243.16C241.92 13.83 241.43 14.58 242 15.75L254.83 44.74L253.79 46.95C252.21 50.4 250.6 51.71 249.03 51.71C248.13 51.71 247.16 51.44 246.26 51.03C245.29 50.54 244.46 50.69 243.97 51.64L242.17 55.09C241.76 55.92 241.83 56.74 242.66 57.37C244.31 58.68 246.33 59.65 249.08 59.65C255.23 59.65 258.8 55.11 262.13 46.67L274.35 15.76C274.84 14.59 274.42 13.84 273.18 13.84H267.18L267.2 13.82L267.19 13.83ZM8.21 29.77C8.21 24.67 11.88 21.29 16.23 21.29C20.58 21.29 24.18 24.67 24.18 29.77C24.18 34.87 20.58 38.25 16.23 38.25C11.88 38.25 8.21 34.8 8.21 29.77ZM0 29.84C0 39.22 6.83 45.71 15.46 45.71C19.32 45.71 22.29 43.91 24.01 42.04C23.94 48.6 20.49 51.57 14.56 51.57C11.38 51.57 8.41 50.6 4.96 48.39C4.06 47.76 3.04 47.98 2.55 48.95L0.48 53.03C-0.01 54 0.14 54.9 1.11 55.51C5.39 58.28 10.42 59.64 14.77 59.64C26.17 59.64 32.44 53.49 32.44 39.35V15.46C32.44 14.41 31.81 13.81 30.79 13.81H26.1C25.05 13.81 24.45 14.44 24.45 15.46V17.26C22.58 14.98 19.13 13.25 15.68 13.25C7.27 13.24 0 20.41 0 29.82M57.35 29.82C57.35 24.91 60.95 21.34 65.37 21.34C69.79 21.34 73.37 24.94 73.37 29.82C73.37 34.7 69.77 38.3 65.37 38.3C60.97 38.3 57.35 34.7 57.35 29.82ZM48.99 29.82C48.99 39.42 56.3 46.39 65.35 46.39C74.4 46.39 81.7 39.42 81.7 29.82C81.7 20.22 74.39 13.25 65.35 13.25C56.31 13.25 48.99 20.22 48.99 29.82ZM129.75 29.82C129.75 24.91 133.35 21.34 137.77 21.34C142.19 21.34 145.79 24.94 145.79 29.82C145.79 34.7 142.2 38.3 137.77 38.3C133.34 38.3 129.75 34.7 129.75 29.82ZM121.39 29.82C121.39 39.42 128.7 46.39 137.75 46.39C146.8 46.39 154.11 39.42 154.11 29.82C154.11 20.22 146.79 13.25 137.75 13.25C128.71 13.25 121.39 20.22 121.39 29.82ZM166.24 29.82C166.24 24.79 169.84 21.34 174.12 21.34C178.4 21.34 181.99 24.79 181.99 29.82C181.99 34.85 178.4 38.3 174.12 38.3C169.84 38.3 166.24 34.92 166.24 29.82ZM165.91 17.33V15.46C165.91 14.41 165.28 13.81 164.26 13.81H159.65C158.61 13.81 158 14.44 158 15.46V57.43C158 58.48 158.63 59.08 159.65 59.08H164.75C165.8 59.08 166.4 58.45 166.4 57.43V42.73C168.39 44.8 171.65 46.38 175.02 46.38C183.43 46.38 190.33 39.21 190.33 29.81C190.33 20.41 183.28 13.24 175.07 13.24C171.2 13.24 167.95 14.89 165.88 17.32M214.9 29.79C214.9 24.69 218.5 21.31 222.78 21.31C227.06 21.31 230.65 24.69 230.65 29.79C230.65 34.89 227.06 38.27 222.78 38.27C218.5 38.27 214.9 34.82 214.9 29.79ZM206.54 29.79C206.54 39.17 213.59 46.36 221.8 46.36C225.66 46.36 228.92 44.71 230.99 42.28V44.15C230.99 45.2 231.62 45.8 232.64 45.8H237.26C238.3 45.8 238.91 45.17 238.91 44.15V15.43C238.91 14.38 238.28 13.78 237.26 13.78H232.64C231.6 13.78 230.99 14.41 230.99 15.43V17.42C229.04 15.06 225.55 13.22 221.87 13.22C213.44 13.22 206.54 20.39 206.54 29.79ZM93.83 29.79C93.83 24.76 97.43 21.31 101.7 21.31C105.97 21.31 109.57 24.76 109.57 29.79C109.57 34.82 105.97 38.27 101.7 38.27C97.43 38.27 93.83 34.89 93.83 29.79ZM87.19 0.61C86.14 0.61 85.54 1.24 85.54 2.26V44.16C85.54 45.21 86.17 45.81 87.19 45.81H91.81C92.86 45.81 93.46 45.18 93.46 44.16V42.36C95.45 44.64 99.2 46.37 102.84 46.37C110.91 46.37 117.88 39.06 117.88 29.8C117.88 20.54 110.83 13.23 102.62 13.23C99.32 13.23 96.06 14.69 93.92 16.9V2.26C93.92 1.21 93.29 0.61 92.27 0.61H87.17H87.19ZM195.85 0.61C194.81 0.61 194.2 1.24 194.2 2.26V44.16C194.2 45.21 194.83 45.81 195.85 45.81H201.03C202.07 45.81 202.68 45.18 202.68 44.16V2.31C202.68 1.26 202.05 0.66 201.03 0.66H195.85V0.61ZM36.67 2.55V43.89C36.67 46.1 38.05 47 40.05 46.1L42.67 44.93C44.32 44.18 45.08 43.06 45.08 41.26V5.18C45.08 3.38 44.33 2.29 42.67 1.51L40.05 0.34C39.54 0.1 39.05 0 38.64 0C37.43 0 36.67 0.92 36.67 2.55Z" fill="#F50234"/>
</g>
<defs>
<clipPath id="clip0_38_2266">
<rect width="274.54" height="59.66" fill="white"/>
</clipPath>
</defs>
</svg>
