<svg width="22" height="22" fill="none" xmlns="http://www.w3.org/2000/svg"><path fill-rule="evenodd" clip-rule="evenodd" d="M13.071 5a.5.5 0 00-.5.5v16a.5.5 0 00.5.5h2.143a.5.5 0 00.5-.5v-16a.5.5 0 00-.5-.5h-2.143zm6.286 5.667a.5.5 0 00-.5.5V21.5a.5.5 0 00.5.5H21.5a.5.5 0 00.5-.5V11.167a.5.5 0 00-.5-.5h-2.143zM6.286 8.333a.5.5 0 01.5-.5h2.143a.5.5 0 01.5.5V21.5a.5.5 0 01-.5.5H6.785a.5.5 0 01-.5-.5V8.333zM.5 13.5a.5.5 0 00-.5.5v7.5a.5.5 0 00.5.5h2.143a.5.5 0 00.5-.5V14a.5.5 0 00-.5-.5H.5z" fill="url(#topglobo_icon_mobile)"/><defs><linearGradient id="topglobo_icon_mobile" x1="1.93" y1="6.044" x2="22.422" y2="17.935" gradientUnits="userSpaceOnUse"><stop stop-color="#0420FC"/><stop offset="1" stop-color="#03B4FC"/></linearGradient></defs></svg>