<svg width="28" height="29" fill="none" xmlns="http://www.w3.org/2000/svg"><path fill-rule="evenodd" clip-rule="evenodd" d="M16.5 6a.5.5 0 00-.5.5v22a.5.5 0 00.5.5h3a.5.5 0 00.5-.5v-22a.5.5 0 00-.5-.5h-3zm8 7.667a.5.5 0 00-.5.5V28.5a.5.5 0 00.5.5h3a.5.5 0 00.5-.5V14.167a.5.5 0 00-.5-.5h-3zM8 10.333a.5.5 0 01.5-.5h3a.5.5 0 01.5.5V28.5a.5.5 0 01-.5.5h-3a.5.5 0 01-.5-.5V10.333zM.5 17.5a.5.5 0 00-.5.5v10.5a.5.5 0 00.5.5h3a.5.5 0 00.5-.5V18a.5.5 0 00-.5-.5h-3z" fill="url(#topglobo_icon_desktop)"/><defs><linearGradient id="topglobo_icon_desktop" x1="2.456" y1="7.412" x2="29.316" y2="22.074" gradientUnits="userSpaceOnUse"><stop stop-color="#0420FC"/><stop offset="1" stop-color="#03B4FC"/></linearGradient></defs></svg>
