<?xml version="1.0" encoding="utf-8"?>
<!-- Generator: Adobe Illustrator 27.0.0, SVG Export Plug-In . SVG Version: 6.00 Build 0)  -->
<svg version="1.1" id="Camada_1" xmlns="http://www.w3.org/2000/svg" xmlns:xlink="http://www.w3.org/1999/xlink" x="0px" y="0px"
	 viewBox="0 0 350 350" style="enable-background:new 0 0 350 350;" xml:space="preserve">
<style type="text/css">
	.st0{fill-rule:evenodd;clip-rule:evenodd;fill:#FFE667;}
	.st1{fill:none;stroke:#005187;stroke-width:0.7307;stroke-miterlimit:3.8638;}
	.st2{fill:#FFFFFF;}
	.st3{fill:none;stroke:#005187;stroke-width:0.7307;stroke-miterlimit:18.4549;}
	.st4{fill:#005187;}
	.st5{fill:#FFE667;}
	.st6{clip-path:url(#SVGID_00000065778403135949908660000005657063965620507573_);}
	
		.st7{clip-path:url(#SVGID_00000161623322914065659270000009200882504967115162_);fill:none;stroke:#000000;stroke-width:1.4137;stroke-miterlimit:18.4549;}
	.st8{clip-path:url(#SVGID_00000156576347731821784100000006390107016432542096_);fill:#FFE667;}
	
		.st9{clip-path:url(#SVGID_00000021836438913016516840000008594652904574361499_);fill:none;stroke:#000000;stroke-width:0.3964;stroke-miterlimit:18.4549;}
	.st10{fill:none;stroke:#000000;stroke-width:0.7307;stroke-miterlimit:3.8638;}
	.st11{clip-path:url(#SVGID_00000008865331159907300240000017770372498635424149_);fill:#E70005;}
	
		.st12{clip-path:url(#SVGID_00000180357352007761672870000004785994099662827173_);fill:none;stroke:#E70005;stroke-width:1.4137;stroke-miterlimit:18.4549;}
	.st13{clip-path:url(#SVGID_00000161615440799141634430000006421099629298144141_);fill:#E70005;}
	
		.st14{clip-path:url(#SVGID_00000142860644274033214920000011953146086110860956_);fill:none;stroke:#E70005;stroke-width:1.4137;stroke-miterlimit:18.4549;}
	.st15{clip-path:url(#SVGID_00000037691229053667324340000004152587224831586998_);fill:#E70005;}
	
		.st16{clip-path:url(#SVGID_00000093882584681108480130000001984683741767430541_);fill:none;stroke:#E70005;stroke-width:1.4137;stroke-miterlimit:18.4549;}
	.st17{clip-path:url(#SVGID_00000036235940159789380560000012414641121746485916_);fill:#E70005;}
	
		.st18{clip-path:url(#SVGID_00000148622065335879686650000009495345493285227686_);fill:none;stroke:#E70005;stroke-width:1.4137;stroke-miterlimit:18.4549;}
	.st19{fill:#E70005;}
	.st20{fill:none;stroke:#000000;stroke-width:0.6734;stroke-miterlimit:18.4549;}
</style>
<path class="st0" d="M174.8,19.3c4.2,0,7.7,3.5,7.7,7.8c0,1.3-0.3,2.5-0.8,3.5l0.5,0c4.3,0,7.8,3.5,7.8,7.8c0,4.3-3.5,7.8-7.8,7.8
	c-1.6,0-3-0.5-4.3-1.3c0.1,8.9,7.1,16,15.9,16c7.5,0,13.8-5.2,15.5-12.2c-1.2,0.4-2.8,0.5-4.2,0.2c-4.2-1-6.8-5.1-5.8-9.3
	c1-4.2,5.1-6.8,9.3-5.8l0.3,0.1c-0.3-1.2-0.3-2.4,0-3.6c1-4.2,5.1-6.8,9.3-5.8c4.2,1,6.8,5.1,5.8,9.3c-0.3,1.2-0.9,2.3-1.6,3.3
	l0.5,0.1c4.2,1,6.8,5.1,5.8,9.3c-1,4.2-5.1,6.8-9.3,5.8c-1.3-0.3-2.5-1-3.5-1.8l-0.1,0.3c-2,8.6,3.3,17.2,11.9,19.1
	c7.5,1.6,12.3-0.5,14.8-3c-1.3-0.2-2.6-0.8-3.7-1.7c-3.3-2.8-3.7-7.7-1-11c2.8-3.3,7.7-3.7,11-1l2,1.8c2.7-4.8,3.1-5.6,4.5-7.7
	c2.4-3.6,6-2.6,9.8-0.1l6,4.1L260,62.9c0.3,0.7,0.4,1.5,0.4,2.3c0,3.8-3.1,6.9-6.9,6.9c-1.1,0-2.1-0.1-3-0.5
	c-6.5,5.4-15.4,7.9-24.4,5.8c-7.4-1.7-13.4-6.2-17.3-12.1l0.3-0.3c-6,3.5-13.2,4.7-20.5,3.1c-5.5-1.3-10.2-4.1-13.8-7.8
	c-3.6,3.8-8.3,6.6-13.8,7.8c-7.2,1.7-14.4,0.8-20.4-2.7l-0.1,0.2c-3.8,5.9-9.6,10.1-17,11.9c-8.9,2.1-17.9-0.4-24.4-5.8
	c-0.9,0.5-1.9,0.5-3,0.5c-3.8,0-6.9-3.1-6.9-6.9c0-0.8,0.1-1.6,0.4-2.3L78.4,51.3l6-4.1c3.8-2.4,7.4-3.5,9.8,0.1
	c1.4,2.1,1.8,2.9,4.5,7.7l2-1.8c3.3-2.8,8.2-2.3,11,1c2.8,3.3,2.3,8.2-1,11c-1.1,0.9-2.4,1.5-3.7,1.7c2.5,2.5,7.3,4.6,14.8,3
	c8.6-1.9,13.9-10.5,11.9-19.1l-0.1-0.3c-1,0.9-2.1,1.5-3.5,1.8c-4.2,1-8.4-1.6-9.3-5.8c-1-4.2,1.6-8.4,5.8-9.3l0.5-0.1
	c-0.8-0.9-1.3-2-1.6-3.3c-1-4.2,1.6-8.4,5.8-9.3c4.2-1,8.4,1.6,9.3,5.8c0.3,1.2,0.3,2.5,0,3.6l0.3-0.1c4.2-1,8.4,1.6,9.3,5.8
	c1,4.2-1.6,8.4-5.8,9.3c-1.3,0.3-3,0.2-4.2-0.2c1.7,7,8,12.2,15.5,12.2c8.8,0,15.9-7.1,15.9-16c-1.3,0.8-2.7,1.3-4.3,1.3
	c-4.3,0-7.8-3.5-7.8-7.8c0-4.3,3.5-7.8,7.8-7.8l0.5,0c-0.5-1.1-0.8-2.3-0.8-3.5C167.1,22.8,170.6,19.3,174.8,19.3L174.8,19.3z"/>
<path class="st1" d="M174.8,19.3c4.2,0,7.7,3.5,7.7,7.8c0,1.3-0.3,2.5-0.8,3.5l0.5,0c4.3,0,7.8,3.5,7.8,7.8c0,4.3-3.5,7.8-7.8,7.8
	c-1.6,0-3-0.5-4.3-1.3c0.1,8.9,7.1,16,15.9,16c7.5,0,13.8-5.2,15.5-12.2c-1.2,0.4-2.8,0.5-4.2,0.2c-4.2-1-6.8-5.1-5.8-9.3
	c1-4.2,5.1-6.8,9.3-5.8l0.3,0.1c-0.3-1.2-0.3-2.4,0-3.6c1-4.2,5.1-6.8,9.3-5.8c4.2,1,6.8,5.1,5.8,9.3c-0.3,1.2-0.9,2.3-1.6,3.3
	l0.5,0.1c4.2,1,6.8,5.1,5.8,9.3c-1,4.2-5.1,6.8-9.3,5.8c-1.3-0.3-2.5-1-3.5-1.8l-0.1,0.3c-2,8.6,3.3,17.2,11.9,19.1
	c7.5,1.6,12.3-0.5,14.8-3c-1.3-0.2-2.6-0.8-3.7-1.7c-3.3-2.8-3.7-7.7-1-11c2.8-3.3,7.7-3.7,11-1l2,1.8c2.7-4.8,3.1-5.6,4.5-7.7
	c2.4-3.6,6-2.6,9.8-0.1l6,4.1L260,62.9c0.3,0.7,0.4,1.5,0.4,2.3c0,3.8-3.1,6.9-6.9,6.9c-1.1,0-2.1-0.1-3-0.5
	c-6.5,5.4-15.4,7.9-24.4,5.8c-7.4-1.7-13.4-6.2-17.3-12.1l0.3-0.3c-6,3.5-13.2,4.7-20.5,3.1c-5.5-1.3-10.2-4.1-13.8-7.8
	c-3.6,3.8-8.3,6.6-13.8,7.8c-7.2,1.7-14.4,0.8-20.4-2.7l-0.1,0.2c-3.8,5.9-9.6,10.1-17,11.9c-8.9,2.1-17.9-0.4-24.4-5.8
	c-0.9,0.5-1.9,0.5-3,0.5c-3.8,0-6.9-3.1-6.9-6.9c0-0.8,0.1-1.6,0.4-2.3L78.4,51.3l6-4.1c3.8-2.4,7.4-3.5,9.8,0.1
	c1.4,2.1,1.8,2.9,4.5,7.7l2-1.8c3.3-2.8,8.2-2.3,11,1c2.8,3.3,2.3,8.2-1,11c-1.1,0.9-2.4,1.5-3.7,1.7c2.5,2.5,7.3,4.6,14.8,3
	c8.6-1.9,13.9-10.5,11.9-19.1l-0.1-0.3c-1,0.9-2.1,1.5-3.5,1.8c-4.2,1-8.4-1.6-9.3-5.8c-1-4.2,1.6-8.4,5.8-9.3l0.5-0.1
	c-0.8-0.9-1.3-2-1.6-3.3c-1-4.2,1.6-8.4,5.8-9.3c4.2-1,8.4,1.6,9.3,5.8c0.3,1.2,0.3,2.5,0,3.6l0.3-0.1c4.2-1,8.4,1.6,9.3,5.8
	c1,4.2-1.6,8.4-5.8,9.3c-1.3,0.3-3,0.2-4.2-0.2c1.7,7,8,12.2,15.5,12.2c8.8,0,15.9-7.1,15.9-16c-1.3,0.8-2.7,1.3-4.3,1.3
	c-4.3,0-7.8-3.5-7.8-7.8c0-4.3,3.5-7.8,7.8-7.8l0.5,0c-0.5-1.1-0.8-2.3-0.8-3.5C167.1,22.8,170.6,19.3,174.8,19.3L174.8,19.3z"/>
<circle class="st2" cx="175" cy="195.1" r="124.6"/>
<circle class="st3" cx="175" cy="195.1" r="124.6"/>
<path class="st4" d="M55,195.7C55,129.6,108.6,76,174.7,76c66.1,0,119.7,53.6,119.7,119.7c0,66.1-53.6,119.7-119.7,119.7
	C108.6,315.4,55,261.8,55,195.7"/>
<path class="st2" d="M194.1,84.2l26.7,34.9l28.7,0.1v20.2h-13l41.6,55.7l-89.9,121.7l-26.8,0.1l-90-122l42.3-55.7H99.3V119l29.6-0.1
	l26.5-34.9c0,0,10.3-1.4,19.1-1.4C181.8,82.7,194.1,84.2,194.1,84.2"/>
<path class="st5" d="M139.1,108.6c-12.1-0.2-22.7-6.9-28.3-16.7c-0.5-0.9-0.7-2-0.7-3.1c0-2.5,1.4-4.6,3.5-5.6
	c18.6-8.5,39.2-13.2,61-13.2c21.3,0,41.5,4.6,59.9,12.7l-0.1,0c2.1,1,3.6,3.2,3.6,5.7c0,1.2-0.5,2.6-1.1,3.6
	c-5.8,9.9-16.6,16.6-28.9,16.6c-1.5,0-4.1,0-4.1,0L139.1,108.6"/>
<g transform="matrix(4.7763705,0,0,4.7763705,-193.74153,-739.7969)">
	<g>
		<defs>
			<path id="SVGID_1_" d="M69.7,177.6c-2.5,0-4.8-1.4-5.9-3.5c-0.1-0.2-0.1-0.4-0.1-0.6c0-0.5,0.3-1,0.7-1.2
				c3.9-1.8,8.2-2.8,12.8-2.8c4.5,0,8.7,1,12.5,2.7l0,0c0.4,0.2,0.8,0.7,0.8,1.2c0,0.2-0.1,0.6-0.2,0.7c-1.2,2.1-3.5,3.5-6,3.5
				c-0.3,0-0.9,0-0.9,0L69.7,177.6"/>
		</defs>
		<clipPath id="SVGID_00000139261490018391647130000001777447639090749626_">
			<use xlink:href="#SVGID_1_"  style="overflow:visible;"/>
		</clipPath>
		<circle style="clip-path:url(#SVGID_00000139261490018391647130000001777447639090749626_);" cx="77" cy="198.4" r="25.6"/>
	</g>
	<g>
		<defs>
			<path id="SVGID_00000057138985319977722630000003354701186011665814_" d="M69.7,177.6c-2.5,0-4.8-1.4-5.9-3.5
				c-0.1-0.2-0.1-0.4-0.1-0.6c0-0.5,0.3-1,0.7-1.2c3.9-1.8,8.2-2.8,12.8-2.8c4.5,0,8.7,1,12.5,2.7l0,0c0.4,0.2,0.8,0.7,0.8,1.2
				c0,0.2-0.1,0.6-0.2,0.7c-1.2,2.1-3.5,3.5-6,3.5c-0.3,0-0.9,0-0.9,0L69.7,177.6"/>
		</defs>
		<clipPath id="SVGID_00000158721001498573181500000003585842904441536658_">
			<use xlink:href="#SVGID_00000057138985319977722630000003354701186011665814_"  style="overflow:visible;"/>
		</clipPath>
		
			<circle style="clip-path:url(#SVGID_00000158721001498573181500000003585842904441536658_);fill:none;stroke:#000000;stroke-width:1.4137;stroke-miterlimit:18.4549;" cx="77" cy="198.4" r="25.6"/>
	</g>
	<g>
		<defs>
			<path id="SVGID_00000000909143993818912090000004155461223157122959_" d="M69.7,177.6c-2.5,0-4.8-1.4-5.9-3.5
				c-0.1-0.2-0.1-0.4-0.1-0.6c0-0.5,0.3-1,0.7-1.2c3.9-1.8,8.2-2.8,12.8-2.8c4.5,0,8.7,1,12.5,2.7l0,0c0.4,0.2,0.8,0.7,0.8,1.2
				c0,0.2-0.1,0.6-0.2,0.7c-1.2,2.1-3.5,3.5-6,3.5c-0.3,0-0.9,0-0.9,0L69.7,177.6"/>
		</defs>
		<clipPath id="SVGID_00000134942625621141649790000014333920274029444240_">
			<use xlink:href="#SVGID_00000000909143993818912090000004155461223157122959_"  style="overflow:visible;"/>
		</clipPath>
		<path style="clip-path:url(#SVGID_00000134942625621141649790000014333920274029444240_);fill:#FFE667;" d="M63.2,172.5
			c0.2,0.2-1.2,1.6,0.3,2.8c2.2,1.7,2.2-2.4,13.7-2.4c7.9,0,11,2.6,11,2.6l-1.3,0.3l-1.2,0.1L86,175l-0.4-0.5l-0.5,0.6l-0.3,0
			l-0.3-0.9l-0.4,0.8l-0.9,0.4l1.4,2c2.9-0.2,6.1-2.8,6.1-4.1c0-2.2-7.2-4.2-13.7-4.2C71,169.3,63.1,172.3,63.2,172.5L63.2,172.5z"
			/>
	</g>
	<g>
		<defs>
			<path id="SVGID_00000009554418680030148460000007868629043318732168_" d="M69.7,177.6c-2.5,0-4.8-1.4-5.9-3.5
				c-0.1-0.2-0.1-0.4-0.1-0.6c0-0.5,0.3-1,0.7-1.2c3.9-1.8,8.2-2.8,12.8-2.8c4.5,0,8.7,1,12.5,2.7l0,0c0.4,0.2,0.8,0.7,0.8,1.2
				c0,0.2-0.1,0.6-0.2,0.7c-1.2,2.1-3.5,3.5-6,3.5c-0.3,0-0.9,0-0.9,0L69.7,177.6"/>
		</defs>
		<clipPath id="SVGID_00000134242888254237173820000008198493379215515572_">
			<use xlink:href="#SVGID_00000009554418680030148460000007868629043318732168_"  style="overflow:visible;"/>
		</clipPath>
		
			<path style="clip-path:url(#SVGID_00000134242888254237173820000008198493379215515572_);fill:none;stroke:#000000;stroke-width:0.3964;stroke-miterlimit:18.4549;" d="
			M63.2,172.5c0.2,0.2-1.2,1.6,0.3,2.8c2.2,1.7,2.2-2.4,13.7-2.4c7.9,0,11,2.6,11,2.6l-1.3,0.3l-1.2,0.1L86,175l-0.4-0.5l-0.5,0.6
			l-0.3,0l-0.3-0.9l-0.4,0.8l-0.9,0.4l1.4,2c2.9-0.2,6.1-2.8,6.1-4.1c0-2.2-7.2-4.2-13.7-4.2C71,169.3,63.1,172.3,63.2,172.5
			L63.2,172.5z"/>
	</g>
</g>
<path class="st10" d="M139.1,108.6c-12.1-0.2-22.7-6.9-28.3-16.7c-0.5-0.9-0.7-2-0.7-3.1c0-2.5,1.4-4.6,3.5-5.6
	c18.6-8.5,39.2-13.2,61-13.2c21.3,0,41.5,4.6,59.9,12.7l-0.1,0c2.1,1,3.6,3.2,3.6,5.7c0,1.2-0.5,2.6-1.1,3.6
	c-5.8,9.9-16.6,16.6-28.9,16.6c-1.5,0-4.1,0-4.1,0L139.1,108.6L139.1,108.6z"/>
<path class="st5" d="M193.7,87.8l81.2,107.3L175,330.4L75,194.9l81.1-107.2c0,0,10-1.3,18.5-1.3C181.7,86.4,193.7,87.8,193.7,87.8"
	/>
<g transform="matrix(4.7763705,0,0,4.7763705,-193.74153,-739.7969)">
	<g>
		<defs>
			<path id="SVGID_00000067939158570610481760000017096332280182250624_" d="M81.1,173.3l17,22.5l-20.9,28.3l-20.9-28.4l17-22.4
				c0,0,2.1-0.3,3.9-0.3C78.6,173,81.1,173.3,81.1,173.3"/>
		</defs>
		<clipPath id="SVGID_00000165210122970253129340000014818149869921285567_">
			<use xlink:href="#SVGID_00000067939158570610481760000017096332280182250624_"  style="overflow:visible;"/>
		</clipPath>
		<polygon style="clip-path:url(#SVGID_00000165210122970253129340000014818149869921285567_);fill:#E70005;" points="60.7,200.1 
			60.7,191.6 65.4,185.6 65.4,206 		"/>
	</g>
	<g>
		<defs>
			<path id="SVGID_00000126308343835498482500000008642719001110010763_" d="M81.1,173.3l17,22.5l-20.9,28.3l-20.9-28.4l17-22.4
				c0,0,2.1-0.3,3.9-0.3C78.6,173,81.1,173.3,81.1,173.3"/>
		</defs>
		<clipPath id="SVGID_00000069392360766089732670000004127483488468422027_">
			<use xlink:href="#SVGID_00000126308343835498482500000008642719001110010763_"  style="overflow:visible;"/>
		</clipPath>
		
			<polygon style="clip-path:url(#SVGID_00000069392360766089732670000004127483488468422027_);fill:none;stroke:#E70005;stroke-width:1.4137;stroke-miterlimit:18.4549;" points="
			60.7,200.1 60.7,191.6 65.4,185.6 65.4,206 		"/>
	</g>
	<g>
		<defs>
			<path id="SVGID_00000006666236728644826970000001161253616428997796_" d="M81.1,173.3l17,22.5l-20.9,28.3l-20.9-28.4l17-22.4
				c0,0,2.1-0.3,3.9-0.3C78.6,173,81.1,173.3,81.1,173.3"/>
		</defs>
		<clipPath id="SVGID_00000168111077830710166660000014180865528907326627_">
			<use xlink:href="#SVGID_00000006666236728644826970000001161253616428997796_"  style="overflow:visible;"/>
		</clipPath>
		<polygon style="clip-path:url(#SVGID_00000168111077830710166660000014180865528907326627_);fill:#E70005;" points="74.6,218.8 
			74.6,173.4 69.9,179.7 69.9,212.8 		"/>
	</g>
	<g>
		<defs>
			<path id="SVGID_00000114063648782885874820000006522877349817884827_" d="M81.1,173.3l17,22.5l-20.9,28.3l-20.9-28.4l17-22.4
				c0,0,2.1-0.3,3.9-0.3C78.6,173,81.1,173.3,81.1,173.3"/>
		</defs>
		<clipPath id="SVGID_00000114034042292389723930000001179418836302657930_">
			<use xlink:href="#SVGID_00000114063648782885874820000006522877349817884827_"  style="overflow:visible;"/>
		</clipPath>
		
			<polygon style="clip-path:url(#SVGID_00000114034042292389723930000001179418836302657930_);fill:none;stroke:#E70005;stroke-width:1.4137;stroke-miterlimit:18.4549;" points="
			74.6,218.8 74.6,173.4 69.9,179.7 69.9,212.8 		"/>
	</g>
	<g>
		<defs>
			<path id="SVGID_00000062160468086650832270000003390568537115023516_" d="M81.1,173.3l17,22.5l-20.9,28.3l-20.9-28.4l17-22.4
				c0,0,2.1-0.3,3.9-0.3C78.6,173,81.1,173.3,81.1,173.3"/>
		</defs>
		<clipPath id="SVGID_00000121995169019266293150000000746606148357771669_">
			<use xlink:href="#SVGID_00000062160468086650832270000003390568537115023516_"  style="overflow:visible;"/>
		</clipPath>
		<polygon style="clip-path:url(#SVGID_00000121995169019266293150000000746606148357771669_);fill:#E70005;" points="93.6,200.1 
			93.6,191.6 89,185.7 89,205.8 		"/>
	</g>
	<g>
		<defs>
			<path id="SVGID_00000113319245861031278020000004443720562852291768_" d="M81.1,173.3l17,22.5l-20.9,28.3l-20.9-28.4l17-22.4
				c0,0,2.1-0.3,3.9-0.3C78.6,173,81.1,173.3,81.1,173.3"/>
		</defs>
		<clipPath id="SVGID_00000153688386301361080540000007989511666311815590_">
			<use xlink:href="#SVGID_00000113319245861031278020000004443720562852291768_"  style="overflow:visible;"/>
		</clipPath>
		
			<polygon style="clip-path:url(#SVGID_00000153688386301361080540000007989511666311815590_);fill:none;stroke:#E70005;stroke-width:1.4137;stroke-miterlimit:18.4549;" points="
			93.6,200.1 93.6,191.6 89,185.7 89,205.8 		"/>
	</g>
	<g>
		<defs>
			<path id="SVGID_00000147215035973536693630000004668102212678089349_" d="M81.1,173.3l17,22.5l-20.9,28.3l-20.9-28.4l17-22.4
				c0,0,2.1-0.3,3.9-0.3C78.6,173,81.1,173.3,81.1,173.3"/>
		</defs>
		<clipPath id="SVGID_00000140712937486429013590000003285799170564956828_">
			<use xlink:href="#SVGID_00000147215035973536693630000004668102212678089349_"  style="overflow:visible;"/>
		</clipPath>
		<polygon style="clip-path:url(#SVGID_00000140712937486429013590000003285799170564956828_);fill:#E70005;" points="79.8,218.9 
			79.7,173.3 84.5,179.7 84.5,212.7 		"/>
	</g>
	<g>
		<defs>
			<path id="SVGID_00000163759376836894737320000017525222353223575432_" d="M81.1,173.3l17,22.5l-20.9,28.3l-20.9-28.4l17-22.4
				c0,0,2.1-0.3,3.9-0.3C78.6,173,81.1,173.3,81.1,173.3"/>
		</defs>
		<clipPath id="SVGID_00000059997371851700121680000012858307830715553434_">
			<use xlink:href="#SVGID_00000163759376836894737320000017525222353223575432_"  style="overflow:visible;"/>
		</clipPath>
		
			<polygon style="clip-path:url(#SVGID_00000059997371851700121680000012858307830715553434_);fill:none;stroke:#E70005;stroke-width:1.4137;stroke-miterlimit:18.4549;" points="
			79.8,218.9 79.7,173.3 84.5,179.7 84.5,212.7 		"/>
	</g>
</g>
<path class="st1" d="M193.7,87.8l81.2,107.3L175,330.4L75,194.9l81.1-107.2c0,0,10-1.3,18.5-1.3C181.7,86.4,193.7,87.8,193.7,87.8
	L193.7,87.8z"/>
<path class="st19" d="M170.2,37.1c0-2.7,2.2-4.8,4.8-4.8c2.7,0,4.8,2.2,4.8,4.8c0,2.7-2.2,4.8-4.8,4.8
	C172.3,42,170.2,39.8,170.2,37.1"/>
<path class="st19" d="M130.8,42.1c0-2.7,2.2-4.8,4.8-4.8c2.7,0,4.8,2.2,4.8,4.8c0,2.7-2.2,4.8-4.8,4.8
	C132.9,46.9,130.8,44.8,130.8,42.1"/>
<path class="st19" d="M209.9,42.1c0-2.7,2.2-4.8,4.8-4.8c2.7,0,4.8,2.2,4.8,4.8c0,2.7-2.2,4.8-4.8,4.8
	C212.1,46.9,209.9,44.8,209.9,42.1"/>
<path class="st19" d="M250.1,67c0-2.7,2.2-4.8,4.8-4.8c2.7,0,4.8,2.2,4.8,4.8c0,2.7-2.2,4.8-4.8,4.8C252.3,71.8,250.1,69.6,250.1,67
	"/>
<path class="st19" d="M89.7,67c0-2.7,2.2-4.8,4.8-4.8c2.7,0,4.8,2.2,4.8,4.8c0,2.7-2.2,4.8-4.8,4.8C91.9,71.8,89.7,69.6,89.7,67"/>
<polyline class="st19" points="174.6,72.9 163.2,77.3 174.6,82.5 186.1,77.4 174.6,72.9 "/>
<polyline class="st4" points="123.9,82.7 114.8,90.9 127.3,91.7 136.2,82.8 123.9,82.7 "/>
<polyline class="st4" points="225.2,82.7 234.2,90.9 221.7,91.7 212.8,82.8 225.2,82.7 "/>
<path d="M138,167.3c-3.8-2.4-7-3.3-11.2-3.3c-15.5,0-26.8,13.6-26.8,32.1c0,17.5,11.5,31.3,26.1,31.3c4.3,0,7.6-0.9,11.9-3.3v-17.9
	c-2.7,2.6-5.5,3.9-8.6,3.9c-7.1,0-11.8-5.9-11.8-14.6c0-8.2,5-14.2,11.6-14.2c3.1,0,5.5,1.1,8.8,3.8L138,167.3"/>
<polyline points="249.9,178.1 249.9,164.8 214.2,164.8 214.2,227.2 230.4,227.2 230.4,201.5 248.1,201.5 248.1,188.2 230.4,188.2 
	230.4,178.1 249.9,178.1 "/>
<polyline points="101,120.7 101,137.7 134.6,137.6 174.4,275.7 212.9,137.6 247.7,137.6 247.7,120.7 200.3,120.7 174.8,213.9 
	149.1,120.7 101,120.7 "/>
<polygon class="st5" points="132.2,94.8 135.7,100.2 135.4,104.9 139.1,104.6 149.1,90 "/>
<polygon class="st20" points="132.2,94.8 135.7,100.2 135.4,104.9 139.1,104.6 149.1,90 "/>
</svg>
