<?xml version="1.0" encoding="UTF-8"?> <svg xmlns="http://www.w3.org/2000/svg" width="120" height="19" viewBox="0 0 120 19" fill="none"><g id="aventon-seeklogo.com 2" clip-path="url(#clip0_612_15928)"><path id="Vector" d="M109.791 0.0742269H113.379L111.894 14.4841L117.61 0.0791753H120L112.53 18.9476H109.029L110.534 4.2433L104.712 18.9427H102.314L109.791 0.0742269ZM96.7819 2.26145C96.4202 2.25719 96.062 2.33179 95.7321 2.48007C95.4022 2.62834 95.1086 2.84672 94.8717 3.12C94.5724 3.47629 94.419 3.86227 93.9662 5.00289L92.0981 9.7163L90.2771 14.3159C89.9654 15.0582 89.6586 15.8796 89.9654 16.3324C90.1287 16.5798 90.4602 16.6961 90.955 16.7159H91.0268C91.357 16.7165 91.6837 16.6484 91.9861 16.5159C92.2885 16.3834 92.5601 16.1895 92.7835 15.9464C93.1902 15.4456 93.5051 14.8769 93.7138 14.2664L95.5373 9.66681L97.4054 4.96578L97.44 4.87423C97.8433 3.82268 97.9942 3.43176 97.9794 3.09031C97.9645 2.74887 97.7468 2.27877 96.7819 2.26145ZM100.847 1.31382C101.535 2.3332 101.094 3.62969 100.446 5.21568L98.6623 9.72125L96.767 14.5015C96.4104 15.5004 95.8307 16.405 95.0722 17.1464C93.8944 18.2425 92.2689 18.8239 90.2351 18.8784H90.1584C88.5353 18.8363 87.4491 18.4404 86.9295 17.7006C86.6022 17.1959 86.4842 16.5836 86.6004 15.9934C86.6878 15.4625 86.839 14.9441 87.0507 14.4495L88.946 9.66681L90.7299 5.16372C91.3806 3.5233 91.9522 2.28619 93.4095 1.29402C94.6375 0.48622 96.0671 0.0379953 97.5365 0L97.7122 0C99.1546 0.0395877 100.29 0.512165 100.847 1.31382ZM74.7216 2.42722H78.3315L71.7847 18.9254H74.739L81.266 2.42969H84.913L85.8557 0.0395877H75.6297L74.7216 2.42722ZM50.7489 18.9006H53.1365L58.9583 4.20619L57.454 18.913H60.9551L68.4272 0.0519588H66.0346L60.3241 14.4594L61.8087 0.0470104H58.2161L50.7489 18.9006ZM49.8334 0.06433H42.2004L34.7357 18.8907H42.5196L43.4474 16.4982H38.6375L41.1118 10.2878H45.4342L46.3645 7.89527H42.0594L44.2095 2.46928H48.9105L49.8334 0.06433ZM19.2346 18.8982H22.7307L33.4763 0.0494846H31.0392L22.5155 15.0013L25.8359 0.0668042H23.4161L19.2346 18.8982ZM0 18.8858H2.44206L11.1142 3.6767L7.73443 18.8932H10.1443L14.3629 0.0346392H10.7505L0 18.8858Z" fill="black"></path></g><defs><clipPath id="clip0_612_15928"><rect width="120" height="18.9476" fill="white"></rect></clipPath></defs></svg> 