<?xml version="1.0" encoding="UTF-8"?> <svg xmlns="http://www.w3.org/2000/svg" width="25" height="24" viewBox="0 0 25 24" fill="none"><g id="SolarShopMinimalisticLineDuotone 1"><g id="Group"><path id="Vector" d="M21.5 22H3.5" stroke="black" stroke-width="2" stroke-linecap="round"></path><path id="Vector_2" opacity="0.5" d="M19.5 22V15M5.5 22V15" stroke="black" stroke-width="2" stroke-linecap="round"></path><path id="Vector_3" d="M17.0286 2H7.97256C6.76956 2 6.16856 2 5.68556 2.299C5.20156 2.597 4.93256 3.135 4.39556 4.211L2.99056 7.76C2.66656 8.58 2.38256 9.546 2.92856 10.239C3.18577 10.566 3.53858 10.8047 3.93783 10.9218C4.33708 11.0388 4.7629 11.0285 5.15598 10.8921C5.54906 10.7558 5.88984 10.5002 6.13084 10.1611C6.37185 9.82192 6.50109 9.41606 6.50056 9C6.50056 9.53043 6.71127 10.0391 7.08634 10.4142C7.46142 10.7893 7.97012 11 8.50056 11C9.03099 11 9.5397 10.7893 9.91477 10.4142C10.2898 10.0391 10.5006 9.53043 10.5006 9C10.5006 9.53043 10.7113 10.0391 11.0863 10.4142C11.4614 10.7893 11.9701 11 12.5006 11C13.031 11 13.5397 10.7893 13.9148 10.4142C14.2898 10.0391 14.5006 9.53043 14.5006 9C14.5006 9.53043 14.7113 10.0391 15.0863 10.4142C15.4614 10.7893 15.9701 11 16.5006 11C17.031 11 17.5397 10.7893 17.9148 10.4142C18.2898 10.0391 18.5006 9.53043 18.5006 9C18.5005 9.41573 18.63 9.82114 18.871 10.1599C19.1121 10.4986 19.4527 10.7538 19.8454 10.8899C20.2382 11.0261 20.6637 11.0365 21.0627 10.9197C21.4616 10.8028 21.8143 10.5646 22.0716 10.238C22.6176 9.545 22.3336 8.579 22.0096 7.759L20.6056 4.211C20.0686 3.135 19.7996 2.597 19.3156 2.299C18.8326 2 18.2316 2 17.0286 2Z" stroke="black" stroke-width="2" stroke-linejoin="round"></path></g></g></svg> 