<?xml version="1.0" encoding="UTF-8"?> <svg xmlns="http://www.w3.org/2000/svg" width="25" height="24" viewBox="0 0 25 24" fill="none"><g id="SolarFullScreenSquareLineDuotone 1"><g id="Group"><path id="Vector" d="M6.5 9.997C6.514 8.291 6.61 7.35 7.23 6.73C7.85 6.11 8.79 6.014 10.497 6M6.5 14C6.514 15.707 6.61 16.648 7.23 17.268C7.85 17.888 8.79 17.984 10.497 17.998M18.498 9.997C18.483 8.291 18.388 7.35 17.768 6.73C17.148 6.11 16.207 6.014 14.5 6M18.498 14C18.483 15.707 18.388 16.648 17.768 17.268C17.148 17.888 16.207 17.984 14.5 17.998" stroke="black" stroke-width="2" stroke-linecap="round"></path><path id="Vector_2" opacity="0.5" d="M2.5 12C2.5 7.286 2.5 4.929 3.964 3.464C5.43 2 7.786 2 12.5 2C17.214 2 19.571 2 21.035 3.464C22.5 4.93 22.5 7.286 22.5 12C22.5 16.714 22.5 19.071 21.035 20.535C19.572 22 17.214 22 12.5 22C7.786 22 5.429 22 3.964 20.535C2.5 19.072 2.5 16.714 2.5 12Z" stroke="black" stroke-width="2"></path></g></g></svg> 