<?xml version="1.0" encoding="UTF-8"?> <svg xmlns="http://www.w3.org/2000/svg" width="24" height="24" viewBox="0 0 24 24" fill="none"><g id="SolarDocumentsMinimalisticLineDuotone 1"><g id="Group"><path id="Vector" d="M5 8C5 5.172 5 3.757 5.879 2.879C6.757 2 8.172 2 11 2H13C15.828 2 17.243 2 18.121 2.879C19 3.757 19 5.172 19 8V16C19 18.828 19 20.243 18.121 21.121C17.243 22 15.828 22 13 22H11C8.172 22 6.757 22 5.879 21.121C5 20.243 5 18.828 5 16V8Z" stroke="black" stroke-width="2"></path><path id="Vector_2" opacity="0.7" d="M9 13H15" stroke="black" stroke-width="2" stroke-linecap="round"></path><path id="Vector_3" d="M9 9H15" stroke="black" stroke-width="2" stroke-linecap="round"></path><path id="Vector_4" opacity="0.4" d="M9 17H12" stroke="black" stroke-width="2" stroke-linecap="round"></path><path id="Vector_5" opacity="0.5" d="M2 19V5M22 19V5" stroke="black" stroke-width="2" stroke-linecap="round"></path></g></g></svg> 