<?xml version="1.0" encoding="UTF-8"?> <svg xmlns="http://www.w3.org/2000/svg" width="118" height="28" viewBox="0 0 118 28" fill="none"><g id="bounding-box"><path id="Swoosh" fill-rule="evenodd" clip-rule="evenodd" d="M57.5162 23.4835L56.8317 27.1322H0.464844V26.5583C19.4143 24.5422 38.4578 23.5159 57.5162 23.4835ZM63.5651 23.4766C82.7788 23.4766 107.262 25.5531 116.284 26.5096V27.1287H62.9823L63.5651 23.4766Z" fill="white"></path><path id="Europcar" fill-rule="evenodd" clip-rule="evenodd" d="M69.0241 5.5186C72.612 5.5186 73.3562 8.1899 73.3562 10.4369C73.3562 12.6838 71.9309 19.9569 66.2823 19.9569C63.4352 19.9569 62.4417 18.2734 62.382 18.5308C62.0379 19.9256 60.8759 27.129 60.8759 27.129H56.8317L60.8338 5.83512H65.0044C64.9244 6.16043 64.8738 6.49219 64.8535 6.82643C64.8535 7.19164 65.4362 5.5186 69.0241 5.5186ZM98.3801 5.57425C103.923 5.57425 105.085 7.20208 104.826 8.77773C104.685 9.64382 103.453 15.3482 103.351 16.0821C103.249 16.816 103.818 16.5551 103.818 16.5551L103.081 19.3377H100.974C99.3876 19.3377 99.5245 18.5412 99.1559 18.5412C98.7873 18.5412 97.5761 20.1621 94.6237 20.1621C91.931 20.1621 90.2915 18.329 90.2915 16.0821C90.2915 13.8351 92.5594 11.0073 97.0495 11.0073H99.858C100.648 11.0073 101.754 8.02642 98.5942 8.02642C96.063 8.02642 95.9015 9.80729 95.9015 9.80729H92.2013C92.2013 9.80729 92.1522 5.57425 98.3801 5.57425ZM83.6951 5.21599C90.6777 5.21599 89.6315 11.0038 89.6315 11.0038H85.5662C85.5662 11.0038 85.9454 8.0786 83.2492 8.0786C79.6543 8.0786 78.8153 12.6595 78.8153 14.0334C78.8153 15.4073 79.6543 16.816 81.2376 16.816C82.8082 16.8883 84.2413 15.9332 84.7658 14.4647H88.6661C88.6661 16.3951 86.0683 19.8977 80.4793 19.8977C77.8358 19.8977 74.8272 18.5308 74.8272 14.1447C74.8272 9.7586 77.0951 5.21599 83.6951 5.21599ZM51.9273 5.30643C55.9364 5.30643 57.8427 7.09425 57.8427 10.5447C57.8427 14.5725 55.3431 19.8977 49.024 19.8977C44.6954 19.8977 42.9541 17.4525 42.9541 14.0508C42.9541 10.649 44.8604 5.30643 51.9273 5.30643ZM23.5473 5.88382C23.5473 5.88382 22.1746 13.0664 21.9991 13.9464L21.983 14.0274C21.8102 14.9016 21.6263 16.0856 23.4034 16.0856C25.2359 16.0856 26.1101 15.2403 26.6402 12.9969C27.1703 10.7534 27.9637 5.88382 27.9637 5.88382H31.9553L29.4276 19.3377H25.278L25.4676 18.4856C25.4676 18.2247 25.106 19.6786 21.7253 19.6786C18.341 19.6786 17.2036 17.9395 17.6775 15.7238C18.1374 13.6438 19.4328 5.88382 19.4328 5.88382H23.5473ZM39.1942 5.88729L39.0292 6.6699C39.0292 7.03512 40.0824 5.93251 41.8377 5.93251H43.6387L42.7891 8.97251H40.6301C39.2047 8.97251 38.4184 9.7586 38.0989 11.376C37.7794 12.9934 36.477 19.3377 36.477 19.3377H32.4959L35.0165 5.88729H39.1942ZM112.696 5.88729L112.528 6.6699C112.528 7.03512 113.581 5.93251 115.336 5.93251L117.134 5.93599L116.284 8.97599H114.122C112.696 8.97599 111.907 9.7586 111.587 11.376C111.268 12.9934 109.986 19.3377 109.986 19.3377H106.005L108.526 5.88729H112.696ZM18.341 0.868164L17.7161 4.48208H8.06538L7.3808 8.14121H15.9748L15.2973 11.8038H6.53825L5.68867 15.8212H15.2903L14.6443 19.3343H0.464844L4.42835 0.868164H18.341ZM99.4824 13.4282C99.4824 13.4282 98.0571 13.7377 95.9507 14.0473C94.1322 14.3082 93.5284 17.1777 95.8454 17.1777C97.0636 17.1777 99.4929 16.1377 99.4824 13.4282ZM51.2884 8.13425C47.9076 8.13425 46.9597 12.5308 46.9597 13.4699C46.9632 14.409 46.9106 16.8299 49.5506 16.8299C52.1906 16.8299 53.7142 13.5047 53.7142 11.2647C53.7142 9.02468 52.6084 8.13425 51.2884 8.13425ZM67.1916 8.60729C64.19 8.60729 63.4387 12.6838 63.4387 13.5186C63.4387 14.3534 63.544 16.4995 65.5451 16.4995C67.5461 16.4995 69.4454 13.7273 69.4594 11.4247C69.4594 10.0612 69.3997 8.60729 67.1916 8.60729Z" fill="white"></path></g></svg> 