<?xml version="1.0" encoding="UTF-8"?> <svg xmlns="http://www.w3.org/2000/svg" width="110" height="40" viewBox="0 0 110 40" fill="none"><g id="comcast"><mask id="mask0_82_1184" style="mask-type:alpha" maskUnits="userSpaceOnUse" x="0" y="0" width="110" height="40"><rect id="Rectangle 34624138" x="0.800049" y="0.200195" width="109.2" height="39.6" fill="#D9D9D9"></rect></mask><g mask="url(#mask0_82_1184)"><g id="Group 1000004265"><path id="Vector" d="M100.506 23.0186V37.4335H101.927V23.0186H100.506Z" fill="white"></path><path id="Vector_2" d="M61.5481 21.9821C57.3254 21.9821 53.8037 25.4497 53.8037 29.788C53.8037 33.8759 57.1238 37.5159 61.58 37.5159C64.6859 37.5159 66.6518 35.6676 67.2826 34.9716L66.2094 33.9169C65.8473 34.3489 64.2799 36.0097 61.58 36.0097C57.9403 36.0097 55.3103 33.065 55.3103 29.788C55.3103 26.261 58.1472 23.4887 61.5477 23.4887C64.4471 23.4887 65.9561 25.2882 65.9561 25.2882C66.0872 25.436 66.2711 25.5265 66.4682 25.5401C66.6653 25.5538 66.8599 25.4895 67.0101 25.3611C67.1603 25.2328 67.2541 25.0506 67.2714 24.8538C67.2887 24.657 67.228 24.4612 67.1024 24.3087C67.1024 24.3087 65.0901 21.9821 61.5481 21.9821ZM8.83543 21.9821C4.61312 21.9821 1.09143 25.4497 1.09143 29.788C1.09143 33.8759 4.41119 37.5159 8.86774 37.5159C11.9736 37.5159 13.9396 35.6676 14.5699 34.9716L13.4967 33.9169C13.1346 34.3489 11.5673 36.0097 8.86774 36.0097C5.2277 36.0097 2.59767 33.065 2.59767 29.788C2.59767 26.261 5.43454 23.4887 8.83543 23.4887C11.7348 23.4887 13.2439 25.2882 13.2439 25.2882C13.3754 25.4342 13.5588 25.523 13.755 25.5358C13.9511 25.5485 14.1444 25.4842 14.2938 25.3565C14.4432 25.2288 14.5369 25.0478 14.5548 24.8521C14.5727 24.6564 14.5135 24.4614 14.3898 24.3087C14.3898 24.3087 12.3775 21.9821 8.83543 21.9821ZM24.8077 21.9715C20.9545 21.9715 17.0395 25.0034 17.0395 29.8069C17.0395 34.1824 20.6528 37.5107 24.8667 37.5107C29.6867 37.5107 32.5707 33.4221 32.5707 29.7529C32.5707 25.7275 29.299 21.9715 24.8077 21.9715ZM24.8077 23.4778C28.4576 23.4778 31.0641 26.5437 31.0641 29.7532C31.0641 32.6386 28.8351 36.0044 24.8667 36.0044C21.4381 36.0044 18.5457 33.3575 18.5457 29.8069C18.5457 25.8146 21.7324 23.4778 24.8077 23.4778ZM48.3758 21.9606C48.2319 21.9628 48.0919 22.0073 47.9732 22.0886C47.8545 22.17 47.7625 22.2845 47.7085 22.4179L43.1789 33.5215L38.655 22.4203C38.5949 22.2744 38.4893 22.1519 38.3539 22.0709C38.2185 21.9899 38.0606 21.9548 37.9036 21.9709C37.7467 21.9869 37.5991 22.0533 37.483 22.16C37.3668 22.2668 37.2882 22.4082 37.259 22.5633L34.663 36.6763C34.6457 36.7707 34.6472 36.8677 34.6673 36.9617C34.6875 37.0556 34.726 37.1446 34.7805 37.2237C34.8351 37.3028 34.9047 37.3703 34.9854 37.4225C35.0661 37.4746 35.1562 37.5104 35.2507 37.5277C35.3452 37.545 35.4422 37.5436 35.5362 37.5234C35.6301 37.5032 35.7191 37.4648 35.7982 37.4102C35.8773 37.3556 35.9448 37.286 35.997 37.2053C36.0491 37.1247 36.0849 37.0345 36.1022 36.94L38.2462 25.2927L42.5015 35.7379C42.5563 35.8727 42.65 35.9882 42.7707 36.0695C42.8915 36.1508 43.0337 36.1942 43.1793 36.1942C43.3248 36.1942 43.4671 36.1508 43.5878 36.0695C43.7086 35.9882 43.8023 35.8727 43.8571 35.7379L48.1177 25.2822L50.3582 37.4296H51.8483L49.1048 22.5601C49.0406 22.2089 48.7326 21.9561 48.3758 21.9603V21.9606ZM76.0218 21.9445C75.8788 21.9471 75.7397 21.9916 75.6216 22.0723C75.5036 22.1531 75.4117 22.2666 75.3574 22.3989L69.5934 36.5424C69.5199 36.7222 69.5208 36.9238 69.596 37.1029C69.6711 37.282 69.8143 37.4238 69.9941 37.4973C70.0831 37.5337 70.1784 37.5522 70.2746 37.5518C70.3707 37.5513 70.4658 37.532 70.5545 37.4947C70.7336 37.4196 70.8755 37.2764 70.949 37.0966L76.0352 24.6128L81.2615 37.4355H82.8433L76.7133 22.3989C76.6574 22.2622 76.5614 22.1456 76.438 22.0645C76.3146 21.9834 76.1695 21.9416 76.0218 21.9445Z" fill="white"></path><path id="Vector_3" d="M72.6235 30.2008V31.707H79.1626V30.2008H72.6235ZM89.6704 21.9941C88.5923 21.9941 87.5135 22.2656 86.6552 22.8949C85.7965 23.5246 85.1998 24.5617 85.1998 25.8299C85.1998 26.9351 85.6114 27.838 86.3054 28.4687C86.9997 29.0994 87.8927 29.5258 89.0085 30.1017L89.0197 30.1067C90.1526 30.6665 91.1514 31.1188 91.7898 31.6157C92.4287 32.113 92.7261 32.5481 92.7261 33.4043C92.7261 34.2374 92.4051 34.8418 91.8812 35.2902C91.3572 35.7384 90.6074 36.0081 89.7912 36.0081C87.8548 36.0081 86.4027 34.7526 85.891 34.2409L84.7777 35.2579C85.4116 35.9133 87.2202 37.5143 89.7912 37.5143C90.9344 37.5143 92.0308 37.1456 92.8606 36.4358C93.6905 35.7264 94.2323 34.6542 94.2323 33.4043C94.2323 32.1063 93.5819 31.104 92.7152 30.4298C91.851 29.7565 90.7907 29.3014 89.6971 28.7616L89.6862 28.7563C88.5674 28.1793 87.7628 27.7579 87.3193 27.3551C86.8739 26.9502 86.7061 26.6295 86.7061 25.8299C86.7061 24.9968 87.0214 24.4943 87.5482 24.108C88.0743 23.7224 88.8522 23.5004 89.6704 23.5004C91.1226 23.5004 92.3496 24.2941 92.3496 24.2941C92.4315 24.3554 92.5251 24.3993 92.6245 24.4232C92.724 24.4472 92.8273 24.4506 92.9281 24.4333C93.0289 24.416 93.1252 24.3784 93.211 24.3227C93.2968 24.267 93.3703 24.1944 93.4271 24.1093C93.484 24.0243 93.5229 23.9286 93.5415 23.828C93.5601 23.7274 93.5581 23.6241 93.5355 23.5243C93.5128 23.4245 93.4701 23.3304 93.41 23.2477C93.3498 23.165 93.2734 23.0954 93.1855 23.0431C93.1858 23.0431 91.6596 21.9941 89.6704 21.9941ZM96.8546 22.0721C96.6549 22.0721 96.4633 22.1515 96.3221 22.2927C96.1809 22.4339 96.1015 22.6255 96.1015 22.8252C96.1015 23.025 96.1809 23.2165 96.3221 23.3578C96.4633 23.499 96.6549 23.5784 96.8546 23.5784H105.541C105.74 23.5812 105.933 23.5045 106.076 23.3652C106.22 23.2259 106.302 23.0354 106.304 22.8356C106.307 22.6358 106.23 22.4431 106.091 22.2998C105.952 22.1566 105.761 22.0745 105.562 22.0718L96.8546 22.0721Z" fill="white"></path><path id="Vector_4" d="M43.3384 5.10069C42.2164 6.11387 41.8076 8.40996 43.8304 9.75187L51.9 15.2751L47.9871 6.33267C47.1674 4.22236 44.9247 3.76195 43.3384 5.10069Z" fill="white"></path><path id="Vector_5" d="M50.267 0.751999C48.9553 0.77869 46.9859 2.33693 47.8624 4.7166L51.9092 14.2374L53.3308 4.22317C53.6602 1.73498 51.7725 0.586237 50.267 0.751999Z" fill="white"></path><path id="Vector_6" d="M53.9945 3.8415H54.7594C54.7594 3.8415 55.1682 3.8415 55.224 4.03325C54.9227 4.27908 54.1031 4.30929 54.2116 5.61993L55.4983 14.2357L59.5166 4.69033C60.3391 2.5586 58.6133 0.778761 57.0829 0.723975C57.0107 0.718342 56.9383 0.715296 56.8658 0.714844C55.4916 0.714844 53.9169 1.71117 53.9942 3.8415" fill="white"></path><path id="Vector_7" d="M59.3753 6.41343L55.5741 15.2483L63.6408 9.69601C65.5 8.3801 65.2001 6.27646 64.1595 5.23658C63.723 4.74737 62.9216 4.36914 62.0735 4.36914C61.0705 4.36914 59.9973 4.89979 59.3753 6.41307" fill="white"></path><path id="Vector_8" d="M62.712 10.9537L55.1362 16.2328H64.4641C66.378 16.2328 67.6079 14.264 67.0611 12.4575C66.6948 11.3224 65.6114 10.4311 64.3535 10.4297C63.8249 10.4297 63.2637 10.5891 62.712 10.9537Z" fill="white"></path><path id="Vector_9" d="M43.1665 16.2329H52.3571L44.7795 10.9538C43.0285 9.83172 41.0605 10.4881 40.3497 12.3501C39.7474 14.4818 41.2515 16.2329 43.1665 16.2329Z" fill="white"></path></g></g></g></svg> 