<?xml version="1.0" encoding="UTF-8"?> <svg xmlns="http://www.w3.org/2000/svg" width="112" height="38" viewBox="0 0 112 38" fill="none"><g id="deliveroo-1" clip-path="url(#clip0_82_1217)"><path id="Vector" d="M41.056 26.6268H43.5782L43.1503 24.6675V13.0246H40.7407V18.3393C40.0201 17.5061 39.0067 17.0106 37.8356 17.0106C35.426 17.0106 33.5568 19.0149 33.5568 21.92C33.5568 24.8477 35.426 26.8295 37.8356 26.8295C39.0292 26.8295 40.0651 26.3115 40.7857 25.4332L41.056 26.6268ZM88.7081 19.623C89.2035 19.623 89.6539 19.7581 90.0593 20.0509L91.2078 17.4836C90.6673 17.1458 90.0593 17.0106 89.4512 17.0106C88.3703 17.0106 87.447 17.5061 86.884 18.4294L86.6362 17.2358H84.159L84.5644 19.0825V26.6493H86.974V20.6364C87.2893 20.0058 87.8974 19.623 88.7081 19.623ZM95.7568 24.3072C94.3606 24.3072 93.3247 23.3839 93.3247 21.9426C93.3247 20.4788 94.3606 19.5779 95.7568 19.5779C97.1756 19.5779 98.1889 20.4788 98.1889 21.9426C98.1889 23.3613 97.1756 24.3072 95.7568 24.3072ZM35.8989 21.92C35.8989 20.4562 36.9348 19.5554 38.3311 19.5554C39.7498 19.5554 40.7632 20.4562 40.7632 21.92C40.7632 23.3613 39.7498 24.2847 38.3311 24.2847C36.9348 24.3072 35.8989 23.3613 35.8989 21.92ZM106.454 24.3072C105.058 24.3072 104.022 23.3839 104.022 21.9426C104.022 20.4788 105.058 19.5779 106.454 19.5779C107.872 19.5779 108.886 20.4788 108.886 21.9426C108.863 23.3613 107.85 24.3072 106.454 24.3072ZM49.4334 19.4203C50.672 19.4203 51.4827 20.0058 51.7529 21.0868H47.1138C47.3615 19.9833 48.1948 19.4203 49.4334 19.4203ZM78.2363 19.4203C79.4749 19.4203 80.2856 20.0058 80.5559 21.0868H75.9168C76.2095 19.9833 77.0202 19.4203 78.2363 19.4203ZM66.4809 26.6268H70.3544L72.8766 17.1908H70.2418L68.4176 24.8477L66.571 17.2133H63.9812L66.4809 26.6268ZM60.288 26.6268H62.6976V17.1908H60.288V26.6268ZM49.7937 26.8069C51.1449 26.8069 52.451 26.4241 53.5545 25.726L52.6312 23.6541C51.7754 24.127 50.7846 24.3748 49.8162 24.3748C48.5551 24.3748 47.6768 23.8793 47.2715 22.956H54.0725C54.14 22.5957 54.1851 22.2804 54.1851 21.8525C54.1851 18.9249 52.1583 16.9881 49.4784 16.9881C46.7535 16.9881 44.7718 18.9699 44.7718 21.8975C44.7492 24.8927 46.731 26.8069 49.7937 26.8069ZM111.205 21.92C111.205 18.9924 109.179 17.0106 106.454 17.0106C103.706 17.0106 101.702 19.0149 101.702 21.92C101.702 24.8252 103.729 26.8295 106.454 26.8295C109.179 26.8295 111.205 24.8477 111.205 21.92ZM78.5741 26.8295C79.9253 26.8295 81.2315 26.4691 82.3349 25.7485L81.4116 23.6766C80.5559 24.1495 79.565 24.3973 78.5966 24.3973C77.3355 24.3973 76.4572 23.9018 76.0519 22.9785H82.8529C82.9205 22.6182 82.9655 22.3029 82.9655 21.875C82.9655 18.9474 80.9387 17.0106 78.2588 17.0106C75.5339 17.0106 73.5522 18.9924 73.5522 21.92C73.5522 24.9378 75.5114 26.8295 78.5741 26.8295ZM95.7568 26.8295C98.5042 26.8295 100.508 24.8252 100.508 21.92C100.508 19.0149 98.4817 17.0106 95.7568 17.0106C93.0094 17.0106 91.0051 19.0149 91.0051 21.92C91.0051 24.8252 93.0094 26.8295 95.7568 26.8295ZM55.7164 26.6268H58.1261V13.0246H55.7164V26.6268ZM61.504 15.9071C62.3373 15.9071 63.0129 15.2315 63.0129 14.3758C63.0129 13.52 62.3598 12.8444 61.504 12.8444C60.6483 12.8444 59.9727 13.52 59.9727 14.3758C59.9727 15.2315 60.6258 15.9071 61.504 15.9071ZM20.0899 4.44434L18.7162 17.5061L16.3742 6.49368L8.98764 8.04757L11.3072 19.06L0.677795 21.312L2.56947 30.0949L21.2835 34.081L25.5623 24.5099L27.5891 5.23254L20.0899 4.44434ZM14.1672 23.4064C13.7844 23.7667 13.2889 23.7217 12.7259 23.5415C12.1855 23.3613 11.9603 22.7308 12.1404 21.92C12.2981 21.3345 12.9962 21.2444 13.379 21.2444C13.5141 21.2444 13.6493 21.267 13.7844 21.3345C14.0321 21.4471 14.46 21.6948 14.5501 22.0552C14.6852 22.5957 14.5501 23.0461 14.1672 23.4064ZM19.5945 23.9919C19.3018 24.4874 18.5811 24.5549 17.838 24.1946C17.3425 23.9469 17.3425 23.3613 17.4101 22.9785C17.4326 22.7758 17.5227 22.5731 17.6578 22.4155C17.838 22.1903 18.1307 21.8975 18.446 21.8975C19.009 21.875 19.4594 22.1227 19.7296 22.5731C19.9999 23.0235 19.8647 23.519 19.5945 23.9919Z" fill="white"></path></g><defs><clipPath id="clip0_82_1217"><rect width="110.528" height="37.0937" fill="white" transform="translate(0.714417 0.714844)"></rect></clipPath></defs></svg> 