<?xml version="1.0" encoding="UTF-8"?> <svg xmlns="http://www.w3.org/2000/svg" width="151" height="31" viewBox="0 0 151 31" fill="none"><g id="freshdirect_logo.svg" clip-path="url(#clip0_946_30076)"><g id="Group"><path id="Vector" d="M148.34 29.5266C148.34 28.8513 148.834 28.2988 149.451 28.2988C150.007 28.2988 150.5 28.7899 150.5 29.5266C150.5 30.2632 150.007 30.7543 149.451 30.7543C148.834 30.7543 148.34 30.2632 148.34 29.5266ZM149.451 30.5701C149.945 30.5701 150.315 30.1404 150.315 29.5266C150.315 28.9741 149.945 28.483 149.451 28.483C148.957 28.483 148.587 28.9127 148.587 29.5266C148.587 30.1404 148.957 30.5701 149.451 30.5701ZM149.204 30.2632H149.019V28.8513H149.513C149.821 28.8513 149.945 28.9741 149.945 29.281C149.945 29.5266 149.821 29.6493 149.636 29.6493L150.007 30.2632H149.821L149.513 29.6493H149.328V30.2632H149.204ZM149.451 29.4652C149.636 29.4652 149.76 29.4652 149.76 29.2196C149.76 29.0355 149.636 29.0355 149.513 29.0355H149.266V29.4652H149.451Z" fill="#231F20"></path><path id="Vector_2" d="M136.857 29.5881L136.24 27.1941C136.178 27.0713 136.117 26.8871 135.993 26.8257C135.87 26.7644 135.685 26.7644 135.561 26.8871L135.129 27.1941C134.759 27.5624 134.265 27.9921 133.401 27.9921C130.623 27.9921 129.635 24.8 129.574 22.099C129.512 18.9069 130.746 15.6535 133.215 15.5921C133.956 15.5921 134.327 16.0218 134.635 16.3901L134.944 16.7584C135.067 16.8812 135.191 16.8812 135.376 16.8812C135.499 16.8198 135.623 16.697 135.685 16.5743L136.611 14.1188C136.672 13.9346 136.611 13.6277 136.425 13.5049L136.178 13.3822C135.623 13.0139 134.697 12.5228 133.277 12.4614C130.499 12.4 128.092 13.3208 126.425 14.9782C124.759 16.697 123.894 19.2139 123.956 22.4059C124.018 27.8079 126.919 30.7544 132.29 30.8772C133.586 30.9386 135.87 30.5703 136.611 30.0792C136.857 30.0178 136.919 29.8337 136.857 29.5881Z" fill="black"></path><path id="Vector_3" d="M108.586 11.5405C108.586 11.295 108.401 11.1108 108.154 11.1108C105.993 10.9881 104.512 12.3385 103.648 13.5049C103.586 12.6455 103.586 11.7247 103.586 11.7247C103.586 11.6019 103.524 11.4178 103.401 11.3564C103.277 11.295 103.154 11.2336 103.03 11.295L98.092 12.7069C97.845 12.7683 97.7216 13.0138 97.7833 13.2593L100.376 30.2633C100.438 30.5088 100.623 30.693 100.87 30.6316L103.277 30.3247C103.462 30.2633 103.648 30.0791 103.648 29.895L104.018 23.3881C104.203 19.7049 105.87 18.0475 107.413 18.1088C107.413 18.1088 107.475 18.1088 107.536 18.1088C107.66 18.1088 108.154 18.1088 108.277 18.1088C108.401 18.1702 108.586 18.1088 108.709 17.9861C108.833 17.8633 108.894 17.7405 108.894 17.6178" fill="black"></path><path id="Vector_4" d="M123.462 22.1605L123.586 20.8714C123.647 19.8893 123.771 18.9071 123.771 18.416C123.709 16.2675 122.968 14.3031 121.672 13.014C120.561 11.9704 119.141 11.418 117.598 11.418C115.191 11.4794 113.092 12.4001 111.549 14.0576C109.82 15.9605 108.894 18.6615 108.956 21.6695C109.079 27.5011 113.771 30.6318 118.092 30.5704C121.61 30.5091 123.339 28.913 123.4 28.8516C123.524 28.7289 123.586 28.5447 123.524 28.3605L122.845 26.0893C122.783 25.9051 122.66 25.7823 122.475 25.7823C122.289 25.7209 122.166 25.7823 122.042 25.9051C122.042 25.9051 120.87 27.2556 119.388 27.1942C116.487 27.1328 115.252 25.5982 115.005 22.0992C115.931 22.1605 122.968 22.6516 122.968 22.6516C123.215 22.5902 123.462 22.4061 123.462 22.1605ZM115.191 19.1526C115.191 17.4952 115.561 16.2061 116.178 15.5308C116.549 15.1625 116.919 14.9784 117.475 14.9784C117.845 14.9784 118.154 15.0398 118.4 15.2853C119.018 15.8992 119.141 17.3724 119.203 18.8457C118.462 18.9071 115.87 19.0912 115.191 19.1526Z" fill="black"></path><path id="Vector_5" d="M91.3651 4.97241L86.7355 3.99023C86.612 3.99023 86.4886 3.99023 86.3651 4.11301C86.2417 4.17439 86.18 4.35855 86.18 4.48132C86.18 4.48132 86.18 11.418 86.18 13.0754C85.8713 12.8912 85.6244 12.7685 85.254 12.6457C84.6367 12.4615 84.0812 12.4001 83.5256 12.4001C81.3651 12.4001 79.6985 13.1982 78.5874 14.7328C77.4762 16.2675 76.9824 18.3546 76.9824 20.9942V22.7744C76.9824 25.7209 77.4762 27.7467 78.5256 28.9744C79.575 30.2021 80.8713 30.816 82.4762 30.816C83.5256 30.816 84.3898 30.5704 85.0688 30.1407C85.5009 29.8952 85.8713 29.5269 86.2417 29.0358C86.2417 29.5269 86.3034 30.0793 86.3034 30.0793C86.3034 30.3249 86.4886 30.509 86.7355 30.509H90.6244C90.8713 30.509 91.0565 30.3249 91.1182 30.018L91.7355 5.40212C91.7355 5.21796 91.5503 5.0338 91.3651 4.97241ZM82.0442 21.1784C82.0442 19.5823 82.2293 18.3546 82.7232 17.4952C83.0935 16.7586 83.5874 16.0219 84.3898 15.8991C84.6985 15.8378 85.1306 15.8991 85.5009 16.1447L85.6244 16.2061C85.8096 16.3288 86.0565 16.4516 86.18 17.0041C86.3651 17.8635 86.4886 19.3982 86.4886 20.8714C86.4886 22.3447 86.3651 23.818 86.18 24.616C86.0565 25.1071 85.6244 26.0279 85.3158 26.2734C84.8837 26.5803 84.5133 26.7031 84.0195 26.7031C83.3404 26.7031 82.9083 26.4576 82.5997 25.8437C82.2293 25.2298 82.1059 24.0635 82.1059 22.4061V21.1784H82.0442Z" fill="black"></path><path id="Vector_6" d="M97.0426 13.0752C97.0426 12.8297 96.8574 12.6455 96.6105 12.6455H93.1537C92.9068 12.6455 92.7216 12.8297 92.7216 13.0752L92.166 30.0792C92.166 30.2019 92.2277 30.3247 92.2895 30.4475C92.3512 30.5089 92.4747 30.5703 92.5981 30.5703H97.166C97.2895 30.5703 97.4129 30.5089 97.4747 30.4475C97.5364 30.3861 97.5981 30.2019 97.5981 30.0792" fill="black"></path><path id="Vector_7" d="M146.859 29.711L146.426 26.0892C146.426 25.9664 146.365 25.8436 146.241 25.7823C146.118 25.7209 145.994 25.6595 145.871 25.7209C145.747 25.7209 145.315 25.7209 145.007 25.7209H144.698H144.636C144.081 25.7209 143.71 25.5981 143.587 25.4753C143.402 25.2912 143.402 25.0456 143.463 24.1248C143.463 24.1248 143.463 24.1248 143.463 24.0634C143.463 24.0634 143.525 17.1268 143.525 16.206C144.204 16.206 146.18 16.3288 146.18 16.3288C146.303 16.3288 146.426 16.2674 146.55 16.206C146.612 16.1446 146.673 16.0219 146.673 15.8991V15.8377L146.488 13.0139C146.488 12.7684 146.303 12.5842 146.056 12.5842C146.056 12.5842 144.019 12.5842 143.34 12.5842C143.34 11.8476 143.278 8.16443 143.278 8.16443C143.278 8.04166 143.217 7.91888 143.093 7.79611C142.97 7.73473 142.846 7.67334 142.723 7.67334L140.007 8.16443C139.822 8.22582 139.636 8.34859 139.636 8.59413C139.636 8.59413 139.389 11.909 139.328 12.5228C138.834 12.5842 137.538 12.8298 137.538 12.8298C137.352 12.8912 137.167 13.0753 137.167 13.2595L137.105 15.408C137.105 15.6535 137.291 15.8991 137.538 15.8991C137.538 15.8991 138.278 15.9605 138.772 15.9605C138.71 16.8199 138.463 24.1248 138.463 24.1248C138.402 26.1506 138.71 27.7466 139.513 28.8516C140.315 30.0179 141.426 30.6318 142.846 30.6931C143.463 30.6931 144.081 30.6931 144.698 30.6318C145.624 30.509 146.303 30.3862 146.673 30.2021C146.735 30.0793 146.859 29.8951 146.859 29.711Z" fill="black"></path><path id="Vector_8" d="M55.192 14.7942C56.797 15.1625 58.5254 16.5744 58.5871 16.6358C58.7723 16.7586 59.0192 16.7586 59.2044 16.5744L61.1797 14.4873C61.3031 14.3031 61.3649 14.0576 61.2414 13.8734C61.1797 13.7507 59.2661 10.9883 54.9451 10.9883C51.797 10.9883 49.3896 13.5665 49.3896 17.0655C49.3896 20.6873 52.0439 22.1606 53.9575 23.2041C55.1303 23.8794 56.118 24.4318 56.118 25.1685C56.118 25.5982 55.9328 25.8437 55.5007 25.8437C54.6365 25.9051 52.7846 25.0457 50.8093 23.1427C50.6859 23.02 50.5007 22.9586 50.3772 23.02C50.192 23.0814 50.1303 23.2041 50.0686 23.3883L48.9575 28.6061C48.8957 28.7903 49.0192 29.0358 49.2044 29.0972C50.9945 30.2021 53.2785 30.5705 54.8217 30.5705C57.6612 30.5705 60.7476 28.115 60.7476 24.1249C60.7476 20.8714 58.4019 19.214 56.5501 17.9249C55.3772 17.1269 54.3896 16.4516 54.3278 15.5922C54.2661 15.3467 54.3896 15.1012 54.5747 14.9784C54.5747 14.7942 54.8834 14.7328 55.192 14.7942Z" fill="black"></path><path id="Vector_9" d="M25.6241 1.35048C24.5747 0.736618 22.5377 -0.184174 20.0686 -1.57151e-05C15.8093 0.306915 13.4636 3.25345 13.4636 8.40988C13.4636 8.7782 13.4636 9.08513 13.5254 9.51484C13.5254 9.51484 13.5254 10.1287 13.5871 10.5584C12.9698 10.5584 11.6118 10.6198 11.6118 10.6198C11.4883 10.6198 11.3649 10.6812 11.3031 10.8039C11.2414 10.8653 11.1797 10.9881 11.1797 11.1109V11.1723L11.5501 14.1188C11.5501 14.2416 11.6118 14.3643 11.7352 14.4257C11.8587 14.4871 11.9822 14.5485 12.1056 14.4871C12.1056 14.4871 13.5254 14.1802 14.1427 13.996C14.3278 14.8554 18.2785 30.5703 18.2785 30.5703C18.3402 30.6931 18.4019 30.8158 18.5254 30.8772C18.6488 30.9386 18.7723 30.9386 18.8957 30.9386L21.4266 30.0792C21.6118 30.0178 21.7352 29.8336 21.7352 29.6495C21.7352 29.6495 21.7352 29.6495 21.7352 29.5881C21.7352 29.5881 20.3772 13.5049 20.3155 12.7683C20.871 12.5841 23.155 11.9703 23.155 11.9703C23.3402 11.9089 23.5254 11.7247 23.5254 11.4792V11.4178L23.2785 9.39206C23.2785 9.26929 23.2167 9.14652 23.0933 9.08513C22.9698 9.02375 22.8464 8.96236 22.7229 9.02375C22.7229 9.02375 20.8093 9.45345 20.0686 9.57622C20.0686 9.39206 20.0686 9.14652 20.0686 9.14652C20.0686 6.26137 21.2414 4.29701 23.0315 4.23563C23.3402 4.23563 23.9575 4.60394 24.3278 4.84949L24.8217 5.15642C24.9451 5.21781 25.1303 5.21781 25.2538 5.15642C25.3772 5.09503 25.5007 4.97226 25.5007 4.7881L25.871 1.84157C25.9328 1.65741 25.8093 1.47325 25.6241 1.35048Z" fill="black"></path><path id="Vector_10" d="M33.3405 11.5405C33.3405 11.295 33.1553 11.1108 32.9084 11.1108C30.7479 10.9881 29.2664 12.3385 28.4022 13.5049C28.3405 12.6455 28.3405 11.7247 28.3405 11.7247C28.3405 11.6019 28.2787 11.4178 28.1553 11.3564C28.0318 11.295 27.9084 11.2336 27.7849 11.295L22.9084 12.7069C22.6614 12.7683 22.538 13.0138 22.5997 13.2593L25.1923 30.2019C25.254 30.4475 25.4392 30.6316 25.6861 30.5702L28.0935 30.2633C28.2787 30.2019 28.4639 30.0178 28.4639 29.8336L28.896 23.3267C29.0812 19.6435 30.7479 17.9861 32.2911 18.0475H32.3528C32.4763 18.0475 32.9701 18.0475 33.0935 18.0475C33.217 18.1088 33.4022 18.0475 33.5256 17.9247C33.6491 17.8019 33.7108 17.6791 33.7108 17.5564" fill="black"></path><path id="Vector_11" d="M48.2169 22.1605L48.3403 20.8714C48.4021 19.8893 48.5255 18.9071 48.5255 18.416C48.4638 16.2675 47.723 14.3031 46.4268 13.014C45.3156 11.9704 43.8959 11.418 42.3527 11.418C39.9453 11.4794 37.8465 12.4001 36.365 14.0576C34.6366 15.9605 33.7107 18.6615 33.7724 21.6695C33.8959 27.5011 38.5872 30.6318 42.9082 30.5704C46.4267 30.5091 48.1551 28.913 48.2169 28.8516C48.3403 28.7289 48.4021 28.5447 48.3403 28.3605L47.6613 26.0893C47.5996 25.9051 47.4761 25.7823 47.2909 25.7823C47.1058 25.7209 46.9823 25.7823 46.8588 25.9051C46.8588 25.9051 45.6243 27.2556 44.2045 27.1942C41.3033 27.1328 40.0687 25.5982 39.8218 22.0992C40.7477 22.1605 47.7848 22.6516 47.7848 22.6516C47.97 22.5902 48.2169 22.4061 48.2169 22.1605ZM39.8835 19.1526C39.8835 17.4952 40.2539 16.2061 40.8712 15.5308C41.2416 15.1625 41.6119 14.9784 42.1058 14.9784C42.4761 14.9784 42.7848 15.0398 43.0317 15.2853C43.649 15.8992 43.7724 17.3724 43.8342 18.8457C43.2169 18.9071 40.6243 19.0912 39.8835 19.1526Z" fill="black"></path><path id="Vector_12" d="M74.5736 13.3821C73.5859 12.2771 72.2279 11.6633 70.9933 11.6633C69.5118 11.6633 68.2773 12.2158 67.3513 13.2593C67.4131 11.295 67.7834 4.60388 67.7834 4.60388C67.7834 4.48111 67.7217 4.35834 67.5983 4.23557C67.4748 4.11279 67.3513 4.11279 67.2279 4.11279L61.6106 5.34052C61.3637 5.4019 61.2402 5.58606 61.2402 5.8316L62.9686 30.0177C62.9686 30.2633 63.2155 30.4474 63.4625 30.4474L66.6723 30.3861C66.9192 30.3861 67.1044 30.2019 67.1044 29.9564L67.5983 18.5999C67.66 16.7583 68.7711 14.794 70.3143 14.794C70.8081 14.794 71.1785 14.9168 71.4254 15.2237C72.1662 16.0217 71.981 17.8633 71.9192 18.9069L71.1168 30.0177C71.1168 30.1405 71.1785 30.3247 71.2402 30.3861C71.3637 30.5088 71.4871 30.5088 71.6106 30.5088L75.4378 29.7722C75.623 29.7108 75.8081 29.5267 75.8081 29.3425L76.302 18.4158C76.4254 16.5128 75.8081 14.6712 74.5736 13.3821Z" fill="black"></path><path id="Vector_13" d="M93.4013 11.4794C93.4013 11.4794 92.2284 9.08531 95.5618 8.10313C98.8951 7.12095 99.5741 6.69125 99.6976 6.07739C99.821 5.52492 101.179 13.6279 93.4013 11.4794Z" fill="black"></path><path id="Vector_14" d="M15.1914 26.0889C15.1914 26.0889 17.4754 20.6869 10.068 18.9681C2.66057 17.1879 1.05563 16.3899 0.746992 15.1008C0.43835 13.7503 -1.59869 31.7978 15.1914 26.0889Z" fill="black"></path><path id="Vector_15" d="M136.857 29.5881L136.24 27.1941C136.178 27.0713 136.117 26.8871 135.993 26.8257C135.87 26.7644 135.685 26.7644 135.561 26.8871L135.129 27.1941C134.759 27.5624 134.265 27.9921 133.401 27.9921C130.623 27.9921 129.635 24.8 129.574 22.099C129.512 18.9069 130.746 15.6535 133.215 15.5921C133.956 15.5921 134.327 16.0218 134.635 16.3901L134.944 16.7584C135.067 16.8812 135.191 16.8812 135.376 16.8812C135.499 16.8198 135.623 16.697 135.685 16.5743L136.611 14.1188C136.672 13.9346 136.611 13.6277 136.425 13.5049L136.178 13.3822C135.623 13.0139 134.697 12.5228 133.277 12.4614C130.499 12.4 128.092 13.3208 126.425 14.9782C124.759 16.697 123.894 19.2139 123.956 22.4059C124.018 27.8079 126.919 30.7544 132.29 30.8772C133.586 30.9386 135.87 30.5703 136.611 30.0792C136.857 30.0178 136.919 29.8337 136.857 29.5881Z" fill="black"></path><path id="Vector_16" d="M108.586 11.5405C108.586 11.295 108.401 11.1108 108.154 11.1108C105.993 10.9881 104.512 12.3385 103.648 13.5049C103.586 12.6455 103.586 11.7247 103.586 11.7247C103.586 11.6019 103.524 11.4178 103.401 11.3564C103.277 11.295 103.154 11.2336 103.03 11.295L98.092 12.7069C97.845 12.7683 97.7216 13.0138 97.7833 13.2593L100.376 30.2633C100.438 30.5088 100.623 30.693 100.87 30.6316L103.277 30.3247C103.462 30.2633 103.648 30.0791 103.648 29.895L104.018 23.3881C104.203 19.7049 105.87 18.0475 107.413 18.1088C107.413 18.1088 107.475 18.1088 107.536 18.1088C107.66 18.1088 108.154 18.1088 108.277 18.1088C108.401 18.1702 108.586 18.1088 108.709 17.9861C108.833 17.8633 108.894 17.7405 108.894 17.6178" fill="black"></path><path id="Vector_17" d="M123.462 22.1605L123.586 20.8714C123.647 19.8893 123.771 18.9071 123.771 18.416C123.709 16.2675 122.968 14.3031 121.672 13.014C120.561 11.9704 119.141 11.418 117.598 11.418C115.191 11.4794 113.092 12.4001 111.549 14.0576C109.82 15.9605 108.894 18.6615 108.956 21.6695C109.079 27.5011 113.771 30.6318 118.092 30.5704C121.61 30.5091 123.339 28.913 123.4 28.8516C123.524 28.7289 123.586 28.5447 123.524 28.3605L122.845 26.0893C122.783 25.9051 122.66 25.7823 122.475 25.7823C122.289 25.7209 122.166 25.7823 122.042 25.9051C122.042 25.9051 120.87 27.2556 119.388 27.1942C116.487 27.1328 115.252 25.5982 115.005 22.0992C115.931 22.1605 122.968 22.6516 122.968 22.6516C123.215 22.5902 123.462 22.4061 123.462 22.1605ZM115.191 19.1526C115.191 17.4952 115.561 16.2061 116.178 15.5308C116.549 15.1625 116.919 14.9784 117.475 14.9784C117.845 14.9784 118.154 15.0398 118.4 15.2853C119.018 15.8992 119.141 17.3724 119.203 18.8457C118.462 18.9071 115.87 19.0912 115.191 19.1526Z" fill="black"></path><path id="Vector_18" d="M91.3651 4.97241L86.7355 3.99023C86.612 3.99023 86.4886 3.99023 86.3651 4.11301C86.2417 4.17439 86.18 4.35855 86.18 4.48132C86.18 4.48132 86.18 11.418 86.18 13.0754C85.8713 12.8912 85.6244 12.7685 85.254 12.6457C84.6367 12.4615 84.0812 12.4001 83.5256 12.4001C81.3651 12.4001 79.6985 13.1982 78.5874 14.7328C77.4762 16.2675 76.9824 18.3546 76.9824 20.9942V22.7744C76.9824 25.7209 77.4762 27.7467 78.5256 28.9744C79.575 30.2021 80.8713 30.816 82.4762 30.816C83.5256 30.816 84.3898 30.5704 85.0688 30.1407C85.5009 29.8952 85.8713 29.5269 86.2417 29.0358C86.2417 29.5269 86.3034 30.0793 86.3034 30.0793C86.3034 30.3249 86.4886 30.509 86.7355 30.509H90.6244C90.8713 30.509 91.0565 30.3249 91.1182 30.018L91.7355 5.40212C91.7355 5.21796 91.5503 5.0338 91.3651 4.97241ZM82.0442 21.1784C82.0442 19.5823 82.2293 18.3546 82.7232 17.4952C83.0935 16.7586 83.5874 16.0219 84.3898 15.8991C84.6985 15.8378 85.1306 15.8991 85.5009 16.1447L85.6244 16.2061C85.8096 16.3288 86.0565 16.4516 86.18 17.0041C86.3651 17.8635 86.4886 19.3982 86.4886 20.8714C86.4886 22.3447 86.3651 23.818 86.18 24.616C86.0565 25.1071 85.6244 26.0279 85.3158 26.2734C84.8837 26.5803 84.5133 26.7031 84.0195 26.7031C83.3404 26.7031 82.9083 26.4576 82.5997 25.8437C82.2293 25.2298 82.1059 24.0635 82.1059 22.4061V21.1784H82.0442Z" fill="black"></path><path id="Vector_19" d="M97.0426 13.0752C97.0426 12.8297 96.8574 12.6455 96.6105 12.6455H93.1537C92.9068 12.6455 92.7216 12.8297 92.7216 13.0752L92.166 30.0792C92.166 30.2019 92.2277 30.3247 92.2895 30.4475C92.3512 30.5089 92.4747 30.5703 92.5981 30.5703H97.166C97.2895 30.5703 97.4129 30.5089 97.4747 30.4475C97.5364 30.3861 97.5981 30.2019 97.5981 30.0792" fill="black"></path><path id="Vector_20" d="M146.859 29.711L146.426 26.0892C146.426 25.9664 146.365 25.8436 146.241 25.7823C146.118 25.7209 145.994 25.6595 145.871 25.7209C145.747 25.7209 145.315 25.7209 145.007 25.7209H144.698H144.636C144.081 25.7209 143.71 25.5981 143.587 25.4753C143.402 25.2912 143.402 25.0456 143.463 24.1248C143.463 24.1248 143.463 24.1248 143.463 24.0634C143.463 24.0634 143.525 17.1268 143.525 16.206C144.204 16.206 146.18 16.3288 146.18 16.3288C146.303 16.3288 146.426 16.2674 146.55 16.206C146.612 16.1446 146.673 16.0219 146.673 15.8991V15.8377L146.488 13.0139C146.488 12.7684 146.303 12.5842 146.056 12.5842C146.056 12.5842 144.019 12.5842 143.34 12.5842C143.34 11.8476 143.278 8.16443 143.278 8.16443C143.278 8.04166 143.217 7.91888 143.093 7.79611C142.97 7.73473 142.846 7.67334 142.723 7.67334L140.007 8.16443C139.822 8.22582 139.636 8.34859 139.636 8.59413C139.636 8.59413 139.389 11.909 139.328 12.5228C138.834 12.5842 137.538 12.8298 137.538 12.8298C137.352 12.8912 137.167 13.0753 137.167 13.2595L137.105 15.408C137.105 15.6535 137.291 15.8991 137.538 15.8991C137.538 15.8991 138.278 15.9605 138.772 15.9605C138.71 16.8199 138.463 24.1248 138.463 24.1248C138.402 26.1506 138.71 27.7466 139.513 28.8516C140.315 30.0179 141.426 30.6318 142.846 30.6931C143.463 30.6931 144.081 30.6931 144.698 30.6318C145.624 30.509 146.303 30.3862 146.673 30.2021C146.735 30.0793 146.859 29.8951 146.859 29.711Z" fill="black"></path><path id="Vector_21" d="M55.192 14.7942C56.797 15.1625 58.5254 16.5744 58.5871 16.6358C58.7723 16.7586 59.0192 16.7586 59.2044 16.5744L61.1797 14.4873C61.3031 14.3031 61.3649 14.0576 61.2414 13.8734C61.1797 13.7507 59.2661 10.9883 54.9451 10.9883C51.797 10.9883 49.3896 13.5665 49.3896 17.0655C49.3896 20.6873 52.0439 22.1606 53.9575 23.2041C55.1303 23.8794 56.118 24.4318 56.118 25.1685C56.118 25.5982 55.9328 25.8437 55.5007 25.8437C54.6365 25.9051 52.7846 25.0457 50.8093 23.1427C50.6859 23.02 50.5007 22.9586 50.3772 23.02C50.192 23.0814 50.1303 23.2041 50.0686 23.3883L48.9575 28.6061C48.8957 28.7903 49.0192 29.0358 49.2044 29.0972C50.9945 30.2021 53.2785 30.5705 54.8217 30.5705C57.6612 30.5705 60.7476 28.115 60.7476 24.1249C60.7476 20.8714 58.4019 19.214 56.5501 17.9249C55.3772 17.1269 54.3896 16.4516 54.3278 15.5922C54.2661 15.3467 54.3896 15.1012 54.5747 14.9784C54.5747 14.7942 54.8834 14.7328 55.192 14.7942Z" fill="black"></path><path id="Vector_22" d="M25.6241 1.35048C24.5747 0.736618 22.5377 -0.184174 20.0686 -1.57151e-05C15.8093 0.306915 13.4636 3.25345 13.4636 8.40988C13.4636 8.7782 13.4636 9.08513 13.5254 9.51484C13.5254 9.51484 13.5254 10.1287 13.5871 10.5584C12.9698 10.5584 11.6118 10.6198 11.6118 10.6198C11.4883 10.6198 11.3649 10.6812 11.3031 10.8039C11.2414 10.8653 11.1797 10.9881 11.1797 11.1109V11.1723L11.5501 14.1188C11.5501 14.2416 11.6118 14.3643 11.7352 14.4257C11.8587 14.4871 11.9822 14.5485 12.1056 14.4871C12.1056 14.4871 13.5254 14.1802 14.1427 13.996C14.3278 14.8554 18.2785 30.5703 18.2785 30.5703C18.3402 30.6931 18.4019 30.8158 18.5254 30.8772C18.6488 30.9386 18.7723 30.9386 18.8957 30.9386L21.4266 30.0792C21.6118 30.0178 21.7352 29.8336 21.7352 29.6495C21.7352 29.6495 21.7352 29.6495 21.7352 29.5881C21.7352 29.5881 20.3772 13.5049 20.3155 12.7683C20.871 12.5841 23.155 11.9703 23.155 11.9703C23.3402 11.9089 23.5254 11.7247 23.5254 11.4792V11.4178L23.2785 9.39206C23.2785 9.26929 23.2167 9.14652 23.0933 9.08513C22.9698 9.02375 22.8464 8.96236 22.7229 9.02375C22.7229 9.02375 20.8093 9.45345 20.0686 9.57622C20.0686 9.39206 20.0686 9.14652 20.0686 9.14652C20.0686 6.26137 21.2414 4.29701 23.0315 4.23563C23.3402 4.23563 23.9575 4.60394 24.3278 4.84949L24.8217 5.15642C24.9451 5.21781 25.1303 5.21781 25.2538 5.15642C25.3772 5.09503 25.5007 4.97226 25.5007 4.7881L25.871 1.84157C25.9328 1.65741 25.8093 1.47325 25.6241 1.35048Z" fill="black"></path><path id="Vector_23" d="M33.3405 11.5405C33.3405 11.295 33.1553 11.1108 32.9084 11.1108C30.7479 10.9881 29.2664 12.3385 28.4022 13.5049C28.3405 12.6455 28.3405 11.7247 28.3405 11.7247C28.3405 11.6019 28.2787 11.4178 28.1553 11.3564C28.0318 11.295 27.9084 11.2336 27.7849 11.295L22.9084 12.7069C22.6614 12.7683 22.538 13.0138 22.5997 13.2593L25.1923 30.2019C25.254 30.4475 25.4392 30.6316 25.6861 30.5702L28.0935 30.2633C28.2787 30.2019 28.4639 30.0178 28.4639 29.8336L28.896 23.3267C29.0812 19.6435 30.7479 17.9861 32.2911 18.0475H32.3528C32.4763 18.0475 32.9701 18.0475 33.0935 18.0475C33.217 18.1088 33.4022 18.0475 33.5256 17.9247C33.6491 17.8019 33.7108 17.6791 33.7108 17.5564" fill="black"></path><path id="Vector_24" d="M48.2169 22.1605L48.3403 20.8714C48.4021 19.8893 48.5255 18.9071 48.5255 18.416C48.4638 16.2675 47.723 14.3031 46.4268 13.014C45.3156 11.9704 43.8959 11.418 42.3527 11.418C39.9453 11.4794 37.8465 12.4001 36.365 14.0576C34.6366 15.9605 33.7107 18.6615 33.7724 21.6695C33.8959 27.5011 38.5872 30.6318 42.9082 30.5704C46.4267 30.5091 48.1551 28.913 48.2169 28.8516C48.3403 28.7289 48.4021 28.5447 48.3403 28.3605L47.6613 26.0893C47.5996 25.9051 47.4761 25.7823 47.2909 25.7823C47.1058 25.7209 46.9823 25.7823 46.8588 25.9051C46.8588 25.9051 45.6243 27.2556 44.2045 27.1942C41.3033 27.1328 40.0687 25.5982 39.8218 22.0992C40.7477 22.1605 47.7848 22.6516 47.7848 22.6516C47.97 22.5902 48.2169 22.4061 48.2169 22.1605ZM39.8835 19.1526C39.8835 17.4952 40.2539 16.2061 40.8712 15.5308C41.2416 15.1625 41.6119 14.9784 42.1058 14.9784C42.4761 14.9784 42.7848 15.0398 43.0317 15.2853C43.649 15.8992 43.7724 17.3724 43.8342 18.8457C43.2169 18.9071 40.6243 19.0912 39.8835 19.1526Z" fill="black"></path><path id="Vector_25" d="M74.5736 13.3821C73.5859 12.2771 72.2279 11.6633 70.9933 11.6633C69.5118 11.6633 68.2773 12.2158 67.3513 13.2593C67.4131 11.295 67.7834 4.60388 67.7834 4.60388C67.7834 4.48111 67.7217 4.35834 67.5983 4.23557C67.4748 4.11279 67.3513 4.11279 67.2279 4.11279L61.6106 5.34052C61.3637 5.4019 61.2402 5.58606 61.2402 5.8316L62.9686 30.0177C62.9686 30.2633 63.2155 30.4474 63.4625 30.4474L66.6723 30.3861C66.9192 30.3861 67.1044 30.2019 67.1044 29.9564L67.5983 18.5999C67.66 16.7583 68.7711 14.794 70.3143 14.794C70.8081 14.794 71.1785 14.9168 71.4254 15.2237C72.1662 16.0217 71.981 17.8633 71.9192 18.9069L71.1168 30.0177C71.1168 30.1405 71.1785 30.3247 71.2402 30.3861C71.3637 30.5088 71.4871 30.5088 71.6106 30.5088L75.4378 29.7722C75.623 29.7108 75.8081 29.5267 75.8081 29.3425L76.302 18.4158C76.4254 16.5128 75.8081 14.6712 74.5736 13.3821Z" fill="black"></path><path id="Vector_26" d="M93.4013 11.4794C93.4013 11.4794 92.2284 9.08531 95.5618 8.10313C98.8951 7.12095 99.5741 6.69125 99.6976 6.07739C99.821 5.52492 101.179 13.6279 93.4013 11.4794Z" fill="black"></path><path id="Vector_27" d="M15.1914 26.0889C15.1914 26.0889 17.4754 20.6869 10.068 18.9681C2.66057 17.1879 1.05563 16.3899 0.746992 15.1008C0.43835 13.7503 -1.59869 31.7978 15.1914 26.0889Z" fill="black"></path></g></g><defs><clipPath id="clip0_946_30076"><rect width="150" height="31" fill="white" transform="translate(0.5)"></rect></clipPath></defs></svg> 