<?xml version="1.0" encoding="UTF-8"?> <svg xmlns="http://www.w3.org/2000/svg" width="141" height="202" viewBox="0 0 141 202" fill="none"><g id="Group 1000004326"><g id="Clip path group"><mask id="mask0_82_1668" style="mask-type:luminance" maskUnits="userSpaceOnUse" x="0" y="0" width="141" height="135"><g id="clip0"><path id="Vector" d="M140.828 0.162842H0.371033V134.116H140.828V0.162842Z" fill="white"></path></g></mask><g mask="url(#mask0_82_1668)"><g id="Group"><path id="Vector_2" d="M0.371033 67.1396C0.371033 30.1494 31.8136 0.162842 70.5997 0.162842C109.386 0.162842 140.828 30.1494 140.828 67.1396C140.828 104.13 110.832 134.116 73.842 134.116C72.7119 134.116 71.6289 134.116 70.5997 134.116C31.8136 134.116 0.371033 104.13 0.371033 67.1396Z" fill="#AAF8DF"></path></g></g></g><path id="Vector_3" d="M70.5997 201.093C109.386 201.093 140.828 171.106 140.828 134.116L0.371033 134.116C0.371036 171.106 31.8136 201.093 70.5997 201.093Z" fill="#CCFBEC"></path></g></svg> 