<?xml version="1.0" encoding="UTF-8"?> <svg xmlns="http://www.w3.org/2000/svg" width="194" height="29" viewBox="0 0 194 29" fill="none"><g clip-path="url(#clip0_1552_3279)"><path d="M83.6593 13.8696H71.2366V18.3988H75.8587C74.5889 20.3156 72.3972 21.5853 69.9264 21.5853C65.9917 21.5853 62.8011 18.3988 62.8011 14.4601C62.8011 10.5213 65.9877 7.33478 69.9264 7.33478C72.2556 7.33478 74.3342 8.45492 75.6363 10.2019L80.7316 5.95582C78.2082 2.76926 74.314 0.710938 69.9345 0.710938C64.6289 0.710938 60.0149 3.72766 57.7261 8.13546V1.40648H50.9769L41.8458 12.3451L32.7108 1.40648H25.9616V8.02628L25.1932 6.87782C22.6416 3.01998 18.3632 0.719025 13.741 0.719025C6.16688 0.719025 0 6.88591 0 14.4641C0 22.0423 6.16688 28.2051 13.741 28.2051C18.3632 28.2051 22.6416 25.9042 25.1932 22.0504L25.9616 20.9019V27.5217H32.7027V11.8113L41.8337 22.75L50.9647 11.8113V27.5217H57.7139V20.8008C60.0028 25.2086 64.6168 28.2253 69.9223 28.2253C77.5207 28.2253 83.6755 22.0706 83.6755 14.4722C83.6755 14.27 83.6755 14.0678 83.6634 13.8777L83.6512 13.8696H83.6593ZM13.7329 21.5975C9.79827 21.5975 6.59957 18.3988 6.59957 14.4722C6.59957 10.5456 9.79827 7.33882 13.7329 7.33882C17.6676 7.33882 20.8582 10.5375 20.8582 14.4722C20.8582 18.4069 17.6595 21.5975 13.7329 21.5975ZM97.465 23.7084L93.219 18.4311H92.1352V27.5136H93.4818V21.2376L97.4691 26.1266L101.444 21.2214L101.452 27.5136H102.799V18.4311H101.715L97.465 23.7084ZM106.891 23.5506H111.327V22.2647H106.891V19.7292H111.857V18.4311H105.533V27.5136H112.035V26.2155H106.891V23.5506ZM120.608 19.0094C119.884 18.6293 119.047 18.4352 118.129 18.4352H114.457V27.5177H118.129C119.051 27.5177 119.888 27.3236 120.608 26.9394C121.336 26.5512 121.91 26.0053 122.323 25.3178C122.727 24.6304 122.933 23.8458 122.933 22.9764C122.933 22.107 122.727 21.3265 122.323 20.635C121.918 19.9476 121.34 19.4016 120.608 19.0094ZM121.146 24.6667C120.867 25.148 120.462 25.5321 119.945 25.799C119.415 26.074 118.788 26.2155 118.081 26.2155H115.816V19.7332H118.081C118.784 19.7332 119.415 19.8748 119.945 20.1498C120.466 20.4207 120.867 20.8008 121.15 21.282C121.433 21.7713 121.575 22.3375 121.575 22.9724C121.575 23.6073 121.433 24.1774 121.146 24.6667ZM125.234 18.4311H126.597V27.5136H125.234V18.4311ZM132.505 18.4311L128.324 27.5136H129.808L130.867 25.1722H135.214L136.286 27.5136H137.766L133.589 18.4311H132.505ZM131.442 23.9065L133.039 20.3803L134.644 23.9065H131.442ZM162.624 23.5304C163.008 23.0128 163.202 22.3779 163.202 21.646C163.202 20.6552 162.854 19.8626 162.171 19.2925C161.508 18.7425 160.598 18.4635 159.465 18.4635H156.101V27.546H157.46V24.8245H159.465C159.66 24.8245 159.87 24.8123 160.1 24.7881L162.07 27.546H163.683L161.463 24.4403C161.936 24.226 162.329 23.9227 162.62 23.5345L162.624 23.5304ZM159.474 23.5304H157.468V19.7575H159.474C160.266 19.7575 160.873 19.9273 161.269 20.2589C161.645 20.5744 161.835 21.0394 161.835 21.6419C161.835 22.2445 161.645 22.7095 161.269 23.0249C160.873 23.3606 160.266 23.5304 159.474 23.5304ZM183.102 23.6073C183.102 24.5333 182.9 25.2208 182.499 25.6534C182.111 26.0781 181.521 26.2924 180.752 26.2924C179.984 26.2924 179.386 26.0781 178.993 25.6534C178.593 25.2208 178.391 24.5333 178.391 23.6073V18.4594H177.032V23.6315C177.032 24.8972 177.36 25.888 178.011 26.5674C178.666 27.2548 179.584 27.6026 180.74 27.6026C181.897 27.6026 182.819 27.2548 183.474 26.5674C184.129 25.888 184.461 24.9013 184.461 23.6275V18.4554H183.102V23.6032V23.6073ZM192.973 19.2925C192.31 18.7385 191.4 18.4594 190.268 18.4594H186.903V27.5419H188.266V24.8204H190.268C191.4 24.8204 192.31 24.5414 192.973 23.9874C193.656 23.4172 194.004 22.6327 194.004 21.646C194.004 20.6593 193.656 19.8626 192.973 19.2925ZM192.067 23.0209C191.671 23.3484 191.064 23.5142 190.272 23.5142H188.27V19.7535H190.272C191.064 19.7535 191.671 19.9233 192.067 20.2549C192.443 20.5703 192.633 21.0354 192.633 21.6379C192.633 22.2404 192.447 22.7014 192.067 23.0169V23.0209ZM170.113 18.3988C167.573 18.3988 165.511 20.4611 165.511 23.0007C165.511 25.5402 167.573 27.6026 170.113 27.6026C172.652 27.6026 174.715 25.5402 174.715 23.0007C174.715 20.4611 172.652 18.3988 170.113 18.3988ZM170.113 26.2883C168.301 26.2883 166.825 24.8123 166.825 23.0007C166.825 21.189 168.301 19.709 170.113 19.709C171.925 19.709 173.401 21.185 173.401 23.0007C173.401 24.8164 171.925 26.2883 170.113 26.2883ZM97.4691 1.24473C93.773 1.24473 90.7684 4.25336 90.7684 7.9454C90.7684 11.6374 93.777 14.6461 97.4691 14.6461C101.161 14.6461 104.17 11.6374 104.17 7.9454C104.17 4.25336 101.161 1.24473 97.4691 1.24473ZM97.4691 11.7183C95.3905 11.7183 93.6921 10.0239 93.6921 7.94135C93.6921 5.85877 95.3865 4.16844 97.4691 4.16844C99.5517 4.16844 101.242 5.86281 101.242 7.94135C101.242 10.0199 99.5476 11.7183 97.4691 11.7183ZM168.799 1.24473C165.103 1.24473 162.094 4.25336 162.094 7.9454C162.094 11.6374 165.103 14.6461 168.799 14.6461C172.495 14.6461 175.499 11.6374 175.499 7.9454C175.499 4.25336 172.491 1.24473 168.799 1.24473ZM168.799 11.7183C166.72 11.7183 165.022 10.0239 165.022 7.94135C165.022 5.85877 166.716 4.16844 168.799 4.16844C170.881 4.16844 172.572 5.86281 172.572 7.94135C172.572 10.0199 170.877 11.7183 168.799 11.7183ZM135.874 10.1736L128.995 1.42266H126.067V14.4681H128.995V5.72532L135.874 14.4803H138.801V1.41861H135.874V10.1736ZM142.202 1.42266H145.134V14.4681H142.202V1.42266ZM159.87 12.2319L157.621 10.3555C156.898 11.225 155.854 11.7183 154.726 11.7183C152.648 11.7183 150.949 10.0239 150.949 7.94135C150.949 5.85877 152.643 4.16844 154.726 4.16844C155.858 4.16844 156.902 4.66179 157.621 5.53122L159.87 3.65487C159.724 3.48502 159.575 3.31518 159.417 3.16151C158.151 1.92005 156.485 1.23664 154.726 1.23664C153.974 1.23664 153.23 1.362 152.518 1.61272C149.829 2.55089 148.021 5.09448 148.021 7.93731C148.021 10.7801 149.829 13.3237 152.518 14.2619C153.23 14.5167 153.974 14.638 154.726 14.638C156.489 14.638 158.155 13.9546 159.417 12.7131C159.575 12.5554 159.724 12.3936 159.87 12.2198V12.2319ZM149.861 22.6246V23.765H152.356C152.34 23.8297 152.324 23.8944 152.304 23.9591V23.9631C152.304 23.9752 152.292 23.9874 152.288 23.9995C151.859 25.3259 150.609 26.2439 149.206 26.2439C147.419 26.2439 145.963 24.7881 145.963 23.0007C145.963 21.2133 147.415 19.7575 149.206 19.7575C150.209 19.7575 151.139 20.2145 151.762 21.0071L151.936 21.2295L152.979 20.36L152.817 20.1538C152.388 19.6081 151.84 19.1672 151.215 18.8646C150.59 18.5619 149.905 18.4054 149.21 18.4069C146.671 18.4069 144.608 20.4692 144.608 23.0088C144.608 25.5483 146.671 27.6107 149.21 27.6107C151.483 27.6107 153.392 25.981 153.747 23.7407C153.788 23.4738 153.808 23.2352 153.808 23.0047L153.796 22.6327H149.861V22.6246ZM109.613 14.4681H109.617V5.73341L114.696 11.9003H114.7L119.775 5.73341V14.4681H122.707V1.42266H119.775L114.696 7.91709L109.617 1.42266H106.689V14.4681H109.613ZM191.076 1.42266L185.993 7.92113L180.914 1.42266H177.982L177.986 14.4681H180.914V5.72532L185.993 11.9003L191.076 5.72532V14.4681H194V1.42266H191.076Z" fill="black"></path></g><defs><clipPath id="clip0_1552_3279"><rect width="194" height="27.5144" fill="white" transform="translate(0 0.710938)"></rect></clipPath></defs></svg> 