<?xml version="1.0" encoding="UTF-8"?> <svg xmlns="http://www.w3.org/2000/svg" width="58" height="26" viewBox="0 0 58 26" fill="none"><g id="P&amp;G_Logo_SVG" clip-path="url(#clip0_82_1182)"><path id="Vector" d="M23.2253 25.4718C21.2752 25.3669 19.82 24.5644 18.9689 23.1246C18.398 22.1581 18.2242 20.887 18.4854 19.5881C18.7749 18.1489 19.7577 16.852 21.266 15.9192C22.1328 15.3828 22.8747 15.0498 24.3853 14.5189C24.7651 14.3854 25.0929 14.2625 25.114 14.2454C25.1443 14.2214 25.1486 14.1362 25.1335 13.8598C25.09 13.0737 25.2212 11.8488 25.4432 10.9649C25.8168 9.47737 26.5355 8.27737 27.4894 7.54948C28.1741 7.0265 29.0718 6.63326 29.9654 6.46465C30.4589 6.37177 31.2854 6.37205 31.7498 6.4655C33.7397 6.86617 34.8565 8.39997 34.4167 10.1281C34.3241 10.4925 34.0315 11.0898 33.7837 11.4201C33.149 12.2666 32.1942 13.0194 30.8459 13.7355C30.6764 13.8258 30.1214 14.0985 29.613 14.342C29.1046 14.5852 28.6728 14.8004 28.6528 14.8204C28.6245 14.8487 28.6317 14.9312 28.6865 15.209C28.9395 16.4933 29.3647 17.5785 30.0909 18.7919C30.3795 19.2749 30.7787 19.8839 30.8242 19.9122C30.8899 19.9527 31.1585 19.5186 31.3337 19.0891C31.5503 18.5575 31.6744 17.8545 31.6132 17.5053C31.5692 17.2552 31.4326 16.9912 31.2583 16.8206C31.1782 16.7417 31.1119 16.6671 31.1117 16.6548C31.1114 16.6428 31.7881 16.6359 32.616 16.6402L34.1212 16.6479L34.1126 16.8389C34.1009 17.0998 34.004 17.6562 33.902 18.0523C33.6142 19.166 33.0718 20.1185 32.1342 21.1587C32.0236 21.2813 31.933 21.4017 31.933 21.4262C31.933 21.4508 32.0884 21.6214 32.2782 21.8055C33.4633 22.9543 35.5627 24.2792 37.2719 24.9568C37.4379 25.0228 37.5734 25.09 37.5728 25.106C37.5723 25.1254 36.5855 25.138 34.689 25.1431L31.8061 25.1506L31.6421 25.0582C31.3071 24.8699 30.5655 24.2706 29.8531 23.6122C29.7022 23.4727 29.5593 23.3587 29.5356 23.3587C29.5119 23.3587 29.3441 23.4562 29.1635 23.5753C28.2379 24.1858 27.1316 24.7342 26.196 25.0462C25.1317 25.4015 24.2533 25.5269 23.2253 25.4718ZM25.6527 22.974C26.0842 22.8972 26.6144 22.7406 27.1019 22.5459C27.592 22.3505 28.1996 22.0515 28.2213 21.9949C28.2299 21.9727 28.1176 21.7849 27.9721 21.5774C27.3014 20.6218 26.5849 19.2777 26.1034 18.0723C25.9259 17.6279 25.5944 16.6437 25.531 16.3739C25.511 16.2879 25.4747 16.2098 25.4504 16.2004C25.3832 16.1747 24.8325 16.4682 24.3567 16.7837C22.6655 17.9048 21.8547 19.2734 22.0348 20.7035C22.1148 21.3391 22.316 21.8023 22.6821 22.1936C23.3588 22.9166 24.4167 23.1947 25.6527 22.974ZM28.5234 13.0299C29.1492 12.6636 30.142 11.7739 30.6973 11.0823C31.408 10.1973 31.7858 9.37134 31.7861 8.70147C31.7861 8.31852 31.7318 8.14705 31.5546 7.96986C31.3783 7.79382 31.1794 7.72095 30.8756 7.72066C29.9743 7.72066 28.9995 8.79063 28.5748 10.2464C28.3605 10.9803 28.3085 11.3753 28.307 12.2718C28.3059 12.9565 28.317 13.1088 28.3685 13.1088C28.3796 13.1088 28.4493 13.0734 28.5234 13.0299ZM43.4304 25.4546C41.9452 25.3052 40.9664 25.0831 39.8622 24.6459C38.3596 24.0503 37.4214 23.3127 36.6289 22.1041C36.3917 21.7423 36.011 20.9827 35.8573 20.5629C35.17 18.6924 35.0191 16.3376 35.4286 13.881C35.8433 11.3947 36.7878 8.9984 38.0909 7.12538C38.9363 5.9108 40.194 4.63164 41.4923 3.66569C43.6362 2.07102 46.1039 1.09079 48.8453 0.746132C49.677 0.641535 50.1428 0.614672 51.125 0.615243C52.6108 0.616101 53.7424 0.729271 55.2368 1.0262C56.1901 1.21596 57.7088 1.62577 57.7379 1.7015C57.7528 1.7398 56.7906 4.82368 56.7508 4.86512C56.7385 4.87798 56.5908 4.77939 56.423 4.64507C55.0716 3.56767 53.671 2.91179 52.2547 2.69374C51.8023 2.62401 50.9521 2.62315 50.5086 2.69203C48.523 2.99953 46.682 4.26812 45.0476 6.45522C44.5167 7.16567 43.9317 8.1179 43.4767 9.01183C42.8603 10.2235 42.4365 11.2947 42.0078 12.727C40.6424 17.2841 40.5732 20.468 41.8021 22.1916C42.3082 22.9017 43.048 23.3541 43.9868 23.527C44.5258 23.6265 45.8341 23.5662 45.9644 23.4361C45.9853 23.4156 46.624 21.4171 47.3836 18.9951C48.6319 15.0167 48.7668 14.568 48.7811 14.3425C48.7999 14.0396 48.7436 13.769 48.6073 13.5083C48.4836 13.2714 48.1566 12.9499 47.8871 12.8005C47.7708 12.7359 47.6754 12.673 47.6751 12.661C47.6748 12.649 49.769 12.639 52.3293 12.639C54.8893 12.639 56.984 12.649 56.9837 12.661C56.9837 12.673 56.8703 12.735 56.7317 12.7982C56.007 13.1297 55.4817 13.6264 55.1693 14.2762C55.1016 14.4168 54.5158 16.2367 53.6359 19.0391L52.2118 23.5745L51.8003 23.7717C50.1242 24.5761 48.0737 25.1554 46.0284 25.4026C45.6526 25.4483 43.7451 25.4864 43.4307 25.4546H43.4304ZM0.583956 25.1231C0.574525 25.1083 0.636539 25.056 0.721415 25.0071C1.22724 24.7159 1.79508 24.1117 2.03571 23.6082C2.10544 23.4624 8.49059 3.12613 8.63147 2.60058C8.65634 2.50855 8.6772 2.31422 8.67749 2.16904C8.67949 1.72551 8.54174 1.40572 8.21738 1.09879C8.12879 1.01505 8.05649 0.934177 8.05649 0.91903C8.05649 0.878735 19.2061 0.882164 19.7174 0.922746C20.8245 1.01048 21.9327 1.30484 22.7804 1.7358C24.2275 2.47169 25.094 3.58853 25.3604 5.06117C25.4347 5.47098 25.449 6.38263 25.3881 6.82388C25.14 8.62259 24.325 10.5305 23.2153 11.9108C21.4178 14.1468 18.478 15.5765 14.87 15.9698C13.7263 16.0944 12.2852 16.1258 11.2646 16.0481C10.9697 16.0255 10.7222 16.0132 10.7148 16.0207C10.6785 16.0572 8.37656 23.4433 8.35027 23.6082C8.26911 24.1166 8.53088 24.6882 8.98213 24.9877C9.07129 25.0468 9.13645 25.1077 9.1273 25.1226C9.10444 25.1594 0.606532 25.1597 0.58367 25.1228L0.583956 25.1231ZM13.2399 14.1528C14.0781 14.0042 14.8177 13.6938 15.5313 13.1917C15.878 12.9479 16.5901 12.2366 16.8839 11.8408C17.6189 10.8511 18.1596 9.68342 18.5957 8.14534C18.8735 7.1651 18.9918 6.41835 18.9915 5.64874C18.9915 5.05545 18.9378 4.70108 18.7886 4.30356C18.5671 3.7137 18.1162 3.24759 17.5432 3.0161C17.0511 2.8172 16.631 2.7649 15.6205 2.77662L14.8586 2.78519L13.0876 8.42426C12.114 11.5259 11.3224 14.0785 11.3289 14.0968C11.3358 14.1151 11.4581 14.1459 11.6004 14.1654C11.7433 14.1848 11.8796 14.2054 11.9039 14.2114C12.0148 14.2385 13.0019 14.1951 13.2399 14.1528Z" fill="white"></path></g><defs><clipPath id="clip0_82_1182"><rect width="57.1557" height="24.8691" fill="white" transform="translate(0.584106 0.615234)"></rect></clipPath></defs></svg> 