<?xml version="1.0" encoding="UTF-8"?> <svg xmlns="http://www.w3.org/2000/svg" width="129" height="34" viewBox="0 0 129 34" fill="none"><g id="raptive_logo.svg" clip-path="url(#clip0_946_45993)"><path id="Vector" d="M12.1115 18.7864C15.1906 19.6851 15.9702 20.7166 15.9702 23.8426V27.5017H21.987V21.8459C21.987 18.8196 20.5358 17.0887 17.3861 16.3912L13.4567 15.4926C19.6875 15.26 22.802 12.9313 22.802 8.50617V8.30689C22.802 3.64931 19.2968 0.589844 12.2882 0.589844H0.5V27.5017H6.51885V17.1571L12.1115 18.7864ZM12.1468 4.71602C15.226 4.71602 16.7125 6.14612 16.7125 8.64097V8.84024C16.7125 11.3351 15.226 12.7652 12.1468 12.7652H6.51885V4.71406H12.1468V4.71602ZM89.9554 3.95018V3.81732C89.9554 2.18796 88.7163 0.923923 86.6996 0.923923C84.683 0.923923 83.4418 2.18796 83.4418 3.81732V3.95018C83.4418 5.57954 84.6808 6.84359 86.6996 6.84359C88.7183 6.84359 89.9554 5.57954 89.9554 3.95018ZM67.406 11.8001H70.3083V21.2149C70.3083 25.8725 71.8302 27.5017 76.928 27.5017H81.7431V23.8426H78.0611C76.504 23.8426 75.9717 23.3444 75.9717 22.0139V11.802H81.5644V8.14278H75.9717V2.15279H70.3083V8.14082H67.406V11.8001ZM23.2635 17.9209C23.2635 23.5104 26.8396 27.7676 31.9727 27.7676C35.1224 27.7676 37.4594 26.2709 38.663 23.7761V27.5017H44.3264V8.14082H38.663V11.8665C37.4594 9.37165 35.1224 7.87513 31.9727 7.87513C26.8396 7.87513 23.2635 12.1322 23.2635 17.7216V17.9209ZM67.9383 17.9209V17.7216C67.9383 12.1341 64.3623 7.87513 59.229 7.87513C56.0793 7.87513 53.7425 9.37165 52.5387 11.8665V8.14082H46.8754V33.822H52.5387V23.7761C53.7425 26.2709 56.0793 27.7676 59.229 27.7676C64.3623 27.7676 67.9383 23.5104 67.9383 17.9209ZM129 21.4142H123.902C123.193 23.0435 121.709 24.0418 120.01 24.0418C117.32 24.0418 115.586 22.346 115.268 18.9193H129V18.1202C129 11.7669 125.179 7.87513 119.195 7.87513C113.567 7.87513 109.496 12.099 109.496 17.7216V17.9209C109.496 23.8094 113.673 27.7676 119.725 27.7676C124.362 27.7676 127.867 25.5051 128.998 21.4142M110.592 8.14082H105.636L101.105 22.1781L96.5751 8.14082H90.523L97.6022 27.5017H103.513L110.592 8.14082ZM89.5292 8.14082H83.8658V27.5017H89.5292V8.14082ZM119.584 11.6008C121.779 11.6008 123.335 13.0641 123.725 15.725H115.515C116.01 12.9977 117.497 11.6008 119.586 11.6008M28.9976 17.9209V17.7216C28.9976 14.1289 30.9809 11.9329 33.9188 11.9329C36.8564 11.9329 38.8399 14.1289 38.8399 17.7216V17.9209C38.8399 21.5138 36.8564 23.7097 33.9188 23.7097C30.9809 23.7097 28.9976 21.5138 28.9976 17.9209ZM62.202 17.9209C62.202 21.5138 60.2188 23.7097 57.2809 23.7097C54.3433 23.7097 52.3598 21.5138 52.3598 17.9209V17.7216C52.3598 14.1289 54.3433 11.9329 57.2809 11.9329C60.2188 11.9329 62.202 14.1289 62.202 17.7216V17.9209Z" fill="black"></path></g><defs><clipPath id="clip0_946_45993"><rect width="128.5" height="33.41" fill="white" transform="translate(0.5 0.589844)"></rect></clipPath></defs></svg> 