<?xml version="1.0" encoding="UTF-8"?> <svg xmlns="http://www.w3.org/2000/svg" width="111" height="33" viewBox="0 0 111 33" fill="none"><g id="shopify-2" clip-path="url(#clip0_82_1200)"><g id="Group"><path id="Vector" d="M9.54578 1.58447C9.76683 1.58447 9.87736 1.695 10.0984 1.80552C8.77208 2.35817 7.44575 3.79505 6.78258 6.88987L4.35098 7.55305C5.12467 5.34246 6.67206 1.58447 9.54578 1.58447ZM10.7616 2.68976C10.9826 3.35294 11.2037 4.12664 11.2037 5.34246C11.2037 5.45299 11.2037 5.45299 11.2037 5.56352L7.99839 6.44776C8.66155 4.12664 9.76683 3.13188 10.7616 2.68976ZM13.6353 4.67929L12.1984 5.1214C12.1984 5.01087 12.1984 4.90035 12.1984 4.78982C12.1984 3.79505 12.0879 3.02135 11.8669 2.35817C12.6405 2.57923 13.3037 3.57399 13.6353 4.67929ZM20.8196 6.44776C20.8196 6.33723 20.7091 6.2267 20.5985 6.2267C20.3775 6.2267 18.0564 6.00564 18.0564 6.00564C18.0564 6.00564 16.3985 4.3477 16.1774 4.23717C15.9564 4.01611 15.6248 4.12664 15.5143 4.12664C15.5143 4.12664 15.1827 4.23717 14.63 4.45823C14.0774 2.91082 13.0827 1.47394 11.4247 1.47394H11.3142C10.8721 0.810761 10.2089 0.589703 9.6563 0.589703C5.67731 0.479173 3.79834 5.45299 3.13517 7.99517C2.25095 8.21622 1.36673 8.54781 0.371981 8.8794C-0.51224 9.10046 -0.51224 9.21099 -0.622767 9.98469C-0.733295 10.5373 -2.94385 28.001 -2.94385 28.001L14.63 31.3168L24.1354 29.2168C24.1354 29.2168 20.8196 6.66881 20.8196 6.44776Z" fill="white"></path><path id="Vector_2" d="M20.509 6.22701C20.3984 6.22701 18.0774 6.00595 18.0774 6.00595C18.0774 6.00595 16.4194 4.34801 16.1984 4.23748C16.0879 4.12695 16.0879 4.12695 15.9773 4.12695L14.651 31.3172L24.1564 29.2171C24.1564 29.2171 20.8405 6.66913 20.8405 6.44807C20.8405 6.33754 20.6195 6.22701 20.509 6.22701Z" fill="white"></path><path id="Vector_3" d="M11.4074 11.5319L10.1916 15.0689C10.1916 15.0689 9.19681 14.5162 7.87048 14.5162C5.99151 14.5162 5.88098 15.6215 5.88098 15.9531C5.88098 17.5005 10.081 18.1637 10.081 21.9217C10.081 24.906 8.20207 26.785 5.65993 26.785C2.67568 26.785 1.1283 24.906 1.1283 24.906L1.90199 22.2533C1.90199 22.2533 3.44938 23.5796 4.77571 23.5796C5.65993 23.5796 5.99151 22.9164 5.99151 22.3638C5.99151 20.2637 2.56516 20.1532 2.56516 16.7268C2.56516 13.853 4.66518 11.0898 8.7547 11.0898C10.6337 10.9793 11.4074 11.5319 11.4074 11.5319Z" fill="white"></path><path id="Vector_4" d="M35.2463 18.0536C34.2516 17.501 33.8095 17.0589 33.8095 16.5062C33.8095 15.7325 34.4726 15.2904 35.5779 15.2904C36.7937 15.2904 37.899 15.8431 37.899 15.8431L38.7832 13.1903C38.7832 13.1903 38.0095 12.5272 35.6884 12.5272C32.3726 12.5272 30.1621 14.4062 30.1621 17.0589C30.1621 18.6063 31.2673 19.7116 32.5937 20.4853C33.6989 21.1485 34.1411 21.5906 34.1411 22.2538C34.1411 22.9169 33.5884 23.5801 32.4831 23.5801C30.9358 23.5801 29.3884 22.8064 29.3884 22.8064L28.5042 25.4591C28.5042 25.4591 29.8305 26.3433 32.1516 26.3433C35.4674 26.3433 37.899 24.6854 37.899 21.7011C37.899 20.0432 36.6832 18.8273 35.2463 18.0536ZM48.6202 12.4166C46.9623 12.4166 45.6359 13.1904 44.6412 14.4062L46.078 6.89018H42.3201L38.6727 26.0117H42.4306L43.6464 19.4905C44.0885 17.0589 45.4149 15.5115 46.6307 15.5115C47.5149 15.5115 47.8465 16.0641 47.8465 16.9483C47.8465 17.501 47.8465 18.0536 47.736 18.6063L46.2991 26.1223H50.057L51.4939 18.3852C51.6044 17.6115 51.7149 16.6168 51.7149 15.9536C51.7149 13.743 50.6097 12.4166 48.6202 12.4166ZM58.2361 23.359C56.9097 23.359 56.4676 22.2537 56.4676 20.9274C56.4676 18.8273 57.5729 15.2904 59.5624 15.2904C60.8887 15.2904 61.3308 16.3957 61.3308 17.501C61.3308 19.9326 60.2256 23.359 58.2361 23.359ZM60.115 12.4166C55.5834 12.4166 52.5992 16.5062 52.5992 21.0379C52.5992 23.9117 54.3676 26.2328 57.794 26.2328C62.2151 26.2328 65.1993 22.2537 65.1993 17.6115C65.1993 14.9588 63.6519 12.4166 60.115 12.4166ZM71.1678 23.4696C70.1731 23.4696 69.6204 22.9169 69.6204 22.9169L70.2836 19.38C70.7257 17.0589 71.9415 15.5115 73.2678 15.5115C74.3731 15.5115 74.8152 16.6168 74.8152 17.6115C74.7047 20.0432 73.2678 23.4696 71.1678 23.4696ZM74.8152 12.4166C72.2731 12.4166 70.8362 14.6272 70.8362 14.6272L71.0573 12.6377H67.7414C67.6309 13.9641 67.2993 16.0641 66.9678 17.6115L64.3151 31.3172H68.073L69.0678 25.7907H69.1783C69.1783 25.7907 69.952 26.2328 71.3889 26.2328C75.81 26.2328 78.6837 21.7011 78.6837 17.1694C78.6837 14.7378 77.5784 12.4166 74.8152 12.4166ZM83.989 7.11124C82.7732 7.11124 81.889 8.106 81.889 9.32183C81.889 10.4271 82.5521 11.2008 83.6574 11.2008C84.8732 11.2008 85.868 10.4271 85.868 8.99024C85.868 7.88494 85.0943 7.11124 83.989 7.11124ZM78.7942 26.0117H82.5521L85.0943 12.7482H81.3363L78.7942 26.0117ZM94.5997 12.7482H91.947L92.0575 12.0851C92.2786 10.7587 93.0523 9.65341 94.2681 9.65341C94.9312 9.65341 95.4839 9.87447 95.4839 9.87447L96.2576 6.89018C96.2576 6.89018 95.5944 6.55859 94.2681 6.55859C92.9417 6.55859 91.6154 6.89018 90.6207 7.77442C89.2943 8.87971 88.7417 10.4271 88.4101 11.9745L88.2996 12.6377H86.5311L85.9785 15.5115H87.7469L85.7575 26.0117H89.5154L91.5049 15.5115H94.047L94.5997 12.7482ZM103.552 12.7482C103.552 12.7482 101.231 18.6063 100.126 21.8116C100.016 20.8169 99.2418 12.7482 99.2418 12.7482H95.2628L97.4734 24.9065C97.4734 25.1275 97.4734 25.3486 97.3628 25.5696C96.9207 26.4539 96.147 27.2276 95.3733 27.7802C94.7102 28.3329 93.826 28.6644 93.2733 28.8855L94.2681 32.0909C95.0418 31.9803 96.5892 31.3171 97.9155 30.1013C99.5734 28.5539 101.231 26.0117 102.779 22.6959L107.31 12.8588L103.552 12.7482Z" fill="white"></path></g></g><defs><clipPath id="clip0_82_1200"><rect width="110.528" height="31.6114" fill="white" transform="translate(0.744263 0.478516)"></rect></clipPath></defs></svg> 