<?xml version="1.0" encoding="UTF-8"?> <svg xmlns="http://www.w3.org/2000/svg" width="230" height="68" viewBox="0 0 230 68" fill="none"><path d="M75.0273 34.5852C75.4806 34.5852 75.8495 34.9542 75.8495 35.407C75.8495 35.8608 75.4806 36.2288 75.0273 36.2288C74.5745 36.2288 74.206 35.8608 74.206 35.407C74.206 34.9542 74.5745 34.5852 75.0273 34.5852ZM75.0273 29.713C74.5745 29.713 74.206 30.0819 74.206 30.5353C74.206 30.9876 74.5745 31.3565 75.0273 31.3565C75.4806 31.3565 75.8495 30.9876 75.8495 30.5353C75.8495 30.0819 75.4806 29.713 75.0273 29.713ZM75.0273 32.1491C74.5745 32.1491 74.206 32.5181 74.206 32.9709C74.206 33.4242 74.5745 33.7927 75.0273 33.7927C75.4806 33.7927 75.8495 33.4242 75.8495 32.9709C75.8495 32.5181 75.4806 32.1491 75.0273 32.1491ZM77.1376 26.0588C76.6843 26.0588 76.3158 26.4273 76.3158 26.8805C76.3158 27.3338 76.6843 27.7023 77.1376 27.7023C77.5909 27.7023 77.9594 27.3338 77.9594 26.8805C77.9594 26.4273 77.5909 26.0588 77.1376 26.0588ZM77.1373 23.9343C76.8564 23.9343 76.6279 24.1632 76.6279 24.4441C76.6279 24.7255 76.8564 24.954 77.1373 24.954C77.4187 24.954 77.6471 24.7255 77.6471 24.4441C77.6471 24.1632 77.4187 23.9343 77.1373 23.9343ZM75.0273 38.6653C75.4806 38.6653 75.8495 38.2968 75.8495 37.844C75.8495 37.3902 75.4806 37.0217 75.0273 37.0217C74.5745 37.0217 74.206 37.3902 74.206 37.844C74.206 38.2968 74.5745 38.6653 75.0273 38.6653ZM75.0273 27.277C74.5745 27.277 74.206 27.6454 74.206 28.0987C74.206 28.552 74.5745 28.9205 75.0273 28.9205C75.4806 28.9205 75.8495 28.552 75.8495 28.0987C75.8495 27.6454 75.4806 27.277 75.0273 27.277ZM72.9176 35.8034C72.4652 35.8034 72.0958 36.1724 72.0958 36.6252C72.0958 37.079 72.4652 37.447 72.9176 37.447C73.3709 37.447 73.7393 37.079 73.7393 36.6252C73.7393 36.1724 73.3709 35.8034 72.9176 35.8034ZM72.9173 34.6989C73.1987 34.6989 73.4276 34.4704 73.4276 34.1891C73.4276 33.9078 73.1987 33.6792 72.9173 33.6792C72.6364 33.6792 72.4079 33.9078 72.4079 34.1891C72.4079 34.4704 72.6364 34.6989 72.9173 34.6989ZM68.6975 34.6989C68.9789 34.6989 69.2074 34.4704 69.2074 34.1891C69.2074 33.9078 68.9789 33.6792 68.6975 33.6792C68.4167 33.6792 68.1881 33.9078 68.1881 34.1891C68.1881 34.4704 68.4167 34.6989 68.6975 34.6989ZM70.8074 40.7896C71.0887 40.7896 71.3177 40.5611 71.3177 40.2798C71.3177 39.9985 71.0887 39.7699 70.8074 39.7699C70.5265 39.7699 70.2976 39.9985 70.2976 40.2798C70.2976 40.5611 70.5265 40.7896 70.8074 40.7896ZM72.9173 28.8069C72.6364 28.8069 72.4079 29.0354 72.4079 29.3167C72.4079 29.5981 72.6364 29.8266 72.9173 29.8266C73.1987 29.8266 73.4276 29.5981 73.4276 29.3167C73.4276 29.0354 73.1987 28.8069 72.9173 28.8069ZM68.6975 28.8069C68.4167 28.8069 68.1881 29.0354 68.1881 29.3167C68.1881 29.5981 68.4167 29.8266 68.6975 29.8266C68.9789 29.8266 69.2074 29.5981 69.2074 29.3167C69.2074 29.0354 68.9789 28.8069 68.6975 28.8069ZM75.0273 24.8405C74.5745 24.8405 74.206 25.209 74.206 25.6618C74.206 26.1156 74.5745 26.4841 75.0273 26.4841C75.4806 26.4841 75.8495 26.1156 75.8495 25.6618C75.8495 25.209 75.4806 24.8405 75.0273 24.8405ZM75.0271 22.7162C74.7462 22.7162 74.5177 22.9452 74.5177 23.2265C74.5177 23.5074 74.7462 23.7359 75.0271 23.7359C75.3084 23.7359 75.5374 23.5074 75.5374 23.2265C75.5374 22.9452 75.3084 22.7162 75.0271 22.7162ZM72.9176 39.8836C73.3709 39.8836 73.7393 39.5147 73.7393 39.0614C73.7393 38.6081 73.3709 38.24 72.9176 38.24C72.4652 38.24 72.0958 38.6081 72.0958 39.0614C72.0958 39.5147 72.4652 39.8836 72.9176 39.8836ZM77.1376 30.9311C76.6843 30.9311 76.3158 31.3001 76.3158 31.7529C76.3158 32.2062 76.6843 32.5747 77.1376 32.5747C77.5909 32.5747 77.9594 32.2062 77.9594 31.7529C77.9594 31.3001 77.5909 30.9311 77.1376 30.9311ZM86.5007 28.495C86.0484 28.495 85.679 28.8639 85.679 29.3167C85.679 29.7701 86.0484 30.1385 86.5007 30.1385C86.954 30.1385 87.3225 29.7701 87.3225 29.3167C87.3225 28.8639 86.954 28.495 86.5007 28.495ZM86.5007 26.0588C86.0484 26.0588 85.679 26.4273 85.679 26.8805C85.679 27.3338 86.0484 27.7023 86.5007 27.7023C86.954 27.7023 87.3225 27.3338 87.3225 26.8805C87.3225 26.4273 86.954 26.0588 86.5007 26.0588ZM79.2477 32.1491C78.7949 32.1491 78.4259 32.5181 78.4259 32.9709C78.4259 33.4242 78.7949 33.7927 79.2477 33.7927C79.7001 33.7927 80.0695 33.4242 80.0695 32.9709C80.0695 32.5181 79.7001 32.1491 79.2477 32.1491ZM86.5007 23.6224C86.0484 23.6224 85.679 23.9913 85.679 24.4441C85.679 24.8979 86.0484 25.266 86.5007 25.266C86.954 25.266 87.3225 24.8979 87.3225 24.4441C87.3225 23.9913 86.954 23.6224 86.5007 23.6224ZM86.5007 35.8034C86.0484 35.8034 85.679 36.1724 85.679 36.6252C85.679 37.079 86.0484 37.447 86.5007 37.447C86.954 37.447 87.3225 37.079 87.3225 36.6252C87.3225 36.1724 86.954 35.8034 86.5007 35.8034ZM86.5007 33.3673C86.0484 33.3673 85.679 33.7363 85.679 34.1891C85.679 34.6424 86.0484 35.0109 86.5007 35.0109C86.954 35.0109 87.3225 34.6424 87.3225 34.1891C87.3225 33.7363 86.954 33.3673 86.5007 33.3673ZM86.5007 30.9311C86.0484 30.9311 85.679 31.3001 85.679 31.7529C85.679 32.2062 86.0484 32.5747 86.5007 32.5747C86.954 32.5747 87.3225 32.2062 87.3225 31.7529C87.3225 31.3001 86.954 30.9311 86.5007 30.9311ZM64.4778 33.3673C64.0245 33.3673 63.656 33.7363 63.656 34.1891C63.656 34.6424 64.0245 35.0109 64.4778 35.0109C64.9306 35.0109 65.2996 34.6424 65.2996 34.1891C65.2996 33.7363 64.9306 33.3673 64.4778 33.3673ZM77.1376 37.4471C77.5909 37.4471 77.9594 37.079 77.9594 36.6258C77.9594 36.1725 77.5909 35.8035 77.1376 35.8035C76.6843 35.8035 76.3158 36.1725 76.3158 36.6258C76.3158 37.079 76.6843 37.4471 77.1376 37.4471ZM79.2477 29.713C78.7949 29.713 78.4259 30.0819 78.4259 30.5353C78.4259 30.9876 78.7949 31.3565 79.2477 31.3565C79.7001 31.3565 80.0695 30.9876 80.0695 30.5353C80.0695 30.0819 79.7001 29.713 79.2477 29.713ZM72.9176 26.0588C72.4652 26.0588 72.0958 26.4273 72.0958 26.8805C72.0958 27.3338 72.4652 27.7023 72.9176 27.7023C73.3709 27.7023 73.7393 27.3338 73.7393 26.8805C73.7393 26.4273 73.3709 26.0588 72.9176 26.0588ZM77.1376 33.3673C76.6843 33.3673 76.3158 33.7363 76.3158 34.1891C76.3158 34.6424 76.6843 35.0109 77.1376 35.0109C77.5909 35.0109 77.9594 34.6424 77.9594 34.1891C77.9594 33.7363 77.5909 33.3673 77.1376 33.3673ZM79.2477 35.9168C79.529 35.9168 79.7575 35.6879 79.7575 35.4075C79.7575 35.1257 79.529 34.8972 79.2477 34.8972C78.9663 34.8972 78.7378 35.1257 78.7378 35.4075C78.7378 35.6879 78.9663 35.9168 79.2477 35.9168ZM79.2477 27.277C78.7949 27.277 78.4259 27.6454 78.4259 28.0987C78.4259 28.552 78.7949 28.9205 79.2477 28.9205C79.7001 28.9205 80.0695 28.552 80.0695 28.0987C80.0695 27.6454 79.7001 27.277 79.2477 27.277ZM66.5877 39.458C66.1348 39.458 65.7658 39.8265 65.7658 40.2793C65.7658 40.7331 66.1348 41.1016 66.5877 41.1016C67.04 41.1016 67.4094 40.7331 67.4094 40.2793C67.4094 39.8265 67.04 39.458 66.5877 39.458ZM66.5877 29.713C66.1348 29.713 65.7658 30.0819 65.7658 30.5353C65.7658 30.9876 66.1348 31.3565 66.5877 31.3565C67.04 31.3565 67.4094 30.9876 67.4094 30.5353C67.4094 30.0819 67.04 29.713 66.5877 29.713ZM72.9176 23.6224C72.4652 23.6224 72.0958 23.9913 72.0958 24.4441C72.0958 24.8979 72.4652 25.266 72.9176 25.266C73.3709 25.266 73.7393 24.8979 73.7393 24.4441C73.7393 23.9913 73.3709 23.6224 72.9176 23.6224ZM66.5877 24.8405C66.1348 24.8405 65.7658 25.209 65.7658 25.6618C65.7658 26.1156 66.1348 26.4841 66.5877 26.4841C67.04 26.4841 67.4094 26.1156 67.4094 25.6618C67.4094 25.209 67.04 24.8405 66.5877 24.8405ZM66.5877 22.4043C66.1348 22.4043 65.7658 22.7728 65.7658 23.2261C65.7658 23.6794 66.1348 24.0479 66.5877 24.0479C67.04 24.0479 67.4094 23.6794 67.4094 23.2261C67.4094 22.7728 67.04 22.4043 66.5877 22.4043ZM66.5877 37.0216C66.1348 37.0216 65.7658 37.3901 65.7658 37.8433C65.7658 38.2967 66.1348 38.6652 66.5877 38.6652C67.04 38.6652 67.4094 38.2967 67.4094 37.8433C67.4094 37.3901 67.04 37.0216 66.5877 37.0216ZM66.5877 34.5852C66.1348 34.5852 65.7658 34.9542 65.7658 35.407C65.7658 35.8608 66.1348 36.2288 66.5877 36.2288C67.04 36.2288 67.4094 35.8608 67.4094 35.407C67.4094 34.9542 67.04 34.5852 66.5877 34.5852ZM66.5877 32.1491C66.1348 32.1491 65.7658 32.5181 65.7658 32.9709C65.7658 33.4242 66.1348 33.7927 66.5877 33.7927C67.04 33.7927 67.4094 33.4242 67.4094 32.9709C67.4094 32.5181 67.04 32.1491 66.5877 32.1491ZM64.4778 38.2399C64.0245 38.2399 63.656 38.6084 63.656 39.0613C63.656 39.515 64.0245 39.8835 64.4778 39.8835C64.9306 39.8835 65.2996 39.515 65.2996 39.0613C65.2996 38.6084 64.9306 38.2399 64.4778 38.2399ZM64.4778 40.6759C64.0245 40.6759 63.656 41.0448 63.656 41.4981C63.656 41.951 64.0245 42.3195 64.4778 42.3195C64.9306 42.3195 65.2996 41.951 65.2996 41.4981C65.2996 41.0448 64.9306 40.6759 64.4778 40.6759ZM66.5877 48.0983C66.869 48.0983 67.0975 47.8693 67.0975 47.5889C67.0975 47.308 66.869 47.0786 66.5877 47.0786C66.3063 47.0786 66.0778 47.308 66.0778 47.5889C66.0778 47.8693 66.3063 48.0983 66.5877 48.0983ZM64.4778 35.8034C64.0245 35.8034 63.656 36.1724 63.656 36.6252C63.656 37.079 64.0245 37.447 64.4778 37.447C64.9306 37.447 65.2996 37.079 65.2996 36.6252C65.2996 36.1724 64.9306 35.8034 64.4778 35.8034ZM86.5007 38.2399C86.0484 38.2399 85.679 38.6084 85.679 39.0613C85.679 39.515 86.0484 39.8835 86.5007 39.8835C86.954 39.8835 87.3225 39.515 87.3225 39.0613C87.3225 38.6084 86.954 38.2399 86.5007 38.2399ZM64.4778 43.1122C64.0245 43.1122 63.656 43.4807 63.656 43.934C63.656 44.3868 64.0245 44.7558 64.4778 44.7558C64.9306 44.7558 65.2996 44.3868 65.2996 43.934C65.2996 43.4807 64.9306 43.1122 64.4778 43.1122ZM64.4778 47.1921C64.9306 47.1921 65.2996 46.8237 65.2996 46.3703C65.2996 45.917 64.9306 45.5485 64.4778 45.5485C64.0245 45.5485 63.656 45.917 63.656 46.3703C63.656 46.8237 64.0245 47.1921 64.4778 47.1921ZM66.5877 27.277C66.1348 27.277 65.7658 27.6454 65.7658 28.0987C65.7658 28.552 66.1348 28.9205 66.5877 28.9205C67.04 28.9205 67.4094 28.552 67.4094 28.0987C67.4094 27.6454 67.04 27.277 66.5877 27.277ZM70.8074 24.8405C70.3546 24.8405 69.9856 25.209 69.9856 25.6618C69.9856 26.1156 70.3546 26.4841 70.8074 26.4841C71.2607 26.4841 71.6292 26.1156 71.6292 25.6618C71.6292 25.209 71.2607 24.8405 70.8074 24.8405ZM70.8074 27.277C70.3546 27.277 69.9856 27.6454 69.9856 28.0987C69.9856 28.552 70.3546 28.9205 70.8074 28.9205C71.2607 28.9205 71.6292 28.552 71.6292 28.0987C71.6292 27.6454 71.2607 27.277 70.8074 27.277ZM70.8074 22.4043C70.3546 22.4043 69.9856 22.7728 69.9856 23.2261C69.9856 23.6794 70.3546 24.0479 70.8074 24.0479C71.2607 24.0479 71.6292 23.6794 71.6292 23.2261C71.6292 22.7728 71.2607 22.4043 70.8074 22.4043ZM68.6978 39.8836C69.1511 39.8836 69.5196 39.5147 69.5196 39.0614C69.5196 38.6081 69.1511 38.24 68.6978 38.24C68.2444 38.24 67.876 38.6081 67.876 39.0614C67.876 39.5147 68.2444 39.8836 68.6978 39.8836ZM66.5877 41.8941C66.1348 41.8941 65.7658 42.263 65.7658 42.7164C65.7658 43.1692 66.1348 43.5377 66.5877 43.5377C67.04 43.5377 67.4094 43.1692 67.4094 42.7164C67.4094 42.263 67.04 41.8941 66.5877 41.8941ZM70.8074 34.5852C70.3546 34.5852 69.9856 34.9542 69.9856 35.407C69.9856 35.8608 70.3546 36.2288 70.8074 36.2288C71.2607 36.2288 71.6292 35.8608 71.6292 35.407C71.6292 34.9542 71.2607 34.5852 70.8074 34.5852ZM70.8074 38.6653C71.2607 38.6653 71.6292 38.2968 71.6292 37.844C71.6292 37.3902 71.2607 37.0217 70.8074 37.0217C70.3546 37.0217 69.9856 37.3902 69.9856 37.844C69.9856 38.2968 70.3546 38.6653 70.8074 38.6653ZM68.6978 26.0588C68.2444 26.0588 67.876 26.4273 67.876 26.8805C67.876 27.3338 68.2444 27.7023 68.6978 27.7023C69.1511 27.7023 69.5196 27.3338 69.5196 26.8805C69.5196 26.4273 69.1511 26.0588 68.6978 26.0588ZM68.6978 23.6224C68.2444 23.6224 67.876 23.9913 67.876 24.4441C67.876 24.8979 68.2444 25.266 68.6978 25.266C69.1511 25.266 69.5196 24.8979 69.5196 24.4441C69.5196 23.9913 69.1511 23.6224 68.6978 23.6224ZM66.5877 44.3304C66.1348 44.3304 65.7658 44.6989 65.7658 45.1522C65.7658 45.6055 66.1348 45.974 66.5877 45.974C67.04 45.974 67.4094 45.6055 67.4094 45.1522C67.4094 44.6989 67.04 44.3304 66.5877 44.3304ZM68.6978 35.8034C68.2444 35.8034 67.876 36.1724 67.876 36.6252C67.876 37.079 68.2444 37.447 68.6978 37.447C69.1511 37.447 69.5196 37.079 69.5196 36.6252C69.5196 36.1724 69.1511 35.8034 68.6978 35.8034ZM77.1376 28.495C76.6843 28.495 76.3158 28.8639 76.3158 29.3167C76.3158 29.7701 76.6843 30.1385 77.1376 30.1385C77.5909 30.1385 77.9594 29.7701 77.9594 29.3167C77.9594 28.8639 77.5909 28.495 77.1376 28.495ZM97.0507 24.8405C96.5978 24.8405 96.2289 25.209 96.2289 25.6618C96.2289 26.1156 96.5978 26.4841 97.0507 26.4841C97.5039 26.4841 97.872 26.1156 97.872 25.6618C97.872 25.209 97.5039 24.8405 97.0507 24.8405ZM97.0507 27.277C96.5978 27.277 96.2289 27.6454 96.2289 28.0987C96.2289 28.552 96.5978 28.9205 97.0507 28.9205C97.5039 28.9205 97.872 28.552 97.872 28.0987C97.872 27.6454 97.5039 27.277 97.0507 27.277ZM97.0507 37.0216C96.5978 37.0216 96.2289 37.3901 96.2289 37.8433C96.2289 38.2967 96.5978 38.6652 97.0507 38.6652C97.5039 38.6652 97.872 38.2967 97.872 37.8433C97.872 37.3901 97.5039 37.0216 97.0507 37.0216ZM97.0507 34.5852C96.5978 34.5852 96.2289 34.9542 96.2289 35.407C96.2289 35.8608 96.5978 36.2288 97.0507 36.2288C97.5039 36.2288 97.872 35.8608 97.872 35.407C97.872 34.9542 97.5039 34.5852 97.0507 34.5852ZM99.1604 23.6224C98.7076 23.6224 98.3391 23.9913 98.3391 24.4441C98.3391 24.8979 98.7076 25.266 99.1604 25.266C99.6137 25.266 99.9822 24.8979 99.9822 24.4441C99.9822 23.9913 99.6137 23.6224 99.1604 23.6224ZM99.1604 28.495C98.7076 28.495 98.3391 28.8639 98.3391 29.3167C98.3391 29.7701 98.7076 30.1385 99.1604 30.1385C99.6137 30.1385 99.9822 29.7701 99.9822 29.3167C99.9822 28.8639 99.6137 28.495 99.1604 28.495ZM99.1604 30.9311C98.7076 30.9311 98.3391 31.3001 98.3391 31.7529C98.3391 32.2062 98.7076 32.5747 99.1604 32.5747C99.6137 32.5747 99.9822 32.2062 99.9822 31.7529C99.9822 31.3001 99.6137 30.9311 99.1604 30.9311ZM99.1604 26.0588C98.7076 26.0588 98.3391 26.4273 98.3391 26.8805C98.3391 27.3338 98.7076 27.7023 99.1604 27.7023C99.6137 27.7023 99.9822 27.3338 99.9822 26.8805C99.9822 26.4273 99.6137 26.0588 99.1604 26.0588ZM94.9384 26.0588C94.486 26.0588 94.1166 26.4273 94.1166 26.8805C94.1166 27.3338 94.486 27.7023 94.9384 27.7023C95.3917 27.7023 95.7602 27.3338 95.7602 26.8805C95.7602 26.4273 95.3917 26.0588 94.9384 26.0588ZM97.0504 22.7162C96.7691 22.7162 96.5405 22.9452 96.5405 23.2265C96.5405 23.5074 96.7691 23.7359 97.0504 23.7359C97.3317 23.7359 97.5602 23.5074 97.5602 23.2265C97.5602 22.9452 97.3317 22.7162 97.0504 22.7162ZM94.9384 28.8069C94.657 28.8069 94.4285 29.0359 94.4285 29.3172C94.4285 29.5981 94.657 29.8266 94.9384 29.8266C95.2197 29.8266 95.4482 29.5981 95.4482 29.3172C95.4482 29.0359 95.2197 28.8069 94.9384 28.8069ZM94.9384 33.6792C94.657 33.6792 94.4285 33.9082 94.4285 34.1891C94.4285 34.4704 94.657 34.6989 94.9384 34.6989C95.2197 34.6989 95.4482 34.4704 95.4482 34.1891C95.4482 33.9082 95.2197 33.6792 94.9384 33.6792ZM97.0504 39.7699C96.7691 39.7699 96.5405 39.9989 96.5405 40.2798C96.5405 40.5611 96.7691 40.7896 97.0504 40.7896C97.3317 40.7896 97.5602 40.5611 97.5602 40.2798C97.5602 39.9989 97.3317 39.7699 97.0504 39.7699ZM94.9384 23.6224C94.486 23.6224 94.1166 23.9913 94.1166 24.4441C94.1166 24.8979 94.486 25.266 94.9384 25.266C95.3917 25.266 95.7602 24.8979 95.7602 24.4441C95.7602 23.9913 95.3917 23.6224 94.9384 23.6224ZM94.9384 35.8034C94.486 35.8034 94.1166 36.1724 94.1166 36.6252C94.1166 37.079 94.486 37.447 94.9384 37.447C95.3917 37.447 95.7602 37.079 95.7602 36.6252C95.7602 36.1724 95.3917 35.8034 94.9384 35.8034ZM94.9384 39.8836C95.3917 39.8836 95.7602 39.5147 95.7602 39.0614C95.7602 38.6081 95.3917 38.24 94.9384 38.24C94.486 38.24 94.1166 38.6081 94.1166 39.0614C94.1166 39.5147 94.486 39.8836 94.9384 39.8836ZM92.8309 40.7896C93.1122 40.7896 93.3407 40.5611 93.3407 40.2798C93.3407 39.9985 93.1122 39.7699 92.8309 39.7699C92.5496 39.7699 92.3211 39.9985 92.3211 40.2798C92.3211 40.5611 92.5496 40.7896 92.8309 40.7896ZM103.38 26.3707C103.099 26.3707 102.871 26.5997 102.871 26.88C102.871 27.1618 103.099 27.3904 103.38 27.3904C103.662 27.3904 103.89 27.1618 103.89 26.88C103.89 26.5997 103.662 26.3707 103.38 26.3707ZM101.27 38.3533C101.552 38.3533 101.78 38.1244 101.78 37.843C101.78 37.5621 101.552 37.3336 101.27 37.3336C100.989 37.3336 100.76 37.5621 100.76 37.843C100.76 38.1244 100.989 38.3533 101.27 38.3533ZM99.1607 39.5717C99.442 39.5717 99.6705 39.3427 99.6705 39.0614C99.6705 38.7805 99.442 38.552 99.1607 38.552C98.8793 38.552 98.6508 38.7805 98.6508 39.0614C98.6508 39.3427 98.8793 39.5717 99.1607 39.5717ZM103.38 30.1385C103.834 30.1385 104.202 29.7696 104.202 29.3172C104.202 28.8639 103.834 28.495 103.38 28.495C102.928 28.495 102.559 28.8639 102.559 29.3172C102.559 29.7696 102.928 30.1385 103.38 30.1385ZM103.38 33.3673C102.928 33.3673 102.559 33.7363 102.559 34.1891C102.559 34.6424 102.928 35.0109 103.38 35.0109C103.834 35.0109 104.202 34.6424 104.202 34.1891C104.202 33.7363 103.834 33.3673 103.38 33.3673ZM103.38 30.9311C102.928 30.9311 102.559 31.3001 102.559 31.7529C102.559 32.2062 102.928 32.5747 103.38 32.5747C103.834 32.5747 104.202 32.2062 104.202 31.7529C104.202 31.3001 103.834 30.9311 103.38 30.9311ZM101.271 34.5852C100.818 34.5852 100.449 34.9542 100.449 35.407C100.449 35.8608 100.818 36.2288 101.271 36.2288C101.724 36.2288 102.092 35.8608 102.092 35.407C102.092 34.9542 101.724 34.5852 101.271 34.5852ZM101.271 32.1491C100.818 32.1491 100.449 32.5181 100.449 32.9709C100.449 33.4242 100.818 33.7927 101.271 33.7927C101.724 33.7927 102.092 33.4242 102.092 32.9709C102.092 32.5181 101.724 32.1491 101.271 32.1491ZM99.1604 35.8034C98.7076 35.8034 98.3391 36.1724 98.3391 36.6252C98.3391 37.079 98.7076 37.447 99.1604 37.447C99.6137 37.447 99.9822 37.079 99.9822 36.6252C99.9822 36.1724 99.6137 35.8034 99.1604 35.8034ZM101.271 24.8405C100.818 24.8405 100.449 25.209 100.449 25.6618C100.449 26.1156 100.818 26.4841 101.271 26.4841C101.724 26.4841 102.092 26.1156 102.092 25.6618C102.092 25.209 101.724 24.8405 101.271 24.8405ZM101.271 29.713C100.818 29.713 100.449 30.0819 100.449 30.5353C100.449 30.9876 100.818 31.3565 101.271 31.3565C101.724 31.3565 102.092 30.9876 102.092 30.5353C102.092 30.0819 101.724 29.713 101.271 29.713ZM99.1604 33.3673C98.7076 33.3673 98.3391 33.7363 98.3391 34.1891C98.3391 34.6424 98.7076 35.0109 99.1604 35.0109C99.6137 35.0109 99.9822 34.6424 99.9822 34.1891C99.9822 33.7363 99.6137 33.3673 99.1604 33.3673ZM101.271 27.277C100.818 27.277 100.449 27.6454 100.449 28.0987C100.449 28.552 100.818 28.9205 101.271 28.9205C101.724 28.9205 102.092 28.552 102.092 28.0987C102.092 27.6454 101.724 27.277 101.271 27.277ZM88.611 34.5852C88.1582 34.5852 87.7892 34.9542 87.7892 35.407C87.7892 35.8608 88.1582 36.2288 88.611 36.2288C89.0633 36.2288 89.4327 35.8608 89.4327 35.407C89.4327 34.9542 89.0633 34.5852 88.611 34.5852ZM86.5007 40.6759C86.0484 40.6759 85.679 41.0448 85.679 41.4981C85.679 41.951 86.0484 42.3195 86.5007 42.3195C86.954 42.3195 87.3225 41.951 87.3225 41.4981C87.3225 41.0448 86.954 40.6759 86.5007 40.6759ZM88.611 37.0216C88.1582 37.0216 87.7892 37.3901 87.7892 37.8433C87.7892 38.2967 88.1582 38.6652 88.611 38.6652C89.0633 38.6652 89.4327 38.2967 89.4327 37.8433C89.4327 37.3901 89.0633 37.0216 88.611 37.0216ZM92.8309 37.0216C92.378 37.0216 92.0091 37.3901 92.0091 37.8433C92.0091 38.2967 92.378 38.6652 92.8309 38.6652C93.2842 38.6652 93.6526 38.2967 93.6526 37.8433C93.6526 37.3901 93.2842 37.0216 92.8309 37.0216ZM88.611 44.3304C88.1582 44.3304 87.7892 44.6989 87.7892 45.1522C87.7892 45.6055 88.1582 45.974 88.611 45.974C89.0633 45.974 89.4327 45.6055 89.4327 45.1522C89.4327 44.6989 89.0633 44.3304 88.611 44.3304ZM88.611 39.458C88.1582 39.458 87.7892 39.8265 87.7892 40.2793C87.7892 40.7331 88.1582 41.1016 88.611 41.1016C89.0633 41.1016 89.4327 40.7331 89.4327 40.2793C89.4327 39.8265 89.0633 39.458 88.611 39.458ZM88.611 29.713C88.1582 29.713 87.7892 30.0819 87.7892 30.5353C87.7892 30.9876 88.1582 31.3565 88.611 31.3565C89.0633 31.3565 89.4327 30.9876 89.4327 30.5353C89.4327 30.0819 89.0633 29.713 88.611 29.713ZM88.611 41.8941C88.1582 41.8941 87.7892 42.263 87.7892 42.7164C87.7892 43.1692 88.1582 43.5377 88.611 43.5377C89.0633 43.5377 89.4327 43.1692 89.4327 42.7164C89.4327 42.263 89.0633 41.8941 88.611 41.8941ZM88.611 24.8405C88.1582 24.8405 87.7892 25.209 87.7892 25.6618C87.7892 26.1156 88.1582 26.4841 88.611 26.4841C89.0633 26.4841 89.4327 26.1156 89.4327 25.6618C89.4327 25.209 89.0633 24.8405 88.611 24.8405ZM88.6107 48.0983C88.8921 48.0983 89.1206 47.8693 89.1206 47.5889C89.1206 47.308 88.8921 47.0786 88.6107 47.0786C88.3298 47.0786 88.1009 47.308 88.1009 47.5889C88.1009 47.8693 88.3298 48.0983 88.6107 48.0983ZM86.5007 47.1921C86.954 47.1921 87.3225 46.8237 87.3225 46.3703C87.3225 45.917 86.954 45.5485 86.5007 45.5485C86.0484 45.5485 85.679 45.917 85.679 46.3703C85.679 46.8237 86.0484 47.1921 86.5007 47.1921ZM86.5007 43.1122C86.0484 43.1122 85.679 43.4807 85.679 43.934C85.679 44.3868 86.0484 44.7558 86.5007 44.7558C86.954 44.7558 87.3225 44.3868 87.3225 43.934C87.3225 43.4807 86.954 43.1122 86.5007 43.1122ZM88.611 27.277C88.1582 27.277 87.7892 27.6454 87.7892 28.0987C87.7892 28.552 88.1582 28.9205 88.611 28.9205C89.0633 28.9205 89.4327 28.552 89.4327 28.0987C89.4327 27.6454 89.0633 27.277 88.611 27.277ZM88.611 22.4043C88.1582 22.4043 87.7892 22.7728 87.7892 23.2261C87.7892 23.6794 88.1582 24.0479 88.611 24.0479C89.0633 24.0479 89.4327 23.6794 89.4327 23.2261C89.4327 22.7728 89.0633 22.4043 88.611 22.4043ZM90.7208 23.6224C90.2679 23.6224 89.899 23.9913 89.899 24.4441C89.899 24.8979 90.2679 25.266 90.7208 25.266C91.174 25.266 91.5425 24.8979 91.5425 24.4441C91.5425 23.9913 91.174 23.6224 90.7208 23.6224ZM88.611 32.1491C88.1582 32.1491 87.7892 32.5181 87.7892 32.9709C87.7892 33.4242 88.1582 33.7927 88.611 33.7927C89.0633 33.7927 89.4327 33.4242 89.4327 32.9709C89.4327 32.5181 89.0633 32.1491 88.611 32.1491ZM92.8309 22.4043C92.378 22.4043 92.0091 22.7728 92.0091 23.2261C92.0091 23.6794 92.378 24.0479 92.8309 24.0479C93.2842 24.0479 93.6526 23.6794 93.6526 23.2261C93.6526 22.7728 93.2842 22.4043 92.8309 22.4043ZM92.8309 24.8405C92.378 24.8405 92.0091 25.209 92.0091 25.6618C92.0091 26.1156 92.378 26.4841 92.8309 26.4841C93.2842 26.4841 93.6526 26.1156 93.6526 25.6618C93.6526 25.209 93.2842 24.8405 92.8309 24.8405ZM90.7208 47.1921C91.174 47.1921 91.5425 46.8237 91.5425 46.3703C91.5425 45.917 91.174 45.5485 90.7208 45.5485C90.2679 45.5485 89.899 45.917 89.899 46.3703C89.899 46.8237 90.2679 47.1921 90.7208 47.1921ZM92.8309 34.5852C92.378 34.5852 92.0091 34.9542 92.0091 35.407C92.0091 35.8608 92.378 36.2288 92.8309 36.2288C93.2842 36.2288 93.6526 35.8608 93.6526 35.407C93.6526 34.9542 93.2842 34.5852 92.8309 34.5852ZM90.7208 43.1122C90.2679 43.1122 89.899 43.4807 89.899 43.934C89.899 44.3868 90.2679 44.7558 90.7208 44.7558C91.174 44.7558 91.5425 44.3868 91.5425 43.934C91.5425 43.4807 91.174 43.1122 90.7208 43.1122ZM92.8309 27.277C92.378 27.277 92.0091 27.6454 92.0091 28.0987C92.0091 28.552 92.378 28.9205 92.8309 28.9205C93.2842 28.9205 93.6526 28.552 93.6526 28.0987C93.6526 27.6454 93.2842 27.277 92.8309 27.277ZM90.7208 35.8034C90.2679 35.8034 89.899 36.1724 89.899 36.6252C89.899 37.079 90.2679 37.447 90.7208 37.447C91.174 37.447 91.5425 37.079 91.5425 36.6252C91.5425 36.1724 91.174 35.8034 90.7208 35.8034ZM90.7208 33.3673C90.2679 33.3673 89.899 33.7363 89.899 34.1891C89.899 34.6424 90.2679 35.0109 90.7208 35.0109C91.174 35.0109 91.5425 34.6424 91.5425 34.1891C91.5425 33.7363 91.174 33.3673 90.7208 33.3673ZM90.7208 30.9311C90.2679 30.9311 89.899 31.3001 89.899 31.7529C89.899 32.2062 90.2679 32.5747 90.7208 32.5747C91.174 32.5747 91.5425 32.2062 91.5425 31.7529C91.5425 31.3001 91.174 30.9311 90.7208 30.9311ZM90.7208 28.495C90.2679 28.495 89.899 28.8639 89.899 29.3167C89.899 29.7701 90.2679 30.1385 90.7208 30.1385C91.174 30.1385 91.5425 29.7701 91.5425 29.3167C91.5425 28.8639 91.174 28.495 90.7208 28.495ZM90.7208 26.0588C90.2679 26.0588 89.899 26.4273 89.899 26.8805C89.899 27.3338 90.2679 27.7023 90.7208 27.7023C91.174 27.7023 91.5425 27.3338 91.5425 26.8805C91.5425 26.4273 91.174 26.0588 90.7208 26.0588ZM90.7208 38.2399C90.2679 38.2399 89.899 38.6084 89.899 39.0613C89.899 39.515 90.2679 39.8835 90.7208 39.8835C91.174 39.8835 91.5425 39.515 91.5425 39.0613C91.5425 38.6084 91.174 38.2399 90.7208 38.2399ZM90.7208 40.6759C90.2679 40.6759 89.899 41.0448 89.899 41.4981C89.899 41.951 90.2679 42.3195 90.7208 42.3195C91.174 42.3195 91.5425 41.951 91.5425 41.4981C91.5425 41.0448 91.174 40.6759 90.7208 40.6759ZM56.9546 23.9343C56.6737 23.9343 56.4452 24.1632 56.4452 24.4441C56.4452 24.7255 56.6737 24.954 56.9546 24.954C57.2359 24.954 57.4649 24.7255 57.4649 24.4441C57.4649 24.1632 57.2359 23.9343 56.9546 23.9343ZM33.7586 37.0216C33.3053 37.0216 32.9368 37.3901 32.9368 37.8433C32.9368 38.2967 33.3053 38.6652 33.7586 38.6652C34.2109 38.6652 34.5803 38.2967 34.5803 37.8433C34.5803 37.3901 34.2109 37.0216 33.7586 37.0216ZM33.7586 34.5852C33.3053 34.5852 32.9368 34.9542 32.9368 35.407C32.9368 35.8603 33.3053 36.2288 33.7586 36.2288C34.2109 36.2288 34.5803 35.8603 34.5803 35.407C34.5803 34.9542 34.2109 34.5852 33.7586 34.5852ZM33.7588 30.0249C33.4774 30.0249 33.2485 30.2539 33.2485 30.5348C33.2485 30.8161 33.4774 31.0446 33.7588 31.0446C34.0397 31.0446 34.2681 30.8161 34.2681 30.5348C34.2681 30.2539 34.0397 30.0249 33.7588 30.0249ZM33.7586 32.1491C33.3053 32.1491 32.9368 32.5181 32.9368 32.9709C32.9368 33.4242 33.3053 33.7927 33.7586 33.7927C34.2109 33.7927 34.5803 33.4242 34.5803 32.9709C34.5803 32.5181 34.2109 32.1491 33.7586 32.1491ZM35.8686 39.5717C36.1495 39.5717 36.378 39.3427 36.378 39.0614C36.378 38.7805 36.1495 38.552 35.8686 38.552C35.5873 38.552 35.3583 38.7805 35.3583 39.0614C35.3583 39.3427 35.5873 39.5717 35.8686 39.5717ZM33.7586 39.458C33.3053 39.458 32.9368 39.8265 32.9368 40.2793C32.9368 40.7331 33.3053 41.1016 33.7586 41.1016C34.2109 41.1016 34.5803 40.7331 34.5803 40.2793C34.5803 39.8265 34.2109 39.458 33.7586 39.458ZM33.7586 43.5378C34.2109 43.5378 34.5803 43.1693 34.5803 42.7161C34.5803 42.2632 34.2109 41.8943 33.7586 41.8943C33.3053 41.8943 32.9368 42.2632 32.9368 42.7161C32.9368 43.1693 33.3053 43.5378 33.7586 43.5378ZM31.6484 47.1921C32.1016 47.1921 32.4701 46.8237 32.4701 46.3703C32.4701 45.917 32.1016 45.5485 31.6484 45.5485C31.1959 45.5485 30.8265 45.917 30.8265 46.3703C30.8265 46.8237 31.1959 47.1921 31.6484 47.1921ZM31.6484 38.2399C31.1959 38.2399 30.8265 38.6084 30.8265 39.0613C30.8265 39.515 31.1959 39.8835 31.6484 39.8835C32.1016 39.8835 32.4701 39.515 32.4701 39.0613C32.4701 38.6084 32.1016 38.2399 31.6484 38.2399ZM29.5384 41.8941C29.0851 41.8941 28.7166 42.263 28.7166 42.7164C28.7166 43.1692 29.0851 43.5377 29.5384 43.5377C29.9917 43.5377 30.3602 43.1692 30.3602 42.7164C30.3602 42.263 29.9917 41.8941 29.5384 41.8941ZM29.5384 44.3304C29.0851 44.3304 28.7166 44.6989 28.7166 45.1522C28.7166 45.6055 29.0851 45.974 29.5384 45.974C29.9917 45.974 30.3602 45.6055 30.3602 45.1522C30.3602 44.6989 29.9917 44.3304 29.5384 44.3304ZM31.6484 35.8034C31.1959 35.8034 30.8265 36.1724 30.8265 36.6252C30.8265 37.079 31.1959 37.447 31.6484 37.447C32.1016 37.447 32.4701 37.079 32.4701 36.6252C32.4701 36.1724 32.1016 35.8034 31.6484 35.8034ZM31.6484 43.1122C31.1959 43.1122 30.8265 43.4807 30.8265 43.934C30.8265 44.3868 31.1959 44.7558 31.6484 44.7558C32.1016 44.7558 32.4701 44.3868 32.4701 43.934C32.4701 43.4807 32.1016 43.1122 31.6484 43.1122ZM31.6484 40.6759C31.1959 40.6759 30.8265 41.0448 30.8265 41.4981C30.8265 41.951 31.1959 42.3195 31.6484 42.3195C32.1016 42.3195 32.4701 41.951 32.4701 41.4981C32.4701 41.0448 32.1016 40.6759 31.6484 40.6759ZM37.9783 36.2288C38.4315 36.2288 38.8 35.8603 38.8 35.4075C38.8 34.9537 38.4315 34.5852 37.9783 34.5852C37.525 34.5852 37.1565 34.9537 37.1565 35.4075C37.1565 35.8603 37.525 36.2288 37.9783 36.2288ZM37.9783 32.1491C37.525 32.1491 37.1565 32.5181 37.1565 32.9709C37.1565 33.4242 37.525 33.7927 37.9783 33.7927C38.4315 33.7927 38.8 33.4242 38.8 32.9709C38.8 32.5181 38.4315 32.1491 37.9783 32.1491ZM37.9783 29.713C37.525 29.713 37.1565 30.0819 37.1565 30.5353C37.1565 30.9876 37.525 31.3565 37.9783 31.3565C38.4315 31.3565 38.8 30.9876 38.8 30.5353C38.8 30.0819 38.4315 29.713 37.9783 29.713ZM37.9783 27.277C37.525 27.277 37.1565 27.6454 37.1565 28.0987C37.1565 28.552 37.525 28.9205 37.9783 28.9205C38.4315 28.9205 38.8 28.552 38.8 28.0987C38.8 27.6454 38.4315 27.277 37.9783 27.277ZM40.0881 39.5717C40.3694 39.5717 40.5979 39.3427 40.5979 39.0614C40.5979 38.7805 40.3694 38.552 40.0881 38.552C39.8072 38.552 39.5787 38.7805 39.5787 39.0614C39.5787 39.3427 39.8072 39.5717 40.0881 39.5717ZM40.0881 26.0588C39.6348 26.0588 39.2668 26.4273 39.2668 26.8805C39.2668 27.3338 39.6348 27.7023 40.0881 27.7023C40.5414 27.7023 40.9098 27.3338 40.9098 26.8805C40.9098 26.4273 40.5414 26.0588 40.0881 26.0588ZM35.8684 26.0588C35.415 26.0588 35.0466 26.4273 35.0466 26.8805C35.0466 27.3338 35.415 27.7023 35.8684 27.7023C36.3207 27.7023 36.6901 27.3338 36.6901 26.8805C36.6901 26.4273 36.3207 26.0588 35.8684 26.0588ZM37.9783 24.8405C37.525 24.8405 37.1565 25.209 37.1565 25.6618C37.1565 26.1156 37.525 26.4841 37.9783 26.4841C38.4315 26.4841 38.8 26.1156 38.8 25.6618C38.8 25.209 38.4315 24.8405 37.9783 24.8405ZM35.8684 28.495C35.415 28.495 35.0466 28.8639 35.0466 29.3167C35.0466 29.7701 35.415 30.1385 35.8684 30.1385C36.3207 30.1385 36.6901 29.7701 36.6901 29.3167C36.6901 28.8639 36.3207 28.495 35.8684 28.495ZM35.8684 33.3673C35.415 33.3673 35.0466 33.7363 35.0466 34.1891C35.0466 34.6424 35.415 35.0109 35.8684 35.0109C36.3207 35.0109 36.6901 34.6424 36.6901 34.1891C36.6901 33.7363 36.3207 33.3673 35.8684 33.3673ZM35.8684 30.9311C35.415 30.9311 35.0466 31.3001 35.0466 31.7529C35.0466 32.2062 35.415 32.5747 35.8684 32.5747C36.3207 32.5747 36.6901 32.2062 36.6901 31.7529C36.6901 31.3001 36.3207 30.9311 35.8684 30.9311ZM35.8684 35.8034C35.415 35.8034 35.0466 36.1724 35.0466 36.6252C35.0466 37.079 35.415 37.447 35.8684 37.447C36.3207 37.447 36.6901 37.079 36.6901 36.6252C36.6901 36.1724 36.3207 35.8034 35.8684 35.8034ZM37.978 22.7162C37.6971 22.7162 37.4686 22.9452 37.4686 23.2265C37.4686 23.5074 37.6971 23.7359 37.978 23.7359C38.2594 23.7359 38.4883 23.5074 38.4883 23.2265C38.4883 22.9452 38.2594 22.7162 37.978 22.7162ZM35.8681 23.9343C35.5872 23.9343 35.3582 24.1632 35.3582 24.4446C35.3582 24.7255 35.5872 24.954 35.8681 24.954C36.1494 24.954 36.3779 24.7255 36.3779 24.4446C36.3779 24.1632 36.1494 23.9343 35.8681 23.9343ZM40.0881 23.9343C39.8072 23.9343 39.5787 24.1632 39.5787 24.4446C39.5787 24.7255 39.8072 24.954 40.0881 24.954C40.3694 24.954 40.5979 24.7255 40.5979 24.4446C40.5979 24.1632 40.3694 23.9343 40.0881 23.9343ZM23.253 27.7023C23.7063 27.7023 24.0748 27.3339 24.0748 26.8806C24.0748 26.4273 23.7063 26.0588 23.253 26.0588C22.8006 26.0588 22.4312 26.4273 22.4312 26.8806C22.4312 27.3339 22.8006 27.7023 23.253 27.7023ZM25.3185 24.8405C24.8652 24.8405 24.4968 25.209 24.4968 25.6618C24.4968 26.1156 24.8652 26.4841 25.3185 26.4841C25.7709 26.4841 26.1403 26.1156 26.1403 25.6618C26.1403 25.209 25.7709 24.8405 25.3185 24.8405ZM25.3185 27.277C24.8652 27.277 24.4968 27.6454 24.4968 28.0987C24.4968 28.552 24.8652 28.9205 25.3185 28.9205C25.7709 28.9205 26.1403 28.552 26.1403 28.0987C26.1403 27.6454 25.7709 27.277 25.3185 27.277ZM25.3185 32.1491C24.8652 32.1491 24.4968 32.5181 24.4968 32.9709C24.4968 33.4242 24.8652 33.7927 25.3185 33.7927C25.7709 33.7927 26.1403 33.4242 26.1403 32.9709C26.1403 32.5181 25.7709 32.1491 25.3185 32.1491ZM25.3185 29.713C24.8652 29.713 24.4968 30.0819 24.4968 30.5353C24.4968 30.9876 24.8652 31.3565 25.3185 31.3565C25.7709 31.3565 26.1403 30.9876 26.1403 30.5353C26.1403 30.0819 25.7709 29.713 25.3185 29.713ZM23.253 32.5748C23.7063 32.5748 24.0748 32.2058 24.0748 31.753C24.0748 31.2997 23.7063 30.9312 23.253 30.9312C22.8006 30.9312 22.4312 31.2997 22.4312 31.753C22.4312 32.2058 22.8006 32.5748 23.253 32.5748ZM40.0881 28.495C39.6348 28.495 39.2668 28.8639 39.2668 29.3167C39.2668 29.7701 39.6348 30.1385 40.0881 30.1385C40.5414 30.1385 40.9098 29.7701 40.9098 29.3167C40.9098 28.8639 40.5414 28.495 40.0881 28.495ZM23.253 30.1385C23.7063 30.1385 24.0748 29.7696 24.0748 29.3172C24.0748 28.8639 23.7063 28.495 23.253 28.495C22.8006 28.495 22.4312 28.8639 22.4312 29.3172C22.4312 29.7696 22.8006 30.1385 23.253 30.1385ZM25.3185 22.4043C24.8652 22.4043 24.4968 22.7728 24.4968 23.2261C24.4968 23.6794 24.8652 24.0479 25.3185 24.0479C25.7709 24.0479 26.1403 23.6794 26.1403 23.2261C26.1403 22.7728 25.7709 22.4043 25.3185 22.4043ZM21.1432 24.8405C20.6903 24.8405 20.3218 25.209 20.3218 25.6618C20.3218 26.1156 20.6903 26.4841 21.1432 26.4841C21.5965 26.4841 21.9649 26.1156 21.9649 25.6618C21.9649 25.209 21.5965 24.8405 21.1432 24.8405ZM21.1432 22.4043C20.6903 22.4043 20.3218 22.7728 20.3218 23.2261C20.3218 23.6794 20.6903 24.0479 21.1432 24.0479C21.5965 24.0479 21.9649 23.6794 21.9649 23.2261C21.9649 22.7728 21.5965 22.4043 21.1432 22.4043ZM19.0333 23.9343C18.7519 23.9343 18.5234 24.1632 18.5234 24.4441C18.5234 24.7255 18.7519 24.954 19.0333 24.954C19.3146 24.954 19.5431 24.7255 19.5431 24.4441C19.5431 24.1632 19.3146 23.9343 19.0333 23.9343ZM21.1432 27.277C20.6903 27.277 20.3218 27.6454 20.3218 28.0987C20.3218 28.552 20.6903 28.9205 21.1432 28.9205C21.5965 28.9205 21.9649 28.552 21.9649 28.0987C21.9649 27.6454 21.5965 27.277 21.1432 27.277ZM23.253 23.6224C22.8006 23.6224 22.4312 23.9913 22.4312 24.4441C22.4312 24.8979 22.8006 25.266 23.253 25.266C23.7063 25.266 24.0748 24.8979 24.0748 24.4441C24.0748 23.9913 23.7063 23.6224 23.253 23.6224ZM25.3187 38.3533C25.5997 38.3533 25.8281 38.1244 25.8281 37.8439C25.8281 37.5621 25.5997 37.3336 25.3187 37.3336C25.0374 37.3336 24.8089 37.5621 24.8089 37.8439C24.8089 38.1244 25.0374 38.3533 25.3187 38.3533ZM27.4285 26.3707C27.1472 26.3707 26.9187 26.5997 26.9187 26.88C26.9187 27.1618 27.1472 27.3904 27.4285 27.3904C27.7094 27.3904 27.9384 27.1618 27.9384 26.88C27.9384 26.5997 27.7094 26.3707 27.4285 26.3707ZM29.5387 48.0983C29.8196 48.0983 30.0481 47.8693 30.0481 47.5889C30.0481 47.308 29.8196 47.0786 29.5387 47.0786C29.2574 47.0786 29.0285 47.308 29.0285 47.5889C29.0285 47.8693 29.2574 48.0983 29.5387 48.0983ZM29.5387 32.461C29.2574 32.461 29.0285 32.69 29.0285 32.9709C29.0285 33.2522 29.2574 33.4807 29.5387 33.4807C29.8196 33.4807 30.0481 33.2522 30.0481 32.9709C30.0481 32.69 29.8196 32.461 29.5387 32.461ZM29.5387 30.0249C29.2574 30.0249 29.0285 30.2539 29.0285 30.5348C29.0285 30.8161 29.2574 31.0446 29.5387 31.0446C29.8196 31.0446 30.0481 30.8161 30.0481 30.5348C30.0481 30.2539 29.8196 30.0249 29.5387 30.0249ZM46.4186 30.0249C46.1372 30.0249 45.9083 30.2539 45.9083 30.5348C45.9083 30.8161 46.1372 31.0446 46.4186 31.0446C46.6995 31.0446 46.928 30.8161 46.928 30.5348C46.928 30.2539 46.6995 30.0249 46.4186 30.0249ZM31.6485 33.6792C31.3672 33.6792 31.1387 33.9082 31.1387 34.1891C31.1387 34.4704 31.3672 34.6989 31.6485 34.6989C31.9294 34.6989 32.1584 34.4704 32.1584 34.1891C32.1584 33.9082 31.9294 33.6792 31.6485 33.6792ZM44.3087 33.6792C44.0273 33.6792 43.7984 33.9082 43.7984 34.1891C43.7984 34.4704 44.0273 34.6989 44.3087 34.6989C44.5896 34.6989 44.8181 34.4704 44.8181 34.1891C44.8181 33.9082 44.5896 33.6792 44.3087 33.6792ZM27.4283 38.2399C26.9759 38.2399 26.6065 38.6084 26.6065 39.0613C26.6065 39.515 26.9759 39.8835 27.4283 39.8835C27.8807 39.8835 28.2501 39.515 28.2501 39.0613C28.2501 38.6084 27.8807 38.2399 27.4283 38.2399ZM27.4283 40.6759C26.9759 40.6759 26.6065 41.0448 26.6065 41.4981C26.6065 41.951 26.9759 42.3195 27.4283 42.3195C27.8807 42.3195 28.2501 41.951 28.2501 41.4981C28.2501 41.0448 27.8807 40.6759 27.4283 40.6759ZM25.3185 34.5852C24.8652 34.5852 24.4968 34.9542 24.4968 35.407C24.4968 35.8603 24.8652 36.2288 25.3185 36.2288C25.7709 36.2288 26.1403 35.8603 26.1403 35.407C26.1403 34.9542 25.7709 34.5852 25.3185 34.5852ZM29.5384 34.5852C29.0851 34.5852 28.7166 34.9542 28.7166 35.407C28.7166 35.8603 29.0851 36.2288 29.5384 36.2288C29.9917 36.2288 30.3602 35.8603 30.3602 35.407C30.3602 34.9542 29.9917 34.5852 29.5384 34.5852ZM29.5384 37.0216C29.0851 37.0216 28.7166 37.3901 28.7166 37.8433C28.7166 38.2967 29.0851 38.6652 29.5384 38.6652C29.9917 38.6652 30.3602 38.2967 30.3602 37.8433C30.3602 37.3901 29.9917 37.0216 29.5384 37.0216ZM29.5384 39.458C29.0851 39.458 28.7166 39.8265 28.7166 40.2793C28.7166 40.7331 29.0851 41.1016 29.5384 41.1016C29.9917 41.1016 30.3602 40.7331 30.3602 40.2793C30.3602 39.8265 29.9917 39.458 29.5384 39.458ZM27.4283 28.495C26.9759 28.495 26.6065 28.8639 26.6065 29.3167C26.6065 29.7701 26.9759 30.1385 27.4283 30.1385C27.8807 30.1385 28.2501 29.7701 28.2501 29.3167C28.2501 28.8639 27.8807 28.495 27.4283 28.495ZM27.4283 35.8034C26.9759 35.8034 26.6065 36.1724 26.6065 36.6252C26.6065 37.079 26.9759 37.447 27.4283 37.447C27.8807 37.447 28.2501 37.079 28.2501 36.6252C28.2501 36.1724 27.8807 35.8034 27.4283 35.8034ZM27.4285 44.4439C27.7094 44.4439 27.9384 44.2149 27.9384 43.9345C27.9384 43.6531 27.7094 43.4242 27.4285 43.4242C27.1472 43.4242 26.9187 43.6531 26.9187 43.9345C26.9187 44.2149 27.1472 44.4439 27.4285 44.4439ZM27.4283 33.3673C26.9759 33.3673 26.6065 33.7363 26.6065 34.1891C26.6065 34.6424 26.9759 35.0109 27.4283 35.0109C27.8807 35.0109 28.2501 34.6424 28.2501 34.1891C28.2501 33.7363 27.8807 33.3673 27.4283 33.3673ZM27.4283 30.9311C26.9759 30.9311 26.6065 31.3001 26.6065 31.7529C26.6065 32.2062 26.9759 32.5747 27.4283 32.5747C27.8807 32.5747 28.2501 32.2062 28.2501 31.7529C28.2501 31.3001 27.8807 30.9311 27.4283 30.9311ZM48.5284 44.4439C48.8097 44.4439 49.0382 44.2149 49.0382 43.9345C49.0382 43.6531 48.8097 43.4242 48.5284 43.4242C48.247 43.4242 48.0185 43.6531 48.0185 43.9345C48.0185 44.2149 48.247 44.4439 48.5284 44.4439ZM52.7484 28.495C52.2961 28.495 51.9267 28.8639 51.9267 29.3167C51.9267 29.7701 52.2961 30.1385 52.7484 30.1385C53.2017 30.1385 53.5702 29.7701 53.5702 29.3167C53.5702 28.8639 53.2017 28.495 52.7484 28.495ZM52.7484 26.0588C52.2961 26.0588 51.9267 26.4273 51.9267 26.8805C51.9267 27.3338 52.2961 27.7023 52.7484 27.7023C53.2017 27.7023 53.5702 27.3338 53.5702 26.8805C53.5702 26.4273 53.2017 26.0588 52.7484 26.0588ZM52.7484 32.5748C53.2017 32.5748 53.5702 32.2058 53.5702 31.753C53.5702 31.2997 53.2017 30.9312 52.7484 30.9312C52.2961 30.9312 51.9267 31.2997 51.9267 31.753C51.9267 32.2058 52.2961 32.5748 52.7484 32.5748ZM54.8582 28.9206C55.3115 28.9206 55.68 28.5521 55.68 28.0988C55.68 27.6455 55.3115 27.277 54.8582 27.277C54.4059 27.277 54.0364 27.6455 54.0364 28.0988C54.0364 28.5521 54.4059 28.9206 54.8582 28.9206ZM52.7484 23.6224C52.2961 23.6224 51.9267 23.9913 51.9267 24.4441C51.9267 24.8979 52.2961 25.266 52.7484 25.266C53.2017 25.266 53.5702 24.8979 53.5702 24.4441C53.5702 23.9913 53.2017 23.6224 52.7484 23.6224ZM54.8582 24.8405C54.4059 24.8405 54.0364 25.209 54.0364 25.6618C54.0364 26.1156 54.4059 26.4841 54.8582 26.4841C55.3115 26.4841 55.68 26.1156 55.68 25.6618C55.68 25.209 55.3115 24.8405 54.8582 24.8405ZM54.8582 22.4043C54.4059 22.4043 54.0364 22.7728 54.0364 23.2261C54.0364 23.6794 54.4059 24.0479 54.8582 24.0479C55.3115 24.0479 55.68 23.6794 55.68 23.2261C55.68 22.7728 55.3115 22.4043 54.8582 22.4043ZM50.6383 32.1491C50.1859 32.1491 49.8165 32.5181 49.8165 32.9709C49.8165 33.4242 50.1859 33.7927 50.6383 33.7927C51.0916 33.7927 51.46 33.4242 51.46 32.9709C51.46 32.5181 51.0916 32.1491 50.6383 32.1491ZM50.6383 27.277C50.1859 27.277 49.8165 27.6454 49.8165 28.0987C49.8165 28.552 50.1859 28.9205 50.6383 28.9205C51.0916 28.9205 51.46 28.552 51.46 28.0987C51.46 27.6454 51.0916 27.277 50.6383 27.277ZM50.6383 24.8405C50.1859 24.8405 49.8165 25.209 49.8165 25.6618C49.8165 26.1156 50.1859 26.4841 50.6383 26.4841C51.0916 26.4841 51.46 26.1156 51.46 25.6618C51.46 25.209 51.0916 24.8405 50.6383 24.8405ZM50.6383 22.4043C50.1859 22.4043 49.8165 22.7728 49.8165 23.2261C49.8165 23.6794 50.1859 24.0479 50.6383 24.0479C51.0916 24.0479 51.46 23.6794 51.46 23.2261C51.46 22.7728 51.0916 22.4043 50.6383 22.4043ZM62.3676 48.0983C62.649 48.0983 62.8775 47.8693 62.8775 47.5889C62.8775 47.308 62.649 47.0786 62.3676 47.0786C62.0863 47.0786 61.8578 47.308 61.8578 47.5889C61.8578 47.8693 62.0863 48.0983 62.3676 48.0983ZM50.638 38.3533C50.9194 38.3533 51.1479 38.1244 51.1479 37.8439C51.1479 37.5621 50.9194 37.3336 50.638 37.3336C50.3571 37.3336 50.1282 37.5621 50.1282 37.8439C50.1282 38.1244 50.3571 38.3533 50.638 38.3533ZM50.6383 34.5852C50.1859 34.5852 49.8165 34.9542 49.8165 35.407C49.8165 35.8603 50.1859 36.2288 50.6383 36.2288C51.0916 36.2288 51.46 35.8603 51.46 35.407C51.46 34.9542 51.0916 34.5852 50.6383 34.5852ZM50.6383 29.713C50.1859 29.713 49.8165 30.0819 49.8165 30.5353C49.8165 30.9876 50.1859 31.3565 50.6383 31.3565C51.0916 31.3565 51.46 30.9876 51.46 30.5353C51.46 30.0819 51.0916 29.713 50.6383 29.713ZM62.3676 39.458C61.9148 39.458 61.5458 39.8265 61.5458 40.2793C61.5458 40.7331 61.9148 41.1016 62.3676 41.1016C62.8204 41.1016 63.1894 40.7331 63.1894 40.2793C63.1894 39.8265 62.8204 39.458 62.3676 39.458ZM62.3676 44.3304C61.9148 44.3304 61.5458 44.6989 61.5458 45.1522C61.5458 45.6055 61.9148 45.974 62.3676 45.974C62.8204 45.974 63.1894 45.6055 63.1894 45.1522C63.1894 44.6989 62.8204 44.3304 62.3676 44.3304ZM62.3676 41.8941C61.9148 41.8941 61.5458 42.263 61.5458 42.7164C61.5458 43.1692 61.9148 43.5377 62.3676 43.5377C62.8204 43.5377 63.1894 43.1692 63.1894 42.7164C63.1894 42.263 62.8204 41.8941 62.3676 41.8941ZM64.4778 23.6224C64.0245 23.6224 63.656 23.9913 63.656 24.4441C63.656 24.8979 64.0245 25.266 64.4778 25.266C64.9306 25.266 65.2996 24.8979 65.2996 24.4441C65.2996 23.9913 64.9306 23.6224 64.4778 23.6224ZM64.4778 26.0588C64.0245 26.0588 63.656 26.4273 63.656 26.8805C63.656 27.3338 64.0245 27.7023 64.4778 27.7023C64.9306 27.7023 65.2996 27.3338 65.2996 26.8805C65.2996 26.4273 64.9306 26.0588 64.4778 26.0588ZM64.4778 28.495C64.0245 28.495 63.656 28.8639 63.656 29.3167C63.656 29.7701 64.0245 30.1385 64.4778 30.1385C64.9306 30.1385 65.2996 29.7701 65.2996 29.3167C65.2996 28.8639 64.9306 28.495 64.4778 28.495ZM62.3676 32.1491C61.9148 32.1491 61.5458 32.5181 61.5458 32.9709C61.5458 33.4242 61.9148 33.7927 62.3676 33.7927C62.8204 33.7927 63.1894 33.4242 63.1894 32.9709C63.1894 32.5181 62.8204 32.1491 62.3676 32.1491ZM62.3676 37.0216C61.9148 37.0216 61.5458 37.3901 61.5458 37.8433C61.5458 38.2967 61.9148 38.6652 62.3676 38.6652C62.8204 38.6652 63.1894 38.2967 63.1894 37.8433C63.1894 37.3901 62.8204 37.0216 62.3676 37.0216ZM62.3676 29.713C61.9148 29.713 61.5458 30.0819 61.5458 30.5353C61.5458 30.9876 61.9148 31.3565 62.3676 31.3565C62.8204 31.3565 63.1894 30.9876 63.1894 30.5353C63.1894 30.0819 62.8204 29.713 62.3676 29.713ZM62.3676 24.8405C61.9148 24.8405 61.5458 25.209 61.5458 25.6618C61.5458 26.1156 61.9148 26.4841 62.3676 26.4841C62.8204 26.4841 63.1894 26.1156 63.1894 25.6618C63.1894 25.209 62.8204 24.8405 62.3676 24.8405ZM62.3676 27.277C61.9148 27.277 61.5458 27.6454 61.5458 28.0987C61.5458 28.552 61.9148 28.9205 62.3676 28.9205C62.8204 28.9205 63.1894 28.552 63.1894 28.0987C63.1894 27.6454 62.8204 27.277 62.3676 27.277ZM62.3676 22.4043C61.9148 22.4043 61.5458 22.7728 61.5458 23.2261C61.5458 23.6794 61.9148 24.0479 62.3676 24.0479C62.8204 24.0479 63.1894 23.6794 63.1894 23.2261C63.1894 22.7728 62.8204 22.4043 62.3676 22.4043ZM62.3676 34.5852C61.9148 34.5852 61.5458 34.9542 61.5458 35.407C61.5458 35.8608 61.9148 36.2288 62.3676 36.2288C62.8204 36.2288 63.1894 35.8608 63.1894 35.407C63.1894 34.9542 62.8204 34.5852 62.3676 34.5852ZM40.0881 30.9311C39.6348 30.9311 39.2668 31.3001 39.2668 31.7529C39.2668 32.2062 39.6348 32.5747 40.0881 32.5747C40.5414 32.5747 40.9098 32.2062 40.9098 31.7529C40.9098 31.3001 40.5414 30.9311 40.0881 30.9311ZM44.3084 35.8034C43.856 35.8034 43.4865 36.1724 43.4865 36.6252C43.4865 37.079 43.856 37.447 44.3084 37.447C44.7607 37.447 45.1301 37.079 45.1301 36.6252C45.1301 36.1724 44.7607 35.8034 44.3084 35.8034ZM42.1983 39.458C41.745 39.458 41.3765 39.8265 41.3765 40.2793C41.3765 40.7331 41.745 41.1016 42.1983 41.1016C42.6516 41.1016 43.02 40.7331 43.02 40.2793C43.02 39.8265 42.6516 39.458 42.1983 39.458ZM46.4181 48.0983C46.6994 48.0983 46.9279 47.8693 46.9279 47.5889C46.9279 47.308 46.6994 47.0786 46.4181 47.0786C46.1372 47.0786 45.9082 47.308 45.9082 47.5889C45.9082 47.8693 46.1372 48.0983 46.4181 48.0983ZM44.3084 38.2399C43.856 38.2399 43.4865 38.6084 43.4865 39.0613C43.4865 39.515 43.856 39.8835 44.3084 39.8835C44.7607 39.8835 45.1301 39.515 45.1301 39.0613C45.1301 38.6084 44.7607 38.2399 44.3084 38.2399ZM44.3084 47.1921C44.7607 47.1921 45.1301 46.8237 45.1301 46.3703C45.1301 45.917 44.7607 45.5485 44.3084 45.5485C43.856 45.5485 43.4865 45.917 43.4865 46.3703C43.4865 46.8237 43.856 47.1921 44.3084 47.1921ZM44.3084 40.6759C43.856 40.6759 43.4865 41.0448 43.4865 41.4981C43.4865 41.951 43.856 42.3195 44.3084 42.3195C44.7607 42.3195 45.1301 41.951 45.1301 41.4981C45.1301 41.0448 44.7607 40.6759 44.3084 40.6759ZM44.3084 43.1122C43.856 43.1122 43.4865 43.4807 43.4865 43.934C43.4865 44.3868 43.856 44.7558 44.3084 44.7558C44.7607 44.7558 45.1301 44.3868 45.1301 43.934C45.1301 43.4807 44.7607 43.1122 44.3084 43.1122ZM42.1983 43.5378C42.6516 43.5378 43.02 43.1693 43.02 42.7161C43.02 42.2632 42.6516 41.8943 42.1983 41.8943C41.745 41.8943 41.3765 42.2632 41.3765 42.7161C41.3765 43.1693 41.745 43.5378 42.1983 43.5378ZM42.198 30.0249C41.9172 30.0249 41.6882 30.2539 41.6882 30.5348C41.6882 30.8161 41.9172 31.0446 42.198 31.0446C42.4794 31.0446 42.7079 30.8161 42.7079 30.5348C42.7079 30.2539 42.4794 30.0249 42.198 30.0249ZM40.0881 35.8034C39.6348 35.8034 39.2668 36.1724 39.2668 36.6252C39.2668 37.079 39.6348 37.447 40.0881 37.447C40.5414 37.447 40.9098 37.079 40.9098 36.6252C40.9098 36.1724 40.5414 35.8034 40.0881 35.8034ZM40.0881 33.3673C39.6348 33.3673 39.2668 33.7363 39.2668 34.1891C39.2668 34.6424 39.6348 35.0109 40.0881 35.0109C40.5414 35.0109 40.9098 34.6424 40.9098 34.1891C40.9098 33.7363 40.5414 33.3673 40.0881 33.3673ZM42.1983 37.0216C41.745 37.0216 41.3765 37.3901 41.3765 37.8433C41.3765 38.2967 41.745 38.6652 42.1983 38.6652C42.6516 38.6652 43.02 38.2967 43.02 37.8433C43.02 37.3901 42.6516 37.0216 42.1983 37.0216ZM42.1983 32.1491C41.745 32.1491 41.3765 32.5181 41.3765 32.9709C41.3765 33.4242 41.745 33.7927 42.1983 33.7927C42.6516 33.7927 43.02 33.4242 43.02 32.9709C43.02 32.5181 42.6516 32.1491 42.1983 32.1491ZM42.1983 34.5852C41.745 34.5852 41.3765 34.9542 41.3765 35.407C41.3765 35.8603 41.745 36.2288 42.1983 36.2288C42.6516 36.2288 43.02 35.8603 43.02 35.407C43.02 34.9542 42.6516 34.5852 42.1983 34.5852ZM48.5284 33.3673C48.076 33.3673 47.7066 33.7363 47.7066 34.1891C47.7066 34.6424 48.076 35.0109 48.5284 35.0109C48.9817 35.0109 49.3502 34.6424 49.3502 34.1891C49.3502 33.7363 48.9817 33.3673 48.5284 33.3673ZM48.5284 30.9311C48.076 30.9311 47.7066 31.3001 47.7066 31.7529C47.7066 32.2062 48.076 32.5747 48.5284 32.5747C48.9817 32.5747 49.3502 32.2062 49.3502 31.7529C49.3502 31.3001 48.9817 30.9311 48.5284 30.9311ZM48.5284 40.6759C48.076 40.6759 47.7066 41.0448 47.7066 41.4981C47.7066 41.951 48.076 42.3195 48.5284 42.3195C48.9817 42.3195 49.3502 41.951 49.3502 41.4981C49.3502 41.0448 48.9817 40.6759 48.5284 40.6759ZM46.4181 32.461C46.1372 32.461 45.9082 32.69 45.9082 32.9709C45.9082 33.2522 46.1372 33.4807 46.4181 33.4807C46.6994 33.4807 46.9279 33.2522 46.9279 32.9709C46.9279 32.69 46.6994 32.461 46.4181 32.461ZM48.5284 38.2399C48.076 38.2399 47.7066 38.6084 47.7066 39.0613C47.7066 39.515 48.076 39.8835 48.5284 39.8835C48.9817 39.8835 49.3502 39.515 49.3502 39.0613C49.3502 38.6084 48.9817 38.2399 48.5284 38.2399ZM48.5284 35.8034C48.076 35.8034 47.7066 36.1724 47.7066 36.6252C47.7066 37.079 48.076 37.447 48.5284 37.447C48.9817 37.447 49.3502 37.079 49.3502 36.6252C49.3502 36.1724 48.9817 35.8034 48.5284 35.8034ZM48.5284 26.3707C48.247 26.3707 48.0185 26.5997 48.0185 26.88C48.0185 27.1618 48.247 27.3904 48.5284 27.3904C48.8097 27.3904 49.0382 27.1618 49.0382 26.88C49.0382 26.5997 48.8097 26.3707 48.5284 26.3707ZM48.5284 28.495C48.076 28.495 47.7066 28.8639 47.7066 29.3167C47.7066 29.7701 48.076 30.1385 48.5284 30.1385C48.9817 30.1385 49.3502 29.7701 49.3502 29.3167C49.3502 28.8639 48.9817 28.495 48.5284 28.495ZM46.4183 37.0216C45.966 37.0216 45.5965 37.3901 45.5965 37.8433C45.5965 38.2967 45.966 38.6652 46.4183 38.6652C46.8716 38.6652 47.2401 38.2967 47.2401 37.8433C47.2401 37.3901 46.8716 37.0216 46.4183 37.0216ZM46.4183 34.5852C45.966 34.5852 45.5965 34.9542 45.5965 35.407C45.5965 35.8603 45.966 36.2288 46.4183 36.2288C46.8716 36.2288 47.2401 35.8603 47.2401 35.407C47.2401 34.9542 46.8716 34.5852 46.4183 34.5852ZM46.4183 39.458C45.966 39.458 45.5965 39.8265 45.5965 40.2793C45.5965 40.7331 45.966 41.1016 46.4183 41.1016C46.8716 41.1016 47.2401 40.7331 47.2401 40.2793C47.2401 39.8265 46.8716 39.458 46.4183 39.458ZM64.4778 30.9311C64.0245 30.9311 63.656 31.3001 63.656 31.7529C63.656 32.2062 64.0245 32.5747 64.4778 32.5747C64.9306 32.5747 65.2996 32.2062 65.2996 31.7529C65.2996 31.3001 64.9306 30.9311 64.4778 30.9311ZM46.4183 41.8941C45.966 41.8941 45.5965 42.263 45.5965 42.7164C45.5965 43.1692 45.966 43.5377 46.4183 43.5377C46.8716 43.5377 47.2401 43.1692 47.2401 42.7164C47.2401 42.263 46.8716 41.8941 46.4183 41.8941ZM46.4183 44.3304C45.966 44.3304 45.5965 44.6989 45.5965 45.1522C45.5965 45.6055 45.966 45.974 46.4183 45.974C46.8716 45.974 47.2401 45.6055 47.2401 45.1522C47.2401 44.6989 46.8716 44.3304 46.4183 44.3304Z" fill="white"></path><path d="M138.614 21.9102V48.0711H133.358V34.3678L126.896 42.4652H125.183L118.72 34.3678V48.0711H113.465V21.9102H115.178L126.039 35.8082L136.901 21.9102H138.614Z" fill="white"></path><path d="M160.036 40.2078H146.527C147.15 42.6605 149.135 44.023 151.938 44.023C154.04 44.023 155.753 43.2834 157.311 42.0764L159.49 45.6582C157.311 47.4878 154.741 48.5389 151.782 48.5389C145.67 48.5389 141.232 44.1398 141.232 38.4561C141.232 32.7722 145.631 28.373 151.315 28.373C156.726 28.373 160.386 32.344 160.386 37.327C160.386 38.4171 160.191 39.5461 160.036 40.2078ZM146.527 36.5095H155.286C155.247 34.0569 153.339 32.6165 151.121 32.6165C148.901 32.6165 147.111 34.0959 146.527 36.5095Z" fill="white"></path><path d="M182.507 18.874V48.0714H177.679V45.6967C176.356 47.5265 174.137 48.5386 171.49 48.5386C166.039 48.5386 162.146 44.2562 162.146 38.4558C162.146 32.6552 166.039 28.3728 171.49 28.3728C173.903 28.3728 175.889 29.1903 177.251 30.6698V18.874H182.507ZM177.329 38.4558C177.329 34.7963 174.876 33.1223 172.463 33.1223C169.738 33.1223 167.48 35.1467 167.48 38.4168C167.48 41.6869 169.699 43.7503 172.463 43.7503C174.876 43.7503 177.329 42.1541 177.329 38.4558Z" fill="white"></path><path d="M185.123 21.7936C185.123 19.9249 186.602 18.5234 188.471 18.5234C190.34 18.5234 191.858 19.9249 191.858 21.7936C191.858 23.6232 190.34 25.0247 188.471 25.0247C186.602 25.0247 185.123 23.6232 185.123 21.7936ZM185.863 28.801H191.118V48.0713H185.863V28.801Z" fill="white"></path><path d="M211.128 36.6264V48.0717H206.301V46.2031C204.938 47.6436 202.914 48.5389 200.423 48.5389C196.218 48.5389 193.766 46.0474 193.766 42.7773C193.766 39.2735 196.607 37.1713 201.045 37.1713H205.873V36.315C205.873 34.2126 204.666 32.9279 202.291 32.9279C200.228 32.9279 198.787 33.9012 197.191 35.5751L194.466 32.344C196.724 29.6578 199.488 28.373 202.875 28.373C207.78 28.373 211.128 31.1372 211.128 36.6264ZM205.873 40.8696V40.6362H201.746C200.033 40.6362 199.06 41.298 199.06 42.5826C199.06 43.9063 200.189 44.6849 201.824 44.6849C204.043 44.6849 205.873 43.1277 205.873 40.8696Z" fill="white"></path></svg> 