<?xml version="1.0" encoding="UTF-8"?> <svg xmlns="http://www.w3.org/2000/svg" width="158" height="35" viewBox="0 0 158 35" fill="none"><g clip-path="url(#clip0_1552_3277)"><path d="M93.899 17.5726H97.2634L96.0083 11.829L93.899 17.5726ZM88.6634 27.2904C88.83 27.0823 89.194 26.4385 89.3733 26.0646L97.1759 7.2418L100.738 25.7601C100.738 25.7601 101.162 27.1131 101.369 27.2904C101.108 27.2904 99.8501 27.2904 99.5043 27.2904C99.3762 26.7585 97.4896 18.5555 97.4896 18.5555H93.5098C93.5098 18.5555 90.3617 27.0514 90.2735 27.2904C90.0131 27.2904 88.7516 27.2904 88.6634 27.2904ZM104.147 21.9207C104.169 28.5124 110.552 28.7282 110.565 21.5468L110.575 8.33275L112.351 8.33657C111.908 8.77219 111.745 10.7497 111.658 12.3725C111.629 12.9314 111.312 21.1729 111.275 21.9824C110.791 30.8291 102.806 29.5455 102.436 22.7418C102.395 21.9979 102.263 10.6455 102.22 10.2447C102.176 9.31568 102.003 8.54475 101.679 8.33275C101.915 8.33275 104.125 8.33275 104.125 8.33275L104.147 21.9207ZM113.955 8.38672C127.416 5.96591 124.074 17.3182 119.407 18.4091C119.407 18.4091 125.057 26.9165 125.273 27.2904C125.273 27.2326 125.113 10.2717 125.113 10.2717C125.078 8.90323 124.601 8.33275 124.601 8.33275H132.667V10.2717C132.667 10.2717 130.957 9.23861 127.181 9.21163L127.027 17.4916H132.667V18.6365H127.027V26.1726C127.027 26.77 127.439 26.7276 127.743 26.7276C131.425 26.7276 133.719 25.7177 133.719 25.7177L133.066 27.5179C133.066 27.5179 125.988 27.5294 125.502 27.5179C125.728 27.9804 127.615 30.4552 128.845 31.3842C128.239 31.0913 125.706 29.9733 124.777 28.7282C124.476 28.3235 117.687 19.5231 117.187 18.8061C124.105 17.2527 121.767 7.29577 116.55 8.97264L115.813 27.2904H113.713C113.87 27.0129 114.002 26.4 114.062 25.7639L114.429 10.4066C114.419 9.3234 114.203 8.76447 113.955 8.38672ZM59.9483 27.3174C59.9483 27.3136 59.7005 9.92858 59.7005 9.92858C59.7005 9.30796 59.4051 8.61409 59.1131 8.25561H61.6368L61.4765 26.2149C61.4513 26.4578 61.725 27.2557 61.844 27.3174C61.8125 27.3136 59.9483 27.3174 59.9483 27.3174ZM63.5325 8.25561H66.2256L76.0528 24.8966V8.25561H87.9823L88.9777 2.68548C89.0841 1.94153 89.0841 1.48665 88.802 1.05111H91.598L85.663 31.5962C85.5153 32.2977 85.5566 32.9106 86.5136 32.93C89.4545 32.9801 95.5182 32.3286 97.9383 31.3071L96.8147 33.724H83.2213C83.4348 33.381 83.6322 32.7411 83.8268 31.866L87.6721 9.94403C86.2126 9.28487 84.4295 9.24244 82.7879 9.24626L82.3175 25.8411C82.314 26.4578 82.3959 26.9127 82.4869 27.3174C82.4771 27.3174 80.4183 27.3174 80.4092 27.3174C80.5569 26.8394 80.6038 26.4385 80.6227 25.7562L80.5128 9.23861H77.9387C77.0945 9.2656 77.2674 10.1946 77.245 10.5955L76.5736 28.8632L65.3344 11.1852L65.3407 27.3174C65.3407 27.3174 63.8335 27.3174 63.8559 27.3174C63.9973 27.0553 64.2074 26.2226 64.2354 25.5635L64.6561 10.0365L63.5325 8.25561ZM157.51 8.44062V9.79755C156.016 9.24626 154.967 9.24626 153.295 9.24626L152.796 26.2111C152.777 26.8163 152.827 27.0553 152.927 27.4986C152.927 27.4986 150.941 27.4947 150.941 27.4909C151.053 27.0322 151.116 26.8587 151.151 26.1995L151.06 9.24626C151.06 9.24626 148.267 9.24626 148.257 9.24626C147.382 9.24626 147.382 10.3565 147.382 10.7535C147.382 10.7535 146.845 28.3775 146.823 29.0405C146.628 28.6935 135.583 11.3664 135.583 11.3664L135.589 27.4986C135.589 27.4986 134.563 27.4986 134.252 27.4986C134.444 26.9743 134.457 26.4385 134.485 25.7408C134.485 25.7408 134.908 10.6957 134.908 10.2138C134.786 10.0018 133.923 8.64497 133.782 8.4368C134.205 8.4368 136.478 8.4368 136.478 8.4368L146.305 25.0778V8.44062H157.51ZM51.5275 17.4801H54.7351L53.5863 12.0564L51.5275 17.4801ZM51.1284 18.6712L47.0829 29.2332C44.3457 36.1101 37.8584 35.6822 33.4863 30.8098L34.1799 28.0961C39.9865 39.6257 49.7066 30.567 44.5529 22.5452L36.9952 11.5591C31.8447 4.25822 28.7437 11.987 31.6031 14.801L35.8465 18.7367C38.9666 21.4543 37.9242 27.2326 33.888 27.7491C32.0267 27.9881 29.8956 26.982 28.6182 25.9027L28.2698 27.3637H19.9995C20.147 27.0322 20.3071 26.4231 20.3039 25.9528L20.282 9.11912C20.2913 8.81072 20.1282 8.79145 20.034 9.04588L12.7524 28.204L9.53838 10.8422C9.43163 10.4143 9.21195 10.8152 9.21195 10.8152C8.67208 11.7326 6.29298 15.8264 5.86924 16.528C5.55226 17.0483 5.42359 17.3952 5.18502 18.2471C5.06265 18.6712 2.45442 31.5538 2.33829 32.0587C2.2316 32.5175 2.3791 33.4465 2.57686 33.6777H0C0.0910058 33.5891 0.508443 32.9878 0.608899 32.5175L2.65842 19.5077C3.11667 16.9481 2.5329 14.35 2.5329 14.35C1.26491 5.25277 0.988673 1.32863 0.326431 0.711824H2.47011C2.5329 1.18987 4.99986 15.518 5.15366 16.2119C4.99986 16.5048 13.355 0.839037 13.355 0.839037H15.5206C15.5206 0.839037 14.4378 2.09184 14.2463 2.41568C14.0768 2.68548 11.4749 7.05296 11.1485 7.59645L13.6374 24.0524L19.0265 8.20936H27.9905V10.0018C27.0081 9.40436 23.5995 8.67196 22.253 8.88778L22.1243 16.8748C22.1306 17.3143 22.1243 17.349 22.4476 17.349L27.9999 17.3413V18.4438H22.0584L21.8732 26.1687C21.8732 26.7007 22.1871 26.7546 22.4602 26.7662C24.7828 26.878 26.9735 26.5002 28.5899 25.6329L28.9729 23.9059C30.7619 26.5927 32.2088 27.5526 34.092 26.8703C35.906 26.2226 37.6421 23.1813 34.3085 20.3326L31.0664 17.5147C26.5749 13.3478 30.3695 4.33918 36.7348 8.84925C36.7131 1.00485 44.8483 -2.91164 50.5887 3.07866L50.0273 5.6575C44.9547 -4.45351 35.6673 3.86121 39.9613 11.0773L46.0405 20.8376C47.4063 22.9423 47.6387 24.4611 47.6387 24.4611L54.7974 7.64271L58.3571 25.9259C58.4859 26.5002 58.7463 27.0939 58.9311 27.3174C58.9283 27.3174 56.8877 27.3174 56.8849 27.3174C56.8877 27.3174 54.992 18.675 54.992 18.675L51.1284 18.6712Z" fill="black"></path></g><defs><clipPath id="clip0_1552_3277"><rect width="158" height="34.1622" fill="white" transform="translate(0 0.168945)"></rect></clipPath></defs></svg> 