<?xml version="1.0" encoding="utf-8"?>
<svg xmlns="http://www.w3.org/2000/svg" viewBox="0 0 19.617 20.014" width="19.617px" height="20.014px">
  <defs>
    <clipPath id="__lottie_element_2">
      <rect width="182" height="33" x="0" y="0"/>
    </clipPath>
    <clipPath id="__lottie_element_4">
      <path d="M0,0 L200,0 L200,200 L0,200z"/>
    </clipPath>
    <clipPath id="__lottie_element_9">
      <path d="M0,0 L1920,0 L1920,1080 L0,1080z"/>
    </clipPath>
    <mask id="__lottie_element_13_1" mask-type="alpha">
      <g>
        <g transform="matrix(1,0,0,1,727.6331787109375,550.1580200195312)" opacity="1" style="display: block;">
          <g opacity="1" transform="matrix(1,0,0,1,0,0)">
            <path fill="rgb(0,0,0)" fill-opacity="1" d=" M63.020999908447266,-63.020999908447266 C-6.591000080108643,-63.020999908447266 -63.020999908447266,-6.591000080108643 -63.020999908447266,63.020999908447266 C-63.020999908447266,63.020999908447266 63.020999908447266,63.020999908447266 63.020999908447266,63.020999908447266 C63.020999908447266,63.020999908447266 63.020999908447266,-63.020999908447266 63.020999908447266,-63.020999908447266z"/>
          </g>
        </g>
      </g>
    </mask>
    <clipPath id="__lottie_element_17">
      <path d="M0,0 L1920,0 L1920,1080 L0,1080z"/>
    </clipPath>
  </defs>
  <g clip-path="url(#__lottie_element_2)" transform="matrix(0.7573490142822266, 0, 0, 0.7980660200119019, -22.610200881958008, -4.868131160736082)" style="">
    <g clip-path="url(#__lottie_element_4)" transform="matrix(0.8999999761581421,0,0,0.8999999761581421,1,-74)" opacity="1" style="display: block;">
      <g clip-path="url(#__lottie_element_9)" transform="matrix(0.23124045133590698,0,0,0.23124045133590698,-121.99082946777344,-24.869842529296875)" opacity="1" style="display: block;">
        <g mask="url(#__lottie_element_13_1)" style="display: block;">
          <g clip-path="url(#__lottie_element_17)" transform="matrix(1,0,0,1,193.74017333984375,0)" opacity="1">
            <g style="display: block;" transform="matrix(1,-0.000003625053977884818,0.000003625053977884818,1,534.6849975585938,610.3482666015625)" opacity="1">
              <g opacity="1" transform="matrix(1,0,0,1,0,0)">
                <path stroke-linecap="butt" stroke-linejoin="miter" fill-opacity="0" stroke-miterlimit="10" stroke-opacity="1" stroke-width="6px" d=" M-62.22999954223633,0 C-62.22999954223633,0 62.22999954223633,0 62.22999954223633,0" style="stroke: rgb(255, 255, 255);"/>
              </g>
            </g>
            <g style="display: block;" transform="matrix(1,-0.000003625053977884818,0.000003625053977884818,1,528.35595703125,601.2522583007812)" opacity="1">
              <g opacity="1" transform="matrix(1,0,0,1,0,0)">
                <path stroke-linecap="butt" stroke-linejoin="miter" fill-opacity="0" stroke-miterlimit="10" stroke-opacity="1" stroke-width="7px" d=" M-54.124000549316406,-11.678000450134277 C-54.124000549316406,-11.678000450134277 54.124000549316406,11.678000450134277 54.124000549316406,11.678000450134277" style="stroke: rgb(255, 255, 255);"/>
              </g>
            </g>
            <g style="display: block;" transform="matrix(1,-0.000003625053977884818,0.000003625053977884818,1,531.2308959960938,590.4532470703125)" opacity="1">
              <g opacity="1" transform="matrix(1,0,0,1,0,0)">
                <path stroke-linecap="butt" stroke-linejoin="miter" fill-opacity="0" stroke-miterlimit="10" stroke-opacity="1" stroke-width="9px" d=" M-51.249000549316406,-22.476999282836914 C-51.249000549316406,-22.476999282836914 51.249000549316406,22.476999282836914 51.249000549316406,22.476999282836914" style="stroke: rgb(255, 255, 255);"/>
              </g>
            </g>
            <g transform="matrix(1,-0.0000036325945984572172,0.0000036325945984572172,1,537.130859375,578.6162109375)" opacity="1" style="display: block;">
              <g opacity="1" transform="matrix(1,0,0,1,0,0)">
                <path stroke-linecap="butt" stroke-linejoin="miter" fill-opacity="0" stroke-miterlimit="10" stroke-opacity="1" stroke-width="11px" d=" M-45.3489990234375,-34.31399917602539 C-45.3489990234375,-34.31399917602539 45.3489990234375,34.31399917602539 45.3489990234375,34.31399917602539" style="stroke: rgb(255, 255, 255);"/>
              </g>
            </g>
            <g transform="matrix(1,-0.000003625053977884818,0.000003625053977884818,1,548.8558349609375,567.1732177734375)" opacity="1" style="display: block;">
              <g opacity="1" transform="matrix(1,0,0,1,0,0)">
                <path stroke-linecap="butt" stroke-linejoin="miter" fill-opacity="0" stroke-miterlimit="10" stroke-opacity="1" stroke-width="15px" d=" M-36.611000061035156,-45.75699996948242 C-36.611000061035156,-45.75699996948242 36.611000061035156,45.75699996948242 36.611000061035156,45.75699996948242" style="stroke: rgb(255, 255, 255);"/>
              </g>
            </g>
            <g transform="matrix(1, -0.000004, 0.000004, 1, 569.605896, 557.619141)" opacity="1" style="display: block;">
              <g opacity="1" transform="matrix(1,0,0,1,0,0)">
                <path stroke-linecap="butt" stroke-linejoin="miter" fill-opacity="0" stroke-miterlimit="10" stroke-opacity="1" stroke-width="16px" d=" M-21.235000610351562,-55.31100082397461 C-21.235000610351562,-55.31100082397461 21.235000610351562,55.31100082397461 21.235000610351562,55.31100082397461" style="stroke: rgb(255, 255, 255);"/>
              </g>
            </g>
            <g transform="matrix(1,-0.000003625053977884818,0.000003625053977884818,1,585.466796875,552.6800537109375)" opacity="1" style="display: block;">
              <g opacity="1" transform="matrix(1,0,0,1,0,0)">
                <path stroke-linecap="butt" stroke-linejoin="miter" fill-opacity="0" stroke-miterlimit="10" stroke-opacity="1" stroke-width="23px" d=" M0,-60.25 C0,-60.25 0,60.25 0,60.25" style="stroke: rgb(255, 255, 255);"/>
              </g>
            </g>
            <g transform="matrix(1,-0.000003625053977884818,0.000003625053977884818,1,959.9996948242188,539.9987182617188)" opacity="1" style="display: block;">
              <g opacity="1" transform="matrix(1,0,0,1,0,0)">
                <path fill-opacity="1" d=" M-424.5400085449219,67.76599884033203 C-424.5400085449219,67.76599884033203 -424.5400085449219,67.76599884033203 -424.5400085449219,67.76599884033203 C-424.5400085449219,67.76599884033203 -424.1969909667969,66.04299926757812 -424.1969909667969,66.04299926757812 C-424.1969909667969,66.04299926757812 -424.1969909667969,66.04299926757812 -424.1969909667969,66.04299926757812 C-424.1969909667969,66.04299926757812 -422.99200439453125,59.67399978637695 -422.99200439453125,59.67399978637695 C-422.99200439453125,59.67399978637695 -422.99200439453125,59.67399978637695 -422.99200439453125,59.67399978637695 C-422.99200439453125,59.67399978637695 -422.4750061035156,57.26499938964844 -422.4750061035156,57.26499938964844 C-422.4750061035156,57.26499938964844 -422.4750061035156,57.26499938964844 -422.4750061035156,57.26499938964844 C-422.4750061035156,57.26499938964844 -419.72100830078125,49.518001556396484 -419.72100830078125,49.518001556396484 C-419.72100830078125,49.518001556396484 -419.72100830078125,49.518001556396484 -419.72100830078125,49.518001556396484 C-419.72100830078125,49.518001556396484 -418.5159912109375,47.79600143432617 -418.5159912109375,47.79600143432617 C-418.5159912109375,47.79600143432617 -418.5159912109375,47.79600143432617 -418.5159912109375,47.79600143432617 C-418.5159912109375,47.79600143432617 -413.52398681640625,39.36199951171875 -413.52398681640625,39.36199951171875 C-413.52398681640625,39.36199951171875 -413.52398681640625,39.36199951171875 -413.52398681640625,39.36199951171875 C-413.52398681640625,39.36199951171875 -411.9739990234375,37.29600143432617 -411.9739990234375,37.29600143432617 C-411.9739990234375,37.29600143432617 -411.9739990234375,37.29600143432617 -411.9739990234375,37.29600143432617 C-411.9739990234375,37.29600143432617 -402.3340148925781,26.795000076293945 -402.3340148925781,26.795000076293945 C-402.3340148925781,26.795000076293945 -402.3340148925781,26.795000076293945 -402.3340148925781,26.795000076293945 C-402.3340148925781,26.795000076293945 -400.6130065917969,25.246000289916992 -400.6130065917969,25.246000289916992 C-400.6130065917969,25.246000289916992 -400.6130065917969,25.246000289916992 -400.6130065917969,25.246000289916992 C-400.6130065917969,25.246000289916992 -387.7019958496094,18.016000747680664 -387.7019958496094,18.016000747680664 C-387.7019958496094,18.016000747680664 -387.7019958496094,18.016000747680664 -387.7019958496094,18.016000747680664 C-387.7019958496094,18.016000747680664 -385.9800109863281,17.5 -385.9800109863281,17.5 C-385.9800109863281,17.5 -385.9800109863281,17.5 -385.9800109863281,17.5 C-385.9800109863281,17.5 -363.0849914550781,17.5 -363.0849914550781,17.5 C-363.0849914550781,17.5 -363.0849914550781,72.93000030517578 -363.0849914550781,72.93000030517578 C-363.0849914550781,72.93000030517578 -424.5400085449219,72.93000030517578 -424.5400085449219,72.93000030517578 C-424.5400085449219,72.93000030517578 -424.5400085449219,67.76599884033203 -424.5400085449219,67.76599884033203z" style="fill: rgb(255, 255, 255);"/>
              </g>
            </g>
            <g style="display: none;">
              <g>
                <path/>
              </g>
            </g>
          </g>
        </g>
      </g>
    </g>
  </g>
</svg>
