<?xml version="1.0" encoding="UTF-8"?><svg id="Layer_2" xmlns="http://www.w3.org/2000/svg" viewBox="0 0 812.88 276.61"><defs><style>.cls-1{fill:#c00;}.cls-2{fill:#fff;}</style></defs><g id="Layer_2-2"><path d="M399.49,204.03c0,2.31-.88,3.47-2.65,3.47h-17.7c-1.76,0-2.65-1.15-2.65-3.47l.37-69.52.55-6.93-.18,1.19-13.87,57.39c-.3,1.22-.64,2.04-1,2.46-.36.43-1.06.64-2.1.64h-13.59c-1.04,0-1.72-.21-2.05-.64-.33-.42-.68-1.25-1.05-2.46l-13.87-57.11.46,5.47.27,69.52c0,2.31-.88,3.47-2.65,3.47h-17.79c-1.7,0-2.55-1.15-2.55-3.47v-119.43c0-2.25.88-3.38,2.65-3.38h23.54c1.03,0,1.7.27,2.01.82.3.55.58,1.34.82,2.37l16.15,62.86.73,4.93.82-4.84,16.33-62.95c.24-1.03.52-1.82.82-2.37.3-.55.97-.82,2.01-.82h23.54c1.7,0,2.55,1.13,2.55,3.38l.09,119.43Z"/><path d="M412.63,110.97c0-4.93.93-9.35,2.78-13.27,1.85-3.92,4.38-7.25,7.57-9.99,3.19-2.74,6.89-4.82,11.08-6.25,4.2-1.43,8.64-2.14,13.32-2.14s9.14.72,13.37,2.14c4.23,1.43,7.94,3.5,11.13,6.2,3.19,2.71,5.73,6.02,7.62,9.94,1.88,3.92,2.83,8.38,2.83,13.37v66.88c0,4.93-.94,9.35-2.83,13.28-1.89,3.92-4.42,7.25-7.62,9.99s-6.9,4.82-11.13,6.25c-4.23,1.43-8.68,2.14-13.37,2.14s-9.12-.75-13.32-2.24c-4.2-1.49-7.89-3.6-11.08-6.34s-5.72-6.05-7.57-9.94c-1.86-3.89-2.78-8.27-2.78-13.14v-66.88ZM437.63,176.57c0,1.46.21,2.84.64,4.15.42,1.31,1.05,2.46,1.87,3.47.82,1,1.84,1.81,3.06,2.42,1.22.61,2.61.91,4.2.91,3.22,0,5.69-1,7.39-3.01,1.7-2.01,2.55-4.47,2.55-7.39v-64.78c0-1.46-.21-2.86-.64-4.2-.43-1.34-1.06-2.52-1.92-3.56-.85-1.03-1.89-1.85-3.1-2.46-1.22-.61-2.59-.91-4.11-.91s-2.98.31-4.2.91c-1.22.61-2.25,1.43-3.1,2.46-.85,1.03-1.5,2.22-1.96,3.56-.46,1.34-.68,2.74-.68,4.2v64.23Z"/><path d="M495.47,84.79c0-1.09.27-1.96.82-2.6.55-.64,1.34-.96,2.37-.96h17.15c.79.06,1.55.33,2.28.82.73.49,1.28,1.25,1.64,2.28l22.63,67.33,2.28,10.49-.46-9.58-1-67.79c0-.97.26-1.81.78-2.51.52-.7,1.35-1.05,2.51-1.05h16.88c.73,0,1.43.24,2.1.73.67.49,1,1.4,1,2.74v119.34c0,2.31-1.16,3.47-3.47,3.47h-16.97c-.85,0-1.69-.23-2.51-.68-.82-.46-1.42-1.2-1.78-2.24l-21.99-64.32-2.37-8.76.55,9.12.82,63.41c.12,2.31-.94,3.47-3.19,3.47h-16.88c-2.13,0-3.19-1.15-3.19-3.47v-119.25Z"/><path d="M581.6,84.79c0-1.09.27-1.96.82-2.6.55-.64,1.34-.96,2.37-.96h55.84c1.76,0,2.65,1.13,2.65,3.38v15.51c0,2.19-.88,3.28-2.65,3.28h-34.03v29.29h27.1c.85,0,1.57.24,2.14.73.58.49.87,1.31.87,2.46v15.6c0,1.09-.27,1.89-.82,2.37-.55.49-1.28.73-2.19.73h-27.1v30.93h34.49c.79,0,1.44.26,1.96.78.52.52.78,1.29.78,2.33v15.69c0,1.09-.26,1.9-.78,2.42s-1.17.78-1.96.78h-56.29c-2.13,0-3.19-1.15-3.19-3.47v-119.25Z"/><path d="M673.39,155.13l-24.36-70.07c-.36-1.15-.36-2.08,0-2.78.37-.7,1.03-1.05,2.01-1.05h18.43c.85,0,1.63.23,2.33.68.7.46,1.2,1.32,1.51,2.6l11.31,40.24,1.28,6.2,1.28-6.2,11.22-40.24c.18-1.15.62-1.99,1.32-2.51.7-.52,1.47-.78,2.33-.78h18.61c1.03,0,1.73.33,2.1,1,.37.67.33,1.61-.09,2.83l-24.18,70.16v48.72c0,2.37-.91,3.56-2.74,3.56h-19.62c-1.83,0-2.74-1.19-2.74-3.56v-48.81Z"/><path class="cls-1" d="M276.48.16v276.46c-92.06,0-184.12,0-276.17,0-.45-.65-.26-1.4-.26-2.1,0-42.61,0-85.21,0-127.82C.04,98.56.03,50.42.04,2.28c0-.7-.19-1.44.23-2.11C.73-.1,1.24.03,1.72.03c91.1,0,182.2,0,273.3,0,.49,0,.99-.12,1.46.13Z"/><path class="cls-2" d="M188.71,117.34c-.08.57-.05,1-.05,1.43,0,9.27-.01,18.54,0,27.81,0,2.18-.22,4.32-.98,6.36-2.56,6.88-7.43,11.11-14.7,12.39-7.63,1.34-15.26-2.51-18.95-8.88-4.48-7.74-8.99-15.47-13.48-23.2-2.85-4.9-5.69-9.79-8.54-14.69-.22-.37-.45-.74-.68-1.11-.33.17-.21.42-.23.62-.02.22,0,.45,0,.67,0,8.77,0,17.55,0,26.32,0,2.3-.22,4.58-.78,6.82-.28,1.14-.66,2.24-1.15,3.31-2.26,4.9-6.11,7.88-11.26,9.26-2.01.54-4.06.78-6.14.78-10.75.01-21.51.1-32.26-.02-23.52-.27-42.7-16.52-47.91-38.1-1.2-4.97-1.65-10.01-1.25-15.13,1.02-13.25,6.43-24.4,16.18-33.38,6.62-6.1,14.41-10.03,23.23-11.89,3.31-.7,6.65-1.07,10.04-1.06,4.99,0,9.99,0,14.98,0,.31,0,.63,0,.94.04.1.01.23.15.26.26.05.17.03.36.03.54,0,3.51,0,7.02,0,10.53,0,.18,0,.36-.02.54-.03.19-.17.32-.36.33-.4.02-.81.03-1.21.03-4.63,0-9.27,0-13.9,0-5.6,0-11.01.99-16.08,3.42-11.46,5.49-18.53,14.49-21.26,26.9-3.73,19.92,8.38,37.9,26.24,43.19,3.2.95,6.48,1.49,9.83,1.49,10.62,0,21.24-.03,31.85.03,3.25.02,6.63-2.42,7.46-5.91.09-.39.15-.8.17-1.2.03-.58.03-1.17.03-1.75,0-19.57,0-39.15,0-58.72,0-.49-.02-.99.03-1.48.14-1.22,1.03-2.24,2.14-2.52,1.23-.31,2.44.16,3.18,1.25.2.3.37.62.55.93,12.68,21.85,25.35,43.71,38.03,65.56.23.39.45.78.68,1.17,1.69,2.82,5.09,3.92,7.8,3.17,2.92-.81,5.03-3.34,5.23-6.47.03-.49.02-.99.02-1.48,0-20.02,0-40.05,0-60.07,0-.49-.01-.99.03-1.48.1-1.24.93-2.24,2.07-2.55,1.15-.31,2.39.11,3.11,1.09.27.36.48.76.7,1.15,12.71,21.93,25.42,43.87,38.14,65.81.2.35.4.71.62,1.04,1.69,2.59,4.77,3.75,7.78,2.94,2.91-.78,5.02-3.47,5.12-6.55.02-.49,0-.99,0-1.48,0-26.01,0-52.01,0-78.02,0-.4,0-.81,0-1.21,0-.35.19-.47.5-.47.22,0,.45,0,.67,0,3.33,0,6.66,0,9.99,0,.22,0,.45,0,.67,0,.25.01.42.13.43.4.01.31.02.63.02.94,0,26.46,0,52.91,0,79.37,0,4.17-1.02,8.02-3.49,11.41-3.02,4.15-7.07,6.69-12.15,7.55-7.82,1.32-15.46-2.68-19.13-9.06-7.24-12.58-14.58-25.12-21.88-37.67-.23-.4-.39-.88-.93-1.27Z"/><path class="cls-2" d="M159.99,113.26c0-.44,0-.88,0-1.32,0-9.31,0-18.63,0-27.94,0-2.69.48-5.28,1.61-7.73,2.78-5.97,7.43-9.64,13.89-10.79,7.85-1.4,15.42,2.49,19.11,8.83,4.02,6.92,8.05,13.83,12.07,20.75,3.32,5.71,6.64,11.43,9.96,17.14.22.38.45.75.67,1.1.32-.06.26-.28.26-.44.02-.4,0-.81,0-1.21,0-14.8,0-29.61,0-44.41,0-1.78-.25-1.58,1.57-1.58,3.1,0,6.21,0,9.31,0,.36,0,.72,0,1.08.03.2.01.33.13.34.34.02.31.02.63.02.94,0,26.28,0,52.55,0,78.83,0,.31.01.63-.01.94-.12,1.39-.94,2.38-2.24,2.7-1.23.3-2.38-.17-3.13-1.3-.25-.37-.47-.77-.69-1.16-12.62-21.78-25.24-43.56-37.86-65.34-.27-.47-.53-.94-.83-1.39-1.42-2.14-4.07-3.63-7.43-2.92-2.74.57-4.89,2.97-5.32,5.81-.11.72-.11,1.43-.11,2.15,0,20.02,0,40.04,0,60.07,0,.49.02.99-.02,1.48-.1,1.33-.9,2.27-2.17,2.59-1.18.3-2.35-.13-3.07-1.16-.26-.37-.47-.77-.7-1.15-11.09-19.13-22.19-38.26-33.28-57.39-1.71-2.96-3.44-5.9-5.14-8.87-.99-1.72-2.38-2.93-4.3-3.44-4.64-1.24-8.58,2.09-8.9,6.2-.04.54-.03,1.08-.03,1.62,0,19.57,0,39.14,0,58.72,0,.4-.03.81,0,1.21.12,1.64-1.51,3.72-3.71,3.66-2.07-.06-4.14-.01-6.21-.01-8.23,0-16.47,0-24.7,0-13.84,0-25.76-8.42-30.84-20.49-2.06-4.9-2.91-10.01-2.51-15.3,1.2-15.88,12.87-27.3,25.94-30.15,2.16-.47,4.33-.79,6.54-.79,5.26,0,10.53,0,15.79,0,.22,0,.45,0,.67.02.2.02.33.13.36.33.02.22.02.45.02.67,0,3.42,0,6.84,0,10.26,0,.18,0,.36-.01.54,0,.28-.18.39-.43.4-.36.01-.72,0-1.08,0-4.81,0-9.63-.03-14.44.01-4.44.04-8.51,1.3-12.12,3.9-4.86,3.52-7.79,8.25-8.68,14.21-1.59,10.61,5.24,21.14,16.43,23.64,1.59.35,3.2.45,4.83.46,5.94,0,11.88,0,17.82,0,.45,0,.9-.02,1.34-.08,1.3-.19,2.29-1.13,2.6-2.41.15-.62.14-1.25.14-1.88,0-11.34,0-22.68,0-34.01,0-4.68.01-9.36,0-14.04,0-2.6.4-5.11,1.45-7.49,2.74-6.17,7.45-9.97,14.08-11.14,7.95-1.4,15.49,2.61,19.16,8.98,5.73,9.93,11.51,19.83,17.27,29.74,1.6,2.76,3.21,5.52,4.81,8.28.18.3.38.59.57.88.08-.03.16-.06.25-.08Z"/><path class="cls-2" d="M87.94,182.05c1.66,1.32,2.5,3.23,2.5,5.73,0,1.52-.36,2.84-1.08,3.96-.72,1.12-1.72,2-3.01,2.63v.04c1.92.6,3.32,1.54,4.18,2.8.86,1.26,1.29,2.81,1.29,4.65s-.47,3.51-1.42,4.84c-.95,1.33-2.23,2.35-3.85,3.04-1.62.69-3.45,1.03-5.49,1.03h-14.56v-30.71h14.08c3.24,0,5.7.66,7.36,1.98ZM73.13,185.33v6.93h6.68c1.32,0,2.33-.29,3.01-.88.69-.59,1.03-1.46,1.03-2.61s-.34-1.97-1.03-2.56c-.69-.59-1.69-.88-3.01-.88h-6.68ZM73.13,197.51v8.01h7.62c1.46,0,2.57-.35,3.32-1.06.75-.7,1.12-1.69,1.12-2.95s-.37-2.25-1.12-2.95c-.75-.7-1.85-1.06-3.32-1.06h-7.62Z"/><path class="cls-2" d="M122.28,208.88c.13.69.32,1.32.58,1.89h-6.8c-.29-.83-.55-2.15-.78-3.96l-.52-3.92c-.17-1.35-.6-2.32-1.29-2.91-.69-.59-1.78-.88-3.27-.88h-6.67v11.67h-6.76v-30.71h14.08c3.67,0,6.4.75,8.16,2.26s2.65,3.64,2.65,6.4c0,1.81-.39,3.36-1.16,4.65s-1.94,2.27-3.49,2.93c1.35.46,2.35,1.16,3.01,2.11.66.95,1.09,2.18,1.29,3.7l.52,3.79c.17,1.29.32,2.28.45,2.97ZM114.9,189.59c0-2.84-1.67-4.26-5-4.26h-6.37v8.53h6.37c3.33,0,5-1.42,5-4.26Z"/><path class="cls-2" d="M148.06,203.89h-11.46l-2.15,6.89h-7.23l10.16-30.71h9.82l10.38,30.71h-7.28l-2.24-6.89ZM142.12,184.94l-4.05,13.69h8.61l-4.26-13.69h-.3Z"/><path class="cls-2" d="M178.18,180.29c1.77.72,3.16,1.76,4.18,3.12,1.02,1.36,1.53,2.98,1.53,4.85h-6.76c-.14-1.18-.65-2.07-1.53-2.69-.88-.62-2.12-.93-3.73-.93-1.03,0-1.94.15-2.71.45s-1.37.73-1.79,1.29c-.42.56-.62,1.18-.62,1.87,0,.86.25,1.55.75,2.07.5.52,1.18.86,2.05,1.03l7.84,1.68c2.53.55,4.42,1.54,5.68,2.99,1.26,1.45,1.89,3.32,1.89,5.62,0,1.98-.5,3.7-1.49,5.17-.99,1.46-2.4,2.6-4.22,3.4-1.82.8-3.96,1.21-6.4,1.21-2.61,0-4.9-.38-6.85-1.14-1.95-.76-3.47-1.87-4.54-3.34-1.08-1.46-1.61-3.2-1.61-5.21v-.34h6.76v.26c0,1.29.51,2.34,1.53,3.14,1.02.8,2.53,1.21,4.54,1.21,1.89,0,3.3-.34,4.22-1.03.92-.69,1.38-1.59,1.38-2.71,0-1-.32-1.79-.95-2.37-.63-.57-1.72-1.03-3.27-1.38l-6.63-1.42c-2.5-.52-4.35-1.49-5.56-2.93-1.21-1.44-1.81-3.26-1.81-5.47,0-2.01.53-3.73,1.59-5.17,1.06-1.44,2.51-2.51,4.35-3.23,1.84-.72,3.9-1.08,6.2-1.08s4.2.36,5.96,1.08Z"/><path class="cls-2" d="M198.27,210.78h-6.85v-30.71h6.85v30.71Z"/><path class="cls-2" d="M212.35,205.18h14.47v5.6h-21.32v-30.71h6.85v25.11Z"/><rect class="cls-1" x="741.76" y="148.67" width="19.9" height="58.83"/><rect class="cls-1" x="767.81" y="163.01" width="20.2" height="44.49"/><rect class="cls-1" x="792.69" y="117.06" width="20.2" height="90.44"/></g></svg>