<svg width="90" height="31" viewBox="0 0 90 31" fill="none" xmlns="http://www.w3.org/2000/svg">
<g clip-path="url(#clip0_418_1563)">
<path d="M34.6849 9.04268C34.0413 8.37415 33.3513 7.96711 32.8748 7.96711H32.4462V7.59646H32.8036C32.9692 7.59646 34.9231 7.67463 35.1135 7.67463C35.4243 7.67463 36.3266 7.59646 36.5183 7.59646H36.8989L45.9605 17.4962V9.68694C45.9605 8.44559 45.4128 7.96711 44.034 7.96711H43.6287V7.59646H44.0573C44.1052 7.59646 46.1508 7.67463 46.3165 7.67463C46.5534 7.67463 47.9103 7.59646 48.1718 7.59646H48.4347L48.458 7.96711C47.1955 8.06281 46.8628 8.39842 46.8628 9.49689V21.843H46.4356L35.6132 10.0225V18.9182C35.6132 20.7836 36.0432 21.285 37.6123 21.285H38.0162V21.6839H37.563C37.2303 21.6839 35.5899 21.6031 35.2079 21.6031C34.9943 21.6031 33.4704 21.6839 33.1377 21.6839H32.7556V21.285C34.3522 21.1408 34.6863 20.8779 34.6863 19.7309L34.6849 9.04268ZM51.0883 9.18555C51.0883 8.2542 50.7309 7.96711 49.6109 7.96711H49.2549V7.59646H50.1832C50.8267 7.59646 54.3019 7.67463 54.3265 7.67463C54.8249 7.67463 58.1289 7.59646 58.8395 7.59646H59.7911L59.839 10.6655H59.4693C59.3968 9.06424 58.6752 8.41863 57.0116 8.41863H53.6843V13.845H56.5597C57.677 13.845 58.2959 13.3193 58.4616 12.1939L58.886 12.2182V16.5015H58.4849C58.2959 15.1632 57.6058 14.6375 55.9422 14.6375H53.6611V19.5867C53.6611 20.3995 54.0663 20.8065 54.8728 20.8065H57.2498C58.7916 20.8065 59.9116 20.1124 60.577 18.6769H61.007L60.0061 21.6826C59.3146 21.6826 56.038 21.6044 54.9454 21.6044C54.2074 21.6044 50.6597 21.6583 49.8491 21.6826H49.2302V21.285H49.6109C50.7309 21.2621 51.0896 20.975 51.0896 20.0409L51.0883 9.18555ZM73.9558 21.8686H73.289L70.5724 14.4407L67.786 21.8699H67.1425L62.4953 9.4012C62.1393 8.44424 61.8039 8.06281 61.185 7.94555V7.59511H61.5903C61.8518 7.59511 63.1635 7.67463 63.473 7.67463C63.7345 7.67463 65.0914 7.59646 65.3776 7.59646H65.8075V7.96711C65.116 7.99272 64.8299 8.18276 64.8299 8.5642C64.8299 8.77985 64.9011 9.08985 65.0216 9.42546L68.2844 18.2632L70.1425 13.2223L68.928 9.83116C68.4036 8.37416 67.9503 7.99272 66.8057 7.96711V7.59646H67.1891C67.5218 7.59646 69.2374 7.67463 69.6441 7.67463C69.9754 7.67463 71.6911 7.59646 72.0717 7.59646H72.6427V7.96711H72.0717C71.2858 7.96711 70.9051 8.1585 70.9051 8.5642C70.9051 8.77985 71.001 9.16263 71.1434 9.54407L74.3118 18.3346L76.8134 10.8811C77.1228 9.9255 77.2652 9.30415 77.2652 8.92272C77.2652 8.2542 76.9325 7.96576 76.1945 7.96576H75.7659V7.59646H75.885C76.2178 7.59646 77.0503 7.67463 77.5514 7.67463C77.7883 7.67463 78.7166 7.59646 79.1671 7.59646H79.3355V7.96711C78.7385 8.13559 78.4318 8.5642 77.9567 10.0225L73.9544 21.8699L73.9558 21.8686ZM79.4464 18.4141C79.827 19.3414 80.1584 19.7727 80.7992 20.2485C81.6071 20.8685 82.6751 21.1785 83.8622 21.1785C85.9037 21.1785 87.2811 20.1056 87.2811 18.5556C87.2811 17.41 86.6157 16.79 84.1566 15.6241C81.7741 14.4785 81.1799 13.907 80.6814 13.4299C79.9462 12.6427 79.6381 11.9284 79.6381 10.9741C79.6381 8.7812 81.4181 7.32959 84.1086 7.32959C84.9192 7.32959 85.801 7.4482 86.7554 7.68542C87.136 7.77976 87.518 7.82829 87.733 7.82829C87.922 7.82829 88.0192 7.78111 88.089 7.62207H88.4998L88.5463 10.6264H88.2081C87.9945 9.91068 87.8521 9.60202 87.5413 9.21115C86.8731 8.42268 85.8243 7.99407 84.4783 7.99407C82.7695 7.99407 81.6522 8.80411 81.6522 10.0212C81.6522 11.0698 82.2958 11.6655 84.5742 12.7142C87.4961 14.0728 89.2652 15.2899 89.2652 17.5299C89.2652 20.1043 87.1607 21.843 84.0525 21.843C83.2043 21.8359 82.3599 21.7323 81.5359 21.5343C81.2551 21.4703 80.9692 21.4302 80.6814 21.4144C80.3953 21.4144 80.3022 21.4629 80.1132 21.6839H79.7093L79.6614 21.3497C79.4998 20.4062 79.3081 19.4654 79.089 18.5327L79.4464 18.4141ZM5.7681 13.1172C5.40936 13.1172 5.06979 13.198 4.76856 13.3436C3.96483 13.7358 3.45821 14.5432 3.46095 15.4273C3.46095 16.7024 4.49472 17.7375 5.76673 17.7375C7.04149 17.7375 8.07252 16.7024 8.07252 15.4273C8.07252 14.1509 7.04149 13.1158 5.76673 13.1158L5.7681 13.1172ZM15.7073 13.1172C14.434 13.1172 13.4002 14.1509 13.4002 15.4273C13.4002 16.7024 14.4326 17.7375 15.7073 17.7375C16.9807 17.7375 18.0131 16.7024 18.0131 15.4273C18.0131 14.1509 16.9794 13.1158 15.7073 13.1158V13.1172Z" fill="black"/>
<path d="M25.622 20.049C23.0725 20.049 21.0077 17.98 21.0077 15.4259C21.0077 12.8745 23.0725 10.8056 25.622 10.8056C27.8073 10.8056 29.6366 12.3313 30.113 14.3773H27.6758C27.4864 13.9999 27.1939 13.6819 26.8311 13.459C26.4683 13.2362 26.0496 13.1173 25.622 13.1157C24.3458 13.1157 23.3134 14.1509 23.3134 15.4273C23.3134 16.7023 24.3458 17.7374 25.6206 17.7374C26.0493 17.7359 26.469 17.6164 26.8324 17.3925C27.1958 17.1687 27.4884 16.8493 27.6772 16.4705L30.1185 16.4476C29.6544 18.5097 27.8196 20.049 25.622 20.049ZM15.7074 20.049C13.1702 20.049 11.1122 17.9976 11.0944 15.4596L11.0397 7.35108H13.3728L13.3865 11.7019C14.0698 11.1681 14.8612 10.8056 15.7074 10.8056C18.2541 10.8056 20.3189 12.8745 20.3189 15.4273C20.3189 17.98 18.2528 20.049 15.7074 20.049ZM8.11361 20.049L8.10403 18.8912C7.58098 19.4155 6.67592 20.049 5.60655 20.049C3.05978 20.049 1.15518 17.98 1.15518 15.4259C1.15518 12.8745 3.21998 10.8056 5.76675 10.8056C6.16383 10.8056 6.55132 10.8554 6.92101 10.9511C8.91051 11.4633 10.3797 13.2734 10.3797 15.4259V15.4394L10.4071 20.049H8.11361ZM15.7074 0.0229492C7.2154 0.0229492 0.332275 6.91978 0.332275 15.4273C0.332275 23.9347 7.2154 30.8329 15.7074 30.8329C24.1966 30.8329 31.0811 23.9347 31.0811 15.4273C31.0811 6.91978 24.1966 0.0229492 15.7074 0.0229492Z" fill="black"/>
</g>
<defs>
<clipPath id="clip0_418_1563">
<rect width="89" height="31" fill="white" transform="translate(0.332275)"/>
</clipPath>
</defs>
</svg>
