<svg width="160" height="48" viewBox="0 0 160 48" fill="none" xmlns="http://www.w3.org/2000/svg">
<rect width="160" height="48" fill="#002852"/>
<path fill-rule="evenodd" clip-rule="evenodd" d="M147.898 12.8C150.66 12.8 152.909 15.028 152.909 17.7944C152.909 20.5607 150.66 22.7888 147.898 22.7888C145.136 22.7888 142.887 20.5458 142.887 17.7944C142.887 15.043 145.136 12.8 147.898 12.8ZM47.6645 13.0243C49.3097 13.0243 50.6228 13.3084 51.6038 13.8617C52.5698 14.4 53.3546 15.2075 53.8527 16.1944C54.3658 17.1813 54.713 18.3776 54.8639 19.7682C55.0148 21.1589 55.0903 22.6691 55.0903 24.314C55.0903 25.9589 55.0148 27.4991 54.8639 28.8748C54.713 30.2505 54.3809 31.4467 53.8527 32.4336C53.3546 33.4056 52.5698 34.1981 51.6038 34.7215C50.6228 35.2448 49.3097 35.514 47.6645 35.514C46.0194 35.514 44.7063 35.2448 43.7252 34.7215C42.7593 34.2131 41.9744 33.4056 41.4764 32.4336C40.9632 31.4467 40.616 30.2505 40.4651 28.8748C40.2991 27.3645 40.2236 25.8392 40.2387 24.314C40.2387 22.6691 40.3142 21.1589 40.4651 19.7682C40.616 18.3776 40.9481 17.1813 41.4764 16.1944C41.9744 15.2224 42.7593 14.4149 43.7252 13.8617C44.7063 13.3084 46.0194 13.0243 47.6645 13.0243ZM117.138 13.0243C118.783 13.0243 120.096 13.3084 121.077 13.8617C122.043 14.4 122.828 15.2075 123.326 16.1944C123.839 17.1813 124.186 18.3776 124.337 19.7682C124.488 21.1589 124.564 22.6691 124.564 24.314C124.564 25.9589 124.488 27.4991 124.337 28.8748C124.186 30.2505 123.854 31.4467 123.326 32.4336C122.828 33.4056 122.043 34.1981 121.077 34.7215C120.096 35.2448 118.783 35.514 117.138 35.514C115.493 35.514 114.18 35.2448 113.199 34.7215C112.233 34.2131 111.448 33.4056 110.95 32.4336C110.437 31.4467 110.09 30.2505 109.939 28.8748C109.773 27.3645 109.697 25.8392 109.712 24.314C109.712 22.6691 109.788 21.1589 109.939 19.7682C110.09 18.3776 110.422 17.1813 110.95 16.1944C111.448 15.2224 112.233 14.4149 113.199 13.8617C114.18 13.3084 115.493 13.0243 117.138 13.0243ZM24.9343 13.4579H32.2998C33.1903 13.4579 34.0204 13.5477 34.7901 13.7271C35.5599 13.9065 36.2089 14.2205 36.7673 14.6392C37.3107 15.0579 37.7484 15.6262 38.0502 16.3439C38.3521 17.0617 38.503 17.929 38.503 18.9607C38.503 19.9925 38.2313 21.1439 37.6729 21.9813C37.1295 22.8187 36.2994 23.4019 35.1976 23.7009V23.7607C36.4202 23.9252 37.3861 24.4336 38.0955 25.3159C38.8049 26.1832 39.1671 27.3495 39.1671 28.8149C39.1671 30.2804 39.0615 30.4748 38.8351 31.2523C38.6238 32.0149 38.2313 32.7028 37.688 33.271C37.1446 33.8542 36.4504 34.3177 35.575 34.6617C34.7147 35.0056 33.628 35.185 32.345 35.185H24.9192V13.4579H24.9343ZM66.229 13.4579H70.6362V28.6206C70.6362 29.9963 70.44 31.1327 70.0476 32.0448C69.6551 32.942 69.142 33.6598 68.493 34.1981C67.844 34.7215 67.0742 35.0953 66.2592 35.2598C65.3989 35.4392 64.5386 35.529 63.6632 35.529C62.7878 35.529 61.9275 35.4542 61.0672 35.2897C60.2521 35.1402 59.4975 34.7963 58.8334 34.3028C58.1844 33.8093 57.6561 33.1065 57.2788 32.1944C56.8864 31.2822 56.7053 30.1009 56.7053 28.6355V13.4579H61.1125V28.6206C61.1125 29.1738 61.1426 29.6673 61.2181 30.1308C61.2936 30.5944 61.4294 30.9832 61.6105 31.3121C61.8067 31.6411 62.0633 31.9103 62.4105 32.1047C62.7425 32.2991 63.1651 32.3888 63.6783 32.3888C64.1914 32.3888 64.6291 32.2991 64.9612 32.1047C65.2932 31.9103 65.5498 31.6411 65.7309 31.3121C65.9271 30.9832 66.063 30.5794 66.1234 30.1308C66.1988 29.6673 66.229 29.1738 66.229 28.6206V13.4579ZM71.8286 13.4579H85.7595V17.0467H80.9901V35.185H76.5829V17.0467H71.8135V13.4579H71.8286ZM94.272 13.4579H99.2225L102.09 21.8617H102.151L105.214 13.4579H109.984L104.324 26.6318V35.185H99.9168V26.6318L94.2569 13.4579H94.272ZM135.657 13.4579H140.064V28.6206C140.064 29.9963 139.868 31.1327 139.476 32.0448C139.083 32.942 138.57 33.6598 137.921 34.1981C137.272 34.7215 136.502 35.0953 135.687 35.2598C134.827 35.4392 133.967 35.529 133.091 35.529C132.216 35.529 131.356 35.4542 130.495 35.2897C129.68 35.1402 128.926 34.7963 128.262 34.3028C127.613 33.8093 127.084 33.1065 126.707 32.1944C126.315 31.2822 126.133 30.1009 126.133 28.6355V13.4579H130.541V28.6206C130.541 29.1738 130.571 29.6673 130.646 30.1308C130.722 30.5944 130.858 30.9832 131.039 31.3121C131.235 31.6411 131.492 31.9103 131.839 32.1047C132.171 32.2991 132.593 32.3888 133.106 32.3888C133.62 32.3888 134.057 32.2991 134.389 32.1047C134.721 31.9103 134.978 31.6411 135.174 31.3121C135.37 30.9832 135.506 30.5794 135.567 30.1308C135.642 29.6673 135.672 29.1738 135.672 28.6206V13.4579H135.657ZM12.1807 13.4579H17.6293L23.4099 35.185H18.8216L17.8104 30.5944H11.9996L10.9883 35.185H6.40002L12.1807 13.4579ZM147.898 14.3252C145.981 14.3252 144.411 15.8804 144.411 17.7944C144.411 19.7084 145.981 21.2635 147.898 21.2635C149.815 21.2635 151.384 19.7084 151.384 17.7944C151.384 15.8804 151.188 16.4785 150.841 15.9402L149.301 17.4654L148.215 16.3888L149.754 14.8635C149.196 14.5047 148.547 14.3252 147.883 14.3252H147.898ZM47.6645 16.2542C47.0155 16.2542 46.4873 16.4037 46.0948 16.7028C45.7024 17.0019 45.4006 17.4654 45.1742 18.1234C44.9629 18.7663 44.8119 19.6037 44.7516 20.6205C44.6761 21.8617 44.6308 23.1028 44.6459 24.329C44.6459 25.7944 44.6761 27.0355 44.7516 28.0523C44.827 29.0841 44.9629 29.9065 45.1742 30.5495C45.3855 31.1925 45.6873 31.6561 46.0948 31.9551C46.4873 32.2542 47.0155 32.4037 47.6645 32.4037C48.3135 32.4037 48.8418 32.2542 49.2342 31.9701C49.6266 31.671 49.9285 31.2075 50.1549 30.5645C50.3662 29.9215 50.5171 29.0991 50.5775 28.0673C50.6529 27.0355 50.6831 25.7944 50.6831 24.3439C50.6831 22.8934 50.6529 21.6523 50.5775 20.6355C50.502 19.6187 50.3662 18.7962 50.1549 18.1383C49.9436 17.4953 49.6417 17.0168 49.2342 16.7177C48.8418 16.4187 48.3135 16.2691 47.6645 16.2691V16.2542ZM117.138 16.2542C116.489 16.2542 115.961 16.4037 115.568 16.7028C115.176 17.0019 114.859 17.4654 114.648 18.1234C114.436 18.7663 114.285 19.6037 114.225 20.6205C114.15 21.8617 114.104 23.1028 114.119 24.329C114.119 25.7944 114.15 27.0355 114.225 28.0523C114.3 29.0841 114.436 29.9065 114.648 30.5495C114.859 31.1925 115.161 31.6561 115.568 31.9551C115.961 32.2542 116.489 32.4037 117.138 32.4037C117.787 32.4037 118.315 32.2542 118.708 31.9701C119.1 31.671 119.417 31.2075 119.628 30.5645C119.84 29.9215 119.991 29.0991 120.051 28.0673C120.126 27.0355 120.157 25.7944 120.157 24.3439C120.157 22.8934 120.126 21.6523 120.051 20.6355C119.975 19.6187 119.84 18.7962 119.628 18.1383C119.417 17.4953 119.115 17.0168 118.708 16.7177C118.315 16.4187 117.787 16.2691 117.138 16.2691V16.2542ZM29.3264 16.6729V22.3701H30.5791C31.8017 22.3701 32.6922 22.1458 33.2506 21.7121C33.8091 21.2785 34.0958 20.5458 34.0958 19.4991C34.0958 18.4523 33.8393 17.7346 33.3261 17.3009C32.8129 16.8673 32.013 16.6579 30.9112 16.6579H29.3264V16.6729ZM14.9276 17.2262H14.8672L12.7542 26.9906H17.0256L14.9125 17.2262H14.9276ZM29.3264 25.4205V31.9701H31.0319C32.0885 31.9701 32.9488 31.7308 33.5978 31.2673C34.2468 30.8037 34.5788 29.9364 34.5788 28.6804C34.5788 27.4243 34.4883 27.529 34.3222 27.1103C34.1713 26.7215 33.9298 26.3776 33.6129 26.1084C33.311 25.8542 32.9488 25.6748 32.5563 25.5701C32.1186 25.4654 31.6658 25.4205 31.2131 25.4205H29.3264Z" fill="white"/>
</svg>
