<svg width="30" height="30" viewBox="0 0 30 30" fill="none" xmlns="http://www.w3.org/2000/svg">
<path d="M11.9408 24.7777C11.7635 24.7777 11.5863 24.7336 11.4533 24.6894C10.7443 24.4243 10.3898 23.629 10.6114 22.9221L11.1431 21.4641C12.1623 18.5038 12.6055 16.2947 12.6055 13.5995C12.6055 13.5554 12.5611 13.5112 12.5168 13.5112L8.08552 12.495C7.37651 12.3624 6.88907 11.6997 7.02201 11.037C7.06632 10.6835 7.24357 10.4184 7.55376 10.1975C7.86396 9.97657 8.21846 9.93239 8.57297 9.97657L12.251 10.5509C12.8713 10.6393 13.536 10.7277 14.2007 10.7277C14.378 10.7277 14.5109 10.9044 14.5109 11.0811C14.5109 11.2579 14.3337 11.3904 14.1564 11.3904C13.4917 11.3462 12.827 11.3021 12.1623 11.1695L8.48434 10.5951C8.30709 10.5509 8.12983 10.5951 7.95258 10.7277C7.81964 10.816 7.73102 10.9928 7.6867 11.1253C7.64239 11.4788 7.86396 11.7881 8.26277 11.8764L12.6941 12.8926C13.0486 12.981 13.2702 13.2461 13.2702 13.5995C13.2702 16.3389 12.8713 18.6364 11.8078 21.685L11.2761 23.143C11.1431 23.5406 11.3647 23.9383 11.7192 24.0708C11.9408 24.1592 12.1623 24.115 12.3396 24.0266C12.5168 23.9383 12.6498 23.8057 12.7384 23.5848L14.7768 18.2387C14.8211 18.062 14.9984 17.9736 15.1756 17.9736C15.3529 17.9736 15.4858 18.062 15.5744 18.2387L17.4799 23.629C17.5685 23.9383 17.8787 24.115 18.2332 24.115C18.3219 24.115 18.4105 24.115 18.4991 24.0708C18.7207 24.0266 18.8536 23.8499 18.9422 23.6732C19.0309 23.4965 19.0309 23.3197 18.9866 23.143L18.4548 21.6408C17.3913 18.5922 16.9925 16.3389 16.9925 13.5554C16.9925 13.2019 17.2583 12.8926 17.5685 12.8484L21.9998 11.8322C22.3544 11.7439 22.6202 11.4346 22.5759 11.0811C22.5316 10.9044 22.443 10.7719 22.31 10.6835C22.1771 10.5951 21.9555 10.5509 21.7783 10.5509L18.1003 11.1253C17.4356 11.2137 16.7709 11.302 16.1062 11.3462C15.9289 11.3462 15.796 11.2137 15.7517 11.037C15.7517 10.8602 15.8846 10.7277 16.0619 10.6835C16.6823 10.6393 17.347 10.5951 17.9674 10.5068L21.6453 9.93239C21.9998 9.88821 22.3544 9.93239 22.6645 10.1533C22.9304 10.3742 23.152 10.6393 23.1963 10.9928C23.2849 11.6555 22.8418 12.3183 22.1328 12.4508L17.7015 13.467C17.6572 13.467 17.6128 13.5112 17.6128 13.5554C17.6128 16.2505 18.0117 18.4596 19.0752 21.4199L19.6069 22.9221C19.7399 23.2755 19.6956 23.629 19.5626 23.9825C19.3854 24.3359 19.1195 24.5568 18.7207 24.6894C18.5877 24.7336 18.4105 24.7777 18.2775 24.7777C17.6572 24.7777 17.1254 24.4243 16.9481 23.8499L15.1313 19.0782L13.3145 23.8499C13.1815 24.2034 12.9157 24.4685 12.6055 24.6452C12.3839 24.6894 12.1623 24.7777 11.9408 24.7777Z" fill="white" stroke="white" stroke-width="0.2" stroke-miterlimit="10"/>
<path d="M15.0871 10.4183C13.8463 10.4183 12.8715 9.44624 12.8715 8.20913C12.8715 6.97202 13.8463 6 15.0871 6C16.3279 6 17.3028 6.97202 17.3028 8.20913C17.3028 9.40206 16.3279 10.4183 15.0871 10.4183ZM15.0871 6.61856C14.2009 6.61856 13.4918 7.32548 13.4918 8.20913C13.4918 9.09278 14.2009 9.79971 15.0871 9.79971C15.9734 9.79971 16.6824 9.09278 16.6824 8.20913C16.6824 7.32548 15.9734 6.61856 15.0871 6.61856Z" fill="white" stroke="white" stroke-width="0.2" stroke-miterlimit="10"/>
<path d="M15 30C10.9968 30 7.23473 28.4566 4.38907 25.6109C1.54341 22.7653 0 19.0032 0 15C0 10.9968 1.54341 7.23473 4.38907 4.38907C7.23473 1.54341 10.9968 0 15 0C19.0032 0 22.7653 1.54341 25.6109 4.38907C28.4566 7.23473 30 10.9968 30 15C30 19.0032 28.4566 22.7653 25.6109 25.6109C22.8135 28.4084 19.0032 30 15 30ZM15 0.62701C11.1897 0.62701 7.57235 2.12219 4.87138 4.82315C2.17042 7.52412 0.675241 11.1415 0.675241 14.9518C0.675241 18.7621 2.17042 22.3794 4.87138 25.0804C7.57235 27.7813 11.1897 29.2765 15 29.2765C18.8103 29.2765 22.4277 27.7813 25.1286 25.0804C27.8296 22.3794 29.3248 18.7621 29.3248 14.9518C29.3248 11.1415 27.8296 7.52412 25.1286 4.82315C22.4277 2.12219 18.8585 0.62701 15 0.62701Z" fill="white"/>
</svg>
