<svg width="160" height="48" viewBox="0 0 160 48" fill="none" xmlns="http://www.w3.org/2000/svg">
<g clip-path="url(#clip0_874_23324)">
<rect width="160" height="48" fill="#002852"/>
<path d="M91.7013 31.6675L76.8381 6.07624L87.5159 0L105.998 31.6675H91.7013Z" fill="white"/>
<path d="M52.1123 28.0819L62.79 21.9646L68.4397 31.6674H54.1843L52.1123 28.0819Z" fill="white"/>
<path d="M73.0671 47.9939H76.1061V35.8141H73.0671V47.9939Z" fill="white"/>
<path d="M111.151 48.2812C107.753 48.2812 105.708 46.5432 105.598 44.0936H108.802C108.802 44.8599 109.286 45.9821 111.358 46.0232C112.739 46.0232 113.388 45.2157 113.388 44.6136C113.306 43.6556 112.09 43.5735 110.791 43.3682C109.493 43.163 108.388 42.9303 107.587 42.5198C106.565 41.9997 105.874 40.8775 105.874 39.5911C105.874 37.4152 107.78 35.6909 110.957 35.6909C114.038 35.6909 115.985 37.292 116.193 39.6732H113.098C113.071 39.03 112.946 38.0173 111.123 38.0173C109.894 38.0173 109.079 38.2637 109.01 39.1122C109.01 40.3575 111.565 40.2754 113.554 40.7954C115.46 41.2744 116.676 42.4513 116.676 44.0936C116.676 47.118 114.203 48.2812 111.151 48.2812Z" fill="white"/>
<path d="M64.6272 17.2159L75.3049 11.1123L87.2811 31.6675H76.1061V34.6782H73.0672V31.6538L64.6272 17.2159Z" fill="white"/>
<path d="M64.9033 48.2815C61.3671 48.2815 58.4939 45.4213 58.4939 41.9589C58.4939 38.4555 61.3671 35.6911 64.9033 35.6911C66.2432 35.6911 67.4588 36.0469 68.5224 36.7722V31.6677H71.5613V47.9941H68.5224V47.1867C67.4588 47.8709 66.2432 48.2815 64.9033 48.2815ZM61.4085 41.9589C61.4085 43.8475 63.0385 45.4213 64.9862 45.4213C66.8924 45.4213 68.5224 43.8475 68.5224 41.9589C68.5224 40.0704 66.8924 38.4555 64.9862 38.4555C63.0385 38.4555 61.4085 40.0704 61.4085 41.9589Z" fill="white"/>
<path d="M87.3639 31.6677H90.3614V47.9941H87.3639V47.1867C86.3418 47.8709 85.0847 48.2815 83.7034 48.2815C80.2086 48.2815 77.3354 45.4213 77.3354 41.9589C77.3354 38.4555 80.2086 35.6911 83.7034 35.6911C85.0847 35.6911 86.3003 36.0469 87.3639 36.7722V31.6677ZM80.2915 41.9589C80.2915 43.8475 81.9215 45.4213 83.7863 45.4213C85.734 45.4213 87.3639 43.8475 87.3639 41.9589C87.3639 40.0704 85.734 38.4555 83.7863 38.4555C81.9215 38.4555 80.2915 40.0704 80.2915 41.9589Z" fill="white"/>
<path d="M97.7517 48.2812C94.2708 48.2812 91.3838 45.421 91.3838 41.9587C91.3838 38.4553 94.2708 35.6909 97.7517 35.6909C99.0916 35.6909 100.349 36.0467 101.371 36.772V35.8003H104.41V47.9938H101.371V47.1864C100.349 47.8707 99.1331 48.2812 97.7517 48.2812ZM94.3399 41.9587C94.3399 43.8472 95.9698 45.421 97.8761 45.421C99.7823 45.421 101.371 43.8472 101.371 41.9587C101.371 40.0701 99.7823 38.4553 97.8761 38.4553C95.9698 38.4553 94.3399 40.0701 94.3399 41.9587Z" fill="white"/>
<path d="M47.3191 41.9587C47.3191 43.8472 48.949 45.421 50.8553 45.421C52.803 45.421 54.4329 43.8472 54.4329 41.9587C54.4329 40.0701 52.803 38.4553 50.8553 38.4553C48.949 38.4553 47.3191 40.0701 47.3191 41.9587ZM50.7724 48.2812C47.2776 48.2812 44.3906 45.421 44.3906 41.9587C44.3906 38.4553 47.2776 35.6909 50.7724 35.6909C52.1123 35.6909 53.3693 36.0467 54.4329 36.772V35.8003H57.4304V47.9938H54.4329V47.1864C53.4107 47.8707 52.1537 48.2812 50.7724 48.2812Z" fill="white"/>
</g>
<defs>
<clipPath id="clip0_874_23324">
<rect width="160" height="48" fill="white"/>
</clipPath>
</defs>
</svg>
