<svg width="63" height="63" viewBox="0 0 63 63" fill="none" xmlns="http://www.w3.org/2000/svg">
<g clip-path="url(#clip0_1174_459)">
<path d="M51.3333 0H11.6667C5.22334 0 0 5.22334 0 11.6667V51.3333C0 57.7767 5.22334 63 11.6667 63H51.3333C57.7767 63 63 57.7767 63 51.3333V11.6667C63 5.22334 57.7767 0 51.3333 0Z" fill="#0056F0"/>
<path d="M34.4721 30.4294H28.4521C27.1167 30.4294 26.0342 31.512 26.0342 32.8474V46.5703C26.0342 47.9057 27.1167 48.9882 28.4521 48.9882H34.4721C35.8075 48.9882 36.89 47.9057 36.89 46.5703V32.8474C36.89 31.512 35.8075 30.4294 34.4721 30.4294Z" fill="#7BCDFF"/>
<path d="M21.2771 39.7104H15.2571C13.9217 39.7104 12.8392 40.793 12.8392 42.1284V46.5705C12.8392 47.9058 13.9217 48.9884 15.2571 48.9884H21.2771C22.6125 48.9884 23.695 47.9058 23.695 46.5705V42.1284C23.695 40.793 22.6125 39.7104 21.2771 39.7104Z" fill="#F2F5F7"/>
<path d="M47.4571 14.2976H41.4371C40.1017 14.2976 39.0192 15.3801 39.0192 16.7155V46.5705C39.0192 47.9059 40.1017 48.9884 41.4371 48.9884H47.4571C48.7925 48.9884 49.875 47.9059 49.875 46.5705V16.7155C49.875 15.3801 48.7925 14.2976 47.4571 14.2976Z" fill="#F2F5F7"/>
<path d="M18.0512 13.4035C17.3646 15.7371 13.8363 19.2654 11.5027 19.952C11.3836 19.9877 11.3836 20.1544 11.5027 20.1881C13.8363 20.8747 17.3646 24.403 18.0512 26.7366C18.0869 26.8557 18.2536 26.8557 18.2873 26.7366C18.9739 24.403 22.5022 20.8747 24.8358 20.1881C24.9549 20.1524 24.9549 19.9857 24.8358 19.952C22.5022 19.2654 18.9739 15.7371 18.2873 13.4035C18.2516 13.2844 18.0849 13.2844 18.0512 13.4035Z" fill="white"/>
<path d="M25.193 14.3978C24.6096 14.118 23.8833 13.3897 23.6035 12.8083C23.5559 12.711 23.415 12.711 23.3693 12.8083C23.0895 13.3917 22.3613 14.118 21.7798 14.3978C21.6826 14.4454 21.6826 14.5863 21.7798 14.6319C22.3632 14.9117 23.0895 15.64 23.3693 16.2214C23.417 16.3187 23.5578 16.3187 23.6035 16.2214C23.8833 15.638 24.6116 14.9117 25.193 14.6319C25.2902 14.5843 25.2902 14.4434 25.193 14.3978Z" fill="white"/>
<path d="M13.9058 25.2763C13.489 25.0381 13.0148 24.5639 12.7766 24.1471C12.7092 24.0301 12.5365 24.0301 12.4691 24.1471C12.2309 24.5639 11.7567 25.0381 11.3399 25.2763C11.2229 25.3437 11.2229 25.5164 11.3399 25.5838C11.7567 25.822 12.2309 26.2962 12.4691 26.713C12.5365 26.83 12.7092 26.83 12.7766 26.713C13.0148 26.2962 13.489 25.822 13.9058 25.5838C14.0228 25.5164 14.0228 25.3437 13.9058 25.2763Z" fill="white"/>
</g>
<defs>
<clipPath id="clip0_1174_459">
<rect width="63" height="63" fill="white"/>
</clipPath>
</defs>
</svg>
