<svg width="160" height="48" viewBox="0 0 160 48" fill="none" xmlns="http://www.w3.org/2000/svg">
<rect width="160" height="48" fill="#002852"/>
<path d="M45 6.00908C58.9363 5.99115 72.8726 6.0061 86.8081 6.00161C94.7026 6.00161 102.596 6.00087 110.491 6.00161C110.491 17.8072 110.491 29.6128 110.491 41.4183C88.6609 41.4168 66.8316 41.4213 45.0022 41.4161C45.003 29.6135 45.006 17.8109 45 6.00908ZM47.7351 8.73299C47.7351 18.7127 47.7351 28.6923 47.7351 38.672C67.7385 38.6728 87.7412 38.6728 107.745 38.672C107.745 28.6923 107.745 18.7127 107.745 8.73373C87.742 8.73224 67.7385 8.73299 47.7351 8.73299Z" fill="white"/>
<path d="M90.9202 13.4771C92.7797 13.2193 94.7176 13.4098 96.4569 14.136C98.1244 14.8286 99.4841 16.0755 100.678 17.4016C99.9667 18.1008 99.2361 18.7799 98.5226 19.477C97.6866 18.3646 96.6354 17.3791 95.3557 16.8024C94.0199 16.1845 92.4891 16.0777 91.0524 16.3459C88.4854 16.8076 86.2889 18.8068 85.4993 21.279C85.1003 22.5662 85.042 23.9521 85.2804 25.2752C85.5277 26.5923 86.1694 27.831 87.1078 28.788C88.1186 29.8287 89.3849 30.661 90.8059 31.0061C92.0729 31.3109 93.4439 31.2437 94.6497 30.7319C95.6411 30.3121 96.5144 29.6292 97.1905 28.7932C97.8002 28.032 98.1797 27.0944 98.2813 26.1246C96.6295 26.1149 94.9769 26.1284 93.3251 26.1179C93.3281 25.1728 93.3251 24.2278 93.3266 23.2827C96.0721 23.2812 98.8169 23.2834 101.563 23.2819C101.572 24.6992 101.51 26.1336 101.146 27.5105C100.797 28.8941 100.026 30.1455 99.0493 31.1757C98.1588 32.1156 97.0762 32.8828 95.8712 33.3632C94.3986 33.9586 92.7774 34.1185 91.2041 33.9796C89.5926 33.8384 88.02 33.2795 86.6871 32.3621C84.5998 30.9225 82.9718 28.7507 82.3921 26.2628C81.9767 24.4758 82.0073 22.5827 82.4922 20.8128C83.1526 18.4206 84.7888 16.3638 86.8395 14.9989C88.0588 14.1868 89.4701 13.6736 90.9202 13.4771Z" fill="white"/>
<path d="M52.1301 33.6485C55.2156 27.0165 58.2989 20.3838 61.3911 13.7556C61.7781 13.7586 62.1651 13.7579 62.5521 13.7556C65.5345 20.3846 68.5079 27.0173 71.4858 33.6485C70.3779 33.6417 69.2692 33.6627 68.1613 33.638C67.4874 32.0288 66.7799 30.4337 66.0933 28.8297C63.2626 28.8297 60.4326 28.8305 57.6026 28.8297C56.866 30.4315 56.1248 32.031 55.3994 33.6373C54.3101 33.6627 53.2201 33.6417 52.1301 33.6485ZM61.9133 19.2953C60.9032 21.5314 59.8685 23.7555 58.8622 25.9923C60.6589 25.9885 62.455 25.9923 64.2517 25.9908C64.4557 25.987 64.6611 26.005 64.8636 25.9743C63.8879 23.7838 62.9458 21.5769 61.9761 19.3835C61.9604 19.3618 61.929 19.3177 61.9133 19.2953Z" fill="white"/>
<path d="M74.5916 33.6462C74.596 27.0165 74.5893 20.3861 74.5953 13.7563C75.5971 13.7586 76.599 13.7556 77.6008 13.7578C77.6001 20.3883 77.6001 27.018 77.6008 33.6477C76.5975 33.6477 75.5949 33.6507 74.5916 33.6462Z" fill="white"/>
<path d="M113.216 38.6279C113.707 38.4867 114.268 38.6332 114.622 39.0022C115.146 39.5334 115.125 40.5084 114.559 41.0022C114.109 41.4355 113.361 41.4833 112.84 41.1509C112.426 40.8969 112.174 40.4068 112.206 39.9219C112.198 39.3257 112.646 38.7766 113.216 38.6279ZM113.284 38.8476C112.619 39.0217 112.283 39.8457 112.568 40.4553C112.773 40.9746 113.393 41.2741 113.927 41.1016C114.598 40.914 114.927 40.0654 114.621 39.455C114.406 38.9567 113.8 38.6825 113.284 38.8476Z" fill="white"/>
<path d="M113.049 39.159C113.38 39.1814 113.729 39.1015 114.048 39.2165C114.427 39.4041 114.298 40.0735 113.858 40.0847C114.011 40.3163 114.163 40.5494 114.311 40.7862C114.234 40.7839 114.082 40.7802 114.006 40.7787C113.873 40.5688 113.744 40.3566 113.607 40.1504C113.553 40.0511 113.418 40.1071 113.331 40.0869C113.329 40.3193 113.328 40.5509 113.33 40.7839C113.235 40.7825 113.141 40.7817 113.049 40.7825C113.05 40.2408 113.049 39.6999 113.049 39.159ZM113.33 39.3831C113.329 39.5445 113.329 39.7051 113.33 39.8673C113.503 39.8628 113.682 39.8882 113.852 39.8411C114.045 39.7866 114.048 39.4601 113.851 39.4078C113.682 39.36 113.503 39.3884 113.33 39.3831Z" fill="white"/>
</svg>
