<svg width="111" height="44" viewBox="0 0 111 44" fill="none" xmlns="http://www.w3.org/2000/svg">
<path d="M39.7334 40.156H35.9299V36.9282C35.8927 36.9198 35.8556 36.9115 35.8184 36.9031C35.6064 37.296 35.4107 37.6987 35.1794 38.0794C34.1498 39.7692 32.6368 40.5595 30.7005 40.6254C29.8093 40.6558 28.968 40.514 28.1751 40.1279C26.8673 39.4916 26.1309 38.3616 25.689 37.0048C25.3826 36.0643 25.2308 35.1057 25.2412 34.1023C25.2725 31.061 25.2516 28.0183 25.2554 24.977C25.2554 24.7677 25.2033 24.55 25.3104 24.3369H29.0141C29.1339 24.5599 29.0781 24.7783 29.0789 24.9854C29.0893 27.9098 29.0737 30.835 29.1086 33.7587C29.1287 35.4303 30.005 36.668 31.344 37.1011C33.4476 37.7814 35.6041 36.4504 35.8087 34.2365C35.8637 33.6419 35.9299 33.0504 35.9307 32.4543C35.9359 29.7657 35.9329 27.0771 35.9329 24.349H39.7334V40.156Z" fill="#002852"/>
<path d="M55.431 27.1598C54.5458 27.7863 53.6948 28.3892 52.7999 29.0233C52.5165 28.5485 52.181 28.1549 51.7965 27.8052C50.7379 26.8436 49.5135 26.6957 48.2058 27.0794C47.5318 27.2766 47.0937 27.7317 47.0766 28.4999C47.0624 29.1598 47.4708 29.7248 48.1902 30.0266C49.1326 30.4218 50.1458 30.5606 51.1173 30.8488C52.3908 31.2272 53.6197 31.6542 54.615 32.65C55.9696 34.0053 56.1213 36.9373 54.6879 38.5376C53.546 39.8117 52.0903 40.3533 50.4709 40.552C48.5621 40.7863 46.7463 40.4875 45.0763 39.4788C44.1011 38.8895 43.2813 38.1326 42.7487 37.0867C42.6929 36.9775 42.6431 36.8896 42.6751 36.7364C43.4852 36.1107 44.3146 35.4698 45.1663 34.8115C45.5092 35.221 45.7473 35.7057 46.1081 36.1016C47.2082 37.3067 48.5651 37.7314 50.1339 37.513C51.2579 37.3567 51.9951 36.5058 51.8582 35.4744C51.7451 34.6211 51.0198 34.3648 50.3548 34.0971C49.2048 33.6344 47.9625 33.504 46.8006 33.0671C45.0942 32.4263 43.715 31.3888 43.4056 29.4973C43.137 27.8538 43.48 26.3089 44.9506 25.1864C46.5343 23.9775 48.3055 23.7219 50.1793 23.8835C51.4907 23.9965 52.7189 24.4121 53.7871 25.238C54.4476 25.7492 54.978 26.3726 55.431 27.1591V27.1598Z" fill="#002852"/>
<path d="M60.2233 27.6831H56.916V24.3347H60.1972V19.3003H64.107V24.3043H68.9236V27.6543H64.238C64.0646 27.8499 64.1323 28.0335 64.1316 28.1988C64.1264 30.3042 64.1271 32.4095 64.1286 34.5157C64.1286 36.0644 65.0473 36.9987 66.5618 37.0518C67.3407 37.0791 68.1098 36.9236 68.9095 36.935V40.0453C68.1046 40.3691 67.2365 40.3752 66.3855 40.4002C65.0257 40.4397 63.6897 40.3441 62.4504 39.6282C61.351 38.9926 60.7946 38.0044 60.4985 36.8281C60.0685 35.1186 60.2463 33.3682 60.2255 31.6322C60.2099 30.3315 60.2225 29.0308 60.2225 27.6831H60.2233Z" fill="#002852"/>
<path d="M84.1558 16.9263C86.6336 16.8179 88.9188 16.0496 91.1616 15.0803C93.9206 13.8881 96.5851 12.4562 99.4885 11.6265C100.713 11.2761 101.949 10.9894 103.264 11.0858V15.593C102.318 15.6105 101.385 15.7197 100.461 15.9449C98.967 16.3082 97.5328 16.8353 96.1254 17.4481C93.6416 18.5304 91.233 19.7969 88.654 20.6403C87.5635 20.9975 86.4581 21.3183 85.2969 21.3722C84.9309 21.3889 84.5716 21.5951 84.1558 21.3866V16.9256V16.9263Z" fill="#002852"/>
<path d="M84.1372 12.3294V7.80927C85.8072 7.81913 87.3879 7.41186 88.9449 6.86959C90.4237 6.35387 91.8504 5.71149 93.272 5.05925C95.6799 3.95424 98.0707 2.80978 100.676 2.24856C101.512 2.06881 102.357 1.97477 103.251 1.93457V6.46763C102.309 6.50555 101.379 6.62614 100.457 6.83167C99.1634 7.11987 97.9286 7.57568 96.7109 8.08382C93.9266 9.24496 91.2568 10.686 88.378 11.615C87.0212 12.0526 85.6324 12.3112 84.1372 12.3294Z" fill="#002852"/>
<path d="M72.0768 24.2982H75.8668V28.2617C75.9107 28.2761 75.9546 28.2913 75.9992 28.3057C76.6374 26.5924 77.507 25.0521 79.2484 24.3346C79.964 24.0403 80.7563 23.8598 81.5701 24.0866V28.0175C81.4622 28.0857 81.3804 28.1184 81.2234 28.0873C79.3697 27.7187 77.4944 28.2336 76.4849 29.8908C76.0245 30.6469 75.8571 31.5032 75.8497 32.3754C75.8288 34.772 75.8437 37.1693 75.84 39.5667C75.84 39.7555 75.8861 39.9527 75.7678 40.1962H72.0768C71.9436 40.0687 71.9994 39.9027 71.9994 39.754C71.9964 34.7492 71.9964 29.7444 71.9994 24.7404C71.9994 24.5917 71.9436 24.4256 72.0768 24.2982Z" fill="#002852"/>
<path d="M87.9922 40.1961C86.7447 40.1961 85.4979 40.1961 84.2505 40.1961C84.1017 40.0285 84.1746 39.8237 84.1739 39.6379C84.1694 34.91 84.1679 30.182 84.1776 25.4548C84.1776 25.2682 84.0407 25.0247 84.2973 24.8844C85.5649 24.958 86.7767 24.6683 87.9773 24.3027C88.1394 24.4165 88.068 24.5879 88.068 24.7328C88.0718 29.7398 88.0718 34.7477 88.0688 39.7547C88.0688 39.9034 88.1246 40.0695 87.9914 40.1969L87.9922 40.1961Z" fill="#002852"/>
<path d="M72.0768 24.2983C72.0627 24.472 72.0359 24.6457 72.0352 24.8201C72.0329 29.7718 72.0329 34.7236 72.0352 39.6753C72.0352 39.8489 72.0619 40.0226 72.0768 40.197C71.8641 40.0666 71.9407 39.8505 71.9407 39.6677C71.937 34.7213 71.937 29.7741 71.9407 24.8277C71.9407 24.6449 71.8641 24.4295 72.0768 24.2983Z" fill="#002852"/>
<path fill-rule="evenodd" clip-rule="evenodd" d="M15.7096 20.4501L14.6938 17.9009H10.1473C8.49327 22.0619 6.84371 26.2111 5.1923 30.3649C3.89516 33.6276 2.59688 36.8931 1.29443 40.1695H5.50847C6.07955 38.6933 6.64935 37.2193 7.21757 35.7494C7.40283 35.2701 7.58792 34.7913 7.77282 34.313H17.0534C17.4627 35.2204 17.8075 36.1565 18.1526 37.0935C18.5343 38.1301 18.9165 39.1677 19.3869 40.1688H23.5667C20.9365 33.5684 18.318 26.9966 15.7096 20.4501ZM13.0991 23.7247C12.8853 23.171 12.6699 22.6133 12.4525 22.0505C11.937 23.3801 11.4339 24.6778 10.9368 25.9601C10.3178 27.5568 9.7081 29.1295 9.09544 30.7094H15.797C14.8983 28.3835 14.0124 26.0894 13.0991 23.7247Z" fill="#002852"/>
<path d="M104.129 24.3359V28.26C103.897 28.0196 103.762 27.7723 103.653 27.5137C102.479 24.7144 99.9556 23.3781 97.0619 24.003C95.2349 24.3974 93.7628 25.3439 92.6797 26.8865C92.0549 27.7761 91.6324 28.7848 91.3921 29.8436C91.0916 31.167 91.0707 32.5162 91.2642 33.8692C91.5104 35.5901 92.1508 37.1342 93.3239 38.3909C94.7455 39.9138 96.5018 40.6851 98.6025 40.6222C100.369 40.5691 101.745 39.8259 102.831 38.4258C103.351 37.7554 103.654 36.9734 104.016 36.2196C104.068 36.2249 104.12 36.231 104.172 36.2363V40.1451H107.945V24.3359H104.129H104.129ZM103.501 35.3383C101.939 37.5089 98.7929 37.8684 96.7458 36.1088C95.7066 35.2162 95.1546 33.8579 95.1561 31.7525C95.1896 30.3441 95.83 28.8 97.48 27.8724C99.0555 26.9866 100.681 27.0207 102.224 27.9604C104.533 29.3658 105.149 33.0471 103.502 35.3375L103.501 35.3383Z" fill="#002852"/>
</svg>
