<svg width="160" height="48" viewBox="0 0 160 48" fill="none" xmlns="http://www.w3.org/2000/svg">
<rect width="160" height="48" fill="#002852"/>
<path d="M37.9288 16.2771C37.6171 15.7116 37.0354 15.3408 36.3421 15.3408C35.5104 15.3408 34.7508 15.8776 34.3855 16.6353C34.2595 16.8915 34.182 17.172 34.1575 17.4605L33.9434 20.0607C33.9434 20.0607 34.7705 20.0794 35.1416 20.0794C38.1707 20.0794 38.1755 17.4605 38.1755 17.4605C38.2179 17.0475 38.1311 16.6313 37.9288 16.2771ZM42.5391 21.7722C42.2854 21.6416 42.0073 21.575 41.7259 21.5774H29.9244C29.5165 21.5736 29.1167 21.6991 28.775 21.9382C28.4886 22.1264 28.2463 22.3828 28.0669 22.6876C27.8876 22.9924 27.776 23.3374 27.7409 23.6958C27.6699 24.5784 28.1108 25.3324 28.8053 25.6532C29.0356 25.7593 29.2927 25.8217 29.573 25.8217H33.4689L33.128 29.9324C33.1048 30.2307 33.1327 30.5041 33.2153 30.7612C33.4584 31.5227 34.1273 32.0582 34.9579 32.0582C35.7687 32.0582 36.5085 31.5414 36.8854 30.8099C37.025 30.5428 37.1169 30.2531 37.1414 29.9323L37.4822 25.8217H41.377C41.6585 25.8217 41.9214 25.7593 42.1715 25.6557C42.9172 25.3323 43.486 24.5784 43.5605 23.6958C43.5982 23.3011 43.52 22.9037 43.3368 22.559C43.1537 22.2143 42.8748 21.9397 42.5391 21.7734M59.1706 23.2479C60.812 22.223 61.7391 20.5103 61.9368 18.1434C62.1054 16.0712 61.5215 14.4608 60.1918 13.3574C58.8924 12.2789 57.2778 11.7333 55.3934 11.7333H49.1791C49.1651 11.7333 49.1512 11.7359 49.1384 11.7371C48.7184 11.7419 48.3082 11.8729 47.9541 12.1153C47.7386 12.2603 47.5458 12.4411 47.383 12.6508C47.0714 13.0207 46.8796 13.4888 46.8362 13.9853L45.1786 34.0107C45.1332 34.555 45.2705 35.0306 45.5671 35.4376C45.6869 35.6073 45.8218 35.7596 45.9859 35.8832C46.3034 36.1254 46.6803 36.2502 47.1061 36.2602C47.1213 36.2602 47.1317 36.2664 47.1492 36.2664H54.5348C56.6334 36.2664 58.5017 35.6985 60.0873 34.575C61.7147 33.4252 62.6314 31.7176 62.8152 29.5068C62.9548 27.8465 62.6523 26.4259 61.9194 25.295C61.311 24.3512 60.3874 23.6597 59.1694 23.2477L59.1706 23.2479ZM50.716 15.6405H54.4547C55.4342 15.6405 56.2299 15.9101 56.8116 16.4394C57.3816 16.955 57.6224 17.674 57.5444 18.6352C57.4467 19.7712 57.0838 20.5963 56.4602 21.0919C55.8007 21.6175 55.0387 21.8721 54.1337 21.8721H50.1995L50.716 15.6405ZM57.18 31.5403C56.3727 32.0833 55.3397 32.3542 54.1113 32.3542H49.3337L49.849 26.1027H54.7929C56.1109 26.1027 57.1137 26.1938 57.7011 26.7493C58.3177 27.3335 58.5527 28.0438 58.4736 29.0175C58.3747 30.2022 57.9513 31.031 57.18 31.5403ZM71.9534 19.227C70.4494 19.2294 68.9586 19.5299 67.5562 20.1133C66.2255 20.6763 65.517 21.3891 65.4472 22.2305C65.4088 22.6961 65.5252 23.0881 65.7915 23.3964C66.0579 23.7035 66.4162 23.8608 66.8548 23.8608C67.0525 23.8608 67.4539 23.8021 68.6323 23.2816C69.5734 22.8684 70.4749 22.6574 71.3124 22.6574C72.1907 22.6574 72.7979 22.9096 73.1655 23.4201C73.4866 23.8795 73.6099 24.5898 73.532 25.5298L73.525 25.6172C70.7203 25.8731 68.7112 26.2663 67.3923 26.8168C65.2809 27.6919 64.1258 29.1574 63.9605 31.166C63.8291 32.7389 64.2723 33.9959 65.2751 34.8984C66.2545 35.7847 67.5051 36.2341 68.9858 36.2341C70.5214 36.2341 71.8859 35.9483 73.0504 35.3853C73.3645 35.9383 73.9089 36.2341 74.6441 36.2341C75.185 36.2341 75.6759 36.0294 76.1005 35.6312C76.5111 35.2603 76.7676 34.7295 76.8136 34.1557L77.5267 25.5298C77.6837 23.6398 77.3627 22.1506 76.5728 21.0982C75.6143 19.8548 74.0602 19.227 71.9534 19.227ZM72.9804 32.1969C72.094 32.6887 71.1936 32.9371 70.2989 32.9371C69.5416 32.9371 68.9088 32.7661 68.4226 32.4253C67.9759 32.1133 67.7804 31.6776 67.8293 31.0946C67.9631 29.4968 70.7782 28.9388 73.2629 28.7603L72.9802 32.1955M87.1018 19.227C85.9716 19.2283 84.8492 19.4286 83.7794 19.8199L84.2773 13.8455C84.304 13.5476 84.2642 13.2472 84.1609 12.9692C83.905 12.2414 83.2594 11.7371 82.4532 11.7371C81.7634 11.7371 81.1248 12.1028 80.7199 12.6658C80.4652 13.0104 80.3175 13.4023 80.2826 13.8455L78.647 33.5689C78.5423 34.861 79.0948 35.6873 80.2558 35.9532C81.169 36.138 82.3986 36.2329 83.9037 36.2329C87.1575 36.2329 89.7086 35.2542 91.4871 33.3279C92.8272 31.8923 93.6043 30.0074 93.7916 27.728C94.0022 25.1727 93.4973 23.1054 92.2956 21.5762C91.0625 20.0158 89.3157 19.227 87.1018 19.227ZM88.5354 30.9049C87.571 32.0409 86.2507 32.5977 84.4964 32.5977C83.7752 32.5977 83.1819 32.5702 82.7271 32.5265L83.4739 23.5199C84.3062 23.1323 85.2038 22.9321 86.1111 22.932C87.2604 22.932 88.1596 23.3339 88.8517 24.1628C89.5578 25.0454 89.8544 26.2488 89.7334 27.7281C89.6252 29.0164 89.2229 30.0849 88.5354 30.9049ZM103.436 19.2272C102.313 19.2272 101.195 19.4269 100.118 19.8201L100.611 13.8457C100.637 13.5519 100.6 13.2558 100.504 12.9793C100.251 12.2491 99.6014 11.7373 98.7883 11.7373C98.0973 11.7373 97.4575 12.1055 97.055 12.671C96.802 13.0064 96.6488 13.4157 96.6153 13.8457L94.9855 33.5691C94.875 34.8611 95.4311 35.6875 96.5909 35.9534C97.504 36.1382 98.7313 36.2331 100.243 36.2331C103.49 36.2331 106.043 35.2544 107.824 33.3281C109.166 31.8925 109.941 30.0076 110.129 27.7282C110.34 25.1729 109.838 23.1056 108.629 21.5764C107.398 20.016 105.647 19.2272 103.436 19.2272ZM104.872 30.9051C103.906 32.0411 102.585 32.5979 100.832 32.5979C100.109 32.5979 99.5173 32.5704 99.0636 32.5267L99.8093 23.5201C100.641 23.132 101.539 22.9318 102.446 22.9322C103.598 22.9322 104.494 23.3341 105.184 24.163C105.893 25.0456 106.19 26.249 106.068 27.7283C105.961 29.0166 105.557 30.0851 104.872 30.9051ZM119.793 19.2274C117.432 19.2274 115.456 20.0151 113.922 21.573C112.37 23.1459 111.484 25.1507 111.288 27.5251C111.079 30.0592 111.626 32.1439 112.916 33.7154C114.242 35.3844 116.228 36.2333 118.807 36.2333C120.472 36.2333 122.043 35.9099 123.481 35.2721C124.673 34.729 125.312 34.0337 125.382 33.1936C125.405 32.9715 125.388 32.7464 125.33 32.5316C125.272 32.3168 125.174 32.1167 125.043 31.9428C124.687 31.4685 124.203 31.2775 123.512 31.4522C123.346 31.4959 123.198 31.5608 123.074 31.6345C122.948 31.7114 122.818 31.7797 122.685 31.8392C122.493 31.9316 122.328 32.0165 122.199 32.0751C121.258 32.512 120.291 32.7343 119.325 32.7343C117.918 32.7343 116.894 32.2636 116.185 31.3074C115.731 30.6958 115.466 29.9418 115.398 29.0505H124.311C124.931 29.0505 125.454 28.8258 125.859 28.3789C126.253 27.9457 126.48 27.394 126.534 26.7348C126.709 24.6327 126.223 22.8639 125.085 21.4644C123.801 19.9814 122.021 19.2274 119.793 19.2274ZM115.646 25.9282C115.82 25.1243 116.162 24.4377 116.667 23.8809C117.382 23.1282 118.321 22.76 119.533 22.76C120.615 22.76 121.421 23.1058 121.988 23.8086C122.428 24.399 122.646 25.0918 122.652 25.9282L115.646 25.9282ZM133.323 13.8456C133.365 13.4348 133.279 13.0208 133.08 12.6672C132.768 12.1054 132.191 11.7372 131.5 11.7372C130.673 11.7372 129.919 12.2702 129.553 13.0242C129.428 13.2792 129.351 13.5584 129.327 13.8456L127.646 34.1558C127.622 34.4331 127.651 34.7129 127.734 34.9772C127.974 35.7349 128.642 36.2667 129.469 36.2667C130.277 36.2667 131.011 35.7549 131.389 35.0271C131.526 34.7612 131.615 34.4754 131.641 34.1558L133.323 13.8456Z" fill="white"/>
</svg>
