<svg width="160" height="48" viewBox="0 0 160 48" fill="none" xmlns="http://www.w3.org/2000/svg">
<rect width="160" height="48" fill="#002852"/>
<path d="M21.0104 22.7556C23.3893 20.8122 26.1704 19.3379 29.1525 18.5003C29.8226 18.2657 30.5597 18.1987 31.2969 18.2322C32.034 18.1987 32.6707 18.7348 32.7712 19.4719C32.8047 19.673 32.8047 19.9075 32.7712 20.1086C32.7712 21.2143 32.3356 22.32 31.5314 23.0907C30.8948 23.6603 30.1577 24.0623 29.32 24.2634C28.4823 24.4644 27.6447 24.5985 26.807 24.632C26.9745 24.7325 27.1086 24.766 27.2426 24.8665C27.7787 25.1346 28.0467 25.7712 27.7787 26.3073C27.7452 26.3743 27.7117 26.4078 27.6782 26.4748C26.9075 27.9156 25.1652 28.5522 23.6239 27.9826C22.9873 27.7481 22.3841 27.413 21.848 26.9774C21.848 26.9774 21.781 26.9104 21.7475 26.9774C21.714 27.0444 21.7475 27.0444 21.7475 27.0779C22.0826 27.48 22.3841 27.9491 22.6187 28.4182C22.8867 28.9543 22.8867 29.5574 22.6857 30.0935C22.6857 30.1941 22.6857 30.2611 22.7527 30.3281C23.0208 30.7972 23.1883 31.2998 23.2553 31.8359V31.9364C23.1213 32.171 23.2553 32.305 23.3893 32.439C23.5234 32.573 23.4563 32.506 23.3893 32.5395C23.3223 32.573 23.3893 32.6736 23.3893 32.7406C23.3893 32.8076 23.6574 32.8746 23.4899 33.0756C23.3558 33.2432 23.5569 33.1761 23.5904 33.2097C23.6239 33.2432 23.8249 33.3437 23.6909 33.5112C23.5569 33.6788 23.7914 33.6787 23.8584 33.7123C23.9254 33.7793 23.9589 33.8798 23.8584 33.9803L23.6909 34.0808C23.4563 34.1813 23.4228 34.1478 23.4228 33.9133C23.4228 33.6452 23.4228 33.6788 23.2888 33.6788C23.1548 33.6788 23.2888 33.5447 23.2218 33.4442C23.1548 33.3437 23.2218 33.2767 23.0878 33.2432C22.9537 33.2097 23.0878 33.1091 23.0208 33.0086C22.9537 32.9416 23.0208 32.8076 22.8867 32.8076C22.7527 32.8076 22.8197 32.8076 22.8197 32.7406C22.8197 32.6736 22.8197 32.506 22.6187 32.5395C22.4176 32.573 22.3841 32.439 22.3506 32.305C22.0826 31.7354 21.8815 31.1322 21.781 30.5291C21.6805 29.993 21.4459 29.4234 21.4124 28.9208C21.3454 28.5522 21.3454 28.1837 21.3454 27.8151C21.3789 27.7146 21.3119 27.5805 21.2114 27.547C20.8428 27.279 20.5748 26.9104 20.4407 26.5083C20.2732 26.6424 20.2732 26.7429 20.4407 26.9104C20.6753 27.212 20.8093 27.614 20.8093 28.0161C20.8763 28.3847 20.9769 28.7533 21.1109 29.1218C21.2449 29.7585 21.1444 30.3951 20.7758 30.9312C20.7423 30.9982 20.7423 31.0987 20.7758 31.1658C20.8428 31.8359 20.6753 32.506 20.2397 33.0421C20.2062 33.0756 20.1727 33.1426 20.1392 33.2097C19.9381 34.2149 19.134 34.9855 18.1288 35.086C17.1571 35.3541 16.1519 35.1195 15.3813 34.4494C15.0127 34.1478 14.7781 33.7458 14.7111 33.2767C14.6776 33.1762 14.6441 33.1091 14.5771 33.0086C14.175 32.4725 13.974 31.8359 14.0745 31.1658C14.108 31.0987 14.108 30.9982 14.0745 30.9312C13.6054 30.1941 13.5384 29.2559 13.8735 28.4517C13.907 28.3512 13.9405 28.2172 13.974 28.0831C13.974 27.6811 14.1415 27.279 14.3761 26.9439C14.5101 26.7764 14.4766 26.6424 14.3761 26.5418C14.2755 26.4413 14.309 26.6759 14.2755 26.7429C14.1415 27.0779 13.9405 27.346 13.6724 27.547C13.5049 27.6476 13.4379 27.8151 13.4379 27.9826C13.4379 28.6528 13.3373 29.2894 13.1363 29.926C13.0023 30.5626 12.8012 31.1993 12.6002 31.8359C12.5332 31.9699 12.4662 32.1374 12.3992 32.2715C12.3657 32.3385 12.2986 32.4055 12.2651 32.4725C12.1646 32.6065 11.9971 32.4725 11.9301 32.5395C11.8295 32.6065 11.9971 32.8076 11.7625 32.8076C11.6955 32.8076 11.7625 32.8746 11.7625 32.9416C11.7625 32.9751 11.8631 33.2432 11.595 33.2767C11.595 33.3437 11.595 33.3772 11.595 33.4442C11.595 33.5447 11.662 33.7123 11.4275 33.7123C11.1929 33.7123 11.4275 33.8798 11.4275 33.9468C11.4275 34.0138 11.3605 34.1814 11.1929 34.1143L10.8579 34.0138C10.7238 33.9468 10.6568 33.8463 10.8579 33.7123C11.0589 33.5782 11.1259 33.5782 10.9584 33.4107C10.7908 33.2432 10.9584 33.3437 11.0254 33.3102C11.0924 33.2767 11.2934 33.1761 11.1259 32.9751C10.9584 32.7741 11.1929 32.8746 11.2264 32.8411C11.2599 32.8076 11.461 32.7071 11.2934 32.5395C11.1594 32.372 11.3605 32.439 11.4275 32.372C11.528 32.305 11.5615 32.171 11.4945 32.0704C11.4275 31.9364 11.4945 31.7689 11.4945 31.6013C11.595 31.1993 11.729 30.7972 11.9636 30.4286C12.0306 30.3281 12.0306 30.1941 11.9636 30.0935C11.8295 29.6915 11.8295 29.2559 11.9636 28.8538C12.1311 28.3512 12.3992 27.8486 12.7342 27.413L12.9353 27.1115C12.9353 27.1115 13.0023 27.0444 12.9353 27.0109L12.8683 27.0779C12.2986 27.547 11.6285 27.9156 10.9249 28.1837C9.41707 28.6863 7.80875 28.0161 7.0381 26.6424C6.66953 26.1398 6.77005 25.4696 7.27265 25.1011C7.33966 25.0675 7.40668 25.0005 7.47369 24.967L7.90927 24.766C7.44018 24.699 7.00459 24.6655 6.56901 24.5985C5.63082 24.4979 4.72614 24.2299 3.92199 23.7608C2.81627 23.0907 2.07912 21.9514 2.01211 20.6447V19.874C1.91159 19.1034 2.44769 18.3662 3.21835 18.2657C3.28536 18.2657 3.35237 18.2657 3.41939 18.2657C4.29056 18.2322 5.16173 18.3662 5.96589 18.6343C8.47889 19.4384 10.8579 20.6447 13.0023 22.186C13.2703 22.387 13.5049 22.6216 13.7729 22.8226C13.7729 22.7221 13.7394 22.6216 13.6724 22.5546C13.4379 22.2195 13.2703 21.8509 13.1698 21.4488C13.1363 21.3148 13.1028 21.1808 13.1028 21.0468C13.2033 20.7117 13.0358 20.5442 12.8012 20.3096C12.4997 20.008 12.2986 19.6395 12.2651 19.2039V19.1369C12.0641 19.0699 12.0976 18.8018 11.9301 18.7013C11.7625 18.6008 11.8295 18.6008 11.8295 18.6008C11.8295 18.6008 11.8295 18.3997 11.6955 18.3327C11.5615 18.2657 11.5615 18.3327 11.6285 18.1987C11.662 18.0982 11.729 18.0312 11.8295 17.9977C11.9301 17.9977 11.9301 18.0647 11.9301 18.1317C11.9636 18.1987 12.2986 18.6008 12.2986 18.6678C12.2986 18.9693 12.6337 18.8688 12.7677 19.0029C12.9018 19.1034 13.0023 19.2039 13.1028 19.3044C13.4044 19.7065 13.6389 20.1086 13.8735 20.5442C13.974 20.8122 14.0075 21.1473 13.974 21.4488V21.7504L14.5436 20.9797C14.5436 20.9462 14.5436 20.8792 14.5436 20.8457C14.309 19.8405 14.8116 18.7683 15.7498 18.3327L15.9844 18.2322L15.1802 18.1317C14.8451 18.0982 14.4766 17.9977 14.175 17.8636C13.8735 17.7296 13.6724 17.4615 13.6389 17.1265V16.9925C13.6389 16.9589 13.7394 16.9925 13.8064 17.0595C13.8399 17.093 13.8735 17.16 13.8735 17.227C13.9405 17.5286 14.175 17.7631 14.4431 17.8301C14.9792 17.9977 15.5153 18.0647 16.0514 18.1317C16.1184 18.1317 16.2189 18.0982 16.2859 18.0647C16.9226 17.6961 17.6932 17.6961 18.3298 18.0647C18.4304 18.1317 18.5644 18.1652 18.6649 18.1317C19.134 18.0982 19.6031 17.9977 20.0722 17.8636C20.4072 17.7966 20.6753 17.5286 20.7758 17.1935C20.7758 17.1265 20.8093 17.093 20.8428 17.0595C20.8763 17.026 20.9433 17.026 20.9769 17.0595C21.0439 17.0595 20.9769 17.16 20.9769 17.1935C20.9433 17.5286 20.7088 17.8301 20.4072 17.9306C19.9717 18.0982 19.5026 18.1987 19.0335 18.2322C18.933 18.1987 18.7989 18.1987 18.6984 18.2322L18.8659 18.3327C19.8041 18.7683 20.3067 19.807 20.0722 20.8457C20.0387 20.8792 20.0387 20.9462 20.0722 21.0132L20.6083 21.7169V21.1138C20.6083 20.7787 20.7088 20.4436 20.9433 20.1421C21.1109 19.8405 21.3119 19.5054 21.5465 19.2374C21.647 19.1034 21.781 18.9693 21.9485 18.9358C22.2166 18.8688 22.4176 18.6678 22.5182 18.3997C22.5852 18.2657 22.6857 18.1652 22.7527 17.9977C22.8197 17.8301 22.9202 17.9977 22.9537 18.0647C23.0208 18.1317 23.1213 18.2322 23.0208 18.2657C22.9202 18.2992 22.8532 18.6678 22.6187 18.7348C22.6187 19.0029 22.3506 19.1369 22.3171 19.4049C22.2501 19.8405 22.0156 20.2426 21.647 20.5106C21.58 20.5106 21.513 20.6112 21.513 20.7117C21.58 21.2143 21.4795 21.6834 21.2114 22.119C21.1109 22.32 20.9769 22.4875 20.8763 22.6886C20.8763 22.6886 20.8093 22.7556 20.8763 22.7891C21.0439 22.8226 20.9769 22.7891 21.0104 22.7556ZM89.2633 24.1964L91.4748 21.0132L93.2506 18.3997C93.3176 18.2992 93.4182 18.2322 93.5522 18.2322H98.4777C98.6452 18.2322 98.6787 18.2322 98.6787 18.4332V34.885C98.6787 35.0525 98.6787 35.1195 98.4777 35.1195H93.0496C92.8485 35.1195 92.815 35.0525 92.815 34.885V26.4413L89.2298 31.7354L85.4101 26.4413V34.8515C85.4101 35.0525 85.4101 35.1195 85.142 35.1195H79.7475C79.5464 35.1195 79.4794 35.1195 79.4794 34.8515V18.4667C79.4794 18.2657 79.4794 18.2322 79.7475 18.2322H84.6059C84.7399 18.2322 84.874 18.2992 84.941 18.3997L89.0958 24.0624C89.1293 24.0624 89.2633 24.1964 89.2633 24.1964ZM56.0583 26.7094C56.0248 25.0675 56.4269 23.4257 57.1975 21.9514C58.2362 20.1421 59.9786 18.8353 61.989 18.3327C64.4684 17.5956 67.1155 17.6626 69.5279 18.6008C71.9069 19.4719 73.6828 21.5158 74.1518 23.9953C74.6209 25.8717 74.5874 27.8486 74.0178 29.6915C73.3812 32.0704 71.5718 34.0138 69.2264 34.818C66.6129 35.8232 63.6978 35.8232 61.0508 34.818C58.5378 33.9468 56.7284 31.8024 56.2593 29.1889C56.1253 28.3512 56.0583 27.5135 56.0583 26.7094ZM68.4892 26.7094C68.4892 26.3073 68.4557 25.9052 68.3887 25.5031C68.0872 23.7943 66.4788 22.6551 64.77 22.9231C63.6978 23.0907 62.7931 23.8278 62.391 24.833C61.989 26.0392 61.989 27.346 62.391 28.5522C62.6926 29.7585 63.7983 30.6296 65.0381 30.6632C66.4453 30.8307 67.7856 29.9595 68.2212 28.6192C68.4557 27.9826 68.5562 27.3125 68.5227 26.6759C68.4892 26.6424 68.4892 26.7094 68.4892 26.7094ZM103.604 18.2322H112.483C113.924 18.1987 115.365 18.4332 116.739 18.9358C118.012 19.3714 118.95 20.4436 119.151 21.7839C119.285 22.521 119.285 23.2582 119.084 23.9953C118.749 25.1681 117.844 26.0727 116.672 26.3743L116.303 26.5083C116.538 26.5753 116.772 26.6424 117.007 26.7094C118.381 27.0779 119.319 28.3177 119.386 29.725C119.486 30.5626 119.419 31.4003 119.118 32.171C118.649 33.2767 117.744 34.1143 116.605 34.4829C115.6 34.8515 114.561 35.0525 113.522 35.086C110.674 35.2201 107.86 35.086 105.011 35.153C104.844 35.153 104.81 35.086 104.81 34.952V20.3431C104.81 20.1756 104.777 20.0081 104.676 19.874C104.71 19.8405 103.604 18.2322 103.604 18.2322ZM111.78 30.8307C112.148 30.8642 112.517 30.8642 112.886 30.8307C113.422 30.7637 113.79 30.3281 113.757 29.792C113.824 29.2894 113.455 28.8538 112.953 28.7868C112.919 28.7868 112.919 28.7868 112.886 28.7868C112.148 28.7533 111.411 28.7533 110.674 28.7868C110.54 28.7868 110.54 28.8538 110.54 28.9543V30.6632C110.54 30.7972 110.54 30.8307 110.708 30.8307C110.741 30.7972 111.78 30.8307 111.78 30.8307ZM110.607 23.5933V24.4644C110.607 24.565 110.607 24.632 110.741 24.632C111.378 24.6655 112.048 24.6655 112.684 24.632C113.187 24.632 113.623 24.1964 113.623 23.6938C113.623 23.6603 113.623 23.6268 113.623 23.6268C113.623 23.0572 113.355 22.7221 112.718 22.6551C112.048 22.6216 111.378 22.6216 110.708 22.6551C110.607 22.6551 110.607 22.7221 110.607 22.7891V23.5933ZM48.5863 26.4413C49.0219 26.5418 49.424 26.7094 49.826 26.8769C50.6302 27.2455 51.2333 27.9491 51.4679 28.7868C51.7694 29.7585 51.7694 30.7972 51.4679 31.7689C51.1328 32.9081 50.2951 33.8463 49.1894 34.2819C48.1172 34.751 46.9445 34.9855 45.7718 35.0525C43.6608 35.1865 41.5499 35.0525 39.439 35.1195H37.2276C37.06 35.1195 36.993 35.1195 37.0265 34.9185V20.2761C37.0265 20.1086 36.993 19.941 36.8925 19.807C36.5239 19.3044 36.1889 18.7013 35.8538 18.2322C35.8538 18.1652 35.9543 18.2322 35.9878 18.2322H45.0346C46.3414 18.2322 47.6146 18.4332 48.8208 18.8688C50.5967 19.4049 51.7359 21.2143 51.4344 23.0572C51.4009 23.9618 51.0323 24.7995 50.3957 25.4361C49.9266 25.8717 49.357 26.1733 48.7538 26.3408C48.7873 26.3743 48.5863 26.4413 48.5863 26.4413ZM44.0629 30.8307C44.4315 30.8307 44.8001 30.8307 45.1686 30.7637C45.6712 30.7302 46.0733 30.2611 46.0398 29.725C46.0398 29.6915 46.0398 29.6915 46.0398 29.658C46.0733 29.1554 45.7047 28.7533 45.2356 28.6863C45.2021 28.6863 45.2021 28.6863 45.1686 28.6863C44.4315 28.6528 43.6943 28.6528 42.9572 28.6863C42.8232 28.6863 42.8567 28.7868 42.8567 28.8538V30.6632C42.8567 30.7972 42.8567 30.8307 43.0242 30.8307H44.0629ZM42.9572 23.5933V24.4979C42.9572 24.5985 42.9572 24.6655 43.0912 24.632H45.0011C45.5372 24.632 45.9728 24.1964 45.9728 23.6603V23.6268C45.9728 23.0572 45.7047 22.7556 45.0681 22.6551C44.4315 22.5546 43.7614 22.6551 43.0912 22.6551C42.9907 22.6551 42.9572 22.6551 42.9572 22.7891C42.9237 22.9901 42.9237 23.3252 42.9237 23.6268C42.9237 23.5933 42.9572 23.5933 42.9572 23.5933ZM128.366 18.2322H134.095C134.229 18.1987 134.363 18.2992 134.43 18.4332L141.232 34.885L141.299 35.0525C141.232 35.1195 141.165 35.0525 141.098 35.0525H135.603C135.435 35.0525 135.335 35.0525 135.301 34.8515C135.1 34.2484 134.866 33.6787 134.631 33.0756C134.598 32.9416 134.497 32.8746 134.363 32.9081H129.304C129.17 32.9081 129.069 32.9751 129.036 33.1091C128.835 33.7123 128.6 34.3154 128.399 34.9185C128.399 35.019 128.299 35.086 128.165 35.086H122.971C122.669 35.086 122.803 34.952 122.87 34.818L128.232 22.0184C128.5 21.4153 128.734 20.8122 129.002 20.2091C129.069 20.0751 129.069 19.941 129.002 19.8405C128.801 19.3044 128.6 18.7683 128.366 18.2322ZM130.51 29.0883H132.855C133.056 29.0883 133.056 29.0883 132.989 28.8873C132.621 27.8821 132.219 26.9104 131.884 25.8717C131.884 25.7377 131.817 25.6037 131.75 25.4361C131.381 26.7094 130.946 27.8821 130.51 29.0883ZM145.253 29.1554C146.325 30.06 147.598 30.6296 148.972 30.8307C149.843 30.9982 150.781 30.9982 151.653 30.8307C152.122 30.6967 152.323 30.4621 152.323 30.06C152.356 29.7585 152.189 29.4904 151.921 29.4234C151.552 29.2894 151.15 29.2224 150.748 29.1889C149.843 29.1218 148.939 28.9208 148.067 28.5857C146.359 27.8821 145.186 26.2738 145.085 24.4309C144.951 23.4592 145.052 22.4875 145.353 21.5494C145.755 20.2091 146.761 19.1034 148.067 18.5673C150.446 17.5621 153.16 17.5621 155.539 18.5673C156.511 18.9358 156.511 18.9693 156.511 20.008V23.4257C156.511 23.6268 156.511 23.6603 156.31 23.5598C154.936 22.7891 153.361 22.454 151.82 22.5546C151.552 22.5546 151.284 22.6216 151.05 22.6886C150.748 22.7891 150.547 23.0572 150.58 23.3587C150.547 23.6603 150.748 23.9618 151.016 24.0624C151.452 24.1964 151.921 24.2969 152.356 24.2969C153.462 24.3974 154.534 24.699 155.506 25.2016C156.712 25.8382 157.516 27.0109 157.717 28.3512C157.952 29.5574 157.818 30.8307 157.349 31.9699C156.712 33.4777 155.405 34.6169 153.831 35.086C152.423 35.5551 150.916 35.7227 149.441 35.5886C148.336 35.5551 147.263 35.3541 146.225 35.019C145.89 34.9185 145.554 34.751 145.253 34.5499C145.186 34.5164 145.119 34.4159 145.119 34.3154C145.186 34.2819 145.253 29.1554 145.253 29.1554Z" fill="white"/>
<path d="M17.3915 12C17.4585 12.1005 17.5255 12.201 17.5925 12.268C17.7266 12.4021 17.7601 12.6366 17.6261 12.7706C17.6261 12.7706 17.6261 12.7707 17.5925 12.8042C17.492 12.9382 17.7601 13.2062 17.9611 13.2397H18.5977C18.8993 13.2397 19.1674 13.3403 19.4019 13.5413C19.4354 13.5748 19.5024 13.5748 19.5694 13.5413H19.67C20.7757 13.6753 21.1442 14.513 20.5076 15.4177C20.3401 15.6187 20.1726 15.8198 19.9715 15.9873C19.871 16.0543 19.804 16.1883 19.6364 16.1213C19.4689 16.0543 19.5024 16.1213 19.4689 16.2218C19.4019 16.2888 19.4019 16.3894 19.4689 16.4564C19.6364 16.6574 19.5359 16.7579 19.3684 16.8585C19.1003 17.026 18.7653 17.1265 18.4637 17.16C17.559 17.294 16.6544 17.2605 15.7497 17.0595C15.5821 17.026 15.4146 16.9255 15.2806 16.825C15.1466 16.7244 15.1131 16.6239 15.2806 16.4899C15.3476 16.4229 15.3476 16.2888 15.2806 16.2218C15.2471 16.1548 15.1466 16.0878 15.046 16.1548C15.046 16.1548 15.046 16.1548 15.0125 16.1548H14.8785C14.4764 15.8533 14.1414 15.4512 13.9403 14.9821C13.7393 14.5465 13.9068 14.0439 14.3424 13.8429C14.3759 13.8429 14.4094 13.8094 14.4094 13.8094C15.046 13.5078 15.7497 13.3068 16.4533 13.2397C16.7214 13.3068 16.9894 13.2397 17.1905 13.0387C17.1905 13.0387 17.2575 12.9717 17.1905 12.9047C16.9224 12.6366 17.0899 12.4691 17.2575 12.268C17.425 11.9665 17.3915 12.067 17.3915 12ZM19.2344 16.7914L19.1338 16.7244L18.8658 16.6574C18.0951 16.4564 17.291 16.4229 16.5203 16.5234C16.2188 16.5569 15.9172 16.6239 15.6492 16.7244C15.6492 16.7244 15.5486 16.7244 15.5486 16.7914C15.5486 16.8585 15.6157 16.8585 15.6492 16.892H15.8167C16.5203 17.093 17.291 17.1265 18.0281 17.0595C18.4302 17.026 18.8658 16.9255 19.2344 16.7914ZM17.3915 15.0491H17.7266C17.7936 15.0826 17.8606 15.0491 17.8606 14.9821C17.8606 14.9821 17.8606 14.9821 17.8606 14.9486C18.0281 14.4795 17.9946 13.9434 17.7601 13.5078C17.7601 13.4073 17.6596 13.3738 17.559 13.4408C17.425 13.5078 17.291 13.5078 17.157 13.4408C17.0564 13.3738 16.9894 13.4408 16.9559 13.5078C16.8219 13.8094 16.7549 14.1779 16.7884 14.513C16.8889 15.0491 16.8889 15.0491 17.3915 15.0491ZM15.5821 15.2836C15.3811 14.9486 15.2471 14.58 15.2471 14.1779H15.1801C14.912 14.1779 14.711 14.3455 14.6105 14.58C14.5434 14.9151 14.6105 15.2836 14.845 15.5517C14.912 15.6187 14.9455 15.6522 15.046 15.5517C15.046 15.5517 15.5821 15.2836 15.5821 15.2836ZM20.2396 14.781C20.2396 14.4795 20.0385 14.2114 19.737 14.1779C19.5694 14.1779 19.5694 14.1779 19.5694 14.2784C19.5359 14.58 19.4689 14.8816 19.3349 15.1496C19.3349 15.2166 19.1674 15.3172 19.3349 15.3507C19.5024 15.3842 19.7035 15.6522 19.9715 15.5517C20.139 15.3172 20.2061 15.0826 20.2396 14.781ZM17.3915 15.5517C17.291 15.5517 17.1905 15.6187 17.1905 15.7192C17.1905 15.7192 17.1905 15.7192 17.1905 15.7527C17.1905 15.8533 17.2575 15.9538 17.3915 15.9538C17.492 15.9538 17.5925 15.8868 17.5925 15.7862C17.5925 15.6522 17.492 15.5517 17.3915 15.5517ZM16.3528 15.8868C16.2858 15.7527 16.1183 15.7192 16.0177 15.7862C15.9842 15.8198 15.9507 15.8533 15.9172 15.8868C16.0847 16.1213 16.2858 16.0543 16.3528 15.8868ZM18.8658 15.8868C18.7988 15.7527 18.6648 15.6857 18.5307 15.7527C18.4972 15.7527 18.4637 15.7862 18.4302 15.8198C18.5642 16.0543 18.7318 16.1213 18.8993 15.9538L18.8658 15.8868ZM21.7809 27.0445C21.7809 27.0445 21.7139 26.9775 21.7809 26.9439C21.8479 26.9104 21.8479 26.9439 21.8814 26.9439L21.7809 27.0445ZM21.0102 22.7556C21.0102 22.7556 21.0102 22.8226 20.9097 22.7556C20.8092 22.6886 20.9097 22.6886 20.9097 22.6551L21.0102 22.7556ZM13.0356 26.9104V27.011L13.1027 26.9439L13.0356 26.9104Z" fill="white"/>
</svg>
