<svg width="117" height="25" viewBox="0 0 117 25" fill="none" xmlns="http://www.w3.org/2000/svg">
<g clip-path="url(#clip0_527_16756)">
<path d="M13.2687 0.400879C6.43388 0.400879 0.88147 5.82418 0.88147 12.5C0.88147 19.1759 6.43388 24.5992 13.2687 24.5992C20.1035 24.5992 25.6559 19.1759 25.6559 12.5C25.6559 5.82418 20.1035 0.400879 13.2687 0.400879ZM13.2687 23.3866C7.116 23.3866 2.12292 18.4963 2.12292 12.5C2.12292 6.50376 7.116 1.61346 13.2687 1.61346C19.4213 1.61346 24.4144 6.50376 24.4144 12.5C24.4144 18.4963 19.4213 23.3866 13.2687 23.3866Z" fill="#002852"/>
<path d="M17.6888 4.74463C17.6479 4.71798 17.5933 4.70466 17.5387 4.70466C17.375 4.70466 17.2522 4.82459 17.2522 4.98449V8.7688C17.2522 8.90205 17.1431 9.00866 17.0067 9.00866H9.5034C9.36698 9.00866 9.27148 8.90205 9.25784 8.7688V4.98449C9.25784 4.93119 9.2442 4.89121 9.21692 4.83791C9.13506 4.70466 8.95771 4.66468 8.82129 4.74463C6.0519 6.41027 4.3739 9.30181 4.3739 12.4998C4.3739 15.6978 6.0519 18.5894 8.84857 20.255C8.8895 20.2817 8.94407 20.295 8.99864 20.295C9.16235 20.295 9.28513 20.1751 9.28513 20.0152V16.2308C9.28513 16.0976 9.39427 16.0043 9.53069 15.991H17.0339C17.1704 15.991 17.2795 16.0976 17.2795 16.2308V20.0152C17.2795 20.0685 17.2932 20.1084 17.3204 20.1617C17.4023 20.295 17.5796 20.335 17.7161 20.255C20.5127 18.5894 22.1907 15.6978 22.1907 12.4998C22.1907 9.30181 20.4854 6.41027 17.6888 4.74463ZM7.83904 17.2435L7.87997 17.6966L7.57984 17.3368C5.27429 14.4986 5.27429 10.4877 7.57984 7.6495L7.83904 7.3297L7.87997 7.28972L7.83904 7.7561C7.79812 8.1292 7.78447 8.51563 7.78447 8.90205V16.0843C7.78447 16.4707 7.81176 16.8571 7.83904 17.2435ZM17.2522 14.312C17.2522 14.4453 17.1431 14.5519 17.0067 14.5519H9.5034C9.36698 14.5519 9.27148 14.4453 9.25784 14.312V10.6876C9.25784 10.5544 9.36698 10.4478 9.5034 10.4478H17.0067C17.1431 10.4478 17.2522 10.5544 17.2522 10.6876V14.312ZM18.9439 17.3368L18.6437 17.6966L18.6847 17.2435C18.7256 16.8704 18.7392 16.484 18.7392 16.0976V8.90205C18.7392 8.51563 18.7256 8.1292 18.6847 7.7561L18.671 7.55622L18.6574 7.34302V7.28972L18.9439 7.6495C20.0625 9.00866 20.6764 10.7409 20.6764 12.4865C20.6764 14.2321 20.0625 15.9777 18.9439 17.3368Z" fill="#002852"/>
<path d="M44.3459 12.2867C44.2777 12.2601 44.1958 12.2334 44.1958 12.1535C44.1958 12.1002 44.2231 12.0602 44.2777 12.0335C44.3732 11.9936 46.7333 11.1674 46.7333 8.44909C46.7333 5.4243 44.646 3.62542 41.1263 3.62542H32.5999V21.4011H41.9039C44.6187 21.4011 47.5382 19.5222 47.5382 16.4974C47.5382 13.6059 45.3008 12.5932 44.3459 12.2867ZM36.8972 7.26316C36.8972 7.19653 36.9517 7.14323 37.02 7.14323H40.4032C41.5219 7.14323 42.2859 7.87611 42.2859 8.96877C42.2859 9.82157 41.6038 10.741 40.3214 10.741H37.02C36.9517 10.741 36.8972 10.6877 36.8972 10.6211V7.26316ZM40.4032 17.8966H37.02C36.9517 17.8966 36.8972 17.8433 36.8972 17.7766V14.2322C36.8972 14.1655 36.9517 14.1122 37.02 14.1122H40.3214C41.9448 14.1122 42.8725 14.7918 42.8725 15.9911C42.8725 17.2303 42.013 17.8966 40.4032 17.8966ZM76.337 10.701L75.6822 10.5678C74.2088 10.2613 72.7764 9.87487 72.7764 8.63564C72.7764 7.39641 73.9633 6.83676 75.1365 6.83676C76.5144 6.83676 77.8786 7.43638 78.9154 8.47574L81.6166 5.86403C80.457 4.61147 78.397 3.17236 75.0683 3.17236C71.0575 3.17236 68.3563 5.39765 68.3563 8.71559C68.3563 12.2201 71.1803 13.5393 73.554 14.0323L74.1952 14.1655C76.5008 14.6452 77.5921 15.005 77.5921 16.2842C77.5921 17.4302 76.5417 18.1897 74.9865 18.1897C73.1584 18.1897 71.535 17.4035 70.3071 15.9244L67.5378 18.5761C69.0111 20.2817 70.962 21.8275 75.041 21.8275C78.5198 21.8275 82.0532 19.8553 82.0532 16.071C82.0395 12.1934 79.3383 11.314 76.337 10.701ZM112.284 3.62542V10.128C112.284 10.1947 112.23 10.248 112.162 10.248H106.568C106.5 10.248 106.446 10.1947 106.446 10.128V3.62542H101.862V21.4011H106.446V14.4187C106.446 14.3521 106.5 14.2988 106.568 14.2988H112.162C112.23 14.2988 112.284 14.3521 112.284 14.4187V21.4011H116.896V3.62542H112.284ZM92.6396 17.7633C90.5796 17.7633 88.3559 16.0843 88.3559 12.3933C88.3559 9.02207 90.4432 7.26316 92.5032 7.26316C94.0038 7.26316 95.0543 7.87611 95.8864 9.23527L99.4062 6.95668C97.6054 4.37162 95.4635 3.19901 92.4759 3.19901C86.6233 3.19901 84.004 7.82281 84.004 12.3933C84.004 17.9499 87.4692 21.8275 92.4213 21.8275C96.1047 21.8275 97.7827 20.5083 99.5426 18.0698L95.9956 15.7379C95.2043 16.9905 94.3449 17.7633 92.6396 17.7633ZM57.8381 3.17236C52.8314 3.17236 49.4754 6.91671 49.4754 12.4999C49.4754 18.0831 52.8314 21.8275 57.8381 21.8275C62.8448 21.8275 66.2008 18.0831 66.2008 12.4999C66.2008 6.91671 62.8448 3.17236 57.8381 3.17236ZM57.8381 17.7633C55.3825 17.7633 53.8 15.6979 53.8 12.4999C53.8 9.31522 55.3825 7.26316 57.8381 7.26316C60.3073 7.26316 61.9035 9.31522 61.9035 12.4999C61.9035 15.6979 60.3073 17.7633 57.8381 17.7633Z" fill="#002852"/>
</g>
<defs>
<clipPath id="clip0_527_16756">
<rect width="116.014" height="24.2044" fill="white" transform="translate(0.88147 0.397949)"/>
</clipPath>
</defs>
</svg>
