<svg width="212" height="19" viewBox="0 0 212 19" fill="none" xmlns="http://www.w3.org/2000/svg">
<g clip-path="url(#clip0_418_1579)">
<path fill-rule="evenodd" clip-rule="evenodd" d="M0.332275 0.38913H7.92209C12.1436 0.38913 14.351 2.6248 14.351 5.3703C14.351 7.26555 13.3076 8.5528 11.8608 9.23363V9.28271C13.7111 9.96355 14.7545 11.4693 14.7545 13.3883C14.7545 16.1338 12.6908 18.5389 8.23125 18.5389H0.332275V0.38913ZM7.68559 7.58063C8.94231 7.58063 9.51271 6.92513 9.51271 6.19521C9.51271 5.4653 8.94386 4.78605 7.68559 4.78605H5.45656V7.58063H7.68559ZM7.75669 14.1404C9.08453 14.1404 9.72603 13.4849 9.72603 12.6346C9.72603 11.7844 9.06134 11.1289 7.78143 11.1289H5.45656V14.142H7.75669V14.1404ZM15.8443 11.1526V0.38913H21.0149V11.1035C21.0149 13.1207 21.9872 14.1895 23.6474 14.1895C25.3076 14.1895 26.351 13.1207 26.351 11.0798V0.38913H31.5464V11.1526C31.5464 15.7205 28.5584 19.0012 23.6474 19.0012C18.7364 19.0012 15.8427 15.7205 15.8427 11.1526H15.8443ZM44.7118 1.26313V5.92763C43.5973 5.12646 41.6991 4.56755 40.158 4.56755C38.759 4.56755 38.0464 5.02988 38.0464 5.6363C38.0464 6.24271 38.8286 6.55938 40.2291 7.06921C42.6018 7.91946 45.8264 9.06105 45.8264 12.9244C45.8264 16.3745 43.2882 18.9252 38.8286 18.9252C36.5284 18.9252 34.4169 18.2444 33.1122 17.3466V12.4383C34.3937 13.507 36.3383 14.3573 38.2118 14.3573C39.8009 14.3573 40.5367 13.7493 40.5367 13.07C40.5367 12.196 39.3263 11.8065 37.8795 11.2714C35.9812 10.5668 32.97 9.3033 32.97 5.78038C32.97 2.59788 35.4139 -0.00195312 39.7777 -0.00195312C41.6991 -0.00195312 43.4304 0.50788 44.7118 1.26155V1.26313ZM47.1542 0.38913H52.3248V18.5389H47.1542V0.38913ZM70.7089 18.5389H65.7747L59.3937 8.79663H59.3705V18.5389H54.4611V0.38913H59.3953L65.7763 9.96196H65.7995V0.38913H70.7089V18.5389ZM72.8436 0.38913H85.0832V5.10271H78.0143V7.2893H84.3706V11.5659H78.0143V13.8253H85.0832V18.5389H72.8436V0.38913ZM98.0585 1.26313V5.92763C96.944 5.12646 95.0458 4.56755 93.5046 4.56755C92.1057 4.56755 91.3931 5.02988 91.3931 5.6363C91.3931 6.24271 92.1752 6.55938 93.5757 7.06921C95.9485 7.91946 99.173 9.06105 99.173 12.9244C99.173 16.3745 96.6348 18.9252 92.1752 18.9252C89.8751 18.9252 87.7636 18.2444 86.4589 17.3466V12.4383C87.7404 13.507 89.685 14.3573 91.5585 14.3573C93.1475 14.3573 93.8833 13.7493 93.8833 13.07C93.8833 12.196 92.673 11.8065 91.2261 11.2714C89.3279 10.5668 86.3167 9.3033 86.3167 5.78038C86.3167 2.59788 88.7606 -0.00195312 93.1244 -0.00195312C95.0458 -0.00195312 96.7771 0.50788 98.0585 1.26155V1.26313ZM111.745 1.26313V5.92763C110.63 5.12646 108.732 4.56755 107.191 4.56755C105.792 4.56755 105.079 5.02988 105.079 5.6363C105.079 6.24271 105.862 6.55938 107.262 7.06921C109.635 7.91946 112.859 9.06105 112.859 12.9244C112.859 16.3745 110.321 18.9252 105.862 18.9252C103.562 18.9252 101.45 18.2444 100.145 17.3466V12.4383C101.427 13.507 103.371 14.3573 105.245 14.3573C106.834 14.3573 107.57 13.7493 107.57 13.07C107.57 12.196 106.359 11.8065 104.913 11.2714C103.014 10.5668 100.003 9.3033 100.003 5.78038C100.003 2.59788 102.447 -0.00195312 106.811 -0.00195312C108.732 -0.00195312 110.463 0.50788 111.745 1.26155V1.26313ZM118.851 18.5737H124.022V0.425547H118.851V18.5753V18.5737ZM142.403 0.425547H137.493V9.99838H137.47L131.089 0.425547H126.155V18.5753H131.064V8.83305H131.087L137.468 18.5753H142.403V0.425547ZM150.725 0.0360469C146.36 0.0360469 143.917 2.63588 143.917 5.81838C143.917 9.3413 146.93 10.6048 148.827 11.3094C150.274 11.8445 151.484 12.2325 151.484 13.108C151.484 13.7889 150.748 14.3953 149.159 14.3953C147.286 14.3953 145.34 13.545 144.06 12.4763V17.3846C145.364 18.284 147.476 18.9632 149.776 18.9632C154.236 18.9632 156.774 16.4125 156.774 12.9624C156.774 9.09905 153.548 7.95746 151.176 7.10721C149.777 6.59738 148.994 6.30605 148.994 5.6743C148.994 5.04255 149.705 4.60555 151.105 4.60555C152.646 4.60555 154.545 5.16446 155.659 5.96563V1.29955C154.378 0.54588 152.646 0.0360469 150.725 0.0360469ZM157.981 18.5737H163.152V0.425547H157.981V18.5753V18.5737ZM170.457 13.7873H171.454C174.134 13.7873 175.866 12.2325 175.866 9.51071C175.866 6.78896 174.134 5.21038 171.454 5.21038H170.457V13.7873ZM181.084 9.51071C181.084 14.978 177.051 18.5737 171.264 18.5737H165.286V0.425547H171.264C177.051 0.425547 181.084 4.04505 181.084 9.5123V9.51071ZM182.486 18.5737H194.726V13.8601H187.657V11.6007H194.013V7.32413H187.657V5.13755H194.726V0.425547H182.486V18.5753V18.5737ZM202.864 9.00088C204.169 9.00088 205.189 8.36913 205.189 7.10563C205.189 5.84213 204.169 5.21038 202.841 5.21038H201.75V9.00088H202.864ZM211.332 18.5737H205.236L201.867 12.9608H201.748V18.5737H196.578V0.425547H202.888C207.324 0.425547 210.406 2.44271 210.406 6.74305C210.406 8.44355 209.671 10.9215 206.729 12.185L211.331 18.5753L211.332 18.5737Z" fill="#111111"/>
</g>
<defs>
<clipPath id="clip0_418_1579">
<rect width="211" height="19" fill="white" transform="translate(0.332275)"/>
</clipPath>
</defs>
</svg>
