<svg width="63" height="63" viewBox="0 0 63 63" fill="none" xmlns="http://www.w3.org/2000/svg">
<g clip-path="url(#clip0_1179_348)">
<path d="M51.3339 0H11.6673C5.22395 0 0.000610352 5.22334 0.000610352 11.6667V51.3333C0.000610352 57.7767 5.22395 63 11.6673 63H51.3339C57.7773 63 63.0006 57.7767 63.0006 51.3333V11.6667C63.0006 5.22334 57.7773 0 51.3339 0Z" fill="#0056F0"/>
<path d="M25.1625 20.9619H9.70346C8.54908 20.9619 7.61328 21.8534 7.61328 22.953V40.798C7.61328 41.8977 8.54908 42.7891 9.70346 42.7891H25.1625C26.3169 42.7891 27.2527 41.8977 27.2527 40.798V22.953C27.2527 21.8534 26.3169 20.9619 25.1625 20.9619Z" fill="white"/>
<path d="M24.5312 23.3472H10.3344C9.96912 23.3472 9.67297 23.6433 9.67297 24.0086V34.3255C9.67297 34.6908 9.96912 34.9869 10.3344 34.9869H24.5312C24.8965 34.9869 25.1926 34.6908 25.1926 34.3255V24.0086C25.1926 23.6433 24.8965 23.3472 24.5312 23.3472Z" fill="#7BCDFF"/>
<path d="M24.5312 35.8818H10.3344C9.96912 35.8818 9.67297 36.178 9.67297 36.5433V36.9529C9.67297 37.3182 9.96912 37.6143 10.3344 37.6143H24.5312C24.8965 37.6143 25.1926 37.3182 25.1926 36.9529V36.5433C25.1926 36.178 24.8965 35.8818 24.5312 35.8818Z" fill="#7BCDFF"/>
<path d="M24.5312 38.7144H10.3344C9.96912 38.7144 9.67297 39.0105 9.67297 39.3758V39.7854C9.67297 40.1507 9.96912 40.4468 10.3344 40.4468H24.5312C24.8965 40.4468 25.1926 40.1507 25.1926 39.7854V39.3758C25.1926 39.0105 24.8965 38.7144 24.5312 38.7144Z" fill="#7BCDFF"/>
<path d="M53.2956 20.9619H37.8365C36.6821 20.9619 35.7463 21.8534 35.7463 22.953V40.798C35.7463 41.8977 36.6821 42.7891 37.8365 42.7891H53.2956C54.4499 42.7891 55.3857 41.8977 55.3857 40.798V22.953C55.3857 21.8534 54.4499 20.9619 53.2956 20.9619Z" fill="white"/>
<path d="M52.3441 23.3472H39.0292C38.4869 23.3472 38.0472 23.7868 38.0472 24.3292V39.6464C38.0472 40.1888 38.4869 40.6284 39.0292 40.6284H52.3441C52.8865 40.6284 53.3262 40.1888 53.3262 39.6464V24.3292C53.3262 23.7868 52.8865 23.3472 52.3441 23.3472Z" fill="#7BCDFF"/>
<path d="M38.3284 13.769H24.7814C22.996 13.769 21.5487 15.2164 21.5487 17.0017V45.9982C21.5487 47.7835 22.996 49.2308 24.7814 49.2308H38.3284C40.1137 49.2308 41.561 47.7835 41.561 45.9982V17.0017C41.561 15.2164 40.1137 13.769 38.3284 13.769Z" fill="white"/>
<path d="M38.2799 18.3774H24.8301C24.3522 18.3774 23.9648 18.7648 23.9648 19.2427L23.9646 43.757C23.9646 44.2349 24.352 44.6223 24.8299 44.6223H38.2797C38.7576 44.6223 39.145 44.2349 39.145 43.757L39.1452 19.2427C39.1452 18.7648 38.7578 18.3774 38.2799 18.3774Z" fill="#7BCDFF"/>
<path d="M37.0182 40.2793H26.0915C25.444 40.2793 24.9191 40.8042 24.9191 41.4517V41.6166C24.9191 42.2641 25.444 42.789 26.0915 42.789H37.0182C37.6657 42.789 38.1906 42.2641 38.1906 41.6166V41.4517C38.1906 40.8042 37.6657 40.2793 37.0182 40.2793Z" fill="white"/>
</g>
<defs>
<clipPath id="clip0_1179_348">
<rect width="63" height="63" fill="white"/>
</clipPath>
</defs>
</svg>
