<svg width="30" height="30" viewBox="0 0 30 30" fill="none" xmlns="http://www.w3.org/2000/svg">
<g clip-path="url(#clip0_743_25327)">
<path d="M29.4228 14.4446V15.5557C29.4228 23.2263 22.9654 29.4446 14.9997 29.4446C7.03409 29.4446 0.57666 23.2263 0.57666 15.5557V14.4446C0.57666 6.77393 7.03409 0.555664 14.9997 0.555664C22.9654 0.555664 29.4228 6.77393 29.4228 14.4446Z" stroke="white" stroke-width="0.4" stroke-linejoin="round"/>
<path d="M20.1441 12.4245C19.9018 10.0289 17.8503 8.64446 15.2495 8.62891C11.7926 8.62891 9.72485 11.2734 9.72485 14.4467C9.72485 17.62 11.7926 20.2645 15.2495 20.2645C18.0441 20.2645 19.9987 18.4289 20.1603 15.7689H18.1895C18.028 17.3867 17.0426 18.6778 15.2495 18.6778C12.778 18.6778 11.7441 16.5778 11.7441 14.4467C11.7441 12.3156 12.778 10.2156 15.2495 10.2156C16.9295 10.2156 17.7856 11.1489 18.1249 12.4245H20.1441Z" fill="white"/>
</g>
<defs>
<clipPath id="clip0_743_25327">
<rect width="30" height="30" fill="white"/>
</clipPath>
</defs>
</svg>
