<svg width="63" height="63" viewBox="0 0 63 63" fill="none" xmlns="http://www.w3.org/2000/svg">
<g clip-path="url(#clip0_1174_386)">
<path d="M47.5823 13.1921H15.3707C14.1174 13.1921 13.1015 14.2081 13.1015 15.4613V47.673C13.1015 48.9262 14.1174 49.9421 15.3707 49.9421H47.5823C48.8356 49.9421 49.8515 48.9262 49.8515 47.673V15.4613C49.8515 14.2081 48.8356 13.1921 47.5823 13.1921Z" stroke="#6CE7FF" stroke-width="0.318199" stroke-miterlimit="10"/>
<path d="M51.3333 0H11.6667C5.22334 0 0 5.22334 0 11.6667V51.3333C0 57.7767 5.22334 63 11.6667 63H51.3333C57.7767 63 63 57.7767 63 51.3333V11.6667C63 5.22334 57.7767 0 51.3333 0Z" fill="#0056F0"/>
<path d="M49.5716 41.1571V21.9071C49.5716 20.8375 48.7045 19.9705 47.6349 19.9705L15.3591 19.9705C14.2895 19.9705 13.4224 20.8375 13.4224 21.9071V41.1571C13.4224 42.2267 14.2895 43.0938 15.3591 43.0938H47.6349C48.7045 43.0938 49.5716 42.2267 49.5716 41.1571Z" fill="#F1F3F5"/>
<path d="M40.6172 31.1443H38.5726C38.0603 31.1443 37.6451 31.5595 37.6451 32.0718V37.803C37.6451 38.3153 38.0603 38.7305 38.5726 38.7305H40.6172C41.1294 38.7305 41.5447 38.3153 41.5447 37.803V32.0718C41.5447 31.5595 41.1294 31.1443 40.6172 31.1443Z" fill="#7BCDFF"/>
<path d="M35.8776 34.936H33.833C33.3208 34.936 32.9055 35.3513 32.9055 35.8635V37.8002C32.9055 38.3124 33.3208 38.7277 33.833 38.7277H35.8776C36.3898 38.7277 36.8051 38.3124 36.8051 37.8002V35.8635C36.8051 35.3513 36.3898 34.936 35.8776 34.936Z" fill="#7BCDFF"/>
<path d="M45.2838 24.5498H43.2393C42.727 24.5498 42.3118 24.9651 42.3118 25.4773V37.8002C42.3118 38.3125 42.727 38.7277 43.2393 38.7277H45.2838C45.7961 38.7277 46.2113 38.3125 46.2113 37.8002V25.4773C46.2113 24.9651 45.7961 24.5498 45.2838 24.5498Z" fill="#7BCDFF"/>
<path d="M29.9831 32.0456H24.2664C23.8697 32.0456 23.546 31.7219 23.546 31.3252V25.6085C23.546 25.1769 23.1668 24.8415 22.7352 24.8881C19.0718 25.2994 16.2397 28.4552 16.3447 32.2498C16.4497 36.0094 19.5822 39.1419 23.3389 39.244C27.1335 39.349 30.2893 36.5169 30.7006 32.8535C30.7502 32.4248 30.4147 32.0427 29.9802 32.0427L29.9831 32.0456Z" fill="#7BCDFF"/>
<path d="M24.3189 24.7597V30.4939C24.3189 30.8934 24.6427 31.2172 25.0422 31.2172H30.7764C31.211 31.2172 31.5464 30.838 31.4997 30.4064C31.1264 27.0668 28.4752 24.4155 25.1356 24.0422C24.7039 23.9926 24.3247 24.3309 24.3247 24.7626L24.3189 24.7597Z" fill="#7BCDFF"/>
</g>
<defs>
<clipPath id="clip0_1174_386">
<rect width="63" height="63" fill="white"/>
</clipPath>
</defs>
</svg>
