<svg width="116" height="24" viewBox="0 0 116 24" fill="none" xmlns="http://www.w3.org/2000/svg">
<g id="Dentsu_logo" clip-path="url(#clip0_519_15575)">
<g id="layer1">
<g id="g24125">
<path id="path24127" d="M12.5342 16.3099C11.8449 16.7524 10.7874 17.095 9.5906 17.1177C8.41503 17.1472 7.39526 16.7977 6.71542 16.1806C5.80423 15.3479 5.33684 13.9116 5.33684 11.9309C5.33684 9.99998 5.91046 6.74178 9.66613 6.48993C10.176 6.45362 11.5428 6.35152 12.5342 6.32656V16.3099ZM12.5342 -1.62836V2.36045H9.88095C2.02496 2.36045 0.386719 8.00104 0.386719 12.0647C0.386719 15.0393 1.33095 17.6214 3.02584 19.3367C4.48704 20.8002 6.44395 21.5829 8.69358 21.5829C10.1996 21.5829 11.4696 21.3129 12.5342 20.7729L12.5626 21.1813H17.7464V-1.62836H12.5342Z" fill="white"/>
</g>
<g id="g24129">
<path id="path24131" d="M26.6151 9.09693C27.1439 7.29312 28.4422 6.13596 30.5219 6.13596C32.4576 6.13596 33.7795 7.4406 33.9376 9.09693H26.6151ZM39.0294 9.18089C38.8311 7.05035 38.0167 5.24653 36.6901 3.99181C35.2053 2.58279 33.1232 1.86354 30.5219 1.86354C27.5216 1.86354 25.0524 2.93221 23.3717 4.9493C21.8751 6.7395 21.0513 9.24442 21.0513 12.008C21.0513 16.6208 23.7659 21.5716 31.3741 21.5716C34.2894 21.5716 37.1362 20.7026 38.7697 19.9198V15.3002C37.8609 15.7835 35.0778 17.2288 31.2773 17.163C28.4894 17.1177 26.9881 15.6769 26.5184 13.1379H39.079L39.0861 12.9519C39.1144 11.2502 39.079 9.81392 39.0294 9.18089Z" fill="white"/>
</g>
<g id="g24133">
<path id="path24135" d="M52.6923 1.90892C51.0069 1.90892 49.1467 2.51699 48.4291 2.77338L48.4055 2.36044H43.2146V21.1813H48.4291V7.08438C49.5551 6.40824 51.2996 6.12462 52.7112 6.44227C54.1086 6.75765 54.7956 7.60851 54.7956 10.0454V21.1813H59.9959V9.30568C59.9959 4.32988 57.6117 1.90892 52.6923 1.90892Z" fill="white"/>
</g>
<g id="g24137">
<path id="path24139" d="M110.404 2.35594V16.4529C109.294 17.1358 107.538 17.4149 106.126 17.1041C104.731 16.7887 104.047 15.9424 104.047 13.4919V2.35594H98.8369V14.2361C98.8369 19.2097 101.228 21.6284 106.141 21.6284C107.828 21.6284 109.696 21.0271 110.404 20.7639L110.434 21.1768H115.614V2.35594H110.404Z" fill="white"/>
</g>
<g id="g24141">
<path id="path24143" d="M69.6081 -1.62832H64.4006V14.7058C64.4006 16.9521 64.8067 18.5267 65.673 19.6385C66.6928 20.9545 68.3593 21.5875 70.76 21.5875C72.6886 21.5875 74.5464 21.1814 75.6322 20.8524V16.3463C74.9595 16.5096 72.8963 16.9362 71.7019 16.9362C70.9441 16.9362 70.4107 16.7842 70.0825 16.4688C69.6081 16.0037 69.6081 15.2118 69.6081 14.4494V6.49904C71.65 6.49904 74.2065 6.63518 75.6322 6.78266V2.36049H69.6081V-1.62832Z" fill="white"/>
</g>
<g id="g24145">
<path id="path24147" d="M88.8256 9.41915C87.6028 9.20587 86.1557 8.95855 85.3201 8.51611C84.9141 8.30283 84.6993 8.00106 84.704 7.66752C84.7182 7.34079 84.9519 7.02541 85.2989 6.86205C86.0566 6.45817 87.4328 6.26304 89.5243 6.63061C91.5331 6.97776 93.7615 7.72198 94.4508 8.00106V3.45863C92.043 2.31054 89.8996 1.86356 87.4871 1.89759C85.2469 1.93844 83.3113 2.50113 81.8855 3.51989C80.3841 4.61125 79.5391 6.16548 79.4541 8.02375C79.3006 11.1481 81.3402 13.0177 86.0401 13.8958C87.0174 14.0818 88.4408 14.3609 89.0451 14.6037C89.6541 14.8351 90.0153 15.2208 90.0153 15.6587C90.02 16.0785 89.7108 16.4733 89.2221 16.673C88.3416 17.0269 86.9088 16.9747 85.9976 16.8817C83.3065 16.6208 80.7335 15.7064 79.8011 15.3093V19.9743C81.3921 20.7503 83.9014 21.6465 86.8781 21.6056C90.2867 21.5398 94.5169 20.5642 95.2794 16.2441C95.5721 14.64 95.2746 13.1901 94.4201 12.0466C93.3767 10.6648 91.7692 9.95008 88.8256 9.41915Z" fill="white"/>
</g>
</g>
</g>
<defs>
<clipPath id="clip0_519_15575">
<rect width="116" height="24" fill="white"/>
</clipPath>
</defs>
</svg>
