<svg width="96" height="29" viewBox="0 0 96 29" fill="none" xmlns="http://www.w3.org/2000/svg">
<g clip-path="url(#clip0_541_754)">
<path fill-rule="evenodd" clip-rule="evenodd" d="M10.0212 9.96598C10.2615 9.7523 10.3913 9.59242 10.1974 9.59242C9.79222 9.59242 7.33852 9.95053 6.83301 8.11742C6.32715 6.28452 9.03211 0.753829 9.13408 0.516778C9.23204 0.289062 9.0296 0 8.73254 0C8.44083 0 8.22685 0.313067 8.1961 0.351409C5.43531 3.77565 1.58109 8.05224 1.0846 9.89568C-0.171501 14.563 4.68506 16.4545 7.75059 16.8003C7.80492 16.8063 7.83184 16.7638 7.83184 16.7311V15.0739C7.83184 12.8375 8.67804 11.1624 10.0212 9.96598Z" fill="#002852"/>
<path fill-rule="evenodd" clip-rule="evenodd" d="M86.7417 9.96598C86.5014 9.7523 86.3715 9.59242 86.5655 9.59242C86.9706 9.59242 89.4243 9.95053 89.9299 8.11742C90.4358 6.28452 87.7308 0.753829 87.6288 0.516778C87.5309 0.289062 87.7333 0 88.0304 0C88.3221 0 88.5361 0.313067 88.5668 0.351409C91.3276 3.77565 95.1818 8.05224 95.6783 9.89568C96.9344 14.563 92.0779 16.4545 89.0123 16.8003C88.958 16.8063 88.9312 16.7638 88.9312 16.7311V15.0739C88.9312 12.8375 88.0849 11.1624 86.7417 9.96598Z" fill="#002852"/>
<path fill-rule="evenodd" clip-rule="evenodd" d="M83.5151 21.8809C83.5151 23.691 81.0681 24.7251 79.4757 24.7251C77.772 24.7251 75.362 23.691 75.362 21.8809V15.5025C75.362 13.6934 77.772 12.8439 79.4757 12.8439C81.0681 12.8439 83.5151 13.6934 83.5151 15.5025V21.8809ZM79.4757 8.89209C75.6979 8.9296 71.2886 11.108 71.2886 15.5025V22.187C71.2886 26.6555 75.6979 28.7607 79.4757 28.7974C83.1791 28.7607 87.589 26.6555 87.589 22.187V15.5025C87.589 11.108 83.1791 8.9296 79.4757 8.89209Z" fill="#002852"/>
<path fill-rule="evenodd" clip-rule="evenodd" d="M55.0508 21.8809C55.0508 23.691 52.6029 24.7251 51.0109 24.7251C49.3077 24.7251 46.8977 23.691 46.8977 21.8809V15.5025C46.8977 13.6934 49.3077 12.8439 51.0109 12.8439C52.6029 12.8439 55.0508 13.6934 55.0508 15.5025V21.8809ZM51.0109 8.89209C47.2336 8.9296 42.8241 11.108 42.8241 15.5025V22.187C42.8241 26.6555 47.2336 28.7607 51.0109 28.7974C54.7144 28.7607 59.1244 26.6555 59.1244 22.187V15.5025C59.1244 11.108 54.7144 8.9296 51.0109 8.89209Z" fill="#002852"/>
<path fill-rule="evenodd" clip-rule="evenodd" d="M42.5188 10.3475C39.5036 9.53378 37.2739 9.19338 34.0424 9.19287C30.8098 9.19204 28.5745 9.53329 25.5648 10.3444C25.422 10.3763 25.3941 10.5222 25.4599 10.6102C26.4903 11.4593 26.9227 12.5942 27.123 13.875C28.7783 13.4736 30.2708 13.2394 32.0056 13.1426V28.6662C32.0039 28.7216 32.0444 28.7556 32.1034 28.7556H35.9797C36.0466 28.7608 36.0795 28.7318 36.0787 28.6698V13.1452C37.7468 13.2436 39.1385 13.4766 40.7813 13.875C41.0313 12.6015 41.5532 11.4138 42.6086 10.6187C42.7022 10.503 42.6217 10.3752 42.5188 10.3475Z" fill="#002852"/>
<path fill-rule="evenodd" clip-rule="evenodd" d="M71.4362 9.02916C71.1465 8.98865 70.2912 8.86562 69.538 8.8938C65.8274 9.03549 61.6311 11.219 61.6311 15.5026V15.848V22.1875V28.7076C61.6297 28.7627 61.6701 28.797 61.7293 28.797H65.6056C65.6726 28.8021 65.7055 28.7731 65.7041 28.7109V28.3652H65.7048V15.5026C65.7048 14.09 67.449 13.2165 68.904 12.9221C69.3271 11.5137 70.1583 10.4977 71.4307 9.47892C71.6536 9.30038 71.6417 9.0575 71.4362 9.02916Z" fill="#002852"/>
<path fill-rule="evenodd" clip-rule="evenodd" d="M21.188 16.6303C21.188 16.6755 21.1707 16.717 21.1419 16.747C21.1107 16.78 21.066 16.8011 21.0169 16.8011H13.587V15.4554C13.587 13.6197 15.7748 12.7585 17.5027 12.7585C19.1179 12.7585 21.1891 13.6197 21.1891 15.4554L21.188 16.6303ZM17.5027 8.75049C13.6713 8.78816 9.45552 10.9978 9.45552 15.4554V22.2348C9.45552 26.7671 13.6713 28.9025 17.5027 28.9397C20.2476 28.9125 23.3728 27.7802 24.8602 25.3799C24.9099 25.3003 24.8659 25.1952 24.7904 25.1512C23.4789 24.4014 22.7177 23.9861 21.4179 23.2566C21.377 23.2336 21.3328 23.2336 21.2996 23.2888C20.5895 24.4683 18.7769 25.1193 17.5027 25.1193C15.7748 25.1193 13.587 24.0703 13.587 22.2348V20.2093H24.2079C24.7753 20.2093 25.235 19.7509 25.235 19.1849V15.4554C25.235 10.9978 21.2589 8.78816 17.5027 8.75049Z" fill="#002852"/>
</g>
<defs>
<clipPath id="clip0_541_754">
<rect width="95" height="29" fill="white" transform="translate(0.881447)"/>
</clipPath>
</defs>
</svg>
