<svg width="33" height="33" viewBox="0 0 33 33" fill="none" xmlns="http://www.w3.org/2000/svg">
<g clip-path="url(#clip0_741_25061)">
<path d="M6.11111 0.25H26.8889C30.1259 0.25 32.75 2.87411 32.75 6.11111V26.8889C32.75 30.1259 30.1259 32.75 26.8889 32.75H6.11111C2.87411 32.75 0.25 30.1259 0.25 26.8889V6.11111C0.25 2.87411 2.87411 0.25 6.11111 0.25Z" stroke="#F2F5F7" stroke-width="0.5"/>
<path d="M14.6131 26.7742C9.66 25.8881 5.90625 21.6118 5.90625 16.451C5.90625 10.7157 10.5981 6.02393 16.3333 6.02393C22.0686 6.02393 26.7604 10.7157 26.7604 16.451C26.7604 21.6134 23.0067 25.8881 18.0536 26.7742L17.4807 26.3052H15.186L14.6131 26.7742Z" fill="#F2F5F7"/>
<path d="M20.4003 19.3706L20.8694 16.451H18.1056V14.4176C18.1056 13.5834 18.4188 12.957 19.67 12.957H21.0252V10.2987C20.2949 10.1948 19.4607 10.0894 18.7305 10.0894C16.3319 10.0894 14.6635 11.5499 14.6635 14.1563V16.451H12.0571V19.3706H14.6635V26.7223C15.2364 26.8262 15.8109 26.8781 16.3838 26.8781C16.9567 26.8781 17.5312 26.8262 18.1041 26.7223V19.3706H20.3988H20.4003Z" fill="#002852"/>
</g>
<defs>
<clipPath id="clip0_741_25061">
<rect width="33" height="33" fill="white"/>
</clipPath>
</defs>
</svg>
