<svg width="125" height="18" viewBox="0 0 125 18" fill="none" xmlns="http://www.w3.org/2000/svg">
<g id="Frame 79">
<path id="Vector" d="M0 9.13828C0 3.49935 4.71511 0 9.88263 0C15.6603 0 19.7902 4.15235 19.7902 8.9539C19.7902 13.7554 15.6852 17.9078 9.85772 17.9078C3.95139 17.9078 0 13.5941 0 9.16516V9.13828ZM4.78986 8.93089C4.78986 11.566 6.74059 14.0359 9.95732 14.0359C13.3525 14.0359 15.0004 11.1933 15.0004 8.97695C15.0004 6.73753 13.3526 3.87198 9.90754 3.87198C6.58705 3.87198 4.78986 6.48402 4.78986 8.90783V8.93089Z" fill="white"/>
<path id="Vector_2" d="M22.1975 4.64024H26.124V6.01538C26.124 6.01538 26.3773 5.55057 26.9874 5.105C27.5933 4.64022 28.5811 4.19849 30.0546 4.19849C31.0176 4.19849 32.2296 4.42899 33.2714 5.43153C33.5744 5.71192 33.8525 6.06146 34.1057 6.50707C34.3837 6.10757 34.7158 5.71192 35.1184 5.38542C35.9568 4.6863 37.0982 4.19849 38.5675 4.19849C39.5554 4.19849 41.1243 4.40586 42.2657 5.50451C43.5856 6.78362 43.7849 7.6479 43.7849 10.5173V17.5813H39.5803V10.7017C39.5803 10.1677 39.5803 9.46478 39.3023 8.88476C39.049 8.27785 38.5137 7.83615 37.4262 7.83615C36.2599 7.83615 35.6788 8.32395 35.4007 8.90781C35.0936 9.49168 35.0936 10.1447 35.0936 10.5173V17.5813H30.889V10.5404C30.889 10.1908 30.889 9.51473 30.6357 8.93087C30.3577 8.32395 29.8512 7.83615 28.7845 7.83615C27.5933 7.83615 27.0122 8.34701 26.7092 8.97697C26.4021 9.60694 26.4021 10.306 26.4021 10.7017V17.5813H22.1975V4.64024Z" fill="white"/>
<path id="Vector_3" d="M46.7524 4.64024H50.6789V6.01538C51.1604 5.38541 52.0486 4.19849 54.5556 4.19849C59.2914 4.19849 59.7729 7.74006 59.7729 9.49167V17.5813H55.5683V10.5173C55.5683 9.0922 55.2405 7.83615 53.3644 7.83615C51.2849 7.83615 50.957 9.21128 50.957 10.5404V17.5813H46.7524V4.64024Z" fill="white"/>
<path id="Vector_4" d="M62.7656 0.326477H66.9702V3.26502H62.7656V0.326477ZM62.7656 4.6402H66.9702V17.5813H62.7656V4.6402Z" fill="white"/>
<path id="Vector_5" d="M84.2286 12.6607C83.469 15.5992 80.6549 18 76.853 18C72.5986 18 69.3279 14.9232 69.3279 11.0742C69.3279 7.27527 72.5446 4.19849 76.7533 4.19849C80.4764 4.19849 83.494 6.45713 84.2037 9.62999H79.9451C79.4886 8.74265 78.6544 7.81309 76.9028 7.81309C75.9149 7.7671 75.0806 8.11269 74.4705 8.7196C73.8894 9.32649 73.5615 10.1677 73.5615 11.0973C73.5615 12.9872 74.9022 14.3854 76.9028 14.3854C78.6544 14.3854 79.4886 13.452 79.9451 12.6607H84.2286Z" fill="white"/>
<path id="Vector_6" d="M85.8765 11.0742C85.8765 7.92829 88.3336 4.2215 93.4514 4.2215C98.5691 4.2215 101.026 7.92829 101.026 11.0973C101.026 14.2702 98.5691 17.977 93.4514 17.977C88.3336 17.977 85.8765 14.2702 85.8765 11.0973V11.0742ZM90.081 11.1203C90.081 12.9871 91.6251 14.3622 93.4514 14.3622C95.2776 14.3622 96.8217 12.9871 96.8217 11.0972C96.8217 9.21119 95.2776 7.83602 93.4514 7.83602C91.6251 7.83602 90.081 9.21119 90.081 11.0972V11.1203Z" fill="white"/>
<path id="Vector_7" d="M103.408 4.64024H107.335V6.01538C107.335 6.01538 107.588 5.55057 108.198 5.105C108.804 4.64022 109.792 4.19849 111.266 4.19849C112.229 4.19849 113.445 4.42899 114.482 5.43153C114.785 5.71192 115.063 6.06146 115.317 6.50707C115.595 6.10757 115.927 5.71192 116.334 5.38542C117.168 4.6863 118.309 4.19849 119.779 4.19849C120.766 4.19849 122.34 4.40586 123.477 5.50451C124.797 6.78362 125 7.6479 125 10.5173V17.5813H120.791V10.7017C120.791 10.1677 120.791 9.46478 120.513 8.88476C120.26 8.27785 119.729 7.83615 118.637 7.83615C117.471 7.83615 116.89 8.32395 116.612 8.90781C116.305 9.49168 116.305 10.1447 116.305 10.5173V17.5813H112.1V10.5404C112.1 10.1908 112.1 9.51473 111.847 8.93087C111.569 8.32395 111.062 7.83615 109.995 7.83615C108.804 7.83615 108.223 8.34701 107.92 8.97697C107.613 9.60694 107.613 10.306 107.613 10.7017V17.5813H103.408L103.408 4.64024Z" fill="white"/>
</g>
</svg>
