<svg width="156" height="21" viewBox="0 0 156 21" fill="none" xmlns="http://www.w3.org/2000/svg">
<path d="M21.5461 10.5001C21.5906 13.2526 20.4947 15.9006 18.5185 17.8169C16.6047 19.7697 13.97 20.8468 11.236 20.7932C8.49085 20.8342 5.85052 19.7418 3.93613 17.7738C-0.0903101 13.7611 -0.101892 7.24382 3.91111 3.21707C3.91961 3.20857 3.92764 3.20024 3.93613 3.19174C5.85608 1.23643 8.49595 0.156854 11.236 0.206733C13.9761 0.164575 16.612 1.25728 18.5185 3.22602C20.4874 5.12976 21.5827 7.76175 21.5461 10.5001ZM20.9202 10.5001C20.1223 8.72088 18.8303 7.20814 17.1974 6.14262C15.4297 4.93611 13.333 4.30405 11.193 4.33277C9.05434 4.31301 6.96005 4.94398 5.1885 6.14262C3.58111 7.22312 2.30943 8.73261 1.51739 10.5001C3.24848 14.2801 7.03525 16.6939 11.193 16.6675C15.3635 16.6948 19.1657 14.2838 20.9202 10.5001ZM16.717 10.5001C16.7122 13.5253 14.2612 15.9766 11.236 15.9811C8.21829 15.9757 5.77624 13.525 5.7818 10.5074C5.7872 7.48966 8.2379 5.04791 11.2553 5.05316C12.6989 5.05563 14.0824 5.62916 15.1042 6.64866C16.1558 7.65118 16.7403 9.04764 16.717 10.5001Z" fill="black"/>
<path d="M23.382 10.5003C23.4655 5.04358 27.9572 0.687752 33.4139 0.77145C33.441 0.771913 33.468 0.772374 33.495 0.773146C36.5489 0.753535 39.4462 2.12328 41.3692 4.49584L38.7015 7.1635C37.4608 5.53032 35.5453 4.54896 33.495 4.49584C30.1788 4.49584 27.4906 7.18404 27.4906 10.5003C27.4906 13.8165 30.1788 16.5047 33.495 16.5047C35.584 16.4726 37.5449 15.4908 38.8217 13.8371L41.5066 16.5047C39.543 18.9017 36.5934 20.2725 33.495 20.2271C28.0391 20.3558 23.512 16.0371 23.3833 10.5812C23.3829 10.5543 23.3823 10.5273 23.382 10.5003Z" fill="black"/>
<path d="M42.9991 1.17627H50.8562C54.5875 1.17627 56.8607 3.44074 56.8607 6.09975C56.8769 7.79486 55.8571 9.32844 54.2872 9.96837C56.2986 10.5651 57.6887 12.3998 57.7185 14.4976C57.7185 17.431 55.3167 19.8243 51.3195 19.8243H42.9991V1.17627ZM50.5903 8.37287C51.6206 8.49425 52.5541 7.75718 52.6753 6.72671C52.7967 5.6964 52.0596 4.76291 51.0292 4.64153C50.8834 4.62439 50.7359 4.62439 50.5901 4.64153H46.9964V8.37287H50.5903ZM51.1221 16.3672C52.726 16.3672 53.6953 15.4323 53.6953 14.0941C53.6953 12.7562 52.7691 11.8296 51.1221 11.8296H46.9964V16.3672H51.1221Z" fill="black"/>
<path d="M58.2673 17.2937L60.935 14.6344C62.0506 15.8915 63.6461 16.6176 65.3268 16.6331C67.4626 16.6331 68.3892 15.698 68.3892 14.4972C68.3892 11.2976 59.0652 12.7816 59.0652 6.23682C59.0652 3.30324 61.6384 0.772855 65.8588 0.772855C68.2133 0.720351 70.483 1.65307 72.1205 3.34617L69.4615 6.01383C68.5804 5.03896 67.3431 4.46064 66.0302 4.40968C64.0318 4.40968 63.2339 5.21608 63.2339 6.2796C63.2339 9.47925 72.5578 7.99524 72.5578 14.54C72.5578 17.6022 69.8902 20.2699 65.4987 20.2699C62.7737 20.3558 60.1422 19.2728 58.2673 17.2937Z" fill="black"/>
<path d="M79.1882 1.17627H82.7821L91.823 12.7647V1.17627H95.8203V19.8241H92.2176L83.1855 8.23558V19.8241H79.1882V1.17627Z" fill="black"/>
<path d="M98.5566 1.17627H112.41V4.9076H102.545V8.5015H110.265V12.0957H102.545V16.1013H112.675V19.824H98.5566V1.17627Z" fill="black"/>
<path d="M113.619 1.17627H117.745L121.614 13.6996H121.742L125.611 1.17627H129.342L133.202 13.6996H133.339L137.199 1.17627H141.334L135.2 19.8241H131.341L127.558 7.70391H127.395L123.612 19.8241H119.743L113.619 1.17627Z" fill="black"/>
<path d="M141.042 17.2937L143.71 14.6344C144.825 15.8915 146.421 16.6176 148.101 16.6331C150.237 16.6331 151.164 15.698 151.164 14.4972C151.164 11.2976 141.84 12.7816 141.84 6.23682C141.84 3.30324 144.37 0.772855 148.633 0.772855C150.988 0.720351 153.257 1.65307 154.895 3.34617L152.236 6.01383C151.354 5.03896 150.117 4.46064 148.805 4.40968C146.806 4.40968 146.008 5.21608 146.008 6.2796C146.008 9.47925 155.332 7.99524 155.332 14.54C155.332 17.6022 152.665 20.2699 148.273 20.2699C145.548 20.3558 142.917 19.2728 141.042 17.2937Z" fill="black"/>
</svg>
