<svg width="127" height="28" viewBox="0 0 127 28" fill="none" xmlns="http://www.w3.org/2000/svg">
<path d="M64.8253 13.0939L60.3827 3.45667H54.645L59.237 13.0939H64.8253Z" fill="white"/>
<path d="M43.9764 13.0939L45.6757 8.61328L47.5427 13.0939H52.911L48.6417 3.45667H42.542L38.6631 13.0939H43.9764Z" fill="white"/>
<path d="M31.4433 3.45667H26.1768V13.0948H31.4433V3.45667Z" fill="white"/>
<path d="M16.0021 3.45667H10.7383V13.0948H16.0021V3.45667Z" fill="white"/>
<path d="M112.723 13.0938C109.558 11.2127 105.254 10.8278 105.254 8.80431C105.254 7.74616 106.457 7.06186 108.35 7.06186C110.148 7.06186 111.978 7.59185 115.037 8.9577V4.82616C112.375 3.67892 110.243 3.18567 107.888 3.18567C102.987 3.18567 99.8298 5.60232 99.8298 9.26816C99.8298 10.9151 100.331 12.1376 101.119 13.0938H112.723Z" fill="white"/>
<path d="M72.5418 13.0939L76.9257 3.45667H71.2577L67.0305 13.0939H72.5418Z" fill="white"/>
<path d="M84.3371 13.0939L86.0391 8.61328L87.9034 13.0939H93.2689L88.9987 3.45667H82.8971L79.0137 13.0939H84.3371Z" fill="white"/>
<path d="M77.9919 15.6483L74.3743 24.6416H79.9534L83.3712 15.6483H77.9919Z" fill="white"/>
<path d="M88.9631 15.6483L92.7119 24.6416H98.3845L94.4011 15.6483H88.9631Z" fill="white"/>
<path d="M60.4524 15.6483L64.8748 24.9125H67.1634L71.3879 15.6483H60.4524Z" fill="white"/>
<path d="M105.017 15.6483C107.766 16.7661 110.579 17.3016 110.579 19.0762C110.579 20.3236 109.491 21.0382 107.48 21.0382C105.153 21.0382 103.298 20.3245 100.26 18.3046V22.8716C102.369 23.9527 104.2 24.9125 107.887 24.9125C112.592 24.9125 116 22.5547 116 18.4939C116 17.365 115.752 16.4308 115.325 15.6483H105.017Z" fill="white"/>
<path d="M31.4433 15.6474H26.1768V24.6407H31.4433V15.6474Z" fill="white"/>
<path d="M16.0047 15.6474H10.74V24.6407H16.0047V15.6474Z" fill="white"/>
<path d="M37.6341 15.6483L34.0137 24.6416H39.5937L43.0088 15.6483H37.6341Z" fill="white"/>
<path d="M48.6086 15.6483L52.3592 24.6416H58.0281L54.0448 15.6483H48.6086Z" fill="white"/>
</svg>
