<svg width="160" height="48" viewBox="0 0 160 48" fill="none" xmlns="http://www.w3.org/2000/svg">
<rect width="160" height="48" fill="#002852"/>
<path d="M56.1443 36.9043L57.0908 37.017C57.519 37.0621 57.5641 37.4227 57.5641 37.648V38.7524H53.2144V37.648C53.2144 37.4227 53.2595 37.0621 53.6877 37.017L54.6343 36.9043V35.9578H49V36.9043L49.9466 37.017C50.3748 37.0621 50.4198 37.4227 50.4198 37.648V41.2991C50.4198 41.5244 50.3748 41.885 49.9466 41.9301L49 42.0428V42.9894H54.6343V42.0428L53.6877 41.9301C53.2595 41.885 53.2144 41.5244 53.2144 41.2991V40.1947H57.5416V41.2991C57.5416 41.5244 57.4965 41.885 57.0683 41.9301L56.1217 42.0428V42.9894H61.756V42.0428L60.8095 41.9301C60.3813 41.885 60.3362 41.5244 60.3362 41.2991V37.648C60.3362 37.4227 60.3813 37.0621 60.8095 37.017L61.756 36.9043V35.9578H56.1217V36.9043H56.1443Z" fill="white"/>
<path d="M93.6688 35.9578H86.7274V36.9043L87.5612 36.9945C87.8542 37.0395 88.057 37.1522 88.057 37.5579V41.2765C88.057 41.5019 88.012 41.8625 87.5838 41.9076L86.6372 42.0203V42.9668H93.6688C96.193 42.9668 98.2664 41.9526 98.2664 39.451C98.2664 36.9494 96.193 35.9578 93.6688 35.9578ZM93.1504 41.6371H90.784V37.31H93.1504C94.5477 37.31 95.021 37.9636 95.021 39.4736C95.021 40.961 94.5477 41.6371 93.1504 41.6371Z" fill="white"/>
<path d="M110.075 41.9301C109.625 41.885 109.489 41.592 109.354 41.3892L106.109 36.431C105.883 36.0704 105.703 35.9578 105.365 35.9578H100.046V36.9043L101.331 37.0395C101.511 37.0621 101.759 37.31 101.556 37.6255L99.1448 41.5244C99.0546 41.6822 98.9194 41.8625 98.649 41.9076L97.7024 42.0203V42.9668H102.187V42.0203L101.421 41.9526C101.083 41.9076 100.903 41.6822 101.083 41.4118L101.444 40.8258H105.771L106.086 41.2991C106.379 41.7273 106.019 41.9076 105.703 41.9301L104.914 42.0203V42.9668H110.999V42.0203L110.075 41.9301ZM102.187 39.5862L103.517 37.4227L104.937 39.5862H102.187Z" fill="white"/>
<path d="M81.7013 36.9042L82.6479 37.0168C83.0761 37.0619 83.1212 37.4225 83.1212 37.6479V41.1637L79.4025 36.2506C79.2448 36.0252 79.087 35.9576 78.6813 35.9576H73.8584V36.9042L74.805 37.0168C75.2332 37.0619 75.2782 37.4225 75.2782 37.6479V41.2989C75.2782 41.5243 75.2332 41.8849 74.805 41.9299L73.8584 42.0426V42.9892H78.3658V42.0426L77.4193 41.9299C76.9911 41.8849 76.946 41.5243 76.946 41.2989V37.7831L80.6646 42.6737C80.8449 42.899 80.9801 42.9666 81.3858 42.9666H81.4309H84.8114V37.6253C84.8114 37.4 84.8565 37.0394 85.2847 36.9943L86.2313 36.8816V35.9351H81.7464L81.7013 36.9042Z" fill="white"/>
<path d="M67.7958 35.7097C63.2208 35.7097 62.0488 37.7155 62.0488 39.4509C62.0488 41.1862 63.2208 43.2146 67.7958 43.2146C72.3708 43.2146 73.5428 41.2088 73.5428 39.4734C73.5428 37.7155 72.3708 35.7097 67.7958 35.7097ZM67.7958 41.8849C66.0154 41.8849 65.2942 41.1412 65.2942 39.4734C65.2942 37.8057 66.0379 37.0619 67.7958 37.0619C69.5762 37.0619 70.2974 37.8057 70.2974 39.4734C70.2974 41.1412 69.5762 41.8849 67.7958 41.8849Z" fill="white"/>
<path d="M87.7862 6.32129C87.0199 9.76947 86.7044 11.3696 86.0734 13.8487C85.4649 16.2376 84.9916 18.4688 84.1802 19.5506C83.3689 20.6549 82.2646 20.8803 81.5209 20.9704C81.1377 21.0155 80.8447 21.038 80.0109 21.038C79.177 21.038 78.884 21.0155 78.5009 20.9704C77.7572 20.8803 76.6528 20.6549 75.8415 19.5506C75.0302 18.4688 74.5569 16.2376 73.9709 13.8487C73.3399 11.3471 73.0244 9.76947 72.2581 6.32129C72.2581 6.32129 71.4918 6.34383 71.1538 6.36636C70.6805 6.3889 70.3199 6.43397 69.9368 6.47905C69.9368 6.47905 70.3875 13.5782 70.5903 16.5982C70.7932 19.7534 71.1763 25.0947 71.5144 29.1289C71.5144 29.1289 72.1679 29.2416 73.2497 29.2866C74.3766 29.3542 74.8949 29.3542 74.8949 29.3542C75.3682 27.5738 75.9316 25.1173 76.5852 24.058C77.1261 23.2016 77.9375 23.1115 78.4107 23.0438C79.1319 22.9537 79.763 22.9312 80.0334 22.9312C80.3264 22.9312 80.9349 22.9312 81.6561 23.0438C82.1294 23.1115 82.9407 23.2016 83.4816 24.058C84.1352 25.1173 84.7211 27.5738 85.1719 29.3542C85.1719 29.3542 85.6677 29.3542 86.7945 29.2866C87.8763 29.219 88.5299 29.1289 88.5299 29.1289C88.868 25.0947 89.2511 19.776 89.4539 16.5982C89.6568 13.6008 90.1075 6.47905 90.1075 6.47905C89.7244 6.43397 89.3412 6.3889 88.8905 6.36636C88.5524 6.34383 87.7862 6.32129 87.7862 6.32129Z" fill="white"/>
<path d="M96.7336 10.5132C96.2828 6.0058 93.2628 5.05925 90.626 4.6085C89.2963 4.38313 86.9299 4.20283 85.4199 4.13522C84.0902 4.04507 80.9801 4 80.0335 4C79.087 4 75.9768 4.04507 74.6472 4.13522C73.1372 4.20283 70.7708 4.38313 69.4411 4.6085C66.8042 5.05925 63.7843 6.0058 63.3335 10.5132C63.1983 11.7528 63.1758 13.3529 63.1983 15.0657C63.2434 17.928 63.4913 19.8436 63.6265 21.1958C63.7166 22.1199 64.0998 24.8694 64.5956 26.2892C65.2717 28.25 65.8802 28.8134 66.6014 29.3994C67.9085 30.4586 70.0721 30.7967 70.5229 30.8868C72.9569 31.315 77.87 31.4052 80.0561 31.4052C82.2196 31.4052 87.1553 31.3376 89.5893 30.8868C90.04 30.7967 92.2036 30.4811 93.5107 29.3994C94.2319 28.8134 94.8404 28.25 95.5165 26.2892C96.0124 24.8694 96.3955 22.0973 96.4856 21.1958C96.6209 19.8661 96.8688 17.928 96.9138 15.0657C96.8913 13.3304 96.8462 11.7302 96.7336 10.5132ZM95.0658 18.0857C94.7954 21.6917 94.4798 23.8552 94.0291 25.4103C93.6234 26.785 93.1276 27.6865 92.4064 28.3401C91.1894 29.4444 89.5217 29.6698 88.53 29.8276C86.4115 30.1431 82.8281 30.2558 80.0335 30.2558C77.2164 30.2558 73.6555 30.1431 71.537 29.8276C70.5454 29.6698 68.8776 29.4444 67.6606 28.3401C66.9395 27.6865 66.4436 26.7625 66.038 25.4103C65.5872 23.8552 65.2492 21.6917 65.0013 18.0857C64.8435 15.9221 64.866 12.4064 65.1139 10.5132C65.452 7.67355 66.8493 6.25371 69.8467 5.73536C71.244 5.48745 73.1372 5.30715 74.9176 5.21701C76.36 5.12686 78.7038 5.08178 80.0335 5.08178C81.3407 5.05925 83.7071 5.12686 85.1269 5.21701C86.9074 5.30715 88.8005 5.48745 90.1978 5.73536C93.1952 6.27625 94.5925 7.69609 94.9531 10.5132C95.201 12.3838 95.2236 15.8996 95.0658 18.0857Z" fill="white"/>
</svg>
