<svg width="165" height="23" viewBox="0 0 165 23" fill="none" xmlns="http://www.w3.org/2000/svg">
<path d="M63.7255 3.41464V9.57682H56.7545V3.41801H52.9105V19.592H56.7545V13.086H63.7288V19.592H67.5762V3.41464H63.7255ZM81.6596 3.41464L77.6372 9.81953L73.6215 3.41464H69.0842L75.7219 13.9861V19.5887H79.5626V13.9861L86.2003 3.41464H81.6596ZM98.5603 3.41464V15.2671C98.5603 15.7188 98.2237 16.0795 97.7458 16.0795H91.5859V3.41801H87.742V19.592H99.0989C100.109 19.592 100.923 19.2887 101.516 18.6987C102.105 18.1054 102.404 17.293 102.404 16.2851V3.41464H98.5603ZM117.326 3.41464H105.966V19.5887H109.803V6.91373H115.976C116.471 6.91373 116.784 7.30477 116.784 7.72277V19.5887H120.628V6.72159C120.628 5.71029 120.325 4.89451 119.743 4.30458C119.143 3.71129 118.336 3.41464 117.326 3.41464ZM135.549 3.41464H124.189V19.5887H135.549C136.559 19.5887 137.367 19.2853 137.956 18.6954C138.552 18.1021 138.848 17.2897 138.848 16.2817V6.72159C138.848 5.71029 138.552 4.89451 137.956 4.30458C137.367 3.71129 136.556 3.41464 135.549 3.41464ZM135.007 7.75311V15.2435C135.011 15.3528 134.993 15.4618 134.953 15.5637C134.913 15.6657 134.854 15.7586 134.777 15.8367C134.701 15.9149 134.609 15.9767 134.508 16.0184C134.407 16.0601 134.299 16.0809 134.19 16.0795H128.026V6.9171H134.163C134.668 6.9171 135.004 7.26769 135.004 7.75311M145.546 3.41464C144.537 3.41464 143.722 3.71129 143.133 4.30458C142.541 4.90125 142.248 5.71366 142.248 6.72159V19.5887H146.078V14.5861H153.059V19.5887H156.9V3.41464H145.546ZM153.059 6.9171V11.0837H146.078V7.73289C146.078 7.33511 146.388 6.91373 146.9 6.91373L153.059 6.9171ZM160.64 19.5887H164.484V3.41464H160.64V19.5887ZM22.8621 22.7675C34.9966 22.7675 44.8354 17.7211 44.8354 11.5017C44.8354 5.27543 34.9966 0.232422 22.8621 0.232422C10.731 0.232422 0.895508 5.27206 0.895508 11.5017C0.895508 17.7211 10.731 22.7675 22.8621 22.7675ZM27.0023 17.2357C26.632 18.0886 26.0026 19.9056 24.5552 20.6303C24.0939 20.8413 23.5946 20.9559 23.0876 20.9674H22.8655C18.8128 20.9674 15.0361 20.4011 11.8788 19.4404L11.7576 19.3932C11.4648 19.2954 11.3167 19.1606 11.3167 18.992C11.3167 18.8504 11.3941 18.7392 11.4984 18.6347L11.697 18.4594C12.4308 17.8526 14.6255 16.2581 18.7623 14.667C20.213 14.1142 22.0307 13.4231 23.9325 13.0186C25.0466 12.786 29.1835 12.1523 26.9989 17.2391M38.1 5.87884C38.1774 5.744 38.2818 5.62938 38.4703 5.61927C38.5713 5.60916 38.7126 5.63276 38.9247 5.7676C41.5031 7.35533 43.0346 9.34422 43.0346 11.4983C43.0346 15.3783 38.0495 18.719 30.917 20.1786C30.4592 20.2696 30.1529 20.2662 30.0519 20.1516C29.9778 20.0842 29.9576 19.9561 30.0519 19.801C30.105 19.7068 30.1682 19.6187 30.2404 19.5381C34.1248 14.9536 37.0835 8.18797 37.9216 6.23953C37.9889 6.10469 38.0495 5.96986 38.1 5.87884ZM18.7926 5.73726C19.1628 4.88777 19.7923 3.0708 21.2397 2.34941C21.6773 2.13029 22.2226 2.02579 22.7039 2.01231H22.9227C26.9821 2.01231 30.752 2.57189 33.9161 3.53937C33.9396 3.54948 34.0137 3.57308 34.0373 3.58656C34.3267 3.68432 34.4748 3.81916 34.4748 3.98434C34.4748 4.12929 34.3974 4.23716 34.2964 4.33829C34.2493 4.38549 34.1854 4.43942 34.0945 4.51359C33.3674 5.12711 31.1694 6.71822 27.0326 8.30595C25.5751 8.86217 23.7608 9.55322 21.8658 9.95437C20.7482 10.1903 16.608 10.8241 18.7926 5.73726ZM14.814 2.81123C15.2717 2.72359 15.5747 2.72359 15.6858 2.8382C15.7531 2.91236 15.7699 3.03372 15.6824 3.18541C15.6274 3.27925 15.5631 3.36733 15.4905 3.44835C11.6062 8.03628 8.64743 14.7985 7.80256 16.7537C7.74197 16.8885 7.67802 17.0233 7.62416 17.111C7.55011 17.2458 7.44577 17.3638 7.26063 17.3739C7.15965 17.384 7.01492 17.3537 6.79949 17.2222C4.22113 15.6379 2.69632 13.649 2.69632 11.4949C2.69632 7.61153 7.67802 4.27087 14.814 2.8146" fill="#002852"/>
</svg>
