<svg width="30" height="30" viewBox="0 0 30 30" fill="none" xmlns="http://www.w3.org/2000/svg">
<path d="M26.4338 25.543C26.1027 25.543 25.7791 25.6441 25.5039 25.8335C25.2287 26.0229 25.0142 26.2921 24.8876 26.6071C24.7611 26.922 24.7281 27.2685 24.7928 27.6028C24.8576 27.937 25.0172 28.244 25.2515 28.4848C25.4858 28.7256 25.7842 28.8895 26.1089 28.9557C26.4337 29.0218 26.7702 28.9873 27.0759 28.8565C27.3816 28.7257 27.6428 28.5045 27.8263 28.2209C28.0099 27.9372 28.1076 27.6039 28.107 27.263C28.107 27.0369 28.0638 26.813 27.9796 26.6042C27.8955 26.3953 27.7722 26.2056 27.6168 26.0458C27.4614 25.8861 27.2769 25.7594 27.0739 25.6731C26.8709 25.5869 26.6534 25.5426 26.4338 25.543Z" fill="white"/>
<path d="M3.70633 15.7495C3.3759 15.7495 3.05289 15.8504 2.77815 16.0394C2.50341 16.2284 2.28927 16.497 2.16282 16.8113C2.03637 17.1256 2.00328 17.4715 2.06775 17.8051C2.13221 18.1388 2.29133 18.4453 2.52498 18.6858C2.75863 18.9264 3.05632 19.0902 3.3804 19.1566C3.70448 19.223 4.0404 19.1889 4.34568 19.0587C4.65096 18.9285 4.91188 18.7081 5.09546 18.4252C5.27904 18.1423 5.37702 17.8098 5.37702 17.4696C5.37634 17.0136 5.2001 16.5765 4.88694 16.2541C4.57377 15.9317 4.14922 15.7502 3.70633 15.7495Z" fill="white"/>
<path d="M4.9891 20.3828H2.42358V28.9246H4.9891V20.3828Z" fill="white"/>
<path d="M19.4098 26.3601C19.0788 26.3601 18.7553 26.259 18.4802 26.0697C18.205 25.8805 17.9905 25.6114 17.8639 25.2966C17.7372 24.9818 17.7041 24.6354 17.7687 24.3013C17.8332 23.9671 17.9926 23.6601 18.2266 23.4192C18.4606 23.1783 18.7588 23.0142 19.0834 22.9477C19.4079 22.8813 19.7444 22.9154 20.0501 23.0458C20.3559 23.1761 20.6172 23.397 20.8011 23.6803C20.9849 23.9636 21.0831 24.2966 21.0831 24.6374C21.0831 25.0942 20.9068 25.5324 20.593 25.8555C20.2792 26.1786 19.8536 26.3601 19.4098 26.3601ZM22.6762 21.6259C22.3237 21.2337 21.8965 20.9205 21.4213 20.7056C20.9461 20.4908 20.4331 20.379 19.9141 20.3771C19.131 20.3786 18.3682 20.6339 17.7339 21.1067V15.5151H15.1736V28.9242H17.7391V28.184C18.3728 28.6538 19.1332 28.908 19.9141 28.9109C20.4324 28.9078 20.9445 28.7952 21.4188 28.5799C21.893 28.3646 22.3192 28.0513 22.671 27.6595C23.4062 26.8371 23.8142 25.7603 23.8142 24.6427C23.8142 23.525 23.4062 22.4482 22.671 21.6259" fill="white"/>
<path d="M10.0865 26.3604C9.75542 26.361 9.43166 26.2604 9.15615 26.0714C8.88064 25.8824 8.66577 25.6136 8.53873 25.2988C8.41168 24.9841 8.37818 24.6376 8.44245 24.3033C8.50672 23.9689 8.66588 23.6617 8.89979 23.4205C9.1337 23.1793 9.43184 23.015 9.75649 22.9483C10.0811 22.8816 10.4177 22.9156 10.7236 23.0459C11.0295 23.1762 11.291 23.397 11.475 23.6803C11.659 23.9637 11.7572 24.2969 11.7572 24.6377C11.7572 25.0942 11.5812 25.5319 11.268 25.8549C10.9547 26.1779 10.5298 26.3597 10.0865 26.3604ZM11.7623 20.3881V21.1177C11.1274 20.6416 10.3625 20.3844 9.57699 20.3828C9.05965 20.3855 8.54838 20.4977 8.07498 20.7126C7.60158 20.9274 7.17619 21.2402 6.82527 21.6316C6.09176 22.4548 5.68481 23.5313 5.68481 24.6484C5.68481 25.7655 6.09176 26.842 6.82527 27.6651C7.17606 28.0569 7.60137 28.3701 8.07476 28.5854C8.54814 28.8007 9.05949 28.9134 9.57699 28.9166C10.3619 28.9137 11.1258 28.6556 11.7597 28.179V28.9272H14.3253V20.3828L11.7623 20.3881Z" fill="white"/>
<path d="M24.9312 23.6149H25.2752C25.1444 23.53 25.0369 23.412 24.9631 23.2722C24.8893 23.1323 24.8516 22.9752 24.8537 22.8161C24.8502 22.6318 24.8968 22.4501 24.9882 22.2916C25.0796 22.1331 25.2121 22.004 25.3709 21.9188C25.2068 21.8255 25.0714 21.6867 24.98 21.5182C24.8886 21.3498 24.8448 21.1583 24.8537 20.9655C24.847 20.7932 24.8829 20.622 24.958 20.4679C25.0331 20.3138 25.1449 20.1818 25.283 20.0842C25.53 19.9443 25.8113 19.8814 26.0925 19.9031H28.1045V20.4623H26.1778C25.6037 20.449 25.345 20.6221 25.345 21.0348C25.345 21.506 25.6735 21.735 26.3381 21.735H28.0968V22.2942H26.2244C25.6425 22.2942 25.3528 22.4992 25.3528 22.9013C25.354 23.0224 25.3864 23.141 25.4469 23.2449C25.5073 23.3488 25.5936 23.4342 25.6968 23.4924C25.9123 23.5827 26.1446 23.6227 26.3769 23.6095H28.1045V24.1687H24.9312V23.6149Z" fill="white"/>
<path d="M26.6382 18.7104C27.29 18.6784 27.7089 18.2604 27.7089 17.6693C27.7089 17.2379 27.5331 16.977 27.0443 16.6628L27.3029 16.1889C27.5757 16.3251 27.8046 16.5395 27.9619 16.8064C28.1193 17.0732 28.1985 17.3812 28.19 17.6933C28.19 18.6385 27.5072 19.2908 26.5296 19.2908C25.552 19.2908 24.8538 18.6465 24.8538 17.7092C24.8538 16.772 25.521 16.1489 26.5296 16.1489H26.6382V18.7104ZM26.1805 16.748C25.9536 16.7782 25.7451 16.8924 25.5941 17.0693C25.443 17.2462 25.3597 17.4737 25.3597 17.7092C25.3597 17.9448 25.443 18.1723 25.5941 18.3492C25.7451 18.5261 25.9536 18.6403 26.1805 18.6704V16.748Z" fill="white"/>
<path d="M24.9312 15.0172H25.2752C25.1444 14.9324 25.0369 14.8144 24.9631 14.6745C24.8893 14.5346 24.8516 14.3776 24.8537 14.2184C24.8499 14.034 24.8964 13.8523 24.9878 13.6937C25.0792 13.5351 25.2119 13.4061 25.3709 13.3211C25.2068 13.2278 25.0714 13.0891 24.98 12.9206C24.8886 12.7521 24.8448 12.5606 24.8537 12.3679C24.8468 12.1955 24.8826 12.0242 24.9577 11.8701C25.0328 11.7159 25.1447 11.5839 25.283 11.4865C25.53 11.3466 25.8113 11.2837 26.0925 11.3055H28.1045V11.8646H26.1778C25.5959 11.8646 25.3528 12.0377 25.3528 12.4557C25.3528 12.927 25.6812 13.156 26.3459 13.156H28.1045V13.7152H26.2244C25.6425 13.7152 25.3528 13.9202 25.3528 14.3196C25.3531 14.4409 25.3853 14.5598 25.4458 14.6639C25.5064 14.7679 25.5931 14.8532 25.6968 14.9107C25.9117 15.0034 26.1443 15.0444 26.3769 15.0305H28.1045V15.5897H24.9312V15.0172Z" fill="white"/>
<path d="M25.3814 9.91281C25.2148 9.77753 25.0813 9.60403 24.9915 9.40615C24.9017 9.20828 24.8581 8.99152 24.8642 8.7732C24.8642 7.87323 25.5598 7.21289 26.5167 7.21289C27.4736 7.21289 28.19 7.88121 28.19 8.78651C28.1957 9.00286 28.1518 9.21755 28.062 9.41321C27.9721 9.60888 27.8388 9.78002 27.6728 9.91281H28.1073V10.472H22.5288V9.91281H25.3814ZM26.5219 9.95275C27.2098 9.95275 27.6986 9.50543 27.6986 8.86639C27.6924 8.71722 27.6572 8.57084 27.5951 8.43593C27.5329 8.30103 27.4451 8.18034 27.3368 8.08102C27.2285 7.9817 27.102 7.90577 26.9647 7.85773C26.8274 7.80968 26.6821 7.79051 26.5374 7.80133C25.8573 7.80133 25.3607 8.24866 25.3607 8.86639C25.3607 9.48412 25.8262 9.95275 26.5219 9.95275Z" fill="white"/>
<path d="M26.6382 6.25997C27.29 6.22802 27.7089 5.81265 27.7089 5.22154C27.7089 4.78753 27.5331 4.52925 27.0443 4.2124L27.3029 3.74111C27.5759 3.87708 27.8049 4.09144 27.9623 4.35836C28.1197 4.62529 28.1988 4.93338 28.19 5.24551C28.19 6.19074 27.5072 6.84309 26.5296 6.84309C25.552 6.84309 24.8538 6.19607 24.8538 5.26148C24.8538 4.32689 25.521 3.70117 26.5296 3.70117H26.6382V6.25997ZM26.1805 4.30027C25.9556 4.33261 25.7496 4.44759 25.6005 4.62399C25.4514 4.80039 25.3693 5.02633 25.3693 5.26015C25.3693 5.49397 25.4514 5.71991 25.6005 5.89631C25.7496 6.07271 25.9556 6.18769 26.1805 6.22003V4.30027Z" fill="white"/>
<path d="M24.9312 2.56652H25.2752C24.939 2.27629 24.8536 2.12985 24.8536 1.82631C24.8509 1.65054 24.8995 1.47797 24.9933 1.33105L25.4821 1.59732C25.4109 1.69171 25.3727 1.808 25.3735 1.92749C25.3709 2.03514 25.3968 2.1415 25.4482 2.23526C25.4997 2.32902 25.5748 2.40668 25.6657 2.46002C25.9108 2.56541 26.1769 2.60834 26.4416 2.58516H28.1148V3.14431H24.9312V2.56652Z" fill="white"/>
</svg>
