<svg width="78" height="78" viewBox="0 0 78 78" fill="none" xmlns="http://www.w3.org/2000/svg">
<path d="M38.9952 67.2101C54.5779 67.2101 67.2101 54.5779 67.2101 38.9952C67.2101 23.4125 54.5779 10.7803 38.9952 10.7803C23.4125 10.7803 10.7803 23.4125 10.7803 38.9952C10.7803 54.5779 23.4125 67.2101 38.9952 67.2101Z" stroke="#1D393D" stroke-width="3.77331" stroke-miterlimit="10"/>
<path d="M38.9954 55.2584C47.9772 55.2584 55.2584 47.9772 55.2584 38.9954C55.2584 30.0136 47.9772 22.7324 38.9954 22.7324C30.0136 22.7324 22.7324 30.0136 22.7324 38.9954C22.7324 47.9772 30.0136 55.2584 38.9954 55.2584Z" stroke="#1D393D" stroke-width="3.77331" stroke-miterlimit="10"/>
<path d="M38.9951 10.7803V2.43188" stroke="#1D393D" stroke-width="3.77331" stroke-linecap="round" stroke-linejoin="round"/>
<path d="M67.2197 38.9954H75.5682" stroke="#1D393D" stroke-width="3.77331" stroke-linecap="round" stroke-linejoin="round"/>
<path d="M38.9951 67.2197V75.5682" stroke="#1D393D" stroke-width="3.77331" stroke-linecap="round" stroke-linejoin="round"/>
<path d="M10.7806 38.9954H2.43213" stroke="#1D393D" stroke-width="3.77331" stroke-linecap="round" stroke-linejoin="round"/>
<path d="M38.9954 45.1553C42.3974 45.1553 45.1553 42.3974 45.1553 38.9954C45.1553 35.5933 42.3974 32.8354 38.9954 32.8354C35.5933 32.8354 32.8354 35.5933 32.8354 38.9954C32.8354 42.3974 35.5933 45.1553 38.9954 45.1553Z" stroke="#1D393D" stroke-width="3.77331" stroke-miterlimit="10"/>
</svg>
