<svg width="34" height="33" viewBox="0 0 34 33" fill="none" xmlns="http://www.w3.org/2000/svg">
<g clip-path="url(#clip0_741_25066)">
<path d="M6.2963 0.25H27.7037C31.0501 0.25 33.75 2.88109 33.75 6.11111V26.8889C33.75 30.1189 31.0501 32.75 27.7037 32.75H6.2963C2.94993 32.75 0.25 30.1189 0.25 26.8889V6.11111C0.25 2.88109 2.94993 0.25 6.2963 0.25Z" stroke="#F2F5F7" stroke-width="0.5"/>
<path d="M16.8283 7.1897C14.2374 7.1897 13.9131 7.20039 12.8963 7.24622C11.881 7.29206 11.1884 7.44789 10.5808 7.67706C9.95278 7.91386 9.42074 8.23011 8.89185 8.74498C8.36139 9.25984 8.03555 9.77623 7.79157 10.3843C7.55546 10.9725 7.3949 11.6462 7.34768 12.6316C7.30203 13.6186 7.29102 13.9348 7.29102 16.4496C7.29102 18.9643 7.30203 19.279 7.34926 20.2659C7.39648 21.2514 7.55703 21.9236 7.79315 22.5133C8.03713 23.1229 8.36296 23.6393 8.89342 24.1526C9.42389 24.6675 9.95592 24.9853 10.5824 25.2205C11.19 25.4497 11.8826 25.6055 12.8979 25.6514C13.9147 25.6957 14.2406 25.7079 16.8299 25.7079C19.4193 25.7079 19.7451 25.6972 20.7619 25.6514C21.7772 25.6055 22.4714 25.4497 23.0774 25.2205C23.7039 24.9837 24.2359 24.6675 24.7664 24.1526C25.2969 23.6378 25.6227 23.1214 25.8667 22.5133C26.1012 21.9251 26.2618 21.2514 26.3106 20.2659C26.3562 19.279 26.3688 18.9643 26.3688 16.4496C26.3688 13.9348 26.3562 13.6201 26.3106 12.6332C26.2633 11.6478 26.1012 10.9755 25.8667 10.3858C25.6227 9.77623 25.2969 9.25984 24.7664 8.7465C24.2359 8.23164 23.7055 7.91539 23.0774 7.67859C22.4698 7.44942 21.7756 7.29359 20.7604 7.24775C19.7435 7.20345 19.4193 7.19122 16.8283 7.19122H16.8315L16.8283 7.1897ZM15.972 8.85803C16.2255 8.85803 16.5088 8.85803 16.8283 8.85803C19.3752 8.85803 19.6774 8.8672 20.6817 8.9115C21.6119 8.95275 22.1156 9.104 22.4525 9.23081C22.898 9.39886 23.2144 9.599 23.5481 9.92289C23.8818 10.2468 24.088 10.5554 24.2611 10.9878C24.3918 11.3132 24.5476 11.8036 24.5901 12.7065C24.6357 13.6828 24.6452 13.9761 24.6452 16.4465C24.6452 18.9169 24.6357 19.2103 24.5901 20.1865C24.5476 21.0894 24.3918 21.5783 24.2611 21.9053C24.088 22.3376 23.8818 22.6447 23.5481 22.9686C23.2144 23.2925 22.898 23.4926 22.4525 23.6607C22.1172 23.7875 21.6119 23.9387 20.6817 23.98C19.6758 24.0243 19.3736 24.0334 16.8283 24.0334C14.2831 24.0334 13.9793 24.0243 12.975 23.98C12.0447 23.9387 11.541 23.7875 11.2042 23.6607C10.7587 23.4926 10.4407 23.2925 10.107 22.9686C9.77333 22.6447 9.56713 22.3361 9.39398 21.9053C9.26333 21.5798 9.1075 21.0894 9.065 20.1865C9.01935 19.2103 9.0099 18.9169 9.0099 16.445C9.0099 13.973 9.01935 13.6812 9.065 12.705C9.1075 11.8021 9.26333 11.3132 9.39398 10.9862C9.56713 10.5539 9.77333 10.2453 10.107 9.92136C10.4407 9.59748 10.7587 9.39734 11.2042 9.22928C11.541 9.10247 12.0447 8.95122 12.975 8.90997C13.8549 8.87178 14.1965 8.85956 15.9736 8.85803V8.86109L15.972 8.85803ZM21.9189 10.3965C21.2877 10.3965 20.7745 10.893 20.7745 11.5072C20.7745 12.1214 21.2877 12.6179 21.9189 12.6179C22.5501 12.6179 23.0632 12.1198 23.0632 11.5072C23.0632 10.8946 22.5501 10.3965 21.9189 10.3965ZM16.8283 11.6936C14.1241 11.6936 11.9298 13.8218 11.9298 16.448C11.9298 19.0743 14.1225 21.2009 16.8283 21.2009C19.5326 21.2009 21.7253 19.0728 21.7253 16.448C21.7253 13.8233 19.5326 11.6936 16.8283 11.6936ZM16.8283 13.3619C18.5834 13.3619 20.008 14.743 20.008 16.448C20.008 18.153 18.585 19.5341 16.8283 19.5341C15.0717 19.5341 13.6487 18.153 13.6487 16.448C13.6487 14.743 15.0717 13.3619 16.8283 13.3619Z" fill="#F2F5F7"/>
</g>
<defs>
<clipPath id="clip0_741_25066">
<rect width="34" height="33" fill="white"/>
</clipPath>
</defs>
</svg>
