<svg width="56" height="28" viewBox="0 0 56 28" fill="none" xmlns="http://www.w3.org/2000/svg">
<g id="IPG.D 1" clip-path="url(#clip0_519_15591)">
<g id="Layer">
<g id="Layer_2">
<g id="Layer_3">
<path id="8onga" fill-rule="evenodd" clip-rule="evenodd" d="M30.0951 8.07252C29.3309 9.42537 28.7964 10.9015 28.513 12.4321C28.2296 13.9663 28.2009 15.5368 28.4341 17.0782C28.6637 18.6233 29.1444 20.114 29.8655 21.4958C29.49 21.6748 29.1073 21.8319 28.7175 21.9673C28.3253 22.1027 27.9282 22.2152 27.5264 22.3046C27.1223 22.3965 26.7145 22.4642 26.3031 22.5078C25.8942 22.5537 25.4828 22.5755 25.069 22.573L19.5659 22.5803V28.4451H19.5587V28.4487H12.0933V1.19946H24.9112C24.9423 1.19946 24.9734 1.19946 25.0045 1.19946C25.0356 1.19946 25.0679 1.19946 25.1013 1.19946C25.1324 1.20188 25.1635 1.20309 25.1946 1.20309C25.2257 1.20551 25.2568 1.20793 25.2879 1.21034C27.261 1.28288 29.0511 1.80516 30.5758 2.68288C30.7982 2.79894 31.017 2.92468 31.2323 3.06008C31.4451 3.19307 31.6532 3.33452 31.8565 3.48444C32.0622 3.63435 32.2607 3.79273 32.452 3.95957C32.6433 4.12399 32.8287 4.29566 33.0081 4.47459C31.8457 5.50102 30.8628 6.71604 30.0951 8.07252ZM28.4986 11.8627C28.4986 8.8233 26.3713 7.53936 24.3085 7.53936V7.53211H19.5659V16.2368H24.4664C24.5776 16.2368 24.6816 16.2331 24.7856 16.2295C26.809 16.0663 28.4986 14.8331 28.4986 11.8627Z" fill="white"/>
</g>
<g id="Layer_4">
<path id="8ongb" d="M55.9426 14.144C55.9354 14.0521 55.9295 13.9603 55.9247 13.8684C55.9175 13.7765 55.9091 13.6858 55.8996 13.5964C55.89 13.5045 55.8804 13.4126 55.8709 13.3207C55.8589 13.2288 55.8469 13.1381 55.835 13.0487C55.8099 12.8347 55.7919 12.7005 55.7919 12.7005V12.6969H46.4359H43.4834H42.6296V19.0476H47.3614C45.7327 21.2021 42.974 22.1487 40.3839 21.4378C37.7937 20.7233 35.8888 18.4964 35.5659 15.8015C35.2431 13.1067 36.5632 10.4844 38.9094 9.16423C41.2556 7.84765 44.1579 8.09791 46.2493 9.79894L46.278 9.81345L51.7991 5.0005C46.6368 -0.124371 38.4395 -0.352869 33.0081 4.47459C34.522 6.00879 35.6556 8.2321 35.7453 11.4492C35.7525 11.5725 35.7525 11.6995 35.7561 11.8264L35.7596 11.8627V11.8699C35.7596 11.9425 35.7632 12.0114 35.7632 12.0875C35.7632 16.2658 33.3883 19.7984 29.8655 21.4958C32.183 25.9533 36.8072 29 42.1238 29C47.4332 29 52.0502 25.9606 54.3713 21.5176C54.3713 21.5176 54.3713 21.5188 54.3713 21.5212C54.3713 21.5212 54.3713 21.5224 54.3713 21.5249C54.3713 21.5249 54.3725 21.5261 54.3749 21.5285C54.3749 21.5309 54.3749 21.5321 54.3749 21.5321C54.5579 21.1875 54.7265 20.8321 54.87 20.4658C55.035 20.0717 55.1821 19.6715 55.3112 19.2653C55.4404 18.8566 55.5504 18.4432 55.6413 18.0248C55.7321 17.6065 55.8039 17.1858 55.8565 16.7627C55.9091 16.3371 55.9426 15.9103 55.957 15.4824C55.9594 15.4413 55.9617 15.4002 55.9641 15.359C55.9665 15.3179 55.9677 15.2768 55.9677 15.2357C55.9701 15.1946 55.9725 15.1523 55.9749 15.1088C55.9749 15.0677 55.9749 15.0266 55.9749 14.9855C55.9749 14.7171 55.9605 14.4269 55.9426 14.144Z" fill="#EBECED"/>
</g>
<g id="Layer_5">
<path id="8ongc" d="M35.7633 12.0876C35.7633 12.0114 35.7598 11.9389 35.7598 11.8699V11.8627L35.7562 11.8264C35.7562 11.6995 35.7526 11.5725 35.7454 11.4492C35.6557 8.23212 34.5221 6.00518 33.0082 4.47461C31.8459 5.50103 30.8629 6.71606 30.0952 8.07254C29.3311 9.42539 28.7965 10.9016 28.5131 12.4321C28.2297 13.9663 28.201 15.5368 28.4342 17.0782C28.6638 18.6233 29.1445 20.114 29.8656 21.4959C33.3885 19.7984 35.7633 16.2658 35.7633 12.0876Z" fill="#D0D3D6"/>
</g>
<g id="Layer_6">
<path id="8ongd" d="M0 1.26477L0.032287 28.4487H7.44753L7.41883 1.26477H0Z" fill="white"/>
</g>
</g>
</g>
</g>
<defs>
<clipPath id="clip0_519_15591">
<rect width="56" height="28" fill="white"/>
</clipPath>
</defs>
</svg>
