<svg width="160" height="48" viewBox="0 0 160 48" fill="none" xmlns="http://www.w3.org/2000/svg">
<rect width="160" height="48" fill="#002852"/>
<g clip-path="url(#clip0_875_23463)">
<path d="M88.02 33.83C88.02 34.02 88.08 34.13 88.19 34.13C88.28 34.12 88.36 34.08 88.43 34.03L119.6 13.8C120.127 13.4319 120.758 13.2426 121.4 13.26H128.25C129.3 13.26 130.01 13.96 130.01 15.01V28.09C130.01 29.67 129.66 30.59 128.26 31.43L119.95 36.43C119.867 36.4875 119.771 36.522 119.67 36.53C119.57 36.53 119.47 36.45 119.47 36.16V20.9C119.47 20.72 119.42 20.6 119.3 20.6C119.212 20.6101 119.129 20.6448 119.06 20.7L96.28 35.5C95.76 35.85 95.15 36.04 94.53 36.03H79.43C78.37 36.03 77.67 35.33 77.67 34.27V15.42C77.67 15.28 77.61 15.15 77.49 15.15C77.4025 15.1611 77.3195 15.1957 77.25 15.25L62.22 24.27C62.07 24.37 62.03 24.44 62.03 24.51C62.03 24.57 62.06 24.63 62.16 24.74L72.9 35.47C73.04 35.61 73.14 35.72 73.14 35.84C73.14 35.94 72.98 36.02 72.79 36.02H63.09C62.33 36.02 61.74 35.91 61.33 35.5L54.82 29C54.7953 28.9705 54.7648 28.9464 54.7304 28.9292C54.696 28.912 54.6584 28.902 54.62 28.9C54.5494 28.9033 54.4807 28.9239 54.42 28.96L43.54 35.5C42.88 35.9 42.43 36.01 41.78 36.01H31.77C30.7 36.02 30 35.31 30 34.26V21.43C30 19.84 30.35 18.93 31.76 18.09L40.12 13.07C40.1856 13.027 40.2617 13.0028 40.34 13C40.47 13 40.54 13.13 40.54 13.42V30.6C40.54 30.78 40.58 30.86 40.71 30.86C40.8 30.85 40.88 30.81 40.96 30.76L69.2 13.77C69.74 13.4 70.4 13.22 71.06 13.25H86.26C87.31 13.25 88.02 13.95 88.02 15L88.01 33.83H88.02Z" fill="white"/>
</g>
<defs>
<clipPath id="clip0_875_23463">
<rect width="100" height="25" fill="white" transform="translate(30 12)"/>
</clipPath>
</defs>
</svg>
