<svg width="129" height="44" viewBox="0 0 129 44" fill="none" xmlns="http://www.w3.org/2000/svg">
<path d="M3.21495 35.4379C3.02225 35.4379 2.86499 35.2778 2.86167 35.0776C2.82401 32.322 5.59273 28.8411 6.77552 27.3552L6.89735 27.2019C7.27611 26.7237 7.60724 26.2341 7.8819 25.7445L7.90627 25.6999C8.88196 23.9601 10.9131 20.3408 10.8533 15.9013C10.7813 10.5227 7.7036 5.53417 1.70213 1.0684C1.35105 1.84282 0.606823 3.82977 0.716464 6.51678C0.800633 8.55749 1.35327 10.6016 2.36108 12.5909C3.56935 14.9759 5.43768 17.2911 7.91845 19.4783C8.14991 18.7988 8.39799 17.6137 8.28392 16.185C8.17871 14.8569 7.78998 13.5117 7.13102 12.1848C6.30041 10.5147 5.03455 8.87092 3.36779 7.29692C3.22381 7.1608 3.21385 6.92973 3.34564 6.78102C3.47743 6.63231 3.70114 6.62202 3.84511 6.75814C5.58497 8.40078 6.90731 10.1258 7.77669 11.8839C8.47773 13.3024 8.8875 14.7471 8.99382 16.1758C9.17655 18.6306 8.40463 20.1806 8.37141 20.2458L8.16874 20.6451L7.83317 20.3579C5.08771 18.0072 3.03111 15.4987 1.72206 12.902C0.667735 10.8087 0.0918419 8.65587 0.00988792 6.50191C-0.128548 2.81971 1.21373 0.439256 1.27021 0.339737L1.46512 0L1.77744 0.227635C8.192 4.89817 11.4834 10.1681 11.5599 15.891C11.6219 20.5318 9.52541 24.2701 8.5176 26.066L8.49323 26.1094C8.19975 26.6322 7.84646 27.155 7.44334 27.664L7.3204 27.8184C6.2849 29.1202 3.5328 32.5793 3.56713 35.0673C3.57046 35.2686 3.4143 35.4345 3.21938 35.4379H3.21385H3.21495Z" fill="#002852"/>
<path d="M8.39587 26.025C8.2076 26.025 8.05033 25.8705 8.04258 25.6749C8.03483 25.4736 8.18655 25.3032 8.38147 25.2951C8.39033 25.2951 9.30733 25.2505 10.4691 24.8422C11.5278 24.4704 13.0174 23.7086 14.0972 22.1963C15.7518 19.8799 16.0265 16.4894 14.9134 12.1209C14.8636 11.9264 14.9766 11.7262 15.1648 11.6748C15.3542 11.6233 15.5469 11.74 15.5967 11.9344C16.7685 16.5317 16.4528 20.1327 14.6609 22.6356C13.7151 23.9568 12.3352 24.9611 10.6706 25.5411C9.41808 25.9769 8.45014 26.0215 8.40916 26.0238C8.40473 26.0238 8.39919 26.0238 8.39476 26.0238L8.39587 26.025Z" fill="#002852"/>
<path d="M13.7251 10.938C13.4748 10.938 13.2312 10.9003 13.0086 10.8076C12.5711 10.6269 12.2654 10.2563 12.1215 9.73466C11.8313 8.6777 12.2112 8.09317 12.4648 7.83923C12.8369 7.46517 13.3995 7.3279 13.8979 7.49034C14.3486 7.63676 14.6698 8.00852 14.7595 8.48553C14.796 8.68342 14.6709 8.87445 14.4793 8.91334C14.2877 8.95109 14.1028 8.82183 14.0651 8.62394C14.0142 8.34826 13.8303 8.23387 13.6863 8.18697C13.4361 8.10575 13.1437 8.17668 12.9587 8.36313C12.7173 8.60564 12.6619 9.02202 12.8037 9.53562C12.889 9.84448 13.0374 10.0332 13.2733 10.1305C14.0042 10.4324 15.3299 9.79071 15.7795 9.51732L15.847 9.47614L15.9246 9.46813C17.4164 9.31943 19.0078 9.1364 20.1186 8.98084C18.9757 8.7429 17.4086 8.44435 16.2889 8.23845L16.0962 8.20299L16.0231 8.01539C15.5514 6.81315 14.9035 6.10279 14.095 5.90718C12.5844 5.53999 10.9309 7.03163 10.9143 7.04651C10.7681 7.18034 10.5455 7.16661 10.4159 7.01562C10.2864 6.86463 10.2997 6.6347 10.4458 6.50087C10.5245 6.4288 12.3862 4.74498 14.2545 5.19568C15.2534 5.43704 16.0431 6.22976 16.6024 7.55325C17.5836 7.73513 21.3236 8.43405 21.8319 8.64453C22.0335 8.72803 22.1032 8.91678 22.0822 9.06663C22.0379 9.39035 21.75 9.46356 20.8706 9.6054C20.3855 9.68433 19.7144 9.7747 18.8738 9.87651C17.6345 10.0264 16.3842 10.1545 16.0685 10.1865C15.7618 10.365 14.6986 10.938 13.7273 10.938H13.7251Z" fill="#002852"/>
<path d="M31.7893 27.5575V28.4463H23.6393V12.0073H25.4522V27.5575H31.7893Z" fill="#002852"/>
<path d="M36.4906 12.0073H34.6776V28.4463H36.4906V12.0073Z" fill="#002852"/>
<path d="M41.605 12.8961V19.4129H47.1845V20.304H41.605V28.4463H39.792V12.0073H47.8622V12.8961H41.605Z" fill="#002852"/>
<path d="M51.9356 12.8961V19.4129H57.514V20.304H51.9356V27.5689H58.1929V28.4463H50.1215V12.0073H50.2002H58.1929V12.8961H51.9356Z" fill="#002852"/>
<path d="M71.0641 23.873C71.0641 28.3273 65.654 28.4463 64.9618 28.4463H60.6039V12.0074C60.6039 12.0074 64.1899 12.0005 65.4148 12.0005C66.5555 12.0005 70.5059 12.1972 70.5059 15.5042C70.5059 17.9705 68.7638 19.159 67.1203 19.7252C69.167 20.0775 71.0641 21.1791 71.0641 23.873ZM64.4546 12.8962H62.4168V19.334H63.8067C66.7759 19.334 68.5999 18.3514 68.5999 15.7937C68.5999 13.2359 66.9033 12.8962 64.4546 12.8962ZM69.157 24.1624C69.157 22.0645 68.2068 20.2263 64.3483 20.2263H62.4157V27.5563H63.8056C66.7139 27.5563 69.157 27.2555 69.157 24.1624Z" fill="#002852"/>
<path d="M99.305 20.2837C99.305 27.2443 95.1508 28.9018 92.7675 28.9018C90.3842 28.9018 86.23 27.2443 86.23 20.2837C86.23 14.2176 89.362 11.6885 92.7675 11.6885C96.173 11.6885 99.305 14.2176 99.305 20.2837ZM97.9106 20.2837C97.9106 13.5004 94.6114 12.5773 92.7686 12.5773C90.9257 12.5773 87.6265 13.4993 87.6265 20.2837C87.6265 27.0682 90.63 28.013 92.7686 28.013C94.9071 28.013 97.9106 27.1608 97.9106 20.2837Z" fill="#002852"/>
<path d="M99.305 20.2837C99.305 27.2443 95.1508 28.9018 92.7675 28.9018C90.3842 28.9018 86.23 27.2443 86.23 20.2837C86.23 14.2176 89.362 11.6885 92.7675 11.6885C96.173 11.6885 99.305 14.2176 99.305 20.2837ZM97.9106 20.2837C97.9106 13.5004 94.6114 12.5773 92.7686 12.5773C90.9257 12.5773 87.6265 13.4993 87.6265 20.2837C87.6265 27.0682 90.63 28.013 92.7686 28.013C94.9071 28.013 97.9106 27.1608 97.9106 20.2837Z" fill="#002852"/>
<path d="M84.8977 20.2837C84.8977 27.2443 80.7435 28.9018 78.3602 28.9018C75.9769 28.9018 71.8227 27.2443 71.8227 20.2837C71.8227 14.2176 74.9547 11.6885 78.3602 11.6885C81.7657 11.6885 84.8977 14.2176 84.8977 20.2837ZM83.5033 20.2837C83.5033 13.5004 80.2041 12.5773 78.3613 12.5773C76.5184 12.5773 73.2192 13.4993 73.2192 20.2837C73.2192 27.0682 76.2227 28.013 78.3613 28.013C80.4998 28.013 83.5033 27.1608 83.5033 20.2837Z" fill="#002852"/>
<path d="M104.852 28.195C106.625 28.195 108.753 27.273 108.753 24.8662C108.753 21.8395 105.661 21.2286 104.724 20.739C103.104 19.8914 100.665 19.2863 100.665 16.025C100.665 12.7638 103.46 11.5112 105.475 11.5112C107.489 11.5112 109.033 12.4881 109.033 12.4881V13.3769C109.033 13.3769 107.654 12.4 105.484 12.4C103.582 12.4 102.066 13.4787 102.066 15.3307C102.066 17.1827 103.217 18.0921 105.113 18.9672C106.725 19.7118 110.2 20.413 110.2 24.2222C110.2 27.122 107.598 29.0838 104.853 29.0838C102.109 29.0838 100.569 27.8095 100.569 27.8095V26.9207C101.462 27.6322 102.695 28.195 104.853 28.195" fill="#002852"/>
<path d="M122.443 12.8961H117.539V28.4463H115.726V12.8961H110.821V12.0073H122.443V12.8961Z" fill="#002852"/>
<path d="M59.2372 40.0491L58.7156 40.4803C58.3734 40.0102 57.937 39.7059 57.339 39.7059C56.3711 39.7059 55.6589 40.4998 55.6589 41.4995C55.6589 42.4993 56.3711 43.3035 57.339 43.3035C57.9271 43.3035 58.3645 43.0095 58.7056 42.5382L59.2284 42.9592C58.8197 43.5872 58.1552 43.999 57.3301 43.999C55.9823 43.999 54.9103 42.9008 54.9103 41.4995C54.9103 40.0983 55.9823 39.0093 57.3301 39.0093C58.1652 39.0093 58.8297 39.4211 59.2383 40.0491" fill="#002852"/>
<path d="M65.8356 41.4995C65.8356 42.8917 64.7536 43.9898 63.4058 43.9898C62.0669 43.9807 60.9948 42.902 60.9948 41.4995C60.9948 40.0971 62.058 39.0093 63.4147 39.0093C64.7713 39.0093 65.8356 40.0971 65.8356 41.4995ZM61.7446 41.5098C61.7446 42.5199 62.4467 43.2943 63.4058 43.2943C64.3649 43.2943 65.0859 42.5096 65.0859 41.5098C65.0859 40.5101 64.3649 39.7059 63.4147 39.7059C62.4644 39.7059 61.7346 40.4906 61.7446 41.5098Z" fill="#002852"/>
<path d="M68.9122 38.0302V39.118H70.0706V39.794H68.9122V43.8926H68.1813V39.794H67.5168V39.118H68.1813V37.981C68.1813 36.8931 68.817 36.4321 69.7096 36.4321C69.9377 36.4321 70.1183 36.4619 70.2888 36.5111V37.1482C70.1371 37.1288 70.0042 37.1185 69.8813 37.1185C69.312 37.1185 68.9133 37.3141 68.9133 38.0302" fill="#002852"/>
<path d="M72.454 38.0302V39.118H73.6124V39.794H72.454V43.8926H71.723V39.794H71.0585V39.118H71.723V37.981C71.723 36.8931 72.3587 36.4321 73.2514 36.4321C73.4795 36.4321 73.66 36.4619 73.8306 36.5111V37.1482C73.6788 37.1288 73.5459 37.1185 73.423 37.1185C72.8538 37.1185 72.4551 37.3141 72.4551 38.0302" fill="#002852"/>
<path d="M79.5164 41.7352H75.8717C75.9669 42.6858 76.6502 43.3035 77.5617 43.3035C78.1409 43.3035 78.5961 43.0484 78.976 42.656L79.4034 43.1662C78.9383 43.6764 78.3126 43.999 77.5528 43.999C76.1574 43.999 75.1042 42.9111 75.1042 41.5087C75.1042 40.1063 76.1386 39.0093 77.4676 39.0093C78.6537 39.0093 79.5751 39.8912 79.5751 41.1655C79.5751 41.4206 79.5375 41.646 79.5186 41.734M75.9005 41.0683H78.8242C78.8154 40.1863 78.1885 39.6956 77.4476 39.6956C76.6691 39.6956 76.0522 40.2447 75.9005 41.0683Z" fill="#002852"/>
<path d="M85.8878 41.7352H82.2431C82.3383 42.6858 83.0216 43.3035 83.9331 43.3035C84.5123 43.3035 84.9675 43.0484 85.3474 42.656L85.7748 43.1662C85.3097 43.6764 84.684 43.999 83.9242 43.999C82.5288 43.999 81.4756 42.9111 81.4756 41.5087C81.4756 40.1063 82.51 39.0093 83.839 39.0093C85.0251 39.0093 85.9465 39.8912 85.9465 41.1655C85.9465 41.4206 85.9089 41.646 85.89 41.734M82.2708 41.0683H85.1945C85.1857 40.1863 84.5588 39.6956 83.8179 39.6956C83.0394 39.6956 82.4225 40.2447 82.2708 41.0683Z" fill="#002852"/>
<path d="M126.117 12.5108H125.285V14.691H124.756V12.5108H123.928V12.0166H126.117V12.5108Z" fill="#002852"/>
<path d="M129 11.9688V14.6912H128.471V13.2614L127.819 14.1078H127.647L126.995 13.2614V14.6912H126.465V11.9688H126.638L127.733 13.4192L128.827 11.9688H129Z" fill="#002852"/>
</svg>
