<svg width="34" height="33" viewBox="0 0 34 33" fill="none" xmlns="http://www.w3.org/2000/svg">
<g clip-path="url(#clip0_741_25070)">
<path d="M6.28088 0.288086H27.6359C30.9734 0.288086 33.6668 2.91571 33.6668 6.14213V26.8959C33.6668 30.1223 30.9734 32.7499 27.6359 32.7499H6.28088C2.94334 32.7499 0.25 30.1223 0.25 26.8959V6.14213C0.25 2.91571 2.94334 0.288086 6.28088 0.288086Z" stroke="#F2F5F7" stroke-width="0.5"/>
<path d="M6.36389 0.25H27.7189C31.0564 0.25 33.7498 2.87763 33.7498 6.10405V26.8578C33.7498 30.0842 31.0564 32.7119 27.7189 32.7119H6.36389C3.02635 32.7119 0.333008 30.0842 0.333008 26.8578V6.10405C0.333008 2.87763 3.02635 0.25 6.36389 0.25Z" stroke="#F2F5F7" stroke-width="0.5"/>
<path fill-rule="evenodd" clip-rule="evenodd" d="M26.2682 25.0311H22.4117V18.6417C22.4117 16.8944 21.7208 15.9101 20.3076 15.9101C18.8944 15.9101 17.9413 16.9249 17.9413 18.6417V25.0311H14.223V12.8626H17.9413V14.5046C17.9413 14.5046 19.0624 12.4888 21.7208 12.4888C24.3792 12.4888 26.2682 14.0712 26.2682 17.3262V25.0295V25.0311ZM9.78401 11.2802C8.52469 11.2802 7.49463 10.2791 7.49463 9.03999C7.49463 7.80087 8.52469 6.7998 9.78401 6.7998C11.0433 6.7998 12.0734 7.80087 12.0734 9.03999C12.0734 10.2791 11.0433 11.2802 9.78401 11.2802ZM7.86363 25.0311H11.7358V12.8626H7.86363V25.0311Z" fill="#F2F5F7"/>
</g>
<defs>
<clipPath id="clip0_741_25070">
<rect width="34" height="33" fill="white"/>
</clipPath>
</defs>
</svg>
