<svg width="160" height="48" viewBox="0 0 160 48" fill="none" xmlns="http://www.w3.org/2000/svg">
<rect width="160" height="48" fill="#002852"/>
<path fill-rule="evenodd" clip-rule="evenodd" d="M33.1999 8.22971C39.1467 11.3572 43.209 17.5924 43.209 24.7797C43.209 31.967 39.1467 38.2219 33.1999 41.3302V39.1931C35.4741 37.8326 37.3979 35.929 38.7977 33.676L33.1999 31.4037V27.946L39.3413 32.7441C40.6241 30.374 41.3432 27.6737 41.3432 24.7792C41.3432 18.6796 38.0776 13.3188 33.1999 10.3658V8.22971ZM24.5514 6.1123C27.6612 6.1123 30.5954 6.87021 33.1999 8.22971V10.3668C30.8092 8.92864 28.0106 8.0744 25.0567 7.97708L27.1942 23.2649L33.1999 27.946V31.4037L24.5121 27.888L15.8827 31.4234V27.9848L21.9272 23.2644L24.0456 7.97659C21.0524 8.07391 18.2734 8.92863 15.8827 10.3658V8.22971C18.468 6.87021 21.422 6.1123 24.5514 6.1123ZM33.1999 41.3302C30.5954 42.6897 27.6607 43.4663 24.5514 43.4663C21.4225 43.4663 18.4685 42.6897 15.8832 41.3494V39.1931C18.41 40.7271 21.3831 41.6015 24.5514 41.6015C27.7 41.6015 30.6544 40.7271 33.1999 39.1931V41.3302ZM15.8832 41.3494C9.9163 38.2219 5.85449 31.967 5.85449 24.7797C5.85449 17.5924 9.91581 11.3572 15.8827 8.22971L15.8832 10.3668C10.9853 13.3193 7.72025 18.6609 7.72025 24.7797C7.72025 27.6737 8.45898 30.4134 9.74182 32.7829L15.8827 27.9848V31.4234L10.3051 33.7148C11.7044 35.9497 13.609 37.8331 15.8832 39.1931V41.3494Z" fill="white"/>
<path d="M100.534 18.7405C99.6777 18.9679 98.9065 19.1047 97.9485 19.2077V19.4987C99.0264 19.4987 99.1641 19.6192 99.1641 20.51V23.505C98.5303 22.4781 98.0331 22.1705 97.1092 22.1705C95.2766 22.1705 93.994 23.8987 93.994 26.3642C93.994 28.8298 95.2943 30.5594 97.161 30.5594C98.1368 30.5594 98.8041 30.1151 99.283 29.1563C99.352 29.8063 99.3526 29.8749 99.5236 30.5258C100.226 30.3029 100.516 30.2336 101.527 30.1145L101.783 30.0796V29.7886C100.636 29.7546 100.534 29.6686 100.534 28.6247V18.7405ZM54.338 18.865C53.6871 18.9339 53.344 18.9517 52.7111 18.9517C52.2312 18.9517 51.975 18.9351 51.308 18.8832V19.3098C52.4889 19.3788 52.7279 19.5501 52.7279 20.338V20.4415L52.3684 28.8472C52.3344 29.772 52.1641 29.9083 50.9653 29.9942V30.4055C51.8561 30.3366 52.1972 30.3202 52.6761 30.3202C53.156 30.3202 53.4978 30.3366 54.3715 30.4055V29.9942C53.1728 29.9083 52.9503 29.754 52.9503 29.0011V28.8472L53.293 19.9617L56.1005 27.5463L56.3061 28.145L56.5467 28.8122L56.7859 29.4809L56.9748 30.0292H57.2322L57.4196 29.4641L57.642 28.8122L57.8812 28.1799L58.0869 27.6134L60.9126 19.9785L61.0664 28.8472V28.9325C61.0664 29.7374 60.8099 29.9253 59.6452 29.9942V30.4055C60.724 30.3025 61.1346 30.2684 61.7854 30.2684C62.4354 30.2684 62.8469 30.3026 63.9257 30.4055V29.9942C62.6929 29.9083 62.5382 29.772 62.5212 28.8472L62.3338 20.4415V20.3212C62.3338 19.5504 62.5903 19.3788 63.755 19.3098V18.8832C63.1042 18.9351 62.8303 18.9517 62.4023 18.9517C61.8885 18.9517 61.5295 18.9339 60.7587 18.865L57.5231 27.5295L54.338 18.865ZM120.939 18.9335V19.363C122.171 19.431 122.343 19.567 122.343 20.4918V28.7954C122.343 29.7202 122.206 29.8395 120.939 29.9425V30.3537H125.271C126.538 30.3537 127.222 30.2 127.941 29.755C128.798 29.2071 129.363 28.162 129.363 27.0832C129.363 26.1593 128.969 25.3212 128.301 24.8073C127.941 24.5333 127.564 24.3789 126.948 24.2589C128.181 23.797 128.832 22.9235 128.832 21.7256C128.832 20.8348 128.455 20.0464 127.804 19.5504C127.222 19.1225 126.554 18.9335 125.442 18.9335L120.939 18.9335ZM123.781 19.4651H125.236C126.675 19.4651 127.308 20.1665 127.308 21.7592C127.308 22.5461 127.121 23.1118 126.744 23.5567C126.367 23.9846 125.905 24.1218 124.945 24.1218H123.781V19.4651ZM84.4034 21.9131L83.9404 22.7859C83.3925 22.2551 82.9306 22.0669 82.1947 22.0669C80.1741 22.0669 78.8039 23.8136 78.8039 26.3642C78.8039 28.8638 80.1572 30.5426 82.1429 30.5426C83.6846 30.5426 84.6598 29.5486 84.8819 27.7169H84.1796C83.9746 29.2236 83.3404 29.9774 82.2786 29.9774C80.9608 29.9774 80.2936 28.7617 80.2936 26.3642C80.2936 23.9157 81.0479 22.53 82.3318 22.53C83.3765 22.53 84.0088 23.2485 84.3167 24.7373H84.6944V21.9131L84.4034 21.9131ZM115.082 21.9648L114.791 22.6657C114.209 22.2726 113.713 22.1187 113.045 22.1187C111.538 22.1187 110.477 23.0433 110.477 24.396C110.477 25.3889 110.871 25.8681 112.12 26.4509L112.908 26.809L113.558 27.1C114.397 27.4769 114.724 27.8708 114.724 28.4527C114.724 29.3265 113.969 29.9942 112.96 29.9942C111.761 29.9942 111.041 29.2411 110.733 27.6833L110.358 27.7001V30.5594H110.665L111.075 29.7886C111.726 30.3025 112.342 30.5076 113.13 30.5076C114.74 30.5076 115.887 29.4815 115.887 28.0428C115.887 27.033 115.424 26.4843 114.123 25.9194L113.404 25.6116C111.846 24.9268 111.59 24.7046 111.59 24.0197C111.59 23.2149 112.292 22.5985 113.199 22.5985C114.278 22.5985 114.842 23.2496 114.996 24.6184H115.391V21.9648H115.082ZM140.391 21.9648C139.708 22.2048 139.124 22.3412 138.13 22.4782V22.7692C138.216 22.7692 138.303 22.786 138.354 22.786C139.211 22.786 139.312 22.8898 139.329 23.5917V23.8477V29.1381C139.329 29.874 139.16 30.0117 138.115 30.0628V30.4055C139.006 30.3196 139.364 30.3034 139.963 30.3034C140.58 30.3034 140.923 30.3195 141.814 30.4055V30.0628C140.923 30.0288 140.7 29.8571 140.7 29.1731V25.0283C140.7 23.6245 141.316 22.8895 142.481 22.8895C143.576 22.8895 144.021 23.4882 144.021 24.978V29.1731C144.021 29.8571 143.799 30.0288 142.874 30.0628V30.4055C143.764 30.3196 144.106 30.3034 144.74 30.3034C145.356 30.3034 145.7 30.3195 146.608 30.4055V30.0628C145.563 30.0117 145.391 29.874 145.391 29.1381V25.0283C145.391 24.3784 145.305 23.8991 145.133 23.4882C144.791 22.6493 143.901 22.1187 142.874 22.1187C141.882 22.1187 141.179 22.5298 140.562 23.4546C140.527 22.8038 140.477 22.3587 140.391 21.9648ZM74.4982 21.9984C73.7954 22.2034 73.2135 22.3069 72.2376 22.3929V22.7006H72.4601C73.35 22.7176 73.4362 22.804 73.4533 23.5399V23.8141V29.1381C73.4533 29.874 73.2656 30.0117 72.2209 30.0628V30.4055C73.1627 30.3195 73.5218 30.302 74.1387 30.302C74.7376 30.302 75.0974 30.3195 76.0383 30.4055V30.0628C74.9944 30.0117 74.8227 29.874 74.8227 29.1381V25.5599C74.8227 23.8642 75.3876 22.7874 76.2775 22.7874C76.5855 22.7874 76.7923 22.9573 76.7923 23.1972V23.3511L76.7574 23.5231C76.7404 23.5921 76.7238 23.6598 76.7238 23.6938C76.7238 24.0367 77.0321 24.2757 77.426 24.2757C77.8539 24.2757 78.145 23.9501 78.145 23.4532C78.145 22.6322 77.5111 22.0669 76.6552 22.0669C75.7653 22.0669 75.0281 22.6326 74.6521 23.6085V23.4196C74.6173 22.9057 74.5832 22.6322 74.4982 21.9984ZM68.0845 22.0669C66.0298 22.0669 64.7468 23.7277 64.7468 26.3642C64.7468 29.0008 66.0297 30.5426 68.2383 30.5426C69.9161 30.5426 71.0118 29.4973 71.2347 27.7337H70.5506C70.3447 29.1894 69.5912 29.9774 68.3754 29.9774C66.8177 29.9774 66.1333 28.7797 66.1163 26.1082H71.2179C71.1839 23.4717 70.1051 22.0669 68.0845 22.0669ZM89.4407 22.0669C87.3861 22.0669 86.1017 23.7277 86.1017 26.3642C86.1017 29.0008 87.386 30.5426 89.5946 30.5426C91.2723 30.5426 92.3689 29.4973 92.5909 27.7337H91.9055C91.7005 29.1894 90.9474 29.9774 89.7317 29.9774C88.1739 29.9774 87.4881 28.7797 87.4711 26.1082H92.5741C92.5392 23.4717 91.4613 22.0669 89.4407 22.0669ZM105.771 22.0669C103.716 22.0669 102.432 23.7277 102.432 26.3642C102.432 29.0008 103.716 30.5426 105.925 30.5426C107.602 30.5426 108.698 29.4973 108.921 27.7337H108.236C108.03 29.1894 107.278 29.9774 106.062 29.9774C104.504 29.9774 103.818 28.7797 103.801 26.1082H108.904C108.869 23.4717 107.791 22.0669 105.771 22.0669ZM134.092 22.0669C132.037 22.0669 130.753 23.7277 130.753 26.3642C130.753 29.0008 132.037 30.5426 134.246 30.5426C135.924 30.5426 137.019 29.4973 137.242 27.7337H136.557C136.352 29.1894 135.599 29.9774 134.384 29.9774C132.826 29.9774 132.141 28.7797 132.124 26.1082H137.225C137.19 23.4717 136.113 22.0669 134.092 22.0669ZM147.855 22.2726L147.459 24.4981H147.804C148.419 22.9574 148.693 22.7174 149.807 22.7174H151.911L147.272 30.3537H153.161L153.607 27.8889H153.248C152.733 29.4467 152.255 29.9089 151.089 29.9089H149.088L153.744 22.2726L147.855 22.2726ZM68.0677 22.5118C69.1805 22.5118 69.7455 23.4707 69.8484 25.4913H66.1499C66.3208 23.5226 66.9719 22.5118 68.0677 22.5118ZM89.4225 22.5118C90.5353 22.5118 91.1003 23.4707 91.2033 25.4913H87.5047C87.6757 23.5226 88.3267 22.5118 89.4225 22.5118ZM105.754 22.5118C106.867 22.5118 107.432 23.4707 107.535 25.4913H103.836C104.007 23.5226 104.658 22.5118 105.754 22.5118ZM134.075 22.5118C135.188 22.5118 135.753 23.4707 135.856 25.4913H132.157C132.328 23.5226 132.979 22.5118 134.075 22.5118ZM97.2631 22.6489C98.5299 22.6489 99.1809 23.9511 99.1809 26.4677C99.1809 28.8473 98.5476 30.0796 97.3148 30.0796C96.0821 30.0796 95.432 28.796 95.432 26.3474C95.432 23.8649 96.0303 22.6489 97.2631 22.6489ZM123.781 24.6534H125.408C126.316 24.6534 126.828 24.8065 127.222 25.2004C127.616 25.5943 127.838 26.3299 127.838 27.1518C127.838 28.8635 126.982 29.8236 125.458 29.8236H124.843C123.935 29.8236 123.781 29.6854 123.781 28.9325V24.6534ZM116.914 25.3319V26.2173H120.74V25.3319H116.914Z" fill="white"/>
</svg>
