<svg width="160" height="48" viewBox="0 0 160 48" fill="none" xmlns="http://www.w3.org/2000/svg">
<rect width="160" height="48" fill="#002852"/>
<path d="M137.551 29.5449C137.967 29.5449 140.982 29.6727 140.958 23.6512C140.937 18.0616 138.003 18.2288 137.524 18.2288H137.533C137.053 18.2288 134.12 18.0616 134.095 23.6512C134.068 29.6727 137.083 29.5449 137.496 29.5449H137.551ZM137.563 31.5947C136.564 31.6099 130.035 31.3848 130.035 23.934C130.062 16.5075 136.525 16.4072 137.524 16.4133C138.529 16.4072 144.988 16.5075 145 23.934C145.018 31.3848 138.483 31.6099 137.484 31.5947" fill="white"/>
<path d="M128.167 17.2525V19.1015C127.408 18.7761 126.974 18.5389 126.166 18.3199C125.532 18.18 122.814 17.5353 121.508 18.9038C120.961 19.4573 120.797 20.4731 121.891 21.2638C123.43 22.2613 125.632 22.7235 127.439 24.2015C128.626 25.1382 129.009 26.2421 128.708 27.93C128.398 29.6452 126.528 31.0289 124.848 31.3816C122.404 31.8743 119.656 31.6432 117.475 30.7217L117.49 28.9001C119.492 29.7394 122.604 30.8069 124.536 29.1099C125.07 28.6203 125.392 27.9299 125.113 27.2122C124.678 25.8954 121.089 25.1108 118.899 23.4777C116.725 22.1426 116.923 19.8496 117.682 18.5875C119.728 15.516 124.918 16.3645 128.167 17.2525Z" fill="white"/>
<path d="M115.629 17.2525V19.1015C114.864 18.7761 114.433 18.5389 113.628 18.3199C112.999 18.18 110.269 17.5353 108.973 18.9038C108.42 19.4573 108.253 20.4731 109.337 21.2638C110.889 22.2613 113.087 22.7235 114.9 24.2015C116.084 25.1382 116.464 26.2421 116.16 27.93C115.857 29.6452 113.977 31.0289 112.307 31.3816C109.862 31.8743 107.114 31.6432 104.94 30.7217L104.949 28.9001C106.953 29.7394 110.063 30.8069 112.003 29.1099C112.519 28.6203 112.847 27.9299 112.574 27.2122C112.128 25.8954 108.544 25.1108 106.358 23.4777C104.187 22.1426 104.381 19.8496 105.137 18.5875C107.184 15.516 112.377 16.3645 115.629 17.2525Z" fill="white"/>
<path d="M64.2541 17.2525V19.1015C63.4827 18.7761 63.0576 18.5389 62.2438 18.3199C61.6121 18.18 58.8943 17.5353 57.5976 18.9038C57.0419 19.4573 56.8779 20.4731 57.9711 21.2638C59.5077 22.2613 61.7154 22.7235 63.5222 24.2015C64.7096 25.1382 65.0892 26.2421 64.7885 27.93C64.4849 29.6452 62.6021 31.0289 60.9319 31.3816C58.4904 31.8743 55.7361 31.6432 53.5588 30.7217L53.5679 28.9001C55.5782 29.7394 58.6878 30.8069 60.6252 29.1099C61.1506 28.6203 61.4725 27.9299 61.19 27.2122C60.7558 25.8954 57.1725 25.1108 54.98 23.4777C52.8088 22.1426 53.0092 19.8496 53.7562 18.5875C55.809 15.516 61.0048 16.3645 64.2541 17.2525Z" fill="white"/>
<path d="M45.7517 29.8611C47.7316 30.0588 50.1518 29.7546 52.0832 29.7029L52.0923 31.3482H41.6096C41.6096 31.3482 41.9376 31.0076 41.9376 30.4359V17.5536C41.9376 16.9849 41.6096 16.6321 41.6096 16.6321H52.0923L52.0832 18.2773C50.1518 18.2439 47.7316 17.9276 45.7517 18.1314C45.7517 18.1314 45.7486 22.6809 45.7486 22.9911C47.3733 23.0915 49.2833 23.1067 50.8017 22.9151V24.6607C49.3107 24.5208 47.3581 24.4935 45.7486 24.5786L45.7517 25.1382" fill="white"/>
<path d="M97.187 29.8611C99.167 30.0588 101.581 29.7546 103.522 29.7029L103.525 31.3482H93.0571C93.0571 31.3482 93.379 31.0076 93.379 30.4359V17.5536C93.379 16.9849 93.0571 16.6321 93.0571 16.6321H103.525L103.522 18.2773C101.581 18.2439 99.167 17.9276 97.187 18.1314C97.187 18.1314 97.181 22.6809 97.181 22.9911C98.8086 23.0915 100.719 23.1067 102.246 22.9151V24.6607C100.752 24.5208 98.7934 24.4935 97.187 24.5786V25.1382" fill="white"/>
<path d="M82.93 18.4872V23.4534C84.1933 23.4534 85.7237 23.6206 86.6014 22.6049C87.3484 21.6104 87.2208 20.3301 86.7259 19.4208C85.8483 17.9398 82.93 18.4872 82.93 18.4872ZM82.9543 25.272V30.4359C82.9573 31.0045 83.2822 31.3573 83.2822 31.3573L78.8062 31.3482C78.8062 31.3482 79.128 31.0076 79.1311 30.4359L79.128 17.5536C79.128 16.9849 78.8062 16.6321 78.8062 16.6321H86.4404C88.5145 16.7203 90.71 17.8668 90.7738 20.3636C90.7981 22.4011 89.8962 23.5781 88.5388 24.2289C88.2806 24.3505 88.2989 24.3201 88.2108 24.3809C89.1734 26.6223 90.045 28.2736 91.205 30.4359C91.4418 31.0045 91.9095 31.3482 91.9095 31.3482H87.2846C87.2846 31.3482 87.564 31.0045 87.2785 30.4359C87.2785 30.4359 85.6357 26.5584 84.8644 25.272" fill="white"/>
<path d="M70.3793 18.5054L70.3641 24.0342C71.6425 24.1194 73.1609 24.2623 74.0355 23.2405C74.7825 22.2491 74.661 20.3301 74.16 19.436C73.2824 17.9459 70.3793 18.5054 70.3793 18.5054ZM70.3945 30.4359C70.3945 31.0045 70.7194 31.3543 70.7194 31.3543L66.2463 31.3482C66.2463 31.3482 66.5773 31.0076 66.5773 30.4359V17.5536C66.5773 16.9849 66.2463 16.6321 66.2463 16.6321H73.6407C75.4961 16.699 76.9385 17.5535 77.5489 19.3539C78.0105 20.9323 77.9498 22.979 76.8262 24.2623C75.3291 26.2512 70.3854 25.9593 70.3854 25.9593" fill="white"/>
<path d="M36.7053 16.6323C36.7053 16.6323 37.0393 17.0063 37.0393 17.5446V24.0618C35.0958 21.7566 33.374 19.1534 31.3698 16.8086C30.6258 15.9085 29.2108 14.4001 28.6703 13.9409C25.1568 10.4952 19.378 8.91379 14 10.8145V11.0335C15.8433 10.6321 18.2331 10.775 20.5805 11.7238C22.3418 12.3716 24.85 14.3331 26.3015 16.1304C28.1782 18.2714 32.1746 23.7789 32.1746 23.7789C34.4703 26.7653 36.4958 29.4811 38.8401 32.3093V17.5446C38.8462 17.0063 39.1741 16.6323 39.1741 16.6323" fill="white"/>
<path d="M26.2591 31.3668C26.2591 31.3668 25.9251 30.9958 25.9251 30.4545V23.9343C27.8655 26.2395 29.5934 28.8457 31.5976 31.1905C32.3416 32.0876 33.7476 33.599 34.2942 34.0612C37.8107 37.5068 43.5804 39.0882 48.9644 37.1814V36.9656C47.1212 37.3609 44.7283 37.2271 42.3839 36.2691C40.6257 35.6214 38.1144 33.6659 36.6659 31.8685C34.7861 29.7245 30.7899 24.2202 30.7899 24.2202C28.4911 21.2338 26.4655 18.5119 24.1182 15.6928V30.4545C24.1182 30.9958 23.7842 31.3668 23.7842 31.3668" fill="white"/>
</svg>
