<svg width="160" height="48" viewBox="0 0 160 48" fill="none" xmlns="http://www.w3.org/2000/svg">
<rect width="160" height="48" fill="#002852"/>
<path d="M99.1353 40.357C97.5154 40.05 95.6976 39.2577 94.4733 38.3267C93.3808 37.4849 92.1187 35.8706 91.6196 34.6821C90.9979 33.1767 90.706 31.6416 90.706 29.8787C90.706 23.7681 93.9553 19.6778 99.512 18.7765C100.633 18.5982 102.903 18.5982 104.07 18.7864C106.745 19.2123 109.147 20.5592 110.607 22.4805C112.019 24.3227 112.66 26.4421 112.66 29.235C112.66 30.8196 112.509 31.9288 112.123 33.2163C110.983 36.9996 108.007 39.6638 104.099 40.3768C103.063 40.565 100.181 40.5551 99.1353 40.357ZM103.091 38.7922C104.061 38.5743 105.144 37.9801 105.888 37.267C107.819 35.3952 108.827 31.9387 108.525 28.2644C108.271 25.214 107.536 23.3026 106.058 21.8368C104.796 20.579 102.554 19.9848 100.52 20.3611C97.6849 20.886 95.7542 23.253 95.0007 27.1552C94.3885 30.3442 95.0949 34.2364 96.6771 36.4351C97.5813 37.683 99.0505 38.604 100.595 38.8714C101.151 38.9705 102.479 38.9309 103.091 38.7922ZM58.4014 40.159C57.4879 38.921 45.0275 25.8281 44.632 25.6795C44.4248 25.6102 44.6414 36.9897 44.8957 39.6142L44.9522 40.2283H42.3904V39.9114C42.3904 39.7331 42.4563 38.5149 42.5317 37.2076C42.6259 35.4843 42.673 32.6419 42.673 26.8878V18.935H44.0669L44.8957 19.9055C46.1954 21.401 48.6159 24.0652 50.4147 25.9667C53.3532 29.0567 56.9322 32.741 57.4502 33.1866L57.9493 33.6323L57.8928 30.5126C57.7327 22.6984 57.6385 19.2321 57.5914 19.0835C57.5444 18.9548 57.695 18.935 58.8252 18.935H60.125L60.059 20.3512C60.0308 21.1237 59.9743 25.9568 59.9366 31.0969L59.8801 40.4264H59.2396C58.6557 40.4264 58.5898 40.4065 58.4014 40.159ZM5 29.5816V18.935H9.24763C12.8171 18.935 13.5894 18.9647 14.1639 19.0934C16.9612 19.757 18.5434 21.9755 18.3456 24.9466C18.195 27.1651 17.0648 28.9676 15.2282 29.9184C13.8531 30.6314 13.1562 30.7602 10.8676 30.7701H8.8709L8.90857 31.1167C8.92741 31.3049 8.9745 33.2659 9.00275 35.4744C9.03101 37.683 9.08752 39.6539 9.11577 39.8618L9.17228 40.2283H5V29.5816ZM11.8282 29.0468C12.5723 28.7695 13.0903 28.3734 13.5706 27.69C14.1828 26.8383 14.4559 25.9073 14.4653 24.6297C14.4653 22.7876 13.8155 21.5001 12.5534 20.8464C12.0731 20.5988 11.8942 20.5691 10.8581 20.5295C10.2177 20.5196 9.51134 20.5295 9.27588 20.5691L8.86148 20.6285V24.8773C8.86148 28.8388 8.8709 29.126 9.03101 29.1657C9.11577 29.1954 9.67145 29.2152 10.2554 29.2251C11.0748 29.235 11.4327 29.1954 11.8282 29.0468ZM18.6564 40.1292C18.6564 40.0698 18.76 39.8123 18.8825 39.5548C19.0049 39.2973 19.4287 38.3267 19.8149 37.4057C20.2105 36.4747 20.8321 35.0089 21.1994 34.1374C22.6215 30.8394 22.7063 30.6215 24.2132 27.0561C25.7295 23.4511 27.4154 19.034 27.4154 18.6775C27.4154 18.6477 27.8675 18.6477 28.4137 18.6577L29.4121 18.6874L30.0243 20.4205C31.145 23.6195 32.5107 27.1354 34.0176 30.7206C34.1589 31.0771 34.8652 32.7509 35.5716 34.4345C36.278 36.1281 37.0409 37.9306 37.2575 38.4456C37.4741 38.9606 37.7472 39.5746 37.8602 39.8123L38.058 40.2283H33.4808L32.8403 38.4258C32.4824 37.4255 31.9362 35.9102 31.6159 35.0585L31.0414 33.4937H27.406C24.0154 33.4937 23.7611 33.5036 23.714 33.6719C23.6858 33.7611 23.4503 34.3949 23.1866 35.0684C22.6309 36.5044 21.7362 39.0794 21.5573 39.7628L21.4442 40.2283H20.0503C19.1556 40.2283 18.6564 40.1887 18.6564 40.1292ZM29.8736 31.5327L30.1279 31.4634L29.6099 30.0273C29.3273 29.235 28.9317 28.1456 28.7245 27.6008C28.5268 27.0561 28.15 26.036 27.9052 25.3428C27.4625 24.1147 27.4437 24.085 27.3306 24.3524C27.2647 24.5009 26.9351 25.323 26.596 26.1648C26.2664 27.0066 25.852 28.0564 25.673 28.4922C24.9196 30.3739 24.5146 31.4634 24.5523 31.5129C24.6935 31.6614 29.3461 31.6713 29.8736 31.5327ZM67.2828 35.6527C67.3205 33.1272 67.3393 28.3337 67.3205 25.006L67.2734 18.935H72.0202C75.6839 18.935 77.0024 18.9647 77.8312 19.0835C80.6285 19.4698 82.5969 20.5196 84.1415 22.4508C85.5165 24.1741 86.1852 26.3332 86.1852 29.027C86.1758 33.7908 84.3016 37.2472 80.7321 39.0893C79.9786 39.4855 79.2817 39.743 78.1326 40.0401C77.7936 40.1292 76.1642 40.1689 72.4346 40.1986L67.2075 40.2382L67.2828 35.6527ZM76.7858 38.2673C77.7465 37.9603 78.6883 37.3859 79.47 36.6233C81.2689 34.8604 82.0695 32.5231 82.0695 29.0864C82.0506 23.6888 79.1592 20.6186 74.0922 20.6186C73.6119 20.6186 72.7737 20.6483 72.2274 20.678L71.2385 20.7474L71.1725 21.6486C71.0407 23.5105 71.1066 38.198 71.2479 38.3564C71.2573 38.3664 71.8507 38.406 72.5759 38.4456C74.582 38.5644 76.0418 38.4951 76.7858 38.2673ZM117.981 37.9306C118.075 35.0089 118.075 19.4599 117.981 19.1628L117.915 18.935H122.474C127.578 18.935 128.002 18.9746 129.189 19.5688C129.98 19.965 130.847 20.8068 131.223 21.5694C131.732 22.5697 131.883 23.9859 131.628 25.2833C131.242 27.2146 129.905 28.6308 127.739 29.4034C127.258 29.5717 126.844 29.7302 126.816 29.7599C126.778 29.7995 127.512 30.9385 129.443 33.8205C130.253 35.0288 132.353 37.99 133.258 39.1884L134.002 40.1788L131.543 40.2085C130.197 40.2184 129.038 40.2085 128.982 40.1887C128.925 40.1689 128.633 39.7232 128.322 39.1983C127.145 37.1779 124.442 32.9787 122.643 30.3541C122.54 30.1957 122.389 30.1362 122.153 30.1263C121.843 30.1263 121.824 30.1461 121.843 30.4036C121.862 30.5522 121.89 32.8202 121.918 35.4546L121.956 40.2283H117.906L117.981 37.9306ZM124.857 28.6011C126.071 28.3337 126.919 27.6108 127.465 26.3827C127.729 25.7884 127.767 25.6102 127.795 24.6198C127.852 22.946 127.512 22.0052 126.618 21.3119C125.77 20.6483 124.725 20.4403 122.888 20.5691L121.786 20.6384V28.6308L122.38 28.6705C123.66 28.7398 124.31 28.7299 124.857 28.6011ZM136.422 39.9114C136.497 39.7331 136.884 38.8318 137.279 37.9009C137.675 36.9798 138.127 35.93 138.268 35.5735C138.409 35.2169 138.673 34.593 138.861 34.1869C139.163 33.4837 139.511 32.6914 140.34 30.7206C140.538 30.2551 140.811 29.6113 140.952 29.2845C141.178 28.7596 141.451 28.1059 142.506 25.5706C143.326 23.5997 144.286 21.1336 144.748 19.7768L145.125 18.6874L146.113 18.6577L147.102 18.6279L147.263 19.1528C147.441 19.7174 147.894 21.0049 148.638 22.9955C149.061 24.1543 149.325 24.8377 150.182 27.0066C150.719 28.3734 151.821 31.0672 152.207 31.9586C152.301 32.1764 152.603 32.9093 152.895 33.5927C153.884 35.9498 154.458 37.3165 155.07 38.7328C155.409 39.5152 155.692 40.1689 155.692 40.1887C155.692 40.2085 154.675 40.2283 153.441 40.2283H151.19L150.813 39.2181C150.606 38.6536 150.258 37.7127 150.041 37.1086C149.824 36.5143 149.429 35.4546 149.165 34.7514L148.694 33.4937L145.068 33.5135L141.451 33.5432L140.764 35.3358C140.387 36.3262 139.86 37.8216 139.577 38.6833L139.078 40.2283H136.29L136.422 39.9114ZM147.479 31.5525C147.639 31.5228 147.781 31.4931 147.781 31.4733C147.781 31.4039 145.511 25.115 145.228 24.4019L145.096 24.0652L144.729 24.9961C144.531 25.5012 144.23 26.2737 144.051 26.7095C143.881 27.1453 143.401 28.3833 142.977 29.4628C142.544 30.5423 142.233 31.4535 142.271 31.4931C142.412 31.6416 146.669 31.6911 147.479 31.5525ZM99.286 17.3999C99.0882 16.7264 99.0976 16.6769 99.3613 16.6175C99.8982 16.4887 102.648 16.4392 103.458 16.5481C103.92 16.6076 104.306 16.667 104.325 16.6868C104.344 16.7066 104.287 16.9344 104.212 17.2117L104.061 17.697H99.3708L99.286 17.3999ZM98.994 15.7459C98.5796 15.2705 98.9093 14.4782 99.5214 14.4782C100.096 14.4782 100.416 15.2309 100.068 15.7459C99.8699 16.0529 99.2672 16.0529 98.994 15.7459ZM103.336 15.7063C103.072 15.3597 103.091 15.0625 103.374 14.7357C103.675 14.399 104.099 14.3891 104.41 14.7258C104.871 15.2111 104.56 15.9638 103.892 15.9638C103.609 15.9638 103.487 15.9044 103.336 15.7063ZM101.396 15.7459C100.915 15.4785 100.831 14.914 101.207 14.5277C101.49 14.2207 101.829 14.2108 102.159 14.5079C102.498 14.8249 102.498 15.33 102.149 15.6469C101.876 15.8846 101.678 15.9143 101.396 15.7459ZM98.0145 12.9728C97.0162 9.5659 96.8278 8.90234 96.8467 8.88253C96.8938 8.83301 99.9359 13.6463 99.9359 13.7552C99.9359 13.8147 99.6439 13.884 99.286 13.9236C98.9281 13.9533 98.5702 14.0127 98.4854 14.0424C98.3724 14.0821 98.2782 13.8642 98.0145 12.9728ZM104.598 13.9731C104.391 13.9335 104.061 13.8939 103.873 13.8939C103.684 13.884 103.505 13.8543 103.477 13.8048C103.458 13.7651 103.684 13.3294 103.995 12.8441C104.306 12.3489 104.984 11.2694 105.511 10.4374C106.029 9.60552 106.472 8.94196 106.491 8.96176C106.529 9.00138 106.359 9.63523 105.634 12.1508C105.455 12.7549 105.267 13.4284 105.21 13.6661C105.154 13.8939 105.078 14.0722 105.041 14.0722C105.003 14.0623 104.805 14.0226 104.598 13.9731ZM100.878 13.6166C100.897 13.1511 101.706 8.40715 101.754 8.5359C101.801 8.66465 102.573 13.5572 102.573 13.7255C102.573 13.7552 102.196 13.7849 101.725 13.7849C100.981 13.7849 100.878 13.7651 100.878 13.6166Z" fill="white"/>
</svg>
