<svg width="30" height="30" viewBox="0 0 30 30" fill="none" xmlns="http://www.w3.org/2000/svg">
<g clip-path="url(#clip0_743_25300)">
<path d="M14.769 13.9982H19.9136C19.7436 12.9995 19.2982 12.071 18.6297 11.322C17.9612 10.5731 17.0974 10.0346 16.1397 9.77003C15.1821 9.50544 14.1705 9.52568 13.2238 9.82837C12.277 10.1311 11.4345 10.7036 10.7952 11.4788C10.1559 12.2539 9.74639 13.1995 9.61479 14.2043C9.48319 15.209 9.63496 16.2314 10.0523 17.151C10.4696 18.0707 11.1351 18.8496 11.9706 19.3961C12.8062 19.9425 13.777 20.2339 14.769 20.236V13.9982Z" fill="white"/>
<path d="M15.8111 19.7037C15.6994 19.7037 14.8944 19.3204 13.9949 19.083C13.4047 18.9334 12.8294 18.7304 12.2761 18.4766C11.7032 18.2392 11.7032 17.9818 11.4511 17.9818C11.2581 17.9756 11.0689 17.9264 10.8974 17.8378C10.7259 17.7493 10.5764 17.6235 10.4599 17.4698C10.3737 17.3554 10.3335 17.213 10.3473 17.0706C10.3611 16.9281 10.4278 16.796 10.5344 16.7003C10.626 16.6088 10.6432 16.626 10.5687 16.4143C10.4942 16.2026 10.4226 15.7936 10.606 15.6277C10.7893 15.4618 10.9727 15.4275 10.9182 15.2244C10.8916 15.1086 10.8892 14.9886 10.9114 14.8719C10.9336 14.7552 10.9798 14.6444 11.0471 14.5465C11.176 14.4178 11.3336 14.4006 11.2677 14.0145C11.2018 13.6283 11.5542 13.3194 12.0011 13.1907C12.448 13.062 12.7287 13.2107 13.0725 13.3194C13.4162 13.4281 14.0207 13.7399 14.2957 13.4481C14.4198 13.2719 14.5051 13.0715 14.5461 12.86C14.587 12.6485 14.5827 12.4308 14.5335 12.221C14.4721 11.7737 14.5533 11.3183 14.7655 10.9196C14.9453 10.568 15.245 10.292 15.6106 10.1416C15.8971 10.0872 15.9973 10.1216 15.9802 10.3075C15.963 10.4934 15.6307 11.0769 15.6307 11.3687C15.6307 11.6604 15.7395 12.1381 15.7223 12.3955C15.6912 12.678 15.7525 12.963 15.8971 13.2079C16.0632 13.4453 16.0661 13.9773 15.9716 14.5637C15.877 15.15 15.4244 16.7261 15.4244 16.7261L15.8111 19.7037Z" fill="#002852"/>
<path d="M14.4048 15.7812H13.7067V14.6311H14.4369V13.0469H15.7528V14.6311H16.9831V15.7812H15.7528V18.1302C15.7528 19.0876 16.4536 19.2256 16.8227 19.2256C16.9052 19.2267 16.9876 19.219 17.0687 19.2026V20.4677C16.9317 20.4917 16.793 20.5032 16.6542 20.5022C15.8999 20.5022 14.4048 20.2607 14.4048 18.3113V15.7812Z" fill="white"/>
<path d="M20.725 16.6939H20.9026V16.6477C20.9026 15.8122 20.5783 15.4914 19.8537 15.4914C19.5944 15.4914 19.0925 15.5607 19.0925 15.8816V16.1909H17.773V15.5839C17.773 14.494 19.2729 14.3784 19.865 14.3784C21.7653 14.3784 22.3236 15.3989 22.3236 16.7055V18.8851C22.3201 18.9192 22.324 18.9536 22.3351 18.9858C22.3461 19.0181 22.364 19.0475 22.3875 19.0718C22.411 19.0962 22.4394 19.1149 22.4708 19.1266C22.5021 19.1383 22.5356 19.1427 22.5689 19.1395H23.0172V20.3652H21.7428C21.2155 20.3652 21.0154 20.0761 21.0154 19.7235C21.0112 19.6397 21.0112 19.5557 21.0154 19.472H20.9928C20.8307 19.7936 20.5826 20.0612 20.2775 20.2435C19.9724 20.4257 19.623 20.5151 19.2701 20.5011C18.2551 20.5011 17.3275 19.8478 17.3275 18.6799C17.3388 16.8442 19.7974 16.6939 20.725 16.6939ZM19.6282 19.365C20.3894 19.365 20.9251 18.5382 20.9251 17.83V17.6912H20.6798C19.9411 17.6912 18.7683 17.7953 18.7683 18.6076C18.7683 18.9979 19.0474 19.365 19.6282 19.365Z" fill="white"/>
<path d="M25.5335 14.3784C26.842 14.3784 27.2754 15.2181 27.2754 15.2181H27.2949V15.0655C27.2949 14.7983 27.4739 14.5193 27.9156 14.5193H29.2241V15.776H28.7935C28.7624 15.7718 28.7308 15.7746 28.7008 15.7844C28.6708 15.7942 28.6432 15.8107 28.6198 15.8327C28.5965 15.8547 28.5779 15.8818 28.5654 15.912C28.553 15.9423 28.5468 15.975 28.5475 16.0079V20.0949C28.5475 22.1326 27.0405 22.8989 25.5671 22.8989C24.8693 22.8936 24.1822 22.7188 23.5596 22.388L23.993 21.2136C24.4792 21.4666 25.0133 21.602 25.5559 21.6099C26.3947 21.6099 27.1523 21.2253 27.1523 20.1566V19.863C27.1523 19.725 27.1523 19.5488 27.1523 19.5488H27.13C26.7973 20.0509 26.3108 20.3181 25.5559 20.3181C23.9371 20.3181 23.0172 18.944 23.0172 17.3145C23.0172 15.685 23.9035 14.3784 25.5335 14.3784ZM27.1859 17.3468C27.1859 15.9962 26.5428 15.6351 25.7879 15.6351C24.9352 15.6351 24.4711 16.2869 24.4711 17.2881C24.4711 18.2893 24.9687 19.0937 25.869 19.0937C26.5428 19.0937 27.1859 18.6856 27.1859 17.3468Z" fill="white"/>
<path d="M14.7608 7.72168C12.9036 7.72168 11.1226 8.4791 9.80937 9.82733C8.49617 11.1756 7.75842 13.0041 7.75842 14.9108C7.75842 16.8175 8.49617 18.6461 9.80937 19.9943C11.1226 21.3425 12.9036 22.1 14.7608 22.1V20.3314C13.7549 20.33 12.7703 20.0336 11.9228 19.4773C11.0753 18.921 10.4001 18.1279 9.97665 17.1911C9.55318 16.2543 9.39903 15.2129 9.53233 14.1893C9.66562 13.1656 10.0808 12.2024 10.7291 11.4127C11.3774 10.623 12.2318 10.0398 13.1918 9.7316C14.1519 9.4234 15.1777 9.40303 16.1487 9.6729C17.1197 9.94276 17.9954 10.4916 18.6729 11.255C19.3504 12.0183 19.8016 12.9644 19.9733 13.982H21.7239C21.4998 12.2491 20.6701 10.6589 19.3892 9.50731C18.1083 8.35569 16.4634 7.72111 14.7608 7.72168Z" fill="white"/>
<path d="M14.7412 28.0753C12.2479 28.0729 9.80952 27.3217 7.72549 25.9139C5.64147 24.5061 4.00249 22.5029 3.0098 20.1504C2.01711 17.7979 1.71391 15.1985 2.13745 12.6712C2.56098 10.144 3.69281 7.79893 5.39395 5.92404C7.09509 4.04915 9.29151 2.72603 11.7135 2.11713C14.1355 1.50823 16.6777 1.64005 19.0278 2.49642C21.378 3.35278 23.4339 4.89642 24.9431 6.93778C26.4523 8.97914 27.3491 11.4294 27.5233 13.9876H29.2239C29.0488 11.0841 28.0518 8.29661 26.3556 5.96866C24.6594 3.64071 22.3382 1.87396 19.6779 0.886065C17.0176 -0.101833 14.1345 -0.267724 11.3837 0.40883C8.63294 1.08538 6.13464 2.57483 4.19661 4.69367C2.25858 6.81251 0.965483 9.46819 0.476619 12.3336C-0.0122454 15.1989 0.324479 18.1488 1.44531 20.8197C2.56614 23.4907 4.42211 25.7661 6.78459 27.3656C9.14706 28.9651 11.9128 29.8188 14.7412 29.8216V28.0753Z" fill="white"/>
<path d="M14.7484 3.72754C11.8657 3.72754 9.10111 4.90576 7.06276 7.003C5.02441 9.10024 3.87927 11.9447 3.87927 14.9106C3.87927 17.8766 5.02441 20.7211 7.06276 22.8183C9.10111 24.9155 11.8657 26.0937 14.7484 26.0937V24.3766C12.9672 24.375 11.2247 23.8416 9.73236 22.8411C8.24002 21.8406 7.06192 20.416 6.341 18.7402C5.62008 17.0643 5.38732 15.2093 5.67095 13.4C5.95457 11.5907 6.74241 9.905 7.93887 8.54735C9.13533 7.18971 10.689 6.21847 12.4114 5.75148C14.1338 5.28448 15.9509 5.34178 17.6423 5.91644C19.3336 6.4911 20.8266 7.55842 21.94 8.98891C23.0534 10.4194 23.7394 12.1516 23.9148 13.9753H25.6034C25.372 11.1781 24.1278 8.5724 22.1173 6.67442C20.1069 4.77644 17.4769 3.72469 14.7484 3.72754Z" fill="white"/>
<path d="M15.5172 27.5152H15.7019V26.2681H15.5172V26.0947H16.1509C16.2437 26.0901 16.3365 26.1022 16.4255 26.1305C16.5051 26.1586 16.5737 26.2145 16.6202 26.2894C16.6668 26.3643 16.6885 26.4537 16.682 26.5434C16.6896 26.6438 16.6642 26.7438 16.6103 26.8262C16.5565 26.9086 16.4775 26.9683 16.387 26.9949C16.4143 27.0129 16.4365 27.0386 16.4511 27.0692L16.6641 27.4629C16.6872 27.5041 16.7128 27.5152 16.7667 27.5152H16.8103V27.6913H16.6846C16.5589 27.6913 16.5281 27.6666 16.4793 27.5702L16.2484 27.1353C16.2099 27.0664 16.1843 27.0472 16.0919 27.0472H15.9149V27.5152H16.0996V27.6913H15.5172V27.5152ZM16.2125 26.86C16.2482 26.8601 16.2836 26.8523 16.3163 26.8369C16.3491 26.8216 16.3785 26.7991 16.4026 26.7708C16.4268 26.7426 16.4452 26.7092 16.4566 26.6729C16.468 26.6366 16.4723 26.5981 16.4691 26.5599C16.474 26.5078 16.4632 26.4553 16.4383 26.4102C16.4133 26.3651 16.3756 26.3298 16.3305 26.3094C16.2708 26.2891 16.2084 26.2798 16.1458 26.2819H15.8892V26.86H16.2125Z" fill="white"/>
<path d="M17.0687 27.5151H17.2479V26.2673H17.0759V26.0938H18.0769V26.4656H17.9073V26.2811H17.4366V26.7934H17.9288V26.9779H17.4366V27.504H17.9336V27.314H18.1032V27.6913H17.0687V27.5151Z" fill="white"/>
<path d="M19.2336 26.0944C19.523 26.0944 19.876 26.2035 19.876 26.3978V26.5894H19.659V26.475C19.659 26.3472 19.4391 26.2834 19.2394 26.2834C19.1534 26.2794 19.0675 26.2923 18.9873 26.3211C18.9071 26.35 18.8345 26.3942 18.7743 26.4508C18.7141 26.5074 18.6677 26.5752 18.6381 26.6495C18.6086 26.7239 18.5965 26.8032 18.6028 26.8821C18.5967 26.9626 18.609 27.0434 18.6389 27.1192C18.6688 27.1951 18.7157 27.2643 18.7765 27.3225C18.8373 27.3806 18.9106 27.4265 18.9919 27.4569C19.0731 27.4874 19.1604 27.5019 19.2481 27.4995C19.3986 27.4995 19.6966 27.4596 19.6966 27.3079V27.1057H19.3696V26.9354H19.9137V27.3665C19.9137 27.6033 19.4825 27.6911 19.2307 27.6911C19.116 27.6937 19.0018 27.6748 18.8952 27.6355C18.7887 27.5963 18.6918 27.5376 18.6107 27.463C18.5295 27.3883 18.4656 27.2993 18.423 27.2013C18.3804 27.1033 18.3598 26.9983 18.3626 26.8928C18.3581 26.7866 18.3775 26.6807 18.4198 26.5818C18.462 26.4829 18.526 26.3931 18.6079 26.3181C18.6897 26.2431 18.7876 26.1845 18.8953 26.146C19.003 26.1075 19.1182 26.0899 19.2336 26.0944Z" fill="white"/>
<path d="M20.1722 27.5151H20.4173V26.2673H20.1722V26.0938H20.9481V26.2673H20.6997V27.5151H20.9481V27.6913H20.1722V27.5151Z" fill="white"/>
<path d="M21.4072 27.1908V27.3016C21.4072 27.415 21.5524 27.4809 21.7134 27.4809C21.8743 27.4809 22.0168 27.3991 22.0168 27.2488C22.0168 27.0985 21.8347 27.0115 21.6474 26.9376C21.46 26.8638 21.2463 26.7768 21.2463 26.5051C21.2463 26.2335 21.4785 26.0938 21.7345 26.0938C21.9904 26.0938 22.1989 26.1808 22.1989 26.3575V26.5394H21.9984V26.4313C21.9984 26.3443 21.8611 26.2968 21.7345 26.2968C21.6078 26.2968 21.4706 26.3654 21.4706 26.5051C21.4706 26.6449 21.6236 26.7214 21.7952 26.7873C22.0195 26.8717 22.2411 26.9587 22.2411 27.2409C22.2396 27.3061 22.2242 27.3703 22.196 27.4292C22.1678 27.488 22.1274 27.5402 22.0775 27.5823C22.0277 27.6245 21.9694 27.6555 21.9066 27.6735C21.8439 27.6915 21.778 27.6959 21.7134 27.6866C21.4732 27.6866 21.2067 27.5785 21.2067 27.3596V27.2014L21.4072 27.1908Z" fill="white"/>
<path d="M22.849 27.5151H23.0378V26.2811H22.6835V26.529H22.4999V26.0938H23.793V26.529H23.6094V26.2811H23.2499V27.5151H23.4309V27.6913H22.849V27.5151Z" fill="white"/>
<path d="M24.0516 27.5151H24.2237V26.2673H24.0516V26.0938H25.0527V26.4656H24.8807V26.2811H24.4196V26.7934H24.8974V26.9779H24.4196V27.504H24.9141V27.314H25.0861V27.6913H24.0516V27.5151Z" fill="white"/>
<path d="M25.3446 27.5152H25.5821V26.2681H25.36V26.0947H26.1343C26.2458 26.0901 26.3574 26.1022 26.4644 26.1305C26.5602 26.1586 26.6427 26.2145 26.6986 26.2894C26.7546 26.3643 26.7807 26.4537 26.7729 26.5434C26.7807 26.6471 26.7463 26.7499 26.676 26.8328C26.6057 26.9157 26.5043 26.9733 26.3904 26.9949C26.4233 27.0129 26.45 27.0386 26.4675 27.0692L26.7205 27.4629C26.7483 27.5041 26.7791 27.5152 26.8439 27.5152H26.8963V27.6913H26.7452C26.594 27.6913 26.557 27.6666 26.4953 27.5702L26.2207 27.1353C26.1745 27.0664 26.1436 27.0472 26.0325 27.0472H25.8197V27.5152H26.0418V27.6913H25.3446V27.5152ZM26.1806 26.86C26.2236 26.8601 26.2661 26.8523 26.3055 26.8369C26.3448 26.8216 26.3802 26.7991 26.4092 26.7708C26.4382 26.7426 26.4603 26.7092 26.4741 26.6729C26.4879 26.6366 26.493 26.5981 26.4891 26.5599C26.495 26.5078 26.4821 26.4553 26.4521 26.4102C26.4221 26.3651 26.3767 26.3298 26.3225 26.3094C26.2508 26.2891 26.1757 26.2798 26.1004 26.2819H25.7919V26.86H26.1806Z" fill="white"/>
<path d="M26.8964 27.5151H27.1114V26.2673H26.8964V26.0938H28.1477V26.4656H27.9356V26.2811H27.3563V26.7934H27.9685V26.9779H27.3563V27.504H27.9774V27.314H28.1895V27.6913H26.8964V27.5151Z" fill="white"/>
<path d="M28.4481 27.5148H28.6499V26.2678H28.4481V26.0943H29.1402C29.2563 26.0907 29.3724 26.1037 29.4848 26.1329C29.6437 26.186 29.7802 26.2894 29.873 26.4269C29.9658 26.5643 30.0096 26.7281 29.9975 26.8926C30.0107 27.0567 29.9673 27.2203 29.8743 27.3572C29.7813 27.494 29.6441 27.5961 29.4848 27.6469C29.3729 27.6791 29.2567 27.694 29.1402 27.691H28.4481V27.5148ZM29.1262 27.5148C29.2212 27.5188 29.3161 27.5057 29.4063 27.4762C29.5125 27.421 29.6012 27.3383 29.6632 27.2372C29.7251 27.1361 29.7578 27.0203 29.7578 26.9023C29.7578 26.7843 29.7251 26.6685 29.6632 26.5674C29.6012 26.4662 29.5125 26.3836 29.4063 26.3283C29.3161 26.2992 29.221 26.2871 29.1262 26.2925H28.8796V27.5148H29.1262Z" fill="white"/>
</g>
<defs>
<clipPath id="clip0_743_25300">
<rect width="30" height="30" fill="white"/>
</clipPath>
</defs>
</svg>
