<svg width="64" height="65" viewBox="0 0 64 65" fill="none" xmlns="http://www.w3.org/2000/svg">
<path d="M52.1006 0.529053H11.841C5.30142 0.529053 0 5.83047 0 12.3701V52.6297C0 59.1693 5.30142 64.4707 11.841 64.4707H52.1006C58.6402 64.4707 63.9417 59.1693 63.9417 52.6297V12.3701C63.9417 5.83047 58.6402 0.529053 52.1006 0.529053Z" fill="#0056F0"/>
<path d="M19.5102 20.3265C22.0379 20.3265 24.087 18.2774 24.087 15.7497C24.087 13.222 22.0379 11.1729 19.5102 11.1729C16.9825 11.1729 14.9333 13.222 14.9333 15.7497C14.9333 18.2774 16.9825 20.3265 19.5102 20.3265Z" fill="#EBEFF3"/>
<path d="M24.5162 21.252H14.5043C12.409 21.252 10.7104 22.9505 10.7104 25.0458C10.7104 27.1411 12.409 28.8397 14.5043 28.8397H24.5162C26.6115 28.8397 28.3101 27.1411 28.3101 25.0458C28.3101 22.9505 26.6115 21.252 24.5162 21.252Z" fill="#7BCDFF"/>
<path d="M44.4311 44.6735C41.9034 44.6735 39.8542 46.7226 39.8542 49.2503C39.8542 51.778 41.9034 53.8271 44.4311 53.8271C46.9588 53.8271 49.0079 51.778 49.0079 49.2503C49.0079 46.7226 46.9588 44.6735 44.4311 44.6735Z" fill="#EBEFF3"/>
<path d="M39.4249 43.748L49.4368 43.748C51.5321 43.748 53.2307 42.0495 53.2307 39.9542C53.2307 37.8589 51.5321 36.1603 49.4368 36.1603L39.4249 36.1603C37.3296 36.1603 35.6311 37.8589 35.6311 39.9542C35.6311 42.0495 37.3296 43.748 39.4249 43.748Z" fill="#7BCDFF"/>
<path d="M44.4308 20.3265C46.9585 20.3265 49.0076 18.2774 49.0076 15.7497C49.0076 13.222 46.9585 11.1729 44.4308 11.1729C41.9031 11.1729 39.8539 13.222 39.8539 15.7497C39.8539 18.2774 41.9031 20.3265 44.4308 20.3265Z" fill="#EBEFF3"/>
<path d="M49.4366 21.252H39.4247C37.3294 21.252 35.6309 22.9505 35.6309 25.0458C35.6309 27.1411 37.3294 28.8397 39.4247 28.8397H49.4366C51.5319 28.8397 53.2305 27.1411 53.2305 25.0458C53.2305 22.9505 51.5319 21.252 49.4366 21.252Z" fill="#7BCDFF"/>
<path d="M19.5105 44.6735C16.9828 44.6735 14.9337 46.7226 14.9337 49.2503C14.9337 51.778 16.9828 53.8271 19.5105 53.8271C22.0382 53.8271 24.0873 51.778 24.0873 49.2503C24.0873 46.7226 22.0382 44.6735 19.5105 44.6735Z" fill="#EBEFF3"/>
<path d="M14.5045 43.748L24.5164 43.748C26.6117 43.748 28.3103 42.0495 28.3103 39.9542C28.3103 37.8589 26.6117 36.1603 24.5164 36.1603L14.5045 36.1603C12.4092 36.1603 10.7107 37.8589 10.7106 39.9542C10.7106 42.0495 12.4092 43.748 14.5045 43.748Z" fill="#7BCDFF"/>
<path d="M31.8729 26.9761C31.3039 28.9098 28.3804 31.8333 26.4467 32.4023C26.348 32.4319 26.348 32.57 26.4467 32.5979C28.3804 33.1669 31.3039 36.0904 31.8729 38.0241C31.9025 38.1228 32.0406 38.1228 32.0685 38.0241C32.6375 36.0904 35.561 33.1669 37.4947 32.5979C37.5934 32.5684 37.5934 32.4302 37.4947 32.4023C35.561 31.8333 32.6375 28.9098 32.0685 26.9761C32.0389 26.8774 31.9008 26.8774 31.8729 26.9761Z" fill="#EBEFF3"/>
</svg>
