<svg width="34" height="34" viewBox="0 0 34 34" fill="none" xmlns="http://www.w3.org/2000/svg">
<g clip-path="url(#clip0_741_25075)">
<path d="M27.7037 33.75H6.2963C2.95702 33.75 0.25 31.043 0.25 27.7037V6.2963C0.25 2.95702 2.95702 0.25 6.2963 0.25H27.7037C31.043 0.25 33.75 2.95702 33.75 6.2963V27.7037C33.75 31.043 31.043 33.75 27.7037 33.75Z" stroke="#F2F5F7" stroke-width="0.5"/>
<path d="M26.073 26.4365H24.1637C23.054 26.4365 21.9411 26.4302 20.8314 26.4396C20.6409 26.4396 20.5323 26.3829 20.4253 26.2255C18.8622 23.94 17.2944 21.6607 15.7282 19.3783C15.6731 19.298 15.6149 19.2193 15.5409 19.1154C15.4418 19.2256 15.352 19.3295 15.2623 19.4318C13.2963 21.719 11.3303 24.0061 9.3611 26.2901C9.30443 26.3546 9.20842 26.4254 9.12814 26.427C8.6449 26.4396 8.16323 26.4333 7.6123 26.4333C10.0364 23.6126 12.4258 20.8359 14.8168 18.0545C12.4211 14.5648 10.0364 11.0955 7.62175 7.57906C7.74925 7.57119 7.83897 7.56174 7.92712 7.56174C9.5673 7.56174 11.2091 7.56332 12.8477 7.55859C13.0366 7.55859 13.1483 7.61526 13.2554 7.77267C14.7019 9.8898 16.1564 12.0038 17.6093 14.1178C17.6895 14.2342 17.7698 14.3492 17.8705 14.494C17.9445 14.4137 18.0075 14.3476 18.0673 14.2783C19.931 12.1124 21.7947 9.94804 23.6553 7.77896C23.7891 7.6247 23.9197 7.55387 24.1259 7.56174C24.5478 7.57748 24.9696 7.56489 25.4733 7.56489C23.1563 10.2581 20.8849 12.901 18.5993 15.558C21.0817 19.1705 23.5592 22.7799 26.073 26.438V26.4365ZM9.83962 8.79424C9.89943 8.88711 9.92305 8.93119 9.95453 8.97369C13.7103 14.3476 17.4692 19.7215 21.2218 25.0985C21.3146 25.2323 21.4169 25.2701 21.5712 25.2701C22.2402 25.2622 22.9123 25.2685 23.5813 25.2669C23.6537 25.2669 23.7261 25.2559 23.8237 25.248C23.7576 25.1473 23.7088 25.0749 23.66 25.0025C21.2863 21.6072 18.9142 18.2135 16.5405 14.8182C15.182 12.8742 13.8252 10.9303 12.462 8.991C12.4022 8.90758 12.2967 8.80526 12.2102 8.80369C11.4357 8.78795 10.6629 8.79582 9.83962 8.79582H9.84119L9.83962 8.79424Z" fill="#F2F5F7"/>
<path d="M9.83946 8.7943C10.6611 8.7943 11.4356 8.788 12.21 8.80217C12.2966 8.80217 12.4021 8.90763 12.4619 8.98948C13.8234 10.9303 15.1819 12.8727 16.5403 14.8167C18.914 18.212 21.2861 21.6057 23.6598 25.001C23.7102 25.0718 23.7574 25.1458 23.8235 25.2465C23.7259 25.2544 23.6535 25.2654 23.5811 25.2654C22.9121 25.2654 22.24 25.2623 21.571 25.2686C21.4168 25.2686 21.316 25.2324 21.2216 25.097C17.469 19.7199 13.7117 14.3461 9.95437 8.97217C9.92604 8.92967 9.89928 8.88402 9.83946 8.79272H9.83789L9.83946 8.7943Z" fill="#002852"/>
</g>
<defs>
<clipPath id="clip0_741_25075">
<rect width="34" height="34" fill="white"/>
</clipPath>
</defs>
</svg>
