<svg width="126" height="19" viewBox="0 0 126 19" fill="none" xmlns="http://www.w3.org/2000/svg">
<g clip-path="url(#clip0_418_1567)">
<path d="M19.0471 9.5C19.0471 14.7467 14.8579 19 9.68914 19C4.52144 19 0.332214 14.7467 0.332214 9.5C0.332214 4.25329 4.52144 0 9.68914 0C14.8579 0 19.0471 4.25329 19.0471 9.5Z" fill="#009BFF"/>
<path d="M27.7919 13.5772C26.319 13.5772 25.497 12.6621 25.497 11.0481V2.85498H21.8461V11.0269C21.8461 14.6151 24.0033 16.6655 27.7919 16.6655C31.5806 16.6655 33.7378 14.6151 33.7378 11.0269V2.85498H30.0868V11.0481C30.0868 12.6621 29.2648 13.5772 27.7919 13.5772Z" fill="#33261C"/>
<path d="M40.1818 16.6656C43.3822 16.6656 45.4809 14.9329 45.4809 12.3615C45.4809 10.5271 44.4003 9.11218 41.5337 8.31575L40.5323 8.03615C39.1011 7.63793 38.5712 7.20158 38.5712 6.5619C38.5712 5.88408 39.1595 5.50705 40.1985 5.50705C41.4586 5.50705 42.8105 6.22299 43.7535 7.04061L45.5769 4.71061C44.1457 3.39311 42.2222 2.59668 40.1818 2.59668C37.0983 2.59668 34.9411 4.29122 34.9411 6.90081C34.9411 8.91307 36.2346 10.2306 38.6296 10.866L39.4558 11.0863C41.2416 11.565 41.8508 11.9251 41.8508 12.6411C41.8508 13.3782 41.2208 13.7552 40.161 13.7552C38.5921 13.7552 37.2944 13.1791 36.2346 12.2217L34.4696 14.4754C35.9425 15.8691 38.0038 16.6656 40.1818 16.6656Z" fill="#33261C"/>
<path d="M55.9008 16.407H59.6143L54.7241 2.85498H50.4848L45.5988 16.407H49.208L50.055 13.8779H55.0579L55.9008 16.407ZM50.9772 11.1243L52.5669 6.38385L54.1358 11.1243H50.9772Z" fill="#33261C"/>
<path d="M66.6571 16.407H70.3081V5.84584H74.2761V2.85498H62.6932V5.84584H66.6571V16.407Z" fill="#33261C"/>
<path d="M81.1152 16.6656C85.1166 16.6656 88.0416 13.7764 88.0416 9.65019C88.0416 5.52823 85.1166 2.59668 81.1152 2.59668C77.1095 2.59668 74.1846 5.52823 74.1846 9.65019C74.1846 13.7764 77.1095 16.6656 81.1152 16.6656ZM81.1152 13.5985C79.2125 13.5985 77.894 12.0014 77.894 9.65019C77.894 7.29902 79.2125 5.66803 81.1152 5.66803C83.0178 5.66803 84.3322 7.29902 84.3322 9.65019C84.3322 12.0014 83.0178 13.5985 81.1152 13.5985Z" fill="#33261C"/>
<path d="M89.3042 16.407H94.5616C98.5088 16.407 101.317 13.6153 101.317 9.63313C101.317 5.64673 98.5088 2.85498 94.5616 2.85498H89.3042V16.407ZM92.8968 13.4797V5.78653H94.5616C96.4851 5.78653 97.666 7.32009 97.666 9.63313C97.666 11.9419 96.4851 13.4797 94.5616 13.4797H92.8968Z" fill="#33261C"/>
<path d="M110.945 16.407H114.659L109.768 2.85498H105.529L100.643 16.407H104.252L105.099 13.8779H110.102L110.945 16.407ZM106.021 11.1243L107.611 6.38385L109.18 11.1243H106.021Z" fill="#33261C"/>
<path d="M120.605 11.5268L125.332 2.85498H121.214L118.76 8.23513L116.286 2.85498H112.164L116.895 11.5268V16.407H120.605V11.5268Z" fill="#33261C"/>
</g>
<defs>
<clipPath id="clip0_418_1567">
<rect width="125" height="19" fill="white" transform="translate(0.332214)"/>
</clipPath>
</defs>
</svg>
