<svg width="121" height="33" viewBox="0 0 121 33" fill="none" xmlns="http://www.w3.org/2000/svg">
<g clip-path="url(#clip0_418_1577)">
<path d="M34.9525 8.05941V9.76568C33.9644 8.49506 32.1346 7.62376 30.012 7.62376C24.9983 7.62376 21.2654 12.0165 21.2654 17.1716C21.2654 22.4719 24.9617 26.7195 30.012 26.7195C32.1346 26.7195 33.9644 25.8845 34.9525 24.5413V26.2475H41.2105V8.05941H34.9525ZM43.3697 0V26.2475H49.8473V16.5544C49.8473 14.6667 50.7622 13.5413 52.2261 13.5413C53.6534 13.5413 54.4585 14.5215 54.4585 16.3366V26.2475H60.9361V14.8119C60.9361 10.3828 58.5207 7.62376 54.6415 7.62376C52.5555 7.62376 50.9452 8.42244 49.8107 9.83828V0H43.3697ZM102.619 17.1716C102.619 22.6172 98.4109 26.7195 92.8116 26.7195C87.2124 26.7195 83.0038 22.6172 83.0038 17.1716C83.0038 11.7261 87.2124 7.62376 92.8116 7.62376C98.4109 7.62376 102.619 11.7261 102.619 17.1716ZM81.9059 17.1716C81.9059 22.6172 77.6973 26.7195 72.098 26.7195C66.4987 26.7195 62.2901 22.6172 62.2901 17.1716C62.2901 11.7261 66.4987 7.62376 72.098 7.62376C77.6973 7.62376 81.9059 11.7261 81.9059 17.1716ZM0.332214 8.05941L8.16387 26.3927L5.34594 33H12.2261L22.6561 8.05941H15.8125L11.5673 18.7327L7.35875 8.05941H0.332214ZM31.3295 20.9109C29.1703 20.9109 27.5234 19.2772 27.5234 17.1716C27.5234 15.066 29.1703 13.4323 31.3295 13.4323C33.4521 13.4323 35.0989 15.066 35.0989 17.1716C35.0989 19.2772 33.4521 20.9109 31.3295 20.9109ZM75.7576 17.1716C75.7576 15.1386 74.2206 13.5049 72.098 13.5049C69.9754 13.5049 68.4383 15.1386 68.4383 17.1716C68.4383 19.2046 69.9754 20.8383 72.098 20.8383C74.2206 20.8383 75.7576 19.2046 75.7576 17.1716ZM96.4713 17.1716C96.4713 15.1386 94.9342 13.5049 92.8116 13.5049C90.689 13.5049 89.152 15.1386 89.152 17.1716C89.152 19.2046 90.689 20.8383 92.8116 20.8383C94.9342 20.8383 96.4713 19.2046 96.4713 17.1716ZM103.425 22.3993C103.425 24.6865 105.218 26.5743 107.633 26.5743C110.122 26.5743 111.988 24.6139 111.988 22.2541C111.988 19.9307 110.195 18.0792 107.78 18.0792C105.291 18.0792 103.425 20.0759 103.425 22.3993ZM112.647 0L105.767 16.4818H113.452L120.332 0H112.647Z" fill="#6001D2"/>
</g>
<defs>
<clipPath id="clip0_418_1577">
<rect width="120" height="33" fill="white" transform="translate(0.332214)"/>
</clipPath>
</defs>
</svg>
