<svg width="55" height="53" viewBox="0 0 55 53" fill="none" xmlns="http://www.w3.org/2000/svg">
<g id="uuid-d5a9f9cb-3121-41c6-bc4e-53fe9c50cddc" clip-path="url(#clip0_519_15533)">
<path id="Vector" d="M6.57348 36.8258C6.57348 35.897 6.10986 34.79 3.90105 34.79H0.00805664V41.4517H1.36292V38.8702H3.90105C6.10986 38.8702 6.57348 37.7584 6.57348 36.8258ZM1.36292 36.047H3.7075C5.13424 36.047 5.25242 36.4194 5.25242 36.8343C5.25242 37.2447 5.13424 37.6132 3.7075 37.6132H1.36292V36.047Z" fill="white"/>
<path id="Vector_2" d="M14.914 38.6581V34.79H13.5593V38.6581C13.5593 39.8155 12.8721 40.378 11.4587 40.378C10.0453 40.378 9.35828 39.8155 9.35828 38.6581V34.79H8.00342V38.6581C8.00342 40.5562 9.23047 41.6015 11.4587 41.6015C13.687 41.6015 14.914 40.5562 14.914 38.6581Z" fill="white"/>
<path id="Vector_3" d="M23.6498 39.4492C23.6498 38.648 23.2256 38.1961 22.8336 37.9373C23.1462 37.7037 23.4393 37.3285 23.4393 36.676C23.4393 34.79 21.4215 34.79 20.7585 34.79H16.9075V41.4517H20.346C21.4184 41.4517 23.6498 41.4517 23.6498 39.4492ZM20.3039 36.0136C21.6399 36.0136 22.0845 36.1105 22.0845 36.6842C22.0845 36.8723 22.0845 37.3716 20.5564 37.3716H18.2623V36.0136H20.3039ZM20.8258 40.1948H18.2623V38.5953H20.91C22.2781 38.5953 22.2781 39.1762 22.2781 39.4242C22.2781 39.8867 22.0311 40.1948 20.8258 40.1948Z" fill="white"/>
<path id="Vector_4" d="M31.6124 40.1948H26.9732V34.79H25.6184V41.4517H31.6124V40.1948Z" fill="white"/>
<path id="Vector_5" d="M34.2953 34.79H32.9404V41.4517H34.2953V34.79Z" fill="white"/>
<path id="Vector_6" d="M43.2672 39.6803L43.4114 39.4041L42.2078 38.8237L42.0677 39.0798C41.6028 39.9309 40.8541 40.3445 39.7789 40.3445C38.2157 40.3445 37.2827 39.5523 37.2827 38.225C37.2827 36.6803 38.1226 35.8638 39.7113 35.8638C40.8649 35.8638 41.6283 36.2754 41.9797 37.0871L42.104 37.3738L43.3042 36.8269L43.1829 36.5539C42.6509 35.3555 41.35 34.64 39.7029 34.64C37.3641 34.64 35.9111 35.9785 35.9111 38.1334C35.9111 39.81 36.9094 41.6015 39.7113 41.6015C41.4292 41.6015 42.5923 40.973 43.2672 39.6803Z" fill="white"/>
<path id="Vector_7" d="M46.33 34.79H44.9751V41.4517H46.33V34.79Z" fill="white"/>
<path id="Vector_8" d="M51.6614 37.372C50.4179 37.2598 49.6631 37.1549 49.6631 36.6427C49.6631 35.965 50.7839 35.8638 51.4521 35.8638C52.8946 35.8638 53.4304 36.476 53.6878 36.7703L53.9254 37.0376L54.9167 36.2403L54.7491 36.0081C54.5174 35.6872 53.5959 34.64 51.469 34.64C48.7041 34.64 48.2914 35.9678 48.2914 36.7593C48.2914 38.3521 50.0845 38.5236 51.5254 38.6615C52.7956 38.7829 53.6283 38.9029 53.6283 39.4407C53.6283 40.3191 51.9014 40.3445 51.7046 40.3445C50.0146 40.3445 49.5075 39.676 49.1723 39.2334L48.976 38.9749L48.155 39.6677L47.9216 39.8768L48.1321 40.1086C48.672 40.7032 49.4881 41.6015 51.6204 41.6015C53.1794 41.6015 55.0001 41.0355 55.0001 39.4407C55.0001 37.673 53.1489 37.506 51.6614 37.372Z" fill="white"/>
<path id="Vector_9" d="M6.08516 50.56H8.50916C8.25112 51.426 7.28535 51.743 6.46787 51.743C4.92595 51.743 4.00541 50.9508 4.00541 49.6235C4.00541 48.0788 4.83368 47.2623 6.40049 47.2623C6.88853 47.2623 8.07517 47.3784 8.55212 48.4545L8.68455 48.7536L9.8529 48.1443L9.7369 47.8848C9.21982 46.7289 7.982 46.0385 6.42583 46.0385C4.0868 46.0385 2.63379 47.377 2.63379 49.5319C2.63379 51.2085 3.63209 53 6.43418 53C7.46987 53 8.13572 52.7279 8.58521 52.4082V52.9002H9.8558V49.303H6.08516V50.56Z" fill="white"/>
<path id="Vector_10" d="M18.6843 48.1828C18.6843 47.2731 18.2134 46.1885 15.9697 46.1885H12.1272V52.8502H13.4821V50.1686H15.4261L17.3959 52.8502H19.0794L17.0058 50.0809C17.8675 49.8915 18.6843 49.3225 18.6843 48.1828ZM13.4821 47.4455H15.8014C17.1075 47.4455 17.3631 47.7128 17.3631 48.1743C17.3631 48.6526 17.1142 48.9116 15.8014 48.9116H13.4821V47.4455Z" fill="white"/>
<path id="Vector_11" d="M23.9482 46.0385C21.6197 46.0385 20.0552 47.4524 20.0552 49.5568C20.0552 51.9226 22.0732 53 23.9482 53C25.823 53 27.8412 51.9226 27.8412 49.5568C27.8412 47.4524 26.2768 46.0385 23.9482 46.0385ZM23.9482 51.743C23.3566 51.743 21.4268 51.5758 21.4268 49.4235C21.4268 48.151 22.4636 47.2623 23.9482 47.2623C25.4327 47.2623 26.4696 48.151 26.4696 49.4235C26.4696 51.5758 24.5397 51.743 23.9482 51.743Z" fill="white"/>
<path id="Vector_12" d="M34.8856 50.0566C34.8856 51.214 34.1984 51.7765 32.785 51.7765C31.3716 51.7765 30.6844 51.214 30.6844 50.0566V46.1885H29.3296V50.0566C29.3296 51.9547 30.5566 53 32.785 53C35.0134 53 36.2404 51.9547 36.2404 50.0566V46.1885H34.8856V50.0566Z" fill="white"/>
<path id="Vector_13" d="M41.9418 46.1885H38.0488V52.8502H39.4037V50.2687H41.9418C44.1505 50.2687 44.6143 49.1569 44.6143 48.2243C44.6143 47.2955 44.1505 46.1885 41.9418 46.1885ZM39.4037 47.4455H41.7483C43.1749 47.4455 43.2932 47.818 43.2932 48.2328C43.2932 48.6432 43.1749 49.0117 41.7483 49.0117H39.4037V47.4455Z" fill="white"/>
<path id="Vector_14" d="M47.3148 50.0271H51.2544V48.7701H47.3148V47.4455H52.0288V46.1885H45.96V52.8502H52.1297V51.5933H47.3148V50.0271Z" fill="white"/>
<path id="Vector_15" d="M45.467 31.4069L41.4314 29.0484C42.2366 29.1506 42.9439 28.7974 43.6019 28.327L44.8303 29.8114L44.079 27.9715C44.8956 27.338 45.5633 26.6563 46.3984 26.6364C48.6754 26.581 47.0807 29.2853 47.9128 29.2944C48.843 29.3022 49.8519 26.2825 47.6206 24.9568C45.3109 23.5739 43.2935 25.5702 41.6589 25.2308L47.7833 22.5258H38.8372L38.5196 21.9321C40.1397 22.6529 41.2922 21.9839 42.0641 21.2322L44.611 21.5954L42.5061 20.781C43.0092 20.2608 43.4338 19.8561 43.966 20.0576C44.721 20.343 45.1637 21.0004 46.4759 21.0146C48.6906 21.0393 50.3025 17.1449 47.3756 15.4546C47.5979 18.2315 46.2907 18.3701 44.0227 16.8953L44.8009 15.6389L43.6389 16.6504C41.4594 15.6912 40.3972 17.5975 39.4799 18.2159C38.5617 18.8293 37.7222 17.5975 36.6067 19.0645C38.2695 18.523 39.1169 20.0957 40.2099 19.0645C39.7565 21.8506 38.1394 18.2159 36.5276 19.606C37.9245 19.7095 38.6548 20.9463 39.7665 20.9463C41.8166 20.9463 39.9892 17.0443 42.8756 17.0443L42.3963 16.7402C44.0334 16.5881 44.1163 18.2063 46.5827 18.2358C46.838 18.6032 45.9383 18.6321 45.3058 18.4186C45.2026 18.9381 48.6545 20.0995 47.825 16.2184C48.9124 16.8016 48.6754 19.2427 47.6576 20.1705C47.4601 20.3503 47.2756 20.4392 47.1533 20.2514C46.8751 19.8361 47.5877 19.8435 47.79 19.2147C47.0181 19.8797 45.7008 19.8235 44.8009 19.0004C43.9035 18.1735 42.5566 17.1678 41.9789 18.9078C41.4041 20.6495 40.9223 21.4573 39.8619 21.4756C38.4022 21.4992 36.8547 19.0773 35.2352 20.4163C38.3316 20.7003 39.062 25.5702 41.7865 25.6316C43.9035 25.6316 44.3812 24.7118 45.7582 24.7118C47.1429 24.7118 48.5855 25.4314 48.5855 27.2285C48.5855 28.315 48.0079 28.9254 48.0079 28.9254C48.0079 28.9254 48.4323 28.043 48.2202 26.9218C48.0158 25.8496 47.0904 25.1953 45.8809 25.1953C44.1813 25.1953 42.8142 27.9497 40.9223 27.9497C37.1376 27.9497 36.1645 20.7305 32.2058 21.8414C35.1204 23.7892 35.4399 26.9057 37.0075 28.1014C38.5973 29.3127 40.4893 28.8171 41.5388 29.7301C41.9655 30.0997 42.1444 30.7259 42.285 31.4069H41.9247C41.7955 31.0571 41.6059 30.7319 41.2922 30.4593C40.3847 29.5159 37.6597 29.93 36.4076 28.594C35.1584 27.2537 34.2402 23.2354 31.7763 22.6192C33.9255 23.9829 34.4032 27.5013 35.9423 29.2255C37.4773 30.9504 39.5095 30.0361 40.4442 30.9408C40.6102 31.1007 40.7481 31.2552 40.8746 31.4069H39.1118C38.956 31.3792 38.7893 31.3604 38.602 31.3586C38.3167 31.3572 38.0273 31.3789 37.7386 31.4069H35.3079C34.9889 31.3095 34.6928 31.1435 34.43 30.8721C33.2099 29.5977 33.3231 28.2573 33.4204 26.6747C33.6563 28.1621 33.9478 31.5812 36.5301 31.1978C33.2803 30.0995 35.1702 24.5897 31.198 23.1767C30.7685 23.0212 30.916 21.6378 31.9986 21.431C29.8538 21.8382 29.8665 21.0615 31.3814 19.5015C30.4483 20.0897 29.4287 19.9195 29.2032 20.5867C29.2032 20.5867 30.9614 23.3169 30.9614 23.8496C30.9614 24.3833 29.804 26.5347 29.676 26.6041C29.2414 26.8354 27.8313 26.845 27.4719 26.7402C27.0992 26.6272 26.6611 25.4539 26.8316 25.0892C27.1015 24.5203 29.2768 24.0521 29.3162 23.209C29.344 22.5471 28.439 22.4836 28.4693 22.8315C28.9935 23.0052 29.219 23.7697 27.6814 24.1217L28.0287 23.5739C28.0287 23.5739 26.8894 24.474 26.8316 24.512C26.7744 24.5507 26.507 24.5691 26.3391 24.5171C26.1722 24.4644 24.5267 23.6827 24.807 22.909C24.807 22.909 25.307 23.1243 26.5514 23.1243C27.8039 23.1243 27.916 22.5879 27.916 22.5879C27.916 22.5879 27.2494 22.7555 26.5695 22.7555C25.8863 22.7555 25.2197 22.5879 25.2197 22.5879C24.6795 22.4635 25.2521 21.7892 25.4424 21.7809H26.7385C26.817 21.7809 26.9265 21.6023 26.7494 21.5913C26.619 21.5876 25.7941 21.5668 25.7291 21.3664C25.6193 21.0237 25.3971 18.8792 25.3971 18.8792C25.3971 18.8792 25.68 18.2116 25.4438 17.9908C25.2123 17.7677 25.0975 17.884 25.0975 17.884C25.6346 20.8618 23.3273 22.7163 22.0079 22.3577L21.8525 22.3306C22.1476 22.5501 22.5302 22.7528 23.0243 22.9165C20.5628 23.4335 19.5583 21.95 19.1631 21.0494C18.9486 21.1584 18.9424 21.7367 18.9704 22.105C18.4577 21.5492 18.1508 20.698 18.6185 20.076C17.9908 20.3751 17.9661 20.4708 17.9661 20.4708C17.9908 19.9592 18.896 19.6254 19.353 19.0301C19.8031 18.4342 19.7132 17.5189 18.7379 17.1323C18.8029 18.0505 18.3429 18.6786 17.4035 18.988C16.4933 19.2862 16.6482 18.4695 15.8034 18.6513C17.1836 18.9621 17.1108 20.849 18.4883 21.6252C16.6482 21.1983 16.331 18.7235 14.0911 18.9688C15.3791 17.1536 17.4156 18.7127 18.2584 17.4557C16.0783 17.9495 14.5941 16.1291 14.3413 14.1337C13.9564 11.0792 11.3499 12.5849 11.3926 11.0792C12.7041 11.6646 15.614 9.43924 16.471 11.9734C17.371 14.6229 19.1855 15.7019 20.8179 14.4777L13.6992 7.33228L14.5983 10.3275C12.7393 10.6903 10.4974 9.59361 11.7137 7.02194C9.95487 6.21342 7.62544 9.10669 9.77497 11.3742C10.7691 12.4186 13.1918 12.0345 13.8286 14.174L11.5218 13.9894L13.8918 14.6028L14.5983 16.6783L9.08551 13.9894L12.4814 17.8991C10.4974 18.9381 10.0047 15.9631 7.43803 16.0265C5.64294 16.0691 3.63278 17.8991 4.46856 20.0382C7.15337 18.4282 8.01739 19.5762 9.15739 20.6932L7.50261 21.5668L9.4594 20.9802C10.155 21.6174 11.007 22.1557 12.4191 22.0569C14.7389 21.8858 16.7858 21.1456 17.3106 21.7692C17.7157 22.2431 17.2507 22.5258 16.4138 22.5258H5.3232L9.76964 24.8831C9.33994 25.2122 8.10051 26.7168 7.24562 26.7168C6.3934 26.7168 4.46856 25.414 3.95864 27.6943C5.93568 27.3604 6.93747 31.6336 11.0939 28.2253L9.14988 31.4069H0V32.4996H54.9368V31.4069H45.467ZM43.2935 18.4859C44.314 18.9202 41.1563 21.9619 40.1874 21.8506C42.2063 21.2578 42.2746 18.0487 43.2935 18.4859ZM43.7084 27.463C44.4233 25.5803 46.6625 24.7709 47.5877 26.4181C47.6326 26.5001 47.5627 26.5638 47.4006 26.4058C46.243 25.2582 44.7585 26.3485 43.829 27.5436C43.6963 27.7138 43.6539 27.6071 43.7084 27.463ZM11.2793 7.29907C10.6949 8.30527 10.8092 10.1417 13.149 10.6871C9.22778 11.5494 9.32709 7.14561 11.2793 7.29907ZM8.10513 19.2789C6.30021 18.2968 4.69822 19.4649 4.69822 19.4649C5.23823 17.6912 8.57997 17.5437 8.10513 19.2789ZM8.89727 18.5755C8.62514 18.2184 8.39256 17.9097 8.10051 17.8123C7.72254 17.6891 7.3028 17.7045 6.93076 17.7209C6.4705 17.7434 6.07276 17.7613 5.95017 17.4793C5.86809 17.2956 5.95548 17.1002 6.19535 16.9275C6.44039 16.7548 6.80053 16.6357 7.16309 16.6161C7.57311 16.5881 7.92503 16.6861 8.15504 16.89C8.38272 17.0913 8.47511 17.1076 8.51492 17.0888C8.57281 17.0613 8.55764 16.9276 8.55278 16.8375C8.54294 16.7713 8.53275 16.7196 8.57281 16.7251C9.21759 16.8291 9.52991 17.2228 9.85994 17.617C10.4118 18.2725 11.262 19.2697 13.3293 18.9209C12.8065 20.7406 9.84211 20.2006 8.89727 18.5755ZM10.5676 21.0567C10.457 20.2608 14.4969 19.6717 14.5289 20.8119C14.5587 21.8066 10.6869 21.9349 10.5676 21.0567ZM31.4261 25.963C30.0867 28.8102 33.3884 30.5908 34.0054 31.1584C34.0762 31.2232 34.1468 31.3107 34.2175 31.4069H33.1036C32.7779 30.7305 32.4304 30.2129 32.0384 30.0361C32.3084 30.4373 32.5102 30.906 32.6844 31.4069H32.1553C31.3869 29.9028 30.1122 28.7537 31.4261 25.963ZM31.0938 31.4069H30.6224L30.0768 29.8526C30.5023 30.0677 30.816 30.6499 31.0938 31.4069ZM29.7464 31.4069H29.2305C29.454 30.5542 29.5686 29.6442 29.0287 28.5448C29.8904 29.2452 29.8807 30.3338 29.7464 31.4069ZM28.831 31.4069H28.3698C28.5705 30.736 28.6272 30.0228 28.0519 29.0074C28.9013 29.7191 28.9606 30.5542 28.831 31.4069ZM25.4133 31.4069C25.6841 30.2298 25.1933 29.8712 24.1893 28.8111C25.6969 29.8372 26.2407 30.545 26.1412 31.4069H25.4133ZM26.6371 29.3425C27.3895 30.2067 27.6067 30.8331 27.6178 31.4069H27.1598C27.1818 30.8533 27.0774 30.2076 26.6371 29.3425ZM26.5567 27.3228C27.2168 27.3228 28.4693 27.2876 28.504 27.2876C28.6814 27.2876 28.7168 27.3451 28.7245 27.3755C28.7291 27.4422 28.6416 27.7713 28.5087 27.8052C28.499 27.8112 27.2765 28.0947 26.5567 28.0585C25.8393 28.0947 24.6167 27.8112 24.6046 27.8052C24.4742 27.7713 24.3819 27.4422 24.3918 27.3755C24.397 27.3451 24.4299 27.2876 24.607 27.2876C24.607 27.2876 25.8971 27.3228 26.5567 27.3228ZM24.6496 22.8315C24.1153 23.0052 24.0247 23.8593 25.5767 24.2072C25.0721 24.2796 23.8349 24.0521 23.7972 23.209C23.7647 22.5471 24.6695 22.4836 24.6496 22.8315ZM23.13 24.2885C24.5774 24.3728 26.1023 25.0892 26.1023 25.0892C26.2743 25.4539 25.8393 26.6272 25.4598 26.7402C25.1045 26.845 23.3675 26.6632 23.1153 25.9316C24.1596 26.2095 24.2299 25.8222 24.2299 25.8222C24.2299 25.8222 23.2774 25.8286 22.8928 25.1749C23.6373 25.4383 23.9949 25.1643 23.9949 25.1643C23.9949 25.1643 22.5473 24.6169 22.5026 24.2885H23.13ZM21.6871 25.8785L21.7223 25.6007C21.8174 29.015 24.327 29.5565 24.327 31.2546C24.327 31.3068 24.3221 31.3565 24.319 31.4069H23.8771C23.9075 31.0961 23.8359 30.788 23.6049 30.4832C21.9702 28.3254 21.9003 27.862 21.9003 27.862C22.0407 29.4981 23.0947 29.7079 23.3479 31.4069H22.6687C22.4179 30.135 21.1126 29.6362 21.6871 25.8785ZM21.8376 31.4069H20.6268L21.2706 30.3819C21.5996 30.7885 21.773 31.1213 21.8376 31.4069ZM19.8759 31.4069H19.0839C20.2716 29.2207 19.6086 25.6703 20.6331 24.578C19.9222 25.8446 21.0446 28.9028 19.8759 31.4069ZM20.2006 23.1758C19.7178 23.6021 17.5059 25.5203 18.1953 30.7523C18.8935 29.6229 18.2957 25.343 20.358 23.7915C18.9138 25.5317 19.6799 28.6146 18.6347 31.4069H17.6206C17.9082 29.1568 16.6463 25.7754 20.2006 23.1758ZM16.1316 31.4069H15.6634C15.9888 30.9435 16.2481 30.3778 16.5209 29.7488C16.5396 30.1359 16.4424 30.7795 16.1316 31.4069ZM18.4178 22.3897C18.8377 22.8522 16.1913 24.0393 14.8908 23.5849C17.0683 23.6146 17.9854 21.9223 18.4178 22.3897ZM15.3983 24.1135C16.8961 24.1135 17.7837 23.6243 18.161 23.2514C18.0132 24.3183 16.866 24.6856 15.412 24.6856C13.9564 24.6856 12.6166 23.0975 11.5092 24.1586C13.4568 23.9326 13.7463 25.9678 15.9463 25.2834C14.0439 27.3082 12.6517 23.7379 10.4644 24.7709C11.5722 22.1557 13.9071 24.1135 15.3983 24.1135ZM4.56811 27.3714C5.70313 25.709 6.58534 27.9985 8.47222 26.7255C9.10021 27.7044 7.56026 28.315 6.66244 27.7704C5.76309 27.2191 5.04018 27.1966 4.56811 27.3714ZM10.0898 28.5565C9.25742 29.1941 7.13253 29.8407 7.16309 28.4658C9.37259 28.889 9.87995 25.785 11.8472 26.6996C11.3499 26.7912 10.9093 27.9261 10.0898 28.5565ZM16.2664 27.8581C16.261 29.0338 16.0964 29.8906 15.8216 30.5258L12.63 31.4069H9.78586L16.2664 27.8581Z" fill="white"/>
<path id="Vector_16" d="M28.3563 14.8652C26.817 15.0315 27.0594 17.0986 28.2167 17.0986C29.3715 17.0986 29.544 16.5652 30.421 16.5652C31.2957 16.5652 31.6087 17.1337 32.3139 17.1337C33.0083 17.1337 33.4308 16.6357 33.1152 16.1994C32.6603 16.9344 31.8534 15.9326 31.261 15.9326C30.3516 15.9326 29.9617 16.3043 29.3715 16.5991C28.7066 16.9344 28.0716 16.6165 28.3198 16.2306C27.8113 16.223 27.4817 15.5977 28.3563 14.8652Z" fill="white"/>
<path id="Vector_17" d="M33.9351 8.52492C32.446 10.7127 34.418 12.9587 31.2935 13.7347C35.0054 13.7718 33.0757 10.6424 34.4301 8.8401C35.7845 7.03661 37.3199 7.70451 37.8149 5.62C37.0347 7.31604 34.7857 7.26908 33.9351 8.52492Z" fill="white"/>
<path id="Vector_18" d="M29.6668 12.6788C28.8167 11.8533 29.1991 10.3726 29.1991 10.3726C29.1991 10.3726 27.8596 12.0345 29.6668 12.6788Z" fill="white"/>
<path id="Vector_19" d="M34.9259 9.25141C33.7331 11.0031 35.1078 13.54 32.6074 14.2747C35.7572 14.3519 34.2452 10.7443 35.3829 9.49418C36.3779 8.0581 37.2871 8.30523 37.7576 6.77728C37.0919 7.99764 35.6054 8.24887 34.9259 9.25141Z" fill="white"/>
<path id="Vector_20" d="M39.3522 14.6348C36.748 13.5808 35.2031 16.0104 35.2031 16.7402C35.8349 16.4411 36.8698 15.3217 37.2572 15.0709C37.9649 14.6115 39.0621 14.8913 39.3522 14.6348Z" fill="white"/>
<path id="Vector_21" d="M33.2309 18.4465C33.418 18.8602 34.1931 17.9385 35.363 18.2917C34.7976 17.9119 33.1274 17.9151 33.2309 18.4465Z" fill="white"/>
<path id="Vector_22" d="M41.8261 13.3448C41.2763 15.8698 36.4878 14.0017 36.5276 17.5975C37.5423 15.8176 42.2417 15.9756 41.8261 13.3448Z" fill="white"/>
<path id="Vector_23" d="M32.3536 19.6348C32.4437 20.1744 33.4035 19.0521 35.2427 19.8336C34.6102 18.9266 32.2158 18.8409 32.3536 19.6348Z" fill="white"/>
<path id="Vector_24" d="M28.6019 12.6692C26.7469 9.65542 31.0958 8.96304 29.8666 6.4754C30.0238 8.42135 25.8465 10.4291 28.6019 12.6692Z" fill="white"/>
<path id="Vector_25" d="M29.0716 24.3514C28.8216 24.5269 28.2238 24.698 27.7564 25.0086C27.7089 25.0892 27.6293 25.3748 27.5239 25.4415C28.0048 25.5381 29.0336 24.8528 29.0716 24.3514Z" fill="white"/>
<path id="Vector_26" d="M23.11 17.3785C22.3879 17.234 21.5278 17.9532 20.6899 18.3371C21.4771 19.4587 23.3026 19.5485 24.0353 19.9472C24.1998 19.6985 24.7546 17.7017 23.11 17.3785ZM22.2678 19.2006C21.5201 18.9209 21.8327 17.4965 22.8278 17.7036C22.768 17.8178 22.3122 18.6861 22.2678 19.2006ZM22.8375 19.3714C23.1643 19.0228 23.3978 18.1843 23.4521 18.0533C24.172 18.6023 23.4521 19.606 22.8375 19.3714Z" fill="white"/>
<path id="Vector_27" d="M25.7291 16.2292C24.9371 17.1536 24.3726 16.1394 23.365 16.1394C22.4993 16.1291 21.4927 17.0888 21.3182 16.4697C21.1806 15.9901 22.0706 15.1875 23.232 15.1012C22.2423 14.8291 20.6252 15.7287 20.3331 16.7196C20.0152 16.7498 19.7502 16.6635 19.7502 16.6635C20.1556 18.3494 21.8728 16.6266 22.6806 16.6266C23.41 16.6266 25.6847 18.2544 25.7291 16.2292Z" fill="white"/>
<path id="Vector_28" d="M25.502 5.98756L26.3648 8.21568C26.3648 8.21568 25.5767 9.12545 25.5767 10.7443C25.5767 13.9209 28.2091 14.217 28.0267 12.9358C26.1768 13.7718 26.087 11.1241 26.5943 10.5643C26.5943 10.5643 26.2569 11.9532 27.4937 12.4566C25.8444 9.75463 29.0937 8.72599 29.0937 6.57001C29.0937 4.77183 27.9767 4.18752 28.0014 2.53775C28.0311 0.552169 30.9841 0.0340966 31.0137 0.798388C31.0383 1.34444 28.8685 1.40582 28.8342 3.45414C28.8013 5.3726 30.9683 5.8341 30.9214 7.69943C30.8862 8.91976 28.6735 10.0485 30.0538 12.3426L33.1974 3.57141L30.7882 6.26127C30.0184 5.31052 29.4135 5.2212 29.4135 3.51529C29.4135 1.8039 31.3358 1.5586 31.3358 0.762433C31.3358 0.122729 30.371 0.0340966 29.6668 0.00180064C28.5791 -0.0467723 26.6547 0.886809 26.6547 2.86939C26.6547 4.8584 28.0137 5.86436 26.6644 7.7292L25.502 5.98756ZM28.3441 5.55812C29.2032 8.24889 26.375 8.96306 26.1393 10.7388C25.965 8.59178 28.6765 7.57346 28.3441 5.55812Z" fill="white"/>
<path id="Vector_29" d="M23.4626 20.2507C23.0177 19.955 21.4327 19.9995 20.5435 19.0995C20.5435 19.0995 20.4757 19.2849 20.5608 19.4392C19.4634 19.8732 19.7754 20.901 19.7754 20.901C19.7754 20.901 20.4903 20.0407 20.9428 20.056C20.9428 20.056 20.843 20.7452 21.045 21.059L21.1402 21.2051C20.7582 19.7812 23.4626 20.2507 23.4626 20.2507Z" fill="white"/>
<path id="Vector_30" d="M15.3711 7.75805L17.3511 8.69529C17.4109 9.36729 17.6984 10.0805 18.3833 10.8735C19.1505 11.7617 21.2447 12.0242 21.3325 14.1144C21.9702 13.48 21.4707 12.0136 20.0505 11.1811C14.7388 8.0952 23.6769 3.25967 17.9362 1.52649C22.8972 1.19645 20.7804 5.63481 21.1774 7.41471C21.7251 9.87073 24.0173 9.27704 25.2442 10.8139L23.8969 3.3577L22.6175 8.55419C20.9279 8.30797 21.5252 5.93648 21.57 3.78921C21.6525 -0.286139 14.6065 0.880833 15.5609 3.17584C15.9211 4.04666 18.3062 2.09612 18.3209 4.15797C18.3334 5.5604 17.4479 6.77728 17.3484 8.15222L15.3711 7.75805ZM16.0412 2.85037C15.5588 2.27111 17.9437 1.62294 18.3777 3.07435C17.2009 2.31372 16.2664 3.12131 16.0412 2.85037Z" fill="white"/>
<path id="Vector_31" d="M20.2687 7.11218C17.9284 11.4917 26.0223 9.49878 24.9692 13.2235C26.6715 9.19782 19.3832 11.4397 20.2687 7.11218Z" fill="white"/>
<path id="Vector_32" d="M41.2437 27.1845C42.5895 27.1554 43.654 25.8437 44.4155 25.3624C43.322 25.6114 42.7465 26.5745 41.2437 26.6084C38.7771 26.6563 37.4926 19.761 33.2905 21.1685C37.6199 21.5052 37.5199 27.2692 41.2437 27.1845Z" fill="white"/>
<path id="Vector_33" d="M23.1696 12.7761C23.0503 12.7761 22.9397 12.7383 22.8424 12.6763C22.2852 12.3288 21.9899 11.3774 21.4247 11.48C21.7526 11.7296 21.6058 12.6254 22.0706 13.1208C22.2895 13.3698 22.6124 13.5228 22.9713 13.5228C23.64 13.5228 24.1748 12.9907 24.1748 12.3327C24.1748 11.9495 23.9949 11.6078 23.7096 11.3934C23.2847 11.0665 22.6805 10.8473 20.9181 10.2555C16.7261 8.84645 23.0025 4.63849 20.1129 2.28302C21.6995 5.6708 17.0683 7.68384 19.4754 10.059C20.5204 11.1348 22.8053 10.972 23.5897 11.7379C23.705 11.8455 23.7775 12.004 23.7775 12.1754C23.7775 12.5058 23.5072 12.7761 23.1696 12.7761Z" fill="white"/>
<path id="Vector_34" d="M19.5582 15.2885C18.8029 15.2679 17.5907 14.9126 17.1685 13.9083C16.7765 14.824 17.9787 17.2814 19.5582 15.2885Z" fill="white"/>
<path id="Vector_35" d="M29.4486 25.0267C29.4014 25.1451 29.0629 25.2759 28.3765 25.5354C28.2813 25.6893 28.0715 25.939 27.8613 26.0686C28.6814 26.2919 29.5887 25.4683 29.4486 25.0267Z" fill="white"/>
<path id="Vector_36" d="M32.9408 17.7333C33.1131 18.0139 33.3652 17.4809 33.8308 17.2276C33.2251 17.1449 32.8528 17.5807 32.9408 17.7333Z" fill="white"/>
<path id="Vector_37" d="M32.4332 18.1176C31.5986 17.736 30.7392 17.0143 30.0185 17.1589C28.3668 17.4827 28.9241 19.4791 29.0862 19.7287C29.8242 19.329 31.6484 19.239 32.4332 18.1176ZM30.8564 18.9481C30.8564 18.9481 30.3591 17.5643 30.2963 17.4497C31.2914 17.2445 31.6009 18.6687 30.8564 18.9481ZM29.6691 17.8006C29.7265 17.9303 29.9562 18.7704 30.2841 19.1179C29.6691 19.3515 28.9542 18.3492 29.6691 17.8006Z" fill="white"/>
<path id="Vector_38" d="M36.058 13.278C35.3179 14.0801 35.37 14.7375 34.2656 15.4372C35.7075 16.0508 35.745 14.163 37.1846 13.7526C38.1672 13.4686 38.9148 14.6422 40.3198 14.0054C41.7289 13.3671 41.2218 10.7878 41.9041 9.64975C42.5894 8.51554 44.4733 7.45345 45.8082 9.74548C45.8082 9.74548 43.5542 7.55149 42.4938 10.1699C43.2296 9.56385 44.321 9.37787 44.321 9.95964C43.7431 10.1417 42.8115 10.4782 42.7809 12.5251C42.7464 14.9074 41.7738 15.4223 41.0163 15.9134C39.924 16.6289 37.3819 16.5918 36.8174 18.2159L45.6332 14.3247H42.9439C43.2935 12.3728 42.5264 9.4672 46.2106 10.1417C46.6625 9.17335 43.5968 6.06433 40.9318 9.61013L40.6769 8.71595C40.1193 13.4386 37.5972 11.6078 36.058 13.278ZM40.7192 10.9143C41.1737 11.6848 39.8193 13.0751 39.8193 13.0751C40.1744 13.2033 40.1594 13.7072 39.7167 13.8355C38.9173 14.0686 38.282 13.1786 37.2571 13.4386C37.4696 13.0751 39.6038 13.1534 40.7192 10.9143Z" fill="white"/>
<path id="Vector_39" d="M18.9334 16.4804C15.2162 16.5418 17.9509 12.5088 15.1787 11.9158C16.6082 12.8693 15.8241 13.7255 15.8339 15.2679C15.846 17.1286 18.0983 17.6911 18.9334 16.4804Z" fill="white"/>
<path id="Vector_40" d="M31.9356 11.0466C31.5059 12.1964 30.3159 12.5217 29.7334 13.5194C30.0585 13.5297 31.786 13.1414 32.4255 12.0704C33.04 11.0352 32.438 8.01687 34.418 7.28072C36.4877 6.50656 38.6548 5.36914 36.2076 2.89869C39.9619 3.83915 37.8528 7.80203 37.4073 8.38357C36.9823 8.92205 35.5999 10.007 35.5999 11.7464C35.5999 13.0361 34.43 14.5065 33.5183 14.6852C34.48 15.0709 35.9203 12.8916 35.9203 12.8916L40.5995 6.90325L37.9074 8.27819C37.9074 8.27819 38.645 7.64787 38.645 5.5604C38.645 2.60714 35.4399 2.07872 35.47 2.99605C35.495 3.60576 36.56 4.0375 36.5949 5.04116C36.6253 6.0439 35.203 6.61398 34.0924 6.93349L33.5956 5.28301V7.13871C31.7763 8.06795 32.3875 9.83775 31.9356 11.0466Z" fill="white"/>
</g>
<defs>
<clipPath id="clip0_519_15533">
<rect width="55" height="53" fill="white"/>
</clipPath>
</defs>
</svg>
