<svg width="160" height="48" viewBox="0 0 160 48" fill="none" xmlns="http://www.w3.org/2000/svg">
<rect width="160" height="48" fill="#002852"/>
<path d="M50.2074 9.1432C46.7411 10.8201 43.6473 10.085 40.6975 8.11481C40.3339 7.87097 39.9438 7.66423 39.5556 7.45925C35.8258 5.48729 33.454 6.42203 32.1117 10.4437C31.5056 12.2602 31.0559 14.1173 31.351 16.0698C31.6392 17.9817 32.695 19.0649 34.6258 19.0949C37.818 19.1462 40.5183 17.8474 42.8532 15.7217C43.2204 15.3878 43.5226 14.9725 43.9091 14.6686C44.4537 14.241 45.3936 14.3505 45.8328 14.8577C46.3792 15.4885 46.0033 16.0221 45.5763 16.4868C45.2636 16.8279 44.8841 17.1247 44.4906 17.3721C41.7534 19.0914 38.8089 20.247 35.5816 20.5969C32.3964 20.9414 30.0211 19.5649 29.5608 16.7996C29.0267 13.5731 29.4308 10.3889 31.1279 7.51403C32.3964 5.36713 34.4484 4.70098 37.0784 5.38834C38.7667 5.83009 40.2741 6.66587 41.7692 7.52994C42.9129 8.19079 44.0813 8.78273 45.3954 9.02835C47.7426 9.46656 49.9386 8.49825 51.1755 6.445C51.5532 5.81772 51.88 5.15686 52.2753 4.54018C52.5001 4.18678 52.8585 3.85635 53.2978 4.1055C53.6755 4.31931 53.4752 4.73808 53.3874 5.06851C52.8216 7.17123 51.815 9.10963 51.1772 11.1911C49.4362 16.872 47.913 22.5989 47.2647 28.5236C47.0732 30.2765 46.952 32.0452 47.349 33.7945C47.4404 34.1957 47.5317 34.6551 47.9832 34.7735C48.4804 34.9042 48.8002 34.5119 49.076 34.1762C49.9176 33.1443 50.4991 31.9551 51.0455 30.7518C53.166 26.0763 54.8772 21.2259 57.0276 16.561C58.1941 14.0307 59.2605 11.4509 60.6625 9.03541C61.2528 8.01763 61.8783 7.02457 62.7093 6.18172C63.0431 5.84422 63.405 5.54913 63.8547 5.3848C64.9563 4.98193 65.8189 5.68873 65.6327 6.84611C65.5273 7.49813 65.2462 8.09891 64.8544 8.60427C60.0248 14.8559 57.068 22.173 53.3329 29.0466C52.3807 30.7995 51.4091 32.5417 50.4411 34.2875C50.0757 34.9466 49.5504 35.4538 48.8915 35.8071C47.8128 36.385 46.9889 36.074 46.4583 34.9572C45.2812 32.4817 45.3304 29.8877 45.6923 27.2637C46.4987 21.4203 48.1888 15.7959 49.907 10.1787C49.9984 9.87827 50.0809 9.57435 50.2057 9.14143L50.2074 9.1432Z" fill="white"/>
<path d="M96.7766 39.9472C97.063 39.3376 97.3107 38.8163 97.5532 38.2933C97.6182 38.1537 97.6972 38.0177 97.8571 38.0124C98.0925 38.0035 98.1171 38.2067 98.1487 38.3764C98.3051 39.1821 98.472 39.9861 98.6038 40.7954C98.6442 41.0498 98.8146 41.4138 98.3402 41.4845C97.9116 41.5481 97.7763 41.2937 97.7517 40.9155C97.7412 40.7459 97.6955 40.5763 97.6674 40.4172C97.5813 40.4172 97.4969 40.3996 97.4864 40.4208C97.0378 41.2583 96.5131 41.2147 95.9123 40.29C95.8543 40.6275 95.8139 40.8926 95.7612 41.1576C95.7049 41.4421 95.5099 41.511 95.2429 41.4986C94.888 41.481 94.8968 41.2477 94.9337 41.0057C95.069 40.1363 95.2078 39.2687 95.3588 38.4029C95.387 38.2385 95.4379 38.0283 95.6575 38.03C95.8543 38.03 95.9333 38.2103 96.0106 38.3711C96.2478 38.8711 96.4938 39.3659 96.7766 39.949V39.9472Z" fill="white"/>
<path d="M121.951 39.6292C121.951 40.2742 121.956 40.6558 121.951 41.0375C121.945 41.3591 121.717 41.4068 121.466 41.4051C121.218 41.4033 121.099 41.2761 121.097 41.0216C121.093 40.1381 121.083 39.2564 121.083 38.3729C121.083 38.2351 121.056 38.0654 121.223 37.9912C121.413 37.9064 121.554 38.0036 121.682 38.1414C122.1 38.5867 122.522 39.0267 123.079 39.6133C123.103 39.0938 123.121 38.7369 123.135 38.38C123.147 38.1008 123.263 37.9576 123.565 37.9576C123.866 37.9576 123.989 38.0884 123.99 38.3747C123.997 39.2581 124.015 40.1399 124.012 41.0234C124.012 41.1541 123.943 41.345 123.845 41.4033C123.665 41.5093 123.521 41.3432 123.402 41.216C122.97 40.7495 122.543 40.2795 121.952 39.6345L121.951 39.6292Z" fill="white"/>
<path d="M108.618 39.7512C108.618 39.3112 108.618 38.873 108.618 38.433C108.618 38.1573 108.72 37.9895 109.025 37.9912C109.301 37.9948 109.473 38.1078 109.484 38.3976C109.496 38.7775 109.512 39.1592 109.498 39.5391C109.475 40.1664 109.375 40.8202 110.375 40.624C110.62 40.5763 110.717 40.7884 110.729 41.0216C110.742 41.2637 110.631 41.4333 110.392 41.4457C109.927 41.4687 109.461 41.4687 108.995 41.4616C108.684 41.4581 108.625 41.239 108.626 40.9792C108.63 40.5693 108.626 40.1593 108.626 39.7494H108.619L108.618 39.7512Z" fill="white"/>
<path d="M102.788 39.7087C102.788 39.2687 102.781 38.8305 102.792 38.3905C102.797 38.1572 102.913 38.0106 103.168 38.0035C103.437 37.9947 103.651 38.0865 103.656 38.3763C103.677 39.2846 103.681 40.1928 103.674 41.0993C103.672 41.3926 103.467 41.4774 103.196 41.4827C102.867 41.488 102.811 41.2795 102.808 41.0268C102.802 40.5868 102.808 40.1486 102.808 39.7087C102.802 39.7087 102.797 39.7087 102.792 39.7087H102.788Z" fill="white"/>
<path fill-rule="evenodd" clip-rule="evenodd" d="M73.8494 31.2049C73.5504 31.5436 73.2647 31.8689 72.9878 32.1843C72.3487 32.9122 71.7559 33.5874 71.1511 34.2523C70.856 34.5756 70.5239 34.8725 70.1743 35.1357C69.3749 35.7401 68.4684 36.2242 67.5004 35.7277C66.5095 35.2188 65.9877 34.2858 65.9403 33.1355C65.9311 32.9138 65.9332 32.6913 65.9357 32.4187C65.937 32.2742 65.9385 32.1157 65.9385 31.9357C65.8182 32.0848 65.7012 32.231 65.5865 32.3743L65.5864 32.3743L65.5864 32.3744C64.9931 33.1157 64.4618 33.7795 63.8479 34.3689C63.045 35.1393 62.1279 35.6694 61.0228 35.8673C59.3679 36.1659 58.2716 35.6075 57.5302 34.072C56.8485 32.6637 56.6992 31.1759 57.0593 29.6828C57.9255 26.1099 59.6753 23.0354 62.4195 20.5722C63.0994 19.9608 63.8918 19.512 64.7597 19.2151C65.5467 18.9465 66.3373 18.8529 66.9347 19.5809C67.5425 20.3195 67.6761 21.1677 67.2351 22.0512C66.7555 23.0124 66.0334 23.7934 65.2481 24.4984C64.3441 25.3111 63.4263 26.1071 62.5085 26.903C61.8977 27.4328 61.2868 27.9626 60.6802 28.4972C59.8369 29.2411 59.143 30.1157 58.644 31.1282C58.0397 32.3563 58.2048 33.4712 59.0586 34.1851C60.0284 34.9979 61.1019 34.9679 62.2474 34.0455C63.9111 32.7061 65.1585 30.9939 66.3848 29.2693C68.2769 26.6082 69.779 23.721 71.2442 20.8107C71.7887 19.7296 72.3372 18.6504 72.8858 17.5712C73.6399 16.0875 74.394 14.6039 75.1375 13.1155C75.6575 12.0747 76.4955 11.4492 77.5567 11.0834L77.5946 11.0703C78.0299 10.9192 78.5219 10.7485 78.848 11.2018C79.1607 11.6365 78.9217 12.0818 78.6477 12.4952L78.2403 13.1114L78.2403 13.1114L78.2402 13.1115C76.3362 15.9911 74.4324 18.8704 72.5531 21.7667C70.8753 24.35 69.2151 26.9475 67.7305 29.651C67.3616 30.3242 67.0717 31.0275 66.9241 31.7838C66.7853 32.4941 66.8099 33.1903 67.1613 33.8441C67.5759 34.6198 68.0591 34.7877 68.8145 34.3583C69.8774 33.7557 70.6803 32.8528 71.4568 31.9287C72.5585 30.6172 73.5257 29.2063 74.4928 27.7955C74.92 27.1725 75.3471 26.5494 75.7857 25.935C77.1561 24.0143 78.6037 22.1748 80.517 20.763C81.4903 20.0438 82.5426 19.4713 83.6969 19.1144C85.6382 18.5154 86.6326 18.9448 87.5883 20.7878C87.9854 20.2771 88.3895 19.7876 88.964 19.5138C89.0051 19.4942 89.0467 19.4735 89.0887 19.4526L89.0888 19.4525C89.4405 19.2775 89.8168 19.0902 90.1762 19.4501C90.505 19.7808 90.3341 20.1404 90.1795 20.4656C90.159 20.5089 90.1387 20.5515 90.12 20.5934C88.9306 23.2421 87.7271 25.8838 86.5202 28.5237C85.9773 29.7128 85.5838 30.9303 85.6488 32.2608C85.6751 32.7945 85.7647 33.3122 85.9439 33.8123C86.3375 34.9078 86.9524 35.0933 87.8694 34.3636C88.6354 33.754 89.224 32.9765 89.7264 32.146C89.9222 31.8231 90.1182 31.5004 90.3143 31.1777L90.3175 31.1725C92.2984 27.9114 94.2799 24.6495 95.9897 21.2313C96.2128 20.786 96.4394 20.3425 96.6801 19.906C96.8751 19.5526 97.1791 19.33 97.5796 19.2681C97.8888 19.2204 98.1682 19.3176 98.3632 19.565C98.5547 19.8071 98.5055 20.0757 98.3245 20.2948C97.5498 21.2366 97.7571 22.083 98.3333 23.0919C99.6984 25.4809 100.034 27.7232 99.6404 30.3437C99.8898 30.3784 99.996 30.2087 100.096 30.0491C100.118 30.0141 100.139 29.9796 100.162 29.9479C100.551 29.4009 100.948 28.8599 101.345 28.319L101.345 28.3189L101.345 28.3188C102.18 27.1806 103.016 26.0424 103.774 24.8483C104.997 22.9223 106.432 21.1853 108.434 20.0156C109.544 19.3671 110.714 18.9236 112.026 19.2452C112.799 19.4342 113.446 19.8053 113.651 20.6658C113.732 20.9998 113.708 21.3249 113.42 21.5458C113.098 21.7949 112.806 21.5953 112.543 21.4062C111.35 20.5474 110.744 20.5457 109.583 21.4362C108.997 21.8851 108.488 22.4152 108.052 23.0106C106.206 25.5357 104.8 28.3028 103.634 31.1989C103.346 31.9163 103.212 32.6743 103.37 33.4465C103.597 34.5509 104.454 35.0103 105.468 34.5615C106.526 34.0932 107.427 33.3794 108.244 32.5754C108.396 32.4252 108.549 32.2753 108.701 32.1253L108.704 32.1229L108.706 32.1204C110.914 29.9511 113.12 27.783 114.823 25.1487C115.928 23.44 117.323 21.9646 118.973 20.7524C119.923 20.0545 120.946 19.4943 122.072 19.1374C124.063 18.5066 125.059 18.913 126.036 20.7772C126.48 20.2241 126.928 19.6904 127.587 19.4219L127.643 19.3989C127.976 19.2627 128.327 19.1194 128.643 19.4572C128.93 19.768 128.781 20.1092 128.65 20.4063L128.63 20.452C127.857 22.2261 127.065 23.9913 126.267 25.753C126.017 26.3073 125.759 26.8585 125.501 27.4099C125.237 27.9748 124.973 28.5399 124.716 29.1085C124.07 30.5433 123.919 32.0559 124.143 33.5967C124.149 33.6384 124.155 33.6811 124.161 33.7244C124.225 34.197 124.3 34.7463 124.836 34.9308C125.463 35.1463 125.898 34.6763 126.252 34.2558C126.73 33.685 127.184 33.095 127.639 32.5048C127.9 32.165 128.162 31.8251 128.428 31.4887L128.463 31.4452C128.778 31.046 129.095 30.6451 129.451 30.2853C129.621 30.114 129.878 29.9302 130.155 30.1352C130.371 30.2942 130.368 30.5292 130.34 30.7748C130.189 32.1071 127.037 35.6959 125.753 35.9927C124.565 36.2666 123.421 35.5033 123.052 34.1833C122.817 33.343 122.838 32.4877 122.858 31.6276C122.866 31.3049 122.874 30.9816 122.868 30.6582C122.627 30.6174 122.55 30.7768 122.478 30.925C122.454 30.9756 122.43 31.025 122.401 31.0646C121.42 32.3916 120.378 33.6585 119.048 34.6551C118.267 35.24 117.422 35.687 116.464 35.9115C114.821 36.2984 113.6 35.7118 112.857 34.1816C112.29 33.0118 112.249 31.7626 112.357 30.2995C112.152 30.5261 111.96 30.7384 111.778 30.9406L111.778 30.9411C111.378 31.385 111.022 31.7799 110.661 32.1707C109.763 33.1408 108.827 34.0703 107.782 34.8831C106.541 35.8478 105.187 36.5069 103.648 35.7719C102.077 35.0209 101.645 33.496 101.448 31.8968C101.43 31.7513 101.434 31.6035 101.439 31.3903C101.441 31.267 101.445 31.1219 101.445 30.9427L100.944 31.6009C100.608 32.0434 100.314 32.4295 100.022 32.8157C98.8533 34.36 97.411 35.4997 95.489 35.9362C93.6864 36.3444 92.3178 35.8072 91.6695 34.4307L91.6687 34.4288C91.4651 33.9946 91.2311 33.4955 91.7451 33.1691C92.2827 32.8281 92.7289 33.2221 92.9889 33.6444C93.393 34.2982 93.9833 34.5226 94.6738 34.595C95.8105 34.7134 96.4236 34.3318 96.8628 33.261C97.2493 32.3174 97.3266 31.312 97.3249 30.3154C97.3196 28.0554 96.9999 25.829 96.4429 23.4789C96.2614 23.7931 96.0881 24.0935 95.9202 24.3849L95.9194 24.3862C95.5936 24.9513 95.2877 25.4819 94.9795 26.011C93.4141 28.7021 91.8259 31.3791 89.9021 33.8335C89.4875 34.3618 89.0342 34.876 88.5283 35.3142C86.9506 36.6854 85.069 36.0528 84.5665 34.0208C84.3769 33.254 84.3899 32.4756 84.404 31.6354V31.6354V31.6354C84.4104 31.2538 84.417 30.8596 84.4049 30.4479L84.2174 30.6991C83.3818 31.8195 82.6372 32.8178 81.7327 33.6797C80.6821 34.6816 79.5419 35.5316 78.0995 35.8867C76.3304 36.3232 75.0848 35.7065 74.3416 34.019C73.9724 33.1795 73.828 32.2997 73.8494 31.2049ZM75.5064 31.4242L75.5064 31.425V31.4233L75.5064 31.4242ZM75.5064 31.4242C75.5732 30.2566 75.7928 29.2231 76.2653 28.2656C77.6708 25.419 79.6859 23.0919 82.2668 21.2648C82.9133 20.8072 83.6266 20.452 84.447 20.4255C85.4889 20.3902 86.1213 21.0581 85.9509 22.0918C85.8578 22.6643 85.6874 23.2438 85.4449 23.7686C83.9534 27.0093 82.1245 30.0379 79.7685 32.7273C79.2643 33.3034 78.7021 33.8228 78.031 34.1957C77.2053 34.6533 76.6079 34.4872 76.0932 33.685C75.6295 32.9662 75.5416 32.152 75.5064 31.4242ZM113.955 31.3738C114.027 30.1246 114.328 28.9354 114.92 27.8346C116.29 25.2901 118.138 23.152 120.458 21.4398C121.116 20.9539 121.833 20.5439 122.675 20.4485C123.945 20.3054 124.639 21.0528 124.367 22.3056C124.254 22.8181 124.108 23.3375 123.889 23.8111C122.434 26.9369 120.67 29.8701 118.43 32.4976C117.877 33.1461 117.274 33.7504 116.526 34.1763C115.665 34.6658 115.05 34.4961 114.521 33.6568C114.179 33.1143 113.943 32.1619 113.955 31.3756V31.3738ZM64.6068 21.0298C62.8851 22.4398 61.9135 24.3605 61.1915 26.4633H61.1932L61.2506 26.4171C62.8672 25.1179 64.4828 23.8194 65.7347 22.143C65.7671 22.0996 65.8015 22.0549 65.8367 22.0091C66.1812 21.561 66.6065 21.0079 66.0773 20.5173C65.6153 20.0904 65.1937 20.4868 64.8329 20.826C64.7546 20.8996 64.6791 20.9705 64.6068 21.0298Z" fill="white"/>
<path fill-rule="evenodd" clip-rule="evenodd" d="M129.024 41.421C130.004 41.3945 130.663 40.6788 130.66 39.6469C130.656 38.6009 130.01 37.9188 129.005 37.9047C127.994 37.8888 127.237 38.645 127.241 39.6646C127.244 40.6665 128.038 41.4493 129.024 41.421ZM129.855 39.6434C129.844 39.1062 129.498 38.8023 128.924 38.7793V38.7811C128.407 38.8571 128.094 39.1486 128.123 39.7158C128.149 40.2459 128.493 40.5287 128.975 40.5304C129.511 40.5322 129.865 40.1859 129.855 39.6434Z" fill="white"/>
<path fill-rule="evenodd" clip-rule="evenodd" d="M117.544 41.3803C117.65 41.3397 117.748 41.2566 117.669 40.9792V40.9775C117.551 40.7253 117.431 40.461 117.308 40.1897C117 39.5085 116.672 38.7826 116.286 38.0902C116.083 37.7262 115.851 38.0867 115.742 38.3234C115.361 39.1486 114.985 39.9738 114.624 40.8078C114.609 40.8438 114.586 40.8817 114.562 40.9208C114.477 41.0584 114.384 41.2109 114.582 41.3485C114.821 41.5164 115.101 41.5058 115.294 41.2743C115.835 40.6241 116.355 40.5799 116.901 41.2637C117.07 41.474 117.314 41.4704 117.544 41.3803ZM115.993 40.0604C116.092 40.1117 116.201 40.0922 116.285 39.9579C116.272 39.9332 116.261 39.9032 116.249 39.8722C116.223 39.8015 116.195 39.7259 116.141 39.6964C116.02 39.6287 115.982 39.7446 115.953 39.8316C115.949 39.8446 115.945 39.8568 115.941 39.8678C115.919 39.9208 115.951 40.0374 115.993 40.0604Z" fill="white"/>
</svg>
