<svg width="160" height="48" viewBox="0 0 160 48" fill="none" xmlns="http://www.w3.org/2000/svg">
<rect width="160" height="48" fill="#002852"/>
<g clip-path="url(#clip0_875_23469)">
<g clip-path="url(#clip1_875_23469)">
<path fill-rule="evenodd" clip-rule="evenodd" d="M35.2578 39.5814C43.4369 39.5814 50.0651 32.829 50.0651 24.5001C50.0651 16.1711 43.4369 9.4187 35.2578 9.4187C27.0787 9.4187 20.4478 16.1711 20.4478 24.5001C20.4478 32.829 27.0787 39.5814 35.2578 39.5814ZM27.0542 23.7077C27.0732 29.3878 31.307 32.9235 35.3748 32.9094C40.3976 32.8928 43.3687 28.6922 43.3579 24.8575C43.3443 21.0255 41.2981 18.2547 36.7895 17.1353C36.7787 17.0882 36.7706 16.9856 36.7706 16.8887C36.7624 13.9932 38.9065 11.4386 41.6002 10.8706C41.3472 10.7819 40.9309 10.7487 40.5336 10.7487C37.4535 10.7598 34.0551 12.1036 31.5736 14.1928C29.0323 16.3374 27.0405 19.9533 27.0542 23.7077Z" fill="white"/>
<path d="M59.6292 30.7454L55.1016 19.7427H58.0592L60.8835 27.0492L63.6208 19.7427H66.4451L62.0508 30.7454H59.6292Z" fill="white"/>
<path d="M74.3249 25.1871C74.3249 24.73 74.2733 24.2949 74.1671 23.8821C74.0637 23.4693 73.9059 23.1146 73.6964 22.8181C73.4869 22.5189 73.2338 22.2833 72.9345 22.1088C72.6352 21.9315 72.2842 21.8428 71.8815 21.8428C71.4788 21.8428 71.1251 21.9315 70.8285 22.1088C70.5292 22.2833 70.2735 22.5189 70.0667 22.8181C69.8572 23.1146 69.6994 23.4693 69.596 23.8821C69.4898 24.2949 69.4381 24.73 69.4381 25.1871C69.4381 25.6609 69.4898 26.1015 69.596 26.506C69.6994 26.9106 69.8517 27.2652 70.0531 27.57C70.2544 27.8748 70.5102 28.1158 70.8177 28.2932C71.1224 28.4677 71.4788 28.5564 71.8815 28.5564C72.2842 28.5564 72.6352 28.4677 72.9345 28.2932C73.2338 28.1158 73.4869 27.8748 73.6964 27.57C73.9059 27.2652 74.0637 26.9106 74.1671 26.506C74.2732 26.1015 74.3249 25.6609 74.3249 25.1871ZM77.0595 25.1992C77.0595 25.9168 76.9506 26.6206 76.7357 27.3133C76.518 28.006 76.1969 28.6239 75.7697 29.1725C75.3453 29.7211 74.8065 30.1617 74.1562 30.4969C73.5059 30.8322 72.7468 30.9984 71.8815 30.9984C71.0136 30.9984 70.2544 30.8322 69.6068 30.4969C68.9565 30.1617 68.4178 29.7211 67.9906 29.1725C67.5662 28.6239 67.2451 28.006 67.0274 27.3133C66.8124 26.6206 66.7036 25.9168 66.7036 25.1992C66.7036 24.4843 66.8124 23.7861 67.0274 23.0989C67.2451 22.4146 67.5662 21.8022 67.9906 21.2619C68.4178 20.7216 68.9565 20.2894 69.6068 19.9624C70.2544 19.6355 71.0136 19.4692 71.8815 19.4692C72.7468 19.4692 73.5032 19.6355 74.1453 19.9624C74.7875 20.2894 75.3262 20.7216 75.7589 21.2619C76.1942 21.8022 76.518 22.4146 76.7357 23.0989C76.9506 23.7861 77.0595 24.4843 77.0595 25.1992Z" fill="white"/>
<path d="M85.4099 22.1641C84.8739 21.9508 84.376 21.8427 83.9134 21.8427C83.44 21.8427 83.0291 21.937 82.689 22.1198C82.3462 22.3025 82.0632 22.5492 81.8401 22.8623C81.617 23.1754 81.451 23.5273 81.3394 23.918C81.2279 24.3059 81.1707 24.7077 81.1707 25.1205C81.1707 25.5777 81.2197 26.0155 81.3177 26.4366C81.4129 26.855 81.5626 27.2236 81.7639 27.5366C81.9625 27.8497 82.2156 28.1019 82.5203 28.2931C82.8251 28.4815 83.187 28.5785 83.6033 28.5785C83.9461 28.5785 84.2944 28.4816 84.6508 28.2931C85.0073 28.1019 85.2603 27.8747 85.41 27.617L85.4099 22.1641ZM85.6331 30.7452L85.5215 29.9029C85.2685 30.1911 84.9338 30.446 84.5148 30.6648C84.0985 30.8865 83.606 30.9974 83.04 30.9974C82.2972 30.9974 81.6387 30.8367 81.0755 30.518C80.5068 30.1994 80.0307 29.7727 79.6443 29.2407C79.2579 28.7087 78.9613 28.0908 78.76 27.3898C78.5614 26.6916 78.4607 25.9601 78.4607 25.1981C78.4607 24.4833 78.5641 23.7822 78.7709 23.0979C78.9804 22.4135 79.296 21.8012 79.7205 21.2608C80.1477 20.7205 80.6783 20.2883 81.3204 19.9613C81.9598 19.6344 82.7135 19.4681 83.576 19.4681C84.142 19.4681 84.7542 19.5761 85.41 19.7868V15.5198H88.188V30.7452H85.6331Z" fill="white"/>
<path d="M96.0134 25.5861C95.7141 25.6022 95.4039 25.6306 95.0883 25.6666C94.7727 25.7054 94.4734 25.7552 94.1877 25.8162C93.5836 25.938 93.1673 26.1459 92.9334 26.4424C92.7021 26.7416 92.5851 27.063 92.5851 27.4149C92.5851 27.7779 92.7157 28.0716 92.9796 28.2933C93.2435 28.5121 93.6136 28.623 94.0952 28.623C94.4571 28.623 94.8081 28.5482 95.1455 28.3958C95.4829 28.2434 95.774 28.0522 96.0134 27.825V25.5861ZM96.2366 30.7371L96.1277 29.9141C95.8257 30.2521 95.4448 30.5182 94.9795 30.7093C94.5142 30.9006 94.0054 30.9975 93.4503 30.9975C92.9851 30.9975 92.5361 30.9171 92.1116 30.7564C91.6817 30.5986 91.3035 30.3685 90.9743 30.0721C90.6451 29.7756 90.3784 29.4126 90.1771 28.9776C89.973 28.5426 89.8723 28.0522 89.8723 27.5036C89.8723 26.9577 89.9757 26.4728 90.1879 26.0544C90.3975 25.636 90.6804 25.2841 91.0423 24.9932C91.4015 24.7051 91.8151 24.4696 92.2803 24.2867C92.7429 24.1039 93.2327 23.9652 93.7415 23.8738C94.1006 23.799 94.4952 23.7435 94.9224 23.7047C95.3495 23.6659 95.706 23.6327 95.9917 23.6022V23.4415C95.9917 22.832 95.8393 22.3997 95.5291 22.1392C95.2217 21.8815 94.7972 21.7513 94.2584 21.7513C93.9428 21.7513 93.6408 21.7901 93.3551 21.8677C93.0694 21.9425 92.8164 22.0369 92.5905 22.1504C92.3647 22.2668 92.1661 22.3803 91.9919 22.494C91.8205 22.6076 91.6817 22.7101 91.5756 22.8015L90.6559 20.8176C90.7757 20.7096 90.958 20.5821 91.2056 20.4297C91.4532 20.2773 91.7497 20.1277 92.1035 19.9836C92.4545 19.8394 92.849 19.7176 93.2898 19.6179C93.7306 19.5181 94.2067 19.4683 94.7128 19.4683C95.3114 19.4683 95.8583 19.5487 96.3508 19.7093C96.8433 19.87 97.2705 20.1194 97.6297 20.463C97.9861 20.8038 98.2664 21.236 98.4704 21.7625C98.6718 22.2862 98.7725 22.9206 98.7725 23.666V30.7371H96.2366Z" fill="white"/>
<path d="M107.36 18.0302C107.27 17.986 107.096 17.9195 106.835 17.8362C106.571 17.7532 106.225 17.7116 105.79 17.7116C105.403 17.7116 105.077 17.8308 104.816 18.0662C104.555 18.3017 104.424 18.6869 104.424 19.2189V19.7426H106.756V22.0257H104.446V30.7453H101.665V22.0257H100.231V19.7426H101.665V19.1496C101.665 18.4347 101.755 17.8307 101.934 17.3348C102.114 16.8416 102.364 16.437 102.685 16.1267C103.006 15.8136 103.385 15.5836 103.817 15.4395C104.252 15.2954 104.723 15.2234 105.232 15.2234C105.904 15.2234 106.459 15.2871 106.9 15.4174C107.341 15.5477 107.599 15.6335 107.673 15.6806L107.36 18.0302Z" fill="white"/>
<path d="M114.937 25.1871C114.937 24.73 114.883 24.2949 114.78 23.8821C114.676 23.4693 114.518 23.1146 114.309 22.8181C114.099 22.5189 113.846 22.2833 113.547 22.1088C113.248 21.9315 112.897 21.8428 112.494 21.8428C112.091 21.8428 111.738 21.9315 111.441 22.1088C111.142 22.2833 110.886 22.5189 110.677 22.8181C110.47 23.1146 110.312 23.4693 110.206 23.8821C110.102 24.2949 110.051 24.73 110.051 25.1871C110.051 25.6609 110.102 26.1015 110.206 26.506C110.312 26.9106 110.464 27.2652 110.666 27.57C110.867 27.8748 111.123 28.1158 111.427 28.2932C111.735 28.4677 112.091 28.5564 112.494 28.5564C112.897 28.5564 113.248 28.4677 113.547 28.2932C113.846 28.1158 114.099 27.8748 114.309 27.57C114.518 27.2652 114.676 26.9106 114.78 26.506C114.883 26.1015 114.937 25.6609 114.937 25.1871ZM117.672 25.1992C117.672 25.9168 117.563 26.6206 117.346 27.3133C117.131 28.006 116.809 28.6239 116.382 29.1725C115.958 29.7211 115.419 30.1617 114.769 30.4969C114.118 30.8322 113.359 30.9984 112.494 30.9984C111.626 30.9984 110.867 30.8322 110.219 30.4969C109.569 30.1617 109.03 29.7211 108.603 29.1725C108.179 28.6239 107.858 28.006 107.64 27.3133C107.422 26.6206 107.316 25.9168 107.316 25.1992C107.316 24.4843 107.422 23.7861 107.64 23.0989C107.858 22.4146 108.179 21.8022 108.603 21.2619C109.03 20.7216 109.569 20.2894 110.219 19.9624C110.867 19.6355 111.626 19.4692 112.494 19.4692C113.359 19.4692 114.116 19.6355 114.758 19.9624C115.4 20.2894 115.939 20.7216 116.371 21.2619C116.807 21.8022 117.131 22.4146 117.346 23.0989C117.563 23.7861 117.672 24.4843 117.672 25.1992Z" fill="white"/>
<path d="M126.3 30.7455V24.4697C126.3 23.6329 126.129 22.9845 125.786 22.5274C125.44 22.0729 124.964 21.843 124.349 21.843C123.917 21.843 123.517 21.9566 123.152 22.1865C122.785 22.4137 122.466 22.6659 122.197 22.9402V30.7455H119.419V19.7427H121.952L122.085 20.61C122.521 20.247 123.008 19.9644 123.555 19.7677C124.099 19.5682 124.649 19.4712 125.201 19.4712C125.77 19.4712 126.292 19.5571 126.771 19.7316C127.25 19.909 127.661 20.186 128.003 20.5656C128.349 20.9452 128.613 21.4412 128.801 22.048C128.986 22.6576 129.081 23.3891 129.081 24.2397V30.7455H126.3Z" fill="white"/>
<path d="M137.728 23.921C137.698 23.5414 137.619 23.2089 137.491 22.929C137.363 22.6464 137.205 22.4192 137.018 22.2446C136.83 22.0673 136.629 21.9398 136.411 21.8539C136.191 21.7709 135.97 21.7293 135.744 21.7293C135.263 21.7293 134.806 21.9121 134.37 22.2779C133.935 22.6437 133.679 23.1895 133.603 23.921H137.728ZM133.538 25.9519C133.597 26.8801 133.88 27.5507 134.392 27.9608C134.901 28.3708 135.562 28.5786 136.37 28.5786C136.746 28.5786 137.099 28.5426 137.429 28.4761C137.758 28.4069 138.052 28.3209 138.307 28.2129C138.563 28.1075 138.781 27.9995 138.96 27.8942C139.14 27.7863 139.273 27.6864 139.366 27.595L140.106 29.903C140 29.9778 139.831 30.0804 139.6 30.2106C139.369 30.3409 139.08 30.46 138.737 30.5763C138.394 30.69 137.989 30.7869 137.527 30.8728C137.064 30.9559 136.555 30.9975 136.003 30.9975C135.298 30.9975 134.631 30.8839 133.995 30.6567C133.361 30.4267 132.803 30.072 132.327 29.5927C131.848 29.1134 131.467 28.5176 131.184 27.8028C130.898 27.0879 130.757 26.2345 130.757 25.2454C130.757 24.3171 130.887 23.4942 131.149 22.7794C131.41 22.0645 131.769 21.4632 132.223 20.9756C132.681 20.4907 133.211 20.1166 133.815 19.8562C134.422 19.5985 135.067 19.4683 135.755 19.4683C136.444 19.4683 137.078 19.5847 137.663 19.8118C138.245 20.039 138.748 20.3937 139.175 20.8731C139.6 21.3524 139.937 21.973 140.182 22.735C140.43 23.4942 140.552 24.4003 140.552 25.4504V25.9519L133.538 25.9519Z" fill="white"/>
</g>
</g>
<defs>
<clipPath id="clip0_875_23469">
<rect width="138" height="31" fill="white" transform="translate(11 9)"/>
</clipPath>
<clipPath id="clip1_875_23469">
<rect width="122" height="33" fill="white" transform="translate(19.5 8)"/>
</clipPath>
</defs>
</svg>
