<svg width="84" height="26" viewBox="0 0 84 26" fill="none" xmlns="http://www.w3.org/2000/svg">
<path d="M3.26434 0.747742C2.82775 0.747742 2.48836 1.08389 2.48836 1.51632C2.48836 1.94876 2.82775 2.28491 3.26434 2.28491C3.70093 2.28491 4.04126 1.94876 4.04126 1.51632C4.04126 1.08389 3.70093 0.747742 3.26434 0.747742ZM7.29106 0.747742C6.85447 0.747742 6.51509 1.08389 6.51509 1.51632C6.51509 1.94876 6.85447 2.28491 7.29106 2.28491C7.72765 2.28491 8.06703 1.94876 8.06703 1.51632C8.06703 1.08389 7.72765 0.747742 7.29106 0.747742ZM31.6921 0.747742C31.2555 0.747742 30.9151 1.08389 30.9151 1.51632C30.9151 1.94876 31.2555 2.28491 31.6921 2.28491C32.1286 2.28491 32.468 1.94876 32.468 1.51632C32.468 1.08389 32.1286 0.747742 31.6921 0.747742ZM35.7661 0.747742C35.3296 0.747742 34.9902 1.08389 34.9902 1.51632C34.9902 1.94876 35.3296 2.28491 35.7661 2.28491C36.2027 2.28491 36.5431 1.94876 36.5431 1.51632C36.5431 1.08389 36.2027 0.747742 35.7661 0.747742ZM42.9943 0.747742C42.5578 0.747742 42.2184 1.08389 42.2184 1.51632C42.2184 1.94876 42.5578 2.28491 42.9943 2.28491C43.4309 2.28491 43.7703 1.94876 43.7703 1.51632C43.7703 1.08389 43.4309 0.747742 42.9943 0.747742ZM47.0211 0.747742C46.5845 0.747742 46.2451 1.08389 46.2451 1.51632C46.2451 1.94876 46.5845 2.28491 47.0211 2.28491C47.4577 2.28491 47.797 1.94876 47.797 1.51632C47.797 1.08389 47.4577 0.747742 47.0211 0.747742ZM51.0961 0.747742C50.6595 0.747742 50.3192 1.08389 50.3192 1.51632C50.3192 1.94876 50.6595 2.28491 51.0961 2.28491C51.5327 2.28491 51.8721 1.94876 51.8721 1.51632C51.8721 1.08389 51.5327 0.747742 51.0961 0.747742ZM68.268 0.747742C67.8314 0.747742 67.492 1.08389 67.492 1.51632C67.492 1.94876 67.8314 2.28491 68.268 2.28491C68.7045 2.28491 69.0449 1.94876 69.0449 1.51632C69.0449 1.08389 68.7045 0.747742 68.268 0.747742ZM72.2947 0.747742C71.8581 0.747742 71.5187 1.08389 71.5187 1.51632C71.5187 1.94876 71.8581 2.28491 72.2947 2.28491C72.7313 2.28491 73.0706 1.94876 73.0706 1.51632C73.0706 1.08389 72.7313 0.747742 72.2947 0.747742ZM19.4669 1.03584C19.1759 1.03584 18.9818 1.27608 18.9818 1.51632C18.9818 1.80461 19.2244 1.99681 19.4669 1.99681C19.758 1.99681 19.952 1.75657 19.952 1.51632C20.0005 1.22804 19.758 1.03584 19.4669 1.03584ZM55.1702 1.03584C54.8791 1.03584 54.6851 1.27608 54.6851 1.51632C54.6851 1.80461 54.9277 1.99681 55.1702 1.99681C55.4613 1.99681 55.6553 1.75657 55.6553 1.51632C55.6553 1.22804 55.4128 1.03584 55.1702 1.03584ZM76.3697 1.03584C76.0787 1.03584 75.8846 1.27608 75.8846 1.51632C75.8846 1.80461 76.1272 1.99681 76.3697 1.99681C76.6608 1.99681 76.8548 1.75657 76.8548 1.51632C76.8548 1.22804 76.6608 1.03584 76.3697 1.03584ZM5.30234 1.90108C4.86575 1.90108 4.52636 2.23723 4.52636 2.66967C4.52636 3.1021 4.86575 3.43825 5.30234 3.43825C5.73893 3.43825 6.0783 3.1021 6.0783 2.66967C6.0783 2.23723 5.73893 1.90108 5.30234 1.90108ZM33.7291 1.90108C33.2925 1.90108 32.9531 2.23723 32.9531 2.66967C32.9531 3.1021 33.2925 3.43825 33.7291 3.43825C34.1657 3.43825 34.5051 3.1021 34.5051 2.66967C34.5051 2.23723 34.1657 1.90108 33.7291 1.90108ZM44.9831 1.90108C44.5465 1.90108 44.2071 2.23723 44.2071 2.66967C44.2071 3.1021 44.5465 3.43825 44.9831 3.43825C45.4197 3.43825 45.76 3.1021 45.76 2.66967C45.8085 2.23723 45.4197 1.90108 44.9831 1.90108ZM49.0581 1.90108C48.6215 1.90108 48.2821 2.23723 48.2821 2.66967C48.2821 3.1021 48.6215 3.43825 49.0581 3.43825C49.4947 3.43825 49.8341 3.1021 49.8341 2.66967C49.8826 2.23723 49.4947 1.90108 49.0581 1.90108ZM53.1332 1.90108C52.6966 1.90108 52.3572 2.23723 52.3572 2.66967C52.3572 3.1021 52.6966 3.43825 53.1332 3.43825C53.5697 3.43825 53.9091 3.1021 53.9091 2.66967C53.9091 2.23723 53.5697 1.90108 53.1332 1.90108ZM66.2309 1.90108C65.7943 1.90108 65.4549 2.23723 65.4549 2.66967C65.4549 3.1021 65.7943 3.43825 66.2309 3.43825C66.6675 3.43825 67.0069 3.1021 67.0069 2.66967C67.0069 2.23723 66.6675 1.90108 66.2309 1.90108ZM70.2576 1.90108C69.821 1.90108 69.4807 2.23723 69.4807 2.66967C69.4807 3.1021 69.821 3.43825 70.2576 3.43825C70.6942 3.43825 71.0336 3.1021 71.0336 2.66967C71.0821 2.23723 70.6942 1.90108 70.2576 1.90108ZM74.3317 1.90108C73.8951 1.90108 73.5557 2.23723 73.5557 2.66967C73.5557 3.1021 73.8951 3.43825 74.3317 3.43825C74.7683 3.43825 75.1086 3.1021 75.1086 2.66967C75.1086 2.23723 74.7683 1.90108 74.3317 1.90108ZM78.4068 1.90108C77.9702 1.90108 77.6308 2.23723 77.6308 2.66967C77.6308 3.1021 77.9702 3.43825 78.4068 3.43825C78.8434 3.43825 79.1827 3.1021 79.1827 2.66967C79.1827 2.23723 78.8434 1.90108 78.4068 1.90108ZM1.22729 2.18919C0.936228 2.18919 0.742188 2.42943 0.742188 2.66967C0.742188 2.95796 0.984738 3.15015 1.22729 3.15015C1.51835 3.15015 1.71239 2.90991 1.71239 2.66967C1.7609 2.42943 1.51835 2.18919 1.22729 2.18919ZM17.4782 2.18919C17.1871 2.18919 16.9931 2.42943 16.9931 2.66967C16.9931 2.95796 17.2356 3.15015 17.4782 3.15015C17.7693 3.15015 17.9633 2.90991 17.9633 2.66967C17.9633 2.42943 17.7207 2.18919 17.4782 2.18919ZM21.5049 2.18919C21.2139 2.18919 21.0198 2.42943 21.0198 2.66967C21.0198 2.95796 21.2624 3.15015 21.5049 3.15015C21.796 3.15015 21.99 2.90991 21.99 2.66967C21.99 2.42943 21.796 2.18919 21.5049 2.18919ZM37.7558 2.18919C37.4648 2.18919 37.2707 2.42943 37.2707 2.66967C37.2707 2.95796 37.5133 3.15015 37.7558 3.15015C38.0469 3.15015 38.2409 2.90991 38.2409 2.66967C38.2409 2.42943 38.0469 2.18919 37.7558 2.18919ZM57.2082 2.18919C56.9171 2.18919 56.7231 2.42943 56.7231 2.66967C56.7231 2.95796 56.9656 3.15015 57.2082 3.15015C57.4993 3.15015 57.6933 2.90991 57.6933 2.66967C57.6933 2.42943 57.4508 2.18919 57.2082 2.18919ZM3.26434 3.05443C2.82775 3.05443 2.48836 3.39058 2.48836 3.82301C2.48836 4.25544 2.82775 4.59159 3.26434 4.59159C3.70093 4.59159 4.04126 4.25544 4.04126 3.82301C4.08977 3.39058 3.70093 3.05443 3.26434 3.05443ZM7.29106 3.05443C6.85447 3.05443 6.51509 3.39058 6.51509 3.82301C6.51509 4.25544 6.85447 4.59159 7.29106 4.59159C7.72765 4.59159 8.06703 4.25544 8.06703 3.82301C8.06703 3.39058 7.72765 3.05443 7.29106 3.05443ZM19.4669 3.05443C19.0303 3.05443 18.6909 3.39058 18.6909 3.82301C18.6909 4.25544 19.0303 4.59159 19.4669 4.59159C19.9035 4.59159 20.2429 4.25544 20.2429 3.82301C20.2914 3.39058 19.9035 3.05443 19.4669 3.05443ZM31.6921 3.05443C31.2555 3.05443 30.9151 3.39058 30.9151 3.82301C30.9151 4.25544 31.2555 4.59159 31.6921 4.59159C32.1286 4.59159 32.468 4.25544 32.468 3.82301C32.468 3.39058 32.1286 3.05443 31.6921 3.05443ZM35.7661 3.05443C35.3296 3.05443 34.9902 3.39058 34.9902 3.82301C34.9902 4.25544 35.3296 4.59159 35.7661 4.59159C36.2027 4.59159 36.5431 4.25544 36.5431 3.82301C36.5431 3.39058 36.2027 3.05443 35.7661 3.05443ZM42.9943 3.05443C42.5578 3.05443 42.2184 3.39058 42.2184 3.82301C42.2184 4.25544 42.5578 4.59159 42.9943 4.59159C43.4309 4.59159 43.7703 4.25544 43.7703 3.82301C43.7703 3.39058 43.4309 3.05443 42.9943 3.05443ZM47.0211 3.05443C46.5845 3.05443 46.2451 3.39058 46.2451 3.82301C46.2451 4.25544 46.5845 4.59159 47.0211 4.59159C47.4577 4.59159 47.797 4.25544 47.797 3.82301C47.8456 3.39058 47.4577 3.05443 47.0211 3.05443ZM51.0961 3.05443C50.6595 3.05443 50.3192 3.39058 50.3192 3.82301C50.3192 4.25544 50.6595 4.59159 51.0961 4.59159C51.5327 4.59159 51.8721 4.25544 51.8721 3.82301C51.8721 3.39058 51.5327 3.05443 51.0961 3.05443ZM55.1702 3.05443C54.7336 3.05443 54.3942 3.39058 54.3942 3.82301C54.3942 4.25544 54.7336 4.59159 55.1702 4.59159C55.6068 4.59159 55.9471 4.25544 55.9471 3.82301C55.9471 3.39058 55.6068 3.05443 55.1702 3.05443ZM68.268 3.05443C67.8314 3.05443 67.492 3.39058 67.492 3.82301C67.492 4.25544 67.8314 4.59159 68.268 4.59159C68.7045 4.59159 69.0449 4.25544 69.0449 3.82301C69.0449 3.39058 68.7045 3.05443 68.268 3.05443ZM72.2947 3.05443C71.8581 3.05443 71.5187 3.39058 71.5187 3.82301C71.5187 4.25544 71.8581 4.59159 72.2947 4.59159C72.7313 4.59159 73.0706 4.25544 73.0706 3.82301C73.1192 3.39058 72.7313 3.05443 72.2947 3.05443ZM76.3697 3.05443C75.9331 3.05443 75.5937 3.39058 75.5937 3.82301C75.5937 4.25544 75.9331 4.59159 76.3697 4.59159C76.8063 4.59159 77.1457 4.25544 77.1457 3.82301C77.1457 3.39058 76.8063 3.05443 76.3697 3.05443ZM80.4448 3.05443C80.0082 3.05443 79.6678 3.39058 79.6678 3.82301C79.6678 4.25544 80.0082 4.59159 80.4448 4.59159C80.8813 4.59159 81.2207 4.25544 81.2207 3.82301C81.2207 3.39058 80.8813 3.05443 80.4448 3.05443ZM17.4782 4.20683C17.0416 4.20683 16.7022 4.54392 16.7022 4.97635C16.7022 5.40879 17.0416 5.74494 17.4782 5.74494C17.9148 5.74494 18.2542 5.40879 18.2542 4.97635C18.2542 4.54392 17.9148 4.20683 17.4782 4.20683ZM21.5049 4.20683C21.0683 4.20683 20.728 4.54392 20.728 4.97635C20.728 5.40879 21.0683 5.74494 21.5049 5.74494C21.9415 5.74494 22.2809 5.40879 22.2809 4.97635C22.2809 4.54392 21.9415 4.20683 21.5049 4.20683ZM33.7291 4.20683C33.2925 4.20683 32.9531 4.54392 32.9531 4.97635C32.9531 5.40879 33.2925 5.74494 33.7291 5.74494C34.1657 5.74494 34.5051 5.40879 34.5051 4.97635C34.5051 4.54392 34.1657 4.20683 33.7291 4.20683ZM44.9831 4.20683C44.5465 4.20683 44.2071 4.54392 44.2071 4.97635C44.2071 5.40879 44.5465 5.74494 44.9831 5.74494C45.4197 5.74494 45.76 5.40879 45.76 4.97635C45.76 4.54392 45.4197 4.20683 44.9831 4.20683ZM49.0581 4.20683C48.6215 4.20683 48.2821 4.54392 48.2821 4.97635C48.2821 5.40879 48.6215 5.74494 49.0581 5.74494C49.4947 5.74494 49.8341 5.40879 49.8341 4.97635C49.8341 4.54392 49.4947 4.20683 49.0581 4.20683ZM53.1332 4.20683C52.6966 4.20683 52.3572 4.54392 52.3572 4.97635C52.3572 5.40879 52.6966 5.74494 53.1332 5.74494C53.5697 5.74494 53.9091 5.40879 53.9091 4.97635C53.9091 4.54392 53.5697 4.20683 53.1332 4.20683ZM57.2082 4.20683C56.7716 4.20683 56.4322 4.54392 56.4322 4.97635C56.4322 5.40879 56.7716 5.74494 57.2082 5.74494C57.6448 5.74494 57.9842 5.40879 57.9842 4.97635C57.9842 4.54392 57.6448 4.20683 57.2082 4.20683ZM66.2309 4.20683C65.7943 4.20683 65.4549 4.54392 65.4549 4.97635C65.4549 5.40879 65.7943 5.74494 66.2309 5.74494C66.6675 5.74494 67.0069 5.40879 67.0069 4.97635C67.0069 4.54392 66.6675 4.20683 66.2309 4.20683ZM70.2576 4.20683C69.821 4.20683 69.4807 4.54392 69.4807 4.97635C69.4807 5.40879 69.821 5.74494 70.2576 5.74494C70.6942 5.74494 71.0336 5.40879 71.0336 4.97635C71.0336 4.54392 70.6942 4.20683 70.2576 4.20683ZM74.3317 4.20683C73.8951 4.20683 73.5557 4.54392 73.5557 4.97635C73.5557 5.40879 73.8951 5.74494 74.3317 5.74494C74.7683 5.74494 75.1086 5.40879 75.1086 4.97635C75.1086 4.54392 74.7683 4.20683 74.3317 4.20683ZM78.4068 4.20683C77.9702 4.20683 77.6308 4.54392 77.6308 4.97635C77.6308 5.40879 77.9702 5.74494 78.4068 5.74494C78.8434 5.74494 79.1827 5.40879 79.1827 4.97635C79.1827 4.54392 78.8434 4.20683 78.4068 4.20683ZM5.30234 4.25563C4.86575 4.25563 4.52636 4.59178 4.52636 5.02421C4.52636 5.4086 4.86575 5.7928 5.30234 5.7928C5.73893 5.7928 6.0783 5.45665 6.0783 5.02421C6.0783 4.59178 5.73893 4.25563 5.30234 4.25563ZM9.32811 4.49587C9.03705 4.49587 8.84301 4.73611 8.84301 4.97635C8.84301 5.26464 9.08556 5.45684 9.32811 5.45684C9.61917 5.45684 9.81321 5.2166 9.81321 4.97635C9.81321 4.73611 9.61917 4.49587 9.32811 4.49587ZM29.6541 4.49587C29.363 4.49587 29.169 4.73611 29.169 4.97635C29.169 5.26464 29.4115 5.45684 29.6541 5.45684C29.8966 5.45684 30.1392 5.2166 30.1392 4.97635C30.1392 4.73611 29.8966 4.49587 29.6541 4.49587ZM82.4818 4.49587C82.1907 4.49587 81.9967 4.73611 81.9967 4.97635C81.9967 5.26464 82.2393 5.45684 82.4818 5.45684C82.7729 5.45684 82.9669 5.2166 82.9669 4.97635C82.9669 4.73611 82.7244 4.49587 82.4818 4.49587ZM3.26434 5.36018C2.82775 5.36018 2.48836 5.69633 2.48836 6.12876C2.48836 6.56119 2.82775 6.89828 3.26434 6.89828C3.70093 6.89828 4.04126 6.56119 4.04126 6.12876C4.04126 5.69633 3.70093 5.36018 3.26434 5.36018ZM7.29106 5.36018C6.85447 5.36018 6.51509 5.69633 6.51509 6.12876C6.51509 6.56119 6.85447 6.89828 7.29106 6.89828C7.72765 6.89828 8.06703 6.56119 8.06703 6.12876C8.06703 5.69633 7.72765 5.36018 7.29106 5.36018ZM19.4669 5.36018C19.0303 5.36018 18.6909 5.69633 18.6909 6.12876C18.6909 6.56119 19.0303 6.89828 19.4669 6.89828C19.9035 6.89828 20.2429 6.56119 20.2429 6.12876C20.2429 5.69633 19.9035 5.36018 19.4669 5.36018ZM31.6921 5.36018C31.2555 5.36018 30.9151 5.69633 30.9151 6.12876C30.9151 6.56119 31.2555 6.89828 31.6921 6.89828C32.1286 6.89828 32.468 6.56119 32.468 6.12876C32.468 5.69633 32.1286 5.36018 31.6921 5.36018ZM42.9943 5.36018C42.5578 5.36018 42.2184 5.69633 42.2184 6.12876C42.2184 6.56119 42.5578 6.89828 42.9943 6.89828C43.4309 6.89828 43.7703 6.56119 43.7703 6.12876C43.7703 5.69633 43.4309 5.36018 42.9943 5.36018ZM47.0211 5.36018C46.5845 5.36018 46.2451 5.69633 46.2451 6.12876C46.2451 6.56119 46.5845 6.89828 47.0211 6.89828C47.4577 6.89828 47.797 6.56119 47.797 6.12876C47.797 5.69633 47.4577 5.36018 47.0211 5.36018ZM51.0961 5.36018C50.6595 5.36018 50.3192 5.69633 50.3192 6.12876C50.3192 6.56119 50.6595 6.89828 51.0961 6.89828C51.5327 6.89828 51.8721 6.56119 51.8721 6.12876C51.8721 5.69633 51.5327 5.36018 51.0961 5.36018ZM55.1702 5.36018C54.7336 5.36018 54.3942 5.69633 54.3942 6.12876C54.3942 6.56119 54.7336 6.89828 55.1702 6.89828C55.6068 6.89828 55.9471 6.56119 55.9471 6.12876C55.9471 5.69633 55.6068 5.36018 55.1702 5.36018ZM59.2452 5.36018C58.8087 5.36018 58.4693 5.69633 58.4693 6.12876C58.4693 6.56119 58.8087 6.89828 59.2452 6.89828C59.6818 6.89828 60.0212 6.56119 60.0212 6.12876C60.0212 5.69633 59.6818 5.36018 59.2452 5.36018ZM68.268 5.36018C67.8314 5.36018 67.492 5.69633 67.492 6.12876C67.492 6.56119 67.8314 6.89828 68.268 6.89828C68.7045 6.89828 69.0449 6.56119 69.0449 6.12876C69.0449 5.69633 68.7045 5.36018 68.268 5.36018ZM72.2947 5.36018C71.8581 5.36018 71.5187 5.69633 71.5187 6.12876C71.5187 6.56119 71.8581 6.89828 72.2947 6.89828C72.7313 6.89828 73.0706 6.56119 73.0706 6.12876C73.0706 5.69633 72.7313 5.36018 72.2947 5.36018ZM76.3697 5.36018C75.9331 5.36018 75.5937 5.69633 75.5937 6.12876C75.5937 6.56119 75.9331 6.89828 76.3697 6.89828C76.8063 6.89828 77.1457 6.56119 77.1457 6.12876C77.1457 5.69633 76.8063 5.36018 76.3697 5.36018ZM80.4448 5.36018C80.0082 5.36018 79.6678 5.69633 79.6678 6.12876C79.6678 6.56119 80.0082 6.89828 80.4448 6.89828C80.8813 6.89828 81.2207 6.56119 81.2207 6.12876C81.2207 5.69633 80.8813 5.36018 80.4448 5.36018ZM35.7661 5.40803C35.3296 5.40803 34.9902 5.74512 34.9902 6.17755C34.9902 6.60999 35.3296 6.94614 35.7661 6.94614C36.2027 6.94614 36.5431 6.60999 36.5431 6.17755C36.5431 5.74512 36.2027 5.40803 35.7661 5.40803ZM5.30234 6.56138C4.86575 6.56138 4.52636 6.89753 4.52636 7.32996C4.52636 7.76239 4.86575 8.09948 5.30234 8.09948C5.73893 8.09948 6.0783 7.76239 6.0783 7.32996C6.0783 6.89753 5.73893 6.56138 5.30234 6.56138ZM9.32811 6.56138C8.89152 6.56138 8.55213 6.89753 8.55213 7.32996C8.55213 7.76239 8.89152 8.09948 9.32811 8.09948C9.7647 8.09948 10.105 7.76239 10.105 7.32996C10.105 6.89753 9.7647 6.56138 9.32811 6.56138ZM17.4782 6.56138C17.0416 6.56138 16.7022 6.89753 16.7022 7.32996C16.7022 7.76239 17.0416 8.09948 17.4782 8.09948C17.9148 8.09948 18.2542 7.76239 18.2542 7.32996C18.2542 6.89753 17.9148 6.56138 17.4782 6.56138ZM21.5049 6.56138C21.0683 6.56138 20.728 6.89753 20.728 7.32996C20.728 7.76239 21.0683 8.09948 21.5049 8.09948C21.9415 8.09948 22.2809 7.76239 22.2809 7.32996C22.3294 6.89753 21.9415 6.56138 21.5049 6.56138ZM29.6541 6.56138C29.2175 6.56138 28.8781 6.89753 28.8781 7.32996C28.8781 7.76239 29.2175 8.09948 29.6541 8.09948C30.0906 8.09948 30.43 7.76239 30.43 7.32996C30.43 6.89753 30.0906 6.56138 29.6541 6.56138ZM33.7291 6.56138C33.2925 6.56138 32.9531 6.89753 32.9531 7.32996C32.9531 7.76239 33.2925 8.09948 33.7291 8.09948C34.1657 8.09948 34.5051 7.76239 34.5051 7.32996C34.5051 6.89753 34.1657 6.56138 33.7291 6.56138ZM44.9831 6.56138C44.5465 6.56138 44.2071 6.89753 44.2071 7.32996C44.2071 7.76239 44.5465 8.09948 44.9831 8.09948C45.4197 8.09948 45.76 7.76239 45.76 7.32996C45.8085 6.89753 45.4197 6.56138 44.9831 6.56138ZM57.2082 6.56138C56.7716 6.56138 56.4322 6.89753 56.4322 7.32996C56.4322 7.76239 56.7716 8.09948 57.2082 8.09948C57.6448 8.09948 57.9842 7.76239 57.9842 7.32996C57.9842 6.89753 57.6448 6.56138 57.2082 6.56138ZM66.2309 6.56138C65.7943 6.56138 65.4549 6.89753 65.4549 7.32996C65.4549 7.76239 65.7943 8.09948 66.2309 8.09948C66.6675 8.09948 67.0069 7.76239 67.0069 7.32996C67.0069 6.89753 66.6675 6.56138 66.2309 6.56138ZM70.2576 6.56138C69.821 6.56138 69.4807 6.89753 69.4807 7.32996C69.4807 7.76239 69.821 8.09948 70.2576 8.09948C70.6942 8.09948 71.0336 7.76239 71.0336 7.32996C71.0821 6.89753 70.6942 6.56138 70.2576 6.56138ZM78.4068 6.56138C77.9702 6.56138 77.6308 6.89753 77.6308 7.32996C77.6308 7.76239 77.9702 8.09948 78.4068 8.09948C78.8434 8.09948 79.1827 7.76239 79.1827 7.32996C79.1827 6.89753 78.8434 6.56138 78.4068 6.56138ZM82.4818 6.56138C82.0452 6.56138 81.7058 6.89753 81.7058 7.32996C81.6573 7.76239 82.0452 8.09948 82.4818 8.09948C82.9184 8.09948 83.2578 7.76239 83.2578 7.32996C83.2578 6.89753 82.9184 6.56138 82.4818 6.56138ZM49.0581 6.84948C48.7671 6.84948 48.573 7.08972 48.573 7.32996C48.573 7.61825 48.8156 7.81044 49.0581 7.81044C49.3492 7.81044 49.5432 7.5702 49.5432 7.32996C49.5432 7.04167 49.3492 6.84948 49.0581 6.84948ZM53.1332 6.84948C52.8421 6.84948 52.6481 7.08972 52.6481 7.32996C52.6481 7.61825 52.8906 7.81044 53.1332 7.81044C53.4242 7.81044 53.6183 7.5702 53.6183 7.32996C53.6183 7.04167 53.4242 6.84948 53.1332 6.84948ZM74.3317 6.84948C74.0407 6.84948 73.8466 7.08972 73.8466 7.32996C73.8466 7.61825 74.0892 7.81044 74.3317 7.81044C74.6228 7.81044 74.8168 7.5702 74.8168 7.32996C74.8168 7.04167 74.6228 6.84948 74.3317 6.84948ZM7.29106 7.71472C6.85447 7.71472 6.51509 8.05087 6.51509 8.48331C6.51509 8.91574 6.85447 9.25189 7.29106 9.25189C7.72765 9.25189 8.06703 8.91574 8.06703 8.48331C8.06703 8.05087 7.72765 7.71472 7.29106 7.71472ZM19.4669 7.71472C19.0303 7.71472 18.6909 8.05087 18.6909 8.48331C18.6909 8.91574 19.0303 9.25189 19.4669 9.25189C19.9035 9.25189 20.2429 8.91574 20.2429 8.48331C20.2914 8.05087 19.9035 7.71472 19.4669 7.71472ZM31.6921 7.71472C31.2555 7.71472 30.9151 8.05087 30.9151 8.48331C30.9151 8.91574 31.2555 9.25189 31.6921 9.25189C32.1286 9.25189 32.468 8.91574 32.468 8.48331C32.468 8.05087 32.1286 7.71472 31.6921 7.71472ZM42.9943 7.71472C42.5578 7.71472 42.2184 8.05087 42.2184 8.48331C42.2184 8.91574 42.5578 9.25189 42.9943 9.25189C43.4309 9.25189 43.7703 8.91574 43.7703 8.48331C43.7703 8.05087 43.4309 7.71472 42.9943 7.71472ZM47.0211 7.71472C46.5845 7.71472 46.2451 8.05087 46.2451 8.48331C46.2451 8.91574 46.5845 9.25189 47.0211 9.25189C47.4577 9.25189 47.797 8.91574 47.797 8.48331C47.8456 8.05087 47.4577 7.71472 47.0211 7.71472ZM55.1702 7.71472C54.7336 7.71472 54.3942 8.05087 54.3942 8.48331C54.3942 8.91574 54.7336 9.25189 55.1702 9.25189C55.6068 9.25189 55.9471 8.91574 55.9471 8.48331C55.9471 8.05087 55.6068 7.71472 55.1702 7.71472ZM59.2452 7.71472C58.8087 7.71472 58.4693 8.05087 58.4693 8.48331C58.4693 8.91574 58.8087 9.25189 59.2452 9.25189C59.6818 9.25189 60.0212 8.91574 60.0212 8.48331C60.0212 8.05087 59.6818 7.71472 59.2452 7.71472ZM68.268 7.71472C67.8314 7.71472 67.492 8.05087 67.492 8.48331C67.492 8.91574 67.8314 9.25189 68.268 9.25189C68.7045 9.25189 69.0449 8.91574 69.0449 8.48331C69.0449 8.05087 68.7045 7.71472 68.268 7.71472ZM80.4448 7.71472C80.0082 7.71472 79.6678 8.05087 79.6678 8.48331C79.6678 8.91574 80.0082 9.25189 80.4448 9.25189C80.8813 9.25189 81.2207 8.91574 81.2207 8.48331C81.2207 8.05087 80.8813 7.71472 80.4448 7.71472ZM11.3661 8.00283C11.075 8.00283 10.881 8.24307 10.881 8.48331C10.881 8.7716 11.1236 8.96379 11.3661 8.96379C11.6572 8.96379 11.8512 8.72355 11.8512 8.48331C11.8512 8.19502 11.6087 8.00283 11.3661 8.00283ZM15.4411 8.00283C15.1501 8.00283 14.956 8.24307 14.956 8.48331C14.956 8.7716 15.1986 8.96379 15.4411 8.96379C15.7322 8.96379 15.9263 8.72355 15.9263 8.48331C15.9263 8.19502 15.6837 8.00283 15.4411 8.00283ZM23.542 8.00283C23.2509 8.00283 23.0569 8.24307 23.0569 8.48331C23.0569 8.7716 23.2994 8.96379 23.542 8.96379C23.833 8.96379 24.0271 8.72355 24.0271 8.48331C24.0271 8.19502 23.833 8.00283 23.542 8.00283ZM27.617 8.00283C27.3259 8.00283 27.1319 8.24307 27.1319 8.48331C27.1319 8.7716 27.3745 8.96379 27.617 8.96379C27.9081 8.96379 28.1021 8.72355 28.1021 8.48331C28.1021 8.19502 27.9081 8.00283 27.617 8.00283ZM9.32811 8.86807C8.89152 8.86807 8.55213 9.20422 8.55213 9.63665C8.55213 10.0691 8.89152 10.4052 9.32811 10.4052C9.7647 10.4052 10.105 10.0691 10.105 9.63665C10.105 9.20422 9.7647 8.86807 9.32811 8.86807ZM17.4782 8.86807C17.0416 8.86807 16.7022 9.20422 16.7022 9.63665C16.7022 10.0691 17.0416 10.4052 17.4782 10.4052C17.9148 10.4052 18.2542 10.0691 18.2542 9.63665C18.2542 9.20422 17.9148 8.86807 17.4782 8.86807ZM21.5049 8.86807C21.0683 8.86807 20.728 9.20422 20.728 9.63665C20.728 10.0691 21.0683 10.4052 21.5049 10.4052C21.9415 10.4052 22.2809 10.0691 22.2809 9.63665C22.3294 9.20422 21.9415 8.86807 21.5049 8.86807ZM29.6541 8.86807C29.2175 8.86807 28.8781 9.20422 28.8781 9.63665C28.8781 10.0691 29.2175 10.4052 29.6541 10.4052C30.0906 10.4052 30.43 10.0691 30.43 9.63665C30.43 9.20422 30.0906 8.86807 29.6541 8.86807ZM44.9831 8.86807C44.5465 8.86807 44.2071 9.20422 44.2071 9.63665C44.2071 10.0691 44.5465 10.4052 44.9831 10.4052C45.4197 10.4052 45.76 10.0691 45.76 9.63665C45.8085 9.20422 45.4197 8.86807 44.9831 8.86807ZM57.2082 8.86807C56.7716 8.86807 56.4322 9.20422 56.4322 9.63665C56.4322 10.0691 56.7716 10.4052 57.2082 10.4052C57.6448 10.4052 57.9842 10.0691 57.9842 9.63665C57.9842 9.20422 57.6448 8.86807 57.2082 8.86807ZM66.2309 8.86807C65.7943 8.86807 65.4549 9.20422 65.4549 9.63665C65.4549 10.0691 65.7943 10.4052 66.2309 10.4052C66.6675 10.4052 67.0069 10.0691 67.0069 9.63665C67.0069 9.20422 66.6675 8.86807 66.2309 8.86807ZM70.2576 8.86807C69.821 8.86807 69.4807 9.20422 69.4807 9.63665C69.4807 10.0691 69.821 10.4052 70.2576 10.4052C70.6942 10.4052 71.0336 10.0691 71.0336 9.63665C71.0821 9.20422 70.6942 8.86807 70.2576 8.86807ZM78.4068 8.86807C77.9702 8.86807 77.6308 9.20422 77.6308 9.63665C77.6308 10.0691 77.9702 10.4052 78.4068 10.4052C78.8434 10.4052 79.1827 10.0691 79.1827 9.63665C79.1827 9.20422 78.8434 8.86807 78.4068 8.86807ZM82.4818 8.86807C82.0452 8.86807 81.7058 9.20422 81.7058 9.63665C81.7058 10.0691 82.0452 10.4052 82.4818 10.4052C82.9184 10.4052 83.2578 10.0691 83.2578 9.63665C83.2578 9.20422 82.9184 8.86807 82.4818 8.86807ZM5.30234 8.91592C4.86575 8.91592 4.52636 9.25207 4.52636 9.68451C4.52636 10.0689 4.86575 10.4531 5.30234 10.4531C5.73893 10.4531 6.0783 10.1169 6.0783 9.68451C6.0783 9.25207 5.73893 8.91592 5.30234 8.91592ZM33.7291 8.91592C33.2925 8.91592 32.9531 9.25207 32.9531 9.68451C32.9046 10.0689 33.2925 10.4531 33.7291 10.4531C34.1657 10.4531 34.5051 10.1169 34.5051 9.68451C34.5051 9.25207 34.1657 8.91592 33.7291 8.91592ZM7.29106 10.0214C6.85447 10.0214 6.51509 10.3576 6.51509 10.79C6.51509 11.2224 6.85447 11.5586 7.29106 11.5586C7.72765 11.5586 8.06703 11.2224 8.06703 10.79C8.06703 10.3576 7.72765 10.0214 7.29106 10.0214ZM15.4411 10.0214C15.0046 10.0214 14.6642 10.3576 14.6642 10.79C14.6642 11.2224 15.0046 11.5586 15.4411 11.5586C15.8777 11.5586 16.2171 11.2224 16.2171 10.79C16.2171 10.3576 15.8777 10.0214 15.4411 10.0214ZM19.4669 10.0214C19.0303 10.0214 18.6909 10.3576 18.6909 10.79C18.6909 11.2224 19.0303 11.5586 19.4669 11.5586C19.9035 11.5586 20.2429 11.2224 20.2429 10.79C20.2914 10.3576 19.9035 10.0214 19.4669 10.0214ZM23.542 10.0214C23.1054 10.0214 22.766 10.3576 22.766 10.79C22.766 11.2224 23.1054 11.5586 23.542 11.5586C23.9786 11.5586 24.3179 11.2224 24.3179 10.79C24.3664 10.3576 23.9786 10.0214 23.542 10.0214ZM31.6921 10.0214C31.2555 10.0214 30.9151 10.3576 30.9151 10.79C30.9151 11.2224 31.2555 11.5586 31.6921 11.5586C32.1286 11.5586 32.468 11.2224 32.468 10.79C32.468 10.3576 32.1286 10.0214 31.6921 10.0214ZM42.9943 10.0214C42.5578 10.0214 42.2184 10.3576 42.2184 10.79C42.2184 11.2224 42.5578 11.5586 42.9943 11.5586C43.4309 11.5586 43.7703 11.2224 43.7703 10.79C43.7703 10.3576 43.4309 10.0214 42.9943 10.0214ZM47.0211 10.0214C46.5845 10.0214 46.2451 10.3576 46.2451 10.79C46.2451 11.2224 46.5845 11.5586 47.0211 11.5586C47.4577 11.5586 47.797 11.2224 47.797 10.79C47.8456 10.3576 47.4577 10.0214 47.0211 10.0214ZM55.1702 10.0214C54.7336 10.0214 54.3942 10.3576 54.3942 10.79C54.3942 11.2224 54.7336 11.5586 55.1702 11.5586C55.6068 11.5586 55.9471 11.2224 55.9471 10.79C55.9471 10.3576 55.6068 10.0214 55.1702 10.0214ZM59.2452 10.0214C58.8087 10.0214 58.4693 10.3576 58.4693 10.79C58.4693 11.2224 58.8087 11.5586 59.2452 11.5586C59.6818 11.5586 60.0212 11.2224 60.0212 10.79C60.0212 10.3576 59.6818 10.0214 59.2452 10.0214ZM68.268 10.0214C67.8314 10.0214 67.492 10.3576 67.492 10.79C67.492 11.2224 67.8314 11.5586 68.268 11.5586C68.7045 11.5586 69.0449 11.2224 69.0449 10.79C69.0449 10.3576 68.7045 10.0214 68.268 10.0214ZM80.4448 10.0214C80.0082 10.0214 79.6678 10.3576 79.6678 10.79C79.6678 11.2224 80.0082 11.5586 80.4448 11.5586C80.8813 11.5586 81.2207 11.2224 81.2207 10.79C81.2207 10.3576 80.8813 10.0214 80.4448 10.0214ZM11.3661 10.3095C11.075 10.3095 10.881 10.5497 10.881 10.79C10.881 11.0783 11.1236 11.2705 11.3661 11.2705C11.6572 11.2705 11.8512 11.0302 11.8512 10.79C11.8512 10.5497 11.6087 10.3095 11.3661 10.3095ZM27.617 10.3095C27.3259 10.3095 27.1319 10.5497 27.1319 10.79C27.1319 11.0783 27.3745 11.2705 27.617 11.2705C27.9081 11.2705 28.1021 11.0302 28.1021 10.79C28.1021 10.5497 27.9081 10.3095 27.617 10.3095ZM9.32811 11.1738C8.89152 11.1738 8.55213 11.5109 8.55213 11.9433C8.55213 12.3758 8.89152 12.7119 9.32811 12.7119C9.7647 12.7119 10.105 12.3758 10.105 11.9433C10.105 11.5589 9.7647 11.1738 9.32811 11.1738ZM17.4782 11.1738C17.0416 11.1738 16.7022 11.5109 16.7022 11.9433C16.7022 12.3758 17.0416 12.7119 17.4782 12.7119C17.9148 12.7119 18.2542 12.3758 18.2542 11.9433C18.2542 11.5589 17.9148 11.1738 17.4782 11.1738ZM21.5049 11.1738C21.0683 11.1738 20.728 11.5109 20.728 11.9433C20.728 12.3758 21.0683 12.7119 21.5049 12.7119C21.9415 12.7119 22.2809 12.3758 22.2809 11.9433C22.3294 11.5589 21.9415 11.1738 21.5049 11.1738ZM29.6541 11.1738C29.2175 11.1738 28.8781 11.5109 28.8781 11.9433C28.8781 12.3758 29.2175 12.7119 29.6541 12.7119C30.0906 12.7119 30.43 12.3758 30.43 11.9433C30.43 11.5589 30.0906 11.1738 29.6541 11.1738ZM44.9831 11.1738C44.5465 11.1738 44.2071 11.5109 44.2071 11.9433C44.2071 12.3758 44.5465 12.7119 44.9831 12.7119C45.4197 12.7119 45.76 12.3758 45.76 11.9433C45.8085 11.5589 45.4197 11.1738 44.9831 11.1738ZM57.2082 11.1738C56.7716 11.1738 56.4322 11.5109 56.4322 11.9433C56.4322 12.3758 56.7716 12.7119 57.2082 12.7119C57.6448 12.7119 57.9842 12.3758 57.9842 11.9433C57.9842 11.5589 57.6448 11.1738 57.2082 11.1738ZM66.2309 11.1738C65.7943 11.1738 65.4549 11.5109 65.4549 11.9433C65.4549 12.3758 65.7943 12.7119 66.2309 12.7119C66.6675 12.7119 67.0069 12.3758 67.0069 11.9433C67.0069 11.5589 66.6675 11.1738 66.2309 11.1738ZM70.2576 11.1738C69.821 11.1738 69.4807 11.5109 69.4807 11.9433C69.4807 12.3758 69.821 12.7119 70.2576 12.7119C70.6942 12.7119 71.0336 12.3758 71.0336 11.9433C71.0821 11.5589 70.6942 11.1738 70.2576 11.1738ZM78.4068 11.1738C77.9702 11.1738 77.6308 11.5109 77.6308 11.9433C77.6308 12.3758 77.9702 12.7119 78.4068 12.7119C78.8434 12.7119 79.1827 12.3758 79.1827 11.9433C79.1827 11.5589 78.8434 11.1738 78.4068 11.1738ZM82.4818 11.1738C82.0452 11.1738 81.7058 11.5109 81.7058 11.9433C81.7058 12.3758 82.0452 12.7119 82.4818 12.7119C82.9184 12.7119 83.2578 12.3758 83.2578 11.9433C83.2578 11.5589 82.9184 11.1738 82.4818 11.1738ZM13.4031 11.4629C13.1121 11.4629 12.918 11.7031 12.918 11.9433C12.918 12.2316 13.1606 12.4238 13.4031 12.4238C13.6942 12.4238 13.8883 12.1836 13.8883 11.9433C13.8883 11.7031 13.6457 11.4629 13.4031 11.4629ZM25.579 11.4629C25.2879 11.4629 25.0939 11.7031 25.0939 11.9433C25.0939 12.2316 25.3365 12.4238 25.579 12.4238C25.8701 12.4238 26.0641 12.1836 26.0641 11.9433C26.0641 11.7031 25.8701 11.4629 25.579 11.4629ZM74.3317 11.4629C74.0407 11.4629 73.8466 11.7031 73.8466 11.9433C73.8466 12.2316 74.0892 12.4238 74.3317 12.4238C74.6228 12.4238 74.8168 12.1836 74.8168 11.9433C74.8168 11.7031 74.6228 11.4629 74.3317 11.4629ZM49.0581 11.5107C48.7671 11.5107 48.573 11.7509 48.573 11.9912C48.573 12.2314 48.8156 12.4717 49.0581 12.4717C49.3492 12.4717 49.5432 12.2314 49.5432 11.9912C49.5432 11.7029 49.3007 11.5107 49.0581 11.5107ZM53.1332 11.5107C52.8421 11.5107 52.6481 11.7509 52.6481 11.9912C52.6481 12.2314 52.8421 12.4717 53.1332 12.4717C53.4242 12.4717 53.6183 12.2314 53.6183 11.9912C53.6183 11.7029 53.3757 11.5107 53.1332 11.5107ZM7.29106 12.3272C6.85447 12.3272 6.51509 12.6633 6.51509 13.0957C6.51509 13.5282 6.85447 13.8653 7.29106 13.8653C7.72765 13.8653 8.06703 13.5282 8.06703 13.0957C8.06703 12.6633 7.72765 12.3272 7.29106 12.3272ZM11.3661 12.3272C10.9295 12.3272 10.5901 12.6633 10.5901 13.0957C10.5901 13.5282 10.9295 13.8653 11.3661 13.8653C11.8027 13.8653 12.1421 13.5282 12.1421 13.0957C12.1421 12.6633 11.8027 12.3272 11.3661 12.3272ZM15.4411 12.3272C15.0046 12.3272 14.6642 12.6633 14.6642 13.0957C14.6642 13.5282 15.0046 13.8653 15.4411 13.8653C15.8777 13.8653 16.2171 13.5282 16.2171 13.0957C16.2171 12.6633 15.8777 12.3272 15.4411 12.3272ZM23.542 12.3272C23.1054 12.3272 22.766 12.6633 22.766 13.0957C22.766 13.5282 23.1054 13.8653 23.542 13.8653C23.9786 13.8653 24.3179 13.5282 24.3179 13.0957C24.3179 12.6633 23.9786 12.3272 23.542 12.3272ZM27.617 12.3272C27.1804 12.3272 26.841 12.6633 26.841 13.0957C26.841 13.5282 27.1804 13.8653 27.617 13.8653C28.0536 13.8653 28.393 13.5282 28.393 13.0957C28.393 12.6633 28.0536 12.3272 27.617 12.3272ZM31.6921 12.3272C31.2555 12.3272 30.9151 12.6633 30.9151 13.0957C30.9151 13.5282 31.2555 13.8653 31.6921 13.8653C32.1286 13.8653 32.468 13.5282 32.468 13.0957C32.468 12.6633 32.1286 12.3272 31.6921 12.3272ZM42.9943 12.3272C42.5578 12.3272 42.2184 12.6633 42.2184 13.0957C42.2184 13.5282 42.5578 13.8653 42.9943 13.8653C43.4309 13.8653 43.7703 13.5282 43.7703 13.0957C43.7703 12.7113 43.4309 12.3272 42.9943 12.3272ZM47.0211 12.3272C46.5845 12.3272 46.2451 12.6633 46.2451 13.0957C46.2451 13.5282 46.5845 13.8653 47.0211 13.8653C47.4577 13.8653 47.797 13.5282 47.797 13.0957C47.8456 12.7113 47.4577 12.3272 47.0211 12.3272ZM51.0961 12.3272C50.6595 12.3272 50.3192 12.6633 50.3192 13.0957C50.3192 13.5282 50.6595 13.8653 51.0961 13.8653C51.5327 13.8653 51.8721 13.5282 51.8721 13.0957C51.8721 12.7113 51.5327 12.3272 51.0961 12.3272ZM55.1702 12.3272C54.7336 12.3272 54.3942 12.6633 54.3942 13.0957C54.3942 13.5282 54.7336 13.8653 55.1702 13.8653C55.6068 13.8653 55.9471 13.5282 55.9471 13.0957C55.9471 12.7113 55.6068 12.3272 55.1702 12.3272ZM68.268 12.3272C67.8314 12.3272 67.492 12.6633 67.492 13.0957C67.492 13.5282 67.8314 13.8653 68.268 13.8653C68.7045 13.8653 69.0449 13.5282 69.0449 13.0957C69.0449 12.7113 68.7045 12.3272 68.268 12.3272ZM72.2947 12.3272C71.8581 12.3272 71.5187 12.6633 71.5187 13.0957C71.5187 13.5282 71.8581 13.8653 72.2947 13.8653C72.7313 13.8653 73.0706 13.5282 73.0706 13.0957C73.1192 12.7113 72.7313 12.3272 72.2947 12.3272ZM76.3697 12.3272C75.9331 12.3272 75.5937 12.6633 75.5937 13.0957C75.5937 13.5282 75.9331 13.8653 76.3697 13.8653C76.8063 13.8653 77.1457 13.5282 77.1457 13.0957C77.1457 12.7113 76.8063 12.3272 76.3697 12.3272ZM80.4448 12.3272C80.0082 12.3272 79.6678 12.6633 79.6678 13.0957C79.6678 13.5282 80.0082 13.8653 80.4448 13.8653C80.8813 13.8653 81.2207 13.5282 81.2207 13.0957C81.2207 12.7113 80.8813 12.3272 80.4448 12.3272ZM19.4669 12.375C19.0303 12.375 18.6909 12.7121 18.6909 13.1445C18.6909 13.577 19.0303 13.9131 19.4669 13.9131C19.9035 13.9131 20.2429 13.577 20.2429 13.1445C20.2429 12.7121 19.9035 12.375 19.4669 12.375ZM59.2452 12.664C59.0027 12.664 58.7601 12.9043 58.7601 13.1445C58.7601 13.3848 58.9542 13.625 59.2452 13.625C59.5363 13.625 59.7304 13.3848 59.7304 13.1445C59.7304 12.8562 59.4878 12.664 59.2452 12.664ZM9.32811 13.5283C8.89152 13.5283 8.55213 13.8645 8.55213 14.2969C8.55213 14.7294 8.89152 15.0665 9.32811 15.0665C9.7647 15.0665 10.105 14.7294 10.105 14.2969C10.105 13.8645 9.7647 13.5283 9.32811 13.5283ZM13.4031 13.5283C12.9666 13.5283 12.6272 13.8645 12.6272 14.2969C12.6272 14.7294 12.9666 15.0665 13.4031 15.0665C13.8397 15.0665 14.1791 14.7294 14.1791 14.2969C14.1791 13.8645 13.8397 13.5283 13.4031 13.5283ZM17.4782 13.5283C17.0416 13.5283 16.7022 13.8645 16.7022 14.2969C16.7022 14.7294 17.0416 15.0665 17.4782 15.0665C17.9148 15.0665 18.2542 14.7294 18.2542 14.2969C18.2542 13.8645 17.9148 13.5283 17.4782 13.5283ZM21.5049 13.5283C21.0683 13.5283 20.728 13.8645 20.728 14.2969C20.728 14.7294 21.0683 15.0665 21.5049 15.0665C21.9415 15.0665 22.2809 14.7294 22.2809 14.2969C22.3294 13.8645 21.9415 13.5283 21.5049 13.5283ZM25.579 13.5283C25.1424 13.5283 24.803 13.8645 24.803 14.2969C24.803 14.7294 25.1424 15.0665 25.579 15.0665C26.0156 15.0665 26.3559 14.7294 26.3559 14.2969C26.3559 13.8645 26.0156 13.5283 25.579 13.5283ZM29.6541 13.5283C29.2175 13.5283 28.8781 13.8645 28.8781 14.2969C28.8781 14.7294 29.2175 15.0665 29.6541 15.0665C30.0906 15.0665 30.43 14.7294 30.43 14.2969C30.43 13.8645 30.0906 13.5283 29.6541 13.5283ZM44.9831 13.5283C44.5465 13.5283 44.2071 13.8645 44.2071 14.2969C44.2071 14.7294 44.5465 15.0665 44.9831 15.0665C45.4197 15.0665 45.76 14.7294 45.76 14.2969C45.8085 13.8645 45.4197 13.5283 44.9831 13.5283ZM49.0581 13.5283C48.6215 13.5283 48.2821 13.8645 48.2821 14.2969C48.2821 14.7294 48.6215 15.0665 49.0581 15.0665C49.4947 15.0665 49.8341 14.7294 49.8341 14.2969C49.8826 13.8645 49.4947 13.5283 49.0581 13.5283ZM53.1332 13.5283C52.6966 13.5283 52.3572 13.8645 52.3572 14.2969C52.3572 14.7294 52.6966 15.0665 53.1332 15.0665C53.5697 15.0665 53.9091 14.7294 53.9091 14.2969C53.9091 13.8645 53.5697 13.5283 53.1332 13.5283ZM57.2082 13.5283C56.7716 13.5283 56.4322 13.8645 56.4322 14.2969C56.3837 14.7294 56.7716 15.0665 57.2082 15.0665C57.6448 15.0665 57.9842 14.7294 57.9842 14.2969C57.9842 13.8645 57.6448 13.5283 57.2082 13.5283ZM66.2309 13.5283C65.7943 13.5283 65.4549 13.8645 65.4549 14.2969C65.4549 14.7294 65.7943 15.0665 66.2309 15.0665C66.6675 15.0665 67.0069 14.7294 67.0069 14.2969C67.0069 13.8645 66.6675 13.5283 66.2309 13.5283ZM70.2576 13.5283C69.821 13.5283 69.4807 13.8645 69.4807 14.2969C69.4807 14.7294 69.821 15.0665 70.2576 15.0665C70.6942 15.0665 71.0336 14.7294 71.0336 14.2969C71.0821 13.8645 70.6942 13.5283 70.2576 13.5283ZM74.3317 13.5283C73.8951 13.5283 73.5557 13.8645 73.5557 14.2969C73.5557 14.7294 73.8951 15.0665 74.3317 15.0665C74.7683 15.0665 75.1086 14.7294 75.1086 14.2969C75.1086 13.8645 74.7683 13.5283 74.3317 13.5283ZM78.4068 13.5283C77.9702 13.5283 77.6308 13.8645 77.6308 14.2969C77.6308 14.7294 77.9702 15.0665 78.4068 15.0665C78.8434 15.0665 79.1827 14.7294 79.1827 14.2969C79.1827 13.8645 78.8434 13.5283 78.4068 13.5283ZM11.3661 14.6817C10.9295 14.6817 10.5901 15.0179 10.5901 15.4503C10.5901 15.8827 10.9295 16.2189 11.3661 16.2189C11.8027 16.2189 12.1421 15.8827 12.1421 15.4503C12.1421 15.0179 11.8027 14.6817 11.3661 14.6817ZM15.4411 14.6817C15.0046 14.6817 14.6642 15.0179 14.6642 15.4503C14.6642 15.8827 15.0046 16.2189 15.4411 16.2189C15.8777 16.2189 16.2171 15.8827 16.2171 15.4503C16.2171 15.0179 15.8777 14.6817 15.4411 14.6817ZM23.542 14.6817C23.1054 14.6817 22.766 15.0179 22.766 15.4503C22.766 15.8827 23.1054 16.2189 23.542 16.2189C23.9786 16.2189 24.3179 15.8827 24.3179 15.4503C24.3664 15.0179 23.9786 14.6817 23.542 14.6817ZM27.617 14.6817C27.1804 14.6817 26.841 15.0179 26.841 15.4503C26.841 15.8827 27.1804 16.2189 27.617 16.2189C28.0536 16.2189 28.393 15.8827 28.393 15.4503C28.393 15.0179 28.0536 14.6817 27.617 14.6817ZM42.9943 14.6817C42.5578 14.6817 42.2184 15.0179 42.2184 15.4503C42.2184 15.8827 42.5578 16.2189 42.9943 16.2189C43.4309 16.2189 43.7703 15.8827 43.7703 15.4503C43.7703 15.0179 43.4309 14.6817 42.9943 14.6817ZM47.0211 14.6817C46.5845 14.6817 46.2451 15.0179 46.2451 15.4503C46.2451 15.8827 46.5845 16.2189 47.0211 16.2189C47.4577 16.2189 47.797 15.8827 47.797 15.4503C47.8456 15.0179 47.4577 14.6817 47.0211 14.6817ZM51.0961 14.6817C50.6595 14.6817 50.3192 15.0179 50.3192 15.4503C50.3192 15.8827 50.6595 16.2189 51.0961 16.2189C51.5327 16.2189 51.8721 15.8827 51.8721 15.4503C51.8721 15.0179 51.5327 14.6817 51.0961 14.6817ZM55.1702 14.6817C54.7336 14.6817 54.3942 15.0179 54.3942 15.4503C54.3942 15.8827 54.7336 16.2189 55.1702 16.2189C55.6068 16.2189 55.9471 15.8827 55.9471 15.4503C55.9471 15.0179 55.6068 14.6817 55.1702 14.6817ZM68.268 14.6817C67.8314 14.6817 67.492 15.0179 67.492 15.4503C67.492 15.8827 67.8314 16.2189 68.268 16.2189C68.7045 16.2189 69.0449 15.8827 69.0449 15.4503C69.0449 15.0179 68.7045 14.6817 68.268 14.6817ZM72.2947 14.6817C71.8581 14.6817 71.5187 15.0179 71.5187 15.4503C71.5187 15.8827 71.8581 16.2189 72.2947 16.2189C72.7313 16.2189 73.0706 15.8827 73.0706 15.4503C73.1192 15.0179 72.7313 14.6817 72.2947 14.6817ZM76.3697 14.6817C75.9331 14.6817 75.5937 15.0179 75.5937 15.4503C75.5937 15.8827 75.9331 16.2189 76.3697 16.2189C76.8063 16.2189 77.1457 15.8827 77.1457 15.4503C77.1457 15.0179 76.8063 14.6817 76.3697 14.6817ZM7.29106 14.9698C7 14.9698 6.80596 15.21 6.80596 15.4503C6.80596 15.7386 7.04851 15.9308 7.29106 15.9308C7.58212 15.9308 7.77616 15.6905 7.77616 15.4503C7.77616 15.162 7.53361 14.9698 7.29106 14.9698ZM31.6921 14.9698C31.401 14.9698 31.2069 15.21 31.2069 15.4503C31.2069 15.7386 31.401 15.9308 31.6921 15.9308C31.9831 15.9308 32.1772 15.6905 32.1772 15.4503C32.1772 15.162 31.9346 14.9698 31.6921 14.9698ZM80.4448 14.9698C80.1537 14.9698 79.9597 15.21 79.9597 15.4503C79.9597 15.7386 80.1537 15.9308 80.4448 15.9308C80.7358 15.9308 80.9299 15.6905 80.9299 15.4503C80.9299 15.162 80.6873 14.9698 80.4448 14.9698ZM9.32811 15.8351C8.89152 15.8351 8.55213 16.1712 8.55213 16.6036C8.55213 17.0361 8.89152 17.3722 9.32811 17.3722C9.7647 17.3722 10.105 17.0361 10.105 16.6036C10.105 16.1712 9.7647 15.8351 9.32811 15.8351ZM13.4031 15.8351C12.9666 15.8351 12.6272 16.1712 12.6272 16.6036C12.6272 17.0361 12.9666 17.3722 13.4031 17.3722C13.8397 17.3722 14.1791 17.0361 14.1791 16.6036C14.1791 16.1712 13.8397 15.8351 13.4031 15.8351ZM25.579 15.8351C25.1424 15.8351 24.803 16.1712 24.803 16.6036C24.803 17.0361 25.1424 17.3722 25.579 17.3722C26.0156 17.3722 26.3559 17.0361 26.3559 16.6036C26.3559 16.1712 26.0156 15.8351 25.579 15.8351ZM29.6541 15.8351C29.2175 15.8351 28.8781 16.1712 28.8781 16.6036C28.8781 17.0361 29.2175 17.3722 29.6541 17.3722C30.0906 17.3722 30.43 17.0361 30.43 16.6036C30.43 16.1712 30.0906 15.8351 29.6541 15.8351ZM44.9831 15.8351C44.5465 15.8351 44.2071 16.1712 44.2071 16.6036C44.2071 17.0361 44.5465 17.3722 44.9831 17.3722C45.4197 17.3722 45.76 17.0361 45.76 16.6036C45.76 16.1712 45.4197 15.8351 44.9831 15.8351ZM66.2309 15.8351C65.7943 15.8351 65.4549 16.1712 65.4549 16.6036C65.4549 17.0361 65.7943 17.3722 66.2309 17.3722C66.6675 17.3722 67.0069 17.0361 67.0069 16.6036C67.0069 16.1712 66.6675 15.8351 66.2309 15.8351ZM70.2576 15.8351C69.821 15.8351 69.4807 16.1712 69.4807 16.6036C69.4807 17.0361 69.821 17.3722 70.2576 17.3722C70.6942 17.3722 71.0336 17.0361 71.0336 16.6036C71.0336 16.1712 70.6942 15.8351 70.2576 15.8351ZM49.0581 15.8829C48.6215 15.8829 48.2821 16.2191 48.2821 16.6515C48.2821 17.0839 48.6215 17.4201 49.0581 17.4201C49.4947 17.4201 49.8341 17.0839 49.8341 16.6515C49.8341 16.2191 49.4947 15.8829 49.0581 15.8829ZM53.1332 15.8829C52.6966 15.8829 52.3572 16.2191 52.3572 16.6515C52.3572 17.0839 52.6966 17.4201 53.1332 17.4201C53.5697 17.4201 53.9091 17.0839 53.9091 16.6515C53.9091 16.2191 53.5697 15.8829 53.1332 15.8829ZM74.3317 15.8829C73.8951 15.8829 73.5557 16.2191 73.5557 16.6515C73.5557 17.0839 73.8951 17.4201 74.3317 17.4201C74.7683 17.4201 75.1086 17.0839 75.1086 16.6515C75.1086 16.2191 74.7683 15.8829 74.3317 15.8829ZM17.4782 16.1232C17.1871 16.1232 16.9931 16.3634 16.9931 16.6036C16.9446 16.8919 17.1871 17.0841 17.4782 17.0841C17.7693 17.0841 17.9633 16.8439 17.9633 16.6036C17.9633 16.3153 17.7207 16.1232 17.4782 16.1232ZM21.5049 16.1232C21.2139 16.1232 21.0198 16.3634 21.0198 16.6036C21.0198 16.8919 21.2624 17.0841 21.5049 17.0841C21.796 17.0841 21.99 16.8439 21.99 16.6036C21.99 16.3153 21.7475 16.1232 21.5049 16.1232ZM78.4068 16.1232C78.1157 16.1232 77.9217 16.3634 77.9217 16.6036C77.9217 16.8919 78.1157 17.0841 78.4068 17.0841C78.6978 17.0841 78.8919 16.8439 78.8919 16.6036C78.8919 16.3153 78.6493 16.1232 78.4068 16.1232ZM11.3661 16.9884C10.9295 16.9884 10.5901 17.3245 10.5901 17.757C10.5901 18.1894 10.9295 18.5256 11.3661 18.5256C11.8027 18.5256 12.1421 18.1894 12.1421 17.757C12.1421 17.3245 11.8027 16.9884 11.3661 16.9884ZM15.4411 16.9884C15.0046 16.9884 14.6642 17.3245 14.6642 17.757C14.6642 18.1894 15.0046 18.5256 15.4411 18.5256C15.8777 18.5256 16.2171 18.1894 16.2171 17.757C16.2171 17.3245 15.8777 16.9884 15.4411 16.9884ZM23.542 16.9884C23.1054 16.9884 22.766 17.3245 22.766 17.757C22.766 18.1894 23.1054 18.5256 23.542 18.5256C23.9786 18.5256 24.3179 18.1894 24.3179 17.757C24.3664 17.3245 23.9786 16.9884 23.542 16.9884ZM27.617 16.9884C27.1804 16.9884 26.841 17.3245 26.841 17.757C26.841 18.1894 27.1804 18.5256 27.617 18.5256C28.0536 18.5256 28.393 18.1894 28.393 17.757C28.393 17.3245 28.0536 16.9884 27.617 16.9884ZM42.9943 16.9884C42.5578 16.9884 42.2184 17.3245 42.2184 17.757C42.2184 18.1894 42.5578 18.5256 42.9943 18.5256C43.4309 18.5256 43.7703 18.1894 43.7703 17.757C43.7703 17.3245 43.4309 16.9884 42.9943 16.9884ZM47.0211 16.9884C46.5845 16.9884 46.2451 17.3245 46.2451 17.757C46.2451 18.1894 46.5845 18.5256 47.0211 18.5256C47.4577 18.5256 47.797 18.1894 47.797 17.757C47.8456 17.3245 47.4577 16.9884 47.0211 16.9884ZM68.268 16.9884C67.8314 16.9884 67.492 17.3245 67.492 17.757C67.492 18.1894 67.8314 18.5256 68.268 18.5256C68.7045 18.5256 69.0449 18.1894 69.0449 17.757C69.0449 17.3245 68.7045 16.9884 68.268 16.9884ZM76.3697 17.2765C76.0787 17.2765 75.8846 17.5167 75.8846 17.757C75.8846 18.0453 76.1272 18.2375 76.3697 18.2375C76.6608 18.2375 76.8548 17.9972 76.8548 17.757C76.8548 17.5167 76.6608 17.2765 76.3697 17.2765ZM51.0961 17.3244C50.805 17.3244 50.611 17.5646 50.611 17.8048C50.611 18.0451 50.8536 18.2853 51.0961 18.2853C51.3872 18.2853 51.5812 18.0451 51.5812 17.8048C51.5812 17.5646 51.3387 17.3244 51.0961 17.3244ZM72.2947 17.3244C72.0036 17.3244 71.8096 17.5646 71.8096 17.8048C71.8096 18.0451 72.0521 18.2853 72.2947 18.2853C72.5857 18.2853 72.7798 18.0451 72.7798 17.8048C72.7798 17.5646 72.5372 17.3244 72.2947 17.3244ZM9.32811 18.1408C8.89152 18.1408 8.55213 18.4779 8.55213 18.9103C8.55213 19.3428 8.89152 19.6789 9.32811 19.6789C9.7647 19.6789 10.105 19.3428 10.105 18.9103C10.105 18.5259 9.7647 18.1408 9.32811 18.1408ZM13.4031 18.1408C12.9666 18.1408 12.6272 18.4779 12.6272 18.9103C12.6272 19.3428 12.9666 19.6789 13.4031 19.6789C13.8397 19.6789 14.1791 19.3428 14.1791 18.9103C14.1791 18.5259 13.8397 18.1408 13.4031 18.1408ZM25.579 18.1408C25.1424 18.1408 24.803 18.4779 24.803 18.9103C24.803 19.3428 25.1424 19.6789 25.579 19.6789C26.0156 19.6789 26.3559 19.3428 26.3559 18.9103C26.3559 18.5259 26.0156 18.1408 25.579 18.1408ZM29.6541 18.1408C29.2175 18.1408 28.8781 18.4779 28.8781 18.9103C28.8781 19.3428 29.2175 19.6789 29.6541 19.6789C30.0906 19.6789 30.43 19.3428 30.43 18.9103C30.43 18.5259 30.0906 18.1408 29.6541 18.1408ZM44.9831 18.1408C44.5465 18.1408 44.2071 18.4779 44.2071 18.9103C44.2071 19.3428 44.5465 19.6789 44.9831 19.6789C45.4197 19.6789 45.76 19.3428 45.76 18.9103C45.8085 18.5259 45.4197 18.1408 44.9831 18.1408ZM66.2309 18.1408C65.7943 18.1408 65.4549 18.4779 65.4549 18.9103C65.4549 19.3428 65.7943 19.6789 66.2309 19.6789C66.6675 19.6789 67.0069 19.3428 67.0069 18.9103C67.0069 18.5259 66.6675 18.1408 66.2309 18.1408ZM70.2576 18.1408C69.821 18.1408 69.4807 18.4779 69.4807 18.9103C69.4807 19.3428 69.821 19.6789 70.2576 19.6789C70.6942 19.6789 71.0336 19.3428 71.0336 18.9103C71.0821 18.5259 70.6942 18.1408 70.2576 18.1408ZM11.3661 19.342C10.9295 19.342 10.5901 19.6791 10.5901 20.1115C10.5901 20.544 10.9295 20.8801 11.3661 20.8801C11.8027 20.8801 12.1421 20.544 12.1421 20.1115C12.1421 19.6791 11.8027 19.342 11.3661 19.342ZM15.4411 19.342C15.0046 19.342 14.6642 19.6791 14.6642 20.1115C14.6157 20.544 15.0046 20.8801 15.4411 20.8801C15.8777 20.8801 16.2171 20.544 16.2171 20.1115C16.2171 19.6791 15.8777 19.342 15.4411 19.342ZM23.542 19.342C23.1054 19.342 22.766 19.6791 22.766 20.1115C22.766 20.544 23.1054 20.8801 23.542 20.8801C23.9786 20.8801 24.3179 20.544 24.3179 20.1115C24.3179 19.6791 23.9786 19.342 23.542 19.342ZM27.617 19.342C27.1804 19.342 26.841 19.6791 26.841 20.1115C26.841 20.544 27.1804 20.8801 27.617 20.8801C28.0536 20.8801 28.393 20.544 28.393 20.1115C28.393 19.6791 28.0536 19.342 27.617 19.342ZM42.9943 19.342C42.5578 19.342 42.2184 19.6791 42.2184 20.1115C42.2184 20.544 42.5578 20.8801 42.9943 20.8801C43.4309 20.8801 43.7703 20.544 43.7703 20.1115C43.7703 19.6791 43.4309 19.342 42.9943 19.342ZM47.0211 19.342C46.5845 19.342 46.2451 19.6791 46.2451 20.1115C46.2451 20.544 46.5845 20.8801 47.0211 20.8801C47.4577 20.8801 47.797 20.544 47.797 20.1115C47.8456 19.6791 47.4577 19.342 47.0211 19.342ZM68.268 19.342C67.8314 19.342 67.492 19.6791 67.492 20.1115C67.492 20.544 67.8314 20.8801 68.268 20.8801C68.7045 20.8801 69.0449 20.544 69.0449 20.1115C69.0449 19.6791 68.7045 19.342 68.268 19.342ZM13.4031 20.4953C12.9666 20.4953 12.6272 20.8315 12.6272 21.2639C12.6272 21.6964 12.9666 22.0335 13.4031 22.0335C13.8397 22.0335 14.1791 21.6964 14.1791 21.2639C14.1791 20.8315 13.8397 20.4953 13.4031 20.4953ZM25.579 20.4953C25.1424 20.4953 24.803 20.8315 24.803 21.2639C24.803 21.6964 25.1424 22.0335 25.579 22.0335C26.0156 22.0335 26.3559 21.6964 26.3559 21.2639C26.3559 20.8315 26.0156 20.4953 25.579 20.4953ZM44.9831 20.4953C44.5465 20.4953 44.2071 20.8315 44.2071 21.2639C44.2071 21.6964 44.5465 22.0335 44.9831 22.0335C45.4197 22.0335 45.76 21.6964 45.76 21.2639C45.8085 20.8315 45.4197 20.4953 44.9831 20.4953ZM66.2309 20.4953C65.7943 20.4953 65.4549 20.8315 65.4549 21.2639C65.4549 21.6964 65.7943 22.0335 66.2309 22.0335C66.6675 22.0335 67.0069 21.6964 67.0069 21.2639C67.0069 20.8315 66.6675 20.4953 66.2309 20.4953ZM70.2576 20.4953C69.821 20.4953 69.4807 20.8315 69.4807 21.2639C69.4807 21.6964 69.821 22.0335 70.2576 22.0335C70.6942 22.0335 71.0336 21.6964 71.0336 21.2639C71.0821 20.8315 70.6942 20.4953 70.2576 20.4953ZM9.32811 20.7834C9.03705 20.7834 8.84301 21.0237 8.84301 21.2639C8.84301 21.5522 9.03705 21.7444 9.32811 21.7444C9.61917 21.7444 9.81321 21.5042 9.81321 21.2639C9.81321 20.9756 9.57066 20.7834 9.32811 20.7834ZM29.6541 20.7834C29.4115 20.7834 29.169 21.0237 29.169 21.2639C29.169 21.5522 29.363 21.7444 29.6541 21.7444C29.9451 21.7444 30.1392 21.5042 30.1392 21.2639C30.1392 20.9756 29.8966 20.7834 29.6541 20.7834ZM11.3661 21.6487C10.9295 21.6487 10.5901 21.9848 10.5901 22.4173C10.5901 22.8497 10.9295 23.1859 11.3661 23.1859C11.8027 23.1859 12.1421 22.8497 12.1421 22.4173C12.1421 21.9848 11.8027 21.6487 11.3661 21.6487ZM27.617 21.6487C27.1804 21.6487 26.841 21.9848 26.841 22.4173C26.841 22.8497 27.1804 23.1859 27.617 23.1859C28.0536 23.1859 28.393 22.8497 28.393 22.4173C28.393 21.9848 28.0536 21.6487 27.617 21.6487ZM42.9943 21.6487C42.5578 21.6487 42.2184 21.9848 42.2184 22.4173C42.2184 22.8497 42.5578 23.1859 42.9943 23.1859C43.4309 23.1859 43.7703 22.8497 43.7703 22.4173C43.7703 21.9848 43.4309 21.6487 42.9943 21.6487ZM47.0211 21.6487C46.5845 21.6487 46.2451 21.9848 46.2451 22.4173C46.2451 22.8497 46.5845 23.1859 47.0211 23.1859C47.4577 23.1859 47.797 22.8497 47.797 22.4173C47.8456 21.9848 47.4577 21.6487 47.0211 21.6487ZM68.268 21.6487C67.8314 21.6487 67.492 21.9848 67.492 22.4173C67.492 22.8497 67.8314 23.1859 68.268 23.1859C68.7045 23.1859 69.0449 22.8497 69.0449 22.4173C69.0449 21.9848 68.7045 21.6487 68.268 21.6487ZM13.4031 22.8499C12.9666 22.8499 12.6272 23.186 12.6272 23.6185C12.5787 24.0029 12.9666 24.3871 13.4031 24.3871C13.8397 24.3871 14.1791 24.0509 14.1791 23.6185C14.1791 23.186 13.8397 22.8499 13.4031 22.8499ZM25.579 22.8499C25.1424 22.8499 24.803 23.186 24.803 23.6185C24.803 24.0029 25.1424 24.3871 25.579 24.3871C26.0156 24.3871 26.3559 24.0509 26.3559 23.6185C26.3559 23.186 26.0156 22.8499 25.579 22.8499ZM44.9831 22.8499C44.5465 22.8499 44.2071 23.186 44.2071 23.6185C44.2071 24.0029 44.5465 24.3871 44.9831 24.3871C45.4197 24.3871 45.76 24.0509 45.76 23.6185C45.76 23.186 45.4197 22.8499 44.9831 22.8499ZM66.2309 22.8499C65.7943 22.8499 65.4549 23.186 65.4549 23.6185C65.4064 24.0029 65.7943 24.3871 66.2309 24.3871C66.6675 24.3871 67.0069 24.0509 67.0069 23.6185C67.0069 23.186 66.6675 22.8499 66.2309 22.8499ZM70.2576 22.8499C69.821 22.8499 69.4807 23.186 69.4807 23.6185C69.4807 24.0029 69.821 24.3871 70.2576 24.3871C70.6942 24.3871 71.0336 24.0509 71.0336 23.6185C71.0336 23.186 70.6942 22.8499 70.2576 22.8499ZM11.3661 24.2913C11.075 24.2913 10.881 24.5316 10.881 24.7718C10.881 25.0121 11.075 25.2523 11.3661 25.2523C11.6572 25.2523 11.8512 25.0121 11.8512 24.7718C11.8512 24.4835 11.6087 24.2913 11.3661 24.2913ZM27.617 24.2913C27.3259 24.2913 27.1319 24.5316 27.1319 24.7718C27.1319 25.0121 27.3259 25.2523 27.617 25.2523C27.9081 25.2523 28.1021 25.0121 28.1021 24.7718C28.1021 24.4835 27.8596 24.2913 27.617 24.2913ZM42.9943 24.2913C42.7033 24.2913 42.5092 24.5316 42.5092 24.7718C42.4607 25.0121 42.7033 25.2523 42.9943 25.2523C43.2854 25.2523 43.4794 25.0121 43.4794 24.7718C43.4794 24.4835 43.2369 24.2913 42.9943 24.2913ZM47.0211 24.2913C46.73 24.2913 46.536 24.5316 46.536 24.7718C46.536 25.0121 46.7785 25.2523 47.0211 25.2523C47.3121 25.2523 47.5062 25.0121 47.5062 24.7718C47.5062 24.4835 47.2636 24.2913 47.0211 24.2913ZM68.268 24.2913C67.9769 24.2913 67.7828 24.5316 67.7828 24.7718C67.7343 25.0121 67.9769 25.2523 68.268 25.2523C68.559 25.2523 68.7531 25.0121 68.7531 24.7718C68.7531 24.4835 68.5105 24.2913 68.268 24.2913Z" fill="white"/>
</svg>
