<?xml version="1.0" encoding="utf-8"?>
<!-- Generator: Adobe Illustrator 25.2.3, SVG Export Plug-In . SVG Version: 6.00 Build 0)  -->
<svg version="1.0" id="Layer_1" xmlns="http://www.w3.org/2000/svg" xmlns:xlink="http://www.w3.org/1999/xlink" x="0px" y="0px"
	 viewBox="0 0 28 28" enable-background="new 0 0 28 28" xml:space="preserve">
<g>
	<path fill="#909BA4" d="M9.4,22.06V11.18H5.78v10.88H9.4L9.4,22.06z M7.59,9.7c1.26,0,2.05-0.84,2.05-1.88
		C9.61,6.75,8.85,5.94,7.61,5.94c-1.24,0-2.05,0.81-2.05,1.88c0,1.04,0.78,1.88,2,1.88H7.59L7.59,9.7z"/>
	<path fill="#909BA4" d="M11.4,22.06h3.62v-6.08c0-0.33,0.02-0.65,0.12-0.88c0.26-0.65,0.86-1.32,1.86-1.32c1.31,0,1.83,1,1.83,2.46
		v5.82h3.62v-6.24c0-3.34-1.78-4.9-4.16-4.9c-1.95,0-2.81,1.09-3.28,1.83h0.02v-1.58H11.4C11.44,12.2,11.4,22.06,11.4,22.06
		L11.4,22.06z"/>
</g>
</svg>
