<?xml version="1.0" encoding="utf-8"?>
<!-- Generator: Adobe Illustrator 25.2.3, SVG Export Plug-In . SVG Version: 6.00 Build 0)  -->
<svg version="1.0" id="Layer_1" xmlns="http://www.w3.org/2000/svg" xmlns:xlink="http://www.w3.org/1999/xlink" x="0px" y="0px"
	 viewBox="0 0 28 28" enable-background="new 0 0 28 28" xml:space="preserve">
<path fill="#909CA5" d="M25.59,8.14c-0.28-1.05-1.1-1.87-2.14-2.15C21.57,5.48,14,5.48,14,5.48s-7.56,0-9.45,0.51
	c-1.04,0.28-1.86,1.1-2.14,2.15C1.91,10.04,1.91,14,1.91,14s0,3.96,0.51,5.86c0.28,1.05,1.1,1.87,2.14,2.15
	C6.44,22.52,14,22.52,14,22.52s7.56,0,9.45-0.51c1.04-0.28,1.86-1.1,2.14-2.15C26.1,17.96,26.1,14,26.1,14S26.1,10.04,25.59,8.14z
	 M11.53,17.6V10.4l6.32,3.6L11.53,17.6z"/>
</svg>
