<svg width="32" height="32" viewBox="0 0 32 32" fill="none" xmlns="http://www.w3.org/2000/svg">
<g id="Arrow Download">
<path id="Shape" d="M24.333 27.3332C24.8853 27.333 25.3333 27.7806 25.3333 28.3329C25.3333 28.8852 24.8859 29.333 24.3336 29.3332L7.00029 29.3382C6.448 29.3383 6 28.8908 6 28.3385C6 27.7862 6.44743 27.3383 6.99971 27.3382L24.333 27.3332ZM15.531 2.68222L15.6667 2.6731C16.1729 2.6731 16.5913 3.0493 16.6575 3.5374L16.6667 3.6731L16.6653 21.9198L21.6278 16.9593C21.9828 16.6043 22.5384 16.5721 22.9298 16.8626L23.042 16.9595C23.397 17.3145 23.4292 17.8701 23.1387 18.2615L23.0418 18.3737L16.3783 25.0358C16.0234 25.3906 15.4683 25.423 15.0768 25.1329L14.9646 25.0362L8.29338 18.3741C7.90259 17.9838 7.90215 17.3507 8.29241 16.9599C8.64719 16.6046 9.20272 16.572 9.5944 16.8622L9.70662 16.9589L14.6653 21.9104L14.6667 3.6731C14.6667 3.16683 15.0429 2.74844 15.531 2.68222L15.6667 2.6731L15.531 2.68222Z" fill="#ffffff"/>
</g>
</svg>
