<svg width="32" height="32" viewBox="0 0 32 32" fill="none" xmlns="http://www.w3.org/2000/svg">
<g id="Chat Multiple">
<path id="Shape" d="M3.99999 13.7142C3.99999 8.98031 7.83755 5.14275 12.5714 5.14275C17.3053 5.14275 21.1428 8.98031 21.1428 13.7142C21.1428 18.448 17.3053 22.2856 12.5714 22.2856C11.0829 22.2856 9.68548 21.9069 8.46751 21.2413C8.27413 21.1356 8.04748 21.1085 7.83462 21.1655L4.11994 22.1609L5.116 18.4435C5.17297 18.2309 5.14597 18.0046 5.04059 17.8113C4.37728 16.595 3.99999 15.1999 3.99999 13.7142ZM12.5714 3.42847C6.89078 3.42847 2.28571 8.03354 2.28571 13.7142C2.28571 15.3695 2.67737 16.9356 3.37362 18.3227L2.33599 22.1952C2.05136 23.2574 3.02338 24.2295 4.08563 23.9448L7.95502 22.908C9.34408 23.6067 10.9129 23.9999 12.5714 23.9999C18.2521 23.9999 22.8571 19.3948 22.8571 13.7142C22.8571 8.03354 18.2521 3.42847 12.5714 3.42847ZM19.4285 28.5714C16.3677 28.5714 13.6191 27.2344 11.7349 25.1126C12.0112 25.1327 12.2902 25.1428 12.5714 25.1428C13.1052 25.1428 13.6305 25.1062 14.1448 25.0354C15.6007 26.1767 17.4352 26.8571 19.4285 26.8571C20.917 26.8571 22.3145 26.4784 23.5324 25.8128C23.7258 25.7072 23.9525 25.68 24.1653 25.7371L27.88 26.7324L26.8839 23.0151C26.827 22.8025 26.854 22.5761 26.9593 22.3829C27.6227 21.1665 27.9999 19.7714 27.9999 18.2857C27.9999 15.0777 26.2376 12.2812 23.6281 10.8118C23.4217 10.0233 23.1332 9.26807 22.7722 8.5557C26.8114 9.94347 29.7142 13.7756 29.7142 18.2857C29.7142 19.941 29.3226 21.5071 28.6263 22.8942L29.6639 26.7667C29.9486 27.829 28.9766 28.801 27.9143 28.5164L24.0449 27.4796C22.6559 28.1783 21.087 28.5714 19.4285 28.5714Z" fill="#242424"/>
</g>
</svg>
