<svg xmlns="http://www.w3.org/2000/svg" width="32" height="32" fill="none"><path fill="#F7630C" d="M16 2.667C8.636 2.667 2.667 8.637 2.667 16c0 7.364 5.97 13.333 13.333 13.333 7.364 0 13.333-5.97 13.333-13.333 0-7.364-5.97-13.333-13.333-13.333Zm3.323 9.813a1 1 0 0 1-1.979-.293c.215-1.454 1.498-2.52 2.99-2.52 1.491 0 2.773 1.066 2.989 2.52a1 1 0 0 1-1.979.293c-.063-.43-.466-.813-1.01-.813-.545 0-.948.383-1.011.813ZM16 24c-4.19 0-6.983-3.15-7.333-7h14.666c-.35 3.85-3.143 7-7.333 7Zm-4.333-12.333c-.545 0-.947.383-1.011.813a1 1 0 0 1-1.978-.293c.215-1.454 1.497-2.52 2.989-2.52 1.492 0 2.774 1.066 2.989 2.52a1 1 0 1 1-1.978.293c-.064-.43-.467-.813-1.011-.813Z"/></svg>