<svg width="32" height="32" viewBox="0 0 32 32" fill="none" xmlns="http://www.w3.org/2000/svg">
<g id="Emoji Laugh">
<path id="Shape" d="M8.99902 15.9998C8.71801 15.9998 8.44997 16.1181 8.26051 16.3256C8.07104 16.5331 7.97763 16.8108 8.00315 17.0906C8.37678 21.1886 11.403 24.6665 16 24.6665C20.597 24.6665 23.6232 21.1886 23.9969 17.0907C24.0224 16.8108 23.929 16.5331 23.7396 16.3256C23.5501 16.1181 23.2821 15.9998 23.001 15.9998H8.99902ZM16 22.6665C12.9905 22.6665 10.838 20.6939 10.1765 17.9998H21.8236C21.162 20.6939 19.0095 22.6665 16 22.6665ZM20.3335 11.6665C19.7887 11.6665 19.3864 12.0494 19.3227 12.4796C19.2418 13.0259 18.7334 13.4033 18.187 13.3224C17.6407 13.2415 17.2634 12.7331 17.3442 12.1867C17.5595 10.7325 18.8417 9.6665 20.3335 9.6665C21.8252 9.6665 23.1074 10.7325 23.3227 12.1867C23.4035 12.7331 23.0262 13.2415 22.4799 13.3224C21.9336 13.4033 21.4251 13.0259 21.3442 12.4796C21.2806 12.0494 20.8782 11.6665 20.3335 11.6665ZM10.656 12.4796C10.7197 12.0494 11.1221 11.6665 11.6668 11.6665C12.2115 11.6665 12.6139 12.0494 12.6776 12.4796C12.7584 13.0259 13.2669 13.4033 13.8132 13.3224C14.3596 13.2415 14.7369 12.7331 14.656 12.1867C14.4407 10.7325 13.1586 9.6665 11.6668 9.6665C10.175 9.6665 8.89283 10.7325 8.67757 12.1867C8.5967 12.7331 8.97403 13.2415 9.52036 13.3224C10.0667 13.4033 10.5751 13.0259 10.656 12.4796ZM16 2.6665C8.63619 2.6665 2.66666 8.63604 2.66666 15.9998C2.66666 23.3636 8.63619 29.3332 16 29.3332C23.3638 29.3332 29.3333 23.3636 29.3333 15.9998C29.3333 8.63604 23.3638 2.6665 16 2.6665ZM4.66666 15.9998C4.66666 9.74061 9.74076 4.6665 16 4.6665C22.2592 4.6665 27.3333 9.74061 27.3333 15.9998C27.3333 22.2591 22.2592 27.3332 16 27.3332C9.74076 27.3332 4.66666 22.2591 4.66666 15.9998Z" fill="#242424"/>
</g>
</svg>
