<svg width="32" height="33" viewBox="0 0 32 33" fill="none" xmlns="http://www.w3.org/2000/svg">
<g id="Link Multiple">
<path id="Shape" d="M8.33334 5.5C4.46735 5.5 1.33334 8.63401 1.33334 12.5C1.33334 15.571 3.31097 18.1801 6.06217 19.1233C6.14372 18.4437 6.30394 17.7882 6.53345 17.1662C4.66137 16.4437 3.33334 14.6269 3.33334 12.5C3.33334 9.73858 5.57192 7.5 8.33334 7.5H17C19.7614 7.5 22 9.73858 22 12.5C22 15.2614 19.7614 17.5 17 17.5H15.6667C15.1144 17.5 14.6667 17.9477 14.6667 18.5C14.6667 19.0523 15.1144 19.5 15.6667 19.5H17C20.866 19.5 24 16.366 24 12.5C24 8.63401 20.866 5.5 17 5.5H8.33334ZM25.8543 13.7613C25.7302 14.4284 25.5298 15.0687 25.2623 15.6727C27.2264 16.2233 28.6667 18.0268 28.6667 20.1667C28.6667 22.744 26.5773 24.8333 24 24.8333H14.6667C12.0893 24.8333 10 22.744 10 20.1667C10 17.5893 12.0893 15.5 14.6667 15.5H16.3333C16.8856 15.5 17.3333 15.0523 17.3333 14.5C17.3333 13.9477 16.8856 13.5 16.3333 13.5H14.6667C10.9848 13.5 8.00001 16.4848 8.00001 20.1667C8.00001 23.8486 10.9848 26.8333 14.6667 26.8333H24C27.6819 26.8333 30.6667 23.8486 30.6667 20.1667C30.6667 17.1282 28.634 14.5645 25.8543 13.7613Z" fill="#242424"/>
</g>
</svg>
