<svg xmlns="http://www.w3.org/2000/svg" width="32" height="32" fill="none"><path fill="#5B5FC7" d="M12.571 9.143a1.143 1.143 0 0 1 .134 2.278l-.134.008H9.143a4.571 4.571 0 0 0-.228 9.137l.228.005h3.428a1.143 1.143 0 0 1 .134 2.278l-.134.008H9.143a6.857 6.857 0 0 1-.257-13.71l.257-.004h3.428Zm10.286 0a6.857 6.857 0 0 1 .257 13.71l-.257.004H19.43a1.143 1.143 0 0 1-.134-2.278l.134-.008h3.428a4.571 4.571 0 0 0 .228-9.137l-.228-.005H19.43a1.143 1.143 0 0 1-.134-2.278l.134-.008h3.428ZM9.143 14.857h13.714a1.143 1.143 0 0 1 .133 2.278l-.133.008H9.143a1.143 1.143 0 0 1-.133-2.278l.133-.008h13.714H9.143Z"/></svg>