<svg xmlns="http://www.w3.org/2000/svg" width="28" height="28" fill="none"><path fill="#5B5FC7" d="M12.747 8.416a.7.7 0 0 1 .538.83l-.419 1.954h3.467l.482-2.246a.7.7 0 1 1 1.368.293l-.418 1.953H18.9a.7.7 0 1 1 0 1.4h-1.435l-.6 2.8H18.2a.7.7 0 1 1 0 1.4h-1.634l-.481 2.246a.7.7 0 1 1-1.37-.293l.419-1.953h-3.468l-.481 2.247a.7.7 0 0 1-1.37-.294l.42-1.953H9.1a.7.7 0 1 1 0-1.4h1.434l.6-2.8H9.8a.7.7 0 1 1 0-1.4h1.634l.482-2.247a.7.7 0 0 1 .83-.537Zm-.78 6.984h3.467l.6-2.8h-3.468l-.6 2.8ZM4.2 7.7a3.5 3.5 0 0 1 3.5-3.5h12.6a3.5 3.5 0 0 1 3.5 3.5v12.6a3.5 3.5 0 0 1-3.5 3.5H7.7a3.5 3.5 0 0 1-3.5-3.5V7.7Zm3.5-2.1a2.1 2.1 0 0 0-2.1 2.1v12.6c0 1.16.94 2.1 2.1 2.1h12.6a2.1 2.1 0 0 0 2.1-2.1V7.7a2.1 2.1 0 0 0-2.1-2.1H7.7Z"/></svg>