<svg width="32" height="33" viewBox="0 0 32 33" fill="none" xmlns="http://www.w3.org/2000/svg">
<g id="Share Screen Start">
<path id="Shape" d="M16 10C16.221 10 16.433 10.0878 16.5892 10.2441L20.5892 14.2441C20.9147 14.5695 20.9147 15.0972 20.5892 15.4226C20.2638 15.748 19.7362 15.748 19.4107 15.4226L16.8333 12.8452V21.3333C16.8333 21.7936 16.4602 22.1667 16 22.1667C15.5398 22.1667 15.1667 21.7936 15.1667 21.3333V12.8452L12.5892 15.4226C12.2638 15.748 11.7362 15.748 11.4107 15.4226C11.0853 15.0972 11.0853 14.5695 11.4107 14.2441L15.4107 10.2441C15.567 10.0878 15.779 10 16 10ZM5.49999 5.5C3.93518 5.5 2.66666 6.76853 2.66666 8.33333V24C2.66666 25.5648 3.93518 26.8333 5.49999 26.8333H26.5C28.0648 26.8333 29.3333 25.5648 29.3333 24V8.33333C29.3333 6.76853 28.0648 5.5 26.5 5.5H5.49999ZM4.33332 8.33333C4.33332 7.689 4.85566 7.16667 5.49999 7.16667H26.5C27.1443 7.16667 27.6667 7.689 27.6667 8.33333V24C27.6667 24.6443 27.1443 25.1667 26.5 25.1667H5.49999C4.85566 25.1667 4.33332 24.6443 4.33332 24V8.33333Z" fill="#242424"/>
</g>
</svg>
