<svg xmlns="http://www.w3.org/2000/svg" width="22" height="22" fill="none"><path fill="#5059C9" d="M18.875 8a2.625 2.625 0 1 0 0-5.25 2.625 2.625 0 0 0 0 5.25Zm-3.75 1.5c-.621 0-1.125.504-1.125 1.125v4.125a3.75 3.75 0 1 0 7.5 0v-4.125c0-.621-.504-1.125-1.125-1.125h-5.25Z"/><path fill="#7B83EB" d="M11.75 8a3.75 3.75 0 1 0 0-7.5 3.75 3.75 0 0 0 0 7.5ZM7.625 9.5c-.621 0-1.125.504-1.125 1.125v5.625a5.25 5.25 0 1 0 10.5 0v-5.625c0-.621-.504-1.125-1.125-1.125h-8.25Z"/><path fill="#000" fill-opacity=".5" d="M13.949 7.288A3.733 3.733 0 0 1 11.75 8a3.744 3.744 0 0 1-3-1.5h4.125c.504 0 .93.331 1.074.788ZM14 9.5H7.625c-.621 0-1.125.504-1.125 1.125v5.625c0 .805.181 1.568.505 2.25h4.37A2.625 2.625 0 0 0 14 15.875V9.5Z"/><path fill="#4B53BC" d="M.5 6.125C.5 5.504 1.004 5 1.625 5h9.75c.621 0 1.125.504 1.125 1.125v9.75c0 .621-.504 1.125-1.125 1.125h-9.75A1.125 1.125 0 0 1 .5 15.875v-9.75Z"/><path fill="#fff" d="M9.292 8.333H7.138v6.417H5.856V8.333H3.712V7.251h5.58v1.082Z"/></svg>