<svg width="43" height="43" viewBox="0 0 43 43" fill="none" xmlns="http://www.w3.org/2000/svg">
<g id="Teams">
<path id="Shape" d="M26.3319 9.00008C26.3319 11.0041 24.8582 12.6639 22.9354 12.9549C22.9769 13.1859 22.9986 13.4238 22.9986 13.6667V14.2922C25.6295 13.9641 27.6653 11.7198 27.6653 9.00008C27.6653 6.05456 25.2774 3.66675 22.3319 3.66675C19.3864 3.66675 16.9986 6.05456 16.9986 9.00008C16.9986 9.22585 17.0126 9.44835 17.0398 9.66675H18.3872C18.3509 9.44994 18.3319 9.22722 18.3319 9.00008C18.3319 6.79094 20.1228 5.00008 22.3319 5.00008C24.5411 5.00008 26.3319 6.79094 26.3319 9.00008ZM22.9986 15.6667V17.0001H28.3319C28.7001 17.0001 28.9986 17.2986 28.9986 17.6667V29.6667C28.9986 33.7168 25.7153 37.0001 21.6653 37.0001C18.5559 37.0001 15.8986 35.065 14.8318 32.3334H13.4166C14.5413 35.8151 17.8092 38.3334 21.6653 38.3334C26.1291 38.3334 29.8048 34.9586 30.28 30.6212C31.2435 31.2809 32.4093 31.6667 33.6653 31.6667C36.979 31.6667 39.6653 28.9805 39.6653 25.6667V17.6667C39.6653 16.5622 38.7698 15.6667 37.6653 15.6667H22.9986ZM33.6653 30.3334C32.3595 30.3334 31.1789 29.7971 30.3319 28.9327V17.6667C30.3319 17.433 30.2918 17.2086 30.2181 17.0001H37.6653C38.0334 17.0001 38.3319 17.2986 38.3319 17.6667V25.6667C38.3319 28.2441 36.2426 30.3334 33.6653 30.3334ZM34.3319 13.0001C32.8592 13.0001 31.6653 11.8062 31.6653 10.3334C31.6653 8.86066 32.8592 7.66675 34.3319 7.66675C35.8047 7.66675 36.9986 8.86066 36.9986 10.3334C36.9986 11.8062 35.8047 13.0001 34.3319 13.0001ZM34.3319 14.3334C36.5411 14.3334 38.3319 12.5426 38.3319 10.3334C38.3319 8.12428 36.5411 6.33341 34.3319 6.33341C32.1228 6.33341 30.3319 8.12428 30.3319 10.3334C30.3319 12.5426 32.1228 14.3334 34.3319 14.3334ZM2.33325 13.6667C2.33325 12.5622 3.22868 11.6667 4.33325 11.6667H18.9999C20.1045 11.6667 20.9999 12.5622 20.9999 13.6667V28.3334C20.9999 29.438 20.1045 30.3334 18.9999 30.3334H4.33325C3.22868 30.3334 2.33325 29.438 2.33325 28.3334V13.6667ZM15.6368 17.2108V15.6718H7.70379V17.2108H10.7521V26.3334H12.5736V17.2108H15.6368Z" fill="#ffffff"/>
</g>
</svg>
