<svg width="32" height="32" viewBox="0 0 32 32" fill="none" xmlns="http://www.w3.org/2000/svg">
<g id="Video">
<path id="Shape" d="M7.00008 6.66675C4.60685 6.66675 2.66675 8.60685 2.66675 11.0001V21.0001C2.66675 23.3933 4.60685 25.3334 7.00008 25.3334H17.0001C19.3933 25.3334 21.3334 23.3933 21.3334 21.0001V20.5841L25.6767 23.583C27.2245 24.6517 29.3358 23.5438 29.3358 21.6629V10.3361C29.3358 8.45524 27.2245 7.34733 25.6767 8.41604L21.3334 11.415V11.0001C21.3334 8.60685 19.3933 6.66675 17.0001 6.66675H7.00008ZM21.3334 13.8454L26.8131 10.0618C27.0342 9.90916 27.3358 10.0674 27.3358 10.3361V21.6629C27.3358 21.9316 27.0342 22.0899 26.8131 21.9372L21.3334 18.1536V13.8454ZM4.66675 11.0001C4.66675 9.71142 5.71142 8.66675 7.00008 8.66675H17.0001C18.2887 8.66675 19.3334 9.71142 19.3334 11.0001V21.0001C19.3334 22.2887 18.2887 23.3334 17.0001 23.3334H7.00008C5.71142 23.3334 4.66675 22.2887 4.66675 21.0001V11.0001Z" fill="#242424"/>
</g>
</svg>
