<?xml version="1.0" encoding="UTF-8"?>
<svg width="123px" height="38px" viewBox="0 0 123 38" version="1.1" xmlns="http://www.w3.org/2000/svg" xmlns:xlink="http://www.w3.org/1999/xlink">
    <title>Apple</title>
    <g id="Page-1" stroke="none" stroke-width="1" fill="none" fill-rule="evenodd">
        <g id="Apple" transform="translate(1.000000, 1.000000)" fill-rule="nonzero">
            <path d="M114.755499,0 L6.24450085,0 C4.58835625,0 3.00004303,0.60566393 1.82897195,1.68375264 C0.657900879,2.76184135 0,4.22404342 0,5.7486911 L0,30.2513089 C0,31.7759566 0.657900879,33.2381587 1.82897195,34.3162474 C3.00004303,35.3943361 4.58835625,36 6.24450085,36 L114.755499,36 C118.204242,36 121,33.4262233 121,30.2513089 L121,5.7486911 C121,4.22404342 120.342099,2.76184135 119.171028,1.68375264 C117.999957,0.60566393 116.411644,0 114.755499,0 Z" id="Path-Copy" stroke="#D8D8D8" fill="#000000"></path>
            <g id="Group-Copy" transform="translate(9.000000, 7.000000)" fill="#FFFFFF">
                <path d="M15.6338207,12.2335699 C15.6549495,10.4376227 16.5951807,8.78957702 18.1270181,7.84934583 C17.1574797,6.4644517 15.5910296,5.61856864 13.9012599,5.56743641 C12.1370058,5.37727729 10.4150094,6.62387595 9.50647137,6.62387595 C8.58736897,6.62387595 7.19286876,5.5885652 5.703289,5.62025838 C3.72838211,5.68282323 1.93139924,6.77785967 0.970439838,8.50433835 C-1.06848849,12.0328464 0.442220065,17.230529 2.40719762,20.0934802 C3.3896864,21.4985448 4.53064111,23.0515109 6.03078526,22.9986889 C7.49923623,22.9458669 8.0380204,22.0690221 9.81283884,22.0690221 C11.5665285,22.0690221 12.0736195,22.9986889 13.6054568,22.9669957 C15.1795517,22.9458669 16.1726049,21.5619311 17.1128361,20.1463021 C17.8206506,19.153249 18.3594348,18.0439874 18.7186242,16.8819039 C16.8501182,16.0926229 15.6352092,14.2619381 15.6338207,12.2335699 L15.6338207,12.2335699 Z M12.7497408,3.68697402 C13.6054403,2.65736366 14.0260989,1.33475214 13.9223887,1.87661361e-15 C12.615454,0.139873986 11.4088174,0.765816715 10.5417821,1.75368965 C9.68211892,2.72897647 9.24510339,4.00582186 9.32687665,5.30332652 C10.6553392,5.31799132 11.9170518,4.7221826 12.7497408,3.68697402 Z" id="Shape"></path>
            </g>
            <path d="M46.0537772,24.3085787 L41.8143406,24.3085787 L40.7925736,27.3201024 L39,27.3201024 L43.0153649,16.1882202 L44.8886044,16.1882202 L48.9129321,27.3201024 L47.084507,27.3201024 L46.0627401,24.3085787 L46.0537772,24.3085787 Z M42.2535211,22.9193342 L45.6145967,22.9193342 L43.9564661,18.0345711 L43.9116517,18.0345711 L42.2535211,22.9193342 Z M57.5800256,23.2599232 C57.5800256,25.7784891 56.2355954,27.4007682 54.1920615,27.4007682 C53.1396516,27.4568664 52.1476538,26.9069168 51.637644,25.9846351 L51.6017926,25.9846351 L51.6017926,30 L49.9346991,30 L49.9346991,19.1997439 L51.5480154,19.1997439 L51.5480154,20.5441741 L51.574904,20.5441741 C52.1072376,19.624479 53.103171,19.0730972 54.1651729,19.1101152 C56.2266325,19.1101152 57.5800256,20.7413572 57.5800256,23.2599232 L57.5800256,23.2599232 Z M55.8681178,23.2599232 C55.8681178,21.6197183 55.0166453,20.5352113 53.7170294,20.5352113 C52.453265,20.5352113 51.5928297,21.637644 51.5928297,23.2599232 C51.5928297,24.8911652 52.453265,25.993598 53.7259923,25.993598 C55.0166453,25.993598 55.8681178,24.9180538 55.8681178,23.2599232 L55.8681178,23.2599232 Z M66.5070423,23.2599232 C66.5070423,25.7784891 65.162612,27.4007682 63.128041,27.4007682 C62.0756311,27.4568664 61.0836334,26.9069168 60.5736236,25.9846351 L60.5288092,25.9846351 L60.5288092,30 L58.8706786,30 L58.8706786,19.1997439 L60.4839949,19.1997439 L60.4839949,20.5441741 L60.5108835,20.5441741 C61.0416827,19.627379 62.0333563,19.0764492 63.0921895,19.1101152 C65.1536492,19.1101152 66.5070423,20.7413572 66.5070423,23.2599232 L66.5070423,23.2599232 Z M64.8040973,23.2599232 C64.8040973,21.6197183 63.9526248,20.5352113 62.653009,20.5352113 C61.3802817,20.5352113 60.5288092,21.637644 60.5288092,23.2599232 C60.5288092,24.8911652 61.3802817,25.993598 62.653009,25.993598 C63.9526248,25.993598 64.8040973,24.9180538 64.8040973,23.2599232 Z M72.4135723,24.2189501 C72.5390525,25.3213828 73.6056338,26.0473752 75.0755442,26.0473752 C76.4827145,26.0473752 77.4955186,25.3213828 77.4955186,24.3265045 C77.4955186,23.4571063 76.8770807,22.9462228 75.4340589,22.5877081 L74,22.2381562 C71.9475032,21.7451985 71.006402,20.7951344 71.006402,19.2445583 C71.006402,17.3175416 72.6734955,16 75.0486556,16 C77.4058899,16 79.0192061,17.3175416 79.0729834,19.2445583 L77.3879641,19.2445583 C77.2893726,18.1331626 76.3661972,17.4519846 75.0307298,17.4519846 C73.6952625,17.4519846 72.7720871,18.1331626 72.7720871,19.128041 C72.7720871,19.9078105 73.3546735,20.3828425 74.7887324,20.7323944 L76.0166453,21.028169 C78.3021767,21.5659411 79.2432778,22.4891165 79.2432778,24.1113956 C79.2432778,26.1997439 77.5851472,27.4993598 74.950064,27.4993598 C72.4852753,27.4993598 70.8181818,26.2266325 70.7106274,24.2189501 L72.4135723,24.2189501 L72.4135723,24.2189501 Z M82.8463508,17.2816901 L82.8463508,19.1997439 L84.3879641,19.1997439 L84.3879641,20.5172855 L82.8463508,20.5172855 L82.8463508,24.9987196 C82.8463508,25.6888604 83.1510883,26.0115237 83.8322663,26.0115237 C84.0115237,26.0115237 84.190781,25.993598 84.3700384,25.9756722 L84.3700384,27.284251 C84.0742638,27.346991 83.7605634,27.3738796 83.4558259,27.3649168 C81.8066581,27.3649168 81.1702945,26.737516 81.1702945,25.1690141 L81.1702945,20.5172855 L79.9871959,20.5172855 L79.9871959,19.1997439 L81.1702945,19.1997439 L81.1702945,17.2816901 L82.8463508,17.2816901 L82.8463508,17.2816901 Z M85.284251,23.2599232 C85.284251,20.7055058 86.7810499,19.1011524 89.1293214,19.1011524 C91.4775928,19.1011524 92.9833547,20.7144686 92.9833547,23.2599232 C92.9833547,25.8233035 91.4865557,27.418694 89.1293214,27.418694 C86.7720871,27.418694 85.2752881,25.8233035 85.2752881,23.2599232 L85.284251,23.2599232 Z M91.2804097,23.2599232 C91.2804097,21.5121639 90.4737516,20.4814341 89.1293214,20.4814341 C87.7848912,20.4814341 86.978233,21.5121639 86.978233,23.2599232 C86.978233,25.0166453 87.7848912,26.0384123 89.1293214,26.0384123 C90.4737516,26.0384123 91.2804097,25.0166453 91.2804097,23.2599232 Z M94.3546735,19.1997439 L95.9411012,19.1997439 L95.9411012,20.5800256 L95.9769526,20.5800256 C96.2010243,19.6927017 97.0166453,19.0832266 97.9308579,19.1190781 C98.1190781,19.1190781 98.3162612,19.1370038 98.5044814,19.1818182 L98.5044814,20.7413572 C98.261104,20.66452 98.0067573,20.6281848 97.7516005,20.6338028 C97.2599113,20.6119032 96.783447,20.8072249 96.448611,21.1679502 C96.113775,21.5286756 95.9544135,22.0183415 96.0128041,22.5070423 L96.0128041,27.3201024 L94.3636364,27.3201024 L94.3636364,19.1997439 L94.3546735,19.1997439 Z M106.176697,24.9359795 C105.952625,26.4058899 104.518566,27.418694 102.681178,27.418694 C100.323944,27.418694 98.8629962,25.8322663 98.8629962,23.2957746 C98.8629962,20.7503201 100.332907,19.1011524 102.618438,19.1011524 C104.859155,19.1011524 106.275288,20.6427657 106.275288,23.1075544 L106.275288,23.6722151 L100.539052,23.6722151 L100.539052,23.7797695 C100.487247,24.383812 100.697117,24.9810477 101.115398,25.4199005 C101.53368,25.8587532 102.12016,26.0970324 102.725992,26.0742638 C103.53265,26.1459667 104.294494,25.6888604 104.599232,24.9359795 L106.176697,24.9359795 L106.176697,24.9359795 Z M100.548015,22.5160051 L104.608195,22.5160051 C104.63823,21.9731387 104.440714,21.4423059 104.063126,21.051111 C103.685538,20.6599162 103.162027,20.4437391 102.618438,20.4545455 C101.479925,20.4545455 100.556978,21.3774924 100.556978,22.5160051 L100.548015,22.5160051 Z" id="Shape-Copy" fill="#FFFFFF"></path>
            <path d="M42.3595962,12.8184504 L39,12.8184504 L39,7.4412951 L39.8376473,7.4412951 L39.8376473,12.0528588 L42.3595962,12.0528588 L42.3595962,12.8184504 L42.3595962,12.8184504 Z M43.1972435,11.6655595 C43.1972435,10.9450027 43.7376611,10.5216755 44.7014059,10.4586268 L45.800255,10.3955781 L45.800255,10.0443066 C45.800255,9.62097949 45.5210393,9.37779156 44.9716147,9.37779156 C44.5212667,9.37779156 44.21503,9.53991685 44.1249604,9.82813958 L43.3503618,9.82813958 C43.4404314,9.12559667 44.0889326,8.68425562 45.0076425,8.68425562 C46.025429,8.68425562 46.6018745,9.1886454 46.6018745,10.0443066 L46.6018745,12.8184504 L45.8272759,12.8184504 L45.8272759,12.2420049 L45.7642272,12.2420049 C45.5030253,12.6653321 45.0436704,12.90852 44.5482875,12.8814991 C44.2037426,12.9171571 43.8602076,12.8052755 43.6027415,12.573556 C43.3452754,12.3418365 43.1979502,12.011944 43.1972435,11.6655595 L43.1972435,11.6655595 Z M45.809262,11.323295 L45.809262,10.9810305 L44.8184964,11.0440792 C44.2510579,11.0801071 44.0078699,11.2782602 44.0078699,11.6295316 C44.0078699,11.98981 44.3141066,12.2059771 44.7554476,12.2059771 C45.0117809,12.2309195 45.2673187,12.1512441 45.4640528,11.9850377 C45.6607868,11.8188314 45.7820284,11.5801931 45.800255,11.323295 L45.809262,11.323295 Z M47.6556888,10.7828774 C47.6556888,9.50388901 48.3131969,8.69326258 49.3399904,8.69326258 C49.8533872,8.6662417 50.3307561,8.94545747 50.5829509,9.40481244 L50.6369927,9.40481244 L50.6369927,7.18009325 L51.4476191,7.18009325 L51.4476191,12.8184504 L50.6730205,12.8184504 L50.6730205,12.1789562 L50.6099718,12.1789562 C50.34877,12.6293042 49.8623941,12.899513 49.3399904,12.8814991 C48.30419,12.8814991 47.6556888,12.0708727 47.6556888,10.7828774 L47.6556888,10.7828774 Z M48.4753222,10.7828774 C48.4753222,11.6475456 48.8806354,12.1609423 49.5561575,12.1609423 C50.2406865,12.1609423 50.6550066,11.6385386 50.6550066,10.7918843 C50.6550066,9.94523006 50.2316795,9.4138194 49.5651644,9.4138194 C48.8896424,9.4138194 48.4843292,9.9362231 48.4843292,10.7828774 L48.4753222,10.7828774 Z M56.1852802,11.7196012 C55.9593156,12.4827634 55.2202898,12.9754473 54.428923,12.8905061 C53.8893408,12.903126 53.371251,12.6790234 53.0109571,12.2771571 C52.6506632,11.8752908 52.4842413,11.3358997 52.5554752,10.8008913 C52.4853157,10.2650037 52.6500035,9.72492491 53.0072415,9.31936487 C53.3644794,8.91380484 53.8794588,8.68228078 54.419916,8.68424309 C55.5457861,8.68424309 56.2303151,9.44984725 56.2303151,10.7288356 L56.2303151,10.9990444 L53.3661017,10.9990444 L53.3661017,11.0530862 C53.340688,11.3541816 53.4435474,11.6520168 53.6493539,11.8732587 C53.8551604,12.0945007 54.1447924,12.2185939 54.4469369,12.2149841 C54.8432432,12.2600189 55.2215355,12.0618657 55.4106817,11.7196012 L56.1852802,11.7196012 L56.1852802,11.7196012 Z M53.3661017,10.413592 L55.4196886,10.413592 C55.440046,10.1378085 55.3431514,9.86622814 55.1528241,9.66561288 C54.9624968,9.46499763 54.6963885,9.35395329 54.419916,9.35977764 C54.1389446,9.35484717 53.8680286,9.46428973 53.6693212,9.66299713 C53.4706138,9.86170452 53.3611712,10.1326206 53.3661017,10.413592 L53.3661017,10.413592 Z M57.3111503,8.76531826 L58.0767419,8.76531826 L58.0767419,9.40481244 L58.1397906,9.40481244 C58.3469507,8.92744355 58.8333266,8.63922082 59.3467233,8.68425562 C59.7462422,8.65245148 60.1384568,8.80457756 60.4120432,9.09745529 C60.6856296,9.39033302 60.8107199,9.79198843 60.7518091,10.188418 L60.7518091,12.8184504 L59.9501897,12.8184504 L59.9501897,10.3865711 C59.9501897,9.73806997 59.6709739,9.4138194 59.0765145,9.4138194 C58.8045715,9.39899747 58.5398517,9.50441828 58.3525467,9.70212907 C58.1652418,9.89983986 58.0742736,10.1698674 58.1037628,10.4406129 L58.1037628,12.8184504 L57.3111503,12.8184504 L57.3111503,8.76531826 L57.3111503,8.76531826 Z M64.0843844,7.55838558 C64.0695612,7.34361479 64.1880066,7.14174404 64.3827221,7.04991774 C64.5774377,6.95809143 64.8085443,6.99511627 64.9648286,7.14317512 C65.121113,7.29123397 65.1705669,7.52000332 65.0893921,7.71939458 C65.0082174,7.91878585 64.8130391,8.04796226 64.5977812,8.04476144 C64.4648538,8.04961879 64.3355577,8.00081459 64.2389944,7.90933351 C64.142431,7.81785243 64.0867142,7.69138123 64.0843844,7.55838558 Z M64.2014749,8.7563113 L65.0030944,8.7563113 L65.0030944,12.8094434 L64.2014749,12.8094434 L64.2014749,8.7563113 L64.2014749,8.7563113 Z M66.2910897,8.76531826 L67.0656883,8.76531826 L67.0656883,9.4138194 L67.1197301,9.4138194 C67.3127748,8.96346818 67.755618,8.67148117 68.2456001,8.67148117 C68.7355822,8.67148117 69.1784254,8.96346818 69.3714701,9.4138194 L69.4345188,9.4138194 C69.6596929,8.94545747 70.1460687,8.65723474 70.6684724,8.68425562 C71.0272535,8.65771969 71.3791686,8.79262117 71.6282783,9.05218302 C71.877388,9.31174486 71.9977195,9.66890456 71.9564677,10.0262927 L71.9564677,12.8184504 L71.1638552,12.8184504 L71.1638552,10.2334528 C71.1638552,9.68402821 70.8936464,9.42282636 70.3712427,9.42282636 C70.1429173,9.41264829 69.920712,9.49826649 69.7582484,9.65901994 C69.5957848,9.81977339 69.5078201,10.0410603 69.5155815,10.2694806 L69.5155815,12.8184504 L68.7319759,12.8184504 L68.7319759,10.1523901 C68.7440609,9.94495165 68.6636976,9.74280469 68.5124868,9.60028421 C68.3612761,9.45776374 68.1547316,9.38949189 67.9483704,9.4138194 C67.7117815,9.41838158 67.4871621,9.51871699 67.3258847,9.69187796 C67.1646073,9.86503893 67.0804676,10.0962133 67.0927092,10.3325294 L67.0927092,12.8184504 L66.2910897,12.8184504 L66.2910897,8.76531826 L66.2910897,8.76531826 Z" id="Shape-Copy-2" fill="#FFFFFF"></path>
        </g>
    </g>
</svg>