<svg viewBox="0 0 24 24" version="1.1" xmlns="http://www.w3.org/2000/svg" xmlns:xlink="http://www.w3.org/1999/xlink">
  <path fill-rule="evenodd" clip-rule="evenodd" d="M13.0496 11.9996L17.7996 7.24961C18.0996 6.94961 18.0996 6.49961 17.7996 6.19961C17.4996 5.89961 17.0496 5.89961 16.7496 6.19961L11.9996 10.9496L7.24961 6.19961C6.94961 5.89961 6.49961 5.89961 6.19961 6.19961C5.89961 6.49961 5.89961 6.94961 6.19961 7.24961L10.9496 11.9996L6.19961 16.7496C5.89961 17.0496 5.89961 17.4996 6.19961 17.7996C6.49961 18.0996 6.94961 18.0996 7.24961 17.7996L11.9996 13.0496L16.7496 17.7996C17.0496 18.0996 17.4996 18.0996 17.7996 17.7996C18.0996 17.4996 18.0996 17.0496 17.7996 16.7496L13.0496 11.9996Z" fill="#262626"/>
</svg>
