<svg xmlns="http://www.w3.org/2000/svg" width="64.001" height="64">
  <path fill="none" d="M0 0H64.001V64H0z"/>
  <path fill="#ffffff" d="M52.016,8.995v28.006c0,11.028-8.972,20-20,20c-11.028,0-20-8.972-20-20V8.995H52.016z M55.016,5.995h-46 v31.006c0,12.7,10.3,23,23,23c12.7,0,23-10.3,23-23V5.995L55.016,5.995z M32.063,33c3,0,5.4-2.4,5.4-5.4v-3.3 c0-3-2.4-5.399-5.4-5.399s-5.4,2.399-5.4,5.399v3.3C26.765,30.6,29.163,33,32.063,33z M37.697,35H26.399 c-3-0.043-5.398,1.957-5.398,5h21.997C43.098,36.957,40.697,34.957,37.697,35z"/>
</svg>
