<?xml version="1.0" encoding="UTF-8"?>
<svg width="123px" height="38px" viewBox="0 0 123 38" version="1.1" xmlns="http://www.w3.org/2000/svg" xmlns:xlink="http://www.w3.org/1999/xlink">
    <title>Google</title>
    <defs>
        <linearGradient x1="61.0427609%" y1="4.94615078%" x2="26.5140219%" y2="71.8787395%" id="linearGradient-1">
            <stop stop-color="#00A0FF" offset="0%"></stop>
            <stop stop-color="#00A1FF" offset="1%"></stop>
            <stop stop-color="#00BEFF" offset="26%"></stop>
            <stop stop-color="#00D2FF" offset="51%"></stop>
            <stop stop-color="#00DFFF" offset="76%"></stop>
            <stop stop-color="#00E3FF" offset="100%"></stop>
        </linearGradient>
        <linearGradient x1="107.684729%" y1="50%" x2="-130.640394%" y2="50%" id="linearGradient-2">
            <stop stop-color="#FFE000" offset="0%"></stop>
            <stop stop-color="#FFBD00" offset="41%"></stop>
            <stop stop-color="#FFA500" offset="78%"></stop>
            <stop stop-color="#FF9C00" offset="100%"></stop>
        </linearGradient>
        <linearGradient x1="86.2709832%" y1="30.8955964%" x2="-50.1798561%" y2="136.082369%" id="linearGradient-3">
            <stop stop-color="#FF3A44" offset="0%"></stop>
            <stop stop-color="#C31162" offset="100%"></stop>
        </linearGradient>
        <linearGradient x1="-18.82494%" y1="-11.8884616%" x2="42.0863309%" y2="35.0689944%" id="linearGradient-4">
            <stop stop-color="#32A071" offset="0%"></stop>
            <stop stop-color="#2DA771" offset="7%"></stop>
            <stop stop-color="#15CF74" offset="48%"></stop>
            <stop stop-color="#06E775" offset="80%"></stop>
            <stop stop-color="#00F076" offset="100%"></stop>
        </linearGradient>
    </defs>
    <g id="Page-1" stroke="none" stroke-width="1" fill="none" fill-rule="evenodd">
        <g id="Google" transform="translate(1.000000, 1.000000)" fill-rule="nonzero">
            <path d="M116.518519,36 L4.48148148,36 C2.01666667,36 7.10542736e-15,33.975 7.10542736e-15,31.5 L7.10542736e-15,4.5 C7.10542736e-15,2.025 2.01666667,0 4.48148148,0 L116.518519,0 C118.983333,0 121,2.025 121,4.5 L121,31.5 C121,33.975 118.983333,36 116.518519,36 Z" id="Path-Copy-2" stroke="#D8D8D8" fill="#000000"></path>
            <path d="M61.6139043,19.9226292 C60.6670307,19.906777 59.7540426,20.2747808 59.082838,20.9428415 C58.4116334,21.6109023 58.0393475,22.5221527 58.050754,23.4690902 C58.037071,24.4174653 58.4083522,25.3308928 59.0798103,26.0007783 C59.7512684,26.6706639 60.6655638,27.0398024 61.6139043,27.0238958 C62.560809,27.0375225 63.4729267,26.6673768 64.1425588,25.9977447 C64.8121909,25.3281126 65.1823366,24.4159949 65.1687099,23.4690902 C65.1801165,22.5221527 64.8078305,21.6109023 64.1366259,20.9428415 C63.4654213,20.2747808 62.5524332,19.906777 61.6055597,19.9226292 L61.6139043,19.9226292 Z M61.6139043,25.6220006 C60.5291044,25.6220006 59.6111969,24.7374715 59.6111969,23.4690902 C59.6111969,22.1923642 60.5291044,21.3245244 61.6139043,21.3245244 C62.6820149,21.3245244 63.6166117,22.1923642 63.6166117,23.4690902 C63.6166117,24.7374715 62.6820149,25.6220006 61.6139043,25.6220006 Z M53.8367239,19.9226292 C52.8898504,19.906777 51.9768622,20.2747808 51.3056577,20.9428415 C50.6344531,21.6109023 50.2621671,22.5221527 50.2735737,23.4690902 C50.2598907,24.4174653 50.6311719,25.3308928 51.3026299,26.0007783 C51.974088,26.6706639 52.8883835,27.0398024 53.8367239,27.0238958 C54.7864983,27.0420895 55.7029747,26.6739618 56.3762611,26.0038217 C57.0495475,25.3336815 57.4219637,24.4189394 57.4082188,23.4690902 C57.4196253,22.5221527 57.0473394,21.6109023 56.3761348,20.9428415 C55.7049302,20.2747808 54.7919421,19.906777 53.8450685,19.9226292 L53.8367239,19.9226292 Z M53.8367239,25.6220006 C52.7602687,25.6220006 51.8340165,24.7374715 51.8340165,23.4690902 C51.8340165,22.1923642 52.7602687,21.3245244 53.8367239,21.3245244 C54.9215238,21.3245244 55.8394313,22.1923642 55.8394313,23.4690902 C55.8394313,24.7374715 54.9215238,25.6220006 53.8367239,25.6220006 Z M44.5908915,21.0157736 L44.5908915,22.5178042 L48.1957648,22.5178042 C48.1438628,23.2231896 47.8557708,23.8905046 47.3779926,24.4120316 C46.6467139,25.1570909 45.6339453,25.5573468 44.5908915,25.5135206 C42.3795687,25.5135206 40.643889,23.7277732 40.643889,21.5081059 C40.6272034,19.922288 41.5593278,18.479828 43.0119746,17.8434996 C44.4646215,17.2071712 46.1568939,17.5000206 47.3112357,18.5874909 L48.3710017,17.5193803 C47.366294,16.5256654 46.0038337,15.9782752 44.5908915,16.0006605 C41.5354237,16.0003202 39.045604,18.4529785 39,21.5081059 C39.045604,24.5632333 41.5354237,27.0158915 44.5908915,27.0155512 C46.2347804,27.0155512 47.4697833,26.4814959 48.4377586,25.4801422 C49.3171277,24.5193933 49.7845262,23.2520243 49.7395184,21.9503704 C49.7395184,21.6082412 49.7144845,21.2828013 49.6560722,21.0157736 L44.5908915,21.0157736 L44.5908915,21.0157736 Z M82.4003381,22.1840196 C82.1082766,21.3912813 81.2070582,19.9309738 79.3628985,19.9309738 C77.535428,19.9309738 76.0167083,21.3662474 76.0167083,23.4690902 C76.0167083,25.463453 77.5187388,27.0238958 79.5381354,27.0238958 C81.1653352,27.0238958 82.1082766,26.0225421 82.4921288,25.4467637 L81.2821598,24.6456808 C80.9127216,25.2549254 80.2506316,25.6255691 79.5381354,25.6220006 C78.7453971,25.6220006 78.1779633,25.2631822 77.8191449,24.5455454 L82.5672303,22.5845611 L82.4003381,22.1840196 L82.4003381,22.1840196 Z M77.5604619,23.3689548 C77.5262982,22.8461676 77.7045573,22.3317166 78.0548559,21.9421469 C78.4051544,21.5525772 78.8978446,21.3208605 79.4213108,21.2994905 C80.0388123,21.2994905 80.5561783,21.6082412 80.7314152,22.0505058 L77.5604619,23.3689548 Z M73.7052501,26.8069358 L75.265693,26.8069358 L75.265693,16.3761682 L73.7052501,16.3761682 L73.7052501,26.8069358 Z M71.1517982,20.7153675 L71.0933859,20.7153675 C70.6133856,20.1945131 69.9322895,19.9056554 69.2241924,19.9226292 C67.3140719,19.9948324 65.8084947,21.5743936 65.8279344,23.4857794 C65.8133059,25.3909803 67.3199872,26.9605942 69.2241924,27.0238958 C69.9359966,27.0422209 70.6197468,26.7461327 71.0933859,26.2144682 L71.1517982,26.2144682 L71.1517982,26.7234897 C71.1517982,28.0836618 70.4258168,28.8096432 69.2575708,28.8096432 C68.4586792,28.7943738 67.7489463,28.2959102 67.4634788,27.5496065 L66.1116513,28.1086956 C66.6328031,29.3860362 67.8780234,30.218385 69.2575708,30.2115803 C71.0850413,30.2115803 72.6287949,29.1267386 72.6287949,26.5148743 L72.6287949,20.1312445 L71.1517982,20.1312445 L71.1517982,20.7153675 Z M69.3577062,25.6220006 C68.2895956,25.6220006 67.3883773,24.7207823 67.3883773,23.4857794 C67.3883773,22.2340873 68.2895956,21.3161797 69.3577062,21.3161797 C70.4258168,21.3161797 71.2602782,22.2340873 71.2602782,23.4857794 C71.2602782,24.7207823 70.4258168,25.6220006 69.3577062,25.6220006 Z M89.71022,16.3761682 L85.9718329,16.3761682 L85.9718329,26.8069358 L87.5322758,26.8069358 L87.5322758,22.8515887 L89.7018754,22.8515887 C91.4292105,22.8515887 93.1231672,21.5998966 93.1231672,19.6138785 C93.1231672,17.6278603 91.4292105,16.3761682 89.7018754,16.3761682 L89.71022,16.3761682 Z M89.7435985,21.3996259 L87.5322758,21.3996259 L87.5322758,17.828131 L89.7435985,17.828131 C90.9118445,17.828131 91.5794136,18.7877617 91.5794136,19.6138785 C91.5794136,20.423306 90.9118445,21.3996259 89.7435985,21.3996259 L89.7435985,21.3996259 Z M99.3732832,19.8975953 C98.2384157,19.8975953 97.0785143,20.3982722 96.5945267,21.4997613 L97.971388,22.0838842 C98.2717941,21.4997613 98.8225387,21.3161797 99.3899724,21.3161797 C100.1994,21.3161797 101.017172,21.8001674 101.033861,22.651318 L101.033861,22.759798 C100.532678,22.4944385 99.9737552,22.3568576 99.4066617,22.3592565 C97.9213203,22.3592565 96.4026006,23.1770287 96.4026006,24.7124377 C96.4026006,26.1059883 97.6209142,27.0072066 98.9894309,27.0072066 C100.040852,27.0072066 100.616631,26.5315636 100.983794,25.980819 L101.033861,25.980819 L101.033861,26.7902466 L102.535892,26.7902466 L102.535892,22.7848318 C102.535892,20.9406721 101.150686,19.90594 99.3649386,19.90594 L99.3732832,19.8975953 Z M99.1813571,25.6220006 C98.6723356,25.6220006 97.9630434,25.3716622 97.9630434,24.7374715 C97.9630434,23.928044 98.8475725,23.6192932 99.615277,23.6192932 C100.299535,23.6192932 100.616631,23.7694963 101.033861,23.969767 C100.916946,24.9065525 100.125363,25.6125593 99.1813571,25.6220006 L99.1813571,25.6220006 Z M108.009959,20.1312445 L106.224211,24.6540254 L106.174144,24.6540254 L104.321639,20.1312445 L102.644372,20.1312445 L105.423128,26.456462 L103.837652,29.9695446 L105.464852,29.9695446 L109.745639,20.1312445 L108.009959,20.1312445 Z M93.9910071,26.8069358 L95.5431053,26.8069358 L95.5431053,16.3761682 L93.9910071,16.3761682 L93.9910071,26.8069358 Z" id="Shape-Copy-3" fill="#FFFFFF"></path>
            <g id="Group-6-Copy" transform="translate(8.000000, 7.000000)">
                <path d="M0.422840703,0.357918336 C0.128220868,0.706261138 -0.022106448,1.15404463 0.00263298446,1.6096009 L0.00263298446,21.3861855 C-0.022106448,21.8417417 0.128220868,22.2895252 0.422840703,22.637868 L0.485424832,22.7093927 L11.5628156,11.6230614 L11.5628156,11.3727249 L0.476484242,0.295334208 L0.422840703,0.357918336 Z" id="Path" fill="url(#linearGradient-1)"></path>
                <path d="M15.2552791,15.3244656 L11.5628156,11.632002 L11.5628156,11.3637843 L15.2552791,7.67132076 L15.344685,7.7249643 L19.6987522,10.2104483 C20.9504348,10.9256954 20.9504348,12.0879721 19.6987522,12.7942787 L15.3268038,15.2797627 L15.2373979,15.3244656 L15.2552791,15.3244656 Z" id="Path" fill="url(#linearGradient-2)"></path>
                <path d="M15.3357444,15.2797627 L11.5628156,11.4978932 L0.422840703,22.637868 C0.834107833,23.0848975 1.51359265,23.1296005 2.27354278,22.7004522 L15.3357444,15.2797627" id="Path" fill="url(#linearGradient-3)"></path>
                <path d="M15.3357444,7.7249643 L2.28248337,0.304274798 C1.51359265,-0.133814101 0.834107833,-0.0801705622 0.422840703,0.357918336 L11.5628156,11.4978932 L15.3357444,7.7249643 L15.3357444,7.7249643 Z" id="Path" fill="url(#linearGradient-4)"></path>
                <path d="M15.2552791,15.1903568 L2.2646022,22.5663433 C1.54935501,22.9776104 0.896691961,22.9507887 0.476484242,22.5752839 L0.413900114,22.637868 L0.476484242,22.7093927 C0.896691961,23.0848975 1.54935501,23.1117193 2.2646022,22.7004522 L15.3268038,15.2797627 L15.2373979,15.1903568 L15.2552791,15.1903568 Z" id="Path" fill="#000000" opacity="0.2"></path>
                <path d="M0.422840703,22.5126998 C0.128220868,22.164357 -0.022106448,21.7165735 0.00263298446,21.2610172 L0.00263298446,21.3861855 C-0.022106448,21.8417417 0.128220868,22.2895252 0.422840703,22.637868 L0.485424832,22.5752839 L0.422840703,22.5126998 Z M19.7076928,12.6601699 L15.2552791,15.1903568 L15.344685,15.2797627 L19.6987522,12.7853381 C20.3245935,12.4277145 20.6375142,11.9628039 20.6375142,11.4978932 C20.5838706,11.9181009 20.27095,12.3383086 19.6987522,12.6601699 L19.7076928,12.6601699 Z" id="Shape" fill="#000000" opacity="0.12"></path>
                <path d="M2.27354278,0.429443054 L19.7076928,10.3356165 C20.2798906,10.6574777 20.6017518,11.0776855 20.6464548,11.4978932 C20.6464548,11.0329825 20.3335341,10.5591313 19.7076928,10.2104483 L2.27354278,0.304274798 C1.02186022,-0.410972384 0.00263298446,0.179106541 0.00263298446,1.6096009 L0.00263298446,1.74370975 C0.00263298446,0.313215387 1.03080081,-0.276863537 2.27354278,0.429443054 Z" id="Path" fill="#FFFFFF" opacity="0.25"></path>
            </g>
            <path d="M40.6169657,12.6 C40.2150082,12.6 39.8861338,12.4903752 39.6029364,12.2711256 C39.319739,12.051876 39.1187602,11.732137 39,11.3301794 L39.639478,11.0652529 C39.8130506,11.640783 40.141925,11.9331158 40.6443719,11.9331158 C40.9732463,11.9331158 41.2290375,11.823491 41.4026101,11.6133768 C41.5853181,11.4032626 41.6675367,11.1109299 41.6675367,10.7546493 L41.6675367,7 L42.3709625,7 L42.3709625,10.7363785 C42.3709625,11.3301794 42.2065253,11.7960848 41.8776509,12.1158238 C41.5487765,12.4446982 41.1285481,12.6 40.6169657,12.6 L40.6169657,12.6 Z M46.7285481,7.67601958 L44.234584,7.67601958 L44.234584,9.41174551 L46.4910277,9.41174551 L46.4910277,10.0694943 L44.234584,10.0694943 L44.234584,11.8052202 L46.7376835,11.8052202 L46.7376835,12.4812398 L43.5402936,12.4812398 L43.5402936,7 L46.7376835,7 L46.7376835,7.67601958 L46.7285481,7.67601958 Z M49.7066884,12.4812398 L49.0032626,12.4812398 L49.0032626,7.67601958 L47.4593801,7.67601958 L47.4593801,7 L51.2231648,7 L51.2231648,7.67601958 L49.697553,7.67601958 L49.697553,12.4812398 L49.7066884,12.4812398 Z M51.8169657,12.4812398 L51.8169657,11.7504078 L54.7402936,7.67601958 L51.9357259,7.67601958 L51.9357259,7 L55.5533442,7 L55.5533442,7.73083197 L52.6300163,11.8052202 L55.5807504,11.8052202 L55.5807504,12.4812398 L51.8169657,12.4812398 L51.8169657,12.4812398 Z M58.4584013,12.4812398 L57.7549755,12.4812398 L57.7549755,7.67601958 L56.2293638,7.67601958 L56.2293638,7 L59.9931485,7 L59.9931485,7.67601958 L58.4584013,7.67601958 L58.4584013,12.4812398 L58.4584013,12.4812398 Z M62.7154976,12.4812398 L62.7154976,7 L64.6978793,7 C65.1272431,7 65.5017945,7.14616639 65.812398,7.42022838 C66.132137,7.71256117 66.2874388,8.05970636 66.2874388,8.48907015 C66.2874388,8.75399674 66.223491,8.98238173 66.08646,9.18336052 C65.9507814,9.3845304 65.7606747,9.5429526 65.5383361,9.64013051 L65.5383361,9.6675367 C65.812398,9.7588907 66.0316476,9.9141925 66.2143556,10.1425775 C66.6315266,10.7438104 66.5291659,11.5626954 65.9768352,12.0427406 C65.6479608,12.3350734 65.2551387,12.4812398 64.8075041,12.4812398 L62.7154976,12.4812398 L62.7154976,12.4812398 Z M63.4189233,9.34779772 L64.6978793,9.34779772 C64.9719413,9.34779772 65.1820555,9.25644372 65.3373573,9.08287113 C65.5017945,8.90929853 65.5840131,8.71745514 65.5840131,8.50734095 C65.5840131,8.29722675 65.5017945,8.10538336 65.3464927,7.93181077 C65.1902355,7.76036892 64.9662022,7.66674306 64.7344209,7.67601958 L63.4189233,7.67601958 L63.4189233,9.34779772 Z M63.4189233,11.8143556 L64.8440457,11.8143556 C65.1181077,11.8143556 65.3282219,11.7138662 65.5017945,11.5220228 C65.659531,11.353545 65.7476532,11.1316077 65.7484502,10.9008157 C65.7484502,10.6815661 65.6570962,10.4714519 65.4926591,10.2887439 C65.3149841,10.1021173 65.0648733,10.002073 64.8075041,10.0146819 L63.4189233,10.0146819 L63.4189233,11.8052202 L63.4189233,11.8143556 Z M70.6176183,7.67601958 L68.1236542,7.67601958 L68.1236542,9.41174551 L70.3709625,9.41174551 L70.3709625,10.0694943 L68.1236542,10.0694943 L68.1236542,11.8052202 L70.6176183,11.8052202 L70.6176183,12.4812398 L67.4202284,12.4812398 L67.4202284,7 L70.6176183,7 L70.6176183,7.67601958 Z M71.7230016,12.4812398 L71.7230016,7 L72.4264274,7 L72.4264274,12.4812398 L71.7230016,12.4812398 Z" id="Shape-Copy-4" stroke="#FFFFFF" stroke-width="0.2" fill="#FFFFFF"></path>
        </g>
    </g>
</svg>