<?xml version="1.0" encoding="UTF-8"?>
<svg width="123px" height="38px" viewBox="0 0 123 38" version="1.1" xmlns="http://www.w3.org/2000/svg" xmlns:xlink="http://www.w3.org/1999/xlink">
    <title>Huawei</title>
    <g id="Page-1" stroke="none" stroke-width="1" fill="none" fill-rule="evenodd">
        <g id="Huawei" transform="translate(1.000000, 1.000000)">
            <path d="M112.46466,0 L8.541148,0 C8.212754,0 7.888232,0 7.560564,0.00168 C7.286378,0.0036 7.01437,0.00864 6.73728,0.01296 C6.141234,0.02784 5.537686,0.06432 4.942366,0.16992 C4.34269,0.27408 3.785364,0.45192 3.239412,0.72696 C2.70314,0.9996 2.213332,1.35336 1.78959,1.77432 C1.360766,2.19504 1.00551,2.68248 0.733986,3.21456 C0.455444,3.7548 0.278542,4.31016 0.173998,4.90536 C0.066066,5.4936 0.028798,6.0888 0.013552,6.684 C0.005082,6.9564 0.004356,7.22952 7.10542736e-15,7.50192 C7.10542736e-15,7.824 7.10542736e-15,8.14656 7.10542736e-15,8.472 L7.10542736e-15,27.52872 C7.10542736e-15,27.8568 7.10542736e-15,28.17768 7.10542736e-15,28.50072 C0.004356,28.77624 0.005082,29.04384 0.013552,29.3196 C0.028798,29.9148 0.066066,30.51 0.173998,31.098 C0.278542,31.69344 0.455444,32.2512 0.733986,32.79 C1.00551,33.3192 1.360766,33.80664 1.78959,34.22424 C2.213332,34.64832 2.70314,35.00136 3.239412,35.27136 C3.785364,35.5488 4.34269,35.72424 4.942366,35.83176 C5.537686,35.9376 6.141234,35.9724 6.73728,35.98872 C7.01437,35.99496 7.286378,35.99808 7.560564,35.99808 C7.888232,36 8.212754,36 8.541148,36 L112.46466,36 C112.78652,36 113.11322,36 113.43508,35.99808 C113.70854,35.99808 113.98684,35.99496 114.2603,35.98872 C114.86046,35.9724 115.46304,35.9376 116.0511,35.83176 C116.65126,35.72424 117.21028,35.5488 117.76204,35.27136 C118.29686,35.00136 118.7857,34.64832 119.2092,34.22424 C119.63754,33.80664 119.99328,33.3192 120.26916,32.79 C120.54262,32.2512 120.7217,31.69344 120.82334,31.098 C120.93466,30.51 120.96854,29.9148 120.99032,29.3196 C120.99274,29.04384 120.99274,28.77624 120.99274,28.50072 C121,28.17768 121,27.8568 121,27.52872 L121,8.472 C121,8.14656 121,7.824 120.99274,7.50192 C120.99274,7.22952 120.99274,6.9564 120.99032,6.684 C120.96854,6.0888 120.93466,5.4936 120.82334,4.90536 C120.7217,4.31016 120.54262,3.7548 120.26916,3.21456 C119.99328,2.68248 119.63754,2.19504 119.2092,1.77432 C118.7857,1.35336 118.29686,0.9996 117.76204,0.72696 C117.21028,0.45192 116.65126,0.27408 116.0511,0.16992 C115.46304,0.06432 114.86046,0.02784 114.2603,0.01296 C113.98684,0.00864 113.70854,0.0036 113.43508,0.00168 C113.11322,0 112.78652,0 112.46466,0" id="Fill-30-Copy" stroke="#D8D8D8" fill="#000000"></path>
            <g id="Group-8-Copy" transform="translate(39.000000, 16.000000)" fill="#FFFFFE">
                <path d="M3.28168968,6.76612079 L6.30528189,6.76612079 L5.22284095,3.86823289 C5.07384098,3.46805496 4.92737817,3.02589871 4.7829912,2.54153349 C4.65267389,2.97008139 4.51059343,3.40739398 4.35698046,3.85439388 L3.28168968,6.76612079 Z M6.82193812,8.14171801 L2.77195295,8.14171801 L1.7806188,10.8509341 L0,10.8509341 L3.96602853,0.73323668 L5.64885169,0.73323668 L9.70575637,10.8509341 L7.83449208,10.8509341 L6.82193812,8.14171801 L6.82193812,8.14171801 Z" id="Fill-33"></path>
                <path d="M14.9583512,9.01103825 C15.3098619,8.53866684 15.4856173,7.84833108 15.4856173,6.94072292 C15.4856173,6.09815809 15.3400771,5.48716597 15.0492273,5.1075159 C14.7581469,4.72832713 14.3706547,4.53873274 13.8865201,4.53873274 C13.5513855,4.53873274 13.2418531,4.61784573 12.9579228,4.7760717 C12.6739926,4.93429767 12.4039013,5.14603447 12.1478797,5.41151274 L12.1478797,9.44742825 C12.3201753,9.53115424 12.5203796,9.59758147 12.7484925,9.64624864 C12.9766055,9.69537711 13.2024119,9.71982602 13.4256812,9.71982602 C14.0961811,9.71982602 14.6068404,9.48340967 14.9583512,9.01103825 Z M10.4233088,5.16010412 C10.4233088,4.60146957 10.4046262,3.98701769 10.3674915,3.31674849 L11.9873472,3.31674849 C12.0477775,3.62858743 12.0897558,3.94757653 12.1130515,4.27325447 C12.7833207,3.54255494 13.5513855,3.17697453 14.417246,3.17697453 C14.9200633,3.17697453 15.3855152,3.30383209 15.8138324,3.5575472 C16.241919,3.81126232 16.5876635,4.2116709 16.8506046,4.75854229 C17.1137764,5.30564434 17.245247,6.0005931 17.245247,6.84292728 C17.245247,7.72262678 17.0950937,8.47454611 16.7947873,9.09822399 C16.4944809,9.72213252 16.074467,10.1945039 15.5345151,10.5157995 C14.9945632,10.8368645 14.3706547,10.9976276 13.6632508,10.9976276 C13.150977,10.9976276 12.6458532,10.9113645 12.1478797,10.7392995 L12.1478797,13.8533065 L10.4233088,14 L10.4233088,5.16010412 L10.4233088,5.16010412 Z" id="Fill-34"></path>
                <path d="M22.8269795,9.01103825 C23.1784902,8.53866684 23.3542456,7.84833108 23.3542456,6.94072292 C23.3542456,6.09815809 23.2087054,5.48716597 22.9178556,5.1075159 C22.6267752,4.72832713 22.239283,4.53873274 21.7551484,4.53873274 C21.4200138,4.53873274 21.1104814,4.61784573 20.8265511,4.7760717 C20.5423902,4.93429767 20.2725296,5.14603447 20.016508,5.41151274 L20.016508,9.44742825 C20.1888036,9.53115424 20.3887772,9.59758147 20.6171208,9.64624864 C20.8450031,9.69537711 21.0708096,9.71982602 21.2943095,9.71982602 C21.9645787,9.71982602 22.4754687,9.48340967 22.8269795,9.01103825 Z M18.2917065,5.16010412 C18.2917065,4.60146957 18.2730238,3.98701769 18.2358892,3.31674849 L19.8559755,3.31674849 C19.9164058,3.62858743 19.9583841,3.94757653 19.9816798,4.27325447 C20.651949,3.54255494 21.4200138,3.17697453 22.2858743,3.17697453 C22.7886916,3.17697453 23.2539128,3.30383209 23.6824607,3.5575472 C24.1105473,3.81126232 24.4562918,4.2116709 24.7194636,4.75854229 C24.982174,5.30564434 25.1138753,6.0005931 25.1138753,6.84292728 C25.1138753,7.72262678 24.9634914,8.47454611 24.6634156,9.09822399 C24.3631092,9.72213252 23.9428647,10.1945039 23.4031434,10.5157995 C22.8629609,10.8368645 22.239283,10.9976276 21.5316485,10.9976276 C21.0196053,10.9976276 20.5144815,10.9113645 20.016508,10.7392995 L20.016508,13.8533065 L18.2917065,14 L18.2917065,5.16010412 L18.2917065,5.16010412 Z" id="Fill-35"></path>
                <path d="M28.2820851,10.3725658 C27.5370852,9.96085538 26.9646117,9.37062177 26.5644338,8.60255692 C26.1637945,7.83449208 25.9638209,6.92665327 25.9638209,5.87927115 C25.9638209,4.74355003 26.1942403,3.77874065 26.6550792,2.98484299 C27.1159182,2.19140664 27.7432864,1.59540677 28.5367228,1.19753534 C29.3306204,0.79943326 30.2206992,0.60038222 31.2078816,0.60038222 C31.7895812,0.60038222 32.344756,0.664502949 32.8731754,0.792513757 C33.4013641,0.920524564 33.8935715,1.09627994 34.350028,1.31977989 L33.9099476,2.64647929 C32.9928828,2.20893604 32.1177963,1.9900491 31.2846881,1.9900491 C30.5816666,1.9900491 29.9660615,2.14020231 29.4378727,2.44050875 C28.9094534,2.74081518 28.4984349,3.18181818 28.2052786,3.76351774 C27.9118917,4.34567861 27.7654288,5.04846947 27.7654288,5.87235164 C27.7654288,6.59405582 27.8782167,7.23387921 28.1037925,7.79251376 C28.3298296,8.35114831 28.6859534,8.79353521 29.1723945,9.11921315 C29.6588355,9.44512175 30.2721342,9.60796072 31.0122904,9.60796072 C31.347425,9.60796072 31.6825596,9.58005206 32.0176942,9.52423474 C32.3528288,9.46841741 32.6672049,9.38699792 32.9603611,9.27974563 L32.9603611,7.23387921 L30.6213384,7.23387921 L30.6213384,5.8933408 L34.6362648,5.8933408 L34.6362648,10.1527563 C34.0589476,10.4226169 33.4525685,10.6299713 32.8173581,10.7741276 C32.1816864,10.918284 31.5499357,10.9904774 30.9214142,10.9904774 C29.9065538,10.9904774 29.0266236,10.7847376 28.2820851,10.3725658" id="Fill-36"></path>
                <path d="M39.7317869,9.45434775 C40.0899865,9.28228278 40.3833734,9.06800883 40.6114864,8.81198722 L40.6114864,7.41540084 C40.1411908,7.36442716 39.7571584,7.33859435 39.4593891,7.33859435 C38.7471416,7.33859435 38.2547036,7.45368875 37.9827671,7.68433886 C37.7101387,7.91452766 37.5740552,8.225444 37.5740552,8.61639593 C37.5740552,8.9891265 37.6730041,9.26475337 37.8709018,9.4439685 C38.0687996,9.62318363 38.337507,9.71267587 38.6772546,9.71267587 C39.0216152,9.71267587 39.373126,9.62664338 39.7317869,9.45434775 Z M40.7650993,10.8509341 C40.7044384,10.5575472 40.6647665,10.2249498 40.6463145,9.85244983 C40.3810669,10.1691324 40.0355531,10.4378398 39.6093117,10.6590332 C39.1837622,10.879996 38.7028568,10.9904774 38.1675179,10.9904774 C37.7345876,10.9904774 37.340176,10.9055982 36.9838215,10.7356091 C36.6281591,10.5658506 36.3451514,10.309829 36.1357211,9.96754424 C35.9262908,9.62549013 35.821345,9.20778279 35.821345,8.71419157 C35.821345,7.98349204 36.0842861,7.40040858 36.610399,6.96494118 C37.1365119,6.52970444 38.0139049,6.31220139 39.2428087,6.31220139 C39.7036476,6.31220139 40.1598735,6.34495371 40.6114864,6.40999703 L40.6114864,6.26330357 C40.6114864,5.59764737 40.4694059,5.12873571 40.1854756,4.85633794 C39.9015454,4.58417081 39.4942173,4.4478566 38.963722,4.4478566 C38.5958351,4.4478566 38.2025767,4.50159808 37.7834855,4.60838907 C37.3646249,4.71564137 36.9967379,4.84365218 36.680286,4.9924215 L36.4078882,3.73560908 C36.7151142,3.59606577 37.1201358,3.46805496 37.622953,3.35157666 C38.1257702,3.23532901 38.6562654,3.17697453 39.2149,3.17697453 C39.8667172,3.17697453 40.4205081,3.27592342 40.876734,3.47359056 C41.3329599,3.671719 41.6890837,4.01169726 41.9451053,4.49306402 C42.2011269,4.97512274 42.3291377,5.62348018 42.3291377,6.4379057 L42.3291377,9.4333586 C42.3291377,9.74542819 42.3475897,10.2180302 42.384955,10.8509341 L40.7650993,10.8509341 L40.7650993,10.8509341 Z" id="Fill-37"></path>
                <path d="M43.6523773,9.04240667 L43.6523773,0.139543313 L45.3700287,1.06526391e-14 L45.3700287,8.73518073 C45.3700287,9.05647633 45.4246927,9.28320538 45.5340209,9.41605984 C45.643349,9.548453 45.8167979,9.61511088 46.0543675,9.61511088 C46.1613892,9.61511088 46.3126956,9.58950872 46.5080563,9.53830439 L46.7105671,10.7741276 C46.5474974,10.8394016 46.3486771,10.8917592 46.1138753,10.9312004 C45.8786121,10.9706415 45.6562654,10.9904774 45.4468352,10.9904774 C44.2502224,10.9904774 43.6523773,10.3411974 43.6523773,9.04240667" id="Fill-38"></path>
                <path d="M47.946621,9.04240667 L47.946621,0.139543313 L49.6642723,1.06526391e-14 L49.6642723,8.73518073 C49.6642723,9.05647633 49.7189364,9.28320538 49.8282645,9.41605984 C49.9378233,9.548453 50.1112722,9.61511088 50.3486112,9.61511088 C50.4556328,9.61511088 50.6069393,9.58950872 50.8025306,9.53830439 L51.0050414,10.7741276 C50.8419717,10.8394016 50.6429207,10.8917592 50.4081189,10.9312004 C50.1728558,10.9706415 49.9505091,10.9904774 49.7410788,10.9904774 C48.5446967,10.9904774 47.946621,10.3411974 47.946621,9.04240667" id="Fill-39"></path>
                <path d="M56.3874922,6.20748624 C56.3528947,5.60710402 56.2029721,5.15664437 55.9331115,4.85633794 C55.6632508,4.55626215 55.3011302,4.40587828 54.8513625,4.40587828 C54.4131273,4.40587828 54.0487001,4.5574154 53.758081,4.85979769 C53.4674619,5.16264127 53.2760223,5.61171703 53.1883752,6.20748624 L56.3874922,6.20748624 Z M58.0689314,7.30376619 L53.1399387,7.30376619 C53.2183597,8.8818742 53.9702791,9.6709282 55.3956967,9.6709282 C55.7485914,9.6709282 56.110712,9.62779663 56.4820587,9.54176414 C56.8510989,9.455501 57.2063,9.3404066 57.5453557,9.19601964 L57.9236219,10.3760256 C57.0794425,10.7858908 56.1337771,10.9904774 55.0820126,10.9904774 C54.2793502,10.9904774 53.6058519,10.8394016 53.0569047,10.5367887 C52.5056509,10.2341758 52.0927872,9.79893901 51.8160071,9.2308478 C51.5396883,8.6632179 51.4010676,7.97887904 51.4010676,7.17806188 C51.4010676,6.34495371 51.547761,5.62786253 51.8413786,5.02748031 C52.1343043,4.42686744 52.5425549,3.96856569 53.0661307,3.65188309 C53.5897064,3.33543115 54.1940097,3.17697453 54.8790405,3.17697453 C55.5917493,3.17697453 56.1845201,3.3435039 56.6619658,3.676332 C57.1394115,4.0091601 57.4923062,4.45270025 57.7229563,5.00649115 C57.9536064,5.5605127 58.0689314,6.17265808 58.0689314,6.84292728 L58.0689314,7.30376619 L58.0689314,7.30376619 Z" id="Fill-40"></path>
                <path d="M59.374411,5.20900194 C59.374411,4.79475436 59.3536525,4.16415697 59.3167485,3.31674849 L60.9312992,3.31674849 C60.9589772,3.52617879 60.9843487,3.77643415 61.0120268,4.06751458 C61.0373983,4.35813371 61.0535438,4.59455007 61.0627698,4.7760717 C61.2634354,4.4455501 61.459488,4.16738608 61.653234,3.94181027 C61.8469801,3.71577317 62.0730172,3.53194504 62.3313453,3.38986458 C62.5896735,3.24801476 62.8825991,3.17697453 63.2147352,3.17697453 C63.4799829,3.17697453 63.70602,3.20488319 63.8974596,3.26093117 L63.6806485,4.75508254 C63.5145804,4.70387822 63.3277538,4.67827606 63.1224752,4.67827606 C62.7188375,4.67827606 62.3636364,4.78183795 62.0614847,4.9891924 C61.7593331,5.19608554 61.4364229,5.53721704 61.0904478,6.01189496 L61.0904478,10.8509341 L59.374411,10.8509341 L59.374411,5.20900194" id="Fill-41"></path>
                <path d="M64.86619,13.9335728 C64.6147814,13.8895186 64.4071963,13.8394675 64.2457412,13.7836502 L64.5594254,12.5268378 C64.6747504,12.5591288 64.8223665,12.5907279 64.999967,12.620943 C65.1752611,12.6513888 65.3436357,12.6663811 65.5027843,12.6663811 C66.2662361,12.6663811 66.8382484,12.1750964 67.218821,11.1929882 L67.3318396,10.913671 L64.5525058,3.31674849 L66.4023197,3.31674849 L67.8000593,7.5620943 C68.0260964,8.28841148 68.1737125,8.84473953 68.2382945,9.2308478 C68.3697651,8.68628291 68.5219941,8.14171801 68.6995947,7.59692247 L70.1180929,3.31674849 L71.8548881,3.31674849 L69.0847804,10.9487298 C68.8241458,11.6702033 68.5404461,12.2519029 68.2382945,12.6942898 C67.9361429,13.136446 67.5786352,13.4646611 67.168078,13.6789351 C66.7552143,13.8927477 66.2593166,14 65.6757719,14 C65.3874592,14 65.1175986,13.9780882 64.86619,13.9335728" id="Fill-42"></path>
            </g>
            <g id="Group-5-Copy" transform="translate(39.000000, 7.000000)" fill="#FFFFFF" fill-rule="nonzero">
                <path d="M7.16226611,5.41178101 L7.16226611,4.64774775 L4.7464657,4.64774775 L4.7464657,2.98870409 L6.58742204,2.98870409 L6.58742204,2.26832987 L4.7464657,2.26832987 L4.7464657,0.765731116 L6.99126819,0.765731116 L6.99126819,0.0271656272 L3.62588358,0.0271656272 L3.62588358,5.41178101 L7.16226611,5.41178101 Z M10.734255,5.41178101 L10.734255,0.765731116 L12.6625295,0.765731116 L12.6625295,0.0271656272 L7.68176022,0.0271656272 L7.68176022,0.765731116 L9.61003465,0.765731116 L9.61003465,5.41178101 L10.734255,5.41178101 Z M17.033964,5.41178101 L17.033964,4.64774775 L14.3562093,4.64774775 L17.033964,0.765731116 L17.033964,0.0271656272 L13.2065211,0.0271656272 L13.2065211,0.765731116 L15.7314692,0.765731116 L13.0537145,4.64774775 L13.0537145,5.41178101 L17.033964,5.41178101 Z M20.5285793,5.41178101 L20.5285793,0.765731116 L22.4568538,0.765731116 L22.4568538,0.0271656272 L17.4760845,0.0271656272 L17.4760845,0.765731116 L19.404359,0.765731116 L19.404359,5.41178101 L20.5285793,5.41178101 Z M26.1406098,5.41178101 L26.1406098,0.0271656272 L25.0200277,0.0271656272 L25.0200277,5.41178101 L26.1406098,5.41178101 Z M28.3145392,5.41178101 L28.3145392,1.73350658 L30.7921899,5.41178101 L31.7963479,5.41178101 L31.7963479,0.0271656272 L30.8976992,0.0271656272 L30.8976992,3.70544006 L28.4018572,0.0271656272 L27.4158905,0.0271656272 L27.4158905,5.41178101 L28.3145392,5.41178101 Z M37.4202633,5.41178101 C38.2667637,5.41178101 38.9252876,5.16619889 39.3958351,4.67503465 C39.8663825,4.18387041 40.1016563,3.49442134 40.1016563,2.60668746 C40.1016563,1.77231462 39.8797228,1.13380111 39.4358559,0.691146916 C38.9919889,0.248492723 38.352869,0.0271656272 37.5184962,0.0271656272 L37.5184962,0.0271656272 L35.2009286,0.0271656272 L35.2009286,5.41178101 L37.4202633,5.41178101 Z M37.1583091,4.64774775 L36.3215107,4.64774775 L36.3215107,0.765731116 L36.9982259,0.765731116 C37.4299653,0.765731116 37.7586209,0.810602911 37.9841927,0.9003465 C38.2097644,0.99009009 38.4025918,1.15259875 38.562675,1.38787249 C38.7955232,1.72986833 38.9119473,2.15796951 38.9119473,2.67217602 C38.9119473,3.33676369 38.7670236,3.83217256 38.477176,4.15840263 C38.1873285,4.48463271 37.7477062,4.64774775 37.1583091,4.64774775 L37.1583091,4.64774775 Z M44.5713236,5.41178101 L44.5713236,4.64774775 L42.1555232,4.64774775 L42.1555232,2.98870409 L43.9964796,2.98870409 L43.9964796,2.26832987 L42.1555232,2.26832987 L42.1555232,0.765731116 L44.4003257,0.765731116 L44.4003257,0.0271656272 L41.0349411,0.0271656272 L41.0349411,5.41178101 L44.5713236,5.41178101 Z M46.9873181,5.41178101 L46.9873181,3.21063756 L47.6058212,3.21063756 L48.9410603,5.41178101 L50.3054054,5.41178101 L48.5444906,2.89774775 C48.869508,2.7522176 49.1247921,2.54301802 49.310343,2.270149 C49.495894,1.99727997 49.5886694,1.69469854 49.5886694,1.36240471 C49.5886694,0.472245322 49.0417186,0.0271656272 47.947817,0.0271656272 L47.947817,0.0271656272 L45.9322245,0.0271656272 L45.9322245,5.41178101 L46.9873181,5.41178101 Z M47.2456341,2.47207207 L46.9873181,2.47207207 L46.9873181,0.765731116 L47.3766112,0.765731116 C48.1018365,0.765731116 48.4644491,1.00585586 48.4644491,1.48610534 C48.4644491,2.14341649 48.0581774,2.47207207 47.2456341,2.47207207 L47.2456341,2.47207207 Z" id="ETZTINDER"></path>
                <path d="M0.845045045,5.6 C1.37477477,5.6 1.75630631,5.47387387 1.98963964,5.22162162 C2.22297297,4.96936937 2.33963964,4.55630631 2.33963964,3.98243243 L2.33963964,3.98243243 L2.33963964,0 L1.36531532,0 L1.36531532,4.08648649 C1.36531532,4.40810811 1.32327327,4.63093093 1.23918919,4.75495495 C1.15510511,4.87897898 1.00165165,4.94099099 0.778828829,4.94099099 C0.511861862,4.94099099 0.252252252,4.89159159 0,4.79279279 L0,4.79279279 L0.00630630631,5.48648649 C0.300600601,5.56216216 0.58018018,5.6 0.845045045,5.6 Z" id="J"></path>
            </g>
            <g id="Group-7-Copy" transform="translate(7.000000, 6.000000)">
                <path d="M16.5290105,0 L6.47098947,0 C1.73298947,0 0,1.73298947 0,6.47098947 L0,16.5290105 C0,21.2670105 1.73298947,23 6.47098947,23 L16.5258632,23 C21.2638632,23 23,21.2670105 23,16.5290105 L23,6.47098947 C23,1.73298947 21.2670105,0 16.5290105,0" id="Fill-54" fill="#B52532"></path>
                <path d="M10.0342947,13.3390316 L10.9567158,13.3390316 L10.4940526,12.2628737 L10.0342947,13.3390316 Z M9.8072,13.8813474 L9.53362105,14.5074316 L8.91068421,14.5074316 L10.2354842,11.5019368 L10.7736842,11.5019368 L12.0931579,14.5074316 L11.4535158,14.5074316 L11.1833263,13.8813474 L9.8072,13.8813474 Z M19.8310842,14.5052526 L20.4332,14.5052526 L20.4332,11.5019368 L19.8310842,11.5019368 L19.8310842,14.5052526 Z M17.4349684,13.2148316 L18.5445368,13.2148316 L18.5445368,12.6674316 L17.4349684,12.6674316 L17.4349684,12.0517579 L19.0456947,12.0517579 L19.0456947,11.5038737 L16.8330947,11.5038737 L16.8330947,14.5071895 L19.1038,14.5071895 L19.1038,13.9593053 L17.4349684,13.9593053 L17.4349684,13.2148316 Z M15.0427263,13.5697579 L14.3599895,11.5019368 L13.8622211,11.5019368 L13.1794842,13.5697579 L12.5151474,11.5033895 L11.8658211,11.5033895 L12.9138947,14.5088842 L13.4189263,14.5088842 L14.1026316,12.5345158 L14.7860947,14.5088842 L15.2957263,14.5088842 L16.3411368,11.5033895 L15.7085158,11.5033895 L15.0427263,13.5697579 Z M7.99165263,13.2230632 C7.99165263,13.7121158 7.74882105,13.9733474 7.30794737,13.9733474 C6.86465263,13.9733474 6.62061053,13.7046105 6.62061053,13.2022421 L6.62061053,11.5036316 L6.01050526,11.5036316 L6.01050526,13.2230632 C6.01050526,14.0689789 6.48043158,14.5539158 7.29971579,14.5539158 C8.12698947,14.5539158 8.60151579,14.0597789 8.60151579,13.1983684 L8.60151579,11.5019368 L7.99165263,11.5019368 L7.99165263,13.2230632 Z M4.55472632,11.5019368 L5.16458947,11.5019368 L5.16458947,14.5091263 L4.55472632,14.5091263 L4.55472632,13.2879474 L3.17690526,13.2879474 L3.17690526,14.5091263 L2.5668,14.5091263 L2.5668,11.5019368 L3.17690526,11.5019368 L3.17690526,12.7151263 L4.55472632,12.7151263 L4.55472632,11.5019368 L4.55472632,11.5019368 Z" id="Fill-55" fill="#FFFFFE"></path>
                <path d="M11.5,7.67328421 C9.38908421,7.67328421 7.67158947,5.95578947 7.67158947,3.84487368 L8.21245263,3.84487368 C8.21245263,5.65751579 9.68711579,7.13242105 11.5,7.13242105 C13.3128842,7.13242105 14.7875474,5.65751579 14.7875474,3.84487368 L15.3284105,3.84487368 C15.3284105,5.95578947 13.6109158,7.67328421 11.5,7.67328421" id="Fill-56" fill="#FFFFFE"></path>
            </g>
        </g>
    </g>
</svg>