<svg width="24" height="24" viewBox="0 0 24 24" fill="none" xmlns="http://www.w3.org/2000/svg">
<path fill-rule="evenodd" clip-rule="evenodd" d="M6.8 7L8.55 8.5H4.5C3.7 8.5 3.07716 9.07578 3.00666 9.85217L3 10V20C3 20.8 3.57578 21.4228 4.35217 21.4933L4.5 21.5H19.5C20.3 21.5 20.9228 20.9242 20.9933 20.1478L21 20V10C21 9.2 20.4242 8.57716 19.6478 8.50666L19.5 8.5H15.45L17.2 7H19.5C21.0911 7 22.4032 8.25529 22.4949 9.82441L22.5 10V20C22.5 21.5911 21.2447 22.9032 19.6756 22.9949L19.5 23H4.5C2.90893 23 1.59681 21.7447 1.50512 20.1756L1.5 20V10C1.5 8.40893 2.75529 7.09681 4.32441 7.00512L4.5 7H6.8ZM13 17V19H11V17H13ZM12 7.5C12.5523 7.5 13 7.94772 13 8.5C13 9.05228 12.5523 9.5 12 9.5C11.4477 9.5 11 9.05228 11 8.5C11 7.94772 11.4477 7.5 12 7.5ZM12 4.5C13.3737 4.5 14.6127 5.21801 15.3346 6.31391L15.45 6.5L14.3 7.5C13.9 6.65 13.05 6 12 6C11.0156 6 10.207 6.52734 9.78021 7.33484L9.7 7.5L8.55 6.5C9.2 5.3 10.55 4.5 12 4.5ZM12 1.5C14.304 1.5 16.3315 2.60592 17.596 4.28692L17.75 4.5L16.6 5.5C15.65 4 13.95 3 12 3C10.1348 3 8.4983 3.91493 7.52813 5.35098L7.4 5.55L6.25 4.55C7.5 2.7 9.6 1.5 12 1.5Z" fill="#262626"/>
</svg>
