<svg width="24" height="24" viewBox="0 0 24 24" fill="none" xmlns="http://www.w3.org/2000/svg">
<path fill-rule="evenodd" clip-rule="evenodd" d="M12 17C13.1046 17 14 17.8954 14 19C14 20.1046 13.1046 21 12 21C10.8954 21 9.99999 20.1046 9.99999 19C9.99999 17.8954 10.8954 17 12 17ZM12 12.5C14.16 12.5 16.0896 13.5598 17.2579 15.1929L17.4 15.4L15.95 16.9C15.2 15.45 13.7 14.5 12 14.5C10.3739 14.5 8.9308 15.4149 8.15202 16.7197L8.04999 16.9L6.59999 15.4C7.74999 13.65 9.74999 12.5 12 12.5ZM12 8C15.335 8 18.3429 9.49511 20.3463 11.853L20.55 12.1L19.15 13.55C17.5 11.4 14.95 10 12 10C9.15534 10 6.68264 11.3018 5.03019 13.3225L4.84999 13.55L3.44999 12.1C5.44999 9.6 8.54999 8 12 8ZM12 3.5C16.5618 3.5 20.6054 5.47829 23.4452 8.56624L23.7 8.85L22.3 10.3C19.85 7.35 16.15 5.5 12 5.5C7.97575 5.5 4.37464 7.23958 1.92614 10.0349L1.69999 10.3L0.299988 8.85C3.14999 5.6 7.29999 3.5 12 3.5Z" fill="#262626"/>
</svg>
