<svg width="24" height="24" viewBox="0 0 24 24" fill="none" xmlns="http://www.w3.org/2000/svg">
<path fill-rule="evenodd" clip-rule="evenodd" d="M8.92384 10.4755H10.4598V8.952H8.92384V10.4755ZM9.93289 6.48C10.2877 6.08452 10.7781 5.87895 11.4063 5.86122V11.3927C11.4063 11.6786 11.3865 11.8915 11.3478 12.0323C11.2738 12.3036 11.0932 12.4696 10.8063 12.5301C10.6654 12.5583 10.4463 12.5729 10.1489 12.5729V12.9955H13.848V12.5729C13.6414 12.5729 13.4953 12.5687 13.4098 12.5624C13.1218 12.5332 12.9151 12.4581 12.7951 12.335C12.6522 12.1899 12.5812 11.8758 12.5812 11.3927V5.86122C13.2115 5.87895 13.704 6.08452 14.0609 6.48C14.399 6.85774 14.6056 7.43687 14.6807 8.21739L15.0814 8.14852L15.0063 5.50017H8.99167L8.91654 8.14852L9.31723 8.21739C9.39132 7.43791 9.59689 6.85878 9.93289 6.48ZM13.559 10.4765H15.095V8.95304H13.559V10.4765ZM8.50019 19.5005H15.5009C15.9141 19.5005 16.2501 19.1645 16.2501 18.7503C16.2501 18.336 15.9141 18 15.5009 18H8.50019C8.08697 18 7.75097 18.336 7.75097 18.7503C7.75097 19.1645 8.08697 19.5005 8.50019 19.5005ZM8.50019 16.5005H15.5009C15.9141 16.5005 16.2501 16.1645 16.2501 15.7503C16.2501 15.336 15.9141 15 15.5009 15H8.50019C8.08697 15 7.75097 15.336 7.75097 15.7503C7.75097 16.1645 8.08697 16.5005 8.50019 16.5005ZM19.0007 20.5002C19.0007 21.3266 18.3277 21.9997 17.5002 21.9997H6.50089C5.67341 21.9997 5.00036 21.3266 5.00036 20.5002V2.00035H19.0007V20.5002ZM3.50089 0.499825V20.5002C3.50089 22.1572 4.84384 23.5002 6.50089 23.5002H17.5002C19.1572 23.5002 20.5002 22.1572 20.5002 20.5002V0.499825H3.50089Z" fill="#262626"/>
</svg>
