<svg width="24" height="24" viewBox="0 0 24 24" fill="none" xmlns="http://www.w3.org/2000/svg">
<path fill-rule="evenodd" clip-rule="evenodd" d="M19 12.1L20.5 13.6V19C20.5 20.5911 19.2447 21.9032 17.6756 21.9949L17.5 22H6.50001C4.90894 22 3.59682 20.7447 3.50513 19.1756L3.50001 19V13.6L5.00001 12.1V19C5.00001 19.8 5.57579 20.4228 6.35218 20.4933L6.50001 20.5H17.5C18.3 20.5 18.9228 19.9242 18.9934 19.1478L19 19V12.1ZM12 15.75C12.4971 15.75 12.9 16.1529 12.9 16.65C12.9 17.1471 12.4971 17.55 12 17.55C11.503 17.55 11.1 17.1471 11.1 16.65C11.1 16.1529 11.503 15.75 12 15.75ZM11.95 13.1C13.1778 13.1 14.2718 13.7244 14.895 14.6783L15 14.85L14 15.75C13.7 15 12.9 14.45 11.9 14.4C11.06 14.4 10.3507 14.8791 9.97527 15.5934L9.90001 15.75L8.90001 14.85C9.50001 13.8 10.65 13.1 11.95 13.1ZM12 10.5C14.0125 10.5 15.7954 11.4643 16.9086 12.9529L17.05 13.15L16.05 14C15.2 12.7 13.7 11.8 12 11.8C10.381 11.8 8.94332 12.571 8.07581 13.8106L7.95001 14L6.95001 13.15C8.05001 11.55 9.90001 10.5 12 10.5ZM12 0.849998L23.55 12.45L22.5 13.5L12 3L1.50001 13.5L0.450012 12.45L12 0.849998Z" fill="#262626"/>
</svg>
