<?xml version="1.0" encoding="UTF-8"?>
<svg width="554px" height="530px" viewBox="0 0 554 530" version="1.1" xmlns="http://www.w3.org/2000/svg" xmlns:xlink="http://www.w3.org/1999/xlink">
    <title>linkedin</title>
    <g id="Page-1" stroke="none" stroke-width="1" fill="none" fill-rule="evenodd">
        <g id="linkedin" transform="translate(0.0769, 0.3811)" fill="#FFFFFF" fill-rule="nonzero">
            <path d="M125.752967,529.237802 L7.0610989,529.237802 L7.0610989,172.145934 L125.752967,172.145934 L125.752967,529.237802 Z M66.407033,123.407473 L65.6228571,123.407473 C25.8074725,123.407473 0,95.9771429 0,61.6914286 C0,26.6531868 26.5617582,0 67.1841758,0 C107.815385,0 132.784176,26.6531868 133.561319,61.6914286 C133.561319,95.9771429 107.815385,123.407473 66.407033,123.407473 Z M553.846154,529.23956 L435.122637,529.23956 L435.122637,338.192527 C435.122637,290.208352 417.969231,257.454066 374.99956,257.454066 C342.183736,257.454066 322.683077,279.507692 314.092308,300.87033 C310.96967,308.501099 310.153846,319.108571 310.153846,329.809231 L310.153846,529.23956 L191.407473,529.23956 C191.407473,529.23956 192.998681,205.647473 191.407473,172.147692 L310.153846,172.147692 L310.153846,222.748132 C325.930549,198.472088 354.085275,163.764396 417.153407,163.764396 C495.284396,163.764396 553.846154,214.788571 553.846154,324.464176 L553.846154,529.23956 Z" id="Shape"></path>
        </g>
    </g>
</svg>