<svg viewBox="0 0 64 64" xmlns="http://www.w3.org/2000/svg">
<path fill="none" d="M0 0H64.001V64H0z"></path>
<linearGradient id="a" gradientUnits="userSpaceOnUse" x1="7.0552" y1="-1499.1914" x2="7.0552" y2="-1443.1914" gradientTransform="matrix(1 0 0 -1 24.9448 -1439.1914)">
<stop offset="0" stop-color="#46A800"></stop>
<stop offset="1" stop-color="#46A800"></stop>
</linearGradient>
<path fill="url(#a)" d="M32.002,4C16.535,4,4,16.535,4,32.002C4,47.467,16.535,60,32.002,60C47.467,60,60,47.467,60,32.002 C60,16.535,47.467,4,32.002,4z"></path>
<path opacity=".9" fill="#FFF" d="M27.002,43.5c-0.383,0-0.768-0.146-1.061-0.439l-9-9 c-0.586-0.586-0.586-1.535,0-2.121c0.586-0.586,1.535-0.586,2.121,0l7.94,7.939L45.941,20.94c0.586-0.586,1.535-0.586,2.121,0 c0.586,0.586,0.586,1.535,0,2.121l-20,20C27.771,43.354,27.387,43.5,27.002,43.5z"></path>
</svg>
