<svg width="24" height="24" viewBox="0 0 24 24" fill="none" xmlns="http://www.w3.org/2000/svg">
<path fill-rule="evenodd" clip-rule="evenodd" d="M18.7505 3.58C19.4405 3.58 20.0005 4.14 20.0005 4.83V20.5H17.5005V4.83C17.5005 4.14 18.0605 3.58 18.7505 3.58ZM14.2505 7.195C14.9405 7.195 15.5005 7.755 15.5005 8.445V20.5H13.0005V8.445C13.0005 7.755 13.5605 7.195 14.2505 7.195ZM9.7505 11.295C10.4405 11.295 11.0005 11.854 11.0005 12.545V20.5H8.5005V12.545C8.5005 11.854 9.0605 11.295 9.7505 11.295ZM5.2505 14.88C5.9405 14.88 6.5005 15.439 6.5005 16.13V20.5H4.0005V16.13C4.0005 15.439 4.5605 14.88 5.2505 14.88Z" fill="#262626"/>
</svg>
