<svg width="24" height="24" viewBox="0 0 24 24" fill="none" xmlns="http://www.w3.org/2000/svg">
<g clip-path="url(#clip0_1736_5037)">
<path fill-rule="evenodd" clip-rule="evenodd" d="M10 6C11.344 6 12.4115 7.01376 12.4948 8.33349L12.5 8.5V21.5C12.5 22.844 11.4862 23.9115 10.1665 23.9948L10 24H4C2.656 24 1.58848 22.9862 1.50523 21.6665L1.5 21.5V8.5C1.5 7.156 2.51376 6.08848 3.83349 6.00523L4 6H10ZM5.5 7.5H4C3.48929 7.5 3.0648 7.88801 3.00676 8.3838L3 8.5V21.5C3 22.0107 3.38801 22.4352 3.8838 22.4932L4 22.5H10C10.5107 22.5 10.9352 22.112 10.9932 21.6162L11 21.5V8.5C11 7.98929 10.612 7.5648 10.1162 7.50676L10 7.5H8.5V9H5.5V7.5ZM7 19.75C7.55228 19.75 8 20.1977 8 20.75C8 21.3023 7.55228 21.75 7 21.75C6.44772 21.75 6 21.3023 6 20.75C6 20.1977 6.44772 19.75 7 19.75ZM19.5 0C21.0911 0 22.4032 1.25529 22.4949 2.82441L22.5 3V17.5C22.5 19.0911 21.2447 20.4032 19.6756 20.4949L19.5 20.5H14V19H19.5C20.3 19 20.9228 18.4242 20.9933 17.6478L21 17.5V3C21 2.2 20.4242 1.57716 19.6478 1.50666L19.5 1.5H10C9.2 1.5 8.57716 2.07578 8.50666 2.85217L8.5 3V4.5H7V3C7 1.40893 8.25529 0.0968112 9.82441 0.00511798L10 0H19.5ZM14.75 16C15.3023 16 15.75 16.4477 15.75 17C15.75 17.5523 15.3023 18 14.75 18C14.1977 18 13.75 17.5523 13.75 17C13.75 16.4477 14.1977 16 14.75 16Z" fill="#262626"/>
</g>
<defs>
<clipPath id="clip0_1736_5037">
<rect width="24" height="24" fill="white"/>
</clipPath>
</defs>
</svg>
