<?xml version="1.0" encoding="UTF-8"?><svg id="Ebene_1" xmlns="http://www.w3.org/2000/svg" viewBox="0 0 20 20"><path d="m14.05,11.3l-1.7,1.7c-.25.25-.7.3-1,.05-.55-.45-1.4-1.15-2.3-2.05-.9-.9-1.6-1.75-2.05-2.3-.25-.3-.2-.75.05-1l1.7-1.7L5.4,0C4.3.1,1.95.35.7,2.25-.45,4.1.2,6.35.4,7c.85,2.35,2.65,5,5.1,7.5,2.5,2.5,5.15,4.3,7.45,5.1.35.1,1.25.4,2.25.4.8,0,1.7-.15,2.5-.65,1.9-1.2,2.15-3.55,2.25-4.7l-5.9-3.35Zm2.9,6.7c-1.25.8-3,.3-3.45.15-2.1-.7-4.55-2.4-6.9-4.75-2.3-2.3-4-4.75-4.7-6.9-.15-.5-.65-2.2.15-3.45.45-.75,1.35-1.25,2.6-1.45l2.3,4.05-.95.9c-.8.8-.9,2.1-.15,3,.5.6,1.25,1.5,2.15,2.45.95.95,1.85,1.7,2.45,2.15.9.7,2.2.65,3-.15l.9-.9,4.05,2.3c-.25,1.25-.7,2.15-1.45,2.6Z" style="fill:#e20074; fill-rule:evenodd;"/></svg>