<svg width="24" height="24" viewBox="0 0 24 24" fill="none" xmlns="http://www.w3.org/2000/svg">
<path fill-rule="evenodd" clip-rule="evenodd" d="M22.613 9.21498C22.396 8.54748 21.8035 8.08248 21.103 8.03148L15.6515 7.63198L13.587 2.57098C13.322 1.92148 12.697 1.50098 11.995 1.50098C11.293 1.50098 10.6685 1.92098 10.403 2.57098L8.33853 7.63248L2.88703 8.03148C2.18703 8.08298 1.59403 8.54748 1.37703 9.21498C1.16003 9.88248 1.36653 10.6065 1.90303 11.0595L6.07853 14.587L4.77403 19.8955C4.60653 20.577 4.86553 21.284 5.43253 21.697C6.00053 22.11 6.75353 22.1375 7.35003 21.7675L11.995 18.886L16.6405 21.7675C16.92 21.941 17.234 22.027 17.5465 22.027C17.9015 22.027 18.2555 21.9165 18.557 21.697C19.1245 21.2845 19.383 20.5775 19.2155 19.896L17.911 14.5875L22.0865 11.06C22.623 10.6065 22.8295 9.88248 22.613 9.21498ZM21.119 9.91348L16.233 14.0415L17.7595 20.2535C17.789 20.3715 17.73 20.4435 17.676 20.483C17.6215 20.523 17.5365 20.5575 17.4315 20.492L11.9955 17.1205L6.55953 20.492C6.45453 20.5565 6.36903 20.5225 6.31453 20.483C6.26053 20.4435 6.20153 20.3715 6.23103 20.2535L7.75753 14.042L2.87153 9.91398C2.77853 9.83548 2.78353 9.74298 2.80453 9.67898C2.82503 9.61498 2.87553 9.53698 2.99703 9.52798L9.37653 9.06048L11.7925 3.13748C11.8385 3.02448 11.928 3.00098 11.9955 3.00098C12.063 3.00098 12.152 3.02448 12.1985 3.13748L14.6145 9.06048L20.994 9.52798C21.1155 9.53698 21.166 9.61498 21.1865 9.67898C21.207 9.74248 21.212 9.83498 21.119 9.91348Z" fill="#262626"/>
</svg>
