<svg width="24" height="24" viewBox="0 0 24 24" fill="none" xmlns="http://www.w3.org/2000/svg">
<path fill-rule="evenodd" clip-rule="evenodd" d="M12 1C18.1 1 23 5.9 23 12C23 18.1 18.1 23 12 23C5.9 23 1 18.1 1 12C1 5.9 5.9 1 12 1ZM12 2.5C6.75 2.5 2.5 6.75 2.5 12C2.5 17.25 6.75 21.5 12 21.5C17.25 21.5 21.5 17.25 21.5 12C21.5 6.75 17.25 2.5 12 2.5ZM12 15C12.6904 15 13.25 15.5596 13.25 16.25C13.25 16.9404 12.6904 17.5 12 17.5C11.3096 17.5 10.75 16.9404 10.75 16.25C10.75 15.5596 11.3096 15 12 15ZM13 7V13.5H11V7H13Z" fill="#e20074"/>
</svg>
