<svg width="24" height="24" viewBox="0 0 24 24" fill="none" xmlns="http://www.w3.org/2000/svg">
<rect width="24" height="24" fill="white"/>
<path fill-rule="evenodd" clip-rule="evenodd" d="M18.15 3.4C16.65 1.55 14.4 0.5 12 0.5C9.6 0.5 7.4 1.55 5.9 3.4C4.4 5.25 3.8 7.65 4.3 10L5.65 16.45C4.4 16.7 3.5 17.85 3.5 19.1C3.5 20.5 4.55 21.65 5.95 21.8L10 22.2C10.25 23.15 11.05 23.8 12.1 23.8C13.3 23.8 14.25 22.85 14.25 21.65C14.25 20.45 13.3 19.5 12.1 19.5C11.25 19.5 10.55 20 10.2 20.7L6.15 20.3C5.55 20.25 5.05 19.7 5.05 19.1C5.05 18.55 5.45 18.05 6 17.9L9.4 17.2C10.2 17.05 10.75 16.25 10.6 15.45L9.85 11.75C9.7 10.95 8.9 10.4 8.1 10.55L6 11L5.75 9.7C5.35 7.8 5.85 5.85 7.05 4.35C8.3 2.85 10.1 2 12 2C13.9 2 15.75 2.85 16.95 4.35C18.15 5.85 18.65 7.8 18.25 9.7L18.05 11L16.1 10.6C15.3 10.45 14.5 10.95 14.35 11.8L13.55 15.5C13.4 16.3 13.9 17.1 14.75 17.25L18.15 17.95L19.75 10C20.25 7.65 19.65 5.25 18.15 3.4Z" fill="#e20074"/>
</svg>
