<svg width="24" height="24" viewBox="0 0 24 24" fill="none" xmlns="http://www.w3.org/2000/svg">
<rect width="24" height="24" fill="white"/>
<path fill-rule="evenodd" clip-rule="evenodd" d="M12 1C18.075 1 23 5.925 23 12C23 18.075 18.075 23 12 23C5.925 23 1 18.075 1 12C1 5.925 5.925 1 12 1ZM12 2.5C6.7615 2.5 2.5 6.7615 2.5 12C2.5 17.2385 6.7615 21.5 12 21.5C17.2385 21.5 21.5 17.2385 21.5 12C21.5 6.7615 17.2385 2.5 12 2.5ZM12 15C12.6904 15 13.25 15.5596 13.25 16.25C13.25 16.9404 12.6904 17.5 12 17.5C11.3096 17.5 10.75 16.9404 10.75 16.25C10.75 15.5596 11.3096 15 12 15ZM12.101 7.02C13.7965 7.02 15.027 8.143 15.0265 9.6895C15.0265 10.5662 14.6457 11.1272 14.2032 11.5791L13.9783 11.797L13.5155 12.2176C13.1702 12.5404 12.8802 12.8718 12.8257 13.3124L12.8165 13.4635V13.796H11.0695V13.193C11.0695 12.3025 11.5292 11.8105 12.0368 11.382L12.5122 10.9906C12.9004 10.6612 13.2195 10.3154 13.2195 9.795C13.2195 9.0955 12.791 8.661 12.101 8.661C11.4887 8.661 11.0803 9.0273 10.9554 9.67576L10.933 9.819H9.1205C9.205 8.4075 10.1465 7.02 12.101 7.02Z" fill="#e20074"/>
</svg>
