<svg width="24" height="24" viewBox="0 0 24 24" fill="none" xmlns="http://www.w3.org/2000/svg">
<path fill-rule="evenodd" clip-rule="evenodd" d="M12.0005 18.5C11.3095 18.5 10.7505 19.059 10.7505 19.75C10.7505 20.441 11.3095 21 12.0005 21C12.6905 21 13.2505 20.441 13.2505 19.75C13.2505 19.059 12.6905 18.5 12.0005 18.5ZM17.5005 20.5C17.5005 21.327 16.8275 22 16.0005 22H8.00049C7.17349 22 6.50049 21.327 6.50049 20.5V3.5C6.50049 2.673 7.17349 2 8.00049 2H10.0005V3.5H14.0005V2H16.0005C16.8275 2 17.5005 2.673 17.5005 3.5V20.5ZM16.0005 0.5H8.00049C6.34349 0.5 5.00049 1.843 5.00049 3.5V20.5C5.00049 22.157 6.34349 23.5 8.00049 23.5H16.0005C17.6575 23.5 19.0005 22.157 19.0005 20.5V3.5C19.0005 1.843 17.6575 0.5 16.0005 0.5ZM12.7945 14.335C12.6525 14.19 12.5815 13.876 12.5815 13.393V7.861C13.2115 7.878 13.7045 8.085 14.0615 8.48C14.3985 8.858 14.6055 9.437 14.6805 10.217L15.0805 10.148L15.0065 7.501H8.99149L8.91749 10.148L9.31649 10.217C9.39149 9.437 9.59649 8.858 9.93449 8.48C10.2885 8.085 10.7795 7.878 11.4075 7.861V13.393C11.4075 13.678 11.3875 13.891 11.3485 14.033C11.2745 14.304 11.0935 14.47 10.8075 14.53C10.6655 14.559 10.4475 14.572 10.1495 14.572V14.996H13.8495V14.572C13.6425 14.572 13.4955 14.569 13.4105 14.562C13.1215 14.533 12.9155 14.458 12.7945 14.335ZM13.5595 12.476H15.0955V10.952H13.5595V12.476ZM8.92449 12.476H10.4595V10.952H8.92449V12.476Z" fill="#e20074"/>
</svg>
