<svg width="40" height="40" viewBox="0 0 40 40" fill="none" xmlns="http://www.w3.org/2000/svg">
<path d="M32.6721 8.01739C30.5176 6.6126 28.963 4.36416 28.4779 1.74473C28.3731 1.17894 28.3149 0.596065 28.3149 0H21.4384L21.4268 27.5595C21.3119 30.6461 18.7717 33.1227 15.6578 33.1227C14.69 33.1227 13.7788 32.8814 12.9763 32.4584C11.1361 31.4905 9.87648 29.5619 9.87648 27.3429C9.87648 24.1554 12.4703 21.5616 15.6571 21.5616C16.2524 21.5616 16.8228 21.6601 17.3622 21.8286V14.8085C16.8034 14.7317 16.2361 14.6851 15.6571 14.6851C8.67814 14.6851 3 20.3624 3 27.3429C3 31.6248 5.139 35.4146 8.40417 37.7058C10.4593 39.1501 12.9608 40 15.6578 40C22.6375 40 28.3149 34.3219 28.3149 27.3429V13.3672C31.012 15.3029 34.3167 16.4438 37.883 16.4438V9.56653C35.9621 9.56653 34.1731 8.99608 32.6721 8.01739Z" fill="white"/>
</svg>
