<svg width="24" height="24" viewBox="0 0 24 24" fill="none" xmlns="http://www.w3.org/2000/svg">
<g clip-path="url(#clip0_1736_5054)">
<rect width="24" height="24" fill="white"/>
<path fill-rule="evenodd" clip-rule="evenodd" d="M21.5 9.5C22.55 9.5 23.4178 10.32 23.4945 11.3513L23.5 11.5V21.5C23.5 22.55 22.68 23.4178 21.6487 23.4945L21.5 23.5H17C15.95 23.5 15.0822 22.68 15.0055 21.6487L15 21.5V11.5C15 10.45 15.82 9.58223 16.8513 9.50551L17 9.5H21.5ZM18 11H17C16.7333 11 16.5457 11.158 16.5073 11.4038L16.5 11.5V21.5C16.5 21.7667 16.658 21.9543 16.9038 21.9927L17 22H21.5C21.7667 22 21.9543 21.842 21.9927 21.5962L22 21.5V11.5C22 11.2333 21.842 11.0457 21.5962 11.0073L21.5 11H20.5V12H18V11ZM19.25 20C19.6642 20 20 20.3358 20 20.75C20 21.1642 19.6642 21.5 19.25 21.5C18.8358 21.5 18.5 21.1642 18.5 20.75C18.5 20.3358 18.8358 20 19.25 20ZM22.5 0.5V8.15C22.26 8.07 21.988 8.022 21.7096 8.006L21.5 8H21V2H2V13C2 13.8 2.57578 14.4228 3.35217 14.4933L3.5 14.5H13.5V18.5H5V17L7.49817 16.9998C7.75977 16.9967 8.31217 16.9475 8.80782 16.1571L8.9 16H3.5C1.90893 16 0.596811 14.7447 0.505118 13.1756L0.5 13V0.5H22.5ZM9 4.65L14.5 8.25L9 11.85V4.65Z" fill="#262626"/>
</g>
<defs>
<clipPath id="clip0_1736_5054">
<rect width="24" height="24" fill="white"/>
</clipPath>
</defs>
</svg>
