<?xml version="1.0" encoding="UTF-8"?> <svg xmlns="http://www.w3.org/2000/svg" width="36" height="36" viewBox="0 0 36 36" fill="none"><path d="M0 4C0 1.79086 1.79086 0 4 0H32C34.2091 0 36 1.79086 36 4V32C36 34.2091 34.2091 36 32 36H4C1.79086 36 0 34.2091 0 32V4Z" fill="#F7F4EE"></path><path d="M13.3332 15.6665H13.4998C14.1415 15.6665 14.6665 16.1915 14.6665 16.8332V22.6665C14.6665 23.3082 14.1415 23.8332 13.4998 23.8332H13.3332C12.6915 23.8332 12.1665 23.3082 12.1665 22.6665V16.8332C12.1665 16.1915 12.6915 15.6665 13.3332 15.6665ZM17.9998 12.1665C18.6415 12.1665 19.1665 12.6915 19.1665 13.3332V22.6665C19.1665 23.3082 18.6415 23.8332 17.9998 23.8332C17.3582 23.8332 16.8332 23.3082 16.8332 22.6665V13.3332C16.8332 12.6915 17.3582 12.1665 17.9998 12.1665ZM22.6665 18.8332C23.3082 18.8332 23.8332 19.3582 23.8332 19.9998V22.6665C23.8332 23.3082 23.3082 23.8332 22.6665 23.8332C22.0248 23.8332 21.4998 23.3082 21.4998 22.6665V19.9998C21.4998 19.3582 22.0248 18.8332 22.6665 18.8332Z" fill="#031F39"></path></svg> 