<?xml version="1.0" encoding="UTF-8"?> <svg xmlns="http://www.w3.org/2000/svg" width="36" height="36" viewBox="0 0 36 36" fill="none"><path d="M0 4C0 1.79086 1.79086 0 4 0H32C34.2091 0 36 1.79086 36 4V32C36 34.2091 34.2091 36 32 36H4C1.79086 36 0 34.2091 0 32V4Z" fill="#F7F4EE"></path><path d="M15.3483 17.4317V12.318C15.3483 12.1059 15.515 11.9392 15.7271 11.9392C15.9392 11.9392 16.1059 12.1059 16.1059 12.318V17.4317H17.2423V12.6968C17.2423 12.2801 17.5832 11.9392 17.9998 11.9392C18.4165 11.9392 18.7574 12.2801 18.7574 12.6968V17.4317H19.8938V12.318C19.8938 12.1059 20.0604 11.9392 20.2726 11.9392C20.4847 11.9392 20.6514 12.1059 20.6514 12.318V17.4317H21.7877V12.6968C21.7877 12.2801 22.1286 11.9392 22.5453 11.9392C22.962 11.9392 23.3029 12.2801 23.3029 12.6968V17.4317H25.5756C25.8862 17.4317 26.1438 17.6892 26.1438 17.9998C26.1438 18.3104 25.8862 18.568 25.5756 18.568H10.4241C10.1135 18.568 9.8559 18.3104 9.8559 17.9998C9.8559 17.6892 10.1135 17.4317 10.4241 17.4317H12.6968V12.6968C12.6968 12.2801 13.0377 11.9392 13.4544 11.9392C13.871 11.9392 14.212 12.2801 14.212 12.6968V17.4317H15.3483ZM10.4241 14.9695C10.8407 14.9695 11.1817 14.6286 11.1817 14.212V11.1817H14.212C14.6286 11.1817 14.9695 10.8407 14.9695 10.4241C14.9695 10.0074 14.6286 9.6665 14.212 9.6665H11.1817C10.3483 9.6665 9.6665 10.3483 9.6665 11.1817V14.212C9.6665 14.6286 10.0074 14.9695 10.4241 14.9695ZM25.5756 21.0301C25.1589 21.0301 24.818 21.371 24.818 21.7877V24.818H21.7877C21.371 24.818 21.0301 25.1589 21.0301 25.5756C21.0301 25.9923 21.371 26.3332 21.7877 26.3332H24.818C25.6514 26.3332 26.3332 25.6514 26.3332 24.818V21.7877C26.3332 21.371 25.9923 21.0301 25.5756 21.0301ZM24.818 9.6665H21.7877C21.371 9.6665 21.0301 10.0074 21.0301 10.4241C21.0301 10.8407 21.371 11.1817 21.7877 11.1817H24.818V14.212C24.818 14.6286 25.1589 14.9695 25.5756 14.9695C25.9923 14.9695 26.3332 14.6286 26.3332 14.212V11.1817C26.3332 10.3483 25.6514 9.6665 24.818 9.6665ZM14.212 24.818H11.1817V21.7877C11.1817 21.371 10.8407 21.0301 10.4241 21.0301C10.0074 21.0301 9.6665 21.371 9.6665 21.7877V24.818C9.6665 25.6514 10.3483 26.3332 11.1817 26.3332H14.212C14.6286 26.3332 14.9695 25.9923 14.9695 25.5756C14.9695 25.1589 14.6286 24.818 14.212 24.818ZM17.2423 20.6514V22.9241C17.2423 23.5529 16.7347 24.0604 16.1059 24.0604H13.8332C13.2044 24.0604 12.6968 23.5529 12.6968 22.9241V20.6514C12.6968 20.0226 13.2044 19.515 13.8332 19.515H16.1059C16.7347 19.515 17.2423 20.0226 17.2423 20.6514ZM15.7271 21.0301H14.212V22.5453H15.7271V21.0301ZM22.5453 24.0604C22.962 24.0604 23.3029 23.7195 23.3029 23.3029V21.0301C23.3029 20.1892 22.621 19.515 21.7877 19.515H19.515C19.0983 19.515 18.7574 19.8559 18.7574 20.2726C18.7574 20.6892 19.0983 21.0301 19.515 21.0301H21.7877V23.3029C21.7877 23.7195 22.1286 24.0604 22.5453 24.0604ZM19.515 21.7877C19.0983 21.7877 18.7574 22.1286 18.7574 22.5453V23.3029C18.7574 23.7195 19.0983 24.0604 19.515 24.0604C19.9317 24.0604 20.2726 23.7195 20.2726 23.3029V22.5453C20.2726 22.1286 19.9317 21.7877 19.515 21.7877Z" fill="#031F39"></path></svg> 