<?xml version="1.0" encoding="UTF-8"?> <svg xmlns="http://www.w3.org/2000/svg" width="37" height="36" viewBox="0 0 37 36" fill="none"><path d="M0.5 4.00012C0.5 1.79098 2.29086 0.00012207 4.5 0.00012207H32.5C34.7091 0.00012207 36.5 1.79098 36.5 4.00012V32.0001C36.5 34.2093 34.7091 36.0001 32.5 36.0001H4.5C2.29086 36.0001 0.5 34.2093 0.5 32.0001V4.00012Z" fill="#F7F4EE"></path><g clip-path="url(#clip0_5391_9752)"><path d="M16.0002 21.1251C15.8401 21.1251 15.6807 21.0642 15.558 20.9423C15.3143 20.6986 15.3143 20.3025 15.558 20.0587L20.558 15.0587C20.8018 14.815 21.1979 14.815 21.4416 15.0587C21.6854 15.3025 21.6854 15.6986 21.4416 15.9423L16.4416 20.9423C16.3198 21.0642 16.1596 21.1251 15.9994 21.1251H16.0002Z" fill="black"></path><path d="M22.5534 19.8751C22.3932 19.8751 22.233 19.8142 22.1112 19.6915C21.8674 19.447 21.8674 19.0517 22.1112 18.8079L24.4596 16.4634C25.6448 15.2587 25.6448 13.2923 24.4557 12.0837C23.2471 10.8556 21.2651 10.8392 20.0362 12.0478L17.6909 14.3884C17.4463 14.6322 17.051 14.6322 16.8073 14.3876C16.5635 14.1431 16.5635 13.7478 16.808 13.504L19.1565 11.1603C20.8791 9.46576 23.6549 9.48763 25.3463 11.2072C26.1565 12.0306 26.6026 13.1204 26.6026 14.2751C26.6026 15.4298 26.1565 16.5197 25.3463 17.3431L22.994 19.6915C22.8721 19.8134 22.7119 19.8744 22.5526 19.8744L22.5534 19.8751Z" fill="black"></path><path d="M14.776 26.1033C13.6205 26.1033 12.5315 25.6572 11.708 24.847C9.98851 23.1548 9.96585 20.3798 11.6573 18.6603L14.0041 16.3087C14.2479 16.0642 14.644 16.0642 14.8877 16.3079C15.1323 16.5517 15.1323 16.9478 14.8885 17.1915L12.5448 19.54C11.3393 20.765 11.3557 22.7478 12.5838 23.9564C13.7924 25.1454 15.7588 25.1454 16.9674 23.9564L19.308 21.6119C19.5518 21.3681 19.9479 21.3673 20.1916 21.6119C20.4362 21.8556 20.4362 22.2517 20.1916 22.4954L17.8471 24.8439C17.0198 25.6579 15.9299 26.104 14.7744 26.104L14.776 26.1033Z" fill="black"></path><path d="M13.7979 14.7064C13.6955 14.7064 13.5932 14.6775 13.5026 14.6197L12.2244 13.8009L10.8549 14.579C10.6612 14.6892 10.4198 14.6704 10.2448 14.5322C10.0698 14.3939 9.9971 14.1626 10.0596 13.9486L10.4932 12.4783L9.38226 11.4751C9.21898 11.3275 9.1596 11.0962 9.23226 10.8884C9.30492 10.6806 9.49476 10.5369 9.71507 10.5228L11.2776 10.4259L11.9518 9.01263C12.0463 8.8142 12.251 8.69154 12.4713 8.7017C12.6909 8.71185 12.883 8.85326 12.9588 9.05951L13.4737 10.465L14.9994 10.6126C15.2213 10.6337 15.408 10.7884 15.4713 11.0017C15.5346 11.2158 15.4612 11.4462 15.2869 11.5853L14.0534 12.5642L14.3346 14.0548C14.3752 14.2697 14.2838 14.4876 14.1034 14.6095C14.0112 14.672 13.9041 14.7033 13.7971 14.7033L13.7979 14.7064ZM12.2424 12.6158C12.3448 12.6158 12.4479 12.6447 12.5377 12.7025L13.026 13.015L12.9182 12.4447C12.8807 12.2454 12.9565 12.0408 13.1159 11.915L13.5471 11.5728L13.0276 11.5228C12.8182 11.5025 12.6393 11.3642 12.5666 11.1665L12.3807 10.6587L12.1276 11.1884C12.0424 11.3673 11.8659 11.4869 11.6682 11.4986L11.0823 11.5345L11.483 11.8962C11.6393 12.0369 11.701 12.2548 11.6409 12.4572L11.4932 12.9579L11.9713 12.6861C12.0549 12.6384 12.1487 12.615 12.2416 12.615L12.2424 12.6158Z" fill="black"></path></g><defs><clipPath id="clip0_5391_9752"><rect width="20" height="20" fill="white" transform="translate(8.5 8.00012)"></rect></clipPath></defs></svg> 