<?xml version="1.0" encoding="UTF-8"?> <svg xmlns="http://www.w3.org/2000/svg" width="20" height="20" viewBox="0 0 20 20" fill="none"><path d="M13.7502 12.5001C13.3333 12.4999 12.9205 12.5835 12.5365 12.7457C12.1524 12.9079 11.8048 13.1456 11.5143 13.4446L7.91269 11.1297C8.19599 10.4033 8.19599 9.59686 7.91269 8.87037L11.5143 6.55553C12.0552 7.10969 12.7827 7.44323 13.5556 7.49149C14.3286 7.53975 15.0919 7.29929 15.6976 6.81674C16.3033 6.33418 16.7083 5.64391 16.834 4.87974C16.9596 4.11557 16.7971 3.33196 16.3779 2.68082C15.9586 2.02968 15.3125 1.55741 14.5649 1.35557C13.8172 1.15373 13.0212 1.23669 12.3312 1.58839C11.6413 1.94008 11.1065 2.53544 10.8305 3.25904C10.5546 3.98264 10.5571 4.78293 10.8377 5.50475L7.23613 7.81959C6.80243 7.37434 6.2458 7.06853 5.63741 6.94127C5.02901 6.814 4.39648 6.87106 3.82068 7.10514C3.24487 7.33922 2.75196 7.7397 2.40494 8.25537C2.05792 8.77105 1.87256 9.37849 1.87256 10.0001C1.87256 10.6216 2.05792 11.2291 2.40494 11.7447C2.75196 12.2604 3.24487 12.6609 3.82068 12.895C4.39648 13.1291 5.02901 13.1861 5.63741 13.0589C6.2458 12.9316 6.80243 12.6258 7.23613 12.1805L10.8377 14.4954C10.5964 15.1177 10.5607 15.8008 10.7358 16.4449C10.9109 17.0889 11.2876 17.66 11.8107 18.0745C12.3339 18.4889 12.976 18.725 13.643 18.7482C14.31 18.7713 14.9669 18.5803 15.5175 18.2031C16.0681 17.8259 16.4835 17.2823 16.7028 16.6519C16.9221 16.0216 16.9339 15.3376 16.7363 14.7C16.5387 14.0625 16.1423 13.505 15.6049 13.1091C15.0676 12.7133 14.4176 12.4998 13.7502 12.5001ZM13.7502 2.50006C14.121 2.50006 14.4835 2.61003 14.7919 2.81606C15.1002 3.02208 15.3405 3.31492 15.4825 3.65753C15.6244 4.00014 15.6615 4.37714 15.5892 4.74085C15.5168 5.10457 15.3382 5.43866 15.076 5.70089C14.8138 5.96311 14.4797 6.14169 14.116 6.21403C13.7523 6.28638 13.3753 6.24925 13.0327 6.10734C12.69 5.96542 12.3972 5.7251 12.1912 5.41676C11.9852 5.10841 11.8752 4.7459 11.8752 4.37506C11.8752 3.87778 12.0727 3.40087 12.4244 3.04924C12.776 2.69761 13.2529 2.50006 13.7502 2.50006ZM5.00019 11.8751C4.62935 11.8751 4.26684 11.7651 3.95849 11.5591C3.65015 11.353 3.40983 11.0602 3.26791 10.7176C3.126 10.375 3.08887 9.99798 3.16122 9.63427C3.23356 9.27055 3.41214 8.93646 3.67436 8.67424C3.93659 8.41201 4.27068 8.23344 4.63439 8.16109C4.99811 8.08874 5.37511 8.12587 5.71772 8.26779C6.06033 8.4097 6.35317 8.65002 6.55919 8.95837C6.76522 9.26671 6.87519 9.62922 6.87519 10.0001C6.87519 10.4973 6.67764 10.9743 6.32601 11.3259C5.97438 11.6775 5.49747 11.8751 5.00019 11.8751ZM13.7502 17.5001C13.3793 17.5001 13.0168 17.3901 12.7085 17.1841C12.4002 16.978 12.1598 16.6852 12.0179 16.3426C11.876 16 11.8389 15.623 11.9112 15.2593C11.9836 14.8955 12.1621 14.5615 12.4244 14.2992C12.6866 14.037 13.0207 13.8584 13.3844 13.7861C13.7481 13.7137 14.1251 13.7509 14.4677 13.8928C14.8103 14.0347 15.1032 14.275 15.3092 14.5834C15.5152 14.8917 15.6252 15.2542 15.6252 15.6251C15.6252 16.1223 15.4276 16.5993 15.076 16.9509C14.7244 17.3025 14.2475 17.5001 13.7502 17.5001Z" fill="#031F39"></path></svg> 