<?xml version="1.0" encoding="UTF-8"?> <svg xmlns="http://www.w3.org/2000/svg" width="36" height="36" viewBox="0 0 36 36" fill="none"><path d="M0,4c0-2.2,1.8-4,4-4h28c2.2,0,4,1.8,4,4v28c0,2.2-1.8,4-4,4H4c-2.2,0-4-1.8-4-4V4z" fill="#F7F4EE"></path><path d="M26.3,19.6l0-7.7c0-0.7-0.6-1.3-1.3-1.3H11.1c-0.7,0-1.3,0.6-1.3,1.3v11.4c0,0.7,0.6,1.3,1.3,1.3h11 c0.5,1.5,1.9,2.5,3.5,2.5c2.1,0,3.8-1.7,3.8-3.8C29.4,21.5,28.1,19.9,26.3,19.6z M21.9,23.3C21.9,23.3,21.9,23.3,21.9,23.3l-10.8,0 l0-11.4H25l0,0l0,7.7c0,0,0,0,0,0C23.3,19.9,21.9,21.5,21.9,23.3z M27.9,23.9l-1.8,1.8c0,0,0,0,0,0c0,0,0,0,0,0c0,0,0,0-0.1,0 c0,0,0,0,0,0c0,0-0.1,0.1-0.1,0.1c0,0,0,0,0,0c-0.1,0-0.2,0-0.2,0c-0.1,0-0.2,0-0.2,0c-0.1,0-0.1-0.1-0.2-0.1c0,0,0,0,0,0l-1.8-1.8 c-0.2-0.2-0.2-0.6,0-0.9c0.2-0.2,0.6-0.2,0.9,0l0.7,0.7v-2.3c0-0.3,0.3-0.6,0.6-0.6c0.3,0,0.6,0.3,0.6,0.6v2.4L27,23 c0.2-0.2,0.6-0.2,0.9,0C28.2,23.3,28.2,23.6,27.9,23.9z M17.3,18.8c0.5-0.5,0.8-1.1,0.8-1.8c0-1.4-1.1-2.5-2.5-2.5 c-1.4,0-2.5,1.1-2.5,2.5c0,0.7,0.3,1.3,0.8,1.8c-0.7,0.4-1.2,1.1-1.4,1.8c-0.1,0.3,0.1,0.7,0.4,0.8c0.1,0,0.1,0,0.2,0 c0.3,0,0.5-0.2,0.6-0.5c0.2-0.8,1-1.4,1.9-1.4c0.9,0,1.7,0.6,1.9,1.4c0.1,0.3,0.4,0.5,0.8,0.4c0.3-0.1,0.5-0.4,0.4-0.8 C18.5,19.9,18,19.2,17.3,18.8z M15.5,18.3c-0.7,0-1.3-0.6-1.3-1.3c0-0.7,0.6-1.3,1.3-1.3c0.7,0,1.3,0.6,1.3,1.3 C16.8,17.7,16.3,18.3,15.5,18.3z M23.1,15.7H20c-0.3,0-0.6,0.3-0.6,0.6c0,0.3,0.3,0.6,0.6,0.6h3.2c0.3,0,0.6-0.3,0.6-0.6 C23.8,16,23.5,15.7,23.1,15.7z M23.1,18.3H20c-0.3,0-0.6,0.3-0.6,0.6c0,0.3,0.3,0.6,0.6,0.6h3.2c0.3,0,0.6-0.3,0.6-0.6 C23.8,18.5,23.5,18.3,23.1,18.3z" fill="#031F39"></path></svg> 