<?xml version="1.0" encoding="UTF-8"?> <svg xmlns="http://www.w3.org/2000/svg" width="20" height="20" viewBox="0 0 20 20" fill="none"><path d="M6.87505 1.87505V1.25005C6.87505 1.08429 6.9409 0.92532 7.05811 0.80811C7.17532 0.690899 7.33429 0.625051 7.50005 0.625051C7.66581 0.625051 7.82478 0.690899 7.94199 0.80811C8.0592 0.92532 8.12505 1.08429 8.12505 1.25005V1.87505C8.12505 2.04081 8.0592 2.19978 7.94199 2.31699C7.82478 2.4342 7.66581 2.50005 7.50005 2.50005C7.33429 2.50005 7.17532 2.4342 7.05811 2.31699C6.9409 2.19978 6.87505 2.04081 6.87505 1.87505ZM1.25005 8.12505H1.87505C2.04081 8.12505 2.19978 8.0592 2.31699 7.94199C2.4342 7.82478 2.50005 7.66581 2.50005 7.50005C2.50005 7.33429 2.4342 7.17532 2.31699 7.05811C2.19978 6.9409 2.04081 6.87505 1.87505 6.87505H1.25005C1.08429 6.87505 0.92532 6.9409 0.80811 7.05811C0.690899 7.17532 0.625051 7.33429 0.625051 7.50005C0.625051 7.66581 0.690899 7.82478 0.80811 7.94199C0.92532 8.0592 1.08429 8.12505 1.25005 8.12505ZM9.72036 3.05943C9.79381 3.09621 9.87379 3.11815 9.95572 3.124C10.0377 3.12985 10.1199 3.11949 10.1979 3.09352C10.2758 3.06754 10.3478 3.02646 10.4099 2.97262C10.4719 2.91878 10.5227 2.85323 10.5594 2.77974L11.1844 1.52974C11.2586 1.38149 11.2709 1.20984 11.2185 1.05256C11.1661 0.895277 11.0534 0.765245 10.9051 0.691067C10.7569 0.616889 10.5852 0.604643 10.4279 0.657021C10.2707 0.709399 10.1406 0.822112 10.0665 0.970364L9.44146 2.22036C9.40465 2.29376 9.38266 2.3737 9.37676 2.4556C9.37085 2.5375 9.38114 2.61977 9.40705 2.69769C9.43295 2.77561 9.47395 2.84766 9.52771 2.90973C9.58147 2.9718 9.64694 3.02267 9.72036 3.05943ZM2.22036 9.44146L0.970364 10.0665C0.822112 10.1406 0.709399 10.2707 0.657021 10.4279C0.604643 10.5852 0.616889 10.7569 0.691067 10.9051C0.765245 11.0534 0.895277 11.1661 1.05256 11.2185C1.20984 11.2709 1.38149 11.2586 1.52974 11.1844L2.77974 10.5594C2.85315 10.5227 2.9186 10.4719 2.97236 10.4098C3.02613 10.3478 3.06715 10.2758 3.09308 10.1979C3.11902 10.1201 3.12936 10.0378 3.12352 9.95596C3.11768 9.87408 3.09576 9.79416 3.05904 9.72075C3.02231 9.64735 2.97148 9.58189 2.90945 9.52813C2.84743 9.47437 2.77542 9.43335 2.69754 9.40741C2.61967 9.38148 2.53744 9.37113 2.45557 9.37698C2.37369 9.38282 2.29377 9.40473 2.22036 9.44146ZM17.1336 14.3751C17.2497 14.4911 17.3418 14.6289 17.4047 14.7806C17.4675 14.9323 17.4999 15.0949 17.4999 15.259C17.4999 15.4232 17.4675 15.5858 17.4047 15.7375C17.3418 15.8891 17.2497 16.0269 17.1336 16.143L16.143 17.1336C16.0269 17.2497 15.8891 17.3418 15.7375 17.4047C15.5858 17.4675 15.4232 17.4999 15.259 17.4999C15.0949 17.4999 14.9323 17.4675 14.7806 17.4047C14.6289 17.3418 14.4911 17.2497 14.3751 17.1336L10.3672 13.1251L8.98443 16.7258C8.98443 16.7336 8.97818 16.7422 8.97427 16.7508C8.87862 16.9738 8.71947 17.1638 8.51665 17.297C8.31383 17.4302 8.0763 17.5008 7.83364 17.5001H7.77193C7.51886 17.4893 7.27518 17.4012 7.07384 17.2475C6.8725 17.0938 6.7232 16.882 6.64614 16.6407L2.56255 4.13443C2.49245 3.91571 2.48396 3.6819 2.53803 3.45867C2.59209 3.23545 2.70661 3.03143 2.86902 2.86902C3.03143 2.70661 3.23545 2.59209 3.45867 2.53803C3.6819 2.48396 3.91571 2.49245 4.13443 2.56255L16.6407 6.64614C16.8797 6.7261 17.089 6.87645 17.241 7.07746C17.3931 7.27846 17.4808 7.52074 17.4927 7.7725C17.5046 8.02426 17.4402 8.27374 17.3078 8.4882C17.1754 8.70267 16.9812 8.8721 16.7508 8.97427L16.7258 8.98443L13.1251 10.3665L17.1336 14.3751ZM16.2501 15.2586L12.2415 11.2501C12.0972 11.106 11.9903 10.9289 11.9302 10.7341C11.87 10.5393 11.8584 10.3328 11.8964 10.1325C11.9344 9.93219 12.0208 9.74422 12.1481 9.58497C12.2753 9.42571 12.4396 9.30001 12.6266 9.2188L12.6516 9.20786L16.2415 7.82974L3.75005 3.75005L7.82818 16.2391L9.20708 12.6454C9.20708 12.6368 9.21333 12.6282 9.21724 12.6196C9.29847 12.4327 9.42415 12.2686 9.58333 12.1414C9.7425 12.0142 9.93035 11.9279 10.1305 11.8899C10.2078 11.8756 10.2863 11.8682 10.3649 11.868C10.6961 11.8684 11.0136 12.0002 11.2477 12.2344L15.2586 16.2501L16.2501 15.2586Z" fill="#031F39"></path></svg> 