<?xml version="1.0" encoding="UTF-8"?> <svg xmlns="http://www.w3.org/2000/svg" width="20" height="21" viewBox="0 0 20 21" fill="none"><path d="M3.75 8V16.75H16.25V8H3.75ZM17.5 16.75C17.5 17.4404 16.9404 18 16.25 18H3.75C3.05964 18 2.5 17.4404 2.5 16.75V8C2.5 7.30964 3.05964 6.75 3.75 6.75H16.25C16.9404 6.75 17.5 7.30964 17.5 8V16.75Z" fill="#777570"></path><path d="M12.5 7.375V4.875C12.5 4.21196 12.2364 3.57626 11.7676 3.10742C11.2987 2.63858 10.663 2.375 10 2.375C9.33696 2.375 8.70126 2.63858 8.23242 3.10742C7.76358 3.57626 7.5 4.21196 7.5 4.875V7.375C7.5 7.72018 7.22018 8 6.875 8C6.52982 8 6.25 7.72018 6.25 7.375V4.875C6.25 3.88044 6.64537 2.92689 7.34863 2.22363C8.05189 1.52037 9.00544 1.125 10 1.125C10.9946 1.125 11.9481 1.52037 12.6514 2.22363C13.3546 2.92689 13.75 3.88044 13.75 4.875V7.375C13.75 7.72018 13.4702 8 13.125 8C12.7798 8 12.5 7.72018 12.5 7.375Z" fill="#777570"></path></svg> 