<?xml version="1.0" encoding="UTF-8"?> <svg xmlns="http://www.w3.org/2000/svg" width="36" height="36" viewBox="0 0 36 36" fill="none"><path d="M0 4C0 1.79086 1.79086 0 4 0H32C34.2091 0 36 1.79086 36 4V32C36 34.2091 34.2091 36 32 36H4C1.79086 36 0 34.2091 0 32V4Z" fill="#F7F4EE"></path><path d="M19.6665 14.6665C19.6665 15.587 18.9203 16.3332 17.9998 16.3332C17.0794 16.3332 16.3332 15.587 16.3332 14.6665C16.3332 13.746 17.0794 12.9998 17.9998 12.9998C18.9203 12.9998 19.6665 13.746 19.6665 14.6665Z" fill="#031F39"></path><path d="M20.4998 22.1665C20.4998 22.6665 20.1665 22.9998 19.6665 22.9998H16.3332C15.8332 22.9998 15.4998 22.6665 15.4998 22.1665C15.4998 21.6665 15.8332 21.3332 16.3332 21.3332H19.6665C20.1665 21.3332 20.4998 21.6665 20.4998 22.1665Z" fill="#031F39"></path><path d="M16.3332 19.6665H19.6665C20.1665 19.6665 20.4998 19.3332 20.4998 18.8332C20.4998 18.3332 20.1665 17.9998 19.6665 17.9998H16.3332C15.8332 17.9998 15.4998 18.3332 15.4998 18.8332C15.4998 19.3332 15.8332 19.6665 16.3332 19.6665Z" fill="#031F39"></path><path fill-rule="evenodd" clip-rule="evenodd" d="M13.8332 9.6665H22.1665C23.0832 9.6665 23.8332 10.4165 23.8332 11.3332V24.6665C23.8332 25.5832 23.0832 26.3332 22.1665 26.3332H13.8332C12.9165 26.3332 12.1665 25.5832 12.1665 24.6665V11.3332C12.1665 10.4165 12.9165 9.6665 13.8332 9.6665ZM13.8332 11.3332V24.6665H22.1665V11.3332H13.8332Z" fill="#031F39"></path></svg> 