<?xml version="1.0" encoding="UTF-8"?> <svg xmlns="http://www.w3.org/2000/svg" width="36" height="36" viewBox="0 0 36 36" fill="none"><path d="M0 4.00012C0 1.79098 1.79086 0.00012207 4 0.00012207H32C34.2091 0.00012207 36 1.79098 36 4.00012V32.0001C36 34.2093 34.2091 36.0001 32 36.0001H4C1.79086 36.0001 0 34.2093 0 32.0001V4.00012Z" fill="#F7F4EE"></path><path d="M23 26.1251H13C11.9664 26.1251 11.125 25.2837 11.125 24.2501V11.7501C11.125 10.7165 11.9664 9.87512 13 9.87512H23C24.0336 9.87512 24.875 10.7165 24.875 11.7501V24.2501C24.875 25.2837 24.0336 26.1251 23 26.1251ZM13 11.1251C12.6555 11.1251 12.375 11.4056 12.375 11.7501V24.2501C12.375 24.5947 12.6555 24.8751 13 24.8751H23C23.3445 24.8751 23.625 24.5947 23.625 24.2501V11.7501C23.625 11.4056 23.3445 11.1251 23 11.1251H13Z" fill="black"></path><path d="M18 14.2501C18.5178 14.2501 18.9375 13.8304 18.9375 13.3126C18.9375 12.7949 18.5178 12.3751 18 12.3751C17.4822 12.3751 17.0625 12.7949 17.0625 13.3126C17.0625 13.8304 17.4822 14.2501 18 14.2501Z" fill="black"></path><path d="M21.5352 17.4822H14.4641C14.1187 17.4822 13.8391 17.2025 13.8391 16.8572C13.8391 16.5118 14.1187 16.2322 14.4641 16.2322H21.5352C21.8805 16.2322 22.1602 16.5118 22.1602 16.8572C22.1602 17.2025 21.8805 17.4822 21.5352 17.4822Z" fill="black"></path><path d="M21.5352 20.3775H14.4641C14.1187 20.3775 13.8391 20.0978 13.8391 19.7525C13.8391 19.4072 14.1187 19.1275 14.4641 19.1275H21.5352C21.8805 19.1275 22.1602 19.4072 22.1602 19.7525C22.1602 20.0978 21.8805 20.3775 21.5352 20.3775Z" fill="black"></path><path d="M21.5352 23.2728H14.4641C14.1187 23.2728 13.8391 22.9931 13.8391 22.6478C13.8391 22.3025 14.1187 22.0228 14.4641 22.0228H21.5352C21.8805 22.0228 22.1602 22.3025 22.1602 22.6478C22.1602 22.9931 21.8805 23.2728 21.5352 23.2728Z" fill="black"></path></svg> 