<?xml version="1.0" encoding="UTF-8"?> <svg xmlns="http://www.w3.org/2000/svg" width="36" height="36" viewBox="0 0 36 36" fill="none"><path d="M0 4.00012C0 1.79098 1.79086 0.00012207 4 0.00012207H32C34.2091 0.00012207 36 1.79098 36 4.00012V32.0001C36 34.2093 34.2091 36.0001 32 36.0001H4C1.79086 36.0001 0 34.2093 0 32.0001V4.00012Z" fill="#F7F4EE"></path><path d="M16.7132 19.2853C16.8357 19.4071 16.995 19.468 17.155 19.4681C17.315 19.468 17.475 19.4071 17.5968 19.2853L19.2835 17.5978C19.5272 17.354 19.5272 16.9579 19.2835 16.7142C19.0397 16.4704 18.6436 16.4704 18.3999 16.7142L16.7132 18.4017C16.4694 18.6454 16.4694 19.0415 16.7132 19.2853Z" fill="black"></path><path d="M20.0819 19.2665C19.9218 19.2665 19.7616 19.2056 19.6397 19.0829C19.396 18.8384 19.396 18.4431 19.6397 18.1993L20.8468 16.9947C21.3382 16.4947 21.3382 15.6751 20.8429 15.172C20.5991 14.9243 20.2733 14.7861 19.9249 14.7829C19.5765 14.7783 19.2491 14.9126 19.0007 15.1572L17.7968 16.3587C17.5522 16.6025 17.1569 16.6025 16.9132 16.3579C16.6694 16.1134 16.6694 15.7181 16.914 15.4743L18.121 14.2697C18.6101 13.7884 19.2546 13.5275 19.9351 13.5337C20.6171 13.5392 21.2554 13.8103 21.7335 14.2962C22.7046 15.2829 22.7046 16.8892 21.7335 17.8767L20.5226 19.0861C20.4007 19.2079 20.2405 19.2689 20.0811 19.2689L20.0819 19.2665Z" fill="black"></path><path d="M14.2952 21.7345C14.7882 22.2197 15.4351 22.4626 16.0835 22.4626L16.0819 22.4634C16.7311 22.4634 17.3811 22.2197 17.8772 21.7314L19.0819 20.5243C19.3265 20.2806 19.3265 19.8845 19.0819 19.6408C18.8382 19.3962 18.4421 19.3962 18.1983 19.6408L16.9976 20.8439C16.4944 21.3392 15.6749 21.3392 15.171 20.8439C14.9226 20.5993 14.7851 20.2736 14.7819 19.9259C14.7796 19.5775 14.9124 19.2493 15.153 19.0048L16.3577 17.7978C16.6015 17.554 16.6015 17.1579 16.3569 16.9142C16.1124 16.6704 15.7171 16.6704 15.4733 16.915L14.2655 18.1251C13.7874 18.6111 13.5272 19.2548 13.5327 19.9361C13.5382 20.6173 13.8093 21.2564 14.2952 21.7345Z" fill="black"></path><path fill-rule="evenodd" clip-rule="evenodd" d="M14.1811 25.1728C15.3905 25.8181 16.6968 26.1251 17.9874 26.1251C20.7944 26.1251 23.5288 24.6712 25.0335 22.072C27.2772 18.1939 25.9483 13.2142 22.071 10.9697C18.1936 8.72591 13.2132 10.0548 10.9686 13.9322C9.56396 16.3595 9.51786 19.3564 10.8296 21.8212L9.93974 24.479C9.72177 25.1329 10.0765 25.8423 10.7304 26.0603C10.9851 26.1454 11.2655 26.1454 11.521 26.0603L14.1811 25.1728ZM14.5577 23.9525C14.4616 23.8962 14.353 23.8681 14.2444 23.8681L14.2452 23.8689C14.1788 23.8689 14.1124 23.879 14.0476 23.9009L11.1265 24.8759L12.1038 21.9579C12.1608 21.7876 12.1421 21.6017 12.0522 21.4462C10.8226 19.322 10.8226 16.6829 12.0522 14.5587C13.9507 11.2783 18.1655 10.154 21.446 12.0525C24.7265 13.9509 25.8515 18.165 23.9522 21.4462C22.053 24.7267 17.839 25.8517 14.5577 23.9525Z" fill="black"></path></svg> 