<?xml version="1.0" encoding="UTF-8"?> <svg xmlns="http://www.w3.org/2000/svg" width="20" height="20" viewBox="0 0 20 20" fill="none"><path d="M6.87493 14.0626C6.87493 14.248 6.81995 14.4292 6.71694 14.5834C6.61392 14.7376 6.4675 14.8577 6.2962 14.9287C6.12489 14.9997 5.93639 15.0182 5.75453 14.982C5.57268 14.9459 5.40563 14.8566 5.27452 14.7255C5.14341 14.5944 5.05412 14.4273 5.01795 14.2455C4.98177 14.0636 5.00034 13.8751 5.0713 13.7038C5.14225 13.5325 5.26241 13.3861 5.41659 13.2831C5.57076 13.18 5.75201 13.1251 5.93743 13.1251C6.18607 13.1251 6.42453 13.2238 6.60034 13.3996C6.77616 13.5755 6.87493 13.8139 6.87493 14.0626ZM18.7499 12.2024V16.2501C18.7499 16.5816 18.6182 16.8995 18.3838 17.1339C18.1494 17.3684 17.8315 17.5001 17.4999 17.5001H5.93743C5.72952 17.5002 5.52198 17.4824 5.31712 17.4469C4.42339 17.2839 3.63055 16.7737 3.11188 16.0278C2.59322 15.2819 2.3909 14.3611 2.54915 13.4665L4.50228 2.28444C4.53004 2.12286 4.58943 1.96836 4.67704 1.82979C4.76466 1.69122 4.87877 1.57132 5.01284 1.47696C5.1469 1.38259 5.29828 1.31563 5.45829 1.27992C5.61829 1.2442 5.78378 1.24042 5.94524 1.26881L10.2218 2.03131C10.5472 2.08995 10.8361 2.27513 11.0253 2.5463C11.2145 2.81748 11.2885 3.15255 11.2312 3.47819L10.2874 8.86881L15.5851 6.95319C15.8956 6.84102 16.2379 6.85628 16.5373 6.99562C16.8366 7.13497 17.0687 7.38709 17.1827 7.69694L18.6718 11.7727C18.7196 11.9111 18.746 12.056 18.7499 12.2024ZM8.04681 14.443L9.99993 3.261L5.73899 2.50006L3.78587 13.6798C3.6839 14.2484 3.81101 14.8343 4.13946 15.3095C4.46791 15.7848 4.97103 16.1108 5.53899 16.2165C5.81703 16.2663 6.10221 16.2604 6.37795 16.1992C6.65369 16.1379 6.91451 16.0224 7.14524 15.8594C7.38188 15.6949 7.58344 15.4849 7.73821 15.2417C7.89298 14.9986 7.99788 14.7271 8.04681 14.443ZM9.12337 15.2344L17.4999 12.1962L16.0093 8.12506L10.039 10.2891L9.27493 14.6579C9.24096 14.854 9.19026 15.0469 9.12337 15.2344ZM17.4999 13.5251L9.97962 16.2501H17.4999V13.5251Z" fill="#031F39"></path></svg> 