<?xml version="1.0" encoding="UTF-8"?> <svg xmlns="http://www.w3.org/2000/svg" width="37" height="36" viewBox="0 0 37 36" fill="none"><path d="M0.5 4.00012C0.5 1.79098 2.29086 0.00012207 4.5 0.00012207H32.5C34.7091 0.00012207 36.5 1.79098 36.5 4.00012V32.0001C36.5 34.2093 34.7091 36.0001 32.5 36.0001H4.5C2.29086 36.0001 0.5 34.2093 0.5 32.0001V4.00012Z" fill="#F7F4EE"></path><path d="M27.5086 18.6251L19.75 10.8665C19.6344 10.75 19.4967 10.6575 19.345 10.5946C19.1933 10.5317 19.0306 10.4996 18.8664 10.5001H11.625C11.4592 10.5001 11.3003 10.566 11.1831 10.6832C11.0659 10.8004 11 10.9594 11 11.1251V18.3665C10.9995 18.5307 11.0316 18.6934 11.0945 18.8451C11.1574 18.9968 11.2498 19.1345 11.3664 19.2501L19.125 27.0087C19.2411 27.1248 19.3789 27.2169 19.5306 27.2798C19.6822 27.3426 19.8448 27.3749 20.009 27.3749C20.1732 27.3749 20.3357 27.3426 20.4874 27.2798C20.6391 27.2169 20.7769 27.1248 20.893 27.0087L27.5086 20.3931C27.6247 20.277 27.7168 20.1392 27.7796 19.9875C27.8425 19.8359 27.8748 19.6733 27.8748 19.5091C27.8748 19.3449 27.8425 19.1824 27.7796 19.0307C27.7168 18.879 27.6247 18.7412 27.5086 18.6251ZM20.0086 26.1251L12.25 18.3665V11.7501H18.8664L26.625 19.5087L20.0086 26.1251ZM16 14.5626C16 14.748 15.945 14.9293 15.842 15.0835C15.739 15.2376 15.5926 15.3578 15.4213 15.4288C15.25 15.4997 15.0615 15.5183 14.8796 15.4821C14.6978 15.4459 14.5307 15.3567 14.3996 15.2255C14.2685 15.0944 14.1792 14.9274 14.143 14.7455C14.1068 14.5637 14.1254 14.3752 14.1964 14.2039C14.2673 14.0326 14.3875 13.8861 14.5417 13.7831C14.6958 13.6801 14.8771 13.6251 15.0625 13.6251C15.3111 13.6251 15.5496 13.7239 15.7254 13.8997C15.9012 14.0755 16 14.314 16 14.5626Z" fill="black"></path></svg> 