<svg width="192" height="84" viewBox="0 0 192 84" fill="none" xmlns="http://www.w3.org/2000/svg">
<path d="M110.716 51.7586C101.722 55.5676 91.9242 57.4261 83.0443 57.4261C69.8507 57.4261 57.0702 53.8008 46.7448 47.812C45.8499 47.2843 45.1616 48.2021 45.9187 48.8905C55.487 57.5409 68.1298 62.7265 82.1953 62.7265C92.2225 62.7265 103.856 59.5601 111.887 53.6402C113.217 52.6535 112.07 51.185 110.716 51.7586Z" fill="#273143"/>
<path d="M105.645 48.4316C104.934 48.9134 105.049 49.6018 105.852 49.51C108.445 49.2117 114.204 48.5004 115.214 49.8312C116.246 51.1391 114.066 56.5772 113.103 58.9864C112.804 59.7207 113.447 60.019 114.112 59.4683C118.426 55.8659 119.527 48.3168 118.655 47.2155C117.784 46.1141 110.235 45.1963 105.645 48.4316Z" fill="#273143"/>
<path d="M121.386 39.2534C118.931 37.8767 116.086 37.4636 113.378 37.5325L120.652 27.1382C121.317 26.1975 121.707 25.6238 121.707 25.1649V22.4803C121.707 22.0214 121.34 21.6772 120.904 21.6772H106.839C106.403 21.6772 106.036 21.9985 106.036 22.4803V25.6238C106.036 26.0828 106.403 26.404 106.839 26.404H114.181L105.737 38.4962C105.232 39.2763 105.209 40.1483 105.209 40.653V43.8425C105.209 44.3014 105.714 44.8291 106.219 44.5538C110.992 42.0068 116.751 42.2592 121.065 44.5308C121.592 44.8062 122.097 44.2784 122.097 43.8195V40.4695C122.074 40.0335 121.937 39.5746 121.386 39.2534Z" fill="#273143"/>
<path d="M50.4847 45.2194H54.7526C55.2115 45.2194 55.5786 44.8752 55.5786 44.4163V32.783C55.5786 30.236 55.4639 26.7254 58.5386 26.7254C61.6132 26.7254 61.1773 30.3278 61.1773 32.783V44.4163C61.1773 44.8293 61.5214 45.1735 61.9574 45.2194H66.2252C66.6842 45.2194 67.0513 44.8752 67.0513 44.4163V32.783C67.0513 31.5439 67.0054 29.6854 67.4413 28.584C67.8773 27.4826 68.9557 26.7942 69.9883 26.7942C71.2273 26.7942 72.191 27.2073 72.5123 28.6758C72.7188 29.5477 72.627 31.8652 72.627 32.783V44.4163C72.627 44.8293 72.9712 45.1735 73.4071 45.2194H77.675C78.1339 45.2194 78.501 44.8752 78.501 44.4163V30.5573C78.501 28.1939 78.7763 25.5322 77.4226 23.6737C76.2294 22.0216 74.2561 21.2874 72.4664 21.2874C69.9424 21.2874 67.602 22.5723 66.5694 25.3487C65.3763 22.5723 63.7013 21.2874 61.0166 21.2874C58.332 21.2874 56.4276 22.5723 55.395 25.3487H55.3262V22.4805C55.3033 22.0904 54.9591 21.7692 54.5461 21.7463H50.5536C50.0947 21.7463 49.7275 22.0904 49.7275 22.5264V44.4851C49.7505 44.8752 50.0717 45.1735 50.4847 45.2194Z" fill="#273143"/>
<path d="M133.799 21.2874C127.604 21.2874 124.185 26.5877 124.185 33.4254C124.185 40.2632 127.581 45.6783 133.799 45.6783C140.017 45.6783 143.574 40.3779 143.574 33.6778C143.574 26.9778 140.155 21.2874 133.799 21.2874ZM133.799 41.1351C130.449 41.1351 130.495 35.3987 130.495 32.7141C130.495 30.0295 130.702 25.7388 133.845 25.7388C135.199 25.7388 136.163 26.3353 136.645 27.8727C137.195 29.6395 137.287 31.8422 137.287 33.7008C137.264 36.5231 137.126 41.1351 133.799 41.1351Z" fill="#273143"/>
<path d="M163.238 23.8572C162.022 21.9757 160.164 21.2874 158.236 21.2874C155.276 21.2874 153.601 22.71 152.408 25.7158H152.339V22.3658C152.247 22.0216 151.949 21.7692 151.582 21.7463H147.612C147.176 21.7463 146.832 22.0675 146.786 22.4576V44.4163C146.786 44.8293 147.131 45.1735 147.567 45.2194H151.811C152.27 45.2194 152.637 44.8752 152.637 44.4163V32.5994C152.637 31.1309 152.706 29.7771 153.326 28.4463C153.808 27.3908 154.748 26.6795 155.804 26.6795C158.764 26.6795 158.489 30.1901 158.489 32.5994V44.531C158.534 44.8981 158.856 45.1964 159.246 45.2194H163.536C163.949 45.2194 164.317 44.9211 164.363 44.531V30.6949C164.34 28.584 164.34 25.624 163.238 23.8572Z" fill="#273143"/>
<path d="M94.8382 30.3734C92.3601 30.6488 89.1248 30.8323 86.7844 31.8649C84.0998 33.0121 82.2183 35.3755 82.2183 38.8632C82.2183 43.3146 85.0176 45.5174 88.62 45.5174C91.6717 45.5174 93.3238 44.8061 95.6642 42.3968C96.4444 43.5211 96.6968 44.0718 98.1194 45.242C98.4406 45.4026 98.8536 45.4026 99.129 45.1502L99.1519 45.1732C100.001 44.416 101.561 43.0622 102.433 42.328C102.777 42.0297 102.731 41.5708 102.456 41.1807C101.676 40.1023 100.85 39.2303 100.85 37.2111V30.557C100.85 27.7347 101.056 25.1419 98.9684 23.1915C97.3163 21.6083 94.6088 21.0576 92.5207 21.0576C88.4594 21.0576 83.9162 22.572 82.9525 27.597C82.8607 28.1248 83.2508 28.4231 83.595 28.4919L87.7481 28.9279C88.1382 28.9049 88.4135 28.5378 88.4823 28.1477C88.8265 26.4039 90.295 25.5779 91.9241 25.5779C92.7961 25.5779 93.8057 25.8991 94.3334 26.7022C94.93 27.5741 94.8611 28.7902 94.8611 29.7998V30.3734H94.8382ZM94.0351 39.2533C93.3468 40.4464 92.2683 41.2036 91.0752 41.2036C89.4231 41.2036 88.4823 39.9416 88.4823 38.106C88.4823 34.4577 91.7406 33.7923 94.8382 33.7923V34.7101C94.8382 36.3851 94.8611 37.7848 94.0351 39.2533Z" fill="#273143"/>
<path d="M46.3776 41.1807C45.5974 40.1023 44.7714 39.2303 44.7714 37.2111V30.557C44.7714 27.7347 44.9779 25.1419 42.8899 23.1915C41.2378 21.6083 38.5303 21.0576 36.4422 21.0576C32.358 21.0576 27.8377 22.595 26.874 27.62C26.7822 28.1477 27.1723 28.446 27.5165 28.5149L31.6696 28.9508C32.0597 28.9279 32.335 28.5607 32.4039 28.1707C32.748 26.4268 34.2165 25.6008 35.8457 25.6008C36.7176 25.6008 37.7272 25.922 38.2549 26.7251C38.8515 27.597 38.7827 28.8131 38.7827 29.8227V30.3734C36.3046 30.6488 33.0693 30.8323 30.7288 31.8649C28.0442 33.0121 26.1627 35.3755 26.1627 38.8403C26.1627 43.2917 28.9621 45.4944 32.5645 45.4944C35.6162 45.4944 37.2683 44.7831 39.6087 42.3738C40.3888 43.4982 40.6412 44.0489 42.0638 45.2191C42.3851 45.3797 42.7981 45.3797 43.0734 45.1273L43.0964 45.1502C43.9454 44.393 45.5056 43.0393 46.3776 42.305C46.6988 42.0297 46.6529 41.5708 46.3776 41.1807ZM37.9566 39.2533C37.2683 40.4464 36.1898 41.2036 34.9967 41.2036C33.3446 41.2036 32.4039 39.9416 32.4039 38.106C32.4039 34.4577 35.6621 33.7923 38.7597 33.7923V34.7101C38.7597 36.3851 38.8056 37.7848 37.9566 39.2533Z" fill="#273143"/>
</svg>
