<?xml version="1.0" encoding="UTF-8"?>
<svg id="Layer_1" data-name="Layer 1" xmlns="http://www.w3.org/2000/svg" viewBox="0 0 50 50">
  <defs>
    <style>
      .cls-1 {
        fill: #fff;
      }

      .cls-2 {
        fill: #0376d9;
      }

      .cls-3 {
        fill: #00081c;
      }
    </style>
  </defs>
  <rect class="cls-2" x="1.9" y="1.9" width="46.2" height="46.2" rx="6.93" ry="6.93"/>
  <g>
    <g>
      <circle class="cls-2" cx="22.65" cy="27.35" r="12.77"/>
      <path class="cls-3" d="M22.65,40.62c-7.31,0-13.26-5.95-13.26-13.26s5.95-13.26,13.26-13.26,13.26,5.95,13.26,13.26-5.95,13.26-13.26,13.26ZM22.65,15.08c-6.77,0-12.27,5.51-12.27,12.27s5.51,12.27,12.27,12.27,12.27-5.51,12.27-12.27-5.51-12.27-12.27-12.27Z"/>
    </g>
    <g>
      <circle class="cls-1" cx="22.65" cy="27.35" r="5.7"/>
      <path class="cls-3" d="M22.65,33.55c-3.42,0-6.19-2.78-6.19-6.19s2.78-6.19,6.19-6.19,6.19,2.78,6.19,6.19-2.78,6.19-6.19,6.19ZM22.65,22.15c-2.87,0-5.2,2.33-5.2,5.2s2.33,5.2,5.2,5.2,5.2-2.33,5.2-5.2-2.33-5.2-5.2-5.2Z"/>
    </g>
    <g>
      <line class="cls-1" x1="22.65" y1="27.35" x2="36.35" y2="13.65"/>
      <path class="cls-3" d="M22.65,27.85c-.13,0-.25-.05-.35-.15-.19-.19-.19-.51,0-.7l13.7-13.7c.19-.19.51-.19.7,0,.19.19.19.51,0,.7l-13.7,13.7c-.1.1-.22.15-.35.15Z"/>
    </g>
    <path class="cls-3" d="M40.12,14.14h-3.77c-.27,0-.5-.22-.5-.49v-3.77c0-.27.22-.49.5-.49s.49.22.49.49v3.27h3.27c.27,0,.49.22.49.5s-.22.49-.49.49Z"/>
    <path class="cls-3" d="M37.81,16.45h-3.77c-.27,0-.49-.22-.49-.49v-3.77c0-.27.22-.5.49-.5s.49.22.49.5v3.27h3.27c.27,0,.49.22.49.49s-.22.49-.49.49Z"/>
  </g>
</svg>