<?xml version="1.0" encoding="UTF-8"?>
<svg id="Layer_1" data-name="Layer 1" xmlns="http://www.w3.org/2000/svg" viewBox="0 0 50 50">
  <defs>
    <style>
      .cls-1 {
        fill: #fff;
      }

      .cls-2 {
        fill: #00081c;
      }

      .cls-3 {
        fill: #1caa53;
      }
    </style>
  </defs>
  <rect class="cls-3" x="1.9" y="1.9" width="46.2" height="46.2" rx="6.93" ry="6.93"/>
  <g>
    <g>
      <rect class="cls-1" x="12.38" y="29.48" width="5.18" height="8.19"/>
      <path class="cls-2" d="M17.56,38.16h-5.18c-.27,0-.49-.22-.49-.49v-8.19c0-.27.22-.49.49-.49h5.18c.27,0,.5.22.5.49v8.19c0,.27-.22.49-.5.49ZM12.88,37.17h4.19v-7.2h-4.19v7.2Z"/>
    </g>
    <g>
      <rect class="cls-1" x="20.45" y="23.5" width="5.18" height="14.17"/>
      <path class="cls-2" d="M25.63,38.16h-5.18c-.27,0-.5-.22-.5-.49v-14.17c0-.27.22-.5.5-.5h5.18c.27,0,.5.22.5.5v14.17c0,.27-.22.49-.5.49ZM20.95,37.17h4.19v-13.18h-4.19v13.18Z"/>
    </g>
    <g>
      <rect class="cls-1" x="28.49" y="16.21" width="5.18" height="21.46"/>
      <path class="cls-2" d="M33.67,38.16h-5.18c-.27,0-.5-.22-.5-.49v-21.46c0-.27.22-.5.5-.5h5.18c.27,0,.5.22.5.5v21.46c0,.27-.22.49-.5.49ZM28.99,37.17h4.19v-20.47h-4.19v20.47Z"/>
    </g>
    <path class="cls-2" d="M37.62,24.84c-.27,0-.5-.22-.5-.49v-11.52h-11.52c-.27,0-.5-.22-.5-.5s.22-.49.5-.49h12.01c.27,0,.49.22.49.49v12.01c0,.27-.22.49-.49.49Z"/>
  </g>
</svg>