<?xml version="1.0" encoding="UTF-8"?>
<svg id="Layer_1" data-name="Layer 1" xmlns="http://www.w3.org/2000/svg" viewBox="0 0 50 50">
  <defs>
    <style>
      .cls-1 {
        fill: #ff760d;
      }

      .cls-2 {
        fill: #fff;
      }

      .cls-3 {
        fill: #00081c;
      }
    </style>
  </defs>
  <rect class="cls-1" x="1.9" y="1.9" width="46.2" height="46.2" rx="6.93" ry="6.93"/>
  <g>
    <g>
      <path class="cls-2" d="M37.36,12.53l-1.71,13.29-13.27,1.7,1.69-13.27,13.29-1.72Z"/>
      <path class="cls-3" d="M22.38,28.01c-.13,0-.26-.05-.35-.14-.11-.11-.16-.26-.14-.41l1.69-13.27c.03-.22.2-.4.43-.43l13.29-1.72c.15-.02.3.03.41.14.11.11.16.26.14.41l-1.71,13.29c-.03.22-.2.4-.43.43l-13.27,1.7s-.04,0-.06,0ZM24.51,14.69l-1.56,12.25,12.25-1.57,1.58-12.27-12.27,1.59Z"/>
    </g>
    <g>
      <line class="cls-2" x1="18.61" y1="31.3" x2="12.64" y2="37.27"/>
      <path class="cls-3" d="M12.64,37.77c-.13,0-.25-.05-.35-.15-.19-.19-.19-.51,0-.7l5.97-5.97c.19-.19.51-.19.7,0,.19.19.19.51,0,.7l-5.97,5.97c-.1.1-.22.15-.35.15Z"/>
    </g>
    <g>
      <line class="cls-2" x1="27.16" y1="31.3" x2="21.19" y2="37.27"/>
      <path class="cls-3" d="M21.19,37.77c-.13,0-.25-.05-.35-.15-.19-.19-.19-.51,0-.7l5.97-5.97c.19-.19.51-.19.7,0,.19.19.19.51,0,.7l-5.97,5.97c-.1.1-.22.15-.35.15Z"/>
    </g>
    <g>
      <line class="cls-2" x1="18.61" y1="22.76" x2="12.64" y2="28.72"/>
      <path class="cls-3" d="M12.64,29.22c-.13,0-.25-.05-.35-.15-.19-.19-.19-.51,0-.7l5.97-5.97c.19-.19.51-.19.7,0,.19.19.19.51,0,.7l-5.97,5.97c-.1.1-.22.15-.35.15Z"/>
    </g>
  </g>
</svg>