<?xml version="1.0" encoding="UTF-8"?>
<svg id="Layer_1" data-name="Layer 1" xmlns="http://www.w3.org/2000/svg" viewBox="0 0 50 50">
  <defs>
    <style>
      .cls-1 {
        fill: #ffcb05;
      }

      .cls-2 {
        fill: #fff;
      }

      .cls-3 {
        fill: #00081c;
      }
    </style>
  </defs>
  <rect class="cls-1" x="1.9" y="1.9" width="46.2" height="46.2" rx="6.93" ry="6.93"/>
  <g>
    <g>
      <path class="cls-2" d="M34.59,27.33c0-5.31-4.28-9.59-9.59-9.59s-9.59,4.28-9.59,9.59c0,4.36,2.92,8.06,6.9,9.21v4.1h5.36v-4.1c4.02-1.15,6.92-4.85,6.92-9.21h0Z"/>
      <path class="cls-3" d="M27.66,41.13h-5.36c-.27,0-.5-.22-.5-.49v-3.73c-4.08-1.35-6.9-5.23-6.9-9.57,0-5.56,4.53-10.09,10.09-10.09s10.09,4.53,10.09,10.09c0,.03,0,.06,0,.09-.04,4.31-2.86,8.15-6.92,9.48v3.73c0,.27-.22.49-.49.49ZM22.8,40.14h4.37v-3.6c0-.22.15-.42.36-.48,3.86-1.11,6.56-4.7,6.56-8.73,0-.03,0-.06,0-.09-.05-4.98-4.11-9.01-9.1-9.01s-9.1,4.08-9.1,9.1c0,4.03,2.69,7.62,6.54,8.73.21.06.36.26.36.48v3.6ZM34.59,27.33h0,0Z"/>
    </g>
    <g>
      <path class="cls-3" d="M25,15.11c-.27,0-.5-.22-.5-.49v-5.25c0-.27.22-.49.5-.49s.5.22.5.49v5.25c0,.27-.22.49-.5.49Z"/>
      <g>
        <line class="cls-1" x1="30.07" y1="15.46" x2="33.79" y2="11.75"/>
        <path class="cls-3" d="M30.07,15.96c-.13,0-.25-.05-.35-.15-.19-.19-.19-.51,0-.7l3.71-3.71c.19-.19.51-.19.7,0s.19.51,0,.7l-3.71,3.71c-.1.1-.22.15-.35.15Z"/>
      </g>
      <g>
        <line class="cls-1" x1="19.93" y1="15.46" x2="16.21" y2="11.75"/>
        <path class="cls-3" d="M19.93,15.96c-.13,0-.25-.05-.35-.15l-3.71-3.71c-.19-.19-.19-.51,0-.7s.51-.19.7,0l3.71,3.71c.19.19.19.51,0,.7-.1.1-.22.15-.35.15Z"/>
      </g>
    </g>
  </g>
</svg>