<?xml version="1.0" encoding="UTF-8"?>
<svg id="Layer_1" data-name="Layer 1" xmlns="http://www.w3.org/2000/svg" viewBox="0 0 50 50">
  <defs>
    <style>
      .cls-1 {
        fill: #ffcb05;
      }

      .cls-2 {
        fill: #f7bacf;
      }

      .cls-3 {
        fill: #fff;
      }

      .cls-4 {
        fill: #00081c;
      }
    </style>
  </defs>
  <rect class="cls-2" x="1.9" y="1.9" width="46.2" height="46.2" rx="6.93" ry="6.93"/>
  <g>
    <g>
      <g>
        <path class="cls-3" d="M25.04,11.27l3.18,6.44,7.09,1.02-5.14,4.99,1.23,7.08-6.35-3.33-6.35,3.33,1.23-7.08-5.15-4.99,7.1-1.02,3.17-6.44Z"/>
        <path class="cls-4" d="M18.68,31.3c-.1,0-.21-.03-.29-.1-.15-.11-.23-.3-.2-.49l1.19-6.82-4.96-4.81c-.14-.13-.18-.33-.13-.51.06-.18.21-.31.4-.34l6.84-.99,3.06-6.2c.08-.17.26-.28.44-.28h0c.19,0,.36.11.44.28l3.07,6.2,6.83.99c.19.03.34.16.4.34.06.18,0,.38-.13.51l-4.96,4.81,1.18,6.82c.03.19-.04.37-.2.48-.15.11-.35.13-.52.04l-6.12-3.21-6.12,3.21c-.07.04-.15.06-.23.06ZM25.04,26.97c.08,0,.16.02.23.06l5.46,2.87-1.05-6.09c-.03-.16.03-.33.14-.44l4.42-4.29-6.1-.88c-.16-.02-.3-.12-.37-.27l-2.74-5.54-2.73,5.54c-.07.15-.21.25-.37.27l-6.1.88,4.43,4.29c.12.11.17.28.14.44l-1.06,6.08,5.46-2.87c.07-.04.15-.06.23-.06ZM21.86,17.71h0,0Z"/>
      </g>
      <path class="cls-4" d="M25.04,41.1c-.27,0-.49-.22-.49-.49v-13.13c0-.27.22-.49.49-.49s.49.22.49.49v13.13c0,.27-.22.49-.49.49Z"/>
    </g>
    <g>
      <line class="cls-1" x1="32.96" y1="12.96" x2="36.53" y2="9.4"/>
      <path class="cls-4" d="M32.96,13.46c-.13,0-.25-.05-.35-.15-.19-.19-.19-.51,0-.7l3.57-3.57c.19-.19.51-.19.7,0,.19.19.19.51,0,.7l-3.57,3.57c-.1.1-.22.15-.35.15Z"/>
    </g>
    <g>
      <line class="cls-1" x1="17.12" y1="12.96" x2="13.55" y2="9.4"/>
      <path class="cls-4" d="M17.12,13.46c-.13,0-.25-.05-.35-.15l-3.57-3.57c-.19-.19-.19-.51,0-.7.19-.19.51-.19.7,0l3.57,3.57c.19.19.19.51,0,.7-.1.1-.22.15-.35.15Z"/>
    </g>
    <g>
      <g>
        <line class="cls-3" x1="14.67" y1="25.34" x2="9.79" y2="26.87"/>
        <path class="cls-4" d="M9.79,27.37c-.21,0-.41-.14-.47-.35-.08-.26.06-.54.32-.62l4.88-1.54c.26-.08.54.06.62.32.08.26-.06.54-.32.62l-4.88,1.54s-.1.02-.15.02Z"/>
      </g>
      <g>
        <line class="cls-3" x1="40.21" y1="26.87" x2="35.33" y2="25.34"/>
        <path class="cls-4" d="M40.21,27.37s-.1,0-.15-.02l-4.88-1.54c-.26-.08-.41-.36-.32-.62.08-.26.36-.41.62-.32l4.88,1.54c.26.08.41.36.32.62-.07.21-.26.35-.47.35Z"/>
      </g>
    </g>
  </g>
</svg>