<?xml version="1.0" encoding="UTF-8"?>
<svg id="Layer_1" data-name="Layer 1" xmlns="http://www.w3.org/2000/svg" viewBox="0 0 50 50">
  <defs>
    <style>
      .cls-1 {
        fill: #fff;
      }

      .cls-2 {
        fill: #00081c;
      }

      .cls-3 {
        fill: #555fff;
      }
    </style>
  </defs>
  <rect class="cls-3" x="1.9" y="1.9" width="46.2" height="46.2" rx="6.93" ry="6.93"/>
  <g>
    <polygon class="cls-1" points="22.31 27.36 22.31 37.48 12.2 37.48 22.31 27.36"/>
    <path class="cls-2" d="M22.31,37.97h-10.11c-.2,0-.38-.12-.46-.31s-.03-.4.11-.54l10.11-10.11c.14-.14.35-.18.54-.11.18.08.31.26.31.46v10.11c0,.27-.22.5-.5.5ZM13.4,36.98h8.42v-8.42l-8.42,8.42Z"/>
  </g>
  <path class="cls-2" d="M15.66,31.32c-.13,0-.25-.05-.35-.15l-5.08-5.08c-.19-.19-.19-.51,0-.7l13.23-13.23c.19-.19.51-.19.7,0,.19.19.19.51,0,.7l-12.88,12.88,4.73,4.73c.19.19.19.51,0,.7-.1.1-.22.15-.35.15Z"/>
  <g>
    <polygon class="cls-1" points="27.69 22.64 27.69 12.52 37.8 12.52 27.69 22.64"/>
    <path class="cls-2" d="M27.69,23.13c-.06,0-.13-.01-.19-.04-.18-.08-.31-.26-.31-.46v-10.11c0-.27.22-.49.5-.49h10.11c.2,0,.38.12.46.31s.03.4-.11.54l-10.11,10.11c-.09.09-.22.15-.35.15ZM28.18,13.02v8.42l8.42-8.42h-8.42Z"/>
  </g>
  <path class="cls-2" d="M26.18,37.97c-.13,0-.25-.05-.35-.15-.19-.19-.19-.51,0-.7l12.88-12.88-4.73-4.73c-.19-.19-.19-.51,0-.7.19-.19.51-.19.7,0l5.08,5.08c.09.09.15.22.15.35s-.05.26-.15.35l-13.23,13.23c-.1.1-.22.15-.35.15Z"/>
</svg>