<?xml version="1.0" encoding="UTF-8"?>
<svg xmlns="http://www.w3.org/2000/svg" id="Content" viewBox="0 0 788 720">
  <defs>
    <style>.cls-1,.cls-2,.cls-3,.cls-4,.cls-5,.cls-6,.cls-7,.cls-8,.cls-9,.cls-10,.cls-11,.cls-12,.cls-13,.cls-14,.cls-15,.cls-16,.cls-17{stroke-linejoin:round;}.cls-1,.cls-2,.cls-3,.cls-4,.cls-5,.cls-6,.cls-7,.cls-8,.cls-9,.cls-10,.cls-11,.cls-12,.cls-13,.cls-14,.cls-15,.cls-16,.cls-17,.cls-18{stroke-linecap:round;}.cls-1,.cls-2,.cls-3,.cls-4,.cls-5,.cls-6,.cls-8,.cls-13{stroke:#0c111d;}.cls-1,.cls-19,.cls-20{fill:#7780ff;}.cls-2{fill:#95a2bc;}.cls-3{fill:#4a5871;}.cls-4{fill:#af6759;}.cls-5,.cls-21{fill:#fcc3b6;}.cls-6,.cls-7,.cls-22{fill:#ffcb05;}.cls-7,.cls-9,.cls-14{stroke:#0c121d;}.cls-8,.cls-9,.cls-23,.cls-24{fill:#fff;}.cls-10,.cls-15,.cls-18,.cls-23,.cls-19,.cls-25{stroke:#00081c;}.cls-10,.cls-26{fill:#00081c;}.cls-11{stroke:#fcc3b6;}.cls-11,.cls-12,.cls-13,.cls-14,.cls-15,.cls-16,.cls-17,.cls-27,.cls-18,.cls-25{fill:none;}.cls-12{stroke:#0e111d;}.cls-16{stroke:#000;}.cls-17{stroke:#273143;}.cls-27,.cls-20,.cls-28,.cls-29,.cls-30,.cls-22,.cls-24,.cls-21,.cls-31,.cls-26,.cls-32{stroke-width:0px;}.cls-18,.cls-23,.cls-19,.cls-25{stroke-miterlimit:10;}.cls-28{fill:#555fff;}.cls-29{fill:#0c121d;}.cls-30{fill:#ccd5e8;}.cls-31{fill:#e9e8ff;}.cls-32{fill:#00893e;}</style>
  </defs>
  <rect class="cls-20" x="-9.95" y="-3.56" width="807.91" height="727.12"></rect>
  <rect class="cls-28" x="131.25" y="-3.57" width="149.84" height="146.31"></rect>
  <rect class="cls-28" x="647.74" y="-3.57" width="149.84" height="146.31"></rect>
  <rect class="cls-28" x="-18.59" y="142.74" width="149.84" height="146.31"></rect>
  <rect class="cls-28" x="131.25" y="289.05" width="149.84" height="146.31"></rect>
  <rect class="cls-28" x="647.7" y="576.77" width="149.84" height="146.31"></rect>
  <rect class="cls-27" x="-2.85" y="-3.56" width="793.32" height="727.12"></rect>
  <line class="cls-10" x1="562.28" y1="582.55" x2="225.72" y2="582.55"></line>
  <path class="cls-17" d="M452.17,287.87s-9.09,8.56-5.89,14.33c2.7,4.86,3.64-1.51,4.47-3.45.45-1.05,1.83-4.08,3.85-3.26,2.02.82,3.16,2.75,3.03,3.79s-.56,2.54-3.03,1.5c-2.48-1.04-3.4-2.89-3.4-2.89"></path>
  <path class="cls-17" d="M448.73,297.65l-.19.91"></path>
  <path class="cls-17" d="M452.64,296.7s2.42,2.62,2.45,5.39c0,.78-.02,1.58-.34,2.33"></path>
  <path class="cls-17" d="M453.43,305.69l1.34-1.57,1.26,1.95"></path>
  <path class="cls-17" d="M456.86,297.14s-1.53-3.11.46-5.49c1.46-1.76,3.68-2.33,4.82-2.1,1.17.24,3.13,1.35,2.93,4.56,0,0-.43,2.39-2.49,3.86-2.06,1.47-4.89,4.73-3.78,8.46,1.11,3.73,4.69,4.33,4.84,4.35s5.49.77,7.97-3.38c2.49-4.15-.61-12.4-.61-12.4"></path>
  <path class="cls-17" d="M469.54,289.54s2.98,4.22.4,7.86c-2.58,3.64-6.28,4.91-5.76,7.21.21.92.72,1.27,1.26,1.35.98.15,1.87-.54,2.13-1.5.26-.96.31-2.53-.41-3.85"></path>
  <path class="cls-17" d="M475.21,290.07s1.01,1.74.57,3.92c-.7,3.48-3.47,5.16-3.47,5.16"></path>
  <path class="cls-17" d="M471.61,307.4s.84,3.3,4.34,3.67c3.5.37,6.16-1.54,7.24-4.21.76-1.88,7.3-15.83,9.5-15.99"></path>
  <path class="cls-17" d="M480.41,290.37s1.23,3.73.35,5.97c-1.32,3.38-3.98,4.15-3.99,6,0,1.66,1.92,1.78,2.64,1,.72-.78,4.69-12.67,8.18-12.87"></path>
  <rect class="cls-23" x="370.2" y="335.08" width="7.05" height="247.47"></rect>
  <rect class="cls-9" x="478.58" y="519.9" width="24.91" height="28.83" transform="translate(982.08 1068.63) rotate(-180)"></rect>
  <rect class="cls-9" x="424.38" y="518.8" width="26.78" height="30.99" transform="translate(858.03 1082.46) rotate(-178.15)"></rect>
  <path class="cls-22" d="M425.44,547.73l25.42.43c.12,0,1,.08,1,.2v24.02c0,.12-1.06.04-1.18.04l-65,.06c-.18,0-.28-.2-.17-.34l.85-1.13s.05-.05.08-.06l14.93-7.29h.02s11.61-6.92,11.61-6.92c0,0,.02-.01.03-.02l3.67-2.99c.93-.76,2.16-1.53,2.93-2.46l2.91-3.54h2.91ZM479.18,572.48l31.2-.12c.14,0,.82-.47.78-.61l-7.46-24.15c-.03-.09-.55-.15-.65-.15l-24.92.08c1.3.07.53-.05.54.07l.38,23.89s0,.05,0,.08l-.08.67c-.01.13.09.24.21.24Z"></path>
  <path class="cls-14" d="M478.45,547.49l.59,25.2.23,9.61h34.82l-10.36-34.97-25.28.15Z"></path>
  <path class="cls-14" d="M501.62,557.78l-14.87.17M501.26,551.56l-14.87.17M479.44,570.88s5.27-8.67,16.12-8.85c6.23-.1,12.02,4.01,14.96,8.34M451.73,547.97l.16,34.54h-70s-1.01-5.75,3.87-10.65c2.06-2.07,5.64-3.73,9.93-5.5,14.22-5.89,25.06-14.85,26.82-18.68l29.22.3ZM385.68,572.26h66.09M406.35,572.17l-.08-10.9M436.06,572.17l15.43-15.46M411.65,557.92l4.31,6.88M416.93,553.99l4.62,6.73"></path>
  <path class="cls-7" d="M500.57,327.41l-.11-.23-73.53-8.41-2.02,3.89c-7.13,13.77-10.81,29.25-10.69,44.95l1.44,156.14h39.8l4.57-138.91,12.4,139.61h38.5l-2.29-137.76-.28-25.67c-.13-11.69-2.79-23.19-7.79-33.61Z"></path>
  <line class="cls-12" x1="482.5" y1="345.59" x2="501.12" y2="373.2"></line>
  <line class="cls-25" x1="438.13" y1="391.47" x2="438.13" y2="458.44"></line>
  <line class="cls-18" x1="431.1" y1="530.09" x2="431.1" y2="541.76"></line>
  <line class="cls-18" x1="437.25" y1="532.28" x2="437.25" y2="539.57"></line>
  <line class="cls-18" x1="444.28" y1="529.98" x2="444.28" y2="541.65"></line>
  <line class="cls-18" x1="485.48" y1="531.03" x2="485.48" y2="542.69"></line>
  <line class="cls-18" x1="494.34" y1="533.21" x2="494.34" y2="540.51"></line>
  <line class="cls-18" x1="498.66" y1="530.92" x2="498.66" y2="537.28"></line>
  <path class="cls-31" d="M499.66,273.31l32.25-.22s-1.65-20.31-4.81-34.14c-2.53-11.09-8.24-14.49-11.49-16.23-3.67-1.96-29.52-8.92-29.52-8.92l-34.03,4.44s-18.23,4.55-21.91,6.49c-3.68,1.94-9.08,12.91-9.08,12.91l11.97,82.72,67.15,6.06-.52-53.11h0Z"></path>
  <path class="cls-5" d="M527.97,273.39l-28.21-.04.02,16.49-40.22-3.25-31.94-7.27-15.41,4.27c-2.76,2.32-7.89,6.64-9.25,7.78-.52.44-.98.94-1.34,1.52-.57.9-1.09,2.19-.36,3.3,1.29,1.94,4.15,1.89,6.39.34l3.07-2.36h0c.06-.08.11-.19.16-.29l-.03.83-.12-.53c-2.19,4.05-4.02,7.12-4.02,7.12,0,0-1.57,3.18.26,4.59,1.76,1.35,4.29.53,5.92-1.46l.05.03c-.08.18-1.51,3.2.27,4.57,1.85,1.42,4.53.44,6.16-1.75,1.29-1.75,5.82-9.51,5.82-9.51h.01l-2.85,7.27c-.4,1.02-.42,2.16.05,3.14.33.71.92,1.39,1.96,1.71,2.59.79,4.38-2.78,4.38-2.78l4.38-8.36c6.27,9.15,12.39,8.99,12.39,8.99l47.24,9.19,24.93-.26s10.49-4.2,10.49-16.79-.2-26.44-.2-26.44v-.02Z"></path>
  <path class="cls-21" d="M373.14,298.75l35.84-7.37,26.58,8,.33,10.48-57.04.4-.29,6.21-6.11-.06s-1.46-4.49-.67-7.54c.79-3.05,2.19-10.11,2.19-10.11"></path>
  <path class="cls-5" d="M473.46,185.13l-2.43-7.84s-13.6-4.86-30.08-2.34h0s-.17,25.87-.17,25.87c0,0-.65,8.6,6.73,12.82.78.45,1.53,1.45,2.5,1.76,0,0,1.46-.8,2.84,8.33,1.38,9.14,5.86,32.41,5.86,32.41l26.91-42.73-5.54-13.64"></path>
  <path class="cls-14" d="M440.95,174.97l-.14,24.63s-.66,9.02,4.69,12.82c1.38.98,4.07,2.3,4.99,3.42,1.8,2.21,1.98,5.37,2.36,7.92,1.38,9.14,5.86,32.41,5.86,32.41l27.07-42.38-5.69-13.99c-.03.2,1.96-1.95,4.11-4.11,1.69-1.7,3.53-3.93,3.98-5.43,1.94-6.38-.81-9.88-5-10.07-2.9-.13-9.7,4.94-9.7,4.94l-2.43-7.84s-13.6-4.86-30.08-2.34h-.01Z"></path>
  <line class="cls-14" x1="471.1" y1="177.32" x2="480.7" y2="180.62"></line>
  <path class="cls-14" d="M421.06,237.64s5.4-10.97,9.08-12.91c3.68-1.94,21.61-6.4,21.61-6.4"></path>
  <path class="cls-14" d="M486.08,213.8s25.85,6.96,29.52,8.92c3.25,1.74,8.96,5.13,11.49,16.23,3.16,13.84,4.81,34.14,4.81,34.14l-32.25.22"></path>
  <polyline class="cls-14" points="459 255.76 482.77 242.78 479.09 235.86 487.21 232.28 489.92 214.96"></polyline>
  <polyline class="cls-14" points="458.77 255.67 445.01 239.62 451.93 234.89 446.02 228.35 449.91 218.87"></polyline>
  <line class="cls-14" x1="458.71" y1="256.14" x2="459.35" y2="286.46"></line>
  <polyline class="cls-14" points="427.62 279.31 459.56 286.58 499.78 289.83 498.53 254.65"></polyline>
  <path class="cls-14" d="M527.97,273.39s.2,13.85.2,26.44-10.49,16.79-10.49,16.79l-24.93.26-47.24-9.19s-6.12.16-12.39-8.99l-4.38,8.36s-1.79,3.59-4.38,2.78c-1.03-.32-1.63-1-1.96-1.71-.47-.98-.45-2.13-.05-3.14l3.6-9.18s1.2-4.08,5.37-3.98l4.18.1"></path>
  <path class="cls-14" d="M428.13,286.46s-5.56-.07-8.66,6.07c-3.1,6.14-6.53,11.89-6.53,11.89,0,0-1.57,3.18.26,4.59,1.85,1.42,4.53.44,6.16-1.75,1.29-1.75,5.82-9.51,5.82-9.51"></path>
  <path class="cls-14" d="M421.89,283.31s-5.56-.07-8.66,6.07c-3.1,6.14-6.53,11.89-6.53,11.89,0,0-1.57,3.18.26,4.59,1.85,1.42,4.53.44,6.16-1.75"></path>
  <path class="cls-14" d="M412.22,283.58c-2.76,2.32-7.89,6.64-9.25,7.78-.52.44-.98.94-1.34,1.52-.57.9-1.09,2.19-.36,3.3,1.29,1.94,4.15,1.89,6.39.34l3.07-2.36"></path>
  <line class="cls-14" x1="372.97" y1="298.73" x2="401.62" y2="292.87"></line>
  <line class="cls-14" x1="434.55" y1="254.8" x2="435.38" y2="280.68"></line>
  <line class="cls-14" x1="435.87" y1="302.44" x2="436.04" y2="309.85"></line>
  <line class="cls-14" x1="458.94" y1="310.35" x2="458.94" y2="316.28"></line>
  <path class="cls-14" d="M476.74,287.53s-4.3-10.6,1.23-19.51c0,0,1.84,14.44,10.76,15.06,0,0-1.69-8.14,2-13.21,0,0,1.69,7.68,8.3,11.83"></path>
  <path class="cls-14" d="M435.5,280.75s2.48-11.17,12.09-15.36c0,0-6.68,12.93.31,18.5,0,0,3.23-7.66,9.14-9.74,0,0-2.25,5.53-.79,11.69"></path>
  <path class="cls-14" d="M455.03,251.47c-.99,2.56-2.38,7.36-.87,11.44,0,0,1.69-2.76,4.5-5.28"></path>
  <path class="cls-14" d="M459.3,281.79c2.14-1.71,5.76-5.17,6.51-9.45,0,0-2.52,1.56-6.22,2.32"></path>
  <path class="cls-14" d="M445.99,240.94s-7.42,10.09-4.52,20.16c0,0,4.53-10.64,11.7-11.66"></path>
  <path class="cls-14" d="M440,221.8s5.83,10.14,2,19.9c0,0-4.42-13.87-13.3-12.86,0,0,3.14,7.7.42,13.36,0,0-1.91-4.55-6.31-7.87"></path>
  <path class="cls-14" d="M487.97,228.45s14.18,14.18,5,32.73c0,0-1.84-14.44-10.76-15.06,0,0,1.69,8.14-2,13.21,0,0-1.52-6.89-7.29-11.14"></path>
  <path class="cls-14" d="M508.69,272.47s-4.3-10.6,1.23-19.51c0,0,1.84,14.44,10.76,15.06,0,0-1.69-8.14,2-13.21,0,0,1.69,7.68,8.3,11.83"></path>
  <path class="cls-14" d="M522.56,228.96s-5.63,12.17-16.42,14.07c0,0,8.91-11.52,3.04-18.25,0,0-4.56,6.96-10.76,7.93,0,0,4.24-6.62,2.5-14.23"></path>
  <path class="cls-29" d="M476.85,288.03s-4.41-11.1,1.12-20.01c0,0,1.84,14.44,10.76,15.06,0,0-1.69-8.14,2-13.21,0,0,2.06,7.9,8.67,12.04l.34,7.78-22.88-1.65h0Z"></path>
  <path class="cls-29" d="M435.5,280.75s2.48-11.17,12.09-15.36c0,0-6.68,12.93.31,18.5,0,0,3.23-7.66,9.14-9.74,0,0-2.25,5.53-.79,11.69l-20.74-5.08h0Z"></path>
  <path class="cls-29" d="M455.03,251.47c-.99,2.56-2.38,7.36-.87,11.44,0,0,1.69-2.76,4.5-5.28l-.07-1.95-3.55-4.22Z"></path>
  <path class="cls-29" d="M459.3,281.79c2.14-1.71,5.76-5.17,6.51-9.45,0,0-2.78,1.68-6.47,2.45l-.03,7h0Z"></path>
  <path class="cls-29" d="M445.99,240.94s-7.42,10.09-4.52,20.16c0,0,4.53-10.64,11.7-11.66"></path>
  <path class="cls-29" d="M440,221.8s5.83,10.14,2,19.9c0,0-4.42-13.87-13.3-12.86,0,0,3.14,7.7.42,13.36,0,0-1.91-4.55-6.31-7.87l6.73-9.43,10.45-3.08h0Z"></path>
  <path class="cls-29" d="M487.97,228.45s14.18,14.18,5,32.73c0,0-1.84-14.44-10.76-15.06,0,0,1.69,8.14-2,13.21,0,0-1.52-6.89-7.29-11.14l9.66-5.26-3.4-7.26,8.05-3.57.73-3.66h0Z"></path>
  <path class="cls-29" d="M508.75,273.01s-4.35-11.13,1.18-20.05c0,0,1.84,14.44,10.76,15.06,0,0-1.69-8.14,2-13.21,0,0,1.69,7.68,8.3,11.83l1.03,6.38-4.14.12-19.12-.12h0Z"></path>
  <path class="cls-29" d="M522.56,228.96s-5.63,12.17-16.42,14.07c0,0,8.91-11.52,3.04-18.25,0,0-4.56,6.96-10.76,7.93,0,0,4.43-7.01,2.69-14.62l14.55,4.48,4.55,3.28,2.34,3.1h0Z"></path>
  <polyline class="cls-30" points="378.72 316.65 378.72 310.07 446.09 310.07 446.09 316.65"></polyline>
  <polyline class="cls-14" points="378.72 316.65 378.72 310.07 446.09 310.07 446.09 316.65"></polyline>
  <line class="cls-25" x1="489.07" y1="443.56" x2="489.07" y2="473.71"></line>
  <path class="cls-16" d="M505.61,309.99s6.12,0,10.05-3.5c4.64-4.13,4.81-9.18,4.81-9.18"></path>
  <path class="cls-5" d="M439.42,184.01c.32,6.28,1.64,11.46,1.81,14.23,2.31-.32,17.1-7.93,34.17-3.83l.49-6.81s-7.66-9.84-7.78-18.59c-.03-1.81,1.01-2.87,2.67-3.4-8.97-4.52-18.97-8.57-27.88-9.9-5.41,6.47-4.09,16.41-3.48,28.31Z"></path>
  <path class="cls-4" d="M468.1,169c.12,8.75,7.78,18.59,7.78,18.59l-.49,6.81c-17.07-4.1-35.73-1.69-38.04-1.37.99,16.09,5.43,27.01,19.69,27.01,16.71,0,27.12-15.82,30.02-33.85.94-5.84-.11-12.66-.08-17.55l-.23-.08s-18.77-8.32-18.65.43Z"></path>
  <path class="cls-11" d="M447.07,201.57s5.1,2.92,9.97-2.19"></path>
  <path class="cls-13" d="M437.11,173.13s-14.83-5.47-14.34-10.57c.77-8.08,12.23-7.86,17.82-7.15,1.89.24,3.77.58,5.63.99,5.16,1.15,10.19,2.85,15.07,4.88,10.99,4.56,17.99,7.31,27.7,14.14l-.68,3.84s-32-20.23-47.55-20.47c-15.56-.24-17.87,3.52-17.87,3.52"></path>
  <path class="cls-8" d="M472.95,148.79c-2.35-.26-4.97-.41-7.89-.46-11.41-.16-18.17,2.57-22.17,7.36,5.21.78,10.8,2.49,16.34,4.68,1.83-3.4,5.76-7.45,13.72-11.58Z"></path>
  <path class="cls-6" d="M490.68,167.52c-.11-5.53-1.55-16.94-17.73-18.73-7.97,4.13-11.89,8.19-13.72,11.58.71.28,1.42.57,2.14.87l-.08.03s22.51,9.85,28.83,15.16c0,0,.9-5.79.56-8.92Z"></path>
  <path class="cls-1" d="M490.12,176.1s-28.7-20.12-53.13-21.09c-24.23-.96-16.02,10.18-9.96,13.38,5.93,3.13,7.62,4.07,11.86,5.84,0,0-.2-13.49,2.34-15.19,2.03-1.36,20.45,4.38,47.61,21.94.05.13.95-2.07,1.29-4.89Z"></path>
  <path class="cls-13" d="M423.83,166.05c-4.33-5.39,7.24-12.82,30.13-3.86"></path>
  <path class="cls-30" d="M400.27,308.87l13.55-45.97-30.38.11-13.55,45.97s-2.03,4.97,1.81,7.45l30.44.05c-3.84-2.49-1.86-7.61-1.86-7.61M390.67,296.56c-4.37,0-7.91-3.54-7.91-7.91s3.54-7.91,7.91-7.91c4.37,0,7.91,3.54,7.91,7.91s-3.54,7.91-7.91,7.91"></path>
  <path class="cls-30" d="M377.27,283h-25.47c-5.32,0-9.91-3.72-11.01-8.93l-15.81-75.01c-1.16-5.52,3.05-10.71,8.69-10.71h102.45c5.68,0,10.58,3.98,11.76,9.54l15.68,74.4c1.16,5.52-3.05,10.71-8.69,10.71h-59.22s-2.4-1.73-2.4-1.73l-4.28-.23-3.43,1.93-8.27.03h0Z"></path>
  <path class="cls-14" d="M377.27,283h-25.47c-5.32,0-9.91-3.72-11.01-8.93l-15.81-75.01c-1.16-5.52,3.05-10.71,8.69-10.71h102.45c5.68,0,10.58,3.98,11.76,9.54l15.68,74.4c1.16,5.52-3.05,10.71-8.69,10.71h-46.99"></path>
  <path class="cls-14" d="M371.51,316.68c-3.84-2.49-1.81-7.45-1.81-7.45l13.55-45.97,30.38-.11-13.55,45.97s-1.98,5.13,1.86,7.61"></path>
  <circle class="cls-14" cx="390.49" cy="288.9" r="7.91" transform="translate(-47.59 79.06) rotate(-10.9)"></circle>
  <rect class="cls-19" x="352.88" y="316.49" width="203.04" height="18.86"></rect>
  <line class="cls-25" x1="353.01" y1="325.13" x2="503.73" y2="325.13"></line>
  <line class="cls-25" x1="510.7" y1="325.13" x2="556.17" y2="325.13"></line>
  <polygon class="cls-23" points="540.07 582.55 533.03 582.55 533.44 335.5 540.49 335.5 540.07 582.55"></polygon>
  <line class="cls-14" x1="479.04" y1="572.69" x2="510.38" y2="572.69"></line>
  <polygon class="cls-26" points="385.64 572.33 451.68 572.43 451.68 582.61 382.08 582.61 381.68 579.86 382.8 575.89 385.64 572.33"></polygon>
  <polygon class="cls-26" points="479.16 572.74 511.41 572.63 514.06 582.1 479.16 582.4 479.16 572.74"></polygon>
  <path class="cls-14" d="M442.26,169.86s6.79-2.1,8.96,3.9c1.52,4.2-.22,7.7-1.07,9.09-.44.71-.8,1.47-1.01,2.27-.42,1.58-.27,3.66,2.2,4.65,1.74.7,3.38.17,4.6-.56"></path>
  <path class="cls-14" d="M455.57,172.18s4.71-4.47,10.59-.68"></path>
  <circle class="cls-2" cx="480.37" cy="186.14" r="9.72"></circle>
  <path class="cls-2" d="M453.02,149.41s-.11-4.48,1.47-5.09,21.15-2.43,22.85-1.82c1.7.61,5.83.61,5.35,14.95-.49,14.34-2.43,24.31-2.43,24.31l3.04,1.34s3.89-20.54,2.92-32.45c-.97-11.91-4.62-13.37-10.33-13.25-5.71.12-24.43,1.34-25.76,5.59s-2.07,8.39-2.07,8.39l4.97-1.96Z"></path>
  <circle class="cls-2" cx="480.25" cy="185.89" r="4.98"></circle>
  <rect class="cls-3" x="478.19" y="183.7" width="4.38" height="4.38" transform="translate(41.15 -83.17) rotate(10.34)"></rect>
  <path class="cls-9" d="M456.09,177.76s3.26-5.71,10.06-1.42c0,0-4.03,6.26-10.06,1.42Z"></path>
  <path class="cls-9" d="M440.46,177.94s4.29-5.42,10.16-.18c0,0-4.76,5.72-10.16.18Z"></path>
  <path class="cls-29" d="M460.35,179.76c1.1,0,1.98-.89,1.98-1.98s-.89-1.98-1.98-1.98-1.98.89-1.98,1.98.89,1.98,1.98,1.98Z"></path>
  <path class="cls-29" d="M444.97,180.39c1.1,0,1.98-.89,1.98-1.98s-.89-1.98-1.98-1.98-1.98.89-1.98,1.98.89,1.98,1.98,1.98Z"></path>
  <line class="cls-15" x1="328.45" y1="568.6" x2="348.34" y2="568.6"></line>
  <path class="cls-32" d="M360.11,519.32c1.56,5.6-.12,11.62-5.46,13.96-5.34,2.34-11.49-1.03-13.96-5.46,0,0-8.55-12.25,1.58-17.23.29-.14,2.88-1.3,3.09-1.41,1.78-.97,10.58-4.86,14.76,10.15h0Z"></path>
  <polygon class="cls-22" points="349.37 582.49 315.56 582.49 308.37 546.17 356.57 546.17 349.37 582.49"></polygon>
  <polygon class="cls-15" points="349.37 582.49 315.56 582.49 308.37 546.17 356.57 546.17 349.37 582.49"></polygon>
  <path class="cls-24" d="M360.22,482.63c1.56,5.6-.12,11.62-5.46,13.96-5.34,2.34-11.49-1.03-13.96-5.46,0,0-8.55-12.25,1.58-17.23.29-.14,2.88-1.3,3.09-1.41,1.78-.97,10.58-4.86,14.76,10.15h0Z"></path>
  <path class="cls-24" d="M360.08,519.39c1.56,5.6-.12,11.62-5.46,13.96-5.34,2.34-11.49-1.03-13.96-5.46,0,0-8.55-12.25,1.58-17.23.29-.14,2.88-1.3,3.09-1.41,1.78-.97,10.58-4.86,14.76,10.15h0Z"></path>
  <path class="cls-15" d="M360.08,519.39c1.56,5.6-.12,11.62-5.46,13.96-5.34,2.34-11.49-1.03-13.96-5.46,0,0-8.55-12.25,1.58-17.23.29-.14,2.88-1.3,3.09-1.41,1.78-.97,10.58-4.86,14.76,10.15h0Z"></path>
  <path class="cls-24" d="M300.89,536.7c-1.56,5.6.12,11.62,5.46,13.96,5.34,2.34,11.49-1.03,13.96-5.46,0,0,8.55-12.25-1.58-17.23-.29-.14-2.88-1.3-3.09-1.41-1.78-.97-10.58-4.86-14.76,10.15h0Z"></path>
  <path class="cls-24" d="M300.78,503.85c-1.56,5.6.12,11.62,5.46,13.96,5.34,2.34,11.49-1.03,13.96-5.46,0,0,8.55-12.25-1.58-17.23-.29-.14-2.88-1.3-3.09-1.41-1.78-.97-10.58-4.86-14.76,10.15h0Z"></path>
  <path class="cls-24" d="M300.89,470.5c-1.56,5.6.12,11.62,5.46,13.96,5.34,2.34,11.49-1.03,13.96-5.46,0,0,8.55-12.25-1.58-17.23-.29-.14-2.88-1.3-3.09-1.41-1.78-.97-10.58-4.86-14.76,10.15h0Z"></path>
  <path class="cls-15" d="M330.53,521.27s2.81-16.09,11.8-12.09c0,0,5.04,2.24,9.79,13.75"></path>
  <path class="cls-15" d="M360.08,482.59c1.56,5.6-.12,11.62-5.46,13.96-5.34,2.34-11.49-1.03-13.96-5.46,0,0-8.55-12.25,1.58-17.23.29-.14,2.88-1.3,3.09-1.41,1.78-.97,10.58-4.86,14.76,10.15h0Z"></path>
  <path class="cls-15" d="M330.54,484.47s2.81-16.09,11.8-12.09c0,0,5.04,2.24,9.79,13.75"></path>
  <path class="cls-15" d="M300.89,536.7c-1.56,5.6.12,11.62,5.46,13.96,5.34,2.34,11.49-1.03,13.96-5.46,0,0,8.55-12.25-1.58-17.23-.29-.14-2.88-1.3-3.09-1.41-1.78-.97-10.58-4.86-14.76,10.15h0Z"></path>
  <path class="cls-15" d="M330.43,538.58s-2.81-16.09-11.8-12.09c0,0-5.04,2.24-9.79,13.75"></path>
  <path class="cls-15" d="M300.89,503.88c-1.56,5.6.12,11.62,5.46,13.96,5.34,2.34,11.49-1.03,13.96-5.46,0,0,8.55-12.25-1.58-17.23-.29-.14-2.88-1.3-3.09-1.41-1.78-.97-10.58-4.86-14.76,10.15h0Z"></path>
  <path class="cls-15" d="M330.43,505.76s-2.81-16.09-11.8-12.09c0,0-5.04,2.24-9.79,13.75"></path>
  <path class="cls-15" d="M300.89,470.4c-1.56,5.6.12,11.62,5.46,13.96,5.34,2.34,11.49-1.03,13.96-5.46,0,0,8.55-12.25-1.58-17.23-.29-.14-2.88-1.3-3.09-1.41-1.78-.97-10.58-4.86-14.76,10.15h0Z"></path>
  <path class="cls-15" d="M330.48,545.91v-72.44c0-7.22-1.86-14.39-8.64-13.97-2.21.14-4.25,1.17-5.82,2.73-1.9,1.9-4.59,5.42-7.19,11.72"></path>
  <line class="cls-15" x1="313.04" y1="559.41" x2="351.55" y2="559.41"></line>
  <line class="cls-15" x1="330.29" y1="568.01" x2="349.24" y2="568.01"></line>
  <line class="cls-15" x1="326.6" y1="563.73" x2="350.4" y2="563.73"></line>
  <path class="cls-15" d="M318.35,503.83s.24,3.88-1.94,6.31"></path>
  <path class="cls-15" d="M341.66,481.98s-.97,2.43,2.19,5.1"></path>
  <path class="cls-15" d="M345.06,520.83s-.97,5.1,3.4,7.53"></path>
</svg>
