<svg width="192" height="84" viewBox="0 0 192 84" fill="none" xmlns="http://www.w3.org/2000/svg">
<path d="M62.5665 51.0939C61.9661 50.8366 61.5372 50.3648 61.5372 49.6786C61.5372 48.8637 62.2234 48.2204 62.9954 48.2204C63.2528 48.2204 63.4243 48.2633 63.5959 48.349C64.6252 48.8208 65.7403 49.121 67.1127 49.121C69.6003 49.121 70.7583 47.9201 70.7583 45.647V45.0466C69.6861 46.3333 68.5281 47.1053 66.5981 47.1053C63.6388 47.1053 60.9368 44.9608 60.9368 41.1866V41.1437C60.9368 37.3266 63.6816 35.2251 66.5981 35.2251C68.571 35.2251 69.729 36.04 70.7154 37.1122V37.0264C70.7154 36.04 71.5303 35.2251 72.5167 35.2251C73.5032 35.2251 74.3181 36.04 74.3181 37.0264V45.2182C74.3181 47.4913 73.7605 49.1639 72.6883 50.2361C71.4874 51.437 69.6861 51.9517 67.1985 51.9517C65.5259 51.9946 64.0676 51.6944 62.5665 51.0939ZM70.7583 41.1437C70.7583 39.3853 69.3858 38.1415 67.6274 38.1415C65.869 38.1415 64.5394 39.3424 64.5394 41.1008V41.1437C64.5394 42.9022 65.869 44.103 67.6274 44.103C69.3858 44.103 70.7583 42.8593 70.7583 41.1437ZM76.3338 37.0693C76.3338 36.0829 77.1487 35.268 78.1351 35.268C79.1216 35.268 79.9365 36.0829 79.9365 37.0693V37.6269C80.4511 36.3831 81.3089 35.268 82.3811 35.268C83.4534 35.268 84.1396 35.9971 84.1396 37.0264C84.1396 37.97 83.5391 38.5275 82.7671 38.6991C80.9229 39.128 79.9365 40.5433 79.9365 43.0737V46.4619C79.9365 47.4484 79.1216 48.2633 78.1351 48.2633C77.1487 48.2633 76.3338 47.4484 76.3338 46.4619V37.0693ZM83.7536 44.4462C83.7536 41.6155 85.8551 40.3288 88.9002 40.3288C90.1869 40.3288 91.1304 40.5433 92.0311 40.8435V40.6291C92.0311 39.128 91.0875 38.3131 89.2862 38.3131C88.2998 38.3131 87.4849 38.4417 86.7987 38.6562C86.5842 38.742 86.4556 38.742 86.284 38.742C85.4691 38.742 84.7829 38.0986 84.7829 37.2837C84.7829 36.6404 85.1689 36.0829 85.7693 35.8684C86.9273 35.4395 88.1282 35.1822 89.8438 35.1822C91.8167 35.1822 93.232 35.6969 94.1326 36.5975C95.0762 37.5411 95.5051 38.9564 95.5051 40.6719V46.4619C95.5051 47.4484 94.7331 48.1775 93.7467 48.1775C92.7602 48.1775 92.0311 47.4484 92.0311 46.6764V46.6335C91.1733 47.6199 89.9296 48.2633 88.1711 48.2633C85.7265 48.349 83.7536 46.9766 83.7536 44.4462ZM92.0311 43.6313V42.9879C91.4307 42.6877 90.6158 42.5162 89.7151 42.5162C88.1711 42.5162 87.2276 43.1166 87.2276 44.2746V44.3175C87.2276 45.3039 88.0424 45.8615 89.2004 45.8615C90.8731 45.8615 92.0311 44.9608 92.0311 43.6313ZM97.3922 37.0693C97.3922 36.0829 98.2071 35.268 99.1935 35.268C100.18 35.268 100.995 36.0829 100.995 37.0693V37.198C101.81 36.1257 102.925 35.1393 104.769 35.1393C106.442 35.1393 107.685 35.8684 108.372 37.1551C109.487 35.8684 110.816 35.1393 112.532 35.1393C115.234 35.1393 116.821 36.7691 116.821 39.8142V46.4619C116.821 47.4484 116.006 48.2633 115.019 48.2633C114.033 48.2633 113.218 47.4484 113.218 46.4619V41.0151C113.218 39.2995 112.446 38.4417 111.117 38.4417C109.787 38.4417 108.929 39.3424 108.929 41.0151V46.4619C108.929 47.4484 108.114 48.2633 107.128 48.2633C106.141 48.2633 105.327 47.4484 105.327 46.4619V41.0151C105.327 39.2995 104.555 38.4417 103.225 38.4417C101.896 38.4417 101.038 39.3424 101.038 41.0151V46.4619C101.038 47.4484 100.223 48.2633 99.2364 48.2633C98.25 48.2633 97.4351 47.4484 97.4351 46.4619V37.0693H97.3922ZM118.751 37.0693C118.751 36.0829 119.566 35.268 120.552 35.268C121.539 35.268 122.353 36.0829 122.353 37.0693V37.198C123.168 36.1257 124.283 35.1393 126.128 35.1393C127.8 35.1393 129.044 35.8684 129.73 37.1551C130.845 35.8684 132.175 35.1393 133.891 35.1393C136.592 35.1393 138.179 36.7691 138.179 39.8142V46.4619C138.179 47.4484 137.364 48.2633 136.378 48.2633C135.392 48.2633 134.577 47.4484 134.577 46.4619V41.0151C134.577 39.2995 133.805 38.4417 132.475 38.4417C131.146 38.4417 130.288 39.3424 130.288 41.0151V46.4619C130.288 47.4484 129.473 48.2633 128.487 48.2633C127.5 48.2633 126.685 47.4484 126.685 46.4619V41.0151C126.685 39.2995 125.913 38.4417 124.584 38.4417C123.254 38.4417 122.396 39.3424 122.396 41.0151V46.4619C122.396 47.4484 121.581 48.2633 120.595 48.2633C119.609 48.2633 118.794 47.4484 118.794 46.4619L118.751 37.0693ZM139.38 44.4462C139.38 41.6155 141.482 40.3288 144.527 40.3288C145.814 40.3288 146.757 40.5433 147.658 40.8435V40.6291C147.658 39.128 146.714 38.3131 144.913 38.3131C143.926 38.3131 143.112 38.4417 142.425 38.6562C142.211 38.742 142.082 38.742 141.911 38.742C141.096 38.742 140.41 38.0986 140.41 37.2837C140.41 36.6404 140.796 36.0829 141.396 35.8684C142.554 35.4395 143.755 35.1822 145.47 35.1822C147.443 35.1822 148.859 35.6969 149.759 36.5975C150.703 37.5411 151.132 38.9564 151.132 40.6719V46.4619C151.132 47.4484 150.36 48.1775 149.373 48.1775C148.387 48.1775 147.658 47.4484 147.658 46.6764V46.6335C146.757 47.6199 145.556 48.2633 143.798 48.2633C141.353 48.349 139.38 46.9766 139.38 44.4462ZM147.658 43.6313V42.9879C147.057 42.6877 146.242 42.5162 145.342 42.5162C143.798 42.5162 142.854 43.1166 142.854 44.2746V44.3175C142.854 45.3039 143.669 45.8615 144.827 45.8615C146.543 45.8615 147.658 44.9608 147.658 43.6313ZM153.019 37.0693C153.019 36.0829 153.834 35.268 154.82 35.268C155.807 35.268 156.622 36.0829 156.622 37.0693V37.6269C157.136 36.3831 157.994 35.268 159.066 35.268C160.138 35.268 160.825 35.9971 160.825 37.0264C160.825 37.97 160.224 38.5275 159.452 38.6991C157.608 39.128 156.622 40.5433 156.622 43.0737V46.4619C156.622 47.4484 155.807 48.2633 154.82 48.2633C153.834 48.2633 153.019 47.4484 153.019 46.4619V37.0693ZM161.94 32.4373C161.94 31.4509 162.755 30.636 163.741 30.636C164.728 30.636 165.542 31.4509 165.542 32.4373V46.4619C165.542 47.4484 164.728 48.2633 163.741 48.2633C162.755 48.2633 161.94 47.4484 161.94 46.4619V32.4373ZM168.416 51.6515C167.901 51.4799 167.258 51.051 167.258 50.1504C167.258 49.2497 167.944 48.6921 168.673 48.6921C168.973 48.6921 169.145 48.735 169.274 48.7779C169.574 48.8637 169.788 48.9066 170.046 48.9066C170.689 48.9066 170.989 48.7779 171.332 48.1346L171.461 47.8344L167.129 37.7555C167.043 37.4982 166.958 37.1551 166.958 36.9406C166.958 35.9113 167.73 35.2251 168.759 35.2251C169.66 35.2251 170.174 35.7397 170.475 36.5975L173.219 44.0173L175.879 36.6404C176.179 35.8684 176.693 35.268 177.594 35.268C178.495 35.268 179.31 35.9971 179.31 36.9406C179.31 37.2409 179.224 37.6268 179.138 37.7984L174.678 48.4777C173.605 51.051 172.533 52.0375 170.389 52.0375C169.574 51.9946 169.016 51.8659 168.416 51.6515Z" fill="#273143"/>
<path d="M31.215 61.473C42.1109 61.473 50.9438 52.6401 50.9438 41.7442C50.9438 30.8483 42.1109 22.0154 31.215 22.0154C20.3191 22.0154 11.4862 30.8483 11.4862 41.7442C11.4862 52.6401 20.3191 61.473 31.215 61.473Z" fill="#273143"/>
<path d="M35.1178 44.4033C34.3029 44.4033 33.6596 45.1324 33.7883 45.9902C33.9169 46.6335 34.5174 47.0624 35.1607 47.0624H37.2194L38.4203 46.8909C36.4903 49.7215 33.1878 51.0082 29.5423 50.4077C26.583 49.936 24.0525 47.9202 22.9803 45.1324C20.5357 38.7849 25.1676 32.6947 31.215 32.6947C34.3458 32.6947 37.1336 34.5389 38.7205 36.7691V36.812C39.1494 37.4125 39.9643 37.584 40.5647 37.1551C41.1223 36.7691 41.2938 35.9971 40.9507 35.3967C38.7634 31.9656 34.8176 29.7783 30.4001 30.0785C24.653 30.5503 19.9781 35.268 19.635 41.058C19.249 47.7915 24.5672 53.2384 31.215 53.2384C34.6889 53.2384 37.8198 51.7373 39.9214 49.2497L39.664 50.6651V51.9517C39.664 52.5951 40.0929 53.1955 40.7362 53.3242C41.594 53.4957 42.3231 52.8095 42.3231 51.9946V44.4033H35.1178Z" fill="white"/>
</svg>
