<?xml version="1.0" encoding="UTF-8"?>
<svg xmlns="http://www.w3.org/2000/svg" id="Layer_1" data-name="Layer 1" viewBox="0 0 400 400">
  <defs>
    <style>
      .cls-1, .cls-2 {
        fill: #f8f8fa;
      }

      .cls-3 {
        fill: #1ca853;
      }

      .cls-3, .cls-4, .cls-5, .cls-2 {
        stroke: #00081c;
        stroke-linecap: round;
        stroke-linejoin: round;
        stroke-width: 2.4px;
      }

      .cls-4 {
        fill: #fff;
      }

      .cls-5 {
        fill: none;
      }
    </style>
  </defs>
  <path class="cls-1" d="m264.01,160.89c0,9.36-1.67,18.34-4.73,26.63-10.54,28.62-37.58,49.25-69.59,50.36v-.02c-.9.04-1.81.07-2.72.07-21.26,0-40.54-8.62-54.47-22.56-2.62-2.62-5.04-5.42-7.26-8.39-1.68-2.22-3.22-4.54-4.63-6.94-.47-.8-.94-1.61-1.38-2.44-.59-1.09-1.16-2.2-1.7-3.31-.26-.56-.53-1.13-.79-1.7-1.03-2.27-1.96-4.61-2.76-7-.6-1.79-1.14-3.61-1.62-5.45-1.58-6.16-2.42-12.61-2.42-19.26s.84-13.1,2.42-19.26c.48-1.84,1.02-3.66,1.62-5.45.8-2.39,1.73-4.73,2.76-7,.26-.58.53-1.14.79-1.7.54-1.12,1.12-2.22,1.7-3.31.44-.83.91-1.63,1.38-2.44,1.42-2.4,2.95-4.72,4.63-6.94,2.22-2.96,4.64-5.77,7.26-8.39,13.93-13.94,33.2-22.56,54.47-22.56.9,0,1.79.04,2.69.07v-.02c34.15,1.18,62.65,24.56,71.51,56.17,1.85,6.61,2.84,13.61,2.84,20.82Z"></path>
  <path class="cls-4" d="m288.05,160.97c.05,8.82-1.57,17.47-4.61,25.6l-24.16.95c3.06-8.29,4.73-17.27,4.73-26.63,0-7.21-1-14.21-2.84-20.82l23.56-.92c2.18,6.98,3.32,14.3,3.29,21.74l.04.08Z"></path>
  <path class="cls-4" d="m283.44,186.57c-10.49,28.1-37.93,49.92-72.24,51.1-3.7.12-16.16.35-21.5.22h0c32-1.12,59.05-21.74,69.59-50.36l24.16-.95Z"></path>
  <path class="cls-4" d="m284.73,139.14l-23.56.92c-8.86-31.61-37.36-55-71.51-56.17v-.11c5.34-.14,17.82.29,21.5.41,35.87,1.22,64.22,25.02,73.56,54.95Z"></path>
  <path class="cls-2" d="m264.01,160.89c0,9.36-1.67,18.34-4.73,26.63-10.54,28.62-37.58,49.25-69.59,50.36v-40.68s-.01-33.13-.01-33.13v-15.08s-.01-19.91-.01-19.91v-45.16s-.01-.02-.01-.02c34.15,1.18,62.65,24.56,71.51,56.17,1.85,6.61,2.84,13.61,2.84,20.82Z"></path>
  <path class="cls-3" d="m264.01,160.89c0,9.36-1.67,18.34-4.73,26.63-10.54,28.62-37.58,49.25-69.59,50.36-.9.04-1.81.05-2.72.05-21.26,0-40.54-8.62-54.47-22.56-2.62-2.62-5.04-5.42-7.26-8.39-1.67-2.22-3.2-4.54-4.63-6.94-.47-.8-.94-1.61-1.38-2.44-.59-1.09-1.16-2.2-1.7-3.31-.26-.56-.53-1.13-.79-1.7-1.02-2.27-1.94-4.61-2.76-7-.6-1.79-1.14-3.61-1.62-5.45-1.58-6.16-2.42-12.61-2.42-19.26s.84-13.1,2.42-19.26c.48-1.84,1.02-3.66,1.62-5.45.82-2.39,1.74-4.73,2.76-7,.26-.58.53-1.14.79-1.7.54-1.12,1.12-2.22,1.7-3.31.44-.83.91-1.63,1.38-2.44,1.43-2.4,2.96-4.72,4.63-6.94,2.22-2.96,4.64-5.77,7.26-8.39,13.93-13.94,33.2-22.56,54.47-22.56.9,0,1.8.01,2.69.05,34.15,1.18,62.65,24.56,71.51,56.17,1.85,6.61,2.84,13.61,2.84,20.82Z"></path>
  <path class="cls-5" d="m198.83,132.43s-22.68-12.23-31.45,4.88c-8.27,16.12,11.47,23.02,16.49,24.47,1.72.49,3.4,1.09,4.99,1.87,4.79,2.33,12.29,7.37,11.99,16.06-.44,12.72-10.07,20.74-22.54,18.52-8.71-1.55-13.51-4.26-13.51-4.26"></path>
  <path class="cls-5" d="m182.17,115.43v95.09"></path>
  <line class="cls-5" x1="99.7" y1="346.93" x2="274.11" y2="346.93"></line>
  <rect class="cls-4" x="110.57" y="310.6" width="153.2" height="36.33"></rect>
  <rect class="cls-4" x="157.61" y="274.26" width="153.2" height="36.33"></rect>
  <rect class="cls-4" x="89.19" y="237.93" width="153.2" height="36.33"></rect>
  <rect class="cls-3" x="161.22" y="310.6" width="51.37" height="36.33"></rect>
  <rect class="cls-3" x="208.53" y="274.26" width="51.37" height="36.33"></rect>
  <rect class="cls-3" x="140.1" y="237.93" width="51.37" height="36.33"></rect>
</svg>
