<?xml version="1.0" encoding="UTF-8"?>
<svg xmlns="http://www.w3.org/2000/svg" id="Layer_1" data-name="Layer 1" viewBox="0 0 400 400">
  <defs>
    <style>
      .cls-1 {
        fill: #7780ff;
      }

      .cls-1, .cls-2, .cls-3, .cls-4 {
        stroke: #00081c;
        stroke-linecap: round;
        stroke-linejoin: round;
        stroke-width: 2.4px;
      }

      .cls-2 {
        fill: #1ca853;
      }

      .cls-3 {
        fill: #fff;
      }

      .cls-4 {
        fill: none;
      }
    </style>
  </defs>
  <g>
    <path class="cls-3" d="m301.37,102.8c12.72,6.62,22.37,23.83,24.7,44.94.58,5.28-3.42,9.94-8.73,9.94h-55.19c-5.31,0-9.31-4.66-8.73-9.94,2.33-21.12,11.98-38.32,24.7-44.94"></path>
    <path class="cls-3" d="m308.06,88.63c0,5.69-2.59,10.78-6.69,14.17-3.19,2.59-7.18,4.14-11.62,4.14s-8.43-1.55-11.62-4.14c-4.09-3.39-6.69-8.48-6.69-14.17,0-10.13,8.18-18.36,18.31-18.36s18.31,8.23,18.31,18.36Z"></path>
  </g>
  <path class="cls-3" d="m238.65,323.52h-68.8c-6.76,0-12.06-5.88-11.28-12.59.04-.2.05-.43.08-.64.73-5.87,1.92-11.59,3.53-17.03,1.61.88,3.23,1.69,4.87,2.45,23.9,11.16,51.22,10.76,74.4.01,1.64-.76,3.28-1.57,4.87-2.45,1.61,5.44,2.8,11.15,3.52,17.02.02.2.05.43.07.64.8,6.71-4.52,12.59-11.27,12.59Z"></path>
  <g>
    <path class="cls-3" d="m118.1,235.1c-1.39.9-3.06,1.43-4.85,1.43h-54.29c-5.33,0-9.53-4.63-8.9-9.92,2.47-20.94,12.48-39.54,24.78-45.95,3.1,2.52,6.96,4.02,11.27,4.02s8.17-1.5,11.27-4.02c7.75,4.03,14.58,12.9,19.2,24.13-1.25,10.14-.71,20.41,1.52,30.31Z"></path>
    <path class="cls-3" d="m103.87,166.92c0,5.52-2.52,10.45-6.49,13.74-3.1,2.52-6.96,4.02-11.27,4.02s-8.17-1.5-11.27-4.02c-3.97-3.29-6.48-8.22-6.48-13.74,0-9.82,7.93-17.8,17.75-17.8s17.76,7.98,17.76,17.8Z"></path>
  </g>
  <g>
    <path class="cls-3" d="m290.65,270.62l-7.79,10.66-11.4-8.34h0c.72-.84,1.4-1.68,2.09-2.54.67-.86,1.34-1.74,2-2.64.34-.46.66-.9.97-1.36.29-.42.58-.84.86-1.26.34-.49.66-.98.98-1.48.3-.46.6-.92.89-1.38l11.39,8.34Z"></path>
    <path class="cls-1" d="m279.25,262.28h.01c-.29.46-.59.92-.89,1.38.3-.46.59-.92.88-1.38Z"></path>
    <polygon class="cls-1" points="290.66 270.62 282.86 281.28 290.65 270.62 290.66 270.62"></polygon>
    <path class="cls-2" d="m349.34,311.42l-9.82,13.44c-1.13,1.52-3.28,1.85-4.8.73l-52.14-38.15c-1.52-1.12-1.86-3.25-.74-4.78l1.02-1.39,7.8-10.66,1.01-1.39c1.12-1.52,3.26-1.86,4.79-.74l52.14,38.15c1.52,1.12,1.87,3.26.74,4.79Z"></path>
    <polygon class="cls-1" points="290.66 270.62 282.86 281.28 290.65 270.62 290.66 270.62"></polygon>
    <path class="cls-1" d="m279.25,262.28c-.29.46-.58.92-.88,1.38.3-.46.6-.92.89-1.38h-.01Z"></path>
    <path class="cls-2" d="m274.36,161.84c-4.98-6.52-10.98-12.44-17.95-17.54-.88-.65-1.76-1.27-2.66-1.87-39.18-26.53-92.63-17.47-120.79,21.02-9.23,12.61-14.62,26.86-16.38,41.34-1.25,10.14-.71,20.41,1.52,30.31,4.2,18.55,14.36,35.83,30.01,48.7,1.28,1.06,2.62,2.09,3.98,3.08,3.26,2.39,6.64,4.51,10.09,6.38,1.61.88,3.23,1.69,4.87,2.45,23.9,11.16,51.22,10.76,74.4.01,1.64-.76,3.28-1.57,4.87-2.45,4.94-2.66,9.65-5.83,14.06-9.47,3.95-3.24,7.63-6.86,11.06-10.87h0c.7-.84,1.39-1.68,2.09-2.54.67-.86,1.34-1.74,2-2.64.34-.46.66-.9.97-1.36.29-.42.58-.84.86-1.26.34-.49.66-.98.98-1.48.3-.46.59-.92.88-1.38h.01c19.75-31.67,17.1-71.78-4.9-100.44Zm-7.15,91.63c-1.12,1.86-2.35,3.71-3.66,5.5-1.32,1.8-2.7,3.53-4.15,5.15-1.16,1.33-2.36,2.6-3.61,3.82-.74.74-1.51,1.46-2.29,2.17-.38.35-.77.7-1.16,1.03-.18.17-.37.32-.55.48-.37.32-.74.64-1.13.94-3.04,2.5-6.25,4.7-9.6,6.64h-.01s-.01.01-.02.02c-.88.52-1.78,1-2.68,1.48-.91.47-1.82.92-2.74,1.36-19.5,9.19-42.58,9.54-62.7,0-.92-.43-1.85-.89-2.76-1.37-.44-.24-.89-.48-1.32-.72-.46-.24-.9-.49-1.34-.77h-.01c-.52-.29-1.03-.6-1.55-.92-.35-.2-.68-.42-1.02-.64-1.36-.85-2.7-1.76-4.02-2.74-2.93-2.15-5.65-4.46-8.17-6.95-25.6-25.14-29.54-65.9-7.74-95.74,22.44-30.67,64.21-38.84,96.32-20.05,2.16,1.26,4.27,2.64,6.34,4.15,8.69,6.36,15.58,14.27,20.56,23.08,12.76,22.54,13.01,50.92-.97,74.09Z"></path>
    <path class="cls-3" d="m268.18,179.39h-18.06c-6.88,0-12.29-5.99-11.5-12.83.58-4.93,1.48-9.76,2.66-14.4,2.16,1.26,4.27,2.64,6.34,4.15,8.69,6.36,15.58,14.27,20.56,23.08Z"></path>
    <path class="cls-3" d="m267.21,253.48c-1.12,1.86-2.35,3.71-3.66,5.5-1.32,1.8-2.7,3.53-4.15,5.15-1.16,1.33-2.36,2.6-3.61,3.82-7.44-20.75-19.44-37.33-33.22-44.5,6.44-5.35,10.54-13.37,10.54-22.34,0-15.95-12.89-28.92-28.85-28.92s-28.87,12.97-28.87,28.92c0,8.98,4.09,16.99,10.55,22.34-13.76,7.16-25.78,23.75-33.23,44.51-25.6-25.14-29.54-65.9-7.74-95.74,22.44-30.67,64.21-38.84,96.32-20.05-1.19,4.64-2.09,9.47-2.66,14.4-.79,6.84,4.62,12.83,11.5,12.83h18.06c12.76,22.54,13.01,50.92-.97,74.09Z"></path>
    <path class="cls-2" d="m204.26,172.18c-15.97,0-28.87,12.97-28.87,28.92,0,8.98,4.09,16.99,10.55,22.34,2.54,2.06,5.42,3.72,8.56,4.84,3.02,1.09,6.3,1.69,9.77,1.69s6.73-.6,9.77-1.69c3.13-1.12,6.01-2.77,8.54-4.84,6.44-5.35,10.54-13.37,10.54-22.34,0-15.95-12.89-28.92-28.85-28.92Z"></path>
    <path class="cls-2" d="m255.79,267.94c-.74.74-1.51,1.46-2.29,2.17-.38.35-.77.7-1.16,1.03-.18.17-.37.32-.55.48-.37.32-.74.64-1.13.94-3.04,2.5-6.25,4.7-9.6,6.64h-.01s-.01.01-.02.02c-.89.5-1.78,1-2.68,1.48-.91.47-1.82.92-2.74,1.36-19.5,9.19-42.58,9.54-62.7,0-.92-.43-1.85-.89-2.76-1.37-.44-.24-.89-.48-1.32-.72-.46-.25-.9-.5-1.34-.77h-.01c-.52-.29-1.03-.6-1.55-.92-.35-.2-.68-.42-1.02-.64-1.36-.85-2.7-1.76-4.02-2.74-2.93-2.15-5.65-4.46-8.17-6.95,7.45-20.76,19.46-37.34,33.23-44.51,2.54,2.06,5.42,3.72,8.56,4.84,3.02,1.09,6.3,1.69,9.77,1.69s6.73-.6,9.77-1.69c3.13-1.12,6.01-2.77,8.54-4.84,13.78,7.16,25.78,23.75,33.22,44.5Z"></path>
  </g>
  <path class="cls-4" d="m204.26,172.18c-15.97,0-28.87,12.97-28.87,28.92,0,8.98,4.09,16.99,10.55,22.34,2.54,2.06,5.42,3.72,8.56,4.84,3.02,1.09,6.3,1.69,9.77,1.69s6.73-.6,9.77-1.69c3.13-1.12,6.01-2.77,8.54-4.84,6.44-5.35,10.54-13.37,10.54-22.34,0-15.95-12.89-28.92-28.85-28.92Zm14.03,31.2c0,4.37-1.99,8.27-5.12,10.87-1.24,1-2.64,1.81-4.16,2.35-1.48.53-3.07.82-4.74.82s-3.29-.29-4.75-.82c-1.52-.54-2.93-1.36-4.16-2.35-3.14-2.6-5.12-6.5-5.12-10.87"></path>
</svg>
