<?xml version="1.0" encoding="UTF-8"?>
<svg xmlns="http://www.w3.org/2000/svg" id="Layer_1" data-name="Layer 1" viewBox="0 0 400 400">
  <defs>
    <style>
      .cls-1 {
        fill: #1ca853;
      }

      .cls-1, .cls-2, .cls-3, .cls-4 {
        stroke: #00081c;
        stroke-linecap: round;
        stroke-linejoin: round;
        stroke-width: 2.4px;
      }

      .cls-2 {
        fill: #7f8daa;
      }

      .cls-3 {
        fill: #fff;
      }

      .cls-4 {
        fill: #f8f8fa;
      }
    </style>
  </defs>
  <g>
    <rect class="cls-3" x="223.36" y="305.25" width="45.22" height="45.22" rx="5.13" ry="5.13" transform="translate(573.84 81.89) rotate(90)"></rect>
    <rect class="cls-3" x="178.14" y="305.25" width="45.22" height="45.22" rx="5.13" ry="5.13" transform="translate(528.61 127.11) rotate(90)"></rect>
  </g>
  <g>
    <rect class="cls-3" x="178.14" y="260.03" width="45.22" height="45.22" rx="5.13" ry="5.13" transform="translate(401.5 565.28) rotate(-180)"></rect>
    <rect class="cls-3" x="178.14" y="214.81" width="45.22" height="45.22" rx="5.13" ry="5.13" transform="translate(401.5 474.83) rotate(-180)"></rect>
    <rect class="cls-3" x="132.92" y="260.03" width="45.22" height="45.22" rx="5.13" ry="5.13" transform="translate(311.06 565.28) rotate(-180)"></rect>
    <rect class="cls-3" x="132.92" y="305.25" width="45.22" height="45.22" rx="5.13" ry="5.13" transform="translate(311.06 655.73) rotate(-180)"></rect>
  </g>
  <g>
    <rect class="cls-3" x="268.59" y="260.03" width="45.22" height="45.22" rx="5.13" ry="5.13" transform="translate(582.39 565.28) rotate(-180)"></rect>
    <rect class="cls-3" x="268.59" y="214.81" width="45.22" height="45.22" rx="5.13" ry="5.13" transform="translate(582.39 474.83) rotate(-180)"></rect>
    <rect class="cls-3" x="268.59" y="169.58" width="45.22" height="45.22" rx="5.13" ry="5.13" transform="translate(582.39 384.39) rotate(-180)"></rect>
    <rect class="cls-3" x="268.59" y="305.25" width="45.22" height="45.22" rx="5.13" ry="5.13" transform="translate(582.39 655.73) rotate(-180)"></rect>
  </g>
  <rect class="cls-3" x="87.7" y="305.25" width="45.22" height="45.22" rx="5.13" ry="5.13" transform="translate(438.17 217.56) rotate(90)"></rect>
  <g>
    <rect class="cls-1" x="178.14" y="90.8" width="45.22" height="45.22" rx="5.13" ry="5.13"></rect>
    <rect class="cls-1" x="223.36" y="90.8" width="45.22" height="45.22" rx="5.13" ry="5.13"></rect>
    <rect class="cls-1" x="223.36" y="136.03" width="45.22" height="45.22" rx="5.13" ry="5.13"></rect>
    <rect class="cls-1" x="223.36" y="181.25" width="45.22" height="45.22" rx="5.13" ry="5.13"></rect>
  </g>
  <line class="cls-4" x1="200.75" y1="77.14" x2="200.75" y2="62.97"></line>
  <line class="cls-4" x1="223.36" y1="44.78" x2="223.36" y2="68.97"></line>
  <line class="cls-4" x1="245.97" y1="80.43" x2="245.97" y2="56.97"></line>
  <g>
    <rect class="cls-3" x="87.7" y="260.03" width="45.22" height="45.22" rx="5.13" ry="5.13" transform="translate(392.95 172.33) rotate(90)"></rect>
    <rect class="cls-3" x="87.7" y="214.81" width="45.22" height="45.22" rx="5.13" ry="5.13" transform="translate(347.72 127.11) rotate(90)"></rect>
    <rect class="cls-3" x="132.92" y="214.81" width="45.22" height="45.22" rx="5.13" ry="5.13" transform="translate(392.95 81.89) rotate(90)"></rect>
    <rect class="cls-3" x="132.92" y="169.58" width="45.22" height="45.22" rx="5.13" ry="5.13" transform="translate(347.72 36.67) rotate(90)"></rect>
  </g>
  <rect class="cls-3" x="87.7" y="169.58" width="45.22" height="45.22" rx="5.13" ry="5.13" transform="translate(302.5 81.89) rotate(90)"></rect>
  <line class="cls-2" x1="80" y1="350.47" x2="320" y2="350.47"></line>
</svg>
