<svg width="192" height="84" viewBox="0 0 192 84" fill="none" xmlns="http://www.w3.org/2000/svg">
<path fill-rule="evenodd" clip-rule="evenodd" d="M63.8113 20.1967H73.4149V45.9446C73.4149 50.0285 75.2654 52.4533 76.765 53.4743C75.2016 54.8462 70.4477 56.0587 66.8742 53.1233C64.7684 51.4004 63.8113 48.5289 63.8113 45.8488V20.1967ZM123.762 41.6054V38.8934H126.697V29.4174H123.475C122.23 23.7063 117.157 19.4629 111.095 19.4629C104.108 19.4629 98.4289 25.1421 98.4289 32.1294V54.24C100.407 54.5272 102.8 54.2081 104.81 52.5171C106.916 50.7942 107.873 47.9227 107.873 45.2426V44.4131H112.659V34.9371H107.873V32.0656C107.873 30.2789 109.309 28.8431 111.095 28.8431C112.882 28.8431 114.318 30.2789 114.318 32.0656V41.5735C114.318 48.5608 119.997 54.24 126.984 54.24V44.796C125.198 44.796 123.762 43.3602 123.762 41.6054ZM87.4534 29.3855V43.3283C87.4534 44.1259 86.7833 44.7641 85.9857 44.7641C85.1881 44.7641 84.518 44.1259 84.518 43.3283V29.3855H75.0421V45.7531C75.0421 48.6885 76.0311 52.4214 80.5936 53.6338C85.1561 54.8462 87.7724 52.3257 87.7724 52.3257C87.5172 53.9848 85.9857 55.1972 83.4651 55.4524C81.5508 55.6439 79.126 55.0058 77.9136 54.4953V63.1736C81.0084 64.0989 84.2628 64.386 87.4853 63.7479C93.2921 62.6312 96.9612 57.7816 96.9612 51.3047V29.3217H87.4534V29.3855Z" fill="#273143"/>
</svg>
