<svg width="192" height="84" viewBox="0 0 192 84" fill="none" xmlns="http://www.w3.org/2000/svg">
<path fill-rule="evenodd" clip-rule="evenodd" d="M31.6711 31.7852H42.2315C47.9016 31.7852 50.036 34.6556 49.7062 38.8782C49.1637 45.8403 44.9521 49.6921 39.3693 49.6921H36.5506C35.7846 49.6921 35.2694 50.1992 35.0622 51.573L33.8519 59.5547C33.7728 60.0726 33.5002 60.3779 33.0914 60.4134H26.47C25.8457 60.4134 25.6249 59.9363 25.7885 58.9032L29.8338 33.2981C29.9946 32.2731 30.5562 31.7825 31.6738 31.7825L31.6711 31.7852Z" fill="#394556"/>
<path fill-rule="evenodd" clip-rule="evenodd" d="M77.5192 31.3109C81.0821 31.3109 84.3696 33.2436 83.9198 38.0604C83.3855 43.7713 80.3079 46.9525 75.4666 46.9661H71.244C70.6361 46.9661 70.3417 47.4623 70.1836 48.4791L69.3686 53.6775C69.2459 54.4626 68.8424 54.8497 68.2482 54.8497H64.3146C63.6876 54.8497 63.4696 54.4489 63.6086 53.5521L66.8607 32.712C67.0215 31.6871 67.4113 31.3054 68.1064 31.3054H77.522V31.3109H77.5192ZM71.1105 42.4656H74.3135C76.3171 42.3892 77.6473 41.0044 77.7809 38.4993C77.8627 36.9536 76.8187 35.8469 75.1585 35.8551L72.1436 35.8687L71.1105 42.4656ZM94.6111 53.255C94.9709 52.9278 95.3362 52.7588 95.2844 53.1623L95.1563 54.1273C95.0909 54.6316 95.2899 54.8987 95.7587 54.8987H99.2534C99.8422 54.8987 100.128 54.6616 100.273 53.7511L102.426 40.2357C102.535 39.5569 102.369 39.2244 101.854 39.2244H98.0131C97.6669 39.2244 97.4979 39.4179 97.4079 39.9468L97.2662 40.7782C97.1926 41.2116 96.9936 41.2879 96.8082 40.8518C96.1567 39.3089 94.4939 38.6165 92.1604 38.6628C86.7712 38.7746 83.1375 42.8663 82.7476 48.1111C82.4478 52.1673 85.3537 55.354 89.1864 55.354C91.9669 55.354 93.2099 54.5253 94.6111 53.255ZM91.6861 51.1778C89.3663 51.1778 87.7498 49.3268 88.0851 47.0588C88.4231 44.7908 90.5903 42.9399 92.9101 42.9399C95.2299 42.9399 96.8464 44.7908 96.5111 47.0588C96.1731 49.3268 94.0059 51.1778 91.6861 51.1778ZM109.269 39.178H105.739C105.008 39.178 104.711 39.7123 104.943 40.3938L109.342 53.2768L105.008 59.4048C104.645 59.9172 104.926 60.3834 105.436 60.3834H109.419C110.013 60.3834 110.302 60.2307 110.602 59.8028L124.133 40.3938C124.55 39.7968 124.354 39.1699 123.67 39.1699H119.905C119.259 39.1644 119 39.4206 118.63 39.9604L112.987 48.1492L110.476 39.9468C110.321 39.4425 109.953 39.1808 109.274 39.1808H109.269V39.178Z" fill="#273143"/>
<path fill-rule="evenodd" clip-rule="evenodd" d="M138.216 31.3109C141.779 31.3109 145.066 33.2436 144.617 38.0604C144.082 43.7713 141.005 46.9525 136.163 46.9661H131.941C131.333 46.9661 131.039 47.4623 130.88 48.4791L130.065 53.6775C129.943 54.4626 129.539 54.8497 128.945 54.8497H125.011C124.384 54.8497 124.166 54.4489 124.305 53.5521L127.557 32.712C127.718 31.6871 128.108 31.3054 128.803 31.3054H138.219V31.3109H138.216ZM131.807 42.4656H135.01C137.014 42.3892 138.344 41.0044 138.478 38.4993C138.559 36.9536 137.515 35.8469 135.855 35.8551L132.84 35.8687L131.807 42.4656ZM155.308 53.255C155.668 52.9278 156.033 52.7588 155.981 53.1623L155.853 54.1273C155.788 54.6316 155.987 54.8987 156.456 54.8987H159.95C160.539 54.8987 160.825 54.6616 160.97 53.7511L163.123 40.2357C163.232 39.5569 163.066 39.2244 162.551 39.2244H158.71C158.364 39.2244 158.195 39.4179 158.105 39.9468L157.963 40.7782C157.889 41.2116 157.69 41.2879 157.505 40.8518C156.853 39.3089 155.191 38.6165 152.857 38.6628C147.468 38.7746 143.834 42.8663 143.444 48.1111C143.145 52.1673 146.05 55.354 149.883 55.354C152.664 55.354 153.907 54.5253 155.308 53.255ZM152.383 51.1778C150.063 51.1778 148.447 49.3268 148.782 47.0588C149.12 44.7908 151.287 42.9399 153.607 42.9399C155.927 42.9399 157.543 44.7908 157.208 47.0588C156.87 49.3268 154.703 51.1778 152.383 51.1778ZM168.502 54.9233H164.467C164.145 54.9233 163.925 54.6725 163.974 54.3644L167.52 31.9133C167.569 31.6053 167.872 31.3545 168.191 31.3545H172.225C172.547 31.3545 172.768 31.6053 172.719 31.9133L169.172 54.3644C169.123 54.6725 168.823 54.9233 168.502 54.9233Z" fill="#273143"/>
<path fill-rule="evenodd" clip-rule="evenodd" d="M25.0662 22.9722H35.6375C38.6143 22.9722 42.1471 23.0676 44.5078 25.1529C46.0862 26.5459 46.9149 28.7621 46.724 31.1419C46.0753 39.2135 41.2476 43.7359 34.7706 43.7359H29.5559C28.6672 43.7359 28.0811 44.3247 27.8303 45.9167L26.3746 55.1714C26.2792 55.7711 26.0203 56.1255 25.546 56.1691H19.0363C18.3139 56.1691 18.0577 55.6157 18.2458 54.419L22.9345 24.7277C23.1226 23.5364 23.7741 22.9722 25.0662 22.9722Z" fill="#273143"/>
<path fill-rule="evenodd" clip-rule="evenodd" d="M27.9856 44.9844L29.8311 33.2981C29.9919 32.2731 30.5535 31.7825 31.6711 31.7825H42.2315C43.9789 31.7825 45.3937 32.0551 46.5004 32.5594C45.44 39.745 40.7922 43.7359 34.7078 43.7359H29.4931C28.8061 43.7359 28.2936 44.0875 27.9856 44.9844Z" fill="#1A2433"/>
</svg>
