<svg width="192" height="84" viewBox="0 0 192 84" fill="none" xmlns="http://www.w3.org/2000/svg">
<path d="M39.0142 42.8306C39.0142 44.3469 39.4686 45.6304 40.3772 46.6185C41.2858 47.601 42.3478 48.1348 43.7108 48.1348C45.0738 48.1348 46.2096 47.6067 47.1182 46.6185C48.0268 45.636 48.4812 44.3469 48.4812 42.8306C48.4812 41.3143 48.0268 40.0309 47.1182 39.0427C46.2096 38.0602 45.0738 37.5264 43.7108 37.5264C42.3478 37.5264 41.2858 38.0546 40.3772 39.0427C39.4686 40.0252 39.0142 41.3143 39.0142 42.8306ZM51.5081 50.4802C49.5375 52.4509 47.192 53.4333 44.3128 53.4333C42.1945 53.4333 40.451 52.8257 39.0881 51.6899V61.0035H33.1819V32.6822H39.0142C39.0142 32.6822 42.1207 32.1541 44.3128 32.1541C47.192 32.1541 49.5375 33.1365 51.5081 35.1071C53.4787 37.0778 54.4612 39.6504 54.4612 42.8306C54.4612 46.0109 53.4787 48.5096 51.5081 50.4802Z" fill="#273143"/>
<path d="M81.1697 46.3916C82.1521 45.3296 82.6065 44.1199 82.6065 42.6832C82.6065 39.8834 80.562 37.6118 77.4556 37.6118C76.0188 37.6118 74.8035 38.1399 73.821 39.1281C72.8385 40.1106 72.3842 41.3259 72.3842 42.6888C72.3842 44.0518 72.9124 45.2614 73.821 46.3234C74.7297 47.3854 76.0188 47.9135 77.4556 47.9135C78.9719 47.9135 80.1815 47.4592 81.164 46.3972M82.6008 32.6938H88.507V52.9849H82.6008V51.4686C81.0107 52.7577 79.1934 53.4392 76.9956 53.4392C74.0425 53.4392 71.5437 52.4567 69.4255 50.4123C67.381 48.3679 66.319 45.8691 66.319 42.8422C66.319 39.8152 67.381 37.3165 69.4255 35.272C71.4699 33.2276 74.0425 32.2451 76.9956 32.2451C79.4205 32.1713 82.6008 32.6994 82.6008 32.6994" fill="#273143"/>
<path d="M120.025 38.1057V52.9449H114.119V32.6538H126.613V38.1057H120.025Z" fill="#273143"/>
<path d="M51.7694 23.9878V29.4397H57.4484V52.9905H63.3546V23.9878H51.7694Z" fill="#273143"/>
<path d="M132.599 22.6531C134.797 22.6531 136.461 24.317 136.461 26.5148C136.461 28.7126 134.717 30.3765 132.599 30.3765C130.481 30.3765 128.737 28.6331 128.737 26.5148C128.737 24.3965 130.481 22.6531 132.599 22.6531Z" fill="#273143"/>
<path d="M129.663 32.7051H135.569V52.9962H129.663V32.7051Z" fill="#273143"/>
<path d="M144.763 32.6821L147.79 37.833L150.817 32.6821H157.479L151.118 42.5239L157.933 52.9733H151.419L147.784 47.2204L144.303 52.9733H137.642L144.457 42.5239L138.17 32.6821H144.758H144.763Z" fill="#273143"/>
<path d="M101.285 61.0092H95.0775L98.4111 52.9847L90.5343 32.6936H97.0481L101.591 45.2613L106.288 32.6936H112.575L101.29 61.0149L101.285 61.0092Z" fill="#273143"/>
</svg>
