<svg width="52" height="78" viewBox="0 0 52 78" fill="none" xmlns="http://www.w3.org/2000/svg">
<path d="M26 52.9061C12.2289 52.9061 1.04309 41.5287 1.04309 27.439C1.04309 13.3498 12.2505 1.97186 26 1.97186C39.7495 1.97186 50.9569 13.3498 50.9569 27.439C50.9569 41.5287 39.7712 52.9061 26 52.9061Z" fill="#B6AEF9" stroke="#222222" stroke-width="2" stroke-miterlimit="5.83"/>
<path d="M26 44.6338C16.7073 44.6338 9.15601 36.9414 9.15601 27.4391C9.15601 17.9158 16.7278 10.2443 26 10.2443C35.2927 10.2443 42.844 17.9367 42.844 27.4391C42.844 36.9632 35.2935 44.6338 26 44.6338Z" fill="white" stroke="#222222" stroke-width="2" stroke-miterlimit="5.83"/>
<mask id="path-3-inside-1_9_1367" fill="white">
<path d="M13.0104 56.1437V77.0281L25.9778 63.8059L38.9451 77.0281V56.1437"/>
</mask>
<path d="M13.0104 77.0281H11.0104V81.9238L14.4383 78.4285L13.0104 77.0281ZM25.9778 63.8059L27.4057 62.4055L25.9778 60.9495L24.5498 62.4055L25.9778 63.8059ZM38.9451 77.0281L37.5172 78.4285L40.9451 81.9238V77.0281H38.9451ZM11.0104 56.1437V77.0281H15.0104V56.1437H11.0104ZM14.4383 78.4285L27.4057 65.2062L24.5498 62.4055L11.5825 75.6277L14.4383 78.4285ZM24.5498 65.2062L37.5172 78.4285L40.373 75.6277L27.4057 62.4055L24.5498 65.2062ZM40.9451 77.0281V56.1437H36.9451V77.0281H40.9451Z" fill="#222222" mask="url(#path-3-inside-1_9_1367)"/>
<path d="M25.9937 19.3208L28.2789 24.4343L28.5108 24.9531L29.0752 25.0194L34.6343 25.6728L30.5019 29.5585L30.0979 29.9384L30.2061 30.4822L31.3056 36.0062L26.4987 33.2401L25.9999 32.9531L25.5012 33.2401L20.6943 36.0062L21.7938 30.4822L21.902 29.9384L21.498 29.5585L17.3643 25.6715L22.881 25.0193L23.4415 24.9531L23.6745 24.439L25.9937 19.3208Z" fill="#B6AEF9" stroke="#222222" stroke-width="2" stroke-miterlimit="5.83"/>
</svg>
