<svg width="60" height="60" viewBox="0 0 60 60" fill="none" xmlns="http://www.w3.org/2000/svg">
<path d="M35.4373 1.95404L32.5237 10.5586H36.4085L44.0589 5.15733" fill="#9DDAA4"/>
<path d="M35.4373 1.95404L32.5237 10.5586H36.4085L44.0589 5.15733" stroke="#222222" stroke-width="2" stroke-miterlimit="5.83"/>
<path d="M14.5829 6.02309L20.9072 3.37494L19.9343 6.02309L14.5829 14.9305L4.97479 22.8749L2.90723 22.2731L4.97479 15.5323L8.13696 11.6805L14.5829 6.02309Z" fill="#9DDAA4"/>
<path d="M21.0226 2.84003L19.3698 15.4317L11.089 22.9628L16.0643 27.5803H21.9597L27.9744 34.0551L21.636 50.9405L19.5232 49.4411L18.0579 39.5756L14.173 36.662L14.9909 29.9998L2.21179 22.9628" fill="#9DDAA4"/>
<path d="M21.0226 2.84003L19.3698 15.4317L11.089 22.9628L16.0643 27.5803H21.9597L27.9744 34.0551L21.636 50.9405L19.5232 49.4411L18.0579 39.5756L14.173 36.662L14.9909 29.9998L2.21179 22.9628" stroke="#222222" stroke-width="2" stroke-miterlimit="5.83"/>
<path d="M57.8774 24.0704L52.1694 22.9628L42.4232 18.5668L33.3075 26.8988L37.3798 31.7889H42.2529L46.3251 39.5756L43.2241 42.9834L47.603 52.4399" fill="#9DDAA4"/>
<path d="M57.8774 24.0704L52.1694 22.9628L42.4232 18.5668L33.3075 26.8988L37.3798 31.7889H42.2529L46.3251 39.5756L43.2241 42.9834L47.603 52.4399" stroke="#222222" stroke-width="2" stroke-miterlimit="5.83"/>
<path d="M58.6572 31.1249L57.5322 25.2499L53.2822 27.4999L49.9072 34.9999L48.0322 46.8749V51.8749L53.2822 46.8749L57.5322 38.3749L58.6572 31.1249Z" fill="#9DDAA4"/>
<path d="M29.9168 58.574C45.6978 58.574 58.4908 45.781 58.4908 30C58.4908 14.219 45.6978 1.42596 29.9168 1.42596C14.1358 1.42596 1.34277 14.219 1.34277 30C1.34277 45.781 14.1358 58.574 29.9168 58.574Z" stroke="#222222" stroke-width="2" stroke-miterlimit="5.83"/>
</svg>
