<svg width="70" height="80" viewBox="0 0 70 80" fill="none" xmlns="http://www.w3.org/2000/svg">
<path d="M35.0001 78.9191C32.0375 78.9191 29.6536 76.5259 29.6536 73.5518C29.6536 70.5776 32.0375 68.1844 35.0001 68.1844C37.9626 68.1844 40.3466 70.5776 40.3466 73.5518C40.3466 76.5259 37.9626 78.9191 35.0001 78.9191Z" fill="#F6D16B" stroke="#222222" stroke-width="2" stroke-miterlimit="5.83"/>
<path d="M35.0001 11.8156C32.0375 11.8156 29.6536 9.42236 29.6536 6.44824C29.6536 3.47412 32.0375 1.08089 35.0001 1.08089C37.9626 1.08089 40.3466 3.47412 40.3466 6.44824C40.3466 9.42236 37.9626 11.8156 35.0001 11.8156Z" fill="#F6D16B" stroke="#222222" stroke-width="2" stroke-miterlimit="5.83"/>
<path d="M11.3228 26.2679L16.4841 29.2653" stroke="#222222" stroke-width="2" stroke-miterlimit="5.83"/>
<path d="M53.516 50.7347L58.6773 53.732" stroke="#222222" stroke-width="2" stroke-miterlimit="5.83"/>
<path d="M58.6773 26.2679L53.516 29.2653" stroke="#222222" stroke-width="2" stroke-miterlimit="5.83"/>
<path d="M16.2758 50.8509L11.3228 53.7321" stroke="#222222" stroke-width="2" stroke-miterlimit="5.83"/>
<path d="M35 68.1846V61.4696" stroke="#222222" stroke-width="2" stroke-miterlimit="5.83"/>
<path d="M35 18.5308V11.8158" stroke="#222222" stroke-width="2" stroke-miterlimit="5.83"/>
<path d="M12.2716 23.2241C12.2716 26.1982 9.88767 28.5915 6.92511 28.5915C3.96255 28.5915 1.57861 26.175 1.57861 23.2241C1.57861 20.2732 3.96255 17.8568 6.92511 17.8568C9.88767 17.8568 12.2716 20.25 12.2716 23.2241Z" fill="#F6D16B" stroke="#222222" stroke-width="2" stroke-miterlimit="5.83"/>
<path d="M12.2716 56.7759C12.2716 59.75 9.88767 62.1432 6.92511 62.1432C3.96255 62.1432 1.57861 59.75 1.57861 56.7759C1.57861 53.8018 3.96255 51.4085 6.92511 51.4085C9.88767 51.4085 12.2716 53.8018 12.2716 56.7759Z" fill="#F6D16B" stroke="#222222" stroke-width="2" stroke-miterlimit="5.83"/>
<path d="M68.4214 56.7759C68.4214 59.75 66.0374 62.1432 63.0749 62.1432C60.1123 62.1432 57.7284 59.75 57.7284 56.7759C57.7284 53.8018 60.1123 51.4085 63.0749 51.4085C66.0374 51.4085 68.4214 53.8018 68.4214 56.7759Z" fill="#F6D16B" stroke="#222222" stroke-width="2" stroke-miterlimit="5.83"/>
<path d="M68.4214 23.2241C68.4214 26.1982 66.0374 28.5915 63.0749 28.5915C60.1123 28.5915 57.7284 26.1982 57.7284 23.2241C57.7284 20.25 60.1123 17.8568 63.0749 17.8568C66.0374 17.8568 68.4214 20.25 68.4214 23.2241Z" fill="#F6D16B" stroke="#222222" stroke-width="2" stroke-miterlimit="5.83"/>
<path d="M32.1764 61.3068C28.8435 58.2397 26.4364 49.8518 26.4364 40C26.4364 30.1483 28.8203 21.7835 32.1764 18.6933" stroke="#222222" stroke-width="2" stroke-miterlimit="5.83"/>
<path d="M37.8237 18.7165C41.1566 21.7835 43.5637 30.1715 43.5637 40.0232C43.5637 49.875 41.1798 58.2397 37.8237 61.33" stroke="#222222" stroke-width="2" stroke-miterlimit="5.83"/>
<path d="M17.8959 27.1277H52.1273" stroke="#222222" stroke-width="2" stroke-miterlimit="5.83"/>
<path d="M17.8959 52.8956H52.1042" stroke="#222222" stroke-width="2" stroke-miterlimit="5.83"/>
<path d="M13.614 40H56.386" stroke="#222222" stroke-width="2" stroke-miterlimit="5.83"/>
<path d="M35 61.4694C46.8111 61.4694 56.386 51.8572 56.386 40C56.386 28.1428 46.8111 18.5306 35 18.5306C23.1888 18.5306 13.614 28.1428 13.614 40C13.614 51.8572 23.1888 61.4694 35 61.4694Z" stroke="#222222" stroke-width="2" stroke-miterlimit="5.83"/>
</svg>
