<svg width="16" height="16" viewBox="0 0 16 16" fill="none" xmlns="http://www.w3.org/2000/svg">
<path d="M8 0C5.82667 0 5.55533 0.01 4.702 0.048C3.85 0.088 3.27 0.222 2.76 0.42C2.234 0.624 1.78733 0.898 1.34267 1.34267C0.898 1.78733 0.623333 2.23333 0.42 2.76C0.222 3.27 0.0873333 3.85 0.048 4.702C0.008 5.55533 0 5.82667 0 8C0 10.1733 0.01 10.4447 0.048 11.298C0.088 12.1493 0.222 12.73 0.42 13.24C0.620861 13.7739 0.935731 14.2576 1.34267 14.6573C1.74218 15.0646 2.22593 15.3795 2.76 15.58C3.27067 15.7773 3.85067 15.9127 4.702 15.952C5.55533 15.992 5.82667 16 8 16C10.1733 16 10.4447 15.99 11.298 15.952C12.1493 15.912 12.73 15.7773 13.24 15.58C13.7738 15.3789 14.2574 15.0641 14.6573 14.6573C15.0647 14.2579 15.3796 13.7741 15.58 13.24C15.7773 12.73 15.9127 12.1493 15.952 11.298C15.992 10.4447 16 10.1733 16 8C16 5.82667 15.99 5.55533 15.952 4.702C15.912 3.85067 15.7773 3.26933 15.58 2.76C15.379 2.22615 15.0642 1.74249 14.6573 1.34267C14.2581 0.935094 13.7743 0.620126 13.24 0.42C12.73 0.222 12.1493 0.0873333 11.298 0.048C10.4447 0.008 10.1733 0 8 0ZM8 1.44C10.1353 1.44 10.39 1.45067 11.2333 1.48733C12.0133 1.524 12.4367 1.65333 12.718 1.764C13.0927 1.90867 13.358 2.082 13.6393 2.36133C13.9187 2.64133 14.092 2.90733 14.2367 3.282C14.346 3.56333 14.4767 3.98667 14.512 4.76667C14.55 5.61067 14.5587 5.864 14.5587 8C14.5587 10.136 14.5487 10.39 14.5093 11.2333C14.4687 12.0133 14.3387 12.4367 14.2287 12.718C14.0985 13.0652 13.894 13.3796 13.6293 13.6393C13.3708 13.9042 13.0565 14.1082 12.7093 14.2367C12.4293 14.346 11.9993 14.4767 11.2193 14.512C10.37 14.55 10.12 14.5587 7.98 14.5587C5.83933 14.5587 5.58933 14.5487 4.74067 14.5093C3.96 14.4687 3.53 14.3387 3.25 14.2287C2.9026 14.1001 2.58845 13.8953 2.33067 13.6293C2.06305 13.3725 1.85781 13.0578 1.73067 12.7093C1.62067 12.4293 1.49133 11.9993 1.45067 11.2193C1.42067 10.3793 1.41 10.12 1.41 7.99C1.41 5.85933 1.42067 5.59933 1.45067 4.74933C1.49133 3.96933 1.62067 3.54 1.73067 3.26C1.87067 2.88 2.05 2.62 2.33067 2.33933C2.61 2.06 2.87067 1.88 3.25 1.74067C3.53 1.63 3.95067 1.5 4.73067 1.46C5.58067 1.43 5.83067 1.42 7.97 1.42L8 1.44ZM8 3.892C7.46053 3.892 6.92634 3.99826 6.42794 4.2047C5.92953 4.41115 5.47667 4.71374 5.09521 5.09521C4.71374 5.47667 4.41115 5.92953 4.2047 6.42794C3.99826 6.92634 3.892 7.46053 3.892 8C3.892 8.53947 3.99826 9.07366 4.2047 9.57206C4.41115 10.0705 4.71374 10.5233 5.09521 10.9048C5.47667 11.2863 5.92953 11.5889 6.42794 11.7953C6.92634 12.0017 7.46053 12.108 8 12.108C9.08951 12.108 10.1344 11.6752 10.9048 10.9048C11.6752 10.1344 12.108 9.08951 12.108 8C12.108 6.91049 11.6752 5.8656 10.9048 5.09521C10.1344 4.32481 9.08951 3.892 8 3.892ZM8 10.6667C6.52667 10.6667 5.33333 9.47333 5.33333 8C5.33333 6.52667 6.52667 5.33333 8 5.33333C9.47333 5.33333 10.6667 6.52667 10.6667 8C10.6667 9.47333 9.47333 10.6667 8 10.6667ZM13.2307 3.73C13.2214 3.97842 13.1162 4.21357 12.9372 4.38605C12.7582 4.55852 12.5193 4.65488 12.2707 4.65488C12.0221 4.65488 11.7832 4.55852 11.6041 4.38605C11.4251 4.21357 11.3199 3.97842 11.3107 3.73C11.3107 3.47539 11.4118 3.23121 11.5918 3.05118C11.7719 2.87114 12.0161 2.77 12.2707 2.77C12.5253 2.77 12.7695 2.87114 12.9495 3.05118C13.1295 3.23121 13.2307 3.47539 13.2307 3.73Z" fill="white"/>
</svg>
