<svg width="99" height="32" viewBox="0 0 99 32" fill="none" xmlns="http://www.w3.org/2000/svg">
<g clip-path="url(#clip0_396_3096)">
<path d="M2.99413 20.6681V1.32282L7.75128 20.6681H12.6832L17.4707 1.17754V20.6681H20.5181V0H14.7654L10.2439 18.7259L5.72228 0H0V20.6681H2.99413ZM29.4928 20.821C31.4002 20.821 33.133 20.0563 34.4248 18.7871V20.6757H37.2974V5.90298H34.4248V7.79928C33.133 6.52999 31.4002 5.76535 29.4928 5.76535C25.5032 5.76535 22.2736 9.12974 22.2736 13.297C22.2736 17.426 25.5032 20.821 29.4928 20.821V20.821ZM29.7893 18.0989C27.2055 18.0989 25.1536 15.9426 25.1536 13.2817C25.1536 10.6208 27.2055 8.46451 29.7893 8.46451C32.3731 8.46451 34.4248 10.6208 34.4248 13.2817C34.4248 15.9426 32.3731 18.0989 29.7893 18.0989ZM46.1049 5.7577C42.0241 5.7577 39.0603 8.88505 39.0603 12.9606C39.0603 15.9426 40.8538 18.336 42.7841 19.2765C45.7477 20.7217 47.2145 19.5747 49.2739 21.3104C50.3301 22.1973 50.8014 23.4361 50.8014 24.797C50.8014 27.2745 48.8331 29.255 46.4012 29.255C43.9087 29.255 41.9405 27.2745 41.9405 24.6748C41.9405 23.2602 42.4421 22.075 43.0272 21.2798H39.9419C39.3568 22.2815 39.0603 23.5278 39.0603 24.797C39.0603 28.7579 42.3204 32 46.3709 32C50.4215 32 53.6814 28.7503 53.6814 24.797C53.6814 22.3426 52.4807 20.217 50.5961 18.9171C52.4732 17.6477 53.7346 15.5221 53.7043 13.0676V5.90298H50.9153V7.70753C49.6538 6.49939 47.9819 5.7577 46.1049 5.7577V5.7577ZM46.4012 17.4796C43.9087 17.4796 41.9405 15.4686 41.9405 12.9606C41.9405 10.4526 43.9087 8.41098 46.4012 8.41098C48.8938 8.41098 50.8621 10.4449 50.8621 12.9606C50.8621 15.4762 48.8938 17.4796 46.4012 17.4796ZM58.6362 20.6681V12.3412C58.6362 10.1238 60.3081 8.44157 62.3903 8.44157C64.4725 8.44157 66.1444 10.1238 66.1444 12.3412V20.6681H69.0168V12.1959C69.0168 8.32687 66.4938 5.7577 62.9678 5.7577C61.2655 5.7577 59.7077 6.55292 58.621 7.8528V5.90298H55.7484V20.6681H58.6362V20.6681ZM73.9867 3.33381V0H71.0535V3.33381H73.9867ZM73.9564 20.6681V5.90298H71.0838V20.6681H73.9564ZM80.6514 20.6681V8.50274H83.3188V5.90298H80.6514V0H77.7788V5.90298H75.1115V8.50274H77.7788V20.6681H80.6514ZM94.7329 16.065C93.7905 17.5712 92.5595 18.0989 90.9788 18.0989C88.775 18.0989 86.9588 16.5315 86.4875 14.4363H98.1981V13.2817C98.1981 9.09151 94.9077 5.71947 90.8343 5.71947C86.784 5.71947 83.4707 9.08385 83.4707 13.2817C83.4707 17.449 86.8447 20.8439 90.9865 20.8439C94.1554 20.8439 96.8302 18.8941 97.9702 16.0573H94.7329V16.065ZM90.8343 8.47215C92.9165 8.47215 94.6189 9.9479 95.1509 11.9895H86.5256C87.05 9.9479 88.7521 8.47215 90.8343 8.47215V8.47215Z" fill="#222222"/>
</g>
<defs>
<clipPath id="clip0_396_3096">
<rect width="98.1981" height="32" fill="white"/>
</clipPath>
</defs>
</svg>
