<svg width="154" height="41" viewBox="0 0 154 41" fill="none" xmlns="http://www.w3.org/2000/svg">
<path fill-rule="evenodd" clip-rule="evenodd" d="M152.566 25.6602C151.686 24.748 149.991 23.4587 148.247 22.3755C144.707 20.1763 143.129 20.1388 142.611 20.1265C142.524 20.1241 142.44 20.123 142.358 20.123C140.86 20.123 139.698 20.5324 138.903 21.34C137.208 20.3507 135.774 19.7297 134.63 19.4875C135.93 16.4915 137.044 13.393 138.065 10.3565C138.404 9.40911 138.744 8.43815 139.083 7.43823L139.096 7.40183L139.105 7.37001C139.654 5.60552 139.415 3.92047 138.431 2.62524C137.459 1.34521 135.884 0.611032 134.11 0.611032C132.388 0.611032 130.741 1.32523 129.644 2.5347C129.594 2.46026 129.54 2.38786 129.486 2.31801C128.545 1.10548 127.069 0.437783 125.331 0.437783C122.523 0.437783 119.411 2.17229 117.934 4.56023L117.9 4.61356C116.231 7.24948 114.507 9.96841 112.785 12.6991C112.867 11.2937 112.956 9.76988 113.051 8.29437C113.219 5.95498 112.585 3.90466 111.263 2.52134C110.209 1.41496 108.787 0.805692 107.261 0.805692C104.636 0.805692 102.212 2.52653 100.618 5.51854C99.7604 6.95724 98.9103 8.50362 98.0863 10.1181C97.3677 9.57797 96.503 9.29398 95.5693 9.29398C94.151 9.29398 92.74 9.94027 91.375 11.2139C90.2345 12.2619 89.3843 13.8601 88.6512 15.738C88.0851 16.614 87.2559 16.6157 87.2225 15.6054C87.2465 15.4826 87.2705 15.3587 87.2945 15.2323L87.3008 15.198C87.6016 13.4878 87.2266 11.9205 86.2459 10.7853C85.3707 9.7713 84.0642 9.18977 82.6605 9.18977C82.3441 9.18977 82.0234 9.21934 81.7049 9.27706C81.7143 8.94566 81.7101 8.60824 81.6934 8.26501C81.6798 7.69193 81.6328 7.10805 81.5514 6.51856L81.5368 6.40986L81.5127 6.30239C81.1879 4.81067 80.2034 2.77422 77.3634 1.54365C75.6632 0.806814 73.5058 0.448692 70.768 0.448692C70.4061 0.448692 70.0289 0.455117 69.6564 0.467761C67.8117 0.445532 65.9332 0.411985 64.1164 0.379558C62.2696 0.34652 60.3598 0.312464 58.4641 0.289827L56.3475 0.264638L55.6618 2.22001C54.5022 5.527 53.5659 8.28122 52.7254 10.8583C52.6708 10.8203 52.6142 10.7844 52.5586 10.7474C49.7096 8.70286 45.9273 8.53726 42.5146 9.30816C41.8554 9.45714 41.1173 9.67025 40.349 9.94353C39.3029 10.2937 38.2903 10.7272 37.3598 11.2351C37.2377 11.3017 37.1186 11.3694 37.0008 11.4376C35.9358 11.8017 34.8926 11.3761 35.8312 10.5147C36.2136 10.177 36.6094 9.83973 37.015 9.50119C37.4551 9.15214 37.9113 8.80126 38.3837 8.44692L38.4603 8.38951L38.5328 8.32731C40.1261 6.96009 40.714 4.79119 39.9955 2.93013C39.3297 1.20572 37.7068 0.134521 35.7601 0.134521C35.0373 0.134521 34.283 0.283501 33.5183 0.577175L33.3861 0.627956L33.2596 0.691075C32.8526 0.893893 32.4532 1.09947 32.0575 1.30677C29.2033 2.69816 26.5681 4.41482 24.0897 6.34226C23.4745 6.80857 22.8658 7.28926 22.2617 7.78718C22.329 7.47749 22.3925 7.16719 22.4516 6.86006C22.9621 4.34568 22.239 2.82929 21.5424 1.99976C20.7585 1.06612 19.5987 0.530676 18.3605 0.530676C16.4286 0.530676 14.6094 1.76187 13.4982 3.81697C8.11078 12.8884 4.12798 24.9641 0.942463 35.5803L0 38.7211L3.31491 39.2065C3.91241 39.2941 4.70511 39.3945 5.53802 39.3945C6.23087 39.3945 6.88842 39.3233 7.51172 39.1803C10.4177 38.5897 12.228 36.5767 13.3613 34.0539C13.496 33.7884 13.6271 33.5137 13.7538 33.2279L13.8311 33.0533L13.8841 32.8702C13.9491 32.6457 14.0147 32.4318 14.0809 32.2253C14.7802 30.4414 15.5224 29.0267 16.5992 27.5254C16.7498 27.3358 16.9059 27.144 17.0685 26.9469C17.792 29.4183 18.3354 32.0344 18.8618 34.5688L18.8999 34.7519C19.1163 35.9823 19.8844 37.2387 21.0071 38.1987C22.2138 39.2306 23.6544 39.7989 25.0644 39.7992C25.7234 39.7992 27.3612 39.6435 28.6929 38.2422C30.0585 39.4434 32.0243 40.0769 34.3953 40.0769C36.324 40.0769 38.4129 39.6377 40.147 38.8694C40.9219 39.3529 41.7762 39.598 42.6881 39.598C42.7381 39.598 42.7884 39.5971 42.8324 39.5957L45.7406 39.5954L45.8085 39.5921C47.3321 39.5176 48.2831 38.9411 48.841 38.4138C50.4484 39.9531 52.6814 39.953 53.9005 39.953L53.9481 39.9526C56.467 39.911 59.3219 39.8638 62.0891 39.8638H62.1986L62.3079 39.8557C65.6804 39.6088 68.7404 38.4824 71.4071 36.5069C71.579 36.7955 71.7682 37.0721 71.9712 37.3314C73.3833 39.1344 75.458 40.1275 77.8132 40.1275C78.9492 40.1275 80.1447 39.8947 81.3676 39.4356C81.3676 39.4356 84.5519 40.6066 87.4157 39.3414L90.2836 39.8224C90.7222 39.8962 91.1588 39.9336 91.5807 39.9336C94.1155 39.9336 96.3108 38.6589 98.2899 36.0367C98.7369 35.4448 99.1881 34.7613 99.6351 33.9983C99.7562 35.9968 100.341 37.5297 101.38 38.5618C102.237 39.4125 103.376 39.881 104.589 39.881C106.868 39.881 109.183 38.2631 111.283 35.2017L111.291 35.1908C111.375 35.0656 111.461 34.9389 111.545 34.8113C111.528 36.2101 112.045 37.1379 112.526 37.6962C113.278 38.5703 114.361 39.0518 115.575 39.052C116.51 39.0519 117.467 38.7652 118.351 38.2213C119.183 38.9585 120.231 39.3471 121.391 39.3472C122.286 39.3472 123.082 39.1202 123.723 38.9373L123.734 38.9343C123.862 38.8977 123.99 38.861 124.118 38.8275L124.31 38.7769L124.493 38.7017C124.755 38.594 125.011 38.4778 125.256 38.3554C125.85 39.4582 126.995 40.1344 128.294 40.1345C128.294 40.1345 129.248 40.0476 129.741 39.8762L129.78 39.8623L129.814 39.8492C131.163 39.3384 133.007 38.4517 134.515 37.7071C135.062 38.9461 136.27 39.7342 137.653 39.7344C138.136 39.7344 138.633 39.6398 139.132 39.4535C140.66 38.889 143.186 37.6914 146.632 35.8984C146.747 35.8451 146.875 35.787 147.014 35.7242L147.052 35.7075C150.225 34.2743 153.368 32.633 153.923 29.7382C154.202 28.2835 153.719 26.8348 152.566 25.6602Z" fill="white"/>
<path fill-rule="evenodd" clip-rule="evenodd" d="M122.442 30.6649C121.07 32.0498 119.606 34.1048 120.109 35.8919C120.932 36.9194 122.167 36.3833 123.357 36.0706C125.096 35.3557 126.423 34.1942 126.56 32.2285C127.292 30.5756 124.273 28.9672 122.442 30.6649ZM90.7781 37.0088C94.256 26.5548 97.6879 16.1008 103.178 6.89771C105.832 1.84948 110.499 3.05568 110.134 8.10391C109.905 11.6333 109.721 15.2072 109.493 18.7366C109.402 20.747 111.232 20.479 112.192 19.094C114.938 14.7159 117.684 10.3823 120.429 6.04891C122.35 2.92159 128.894 1.53674 127.338 6.94237C125.645 16.2795 122.534 25.1252 118.416 33.7474C117.5 36.3833 113.977 37.3662 114.527 34.2836C115.762 29.6373 117.043 24.9464 118.324 20.3449C119.01 17.5303 117.135 19.0047 115.396 22.2659C113.199 26.1081 111.552 29.6373 108.852 33.6135C105.603 38.3489 102.446 38.1703 102.538 32.988C102.767 29.7267 103.041 26.4654 103.316 23.2041C103.636 19.6301 102.767 19.0494 101.257 22.8914C96.8638 35.6685 93.7066 37.5001 90.7781 37.0088ZM61.0361 22.1766C60.121 23.0254 59.4346 25.3931 58.9313 29.1459C58.9313 30.3968 59.3889 30.9329 60.2582 31.067C61.6767 31.1116 63.507 31.2009 64.8798 31.1116C71.3316 30.8882 74.3972 22.7573 68.1742 22.2659C65.6119 22.2213 63.5985 22.2213 61.0361 22.1766ZM66.0695 8.99748C65.017 8.99748 63.9646 12.6161 63.8731 14.8498C63.6443 16.6369 65.4746 16.4134 66.8015 16.4582C71.2858 16.5921 73.2991 15.1179 74.6719 12.6608C75.7699 10.159 75.1294 8.95271 72.2009 8.95271C70.1418 8.95271 68.1285 8.99748 66.0695 8.99748ZM58.428 3.14501C62.18 3.18967 65.9321 3.279 69.6842 3.32366C74.7634 3.14501 78.0578 4.17256 78.6527 6.89771C79.4305 12.5715 76.3648 16.056 72.2009 18.9153C73.1618 19.7194 73.9396 20.6129 74.1227 21.7745C74.4888 23.0701 75.8157 23.2935 76.7309 21.0151C77.4173 18.6025 78.3781 16.2348 79.6135 14.0457C81.6271 11.0078 84.9671 11.5885 84.4177 14.7159C83.2282 21.0151 81.3524 22.2213 79.7508 29.1905C79.0187 31.7371 82.7248 34.909 86.5682 29.3694C89.3598 25.974 90.5494 15.8774 93.386 13.2862C95.5824 11.2312 97.1385 12.1694 96.9098 14.4478C92.7458 29.5033 88.8564 37.1874 85.059 36.8747C85.2418 36.3833 85.4705 35.7579 85.4246 35.2217C85.3786 34.3729 84.9671 34.2836 83.4569 35.0431C76.5935 39.9127 73.116 35.8472 73.116 31.9604C73.1618 31.5583 72.7042 31.3349 72.2009 31.8711C69.1809 35.2664 65.7492 36.7407 62.0885 37.0088C59.3431 37.0088 56.5977 37.0534 53.8981 37.0981C51.1527 37.0981 49.7799 36.6512 50.146 32.4072C51.473 23.7402 54.9505 13.0628 58.428 3.14501ZM44.1518 25.7506C43.2367 25.4379 40.9488 26.3314 39.4388 27.3143C36.7849 29.28 36.9679 30.3074 37.3341 31.6477C37.9288 33.0774 40.903 32.7199 43.0994 30.4415C45.2042 28.0291 45.3873 26.2867 44.1518 25.7506ZM39.988 19.0494C41.4521 17.441 43.0536 16.4135 45.2042 17.3963C47.0345 18.1558 46.1193 20.9704 44.2433 21.7299C39.8049 22.534 36.4188 23.1148 33.6734 24.9464C28.9605 28.4758 29.0519 31.2009 29.7383 34.5516C30.6077 38.483 38.0661 37.5001 40.5826 35.2664C41.1775 36.16 41.8639 36.7853 42.7791 36.7407C43.74 36.7407 44.7008 36.7407 45.6618 36.7407C46.577 36.696 47.126 36.3386 47.0803 35.5791C46.9887 28.1184 55.0878 17.4858 51.5644 13.599C46.4855 9.17613 35.641 13.9116 35.4123 17.307C34.9546 19.094 39.3931 20.3449 39.988 19.0494ZM3.74825 36.3833C7.18003 24.9464 10.9779 13.733 16.057 5.20011C17.4754 2.51952 20.3124 2.74294 19.5802 6.31699C19.1685 8.46132 18.5736 10.5164 17.8414 12.5268C17.3839 14.0457 18.5736 15.0733 20.6784 13.0628C25.7117 8.238 30.1959 5.42342 34.5885 3.23433C37.3797 2.16212 38.1118 4.88727 36.6019 6.1829C30.2874 10.9184 24.8423 16.2348 26.993 25.974C27.4505 28.7885 27.7708 31.5583 27.4505 34.3729C26.3981 39.0639 22.0969 36.2939 21.7766 34.2388C21.136 31.1563 20.4955 28.0291 19.5345 25.0358C18.8023 22.668 17.1093 22.1766 15.1875 24.6784C13.586 26.5994 12.1675 28.2971 11.0694 32.0944C9.01034 36.7407 6.49365 36.7853 3.74825 36.3833ZM124.547 26.7781C124.456 28.3418 125.828 28.8332 127.613 26.5548C130.907 20.8811 133.745 14.0904 136.307 6.5403C137.405 3.01102 132.646 2.56419 131.456 4.9767C129.031 9.17613 126.789 17.1283 124.547 26.7781Z" fill="#295CB3"/>
<path fill-rule="evenodd" clip-rule="evenodd" d="M99.2857 25.4378C98.1421 25.4825 96.9526 25.4825 95.763 25.4825C98.0043 19.228 100.613 13.0627 103.999 7.34437H104.045C104.502 6.4509 105.189 5.51268 106.104 4.97662C106.607 4.70854 107.202 4.52989 107.751 4.75321C109.032 5.15527 109.215 6.9423 109.17 8.05918C108.941 11.5885 108.711 15.1179 108.483 18.6918C108.483 19.63 108.757 20.6128 109.718 21.015C110.954 21.551 112.327 20.6128 113.013 19.5855C115.759 15.2519 118.504 10.9183 121.295 6.58489V6.54023C121.615 6.00417 122.164 5.51268 122.714 5.15527C123.309 4.75321 124.086 4.44046 124.864 4.30647C125.276 4.26181 125.871 4.21715 126.236 4.48513C126.832 4.93196 126.557 6.13816 126.42 6.67422L126.374 6.71888V6.76365C125.413 12.08 123.995 17.2176 122.164 22.2659C120.975 22.6233 119.785 22.936 118.55 23.2487L119.282 20.5683V20.5235C119.465 19.7194 119.693 18.4238 118.686 17.9771C118.184 17.7537 117.681 17.8878 117.222 18.2004C116.903 18.4238 116.582 18.7366 116.353 19.0493C115.621 19.8534 115.027 20.8362 114.523 21.8192C114.065 22.6233 113.608 23.4721 113.15 24.2763C110.222 24.723 107.202 25.0803 104.136 25.2592L104.274 23.2934C104.365 22.5339 104.411 21.7298 104.319 20.9703C104.228 20.3002 103.953 19.496 103.175 19.3173C102.397 19.1385 101.803 19.7194 101.391 20.3002C100.979 20.9703 100.613 21.8192 100.338 22.5786V22.6233C100.018 23.5615 99.6523 24.4996 99.2857 25.4378ZM62.8632 14.7604C62.9091 13.9563 63.0463 13.1075 63.2293 12.3479C63.5039 11.0524 64.3275 8.05918 66.0663 8.05918C68.1253 8.01451 70.1386 8.01452 72.152 7.96985H72.1977C75.7668 7.96985 77.0022 9.8462 75.5838 13.0182L75.538 13.0627V13.1075C75.1262 13.867 74.5771 14.5817 73.9365 15.2072C72.0147 17.0835 69.4065 17.5303 66.7527 17.4409C66.478 17.3963 66.2035 17.3963 65.929 17.3963C65.0596 17.3963 64.1901 17.3069 63.5039 16.7262C62.9547 16.1901 62.8175 15.4753 62.8632 14.7604ZM92.422 25.3931C92.5598 24.9463 92.7426 24.4996 92.9254 24.0529C94.07 20.8362 95.0309 17.575 95.9458 14.3137C95.9458 14.001 95.9457 13.2862 95.6711 13.1521C95.5792 13.0627 95.3964 13.1521 95.3055 13.1521C94.847 13.3309 94.3896 13.6882 94.07 14.001H94.0241C93.2919 14.6711 92.6966 16.1007 92.3311 16.9942C91.6898 18.6025 91.2324 20.2555 90.729 21.9084C90.3635 23.0253 90.0428 24.1869 89.6313 25.3037C90.5462 25.3485 91.4611 25.3931 92.422 25.3931ZM79.9764 24.6784C80.0679 24.5443 80.1137 24.4103 80.1595 24.2763C80.5713 23.1147 81.0747 21.9978 81.532 20.8362C81.8986 19.9428 82.2642 19.0046 82.5848 18.0664C82.9503 16.9048 83.225 15.7433 83.4537 14.5371C83.4997 14.135 83.5456 13.3755 83.0882 13.1075C82.8135 12.9288 82.3561 13.0182 82.0354 13.1521C81.3952 13.3755 80.8459 13.9563 80.434 14.5371C79.2444 16.6368 78.2834 18.9152 77.6887 21.2384V21.3277L77.6428 21.3723C77.1853 22.4893 76.1787 24.0082 74.7143 23.6508C73.8908 23.4721 73.3874 22.802 73.2043 22.0425L73.1586 21.9978V21.9531C72.9756 20.9703 72.335 20.2555 71.5571 19.63L70.5505 18.8258L71.6486 18.1111C75.721 15.3413 78.3749 12.1693 77.6887 7.03162C77.0022 4.21715 71.9232 4.21715 69.6811 4.30647H69.6353C66.1578 4.26181 62.6345 4.21715 59.1569 4.12772C58.4249 6.27215 57.6927 8.37192 56.9606 10.4716C55.7252 14.2244 54.5354 18.0218 53.5288 21.8192C55.4964 22.0425 57.5554 22.3105 59.5688 22.5339C59.7975 22.1319 60.0721 21.7298 60.3467 21.4617L60.6212 21.1936H61.0329C63.4123 21.2384 65.7917 21.2831 68.1711 21.3277H68.2627C69.8641 21.4617 71.4656 22.0872 72.1977 23.6508C72.2435 23.7401 72.2892 23.8741 72.335 24.0082C74.8974 24.2763 77.4597 24.4996 79.9764 24.6784ZM50.2343 21.4617C48.9531 21.3277 47.7177 21.1936 46.4823 21.0596C47.1686 20.0768 47.4431 18.7812 46.894 17.709C46.6195 17.1282 46.162 16.7262 45.6128 16.5028C43.0047 15.3413 40.9914 16.5028 39.2526 18.3791L39.1611 18.5131L39.1153 18.5578C38.795 18.6918 37.9257 18.5131 37.6053 18.4238C37.3309 18.3345 36.4157 17.9323 36.3699 17.575L36.4157 17.4857V17.3963C36.4615 16.5028 37.8341 15.4753 38.5205 15.0285C40.0304 14.0456 41.9522 13.3309 43.7368 12.9734C45.7044 12.616 47.9464 12.616 49.7767 13.5542C50.1428 13.7329 50.5089 14.001 50.8749 14.2691C50.9207 14.3583 51.0122 14.4477 51.058 14.5371C51.8359 15.788 51.3325 17.9323 50.9664 19.228C50.7377 19.9874 50.5089 20.7022 50.2343 21.4617ZM25.617 20.2555C25.8 17.9323 26.5321 15.654 27.9049 13.5095C29.8723 10.2483 32.938 7.70177 36.0039 5.42335C36.2783 5.15528 36.5529 4.52989 36.2783 4.17249C36.0039 3.77042 35.3175 3.99373 34.9972 4.12772C32.7093 5.28937 30.5131 6.54023 28.4539 7.96985C25.8915 9.66745 23.5579 11.6332 21.3616 13.7777C20.8125 14.3137 20.1261 14.8051 19.394 15.0285C18.7076 15.2519 17.9756 15.1625 17.4265 14.7158C16.6943 14.135 16.6028 13.1075 16.8774 12.2587V12.1693C17.6094 10.2036 18.2043 8.19316 18.6161 6.13816C18.7076 5.69133 18.7991 5.11061 18.6619 4.66388C18.6161 4.57445 18.5246 4.44046 18.4331 4.3958C18.2959 4.35114 18.0671 4.44046 17.9298 4.52989C17.5179 4.75321 17.1519 5.20004 16.9232 5.64667C14.2234 10.2036 12.0729 15.1179 10.1968 20.0322C9.64769 21.551 9.09865 23.07 8.54961 24.589C13.0337 21.8638 18.8907 20.6128 25.617 20.2555ZM130.31 19.1833C132.231 14.9391 133.878 10.561 135.342 6.22749C135.525 5.78076 135.571 5.15527 135.16 4.79787C134.793 4.44046 134.153 4.3958 133.695 4.48513C133.146 4.57445 132.597 4.8872 132.322 5.42335V5.46802C131.636 6.62956 131.088 7.92519 130.584 9.17606C129.943 10.7844 129.394 12.4374 128.891 14.135C128.25 16.2794 127.656 18.4238 127.06 20.5683C128.159 20.1662 129.257 19.6747 130.31 19.1833Z" fill="#2175C5"/>
<path fill-rule="evenodd" clip-rule="evenodd" d="M142.118 27.2248C144.818 29.9947 138.641 32.4519 136.582 33.4793C135.071 34.1942 130.999 36.3386 128.757 37.1874C128.117 37.4107 127.75 37.232 127.75 36.6067C127.567 32.4966 138.641 30.8436 136.81 29.0118C136.17 28.0736 128.208 22.0872 133.561 22.2212C135.621 22.3106 140.654 25.7059 142.118 27.2248ZM150.446 27.6269C149.074 26.1974 144.406 23.0254 142.53 22.9807C137.588 22.8466 144.956 28.3863 145.55 29.2352C147.197 30.9328 136.993 32.4966 137.131 36.2939C137.176 36.8301 137.497 37.0087 138.092 36.7853C140.15 36.0258 143.949 34.0602 145.321 33.3454C147.243 32.4519 152.963 30.1734 150.446 27.6269Z" fill="#F15122"/>
<path fill-rule="evenodd" clip-rule="evenodd" d="M132.464 23.1146C132.464 23.3379 132.829 23.874 132.967 24.0081C133.378 24.6334 133.974 25.2143 134.477 25.7504C135.071 26.3311 135.667 26.8672 136.307 27.448C136.628 27.7161 137.131 28.1628 137.406 28.5649C137.634 28.7883 137.771 29.101 137.771 29.4137C137.771 29.4585 137.771 29.4585 137.771 29.5031C138.046 29.4137 138.275 29.3691 138.549 29.3244C139.739 29.0564 140.882 28.833 142.027 28.6542C142.027 28.2969 141.798 27.9842 141.57 27.7608C140.288 26.4205 135.346 23.0252 133.561 22.9805C133.378 22.9805 132.692 22.9805 132.464 23.1146Z" fill="#F47126"/>
<path fill-rule="evenodd" clip-rule="evenodd" d="M141.612 23.8295C141.658 24.3656 143.076 25.8398 143.443 26.1973C143.992 26.7333 144.541 27.2247 145.09 27.7609C145.227 27.8949 145.411 28.029 145.639 28.2076C147.104 28.1183 148.522 28.0735 149.848 28.0735C148.614 26.8673 144.175 23.7848 142.527 23.7401C142.344 23.6954 141.796 23.7401 141.612 23.8295Z" fill="#F47126"/>
</svg>
