<?xml version="1.0" encoding="UTF-8"?>
<svg xmlns="http://www.w3.org/2000/svg" xmlns:xlink="http://www.w3.org/1999/xlink" width="20px" height="20px" viewBox="0 0 20 20" version="1.1">
  <g id="surface1">
    <path style=" stroke:none;fill-rule:nonzero;fill:rgb(61.960784%,61.568627%,68.627451%);fill-opacity:1;" d="M 1.753906 2.570312 C 5.554688 8.054688 7.453125 10.914062 7.453125 11.082031 C 7.453125 11.179688 5.769531 13.222656 3.726562 15.601562 L -0.0234375 19.953125 L 0.890625 19.929688 C 1.753906 19.929688 1.921875 19.757812 5.046875 16.105469 C 7.546875 13.148438 8.339844 12.332031 8.558594 12.570312 C 8.726562 12.714844 9.902344 14.398438 11.179688 16.296875 C 12.476562 18.195312 13.652344 19.808594 13.796875 19.855469 C 13.964844 19.929688 15.289062 19.929688 16.753906 19.902344 L 19.398438 19.832031 L 15.503906 14.132812 L 11.585938 8.4375 L 14.855469 4.640625 C 16.683594 2.523438 18.292969 0.625 18.484375 0.410156 C 18.773438 0.046875 18.726562 0 17.957031 0 C 17.140625 0 16.921875 0.214844 14.015625 3.605469 C 12.332031 5.578125 10.890625 7.210938 10.816406 7.210938 C 10.746094 7.210938 9.617188 5.601562 8.292969 3.652344 L 5.890625 0.121094 L 2.933594 0.046875 L -0.046875 -0.0234375 Z M 10.816406 9.664062 C 14.0625 14.304688 16.804688 18.246094 16.898438 18.4375 C 17.042969 18.679688 16.828125 18.75 15.792969 18.75 L 14.519531 18.75 L 8.605469 10.265625 C 5.382812 5.625 2.644531 1.660156 2.546875 1.492188 C 2.429688 1.273438 2.691406 1.203125 3.652344 1.203125 L 4.929688 1.203125 Z M 10.816406 9.664062 "></path>
  </g>
</svg>
