<?xml version="1.0" encoding="utf-8"?>
<svg width="11px" height="20px" viewBox="0 0 11 20" version="1.1" xmlns:xlink="http://www.w3.org/1999/xlink" xmlns="http://www.w3.org/2000/svg">
  <desc>Created with Lunacy</desc>
  <defs>
    <path d="M10.3846 0.144231C10.0601 0.0961538 8.94231 0 7.64423 0C4.92788 0 3.0649 1.65865 3.0649 4.69952L3.0649 7.31971L0 7.31971L0 10.8774L3.0649 10.8774L3.0649 20L6.74279 20L6.74279 10.8774L9.79567 10.8774L10.2644 7.31971L6.74279 7.31971L6.74279 5.04808C6.74279 4.02644 7.01923 3.31731 8.4976 3.31731L10.3846 3.31731L10.3846 0.144231Z" id="path_1" />
    <clipPath id="mask_1">
      <use xlink:href="#path_1" />
    </clipPath>
  </defs>
  <path d="M10.3846 0.144231C10.0601 0.0961538 8.94231 0 7.64423 0C4.92788 0 3.0649 1.65865 3.0649 4.69952L3.0649 7.31971L0 7.31971L0 10.8774L3.0649 10.8774L3.0649 20L6.74279 20L6.74279 10.8774L9.79567 10.8774L10.2644 7.31971L6.74279 7.31971L6.74279 5.04808C6.74279 4.02644 7.01923 3.31731 8.4976 3.31731L10.3846 3.31731L10.3846 0.144231Z" id="facebook-icon" fill="#9E9DAF" stroke="none" />
</svg>