<?xml version="1.0" encoding="UTF-8"?>
<svg width="19px" height="19px" viewBox="0 0 19 19" version="1.1" xmlns="http://www.w3.org/2000/svg" xmlns:xlink="http://www.w3.org/1999/xlink">
    <!-- Generator: Sketch 59 (86127) - https://sketch.com -->
    <title>🔄 account-icon</title>
    <desc>Created with Sketch.</desc>
    <g id="Components" stroke="none" stroke-width="1" fill="none" fill-rule="evenodd">
        <g id="component/nav-header" transform="translate(-1099.000000, -36.000000)" fill="#6E2CA9">
            <g id="sign-in" transform="translate(1099.000000, 33.000000)">
                <path d="M9.5,22 C14.7467051,22 19,17.7467051 19,12.5 C19,7.25329488 14.7467051,3 9.5,3 C4.25329488,3 0,7.25329488 0,12.5 C0,17.7467051 4.25329488,22 9.5,22 Z M7.24021604,9.76716558 C7.24081646,8.49255502 8.3126368,7.53187242 9.53261808,7.54431912 C10.7287256,7.5565208 11.7759886,8.50629213 11.7792562,9.76935437 C11.7790061,10.9959586 10.7595681,11.9914821 9.50639358,11.9912208 C8.2839949,11.9909758 7.23963277,11.0235634 7.24021604,9.76716558 Z M13.1830924,16.8858279 C13.1821088,16.9302897 13.1642035,16.958499 13.1256753,16.9804685 C13.0130416,17.0447275 12.8917054,17.0875722 12.767985,17.1250593 C12.5550214,17.1895959 12.3377064,17.2367366 12.1182075,17.2727373 C11.9211319,17.3050464 11.7233062,17.333958 11.5249469,17.3574304 C11.3410752,17.3791876 11.1562033,17.393382 10.9715315,17.4079522 C10.7961457,17.4218036 10.6205932,17.4350344 10.4448574,17.4426461 C10.2637533,17.4505029 10.0823157,17.451385 9.90101152,17.4549622 C9.8610329,17.4557626 9.82103762,17.4550928 9.781059,17.4550928 C9.781059,17.4566283 9.78107567,17.4581474 9.78109234,17.4596828 C9.58244964,17.4627536 9.38382361,17.4684379 9.18519758,17.4679205 C9.06534509,17.4675395 8.94550928,17.457347 8.82565679,17.4517933 C8.74041465,17.4478568 8.65508915,17.4453903 8.56993036,17.4403267 C8.34372942,17.4268346 8.1173451,17.4151066 7.89144425,17.3974819 C7.60437512,17.3750714 7.31937327,17.3350851 7.0347382,17.2924691 C6.82907674,17.261679 6.62409881,17.2275894 6.42390564,17.1717753 C6.29975187,17.137163 6.17678178,17.0976341 6.05546219,17.0544464 C5.99331028,17.0323134 5.93600982,16.9971948 5.87642535,16.9681035 C5.83863072,16.9496785 5.82404303,16.9212895 5.82696056,16.8790655 C5.84194838,16.6614933 5.8465831,16.4432024 5.87620862,16.2266429 C5.99127634,15.3855597 6.27427759,14.6069059 6.77712788,13.9109852 C7.07951825,13.4925017 7.44824512,13.1407926 7.8925279,12.8675533 C8.23159591,12.6590466 8.59743858,12.5167099 8.99227325,12.4485798 C9.23627951,12.4064864 9.48208631,12.3947094 9.72934354,12.4115664 C10.277524,12.4489391 10.7726554,12.6338428 11.2279748,12.9290354 C11.6265939,13.1874759 11.9559757,13.5154677 12.2345256,13.8942263 C12.5828297,14.3678379 12.8273361,14.8897335 12.9878674,15.4505863 C13.068975,15.7340346 13.1247583,16.0222687 13.1585184,16.3147825 C13.1804416,16.5046355 13.1873437,16.6948968 13.1830924,16.8858279 Z M13.4112106,17.4049957 C13.2655171,17.4943931 13.1063862,17.5540621 12.9431374,17.6042572 C12.6959802,17.6802278 12.4436048,17.7347515 12.1885119,17.7765509 C11.9953708,17.808174 11.8014128,17.8357789 11.6071714,17.8599209 C11.4578101,17.878493 11.3074652,17.8897963 11.157437,17.9027003 C11.0073755,17.9156207 10.8572973,17.9295865 10.7069524,17.9375249 C10.519263,17.9474235 10.3313068,17.9527975 10.1434173,17.9580244 C9.87687097,17.9654402 9.61027462,17.9724312 9.34366161,17.9766291 C9.23042777,17.9783932 9.11702721,17.974081 9.00381004,17.9698667 C8.87458808,17.9650481 8.74543281,17.9579101 8.61632756,17.9506087 C8.40206352,17.938456 8.18764944,17.927757 7.97363548,17.9119128 C7.7982664,17.8989108 7.62304736,17.8821518 7.44839517,17.8617993 C7.27639376,17.8417899 7.10505922,17.8161615 6.93372468,17.7911374 C6.70293904,17.7574562 6.47403729,17.7141377 6.24930346,17.6518716 C6.06836605,17.6017091 5.88869568,17.5478061 5.72071214,17.4629986 C5.67454835,17.439706 5.62856794,17.4153353 5.58542171,17.387224 C5.39009666,17.2599966 5.29845261,17.0811692 5.31200666,16.8511176 C5.31787508,16.7520014 5.32336005,16.6528688 5.32826152,16.5537036 C5.34243242,16.2660574 5.38361139,15.9818578 5.44359599,15.700239 C5.54009149,15.2471759 5.68595175,14.8100877 5.89094635,14.3926333 C6.1167305,13.9328241 6.39944833,13.5104857 6.75615494,13.1373951 C7.12561536,12.7509594 7.54962542,12.4368681 8.04138906,12.2135463 C8.07991724,12.1960686 8.11884554,12.1794403 8.16189174,12.1605253 C7.53003623,11.8011228 7.08857096,11.2915105 6.86016936,10.6133941 C6.69361958,10.118842 6.67724802,9.61599209 6.80476947,9.11046338 C6.9296568,8.61542125 7.17919804,8.18774157 7.54962542,7.82984182 C8.71602402,6.70286021 10.5870666,6.78461314 11.6427821,8.01213205 C12.2048001,8.66563274 12.4038429,9.4267108 12.2496468,10.2646742 C12.0950839,11.1045323 11.6110226,11.7255279 10.8632824,12.1605579 C10.8772033,12.1669446 10.8878565,12.1721553 10.8987931,12.1767779 C11.3555796,12.3704857 11.759667,12.6410463 12.1156401,12.9808477 C12.5989178,13.4421596 12.9610427,13.984473 13.2276057,14.589559 C13.4137947,15.012175 13.5440503,15.4511417 13.6237075,15.9048908 C13.6819582,16.2367374 13.7129508,16.5703318 13.7018808,16.9071768 C13.6947787,17.1232135 13.5984666,17.2900679 13.4112106,17.4049957 Z M13.8943217,16.1640827 C13.853026,15.8343269 13.7867395,15.509651 13.6920112,15.1906594 C13.5209934,14.6147954 13.2711521,14.0747034 12.9265158,13.5779952 C12.512342,12.9810927 11.997288,12.4898728 11.3504614,12.1371183 C11.3439594,12.1335738 11.3383911,12.1283468 11.3300553,12.1221725 C11.3427091,12.1119309 11.352612,12.1035351 11.3628984,12.0956783 C11.4671129,12.0159998 11.5663592,11.9307187 11.6583867,11.8377932 C12.185611,11.3054763 12.4745807,10.6687672 12.5217114,9.92866231 C12.5410839,9.62440423 12.511325,9.32323332 12.4336018,9.02750172 C12.2078843,8.16872851 11.6015198,7.45487276 10.7806077,7.08054075 C10.4573445,6.93312414 10.1184598,6.84292641 9.7627702,6.81434147 C9.71245516,6.81030691 9.66229017,6.8048186 9.61204182,6.8 L9.39597724,6.8 C9.38170631,6.80240113 9.36755208,6.80627235 9.35321446,6.80695839 C9.22655994,6.81300206 9.10067232,6.82651049 8.9761351,6.84934577 C8.33412655,6.96714838 7.7818615,7.2524914 7.33091005,7.7156164 C6.76120645,8.30070925 6.48337341,9.00195495 6.48852495,9.81041867 C6.48987536,10.0227476 6.51688343,10.2325284 6.5676486,10.4388626 C6.7339483,11.1149536 7.09957425,11.6660222 7.65505693,12.0973934 C7.66514328,12.1052175 7.67471281,12.1136623 7.68734992,12.1241489 C7.67534633,12.1317117 7.66702718,12.137543 7.65817453,12.1424596 C7.21850979,12.3856112 6.83491181,12.696403 6.50021178,13.0657531 C6.11166232,13.4945435 5.81050565,13.9773839 5.57923653,14.5029548 C5.40553461,14.8976719 5.28114744,15.3073023 5.19652214,15.7287423 C5.15742713,15.9235609 5.12670128,16.1197842 5.10944612,16.317592 C5.09685902,16.4619704 5.09170748,16.6069696 5.08190455,16.7516094 C5.07980393,16.7824648 5.07190156,16.8129445 5.06666667,16.8436039 L5.06666667,16.9455459 C5.07168483,16.9628765 5.07887031,16.9799295 5.08135439,16.9976032 C5.11611478,17.2457204 5.24330279,17.4362431 5.45614974,17.5721604 C5.59980934,17.6639099 5.75605604,17.7301616 5.91807113,17.784277 C6.21004172,17.8818251 6.50901441,17.9510987 6.81375549,17.9963282 C7.02967002,18.0283597 7.24565124,18.0607178 7.46238268,18.086575 C7.6447872,18.1083159 7.82805864,18.1247481 8.01139676,18.1366394 C8.30783536,18.1558322 8.60465741,18.1694386 8.90132941,18.1852992 C8.95854651,18.18837 9.01578028,18.1905751 9.07298071,18.1938093 C9.08735167,18.194626 9.10158926,18.1978929 9.11587686,18.2 L9.42798681,18.2 C9.44360815,18.1978929 9.45922948,18.1942177 9.47490083,18.1938747 C9.78000869,18.1873736 10.0852166,18.1841231 10.3901744,18.1740612 C10.5858329,18.1676092 10.7812413,18.152402 10.9765996,18.1389262 C11.1068219,18.1299261 11.2367774,18.1171854 11.3668329,18.1059147 C11.6283111,18.0832428 11.8887723,18.0525344 12.1474829,18.0085463 C12.3810861,17.968805 12.6137056,17.9243922 12.842474,17.8626161 C13.0198437,17.814724 13.1955128,17.7616214 13.361129,17.6817142 C13.4243646,17.6512019 13.4871,17.618664 13.546301,17.5813076 C13.7589646,17.4471871 13.8839519,17.2558967 13.9216298,17.0109972 C13.9281485,16.9686752 13.9255143,16.9250138 13.927765,16.8819893 C13.9284485,16.8691343 13.9314161,16.8564099 13.9333333,16.8436039 L13.9333333,16.6789546 C13.9310326,16.6583408 13.9268147,16.6377106 13.926798,16.6170805 C13.9266813,16.4653189 13.9131773,16.3146028 13.8943217,16.1640827 Z" id="🔄-account-icon"></path>
            </g>
        </g>
    </g>
</svg>