<?xml version="1.0" encoding="UTF-8"?>
<svg xmlns="http://www.w3.org/2000/svg" xmlns:xlink="http://www.w3.org/1999/xlink" id="Layer_2" data-name="Layer 2" viewBox="0 0 371.48 382.53">
  <defs>
    <style>
      .cls-1 {
        clip-path: url(#clippath);
      }

      .cls-2 {
        fill: none;
      }

      .cls-2, .cls-3, .cls-4, .cls-5, .cls-6, .cls-7, .cls-8, .cls-9, .cls-10, .cls-11, .cls-12, .cls-13, .cls-14, .cls-15, .cls-16, .cls-17, .cls-18, .cls-19, .cls-20, .cls-21, .cls-22, .cls-23, .cls-24, .cls-25, .cls-26, .cls-27, .cls-28, .cls-29, .cls-30, .cls-31, .cls-32, .cls-33, .cls-34, .cls-35, .cls-36, .cls-37, .cls-38, .cls-39, .cls-40, .cls-41, .cls-42, .cls-43, .cls-44, .cls-45, .cls-46, .cls-47, .cls-48, .cls-49, .cls-50, .cls-51, .cls-52, .cls-53, .cls-54, .cls-55, .cls-56, .cls-57, .cls-58, .cls-59, .cls-60, .cls-61, .cls-62, .cls-63, .cls-64, .cls-65, .cls-66, .cls-67, .cls-68, .cls-69, .cls-70, .cls-71, .cls-72, .cls-73, .cls-74, .cls-75, .cls-76, .cls-77, .cls-78, .cls-79, .cls-80, .cls-81, .cls-82, .cls-83, .cls-84, .cls-85, .cls-86, .cls-87, .cls-88, .cls-89, .cls-90, .cls-91, .cls-92, .cls-93, .cls-94, .cls-95, .cls-96, .cls-97, .cls-98, .cls-99, .cls-100, .cls-101, .cls-102, .cls-103 {
        stroke-width: 0px;
      }

      .cls-3 {
        fill: url(#linear-gradient);
      }

      .cls-104 {
        clip-path: url(#clippath-1);
      }

      .cls-4 {
        opacity: .15;
      }

      .cls-4, .cls-32 {
        fill: #00b2a9;
      }

      .cls-5 {
        fill: url(#linear-gradient-2);
      }

      .cls-6 {
        fill: url(#linear-gradient-3);
      }

      .cls-7 {
        fill: #1a1245;
      }

      .cls-8 {
        fill: #40c5bf;
      }

      .cls-9 {
        fill: #14113b;
      }

      .cls-10 {
        fill: #cbcbcb;
      }

      .cls-11 {
        fill: #00a399;
      }

      .cls-12 {
        fill: #00a096;
      }

      .cls-13 {
        fill: #00a197;
      }

      .cls-14 {
        fill: #00a49a;
      }

      .cls-15 {
        fill: #009b92;
      }

      .cls-16 {
        fill: #00998f;
      }

      .cls-17 {
        fill: #009f95;
      }

      .cls-18 {
        fill: #009e94;
      }

      .cls-19 {
        fill: #009c93;
      }

      .cls-20 {
        fill: #80d8d3;
      }

      .cls-21 {
        fill: #80d9d4;
      }

      .cls-22 {
        fill: #fff;
      }

      .cls-23 {
        fill: #efefef;
      }

      .cls-24 {
        fill: #00a99e;
      }

      .cls-25 {
        fill: #00aea3;
      }

      .cls-26 {
        fill: #00b3a8;
      }

      .cls-27 {
        fill: #00a69c;
      }

      .cls-28 {
        fill: #00aaa0;
      }

      .cls-29 {
        fill: #00aba1;
      }

      .cls-30 {
        fill: #00afa4;
      }

      .cls-31 {
        fill: #00ada2;
      }

      .cls-33 {
        fill: #00b2a7;
      }

      .cls-34 {
        fill: #009a90;
      }

      .cls-35 {
        fill: #00b0a6;
      }

      .cls-36 {
        fill: #00a89d;
      }

      .cls-37 {
        fill: #00a59b;
      }

      .cls-38 {
        fill: #00b1a8;
      }

      .cls-39 {
        fill: #00655f;
      }

      .cls-40 {
        fill: #006861;
      }

      .cls-41 {
        fill: #00635c;
      }

      .cls-42 {
        fill: #005f58;
      }

      .cls-43 {
        fill: #005f59;
      }

      .cls-44 {
        fill: #005e58;
      }

      .cls-45 {
        fill: #005d57;
      }

      .cls-46 {
        fill: #00605a;
      }

      .cls-47 {
        fill: #005b55;
      }

      .cls-48 {
        fill: #006f68;
      }

      .cls-49 {
        fill: #00615b;
      }

      .cls-50 {
        fill: #00615a;
      }

      .cls-51 {
        fill: #00645e;
      }

      .cls-52 {
        fill: #006d66;
      }

      .cls-53 {
        fill: #00625c;
      }

      .cls-54 {
        fill: #00645d;
      }

      .cls-55 {
        fill: #007068;
      }

      .cls-56 {
        fill: #005c56;
      }

      .cls-57 {
        fill: #006e67;
      }

      .cls-58 {
        fill: #006b64;
      }

      .cls-59 {
        fill: #006963;
      }

      .cls-60 {
        fill: #005955;
      }

      .cls-61 {
        fill: #006862;
      }

      .cls-62 {
        fill: #006760;
      }

      .cls-63 {
        fill: #006c65;
      }

      .cls-64 {
        fill: #007770;
      }

      .cls-65 {
        fill: #00756e;
      }

      .cls-66 {
        fill: #006a63;
      }

      .cls-67 {
        fill: #00766f;
      }

      .cls-68 {
        fill: #00827b;
      }

      .cls-69 {
        fill: #008d84;
      }

      .cls-70 {
        fill: #00837c;
      }

      .cls-71 {
        fill: #00847d;
      }

      .cls-72 {
        fill: #00817a;
      }

      .cls-73 {
        fill: #00867f;
      }

      .cls-74 {
        fill: #008780;
      }

      .cls-75 {
        fill: #00958c;
      }

      .cls-76 {
        fill: #008b82;
      }

      .cls-77 {
        fill: #008c83;
      }

      .cls-78 {
        fill: #008980;
      }

      .cls-79 {
        fill: #008a81;
      }

      .cls-80 {
        fill: #008e85;
      }

      .cls-81 {
        fill: #008f86;
      }

      .cls-82 {
        fill: #00968d;
      }

      .cls-83 {
        fill: #00948b;
      }

      .cls-84 {
        fill: #00938a;
      }

      .cls-85 {
        fill: #00857e;
      }

      .cls-86 {
        fill: #009289;
      }

      .cls-87 {
        fill: #00988e;
      }

      .cls-88 {
        fill: #009188;
      }

      .cls-89 {
        fill: #007972;
      }

      .cls-90 {
        fill: #007169;
      }

      .cls-91 {
        fill: #007e76;
      }

      .cls-92 {
        fill: #007d75;
      }

      .cls-93 {
        fill: #007c74;
      }

      .cls-94 {
        fill: #008078;
      }

      .cls-95 {
        fill: #007871;
      }

      .cls-96 {
        fill: #00726a;
      }

      .cls-97 {
        fill: #008079;
      }

      .cls-98 {
        fill: #00746d;
      }

      .cls-99 {
        fill: #007f77;
      }

      .cls-100 {
        fill: #00736b;
      }

      .cls-101 {
        fill: #00736c;
      }

      .cls-102 {
        fill: #007b73;
      }

      .cls-103 {
        fill: #00665f;
      }
    </style>
    <linearGradient id="linear-gradient" x1="225.16" y1="73.24" x2="253.62" y2="45.92" gradientUnits="userSpaceOnUse">
      <stop offset="0" stop-color="#005b55"></stop>
      <stop offset=".2" stop-color="#00665f"></stop>
      <stop offset=".55" stop-color="#00847b"></stop>
      <stop offset="1" stop-color="#00b3a8"></stop>
    </linearGradient>
    <linearGradient id="linear-gradient-2" x1="90.7" y1="162.26" x2="136.41" y2="119.05" xlink:href="#linear-gradient"></linearGradient>
    <linearGradient id="linear-gradient-3" x1="9.04" y1="219.21" x2="50.12" y2="177.93" xlink:href="#linear-gradient"></linearGradient>
    <clipPath id="clippath">
      <rect class="cls-2" x="192.96" y="257.11" width="146.42" height="56.8"></rect>
    </clipPath>
    <clipPath id="clippath-1">
      <rect class="cls-2" x="288.38" y="324.34" width="46.02" height="45.9"></rect>
    </clipPath>
  </defs>
  <g id="Layer_1-2" data-name="Layer 1">
    <g>
      <rect class="cls-23" x="215.9" y=".94" width="155.58" height="10.09"></rect>
      <circle class="cls-26" cx="222.67" cy="6.5" r="1.9"></circle>
      <circle class="cls-26" cx="228.34" cy="6.5" r="1.9"></circle>
      <circle class="cls-26" cx="234" cy="6.5" r="1.9"></circle>
      <rect class="cls-10" x="215.9" y="10.92" width="155.58" height="104.17"></rect>
      <rect class="cls-23" x="219.69" y="41.48" width="148" height="66.61"></rect>
      <rect class="cls-23" x="219.69" y="16.24" width="148" height="21.24"></rect>
      <rect class="cls-9" x="256.64" y="62.08" width="106.72" height="12.7"></rect>
      <rect class="cls-9" x="256.64" y="46.08" width="106.72" height="12.7"></rect>
      <rect class="cls-9" x="224.57" y="20.51" width="37.75" height="12.7"></rect>
      <rect class="cls-9" x="324.52" y="20.51" width="37.75" height="12.7"></rect>
      <rect class="cls-9" x="274.82" y="20.51" width="37.75" height="12.7"></rect>
      <rect class="cls-9" x="224.13" y="78.07" width="139.23" height="11.25"></rect>
      <rect class="cls-9" x="224.13" y="93.33" width="139.23" height="11.25"></rect>
      <rect class="cls-3" x="224.13" y="45.63" width="29.23" height="29.15"></rect>
    </g>
    <g>
      <rect class="cls-23" y="102.14" width="140.01" height="9.08"></rect>
      <circle class="cls-26" cx="6.09" cy="107.14" r="1.71"></circle>
      <circle class="cls-26" cx="11.19" cy="107.14" r="1.71"></circle>
      <circle class="cls-26" cx="16.29" cy="107.14" r="1.71"></circle>
      <rect class="cls-10" y="111.22" width="140.01" height="118.81"></rect>
      <rect class="cls-23" x="3.41" y="117.11" width="133.19" height="51.67"></rect>
      <rect class="cls-7" x="7.4" y="122.01" width="78.42" height="11.43"></rect>
      <rect class="cls-7" x="7.4" y="136.89" width="78.42" height="11.43"></rect>
      <rect class="cls-7" x="7.4" y="152.39" width="78.42" height="11.43"></rect>
      <rect class="cls-5" x="90.21" y="122.06" width="41.86" height="41.75"></rect>
      <rect class="cls-23" x="3.41" y="173.99" width="133.19" height="51.67"></rect>
      <rect class="cls-7" x="53.41" y="178.9" width="78.42" height="11.43"></rect>
      <rect class="cls-7" x="53.41" y="193.77" width="78.42" height="11.43"></rect>
      <rect class="cls-7" x="53.41" y="209.27" width="78.42" height="11.43"></rect>
      <rect class="cls-6" x="7.4" y="178.95" width="41.86" height="41.75"></rect>
    </g>
    <g>
      <rect class="cls-23" x="189.21" y="241.95" width="153.91" height="9.98"></rect>
      <circle class="cls-26" cx="195.91" cy="247.44" r="1.88"></circle>
      <circle class="cls-26" cx="201.51" cy="247.44" r="1.88"></circle>
      <circle class="cls-26" cx="207.12" cy="247.44" r="1.88"></circle>
      <rect class="cls-10" x="189.21" y="251.92" width="153.91" height="130.61"></rect>
      <rect class="cls-23" x="192.96" y="318.88" width="146.42" height="56.8"></rect>
      <g class="cls-1">
        <polygon class="cls-47" points="192.96 311.45 193.92 313.91 192.96 313.91 192.96 311.45"></polygon>
        <polygon class="cls-47" points="192.96 306.48 195.87 313.91 193.92 313.91 192.96 311.45 192.96 306.48"></polygon>
        <polygon class="cls-47" points="192.96 301.51 197.82 313.91 195.87 313.91 192.96 306.48 192.96 301.51"></polygon>
        <polygon class="cls-56" points="192.96 296.54 199.77 313.91 197.82 313.91 192.96 301.51 192.96 296.54"></polygon>
        <polygon class="cls-56" points="192.96 291.56 201.72 313.91 199.77 313.91 192.96 296.54 192.96 291.56"></polygon>
        <polygon class="cls-45" points="192.96 286.59 203.67 313.91 201.72 313.91 192.96 291.56 192.96 286.59"></polygon>
        <polygon class="cls-45" points="192.96 281.62 205.62 313.91 203.67 313.91 192.96 286.59 192.96 281.62"></polygon>
        <polygon class="cls-44" points="192.96 276.65 207.57 313.91 205.62 313.91 192.96 281.62 192.96 276.65"></polygon>
        <polygon class="cls-42" points="192.96 271.68 209.53 313.91 207.57 313.91 192.96 276.65 192.96 271.68"></polygon>
        <polygon class="cls-43" points="192.96 266.71 211.48 313.91 209.53 313.91 192.96 271.68 192.96 266.71"></polygon>
        <polygon class="cls-46" points="192.96 261.74 213.43 313.91 211.48 313.91 192.96 266.71 192.96 261.74"></polygon>
        <polygon class="cls-50" points="193.09 257.11 215.38 313.91 213.43 313.91 192.96 261.74 192.96 257.11 193.09 257.11"></polygon>
        <polygon class="cls-49" points="195.04 257.11 217.33 313.91 215.38 313.91 193.09 257.11 195.04 257.11"></polygon>
        <polygon class="cls-53" points="196.99 257.11 219.28 313.91 217.33 313.91 195.04 257.11 196.99 257.11"></polygon>
        <polygon class="cls-41" points="198.94 257.11 221.23 313.91 219.28 313.91 196.99 257.11 198.94 257.11"></polygon>
        <polygon class="cls-54" points="200.89 257.11 223.18 313.91 221.23 313.91 198.94 257.11 200.89 257.11"></polygon>
        <polygon class="cls-51" points="202.84 257.11 225.13 313.91 223.18 313.91 200.89 257.11 202.84 257.11"></polygon>
        <polygon class="cls-39" points="204.79 257.11 227.08 313.91 225.13 313.91 202.84 257.11 204.79 257.11"></polygon>
        <polygon class="cls-103" points="206.74 257.11 229.03 313.91 227.08 313.91 204.79 257.11 206.74 257.11"></polygon>
        <polygon class="cls-62" points="208.7 257.11 230.98 313.91 229.03 313.91 206.74 257.11 208.7 257.11"></polygon>
        <polygon class="cls-40" points="210.65 257.11 232.93 313.91 230.98 313.91 208.7 257.11 210.65 257.11"></polygon>
        <polygon class="cls-61" points="212.6 257.11 234.88 313.91 232.93 313.91 210.65 257.11 212.6 257.11"></polygon>
        <polygon class="cls-59" points="214.55 257.11 236.83 313.91 234.88 313.91 212.6 257.11 214.55 257.11"></polygon>
        <polygon class="cls-66" points="216.5 257.11 238.78 313.91 236.83 313.91 214.55 257.11 216.5 257.11"></polygon>
        <polygon class="cls-58" points="218.45 257.11 240.73 313.91 238.78 313.91 216.5 257.11 218.45 257.11"></polygon>
        <polygon class="cls-63" points="220.4 257.11 242.68 313.91 240.73 313.91 218.45 257.11 220.4 257.11"></polygon>
        <polygon class="cls-52" points="222.35 257.11 244.63 313.91 242.68 313.91 220.4 257.11 222.35 257.11"></polygon>
        <polygon class="cls-57" points="224.3 257.11 246.58 313.91 244.63 313.91 222.35 257.11 224.3 257.11"></polygon>
        <polygon class="cls-48" points="226.25 257.11 248.53 313.91 246.58 313.91 224.3 257.11 226.25 257.11"></polygon>
        <polygon class="cls-55" points="228.2 257.11 250.48 313.91 248.53 313.91 226.25 257.11 228.2 257.11"></polygon>
        <polygon class="cls-90" points="230.15 257.11 252.43 313.91 250.48 313.91 228.2 257.11 230.15 257.11"></polygon>
        <polygon class="cls-96" points="232.1 257.11 254.38 313.91 252.43 313.91 230.15 257.11 232.1 257.11"></polygon>
        <polygon class="cls-100" points="234.05 257.11 256.33 313.91 254.38 313.91 232.1 257.11 234.05 257.11"></polygon>
        <polygon class="cls-101" points="236 257.11 258.29 313.91 256.33 313.91 234.05 257.11 236 257.11"></polygon>
        <polygon class="cls-98" points="237.95 257.11 260.24 313.91 258.29 313.91 236 257.11 237.95 257.11"></polygon>
        <polygon class="cls-65" points="239.9 257.11 262.19 313.91 260.24 313.91 237.95 257.11 239.9 257.11"></polygon>
        <polygon class="cls-67" points="241.85 257.11 264.14 313.91 262.19 313.91 239.9 257.11 241.85 257.11"></polygon>
        <polygon class="cls-64" points="243.8 257.11 266.09 313.91 264.14 313.91 241.85 257.11 243.8 257.11"></polygon>
        <polygon class="cls-95" points="245.75 257.11 268.04 313.91 266.09 313.91 243.8 257.11 245.75 257.11"></polygon>
        <polygon class="cls-89" points="247.7 257.11 269.99 313.91 268.04 313.91 245.75 257.11 247.7 257.11"></polygon>
        <polygon class="cls-102" points="249.65 257.11 271.94 313.91 269.99 313.91 247.7 257.11 249.65 257.11"></polygon>
        <polygon class="cls-93" points="251.6 257.11 273.89 313.91 271.94 313.91 249.65 257.11 251.6 257.11"></polygon>
        <polygon class="cls-92" points="253.55 257.11 275.84 313.91 273.89 313.91 251.6 257.11 253.55 257.11"></polygon>
        <polygon class="cls-91" points="255.5 257.11 277.79 313.91 275.84 313.91 253.55 257.11 255.5 257.11"></polygon>
        <polygon class="cls-99" points="257.46 257.11 279.74 313.91 277.79 313.91 255.5 257.11 257.46 257.11"></polygon>
        <polygon class="cls-94" points="259.41 257.11 281.69 313.91 279.74 313.91 257.46 257.11 259.41 257.11"></polygon>
        <polygon class="cls-97" points="261.36 257.11 283.64 313.91 281.69 313.91 259.41 257.11 261.36 257.11"></polygon>
        <polygon class="cls-72" points="263.31 257.11 285.59 313.91 283.64 313.91 261.36 257.11 263.31 257.11"></polygon>
        <polygon class="cls-68" points="265.26 257.11 287.54 313.91 285.59 313.91 263.31 257.11 265.26 257.11"></polygon>
        <polygon class="cls-70" points="267.21 257.11 289.49 313.91 287.54 313.91 265.26 257.11 267.21 257.11"></polygon>
        <polygon class="cls-71" points="269.16 257.11 291.44 313.91 289.49 313.91 267.21 257.11 269.16 257.11"></polygon>
        <polygon class="cls-85" points="271.11 257.11 293.39 313.91 291.44 313.91 269.16 257.11 271.11 257.11"></polygon>
        <polygon class="cls-73" points="273.06 257.11 295.34 313.91 293.39 313.91 271.11 257.11 273.06 257.11"></polygon>
        <polygon class="cls-74" points="275.01 257.11 297.29 313.91 295.34 313.91 273.06 257.11 275.01 257.11"></polygon>
        <polygon class="cls-78" points="276.96 257.11 299.24 313.91 297.29 313.91 275.01 257.11 276.96 257.11"></polygon>
        <polygon class="cls-79" points="278.91 257.11 301.19 313.91 299.24 313.91 276.96 257.11 278.91 257.11"></polygon>
        <polygon class="cls-76" points="280.86 257.11 303.14 313.91 301.19 313.91 278.91 257.11 280.86 257.11"></polygon>
        <polygon class="cls-77" points="282.81 257.11 305.09 313.91 303.14 313.91 280.86 257.11 282.81 257.11"></polygon>
        <polygon class="cls-69" points="284.76 257.11 307.05 313.91 305.09 313.91 282.81 257.11 284.76 257.11"></polygon>
        <polygon class="cls-80" points="286.71 257.11 309 313.91 307.05 313.91 284.76 257.11 286.71 257.11"></polygon>
        <polygon class="cls-81" points="288.66 257.11 310.95 313.91 309 313.91 286.71 257.11 288.66 257.11"></polygon>
        <polygon class="cls-88" points="290.61 257.11 312.9 313.91 310.95 313.91 288.66 257.11 290.61 257.11"></polygon>
        <polygon class="cls-86" points="292.56 257.11 314.85 313.91 312.9 313.91 290.61 257.11 292.56 257.11"></polygon>
        <polygon class="cls-84" points="294.51 257.11 316.8 313.91 314.85 313.91 292.56 257.11 294.51 257.11"></polygon>
        <polygon class="cls-83" points="296.46 257.11 318.75 313.91 316.8 313.91 294.51 257.11 296.46 257.11"></polygon>
        <polygon class="cls-75" points="298.41 257.11 320.7 313.91 318.75 313.91 296.46 257.11 298.41 257.11"></polygon>
        <polygon class="cls-82" points="300.36 257.11 322.65 313.91 320.7 313.91 298.41 257.11 300.36 257.11"></polygon>
        <polygon class="cls-87" points="302.31 257.11 324.6 313.91 322.65 313.91 300.36 257.11 302.31 257.11"></polygon>
        <polygon class="cls-16" points="304.26 257.11 326.55 313.91 324.6 313.91 302.31 257.11 304.26 257.11"></polygon>
        <polygon class="cls-34" points="306.22 257.11 328.5 313.91 326.55 313.91 304.26 257.11 306.22 257.11"></polygon>
        <polygon class="cls-15" points="308.17 257.11 330.45 313.91 328.5 313.91 306.22 257.11 308.17 257.11"></polygon>
        <polygon class="cls-19" points="310.12 257.11 332.4 313.91 330.45 313.91 308.17 257.11 310.12 257.11"></polygon>
        <polygon class="cls-18" points="312.07 257.11 334.35 313.91 332.4 313.91 310.12 257.11 312.07 257.11"></polygon>
        <polygon class="cls-17" points="314.02 257.11 336.3 313.91 334.35 313.91 312.07 257.11 314.02 257.11"></polygon>
        <polygon class="cls-12" points="315.97 257.11 338.25 313.91 336.3 313.91 314.02 257.11 315.97 257.11"></polygon>
        <polygon class="cls-13" points="317.92 257.11 339.38 311.8 339.38 313.91 338.25 313.91 315.97 257.11 317.92 257.11"></polygon>
        <polygon class="cls-11" points="319.87 257.11 339.38 306.83 339.38 311.8 317.92 257.11 319.87 257.11"></polygon>
        <polygon class="cls-14" points="321.82 257.11 339.38 301.86 339.38 306.83 319.87 257.11 321.82 257.11"></polygon>
        <polygon class="cls-37" points="323.77 257.11 339.38 296.89 339.38 301.86 321.82 257.11 323.77 257.11"></polygon>
        <polygon class="cls-27" points="325.72 257.11 339.38 291.92 339.38 296.89 323.77 257.11 325.72 257.11"></polygon>
        <polygon class="cls-36" points="327.67 257.11 339.38 286.94 339.38 291.92 325.72 257.11 327.67 257.11"></polygon>
        <polygon class="cls-24" points="329.62 257.11 339.38 281.97 339.38 286.94 327.67 257.11 329.62 257.11"></polygon>
        <polygon class="cls-28" points="331.57 257.11 339.38 277 339.38 281.97 329.62 257.11 331.57 257.11"></polygon>
        <polygon class="cls-29" points="333.52 257.11 339.38 272.03 339.38 277 331.57 257.11 333.52 257.11"></polygon>
        <polygon class="cls-31" points="335.47 257.11 339.38 267.06 339.38 272.03 333.52 257.11 335.47 257.11"></polygon>
        <polygon class="cls-25" points="337.42 257.11 339.38 262.09 339.38 267.06 335.47 257.11 337.42 257.11"></polygon>
        <polygon class="cls-30" points="339.37 257.11 339.38 257.12 339.38 262.09 337.42 257.11 339.37 257.11"></polygon>
        <polygon class="cls-35" points="339.38 257.12 339.37 257.11 339.38 257.11 339.38 257.12"></polygon>
      </g>
      <rect class="cls-20" x="198.35" y="304.63" width="135.63" height="3.18"></rect>
      <rect class="cls-9" x="197.35" y="324.28" width="86.21" height="12.57"></rect>
      <rect class="cls-9" x="197.35" y="340.63" width="86.21" height="12.57"></rect>
      <rect class="cls-9" x="197.35" y="357.67" width="86.21" height="12.57"></rect>
      <g class="cls-104">
        <polygon class="cls-56" points="288.38 370.2 288.41 370.23 288.38 370.23 288.38 370.2"></polygon>
        <polygon class="cls-56" points="288.38 369.19 289.39 370.23 288.41 370.23 288.38 370.2 288.38 369.19"></polygon>
        <polygon class="cls-45" points="288.38 368.19 290.37 370.23 289.39 370.23 288.38 369.19 288.38 368.19"></polygon>
        <polygon class="cls-45" points="288.38 367.18 291.34 370.23 290.37 370.23 288.38 368.19 288.38 367.18"></polygon>
        <polygon class="cls-44" points="288.38 366.18 292.32 370.23 291.34 370.23 288.38 367.18 288.38 366.18"></polygon>
        <polygon class="cls-42" points="288.38 365.17 293.3 370.23 292.32 370.23 288.38 366.18 288.38 365.17"></polygon>
        <polygon class="cls-43" points="288.38 364.17 294.28 370.23 293.3 370.23 288.38 365.17 288.38 364.17"></polygon>
        <polygon class="cls-46" points="288.38 363.16 295.25 370.23 294.28 370.23 288.38 364.17 288.38 363.16"></polygon>
        <polygon class="cls-50" points="288.38 362.16 296.23 370.23 295.25 370.23 288.38 363.16 288.38 362.16"></polygon>
        <polygon class="cls-49" points="288.38 361.15 297.21 370.23 296.23 370.23 288.38 362.16 288.38 361.15"></polygon>
        <polygon class="cls-53" points="288.38 360.15 298.18 370.23 297.21 370.23 288.38 361.15 288.38 360.15"></polygon>
        <polygon class="cls-41" points="288.38 359.14 299.16 370.23 298.18 370.23 288.38 360.15 288.38 359.14"></polygon>
        <polygon class="cls-54" points="288.38 358.13 300.14 370.23 299.16 370.23 288.38 359.14 288.38 358.13"></polygon>
        <polygon class="cls-51" points="288.38 357.13 301.12 370.23 300.14 370.23 288.38 358.13 288.38 357.13"></polygon>
        <polygon class="cls-39" points="288.38 356.12 302.09 370.23 301.12 370.23 288.38 357.13 288.38 356.12"></polygon>
        <polygon class="cls-103" points="288.38 355.12 303.07 370.23 302.09 370.23 288.38 356.12 288.38 355.12"></polygon>
        <polygon class="cls-62" points="288.38 354.11 304.05 370.23 303.07 370.23 288.38 355.12 288.38 354.11"></polygon>
        <polygon class="cls-40" points="288.38 353.11 305.02 370.23 304.05 370.23 288.38 354.11 288.38 353.11"></polygon>
        <polygon class="cls-61" points="288.38 352.1 306 370.23 305.02 370.23 288.38 353.11 288.38 352.1"></polygon>
        <polygon class="cls-59" points="288.38 351.1 306.98 370.23 306 370.23 288.38 352.1 288.38 351.1"></polygon>
        <polygon class="cls-66" points="288.38 350.09 307.96 370.23 306.98 370.23 288.38 351.1 288.38 350.09"></polygon>
        <polygon class="cls-58" points="288.38 349.09 308.93 370.23 307.96 370.23 288.38 350.09 288.38 349.09"></polygon>
        <polygon class="cls-63" points="288.38 348.08 309.91 370.23 308.93 370.23 288.38 349.09 288.38 348.08"></polygon>
        <polygon class="cls-52" points="288.38 347.08 310.89 370.23 309.91 370.23 288.38 348.08 288.38 347.08"></polygon>
        <polygon class="cls-57" points="288.38 346.07 311.86 370.23 310.89 370.23 288.38 347.08 288.38 346.07"></polygon>
        <polygon class="cls-48" points="288.38 345.07 312.84 370.23 311.86 370.23 288.38 346.07 288.38 345.07"></polygon>
        <polygon class="cls-55" points="288.38 344.06 313.82 370.23 312.84 370.23 288.38 345.07 288.38 344.06"></polygon>
        <polygon class="cls-90" points="288.38 343.06 314.8 370.23 313.82 370.23 288.38 344.06 288.38 343.06"></polygon>
        <polygon class="cls-96" points="288.38 342.05 315.77 370.23 314.8 370.23 288.38 343.06 288.38 342.05"></polygon>
        <polygon class="cls-100" points="288.38 341.05 316.75 370.23 315.77 370.23 288.38 342.05 288.38 341.05"></polygon>
        <polygon class="cls-101" points="288.38 340.04 317.73 370.23 316.75 370.23 288.38 341.05 288.38 340.04"></polygon>
        <polygon class="cls-98" points="288.38 339.04 318.71 370.23 317.73 370.23 288.38 340.04 288.38 339.04"></polygon>
        <polygon class="cls-65" points="288.38 338.03 319.68 370.23 318.71 370.23 288.38 339.04 288.38 338.03"></polygon>
        <polygon class="cls-67" points="288.38 337.03 320.66 370.23 319.68 370.23 288.38 338.03 288.38 337.03"></polygon>
        <polygon class="cls-64" points="288.38 336.02 321.64 370.23 320.66 370.23 288.38 337.03 288.38 336.02"></polygon>
        <polygon class="cls-95" points="288.38 335.02 322.61 370.23 321.64 370.23 288.38 336.02 288.38 335.02"></polygon>
        <polygon class="cls-89" points="288.38 334.01 323.59 370.23 322.61 370.23 288.38 335.02 288.38 334.01"></polygon>
        <polygon class="cls-102" points="288.38 333.01 324.57 370.23 323.59 370.23 288.38 334.01 288.38 333.01"></polygon>
        <polygon class="cls-93" points="288.38 332 325.55 370.23 324.57 370.23 288.38 333.01 288.38 332"></polygon>
        <polygon class="cls-92" points="288.38 330.99 326.52 370.23 325.55 370.23 288.38 332 288.38 330.99"></polygon>
        <polygon class="cls-91" points="288.38 329.99 327.5 370.23 326.52 370.23 288.38 330.99 288.38 329.99"></polygon>
        <polygon class="cls-99" points="288.38 328.98 328.48 370.23 327.5 370.23 288.38 329.99 288.38 328.98"></polygon>
        <polygon class="cls-94" points="288.38 327.98 329.45 370.23 328.48 370.23 288.38 328.98 288.38 327.98"></polygon>
        <polygon class="cls-97" points="288.38 326.97 330.43 370.23 329.45 370.23 288.38 327.98 288.38 326.97"></polygon>
        <polygon class="cls-72" points="288.38 325.97 331.41 370.23 330.43 370.23 288.38 326.97 288.38 325.97"></polygon>
        <polygon class="cls-68" points="288.38 324.96 332.39 370.23 331.41 370.23 288.38 325.97 288.38 324.96"></polygon>
        <polygon class="cls-70" points="288.74 324.34 333.36 370.23 332.39 370.23 288.38 324.96 288.38 324.34 288.74 324.34"></polygon>
        <polygon class="cls-71" points="289.72 324.34 334.34 370.23 333.36 370.23 288.74 324.34 289.72 324.34"></polygon>
        <polygon class="cls-85" points="290.7 324.34 334.4 369.29 334.4 370.23 334.34 370.23 289.72 324.34 290.7 324.34"></polygon>
        <polygon class="cls-73" points="291.67 324.34 334.4 368.28 334.4 369.29 290.7 324.34 291.67 324.34"></polygon>
        <polygon class="cls-74" points="292.65 324.34 334.4 367.28 334.4 368.28 291.67 324.34 292.65 324.34"></polygon>
        <polygon class="cls-78" points="293.63 324.34 334.4 366.27 334.4 367.28 292.65 324.34 293.63 324.34"></polygon>
        <polygon class="cls-79" points="294.61 324.34 334.4 365.27 334.4 366.27 293.63 324.34 294.61 324.34"></polygon>
        <polygon class="cls-76" points="295.58 324.34 334.4 364.26 334.4 365.27 294.61 324.34 295.58 324.34"></polygon>
        <polygon class="cls-77" points="296.56 324.34 334.4 363.26 334.4 364.26 295.58 324.34 296.56 324.34"></polygon>
        <polygon class="cls-69" points="297.54 324.34 334.4 362.25 334.4 363.26 296.56 324.34 297.54 324.34"></polygon>
        <polygon class="cls-80" points="298.51 324.34 334.4 361.25 334.4 362.25 297.54 324.34 298.51 324.34"></polygon>
        <polygon class="cls-81" points="299.49 324.34 334.4 360.24 334.4 361.25 298.51 324.34 299.49 324.34"></polygon>
        <polygon class="cls-88" points="300.47 324.34 334.4 359.23 334.4 360.24 299.49 324.34 300.47 324.34"></polygon>
        <polygon class="cls-86" points="301.45 324.34 334.4 358.23 334.4 359.23 300.47 324.34 301.45 324.34"></polygon>
        <polygon class="cls-84" points="302.42 324.34 334.4 357.22 334.4 358.23 301.45 324.34 302.42 324.34"></polygon>
        <polygon class="cls-83" points="303.4 324.34 334.4 356.22 334.4 357.22 302.42 324.34 303.4 324.34"></polygon>
        <polygon class="cls-75" points="304.38 324.34 334.4 355.21 334.4 356.22 303.4 324.34 304.38 324.34"></polygon>
        <polygon class="cls-82" points="305.35 324.34 334.4 354.21 334.4 355.21 304.38 324.34 305.35 324.34"></polygon>
        <polygon class="cls-87" points="306.33 324.34 334.4 353.2 334.4 354.21 305.35 324.34 306.33 324.34"></polygon>
        <polygon class="cls-16" points="307.31 324.34 334.4 352.2 334.4 353.2 306.33 324.34 307.31 324.34"></polygon>
        <polygon class="cls-34" points="308.29 324.34 334.4 351.19 334.4 352.2 307.31 324.34 308.29 324.34"></polygon>
        <polygon class="cls-15" points="309.26 324.34 334.4 350.19 334.4 351.19 308.29 324.34 309.26 324.34"></polygon>
        <polygon class="cls-19" points="310.24 324.34 334.4 349.18 334.4 350.19 309.26 324.34 310.24 324.34"></polygon>
        <polygon class="cls-18" points="311.22 324.34 334.4 348.18 334.4 349.18 310.24 324.34 311.22 324.34"></polygon>
        <polygon class="cls-17" points="312.19 324.34 334.4 347.17 334.4 348.18 311.22 324.34 312.19 324.34"></polygon>
        <polygon class="cls-12" points="313.17 324.34 334.4 346.17 334.4 347.17 312.19 324.34 313.17 324.34"></polygon>
        <polygon class="cls-13" points="314.15 324.34 334.4 345.16 334.4 346.17 313.17 324.34 314.15 324.34"></polygon>
        <polygon class="cls-11" points="315.13 324.34 334.4 344.16 334.4 345.16 314.15 324.34 315.13 324.34"></polygon>
        <polygon class="cls-14" points="316.1 324.34 334.4 343.15 334.4 344.16 315.13 324.34 316.1 324.34"></polygon>
        <polygon class="cls-37" points="317.08 324.34 334.4 342.15 334.4 343.15 316.1 324.34 317.08 324.34"></polygon>
        <polygon class="cls-27" points="318.06 324.34 334.4 341.14 334.4 342.15 317.08 324.34 318.06 324.34"></polygon>
        <polygon class="cls-36" points="319.03 324.34 334.4 340.14 334.4 341.14 318.06 324.34 319.03 324.34"></polygon>
        <polygon class="cls-24" points="320.01 324.34 334.4 339.13 334.4 340.14 319.03 324.34 320.01 324.34"></polygon>
        <polygon class="cls-28" points="320.99 324.34 334.4 338.13 334.4 339.13 320.01 324.34 320.99 324.34"></polygon>
        <polygon class="cls-29" points="321.97 324.34 334.4 337.12 334.4 338.13 320.99 324.34 321.97 324.34"></polygon>
        <polygon class="cls-31" points="322.94 324.34 334.4 336.12 334.4 337.12 321.97 324.34 322.94 324.34"></polygon>
        <polygon class="cls-25" points="323.92 324.34 334.4 335.11 334.4 336.12 322.94 324.34 323.92 324.34"></polygon>
        <polygon class="cls-30" points="324.9 324.34 334.4 334.11 334.4 335.11 323.92 324.34 324.9 324.34"></polygon>
        <polygon class="cls-35" points="325.88 324.34 334.4 333.1 334.4 334.11 324.9 324.34 325.88 324.34"></polygon>
        <polygon class="cls-33" points="326.85 324.34 334.4 332.09 334.4 333.1 325.88 324.34 326.85 324.34"></polygon>
        <polygon class="cls-26" points="327.83 324.34 334.4 331.09 334.4 332.09 326.85 324.34 327.83 324.34"></polygon>
        <polygon class="cls-26" points="334.4 331.09 327.83 324.34 334.4 324.34 334.4 331.09"></polygon>
      </g>
      <path class="cls-22" d="m305.83,352.65l-7.96.02-1.51,4.98h-4.83s8.21-24.18,8.21-24.18h4.21s8.25,24.14,8.25,24.14h-4.83s-1.53-4.96-1.53-4.96Zm-6.74-4.02h5.51s-2.77-9.05-2.77-9.05l-2.74,9.05Z"></path>
      <path class="cls-22" d="m314.25,357.61v-24.17s6.79-.02,6.79-.02c1.94,0,3.67.47,5.2,1.42,1.53.95,2.72,2.31,3.58,4.07.86,1.76,1.29,3.77,1.29,6.01v1.11c0,2.25-.42,4.25-1.27,6-.84,1.75-2.03,3.11-3.57,4.08-1.54.97-3.27,1.46-5.19,1.48l-6.83.02Zm4.54-20.15v16.14s2.19,0,2.19,0c1.78,0,3.13-.65,4.07-1.92.94-1.27,1.42-3.1,1.44-5.47v-1.28c0-2.46-.46-4.32-1.39-5.58-.93-1.26-2.28-1.89-4.07-1.89h-2.24Z"></path>
      <circle class="cls-38" cx="206.96" cy="306.22" r="4.61"></circle>
      <circle class="cls-26" cx="266.17" cy="281.38" r="12.83"></circle>
      <polygon class="cls-22" points="273.57 281.66 263.01 275.01 263.01 288.38 273.57 281.66"></polygon>
    </g>
    <g>
      <polygon class="cls-4" points="312.63 137.05 175.86 137.04 175.86 146.3 158.69 156.22 175.86 166.13 175.85 219.99 312.61 220 312.63 137.05"></polygon>
      <polygon class="cls-60" points="203.8 206.55 200.4 203.43 228.61 172.66 261.42 183.27 291.47 155.55 294.59 158.94 262.57 188.48 230.01 177.96 203.8 206.55"></polygon>
      <circle class="cls-21" cx="202.1" cy="204.99" r="7.63"></circle>
      <circle class="cls-8" cx="229.31" cy="176.29" r="7.63"></circle>
      <circle class="cls-32" cx="261.99" cy="185.87" r="7.63"></circle>
      <circle class="cls-73" cx="292.1" cy="157.25" r="7.63"></circle>
    </g>
    <polygon class="cls-4" points="70 .01 191.26 0 191.26 9.26 208.44 19.18 191.27 29.09 191.28 82.95 70.02 82.96 70 .01"></polygon>
    <g>
      <polygon class="cls-4" points="45.81 266.34 167.07 266.33 167.08 275.59 184.25 285.51 167.08 295.42 167.09 349.28 45.83 349.29 45.81 266.34"></polygon>
      <path class="cls-21" d="m63.18,302.22h0c5.9,0,10.69,4.79,10.69,10.69v28.64h-21.38v-28.64c0-5.9,4.79-10.69,10.69-10.69Z"></path>
      <path class="cls-8" d="m91.83,291.34h0c5.9,0,10.69,4.79,10.69,10.69v39.52h-21.38v-39.52c0-5.9,4.79-10.69,10.69-10.69Z"></path>
      <path class="cls-32" d="m120.62,280.82h0c5.9,0,10.69,4.79,10.69,10.69v50.04h-21.38v-50.04c0-5.9,4.79-10.69,10.69-10.69Z"></path>
      <path class="cls-73" d="m149.57,274.06h0c5.9,0,10.69,4.79,10.69,10.69v56.8h-21.38v-56.8c0-5.9,4.79-10.69,10.69-10.69Z"></path>
    </g>
    <g>
      <circle class="cls-60" cx="131.32" cy="41.48" r="30.23"></circle>
      <path class="cls-32" d="m101.09,41.48c0,16.69,13.53,30.23,30.23,30.23s30.23-13.53,30.23-30.23-13.53-30.23-30.23-30.23v30.23h-30.23Z"></path>
      <path class="cls-21" d="m131.32,41.48l25.34-16.48c-5.39-8.28-14.72-13.75-25.34-13.75v30.23Z"></path>
    </g>
  </g>
</svg>
