<?xml version="1.0" encoding="utf-8"?>
<svg width="50px" height="25px" viewBox="0 0 50 25" version="1.1" xmlns:xlink="http://www.w3.org/1999/xlink" xmlns="http://www.w3.org/2000/svg">
  <desc>Created with Lunacy</desc>
  <path d="M41.761 16.9582C41.7799 14.7747 40.9339 12.7737 39.5893 11.3516C38.2382 9.92323 36.3569 9.0297 34.3052 9.0297C32.7648 9.0297 31.319 9.5331 30.1196 10.3826L30.1196 0L25.1953 0L25.1953 24.8993L30.1196 24.8993L30.1196 23.5276C31.3064 24.3833 32.7521 24.8804 34.2925 24.8804C36.3443 24.8804 38.2382 23.9869 39.5766 22.5585C40.9276 21.1364 41.761 19.1354 41.761 16.9582ZM0 3.63071C0 1.86882 1.43308 0.44043 3.20076 0.44043C4.98106 0.44043 6.41414 1.86253 6.41414 3.63071C6.41414 5.3989 4.96843 6.821 3.20076 6.821C1.43308 6.821 0 5.39261 0 3.63071ZM23.5983 9.04237L18.6804 9.04237L18.6804 10.3953C17.4809 9.53318 16.0352 9.02979 14.4885 9.02979C12.4367 9.02979 10.5554 9.92332 9.21071 11.3517C7.8597 12.7738 7.02637 14.7748 7.02637 16.952C7.02637 19.1292 7.86601 21.1302 9.21071 22.5523C10.5491 23.9807 12.4304 24.8742 14.4885 24.8742C16.0352 24.8742 17.4809 24.3708 18.6741 23.5088L18.6741 24.8994L23.5983 24.8994L23.5983 9.04237ZM0.750977 24.9058L0.750977 9.04248L5.67522 9.04248L5.67522 24.9058L0.750977 24.9058ZM36.5148 16.9393C36.5274 18.6949 35.0943 20.1296 33.314 20.1296C31.5463 20.1296 30.1132 18.7012 30.1132 16.9393C30.1132 15.1774 31.5463 13.7491 33.314 13.7491C35.0817 13.7491 36.5148 15.1774 36.5148 16.9393ZM18.6678 16.9394C18.6678 18.695 17.2347 20.1297 15.467 20.1297C13.6993 20.1297 12.2663 18.7013 12.2663 16.9394C12.2663 15.1775 13.6993 13.7491 15.467 13.7491C17.2347 13.7491 18.6678 15.1775 18.6678 16.9394ZM43.5986 21.8099C43.5986 20.048 45.0317 18.6196 46.7994 18.6196C48.5671 18.6196 50.0001 20.048 50.0001 21.8099C50.0001 23.5718 48.5671 25.0002 46.7994 25.0002C45.0317 25.0002 43.5986 23.5718 43.5986 21.8099Z" id="iab-logo" fill="#9E9DAF" fill-rule="evenodd" stroke="none" />
</svg>