<?xml version="1.0" encoding="utf-8"?>
<svg width="20px" height="19px" viewBox="0 0 20 19" version="1.1" xmlns:xlink="http://www.w3.org/1999/xlink" xmlns="http://www.w3.org/2000/svg">
  <desc>Created with Lunacy</desc>
  <defs>
    <path d="M0 2C0 0.865497 0.799978 0 2.01075 0C3.23234 0 3.98908 0.865497 3.99989 2C4.0107 3.11111 3.23234 4 1.98913 4L1.96751 4C0.767546 4 0 3.11111 0 2ZM0 6L4 6L4 19L0 19L0 6ZM7 19C7.05174 7.48718 7 6.29487 7 6.29487L11.2557 6.29487L11.2557 8.10071C11.8173 7.23066 12.8303 6 15.0975 6C17.9045 6 20 7.82051 20 11.7179L20 19L15.7443 19L15.7443 12.2051C15.7443 10.5 15.1234 9.33333 13.5841 9.33333C12.407 9.33333 11.7085 10.1154 11.398 10.8718C11.2945 11.1538 11.2557 11.5256 11.2557 11.9103L11.2557 19L7 19Z" id="path_1" />
    <clipPath id="mask_1">
      <use xlink:href="#path_1" />
    </clipPath>
  </defs>
  <path d="M0 2C0 0.865497 0.799978 0 2.01075 0C3.23234 0 3.98908 0.865497 3.99989 2C4.0107 3.11111 3.23234 4 1.98913 4L1.96751 4C0.767546 4 0 3.11111 0 2ZM0 6L4 6L4 19L0 19L0 6ZM7 19C7.05174 7.48718 7 6.29487 7 6.29487L11.2557 6.29487L11.2557 8.10071C11.8173 7.23066 12.8303 6 15.0975 6C17.9045 6 20 7.82051 20 11.7179L20 19L15.7443 19L15.7443 12.2051C15.7443 10.5 15.1234 9.33333 13.5841 9.33333C12.407 9.33333 11.7085 10.1154 11.398 10.8718C11.2945 11.1538 11.2557 11.5256 11.2557 11.9103L11.2557 19L7 19Z" id="linkedin-icon" fill="#9E9DAF" fill-rule="evenodd" stroke="none" />
</svg>