<svg width="151" height="24" viewBox="0 0 151 24" fill="none" xmlns="http://www.w3.org/2000/svg">
<path d="M95.3035 24C101.931 24 107.303 18.6274 107.303 12C107.303 5.37258 101.931 0 95.3035 0C88.676 0 83.3035 5.37258 83.3035 12C83.3035 18.6274 88.676 24 95.3035 24Z" fill="#FF8000"/>
<path d="M95.3274 0.665527C89.7897 0.665527 85.3 5.15513 85.3 10.6952C85.3 11.2348 85.3452 11.7648 85.426 12.2829C86.7237 8.89369 90.265 6.46232 94.4337 6.46232C97.9156 6.46232 100.96 8.15929 102.624 10.6929C102.633 10.6929 102.645 10.6929 102.655 10.6929C103.731 10.6929 104.637 11.0351 105.314 11.6198C105.343 11.3156 105.359 11.009 105.359 10.6976C105.359 5.15751 100.87 0.667906 95.3321 0.667906" fill="#FFCE00"/>
<path d="M105.312 11.6174C104.637 11.0303 103.731 10.6904 102.652 10.6904C102.643 10.6904 102.631 10.6904 102.621 10.6904C99.6696 10.7071 96.5656 13.2715 95.6791 16.4326C95.2062 18.1177 95.4557 19.6316 96.24 20.6821C95.9406 20.7083 95.6363 20.7249 95.3274 20.7249C90.3292 20.7249 86.1865 17.0671 85.426 12.2828C85.0838 13.1765 84.896 14.1343 84.896 15.1325C84.896 17.5853 86.0178 19.8004 87.8193 21.3761C88.9316 22.265 90.2032 22.959 91.5864 23.4106C92.7581 23.7909 94.0059 24 95.3036 24C98.9019 24 102.127 22.4147 104.326 19.9073C105.084 19.0422 105.718 18.0701 106.206 17.0125C106.277 16.8223 106.341 16.6275 106.396 16.4326C106.964 14.4147 106.488 12.6417 105.31 11.6174" fill="#FF0024"/>
<path d="M149.88 15.2259C148.012 15.2259 147.154 14.268 147.154 12.3999V0.903809H141.431V9.44094C140.131 6.64831 137.298 4.7113 134.013 4.7113C130.729 4.7113 127.896 6.64593 126.596 9.44094V4.8848H120.946V12.9181C120.946 14.3679 120.186 15.3495 118.907 15.3495C117.628 15.3495 116.868 14.3679 116.868 12.9181V4.8848H111.145V12.9917C111.145 17.9543 114.191 21.0726 118.907 21.0726C122.693 21.0726 125.395 18.9716 126.282 15.5681C127.389 18.7719 130.432 21.0726 134.013 21.0726C137.595 21.0726 140.559 18.8337 141.702 15.6941C142.546 19.3352 145.303 20.949 148.998 20.949H150.448V15.2259H149.883H149.88ZM134.011 15.3495C132.661 15.3495 131.553 14.2443 131.553 12.8919C131.553 11.5396 132.658 10.4344 134.011 10.4344C135.363 10.4344 136.468 11.5396 136.468 12.8919C136.468 14.2443 135.363 15.3495 134.011 15.3495Z" fill="white"/>
<path d="M49.2382 6.46951C50.455 7.64598 51.0635 9.39049 51.0635 11.703V20.8557H47.3249V12.1831C47.3249 10.788 46.9969 9.73511 46.3386 9.02685C45.6802 8.31859 44.7438 7.96446 43.5269 7.96446C42.1508 7.96446 41.0647 8.37801 40.2661 9.2051C39.4675 10.0322 39.0706 11.2229 39.0706 12.7797V20.8557H35.332V4.88425H38.8923V6.94723C39.5103 6.21045 40.2875 5.65192 41.2239 5.27165C42.1603 4.89375 43.218 4.70361 44.3944 4.70361C46.4075 4.70361 48.0237 5.29303 49.2405 6.46713L49.2382 6.46951Z" fill="white"/>
<path d="M77.2715 15.7768V0.905762H73.5305V15.8885C73.5305 18.7525 75.8526 21.0745 78.7165 21.0745H79.4628V17.3336H78.8258C77.9678 17.3336 77.2691 16.6372 77.2691 15.7768H77.2715Z" fill="white"/>
<path d="M28.3897 4.88443V7.30868C27.0944 5.71153 25.2501 4.71094 23.2014 4.71094C18.6833 4.71094 15.0208 8.37344 15.0208 12.8916C15.0208 17.4097 18.6833 21.0722 23.2014 21.0722C25.1574 21.0722 26.9281 20.1619 28.2115 18.6907V20.8583H31.95V4.88681H28.3897V4.88443ZM23.199 17.3336C20.7462 17.3336 18.7593 15.3443 18.7593 12.8939C18.7593 10.4436 20.7486 8.45425 23.199 8.45425C25.6494 8.45425 27.6387 10.4436 27.6387 12.8939C27.6387 15.3443 25.6494 17.3336 23.199 17.3336Z" fill="white"/>
<path d="M66.5575 4.88443V7.30868C65.2622 5.71153 63.4178 4.71094 61.3691 4.71094C56.851 4.71094 53.1885 8.37344 53.1885 12.8916C53.1885 17.4097 56.851 21.0722 61.3691 21.0722C63.3251 21.0722 65.0958 20.1619 66.3792 18.6907V20.8583H70.1178V4.88681H66.5575V4.88443ZM61.3691 17.3336C58.9163 17.3336 56.9294 15.3443 56.9294 12.8939C56.9294 10.4436 58.9187 8.45425 61.3691 8.45425C63.8195 8.45425 65.8088 10.4436 65.8088 12.8939C65.8088 15.3443 63.8195 17.3336 61.3691 17.3336Z" fill="white"/>
<path d="M8.18063 17.3337C5.72787 17.3337 3.74094 15.3444 3.74094 12.894C3.74094 10.4436 5.73024 8.45432 8.18063 8.45432C9.40701 8.45432 10.5169 8.95104 11.3203 9.75437L13.9655 7.10909C12.4848 5.6284 10.4409 4.71338 8.18063 4.71338C3.66251 4.71338 0 8.37588 0 12.894C0 17.4121 3.66251 21.0746 8.18063 21.0746C10.4385 21.0746 12.4848 20.1596 13.9655 18.6789L11.3203 16.0336C10.5169 16.837 9.40701 17.3337 8.18063 17.3337Z" fill="white"/>
</svg>
