<svg width="126" height="20" viewBox="0 0 126 20" fill="none" xmlns="http://www.w3.org/2000/svg">
<path d="M79.4199 20C84.9428 20 89.4199 15.5229 89.4199 10C89.4199 4.47715 84.9428 0 79.4199 0C73.8971 0 69.4199 4.47715 69.4199 10C69.4199 15.5229 73.8971 20 79.4199 20Z" fill="#FF8000"/>
<path d="M79.4401 0.554688C74.8253 0.554688 71.084 4.29603 71.084 8.91278C71.084 9.36238 71.1216 9.80405 71.1889 10.2358C72.2704 7.41149 75.2214 5.38535 78.6954 5.38535C81.5969 5.38535 84.1341 6.79949 85.5205 8.9108C85.5284 8.9108 85.5383 8.9108 85.5463 8.9108C86.4435 8.9108 87.1981 9.196 87.7625 9.68323C87.7863 9.42971 87.8002 9.17422 87.8002 8.91476C87.8002 4.298 84.0588 0.55667 79.444 0.55667" fill="#FFCE00"/>
<path d="M87.7603 9.68113C87.1978 9.19192 86.4433 8.90869 85.5441 8.90869C85.5361 8.90869 85.5262 8.90869 85.5183 8.90869C83.0584 8.92256 80.4718 11.0596 79.733 13.6938C79.3389 15.098 79.5468 16.3597 80.2004 17.2351C79.9509 17.2569 79.6973 17.2707 79.4399 17.2707C75.2747 17.2707 71.8225 14.2226 71.1887 10.2357C70.9035 10.9804 70.7471 11.7786 70.7471 12.6104C70.7471 14.6544 71.6819 16.5003 73.1832 17.8134C74.1101 18.5542 75.1697 19.1325 76.3224 19.5088C77.2989 19.8257 78.3387 20 79.4201 20C82.4187 20 85.1063 18.6789 86.9384 16.5894C87.5702 15.8685 88.099 15.0584 88.505 14.1771C88.5645 14.0186 88.6179 13.8562 88.6635 13.6938C89.1369 12.0123 88.7407 10.5348 87.7584 9.68113" fill="#FF0024"/>
<path d="M124.9 12.6875C123.343 12.6875 122.628 11.8893 122.628 10.3326V0.752441H117.859V7.86672C116.775 5.53953 114.415 3.92535 111.677 3.92535C108.94 3.92535 106.579 5.53755 105.496 7.86672V4.06993H100.788V10.7643C100.788 11.9725 100.154 12.7905 99.0887 12.7905C98.0232 12.7905 97.3894 11.9725 97.3894 10.7643V4.06993H92.6201V10.8257C92.6201 14.9612 95.1592 17.5597 99.0887 17.5597C102.244 17.5597 104.496 15.8089 105.234 12.9727C106.157 15.6425 108.693 17.5597 111.677 17.5597C114.662 17.5597 117.132 15.694 118.085 13.0777C118.788 16.1119 121.085 17.4567 124.165 17.4567H125.373V12.6875H124.902H124.9ZM111.675 12.7905C110.55 12.7905 109.627 11.8695 109.627 10.7425C109.627 9.61558 110.548 8.69461 111.675 8.69461C112.802 8.69461 113.723 9.61558 113.723 10.7425C113.723 11.8695 112.802 12.7905 111.675 12.7905Z" fill="black"/>
<path d="M41.0318 5.3915C42.0459 6.37189 42.5529 7.82565 42.5529 9.75276V17.38H39.4374V10.1528C39.4374 8.99023 39.1641 8.11283 38.6155 7.52261C38.0668 6.9324 37.2865 6.63729 36.2724 6.63729C35.1257 6.63729 34.2205 6.98191 33.5551 7.67116C32.8896 8.3604 32.5588 9.35268 32.5588 10.65V17.38H29.4434V4.07045H32.4103V5.7896C32.9252 5.17562 33.5729 4.71018 34.3533 4.39328C35.1336 4.07837 36.015 3.91992 36.9954 3.91992C38.6729 3.91992 40.0197 4.41111 41.0338 5.38952L41.0318 5.3915Z" fill="black"/>
<path d="M64.3933 13.1474V0.754883H61.2759V13.2405C61.2759 15.6271 63.2109 17.5622 65.5975 17.5622H66.2194V14.4447H65.6886C64.9736 14.4447 64.3913 13.8644 64.3913 13.1474H64.3933Z" fill="black"/>
<path d="M23.6584 4.07036V6.09057C22.579 4.75961 21.042 3.92578 19.3348 3.92578C15.5697 3.92578 12.5176 6.97787 12.5176 10.743C12.5176 14.5081 15.5697 17.5602 19.3348 17.5602C20.9648 17.5602 22.4403 16.8016 23.5099 15.5756V17.3819H26.6253V4.07235H23.6584V4.07036ZM19.3328 14.4447C17.2888 14.4447 15.633 12.7869 15.633 10.745C15.633 8.70297 17.2908 7.04521 19.3328 7.04521C21.3748 7.04521 23.0325 8.70297 23.0325 10.745C23.0325 12.7869 21.3748 14.4447 19.3328 14.4447Z" fill="black"/>
<path d="M55.4646 4.07036V6.09057C54.3851 4.75961 52.8482 3.92578 51.1409 3.92578C47.3758 3.92578 44.3237 6.97787 44.3237 10.743C44.3237 14.5081 47.3758 17.5602 51.1409 17.5602C52.771 17.5602 54.2465 16.8016 55.316 15.5756V17.3819H58.4315V4.07235H55.4646V4.07036ZM51.1409 14.4447C49.097 14.4447 47.4412 12.7869 47.4412 10.745C47.4412 8.70297 49.0989 7.04521 51.1409 7.04521C53.1829 7.04521 54.8407 8.70297 54.8407 10.745C54.8407 12.7869 53.1829 14.4447 51.1409 14.4447Z" fill="black"/>
<path d="M6.81719 14.4452C4.77322 14.4452 3.11745 12.7874 3.11745 10.7454C3.11745 8.70343 4.7752 7.04567 6.81719 7.04567C7.83917 7.04567 8.76411 7.45961 9.43355 8.12905L11.638 5.92466C10.404 4.69075 8.70073 3.92822 6.81719 3.92822C3.05209 3.92822 0 6.98032 0 10.7454C0 14.5105 3.05209 17.5626 6.81719 17.5626C8.69875 17.5626 10.404 16.8001 11.638 15.5662L9.43355 13.3618C8.76411 14.0312 7.83917 14.4452 6.81719 14.4452Z" fill="black"/>
</svg>
