<svg width="115" height="27" viewBox="0 0 115 27" fill="none" xmlns="http://www.w3.org/2000/svg">
<g clip-path="url(#clip0_43_123)">
<path d="M99.7163 0.470337L84.4248 26.3855H91.1134L99.7163 11.812L108.311 26.3855H115L99.7163 0.470337Z" fill="#066A91"/>
<path d="M70.8695 27C63.2663 27 57.0815 20.9461 57.0815 13.5038C57.0815 6.06153 63.2663 0 70.8695 0C78.4726 0 84.6574 6.05395 84.6574 13.4962C84.6574 20.9385 78.4726 26.9924 70.8695 26.9924V27ZM70.8695 5.93257C66.6068 5.93257 63.1423 9.32369 63.1423 13.4962C63.1423 17.6687 66.6068 21.0598 70.8695 21.0598C75.1322 21.0598 78.5966 17.6687 78.5966 13.4962C78.5966 9.32369 75.1322 5.93257 70.8695 5.93257Z" fill="#FFC073"/>
<path d="M40.8832 26.3855C33.6211 26.3855 27.7153 20.6047 27.7153 13.4962C27.7153 6.38777 33.6211 0.606934 40.8832 0.606934H56.6087L56.3994 0.834526C54.8804 2.49595 53.6791 4.38496 52.8343 6.45605L52.7955 6.5395H40.8755C36.9615 6.5395 33.7761 9.65751 33.7761 13.4886C33.7761 17.3198 36.9615 20.4378 40.8755 20.4378H52.7955L52.8343 20.5212C53.6791 22.5923 54.8804 24.4813 56.3994 26.1428L56.6087 26.3703H40.8832V26.3855Z" fill="#ED588A"/>
<path d="M24.7314 26.3855V20.4529H-1.90735e-06V26.3855H24.7314Z" fill="#066A91"/>
<path d="M24.7314 6.54707V0.614502L-1.90735e-06 0.614502V6.54707L24.7314 6.54707Z" fill="#066A91"/>
<path d="M21.3135 16.4625V10.5299L-3.43323e-05 10.5299V16.4625H21.3135Z" fill="#FFC073"/>
<path d="M95.1978 26.3855L99.7162 18.7308L104.227 26.3855H95.1978Z" fill="#ED588A"/>
</g>
<defs>
<clipPath id="clip0_43_123">
<rect width="115" height="27" fill="white"/>
</clipPath>
</defs>
</svg>
