<svg xmlns="http://www.w3.org/2000/svg" viewBox="0 0 142.99 16.18" xmlns:v="https://vecta.io/nano"><path d="M0 15.22l1.48-.34V1.26L.02.98V.24h9.4v4.62h-.78L7.34 1.3H4.76v6.24h2.02l.46-1.94h.78v5.08h-.78L6.78 8.6H4.76v6.28l1.86.34v.72H0v-.72zm10.1-6.24c0-5.06 2.22-7.04 5.42-7.04 3.68 0 5.16 2.24 5.16 7.18 0 5.02-2.22 7.06-5.42 7.06-3.66 0-5.16-2.24-5.16-7.2zm7.48.18c0-5.58-.98-6.42-2.12-6.42-1.16 0-2.28.72-2.28 6.22 0 5.56 1 6.44 2.14 6.44 1.12 0 2.26-.76 2.26-6.24zm3.74 6.16l1.2-.28v-12l-1.14-.22v-.64h5.3v.64l-1.24.22V15h2.16l1.14-3.22h.62v4.16h-8.04v-.62zm8.7 0l1.14-.28V3.08l-1.14-.26v-.64h5.04v.64l-1 .22v5.62h3.04V3.04l-.94-.22v-.64h4.92v.64l-1.04.22v12l1.14.28v.62h-5.02v-.62l.94-.28V9.6h-3.04v5.44l1 .28v.62h-5.04v-.62zm11.82 0l1.02-.28 3.36-12.86h1.74l3.88 12.86 1.04.28v.62h-5.36v-.62l1.24-.28-1.08-3.3h-2.92l-.76 3.3 1.38.28v.62h-3.54v-.62zm5.58-4.52L46.1 6.4 45 10.8h2.44zm9.1 4.52l1.08-.28v-12l-1.08-.22v-.64h5.08c3.42 0 5.28 1.64 5.28 7.1 0 4.84-2.26 6.66-5 6.66h-5.36v-.62zm5.02-.32c1.62 0 2.38-.88 2.38-5.9 0-5.12-.88-6.02-2.44-6.02h-.8V15h.86zm5.9.32l1.28-.28v-12l-1.26-.22v-.64h8.18v3.98h-.68l-1.12-3.08h-2.18v5.5h1.72l.46-1.7h.62v4.48h-.62l-.45-1.84h-1.72V15h2.62l1.1-3.06h.7v4h-8.64v-.62zm13.37.38v-4.26h.84l.68 3.04c.68.38 1.46.48 2.26.48 1.22 0 2.04-.88 2.04-1.9 0-1.74-1.3-2.68-2.66-3.66-1.54-1.1-3.18-2.28-3.18-4.76C80.8 1.82 82.9 0 85.74 0c1.08 0 2.04.08 2.98.28v4.24h-.78l-.76-3.12c-.54-.14-.86-.18-1.44-.18-1.32 0-2.06.72-2.06 1.68 0 1.54 1.16 2.3 2.44 3.16 1.56 1.04 3.28 2.2 3.28 4.98 0 2.8-2.04 5.14-5.26 5.14-1.38 0-2.48-.18-3.32-.48zm8.72-1.02c0-.88.56-1.48 1.42-1.48.82 0 1.38.6 1.38 1.48 0 .9-.56 1.5-1.42 1.5-.82 0-1.38-.6-1.38-1.5zm3.62.54l1.46-.34V1.26L93.18.98V.24h6.14c2.58 0 4.32 1 4.32 4.66 0 2.8-1.42 4.62-4.5 4.62H97.9v5.36l1.78.34v.72h-6.52v-.72zm5.32-6.74c1.06 0 1.68-.72 1.68-3.62 0-2.88-.44-3.56-1.64-3.56h-.62v7.18h.58zm3.72 6.84l1.14-.28 3.36-12.86h1.78l3.88 12.86 1.16.28v.62h-5.46v-.62l1.22-.28-1.1-3.3h-2.96l-.74 3.3 1.42.28v.62h-3.7v-.62zm5.7-4.52l-1.32-4.4-1.08 4.4h2.4zm6.02.96V3.04l-1.12-.22v-.64h5.28v.64l-1.22.22v9.54c0 1.8.44 2.64 1.74 2.64 1.78 0 2.34-1.06 2.34-3.04V3.04l-1.18-.22v-.64h3.18v.64l-1.08.22v9.34c0 2.68-1.32 3.8-4.02 3.8-3.1 0-3.92-1.22-3.92-4.42zm9.77 3.56l1.2-.28v-12l-1.12-.22v-.64h5.28v.64l-1.22.22V15h1.98l1.14-3.22h.66v4.16h-7.92v-.62zm8.66-6.34c0-5.08 2.24-7.04 5.44-7.04 3.66 0 5.2 2.24 5.2 7.18 0 5.02-2.26 7.06-5.42 7.06-3.68 0-5.22-2.24-5.22-7.2zm7.5.18c0-5.58-.96-6.42-2.08-6.42s-2.26.72-2.26 6.22c0 5.56.96 6.44 2.1 6.44 1.12 0 2.24-.78 2.24-6.24z"/></svg>