<svg width="205" height="34" viewBox="0 0 205 34" fill="none" xmlns="http://www.w3.org/2000/svg">
<path d="M96.5585 29.4209C94.5205 29.4209 92.8774 28.7884 91.629 27.5235C90.3913 26.2585 89.7725 24.4887 89.7725 22.2139V9.26685C89.7725 6.54563 90.3113 4.4622 91.3889 3.01655C92.4773 1.57091 94.2431 0.848083 96.6865 0.848083C98.0202 0.848083 99.2046 1.09257 100.24 1.58154C101.285 2.0705 102.107 2.80396 102.704 3.7819C103.302 4.7492 103.601 5.97162 103.601 7.44916V12.2963H97.9989V8.15072C97.9989 7.31097 97.8922 6.7476 97.6788 6.46059C97.4654 6.16296 97.1346 6.01414 96.6865 6.01414C96.1637 6.01414 95.8116 6.20548 95.6302 6.58815C95.4488 6.96019 95.3581 7.45979 95.3581 8.08695V22.1342C95.3581 22.9101 95.4701 23.4576 95.6942 23.7765C95.929 24.0954 96.2597 24.2548 96.6865 24.2548C97.1667 24.2548 97.5028 24.0582 97.6948 23.6649C97.8975 23.2716 97.9989 22.7613 97.9989 22.1342V17.0797H103.665V22.3893C103.665 24.8554 103.04 26.6465 101.792 27.7626C100.544 28.8681 98.7991 29.4209 96.5585 29.4209Z" fill="#FF5C5C"/>
<path d="M112.435 29.4209C107.655 29.4209 105.265 26.9494 105.265 22.0066V12.4079C105.265 10.1544 105.9 8.358 107.17 7.01866C108.439 5.66868 110.195 4.99369 112.435 4.99369C114.687 4.99369 116.447 5.66868 117.717 7.01866C118.986 8.358 119.621 10.1544 119.621 12.4079V22.0066C119.621 26.9494 117.226 29.4209 112.435 29.4209ZM112.435 25.0201C112.915 25.0201 113.257 24.8501 113.459 24.5099C113.673 24.1591 113.78 23.718 113.78 23.1865V11.4991C113.78 10.1066 113.331 9.41035 112.435 9.41035C111.539 9.41035 111.091 10.1066 111.091 11.4991V23.1865C111.091 23.718 111.192 24.1591 111.395 24.5099C111.608 24.8501 111.955 25.0201 112.435 25.0201Z" fill="#FF5C5C"/>
<path d="M121.75 29.1657V5.2488H127.352V8.02317C127.608 7.04523 128.045 6.29583 128.664 5.77497C129.283 5.25412 130.19 4.99369 131.385 4.99369C132.345 4.99369 133.161 5.21691 133.834 5.66336C134.516 6.09918 134.997 6.6785 135.274 7.40133C135.711 6.61472 136.224 6.01946 136.81 5.61553C137.408 5.20097 138.256 4.99369 139.355 4.99369C140.689 4.99369 141.713 5.28069 142.428 5.8547C143.154 6.41807 143.655 7.20468 143.933 8.2145C144.221 9.2137 144.365 10.3723 144.365 11.6904V29.1657H138.651V11.5948C138.651 10.0535 138.256 9.28279 137.467 9.28279C137.05 9.28279 136.73 9.42629 136.506 9.7133C136.282 9.98967 136.128 10.3351 136.042 10.7497C135.957 11.1643 135.914 11.5788 135.914 11.9934V29.1657H130.2V11.5948C130.2 11.0952 130.136 10.5956 130.008 10.096C129.891 9.59637 129.582 9.34657 129.08 9.34657C128.653 9.34657 128.323 9.5007 128.088 9.80897C127.853 10.1172 127.693 10.4999 127.608 10.957C127.522 11.4034 127.48 11.8446 127.48 12.2804V29.1657H121.75Z" fill="#FF5C5C"/>
<path d="M146.621 33.1519V5.2488H152.447V7.79994C152.799 6.91767 153.285 6.23205 153.903 5.74308C154.533 5.24349 155.429 4.99369 156.592 4.99369C158.161 4.99369 159.265 5.56238 159.905 6.69976C160.556 7.83715 160.882 9.32531 160.882 11.1643V22.9314C160.882 24.1538 160.705 25.2593 160.353 26.2479C160.012 27.2258 159.468 28.0018 158.721 28.5758C157.985 29.1392 157.019 29.4209 155.824 29.4209C154.266 29.4209 153.141 28.4854 152.447 26.6146V33.1519H146.621ZM153.807 24.9723C154.405 24.9723 154.762 24.6747 154.88 24.0794C155.008 23.4841 155.072 22.7507 155.072 21.8791V12.5355C155.072 11.6532 155.008 10.9198 154.88 10.3351C154.762 9.73987 154.405 9.44224 153.807 9.44224C153.189 9.44224 152.804 9.74519 152.655 10.3511C152.516 10.9464 152.447 11.6745 152.447 12.5355V21.8791C152.447 22.7401 152.516 23.4735 152.655 24.0794C152.804 24.6747 153.189 24.9723 153.807 24.9723Z" fill="#FF5C5C"/>
<path d="M163.074 29.1657V5.2488H168.9V7.91155C169.177 6.98677 169.668 6.26394 170.372 5.74308C171.077 5.22223 171.962 4.9618 173.029 4.9618V9.72924C172.56 9.72924 171.999 9.78239 171.349 9.88869C170.698 9.98436 170.127 10.1225 169.636 10.3032C169.145 10.4733 168.9 10.6647 168.9 10.8773V29.1657H163.074Z" fill="#FF5C5C"/>
<path d="M178.807 29.4209C177.473 29.4209 176.454 29.1126 175.75 28.4961C175.056 27.8795 174.582 27.0345 174.326 25.9609C174.069 24.8873 173.941 23.6702 173.941 22.3096C173.941 20.8533 174.085 19.6627 174.374 18.738C174.662 17.8025 175.152 17.0372 175.846 16.4419C176.55 15.8467 177.516 15.3418 178.743 14.9272L182.296 13.7154V11.2599C182.296 9.97373 181.874 9.33063 181.031 9.33063C180.263 9.33063 179.879 9.85148 179.879 10.8932V12.3282H174.31C174.299 12.2432 174.293 12.1369 174.293 12.0093C174.293 11.8711 174.293 11.717 174.293 11.5469C174.293 9.16587 174.854 7.48105 175.974 6.49248C177.105 5.49328 178.892 4.99369 181.336 4.99369C182.616 4.99369 183.763 5.22223 184.777 5.67931C185.79 6.12576 186.59 6.79012 187.177 7.67239C187.775 8.55465 188.074 9.64421 188.074 10.941V29.1657H182.376V26.3276C182.098 27.3268 181.64 28.0921 180.999 28.6236C180.359 29.1551 179.628 29.4209 178.807 29.4209ZM181.063 24.9883C181.533 24.9883 181.853 24.7916 182.024 24.3983C182.194 24.005 182.28 23.5798 182.28 23.1227V16.4579C181.49 16.7768 180.877 17.1807 180.439 17.6697C180.002 18.148 179.783 18.8549 179.783 19.7903V22.8676C179.783 24.2814 180.21 24.9883 181.063 24.9883Z" fill="#FF5C5C"/>
<path d="M196.86 29.4209C192.123 29.4209 189.754 27.0292 189.754 22.2458V20.3484H195.516V23.1546C195.516 23.6967 195.622 24.1219 195.836 24.4302C196.049 24.7385 196.391 24.8926 196.86 24.8926C197.692 24.8926 198.109 24.2707 198.109 23.0271C198.109 21.9853 197.89 21.2094 197.452 20.6991C197.015 20.1783 196.481 19.6787 195.852 19.2004L192.795 16.8565C191.835 16.1124 191.104 15.3258 190.602 14.4967C190.101 13.6676 189.85 12.5142 189.85 11.0367C189.85 9.66546 190.176 8.53339 190.826 7.6405C191.488 6.7476 192.358 6.08324 193.435 5.64742C194.523 5.2116 195.697 4.99369 196.956 4.99369C201.608 4.99369 203.934 7.30566 203.934 11.9296V12.3761H198.013V11.4672C198.013 10.9889 197.927 10.5265 197.756 10.08C197.596 9.63357 197.276 9.41035 196.796 9.41035C195.985 9.41035 195.58 9.83554 195.58 10.6859C195.58 11.5469 195.921 12.2219 196.604 12.7109L200.157 15.2939C201.267 16.0912 202.195 17.0372 202.942 18.1321C203.7 19.2269 204.078 20.6832 204.078 22.5009C204.078 24.7544 203.433 26.4711 202.142 27.651C200.861 28.8309 199.101 29.4209 196.86 29.4209Z" fill="#FF5C5C"/>
<path d="M63.1935 29.6133C62.2471 29.6133 61.4964 29.4404 60.9413 29.0946C60.3862 28.7488 59.9721 28.2711 59.6991 27.6614C59.4261 27.0517 59.2441 26.3373 59.1531 25.5183C59.0712 24.6993 59.0303 23.8212 59.0303 22.8839V13.9841C59.0303 12.4098 59.3078 11.1358 59.8629 10.1621C60.4271 9.18837 61.3781 8.70151 62.7158 8.70151C63.7077 8.70151 64.4675 8.91536 64.9953 9.34307C65.5322 9.76167 65.9463 10.3486 66.2375 11.1039V5.37091H71.2061V29.3949H66.2375V27.2246C65.9645 27.9617 65.6005 28.5441 65.1455 28.9718C64.6996 29.3995 64.0489 29.6133 63.1935 29.6133ZM65.0636 25.7913C65.5277 25.7913 65.8371 25.6048 65.9918 25.2317C66.1556 24.8586 66.2375 24.1897 66.2375 23.2251V14.612C66.2375 14.1297 66.1647 13.6565 66.0191 13.1924C65.8826 12.7192 65.5732 12.4826 65.0909 12.4826C64.5631 12.4826 64.2309 12.7055 64.0944 13.1514C63.9579 13.5973 63.8897 14.0842 63.8897 14.612V23.2251C63.8897 24.9359 64.281 25.7913 65.0636 25.7913Z" fill="black"/>
<path d="M78.8228 29.6133C77.3668 29.6133 76.2065 29.3403 75.342 28.7943C74.4775 28.2483 73.8587 27.4612 73.4856 26.4329C73.1125 25.4046 72.926 24.167 72.926 22.7201V14.4891C72.926 12.5872 73.472 11.1494 74.564 10.1757C75.656 9.19292 77.1575 8.70151 79.0685 8.70151C82.9997 8.70151 84.9653 10.6307 84.9653 14.4891V15.977C84.9653 17.7788 84.9471 18.9891 84.9107 19.6079H77.8127V23.5664C77.8127 23.9304 77.8354 24.2898 77.8809 24.6447C77.9264 24.9905 78.0265 25.2772 78.1812 25.5047C78.345 25.7322 78.6044 25.8459 78.9593 25.8459C79.4689 25.8459 79.7874 25.6275 79.9148 25.1907C80.0422 24.7448 80.1059 24.167 80.1059 23.4572V21.4916H84.9653V22.6518C84.9653 24.1806 84.7742 25.4637 84.392 26.5011C84.0189 27.5294 83.3819 28.3075 82.481 28.8353C81.5892 29.354 80.3698 29.6133 78.8228 29.6133ZM77.7854 17.1782H80.1059V14.4209C80.1059 13.6838 80.0149 13.156 79.8329 12.8375C79.6509 12.5099 79.3779 12.3461 79.0139 12.3461C78.6226 12.3461 78.3177 12.5008 78.0993 12.8102C77.89 13.1196 77.7854 13.6565 77.7854 14.4209V17.1782Z" fill="black"/>
<path d="M6.1169 29.4245C2.09089 29.4245 0.0778809 26.5541 0.0778809 20.8133V8.7098C0.0778809 3.46866 2.38456 0.848083 6.99792 0.848083C8.8988 0.848083 10.3565 1.2308 11.371 1.99624C12.3855 2.75105 13.085 3.85669 13.4694 5.31316C13.8539 6.76962 14.0461 8.54502 14.0461 10.6393H8.53571V8.15166C8.53571 7.54569 8.45027 7.04071 8.27941 6.63673C8.11922 6.22212 7.77749 6.01481 7.25422 6.01481C6.60279 6.01481 6.17029 6.23275 5.95671 6.66862C5.75381 7.1045 5.65236 7.5829 5.65236 8.10383V21.7063C5.65236 22.4612 5.74847 23.0778 5.94069 23.5562C6.14359 24.0239 6.53338 24.2578 7.11005 24.2578C7.70808 24.2578 8.1032 24.0239 8.29543 23.5562C8.49833 23.0778 8.59978 22.4505 8.59978 21.6745V17.6718H7.09403V12.824H13.982V29.1694H11.7234L10.7623 26.8093C9.77982 28.5528 8.23135 29.4245 6.1169 29.4245Z" fill="black"/>
<path d="M20.7579 29.4245C19.4764 29.4245 18.4939 29.1588 17.8105 28.6272C17.1377 28.0957 16.6785 27.3568 16.4329 26.4106C16.1873 25.4538 16.0645 24.3376 16.0645 23.0618V5.24937H21.8312V22.3921C21.8312 23.3489 21.9059 24.0186 22.0554 24.4013C22.2049 24.7734 22.5573 24.9595 23.1126 24.9595C23.7107 24.9595 24.0844 24.6937 24.2339 24.1621C24.3941 23.6306 24.4742 22.9449 24.4742 22.105V5.24937H30.1929V29.1694H24.4582V26.6179C24.0951 27.5322 23.6573 28.2285 23.1447 28.7069C22.6428 29.1853 21.8472 29.4245 20.7579 29.4245Z" fill="black"/>
<path d="M32.4675 29.1694V12.6452H38.2022V29.1694H32.4675Z" fill="black"/>
<path d="M44.8499 29.4245C43.515 29.4245 42.4952 29.1162 41.7903 28.4996C41.0962 27.883 40.621 27.0379 40.3647 25.9641C40.1084 24.8904 39.9802 23.6731 39.9802 22.3123C39.9802 20.8559 40.1244 19.6652 40.4127 18.7403C40.7011 17.8047 41.1923 17.0393 41.8865 16.4439C42.5913 15.8486 43.5577 15.3436 44.7858 14.929L48.342 13.7171V11.2613C48.342 9.9749 47.9201 9.33172 47.0765 9.33172C46.3076 9.33172 45.9231 9.85264 45.9231 10.8945V12.3297H40.3487C40.338 12.2446 40.3326 12.1383 40.3326 12.0108C40.3326 11.8726 40.3326 11.7184 40.3326 11.5483C40.3326 9.16694 40.8933 7.4819 42.0146 6.49321C43.1466 5.49388 44.9353 4.99422 47.3808 4.99422C48.6623 4.99422 49.8103 5.22279 50.8248 5.67993C51.8394 6.12644 52.6403 6.79088 53.2276 7.67326C53.8257 8.55565 54.1247 9.64534 54.1247 10.9423V29.1694H48.422V26.3309C48.1444 27.3302 47.6852 28.0957 47.0444 28.6272C46.4037 29.1588 45.6722 29.4245 44.8499 29.4245ZM47.1085 24.9914C47.5784 24.9914 47.8988 24.7947 48.0696 24.4013C48.2405 24.008 48.3259 23.5827 48.3259 23.1256V16.4599C47.5357 16.7788 46.9216 17.1828 46.4838 17.6718C46.0459 18.1502 45.827 18.8572 45.827 19.7927V22.8705C45.827 24.2844 46.2542 24.9914 47.1085 24.9914Z" fill="black"/>
<circle cx="35.4017" cy="7.93755" r="2.79552" fill="#FF5C5C"/>
</svg>
