<svg width="107" height="27" viewBox="0 0 107 27" fill="none" xmlns="http://www.w3.org/2000/svg">
<g clip-path="url(#clip0_43_134)">
<path d="M21.7857 6.57177V26.4592H12.6873V9.64461C12.6873 8.83338 12.313 8.30076 11.5073 8.30076C10.5958 8.30076 9.63553 8.57117 8.99262 9.05463V26.4592H0V0.647344H8.18695L8.72406 2.53202H8.93565C10.3842 1.29469 12.3618 0 15.6252 0C20.2314 0 21.7857 2.42549 21.7857 6.57177Z" fill="black"/>
<path d="M46.249 13.0944C46.249 23.0094 43.0344 27 35.2788 27C27.5232 27 24.0889 22.9029 24.0889 13.4713C24.0889 4.03976 27.6208 0 35.2788 0C42.9368 0 46.249 3.93323 46.249 13.0944ZM33.0815 12.8813V14.176C33.0815 19.027 33.2443 20.2643 35.3276 20.2643C37.0366 20.2643 37.3052 19.0762 37.3052 14.4956V12.9305C37.3052 8.51381 37.1424 7.26829 35.2137 7.26829C33.2849 7.26829 33.0734 8.50561 33.0734 12.8731L33.0815 12.8813Z" fill="black"/>
<path d="M73.7153 9.12837C73.3328 9.00546 72.5108 8.60394 72.5108 8.07132C72.5108 7.48953 72.8771 7.17815 73.6095 7.17815C75.0255 7.17815 81.6174 9.44795 81.6174 9.44795L82.9276 1.74537C80.413 1.10622 76.4416 0 73.5607 0C67.8965 0 64.6494 2.90076 64.6494 8.22701C64.6494 14.4464 70.7123 16.8228 73.8618 17.8716C74.2443 17.9945 75.0662 18.396 75.0662 18.9287C75.0662 19.5105 74.7 19.8218 73.9676 19.8218C73.0642 19.8218 70.0368 18.8959 67.9779 18.224C67.986 18.4042 67.9942 18.5845 67.9942 18.7648C67.9942 21.5508 67.2211 23.8452 65.7806 25.5414C68.2546 26.1724 71.5424 26.9918 74.0245 26.9918C79.6805 26.9918 82.9276 24.091 82.9276 18.7648C82.9276 12.5454 76.8647 10.169 73.7153 9.12018V9.12837Z" fill="#C79D5E"/>
<path d="M96.2983 10.8901V9.59544C96.2983 8.73505 95.867 8.0877 94.8009 8.0877C92.978 8.0877 89.7715 8.79241 86.7686 9.6528L85.4339 1.78634C89.1775 0.811229 93.3523 0 97.2098 0C102.825 0 105.022 2.36813 105.022 7.383C105.022 10.7262 104.754 14.8234 104.754 18.5353C104.754 19.9366 105.397 20.2561 107 20.2561L106.194 26.7787C104.64 26.8853 104.111 26.9918 102.768 26.9918C100.416 26.9918 98.5363 26.3444 97.7388 24.2467H97.4702C96.2413 25.9675 94.687 26.9918 91.3666 26.9918C87.086 26.9918 84.8398 24.0255 84.8398 19.3384C84.8398 12.9797 89.1775 11.5211 96.2902 10.8737L96.2983 10.8901ZM96.6727 18.6009V15.9624C94.2068 16.2819 93.0349 16.8228 93.0349 18.7074C93.0349 20.0021 93.572 20.6986 94.6951 20.6986C96.0298 20.6986 96.6727 20.0513 96.6727 18.6009Z" fill="black"/>
<path d="M56.8613 9.12837C56.4788 9.00546 55.6568 8.60394 55.6568 8.07132C55.6568 7.48953 56.0231 7.17815 56.7555 7.17815C57.6588 7.17815 60.6862 8.10409 62.7451 8.77602C62.737 8.59575 62.7289 8.41547 62.7289 8.2352C62.7289 5.44916 63.502 3.15478 64.9424 1.45857C62.4766 0.819423 59.1806 0 56.6985 0C51.0425 0 47.7954 2.90076 47.7954 8.22701C47.7954 14.4464 53.8583 16.8228 57.0078 17.8716C57.3903 17.9945 58.2122 18.396 58.2122 18.9287C58.2122 19.5105 57.846 19.8218 57.1136 19.8218C55.6975 19.8218 49.1056 17.552 49.1056 17.552L47.7954 25.2546C50.3101 25.8856 54.2815 26.9918 57.1705 26.9918C62.8265 26.9918 66.0736 24.091 66.0736 18.7648C66.0736 12.5454 60.0107 10.169 56.8613 9.12018V9.12837Z" fill="#C79D5E"/>
</g>
<defs>
<clipPath id="clip0_43_134">
<rect width="107" height="27" fill="white"/>
</clipPath>
</defs>
</svg>
