<svg width="181" height="32" viewBox="0 0 181 32" fill="none" xmlns="http://www.w3.org/2000/svg">
<g clip-path="url(#clip0_43_143)">
<path d="M52.7679 1.44885H1.41406V30.5668H52.7679V1.44885Z" fill="#8343C4"/>
<path d="M117.185 1.44885H65.8311V30.5668H117.185V1.44885Z" fill="#FFE443"/>
<path d="M179.492 1.44885H128.138V30.5668H179.492V1.44885Z" fill="#EB4751"/>
<path d="M126.709 0V14.559H117.646V0H63.3543V14.559H54.2914V0H0V32H54.2914V17.4332H63.3543V32H117.646V17.4332H126.709V32H181V0H126.709ZM51.346 29.0788H2.87512V2.91336H51.346V29.0788ZM114.7 29.0788H66.2294V2.91336H114.7V29.0788ZM178.055 29.0788H129.584V2.91336H178.055V29.0788Z" fill="black"/>
<path d="M9.75841 22.5159C9.6334 22.4141 9.60215 22.234 9.73497 22.1087L12.0319 19.3989C12.1335 19.2736 12.2898 19.2736 12.3913 19.3754C13.4382 20.2917 15.0711 21.114 16.8056 21.114C18.415 21.114 19.251 20.4484 19.251 19.4772C19.251 18.7332 18.7666 18.2477 17.0556 18.0206L16.1415 17.8953C12.3913 17.3549 10.3522 15.6711 10.3522 12.4209C10.3522 9.17082 12.8757 7.00146 16.8056 7.00146C19.2041 7.00146 21.4464 7.74547 23.0012 8.92021C23.1262 9.02202 23.1574 9.14733 23.0558 9.30396L21.1417 12.092C21.0401 12.2173 20.9151 12.2487 20.7823 12.1703C19.5557 11.3558 18.2588 10.8703 16.8759 10.8703C15.6024 10.8703 14.9618 11.4812 14.9618 12.327C14.9618 13.0945 15.5243 13.58 17.1806 13.7836L18.0947 13.909C21.8917 14.4493 23.8371 16.1331 23.8371 19.4302C23.8371 22.7274 21.3917 25.0064 16.7431 25.0064C13.9148 25.0064 11.0553 23.8081 9.75059 22.5237L9.75841 22.5159Z" fill="#96EC7B"/>
<path d="M31.0952 24.6931C30.939 24.6931 30.8374 24.5913 30.8374 24.4347V7.56533C30.8374 7.4087 30.939 7.30688 31.0952 7.30688H38.033C42.2676 7.30688 44.463 9.71119 44.463 13.0866C44.463 16.4621 42.2442 18.8899 38.033 18.8899H35.486C35.3845 18.8899 35.3298 18.9447 35.3298 19.0465V24.4425C35.3298 24.5991 35.2282 24.7009 35.072 24.7009H31.0952V24.6931ZM39.9706 13.0866C39.9706 11.8884 39.1815 11.1209 37.7752 11.1209H35.4782C35.3767 11.1209 35.322 11.1679 35.322 11.2775V14.9349C35.322 15.0367 35.3767 15.0915 35.4782 15.0915H37.7752C39.1815 15.0915 39.9706 14.3005 39.9706 13.0945V13.0866Z" fill="#FF9959"/>
<path d="M73.7144 7.56533C73.7144 7.4087 73.8159 7.30688 73.9722 7.30688H77.9489C78.1052 7.30688 78.2067 7.4087 78.2067 7.56533V20.5502C78.2067 20.652 78.2614 20.7068 78.363 20.7068H85.7071C85.8633 20.7068 85.9649 20.8086 85.9649 20.9652V24.4425C85.9649 24.5991 85.8633 24.7009 85.7071 24.7009H73.9722C73.8159 24.7009 73.7144 24.5991 73.7144 24.4425V7.56533Z" fill="#EB4751"/>
<path d="M98.2934 7.56533C98.3481 7.4087 98.4496 7.30688 98.6215 7.30688H102.778C102.958 7.30688 103.059 7.4087 103.106 7.56533L108.974 24.4425C109.02 24.5991 108.95 24.7009 108.794 24.7009H104.583C104.403 24.7009 104.301 24.5991 104.255 24.4425L103.434 21.7562H97.8012L96.9808 24.4425C96.934 24.5991 96.8246 24.7009 96.6527 24.7009H92.4728C92.3166 24.7009 92.2463 24.5991 92.2931 24.4425L98.2856 7.56533H98.2934ZM102.325 18.0206L100.715 12.6011H100.637L98.9575 18.0206H102.325Z" fill="#8343C4"/>
<path d="M136.287 22.5159C136.162 22.4141 136.131 22.234 136.264 22.1087L138.561 19.3989C138.662 19.2736 138.819 19.2736 138.92 19.3754C139.967 20.2917 141.6 21.114 143.334 21.114C144.944 21.114 145.78 20.4484 145.78 19.4772C145.78 18.7332 145.295 18.2477 143.584 18.0206L142.67 17.8953C138.92 17.3549 136.881 15.6711 136.881 12.4209C136.881 9.17082 139.405 7.00146 143.334 7.00146C145.733 7.00146 147.975 7.74547 149.53 8.92021C149.655 9.02202 149.686 9.14733 149.585 9.30396L147.671 12.092C147.569 12.2173 147.444 12.2487 147.311 12.1703C146.085 11.3558 144.788 10.8703 143.405 10.8703C142.131 10.8703 141.491 11.4812 141.491 12.327C141.491 13.0945 142.053 13.58 143.709 13.7836L144.624 13.909C148.421 14.4493 150.366 16.1331 150.366 19.4302C150.366 22.7274 147.921 25.0064 143.272 25.0064C140.444 25.0064 137.584 23.8081 136.279 22.5237L136.287 22.5159Z" fill="#FFE443"/>
<path d="M157.374 7.56533C157.374 7.4087 157.476 7.30688 157.632 7.30688H161.609C161.765 7.30688 161.866 7.4087 161.866 7.56533V13.7288C161.866 13.8306 161.921 13.8855 162.023 13.8855H166.742C166.843 13.8855 166.898 13.8306 166.898 13.7288V7.56533C166.898 7.4087 166.999 7.30688 167.156 7.30688H171.132C171.289 7.30688 171.39 7.4087 171.39 7.56533V24.4425C171.39 24.5991 171.289 24.7009 171.132 24.7009H167.156C166.999 24.7009 166.898 24.5991 166.898 24.4425V18.0284C166.898 17.9266 166.851 17.8718 166.742 17.8718H162.023C161.921 17.8718 161.866 17.9266 161.866 18.0284V24.4425C161.866 24.5991 161.765 24.7009 161.609 24.7009H157.632C157.476 24.7009 157.374 24.5991 157.374 24.4425V7.56533Z" fill="#97D2F4"/>
</g>
<defs>
<clipPath id="clip0_43_143">
<rect width="181" height="32" fill="white"/>
</clipPath>
</defs>
</svg>
