<svg width="47" height="30" viewBox="0 0 47 30" fill="none" xmlns="http://www.w3.org/2000/svg">
<g clip-path="url(#clip0_43_166)">
<path d="M8.51673 30V3.53485H12.9892V0H0V3.53485H4.60592V29.9929H8.51673V30Z" fill="#CF643D"/>
<path d="M30.7388 30H26.7859L25.6765 24.1536H19.8068L18.6764 30H14.8428L21.2812 0H24.3916L30.7388 29.9929V30ZM22.7767 5.83215C22.6012 7.62447 22.3695 9.45946 22.0887 11.3016C21.8078 13.1437 21.4708 15.1209 21.0917 17.1764L20.3614 21.0242H25.1008L24.2161 16.2447C23.6333 13.0085 23.1489 9.50213 22.7767 5.83215Z" fill="#CF643D"/>
<path d="M40.0139 30H34.7971V1.05209e-05H40.2035C41.1513 -0.0213266 42.0992 0.14937 42.9839 0.497877C43.7632 0.817934 44.4443 1.33714 44.9709 1.99148C45.5326 2.73116 45.9398 3.57754 46.1645 4.48792C46.4453 5.63301 46.5787 6.80655 46.5647 7.9801C46.5647 10.0071 46.2838 11.5292 45.7432 12.5036C45.4553 13.0085 45.0692 13.4495 44.5987 13.798C44.0581 14.1963 43.4613 14.5164 42.8224 14.7369C43.5385 15.0142 44.2196 15.3912 44.8445 15.8464C45.35 16.2162 45.7783 16.6856 46.1083 17.2262C46.7051 18.2219 47.007 19.7369 47.007 21.7354C47.0281 22.9516 46.8806 24.1679 46.5717 25.3485C46.326 26.2945 45.8766 27.1764 45.2657 27.9303C44.676 28.6202 43.9247 29.1536 43.0821 29.4808C42.1062 29.8435 41.0671 30.0142 40.0279 30H40.0139ZM38.5605 16.4225V26.5434C39.2626 26.5576 39.9577 26.4652 40.6317 26.2731C41.1373 26.1309 41.5937 25.8535 41.9517 25.4694C42.3028 25.0356 42.5415 24.5164 42.6539 23.9687C42.8224 23.1935 42.8996 22.3969 42.8856 21.6003C42.8996 20.7824 42.8153 19.9573 42.6398 19.1607C42.5205 18.5846 42.2677 18.0441 41.9096 17.5818C41.5585 17.1693 41.1022 16.8706 40.5896 16.707C39.9296 16.5007 39.2415 16.4011 38.5535 16.4154L38.5605 16.4225ZM38.7501 3.25037C38.6869 3.25037 38.6237 3.25037 38.5605 3.2717V13.2148C39.2275 13.229 39.8875 13.1366 40.5264 12.9445C41.0109 12.7952 41.4462 12.5107 41.7832 12.1266C42.38 11.3656 42.6819 10.0142 42.6819 8.10812C42.6819 6.49361 42.3941 5.27028 41.8183 4.46658C41.5445 4.0754 41.1724 3.76246 40.7371 3.5562C40.2596 3.34283 39.7471 3.24325 39.2275 3.25037H38.7501Z" fill="#CF643D"/>
</g>
<defs>
<clipPath id="clip0_43_166">
<rect width="47" height="30" fill="white"/>
</clipPath>
</defs>
</svg>
