<svg width="166" height="26" viewBox="0 0 166 26" fill="none" xmlns="http://www.w3.org/2000/svg">
<path d="M69.0352 20.4766V0.477051H83.125L69.0352 20.4687V20.4766Z" fill="#FF7366"/>
<path d="M29.9473 0.477051L44.0211 20.3582V0.477051H29.9473Z" fill="#FF7366"/>
<path d="M111.875 12.0588V25.5259H121.569L111.875 12.0588Z" fill="#FF7366"/>
<path d="M161.853 6.00751V25.9991H147.763L161.853 6.00751Z" fill="#FF7366"/>
<path d="M87.9961 0.477051H101.957V5.43946H93.3411V10.4965H100.671V15.3801H93.3411V20.5713H101.957V25.5337H87.9961V0.477051Z" fill="#322873"/>
<path d="M70.2573 25.5258H64.8882V0.477051H70.3216V16.6897L81.8475 0.477051H87.9962L70.2573 25.5258Z" fill="#322873"/>
<path d="M53.8115 25.5258H59.1083V0.477051H53.8115V25.5258Z" fill="#322873"/>
<path d="M25.8813 25.5258V0.477051H31.2263L42.7361 16.5792V0.477051H48.0329V25.5258H25.8813Z" fill="#322873"/>
<path d="M20.102 0.477051V16.7765C20.0698 18.3307 19.684 19.8533 18.9687 21.234C18.2292 22.7566 16.9995 24.0031 15.4723 24.7684C13.8407 25.5968 12.0242 26.0228 10.1916 25.9912C6.66315 25.9912 4.08309 25.0287 2.45146 23.1037C0.819832 21.1787 0 19.1591 0 17.0368V0.477051H20.11H20.102Z" fill="#322873"/>
<path d="M142.899 2.64666L139.499 6.36255C137.707 5.31326 136.413 4.78468 135.625 4.78468C135.031 4.78468 134.46 5.02925 134.058 5.47105C133.624 5.90497 133.391 6.48878 133.399 7.09626C133.399 8.34278 134.532 9.42362 136.807 10.3309C138.117 10.8595 139.379 11.4985 140.576 12.248C141.469 12.8634 142.2 13.6839 142.714 14.6306C143.285 15.6404 143.582 16.7765 143.574 17.9284C143.574 20.1058 142.61 22.1728 140.93 23.5929C139.25 25.1629 137.016 26.0307 134.693 25.9992C132.065 25.9992 129.46 24.7684 126.896 22.2991L130.497 18.1177C132.105 19.7745 133.616 20.6028 135.022 20.6028C135.746 20.5713 136.429 20.2557 136.919 19.7271C137.466 19.2617 137.795 18.5989 137.828 17.8889C137.828 16.5714 136.429 15.4038 133.632 14.4018C132.426 14.0152 131.277 13.463 130.232 12.7687C129.493 12.177 128.914 11.4117 128.536 10.5518C128.086 9.62085 127.853 8.60313 127.853 7.57751C127.853 5.32904 128.584 3.5066 130.055 2.10229C131.526 0.705877 133.447 0.00372375 135.818 0.00372375C138.438 -0.0672805 140.986 0.879443 142.899 2.64666Z" fill="#322873"/>
<path d="M113.161 15.8376V25.5337H107.735V0.477051H116.022C118.538 0.477051 120.531 1.13976 121.994 2.45728C123.457 3.78269 124.188 5.56569 124.188 7.81416C124.164 9.20268 123.819 10.5754 123.184 11.8219C122.508 13.2105 121.271 14.2913 119.47 15.0803L126.511 25.5258H120.282L113.161 15.8297V15.8376Z" fill="#322873"/>
<path d="M160.631 0.950378H166V25.9991H160.567V9.78646L149.041 25.9991H142.892L160.631 0.950378Z" fill="#322873"/>
</svg>
