<svg width="241" height="7" viewBox="0 0 241 7" fill="none" xmlns="http://www.w3.org/2000/svg">
<path fill-rule="evenodd" clip-rule="evenodd" d="M7.35435 3.5C7.35435 5.54167 5.79804 7 3.67718 7C1.5614 7 0 5.54167 0 3.5C0 1.45833 1.5614 0 3.67718 0C5.79804 0 7.35435 1.45833 7.35435 3.5ZM0.860046 3.50062C0.860046 5.13881 2.08069 6.24715 3.67769 6.24715C5.27978 6.24715 6.50042 5.13881 6.50042 3.50062C6.50042 1.86242 5.27978 0.754089 3.67769 0.754089C2.08069 0.754089 0.860046 1.86242 0.860046 3.50062ZM15.8782 6.90382V1.01216L18.3551 6.15035H19.2146L21.6966 0.973267V6.90382H22.5154V0.0982666H21.2694L18.7874 5.24132L16.3003 0.0982666H15.0594V6.90382H15.8782ZM31.2514 6.16979V6.90382H26.2417V0.0982666H31.2056V0.832294H27.0605V3.11216H31.0785V3.84132H27.0605V6.16979H31.2514ZM39.7091 6.90382V6.16493H35.5894V0.0982666H34.7706V6.90382H39.7091ZM43.4285 3.84618V6.90382H42.6097V0.0982666H43.4285V3.10729H47.7364V0.0982666H48.5552V6.90382H47.7364V3.84618H43.4285ZM55.5472 7C57.6681 7 59.2244 5.54167 59.2244 3.5C59.2244 1.45833 57.6681 0 55.5472 0C53.4314 0 51.87 1.45833 51.87 3.5C51.87 5.54167 53.4314 7 55.5472 7ZM52.7275 3.50062C52.7275 5.13881 53.9481 6.24715 55.5452 6.24715C57.1472 6.24715 58.3679 5.13881 58.3679 3.50062C58.3679 1.86242 57.1472 0.754089 55.5452 0.754089C53.9481 0.754089 52.7275 1.86242 52.7275 3.50062ZM63.3606 6.90382V3.94341H64.2608L66.7682 6.90382H67.7854L65.2272 3.94341H65.3442C66.8649 3.94341 67.821 3.19479 67.821 2.01841C67.821 0.788544 66.9361 0.0982666 65.334 0.0982666H62.5418V6.90382H63.3606ZM63.3621 3.23153H65.3253C66.4086 3.23153 66.9732 2.80861 66.9732 2.01625C66.9732 1.22875 66.3933 0.830139 65.3253 0.830139H63.3621V3.23153ZM78.1612 6.90382C80.4855 6.90382 81.9605 5.57674 81.9605 3.50104C81.9605 1.42535 80.4855 0.0982666 78.1612 0.0982666H75.4809V6.90382H78.1612ZM76.3012 6.16262H78.1627C80.0903 6.16262 81.1024 5.09317 81.1024 3.49873C81.1024 1.89456 80.0903 0.834839 78.1627 0.834839H76.3012V6.16262ZM88.5468 7C90.6677 7 92.224 5.54167 92.224 3.5C92.224 1.45833 90.6677 0 88.5468 0C86.4311 0 84.8697 1.45833 84.8697 3.5C84.8697 5.54167 86.4311 7 88.5468 7ZM85.7271 3.50062C85.7271 5.13881 86.9478 6.24715 88.5448 6.24715C90.1469 6.24715 91.3675 5.13881 91.3675 3.50062C91.3675 1.86242 90.1469 0.754089 88.5448 0.754089C86.9478 0.754089 85.7271 1.86242 85.7271 3.50062ZM101.016 6.99618C102.425 6.99618 103.488 6.10174 103.488 4.47813V0.0982666H102.674V4.40035C102.674 5.62049 102.008 6.24757 101.011 6.24757C100.238 6.24757 99.7042 5.90729 99.3685 5.50382L98.8192 6.03855C99.2109 6.49063 99.8771 6.99618 101.016 6.99618ZM114.106 3.5C114.106 5.54167 112.55 7 110.429 7C108.313 7 106.752 5.54167 106.752 3.5C106.752 1.45833 108.313 0 110.429 0C112.55 0 114.106 1.45833 114.106 3.5ZM110.43 6.24715C108.833 6.24715 107.612 5.13881 107.612 3.50062C107.612 1.86242 108.833 0.754089 110.43 0.754089C112.032 0.754089 113.253 1.86242 113.253 3.50062C113.253 5.13881 112.032 6.24715 110.43 6.24715ZM118.245 3.94341V6.90382H117.426V0.0982666H120.218C121.821 0.0982666 122.706 0.788544 122.706 2.01841C122.706 3.19479 121.749 3.94341 120.229 3.94341H120.112L122.67 6.90382H121.653L119.145 3.94341H118.245ZM120.207 3.23153H118.244V0.830139H120.207C121.275 0.830139 121.855 1.22875 121.855 2.01625C121.855 2.80861 121.29 3.23153 120.207 3.23153ZM126.797 1.43993V6.90382H125.978V0.0982666H126.715L131.125 5.56216V0.0982666H131.944V6.90382H131.206L126.797 1.43993ZM135.673 6.90382L136.477 5.00799H140.002L140.81 6.90382H141.685L138.761 0.0982666H137.749L134.824 6.90382H135.673ZM138.243 0.870728L136.794 4.26864H139.693L138.243 0.870728ZM149.506 6.90382V6.16493H145.387V0.0982666H144.568V6.90382H149.506ZM152.409 0.0982666H153.228V6.90382H152.409V0.0982666ZM159.339 6.9961C160.875 6.9961 162.157 6.2961 162.157 4.94957C162.157 3.77318 161.109 3.29679 159.934 3.16068L159.258 3.0829C158.149 2.95651 157.615 2.61138 157.615 1.97943C157.615 1.21138 158.383 0.74957 159.456 0.74957C160.31 0.74957 161.028 1.01207 161.602 1.38638L162.019 0.754431C161.363 0.316931 160.544 0.0106812 159.461 0.0106812C157.971 0.0106812 156.765 0.734987 156.765 2.02804C156.765 3.15582 157.65 3.6954 158.866 3.82665L159.583 3.90443C160.712 4.02596 161.307 4.35651 161.307 5.01763C161.307 5.82943 160.438 6.25721 159.334 6.25721C158.408 6.25721 157.483 5.89749 156.989 5.49888L156.542 6.1211C157.213 6.6461 158.307 6.9961 159.339 6.9961ZM166.29 1.01216V6.90382H165.471V0.0982666H166.712L169.199 5.24132L171.681 0.0982666H172.927V6.90382H172.108V0.973267L169.626 6.15035H168.767L166.29 1.01216ZM179.916 7C182.037 7 183.593 5.54167 183.593 3.5C183.593 1.45833 182.037 0 179.916 0C177.8 0 176.239 1.45833 176.239 3.5C176.239 5.54167 177.8 7 179.916 7ZM177.099 3.50062C177.099 5.13881 178.319 6.24715 179.916 6.24715C181.518 6.24715 182.739 5.13881 182.739 3.50062C182.739 1.86242 181.518 0.754089 179.916 0.754089C178.319 0.754089 177.099 1.86242 177.099 3.50062ZM193.982 6.90382C196.306 6.90382 197.781 5.57674 197.781 3.50104C197.781 1.42535 196.306 0.0982666 193.982 0.0982666H191.301V6.90382H193.982ZM192.118 6.16262H193.98C195.908 6.16262 196.92 5.09317 196.92 3.49873C196.92 1.89456 195.908 0.834839 193.98 0.834839H192.118V6.16262ZM204.364 7C206.484 7 208.041 5.54167 208.041 3.5C208.041 1.45833 206.484 0 204.364 0C202.248 0 200.686 1.45833 200.686 3.5C200.686 5.54167 202.248 7 204.364 7ZM201.547 3.50062C201.547 5.13881 202.768 6.24715 204.365 6.24715C205.967 6.24715 207.187 5.13881 207.187 3.50062C207.187 1.86242 205.967 0.754089 204.365 0.754089C202.768 0.754089 201.547 1.86242 201.547 3.50062ZM218.576 6.99618C220.204 6.99618 221.511 6.08716 221.511 4.23993V0.0982666H220.692V4.1816C220.692 5.60591 219.792 6.24757 218.576 6.24757C217.361 6.24757 216.46 5.60591 216.46 4.1816V0.0982666H215.647V4.23993C215.647 6.08716 216.949 6.99618 218.576 6.99618ZM232.075 3.5C232.075 5.54167 230.519 7 228.398 7C226.282 7 224.721 5.54167 224.721 3.5C224.721 1.45833 226.282 0 228.398 0C230.519 0 232.075 1.45833 232.075 3.5ZM228.398 6.24715C226.801 6.24715 225.581 5.13881 225.581 3.50062C225.581 1.86242 226.801 0.754089 228.398 0.754089C230 0.754089 231.221 1.86242 231.221 3.50062C231.221 5.13881 230 6.24715 228.398 6.24715ZM240.334 6.16493V6.90382H235.395V0.0982666H236.214V6.16493H240.334Z" fill="#CCCCCC"/>
</svg>
