<svg width="146" height="40" viewBox="0 0 146 40" fill="none" xmlns="http://www.w3.org/2000/svg">
<path fill-rule="evenodd" clip-rule="evenodd" d="M76.1991 16.9731C76.1991 21.4905 73.1874 24.5823 67.5344 24.5823H63.5241V31.6468H57.4041V9.21973H67.4538C73.1874 9.21973 76.1991 12.3595 76.1991 16.9731ZM70.015 16.9781C70.015 15.5204 68.9037 14.6874 67.3898 14.6874H63.5245V19.2529H67.3898C68.9037 19.2529 70.015 18.4359 70.015 16.9781Z" fill="white"/>
<path d="M86.7155 15.3848C84.7823 15.3848 83.3924 16.0081 82.5136 17.4146V15.8163H77.0815V31.6554H82.7852V23.1684C82.7852 21.4263 83.7438 20.8669 85.3255 20.8669C86.2362 20.8669 87.1629 21.0587 87.8179 21.2345L88.1374 15.5446C87.9138 15.4966 87.3386 15.3848 86.7155 15.3848Z" fill="white"/>
<path fill-rule="evenodd" clip-rule="evenodd" d="M88.7914 11.1596C88.7914 9.32064 90.2384 7.89746 92.1082 7.89746C93.9779 7.89746 95.4249 9.32064 95.4249 11.1596C95.4249 12.9985 93.9779 14.4217 92.1082 14.4217C90.2384 14.4217 88.7914 12.9985 88.7914 11.1596ZM89.2314 15.799H95.0195V31.6458H89.2314V15.799Z" fill="white"/>
<path d="M115.569 15.3848C113.38 15.3848 111.787 16.1999 110.821 17.8302C109.823 16.2798 108.133 15.3848 106.088 15.3848C104.092 15.3848 102.676 16.072 101.774 17.4466V15.8163H96.3176V31.6554H102.048V23.1684C102.048 21.4263 102.933 20.7071 104.044 20.7071C105.3 20.7071 106.056 21.5542 106.056 23.1365V31.6554H111.787V23.1684C111.787 21.4263 112.672 20.7071 113.783 20.7071C115.038 20.7071 115.795 21.5542 115.795 23.1365V31.6554H121.525V21.3464C121.525 17.7023 119.255 15.3848 115.569 15.3848Z" fill="white"/>
<path fill-rule="evenodd" clip-rule="evenodd" d="M122.405 23.8781C122.405 18.8522 125.767 15.3789 130.65 15.3789C135.453 15.3789 138.751 18.7722 138.767 23.7341C138.767 24.2783 138.719 25.1106 138.655 25.4307H128.297C128.681 26.7112 129.641 27.3515 131.146 27.3515C132.171 27.3515 133.276 26.9193 134.14 26.071L138.047 29.3362C136.51 31.0008 134.012 32.0893 130.874 32.0893C125.799 32.0893 122.405 28.792 122.405 23.8781ZM133.085 21.9894C132.669 20.7569 131.868 20.1647 130.683 20.1647C129.467 20.1647 128.682 20.7569 128.314 21.9894H133.085Z" fill="white"/>
<path fill-rule="evenodd" clip-rule="evenodd" d="M25.5396 25.5443C24.0052 25.5443 22.7496 24.2922 22.7496 22.7618C22.7496 21.2315 24.0052 19.9794 25.5396 19.9794C27.0742 19.9794 28.3297 21.2315 28.3297 22.7618C28.3297 24.2922 27.0742 25.5443 25.5396 25.5443ZM43.6815 25.2827C41.5764 25.2827 40.6069 24.2049 40.6069 22.1047V9.17188H34.153V18.7747C32.6861 15.6322 29.4935 13.4552 25.7879 13.4552C22.0823 13.4552 18.8897 15.6322 17.4228 18.7747V13.6486H11.052V22.685C11.052 24.3154 10.1933 25.4208 8.75293 25.4208C7.31256 25.4208 6.45394 24.3154 6.45394 22.685V13.6486H0V22.7679C0 28.3501 3.43475 31.8597 8.75293 31.8597C13.0222 31.8597 16.0701 29.4954 17.0687 25.6672C18.3177 29.2724 21.748 31.8597 25.7879 31.8597C29.7743 31.8597 33.1675 29.3405 34.4567 25.8099C35.4076 29.9071 38.5155 31.7215 42.6843 31.7215H44.3186V25.2827H43.6815Z" fill="white"/>
<path fill-rule="evenodd" clip-rule="evenodd" d="M145.834 0.223464L48.8263 0V39.7765L145.834 40V0.223464ZM53.1398 35.462V4.33472L141.522 4.53859V35.6659L53.1398 35.462Z" fill="#EA5942"/>
</svg>
