<svg xmlns="http://www.w3.org/2000/svg" viewBox="0 0 188 78">
  <path d="m0,33.86c0,18.7,15.05,33.86,33.6,33.86s33.6-15.16,33.6-33.86S52.16,0,33.6,0,0,15.16,0,33.86Z" fill="#ff8000"/>
  <path d="m33.67,1.88C18.16,1.88,5.59,14.55,5.59,30.18c0,1.53.12,3.02.36,4.48,3.63-9.56,13.55-16.42,25.22-16.42,9.75,0,18.27,4.79,22.94,11.93h.09c3.02,0,5.56.96,7.44,2.62.08-.86.12-1.72.12-2.6,0-15.63-12.57-28.29-28.08-28.29" fill="#ffcf00"/>
  <path d="m61.62,32.78c-1.89-1.65-4.43-2.62-7.44-2.62h-.09c-8.27.05-16.95,7.28-19.44,16.2-1.33,4.75-.62,9.02,1.57,11.99-.84.08-1.69.12-2.55.12-13.99,0-25.6-10.32-27.73-23.82-.96,2.52-1.48,5.22-1.48,8.04,0,6.92,3.14,13.16,8.19,17.62,3.11,2.51,6.67,4.47,10.55,5.74,3.28,1.07,6.78,1.67,10.41,1.67,10.08,0,19.11-4.47,25.27-11.55,2.12-2.44,3.9-5.19,5.27-8.17.2-.54.38-1.08.53-1.64,1.59-5.69.26-10.7-3.04-13.59" fill="#ff0024"/>
  <path d="m77.95,70.92h2.66v3.44c0,.44.02.8.06,1.06.04.27.1.47.18.61s.18.24.3.28c.12.05.26.07.41.07.18,0,.33-.02.46-.07.13-.05.23-.14.31-.29.08-.14.14-.35.18-.62.04-.27.06-.63.06-1.07v-3.42h2.66v3.86c0,.62-.07,1.14-.22,1.55-.15.41-.37.74-.67.99-.3.25-.68.42-1.14.52s-1,.15-1.63.15-1.21-.05-1.67-.15-.83-.28-1.12-.52c-.29-.25-.5-.58-.62-.99-.13-.41-.19-.93-.19-1.55v-3.86Zm8.92,6.93v-6.92h2.66v.81l.97-.87c.08,0,.18-.02.29-.03s.24-.02.37-.03.26-.02.39-.02.25,0,.37,0c.51,0,.92.05,1.22.16.3.11.53.27.68.5s.25.5.29.83.06.73.06,1.17v4.41h-2.69v-4.49c0-.17-.02-.32-.07-.44-.04-.12-.1-.22-.17-.29-.07-.07-.14-.13-.22-.16s-.15-.05-.22-.05c-.09,0-.19.02-.3.05s-.22.07-.33.13-.22.11-.34.18-.23.13-.33.2v4.87h-2.66Zm8.87-8.81c0-.2.03-.39.08-.55s.14-.31.26-.44c.12-.12.27-.22.45-.29.18-.07.4-.1.64-.1s.47.03.65.1c.18.07.33.17.45.29.12.12.2.27.26.44s.08.35.08.55-.03.38-.08.55-.14.31-.26.43c-.12.12-.27.22-.45.29-.18.07-.4.1-.65.1s-.46-.04-.64-.1-.33-.17-.45-.29c-.12-.12-.2-.27-.26-.43s-.08-.35-.08-.55Zm.19,8.81v-6.92h2.54v6.92h-2.54Zm3.53-6.93h2.77l1.33,4.55,1.35-4.55h2.66l-2.85,6.93h-2.36l-2.9-6.93Zm8.3,3.52c0-.65.1-1.21.3-1.67.2-.46.48-.84.84-1.14.36-.3.78-.51,1.26-.65.48-.14,1-.21,1.56-.21s1.08.08,1.57.24c.48.16.9.39,1.25.7.35.3.63.68.83,1.13.2.45.3.95.3,1.52v.8h-5.25c.03.23.1.41.18.57s.2.27.33.37.28.16.45.19c.17.04.35.06.55.06.17,0,.38-.02.63-.05.25-.03.51-.07.78-.12.27-.05.53-.11.79-.19.26-.07.48-.16.67-.25l.65,1.56c-.41.21-.91.38-1.5.51s-1.25.2-2,.2c-.59,0-1.14-.06-1.65-.18s-.95-.32-1.33-.6c-.38-.28-.67-.65-.89-1.1-.21-.45-.32-1.01-.32-1.68Zm4.01-2.08c-.13,0-.28.02-.43.06-.15.04-.29.11-.43.21s-.25.24-.34.42c-.1.18-.16.41-.18.69h2.62c-.02-.45-.13-.79-.32-1.02s-.5-.35-.92-.35Zm10.1.6c-.25-.07-.48-.13-.69-.18-.22-.05-.39-.07-.52-.07-.1,0-.23.01-.38.04s-.37.09-.64.19v4.91h-2.62v-6.93h1.95l.41,1.11.94-1.14c.13-.03.28-.06.44-.08.16-.03.38-.04.65-.04.1,0,.22,0,.36.01.14,0,.32.02.53.05l-.42,2.13Zm7.27.07c-.23-.1-.48-.19-.76-.27-.28-.09-.55-.16-.82-.22-.27-.06-.53-.11-.78-.15s-.45-.06-.62-.06c-.19,0-.34.03-.45.09s-.16.17-.16.34c0,.09.02.16.07.23.05.06.13.12.24.18.12.05.27.11.46.16.19.05.44.11.73.18.57.13,1.04.27,1.43.4.39.13.7.28.94.44.24.17.41.36.51.58.1.22.15.5.15.81,0,1.51-1.01,2.26-3.03,2.26-.33,0-.67-.01-1.03-.04-.36-.02-.72-.06-1.08-.11-.36-.05-.72-.12-1.06-.2-.35-.08-.66-.18-.96-.29l.63-1.72c.22.09.48.18.78.27s.6.17.91.23.61.12.91.17.56.06.79.06c.18,0,.32-.03.42-.09.1-.06.14-.17.14-.33,0-.11-.02-.2-.07-.28s-.13-.14-.25-.2c-.12-.06-.29-.12-.51-.18-.22-.06-.5-.13-.84-.2-.45-.1-.84-.21-1.19-.32-.34-.11-.63-.24-.86-.4-.23-.16-.41-.36-.53-.59-.12-.23-.18-.53-.18-.89,0-.69.26-1.22.79-1.57.53-.36,1.33-.53,2.4-.53.3,0,.61.01.94.05s.66.07.98.13c.32.05.62.12.91.2.29.08.53.16.74.25l-.69,1.64Zm1.94,1.36c0-.59.09-1.12.26-1.57s.43-.83.77-1.13c.34-.3.75-.53,1.24-.69s1.05-.23,1.67-.23,1.18.08,1.67.23c.49.16.9.39,1.24.69.34.31.59.69.77,1.14.18.45.26.97.26,1.56s-.09,1.11-.26,1.56c-.17.45-.42.83-.76,1.13-.33.3-.75.53-1.24.69-.49.16-1.05.24-1.69.24s-1.18-.07-1.67-.21-.9-.35-1.24-.64c-.34-.29-.6-.66-.78-1.12s-.27-1-.27-1.64Zm2.6,0c0,.69.12,1.19.37,1.52s.57.48.99.48c.2,0,.38-.03.54-.1s.3-.18.42-.34c.12-.16.21-.36.28-.62.06-.25.1-.56.1-.93s-.03-.67-.09-.93c-.06-.26-.15-.46-.26-.62-.11-.16-.25-.27-.42-.35-.17-.07-.36-.11-.56-.11-.2,0-.38.04-.54.11-.17.07-.31.19-.43.35s-.21.37-.28.62c-.07.26-.1.57-.1.93Zm10.77,0c0-.59.09-1.12.26-1.57s.43-.83.77-1.13c.34-.3.75-.53,1.24-.69s1.05-.23,1.67-.23,1.18.08,1.67.23c.49.16.9.39,1.24.69.34.31.59.69.77,1.14.18.45.26.97.26,1.56s-.09,1.11-.26,1.56c-.17.45-.42.83-.76,1.13-.33.3-.75.53-1.24.69-.49.16-1.05.24-1.69.24s-1.18-.07-1.67-.21-.9-.35-1.24-.64c-.34-.29-.6-.66-.78-1.12s-.27-1-.27-1.64Zm2.6,0c0,.69.12,1.19.37,1.52s.57.48.99.48c.2,0,.38-.03.54-.1s.3-.18.42-.34c.12-.16.21-.36.28-.62.06-.25.1-.56.1-.93s-.03-.67-.09-.93c-.06-.26-.15-.46-.26-.62-.11-.16-.25-.27-.42-.35-.17-.07-.36-.11-.56-.11-.2,0-.38.04-.54.11-.17.07-.31.19-.43.35s-.21.37-.28.62c-.07.26-.1.57-.1.93Zm6.61,3.46v-6.92h2.66v.81l.97-.87c.08,0,.18-.02.29-.03.12-.01.24-.02.37-.03.13,0,.26-.02.39-.02s.25,0,.37,0c.51,0,.92.05,1.22.16.3.11.53.27.68.5s.25.5.29.83c.04.33.06.73.06,1.17v4.41h-2.69v-4.49c0-.17-.02-.32-.07-.44-.04-.12-.1-.22-.17-.29s-.14-.13-.22-.16c-.08-.03-.15-.05-.21-.05-.09,0-.19.02-.3.05s-.21.07-.33.13-.22.11-.34.18-.22.13-.33.2v4.87h-2.66Zm9.05,0v-9.56h2.56v9.56h-2.56Zm4.27-8.81c0-.2.03-.39.08-.55s.14-.31.26-.44c.12-.12.27-.22.45-.29.18-.07.4-.1.64-.1s.47.03.65.1c.18.07.33.17.45.29.12.12.2.27.26.44s.08.35.08.55-.03.38-.08.55-.14.31-.26.43c-.12.12-.27.22-.45.29-.18.07-.4.1-.65.1s-.46-.04-.64-.1-.33-.17-.45-.29c-.12-.12-.2-.27-.26-.43s-.08-.35-.08-.55Zm.19,8.81v-6.92h2.54v6.92h-2.54Zm4.31,0v-6.92h2.66v.81l.97-.87c.08,0,.18-.02.29-.03.12-.01.24-.02.37-.03.13,0,.26-.02.39-.02s.25,0,.37,0c.51,0,.92.05,1.22.16.3.11.53.27.68.5s.25.5.29.83c.04.33.06.73.06,1.17v4.41h-2.69v-4.49c0-.17-.02-.32-.07-.44-.04-.12-.1-.22-.17-.29s-.14-.13-.22-.16c-.08-.03-.15-.05-.21-.05-.09,0-.19.02-.3.05s-.21.07-.33.13-.22.11-.34.18-.22.13-.33.2v4.87h-2.66Zm8.62-3.41c0-.65.1-1.21.3-1.67.2-.46.48-.84.84-1.14.36-.3.78-.51,1.26-.65.48-.14,1-.21,1.56-.21s1.08.08,1.57.24c.48.16.9.39,1.25.7.35.3.63.68.83,1.13.2.45.3.95.3,1.52v.8h-5.25c.03.23.1.41.18.57s.2.27.33.37.28.16.45.19c.17.04.35.06.55.06.17,0,.38-.02.63-.05.25-.03.51-.07.78-.12.27-.05.53-.11.79-.19.26-.07.48-.16.67-.25l.65,1.56c-.41.21-.91.38-1.5.51s-1.25.2-2,.2c-.59,0-1.14-.06-1.65-.18s-.95-.32-1.33-.6c-.38-.28-.67-.65-.89-1.1-.21-.45-.32-1.01-.32-1.68Zm4.01-2.08c-.13,0-.28.02-.43.06-.15.04-.29.11-.43.21s-.25.24-.34.42c-.1.18-.16.41-.18.69h2.62c-.02-.45-.13-.79-.32-1.02s-.5-.35-.92-.35Zm-42.11-29.06c-3.78,0-6.88-3.12-6.88-6.93s3.1-6.93,6.88-6.93,6.88,3.12,6.88,6.93-3.09,6.93-6.88,6.93Zm44.44-.35c-5.23,0-7.64-2.7-7.64-7.97V2.56h-16.03v24.08c-3.64-7.88-11.57-13.34-20.77-13.34s-17.13,5.46-20.77,13.34v-12.85h-15.82v22.66c0,4.09-2.13,6.86-5.71,6.86s-5.71-2.77-5.71-6.86V13.78h-16.03v22.87c0,14,8.53,22.8,21.73,22.8,10.6,0,18.17-5.93,20.65-15.53,3.1,9.04,11.62,15.53,21.65,15.53s18.33-6.32,21.53-15.17c2.36,10.27,10.08,14.83,20.43,14.83h4.06v-16.15h-1.58Z" fill="#000000"/>
</svg>