<?xml version="1.0" encoding="UTF-8"?>
<svg width="68px" height="36px" viewBox="0 0 68 36" version="1.1" xmlns="http://www.w3.org/2000/svg" xmlns:xlink="http://www.w3.org/1999/xlink">
    <title>UOL</title>
    <g id="UOL" stroke="none" stroke-width="1" fill="none" fill-rule="evenodd">
        <path d="M65.1451442,24.3739316 C62.0194212,24.3739316 60.585014,22.7713675 60.585014,19.6623932 L60.585014,0.506410256 L51.0365725,0.506410256 L51.0365725,14.7264957 C48.7896376,9.92552072 43.9606472,6.85731049 38.6514303,6.85731049 C33.3422133,6.85731049 28.5132229,9.92552072 26.266288,14.7264957 L26.266288,7.14102564 L16.8355963,7.14102564 L16.8355963,20.5277778 C16.8355963,22.9423077 15.5617571,24.5769231 13.4315555,24.5769231 C11.3013538,24.5769231 10.0275147,22.9423077 10.0275147,20.5277778 L10.0275147,7.14102564 L0.468368584,7.14102564 L0.468368584,20.6452991 C0.468368584,28.9145299 5.55302076,34.1068376 13.4315555,34.1068376 C19.7472287,34.1068376 24.2645407,30.6132479 25.741766,24.9401709 C27.6617256,30.3468198 32.7651032,33.9774139 38.5122392,34.0252138 C44.2593752,34.0730137 49.4226675,30.5278091 51.4326401,25.1538462 C52.8349337,31.2222222 57.437882,33.9038462 63.6143963,33.9038462 L66.0336203,33.9038462 L66.0336203,24.3739316 L65.1451442,24.3739316 Z M38.6514303,24.5769231 C36.3871537,24.5769231 34.5515949,22.7449258 34.5515949,20.4850427 C34.5515949,18.2251596 36.3871537,16.3931624 38.6514303,16.3931624 C40.9157068,16.3931624 42.7512656,18.2251596 42.7512656,20.4850427 C42.745383,22.7424895 40.9132657,24.5710519 38.6514303,24.5769231 Z" id="Shape" fill="#000000" fill-rule="nonzero"></path>
    </g>
</svg>