<svg width="160" height="27" viewBox="0 0 160 27" fill="none" xmlns="http://www.w3.org/2000/svg">
<g clip-path="url(#clip0_43_173)">
<path d="M66.0048 27C65.252 27 64.5308 26.937 63.8572 26.803C63.1836 26.6691 62.5497 26.48 61.9712 26.22C61.3847 25.96 60.8538 25.637 60.3941 25.2509C59.9345 24.8649 59.5383 24.4237 59.2054 23.9194C58.8726 23.4152 58.6269 22.8637 58.4605 22.2649C58.2941 21.6662 58.2148 21.0201 58.2148 20.3268C58.2148 19.1214 58.4288 18.0656 58.8647 17.1754C59.3005 16.2851 59.9424 15.5445 60.7983 14.9693C61.6383 14.41 62.6131 13.9845 63.7146 13.7009C64.8161 13.4173 66.0365 13.2754 67.3758 13.2754C68.517 13.2754 69.6344 13.3621 70.7359 13.5354C71.8374 13.7088 72.9073 13.9766 73.9533 14.3233V12.7239C73.9533 12.0385 73.8582 11.4476 73.668 10.9434C73.4778 10.4391 73.1926 10.0295 72.8122 9.71431C72.4239 9.39916 71.9167 9.15493 71.2827 8.99735C70.6487 8.83978 69.8959 8.75312 69.0242 8.75312C68.4774 8.75312 67.9147 8.79251 67.3441 8.8713C66.7735 8.95008 66.1871 9.06038 65.5928 9.21796C65.2203 9.3125 64.7131 9.47795 64.1663 9.68279C63.6195 9.88764 63.0251 10.1161 62.4704 10.3446C62.0187 10.5337 61.5432 10.5179 61.1232 10.3446C60.7032 10.1713 60.3545 9.84825 60.1722 9.39916L60.1406 9.32038L60.1089 9.24159C59.9266 8.80039 59.9345 8.31979 60.1089 7.91011C60.2832 7.50042 60.6081 7.15376 61.0519 6.96467C61.6779 6.70468 62.3595 6.43681 63.0093 6.20833C63.6591 5.97985 64.2693 5.78288 64.7527 5.67258C65.4739 5.49925 66.203 5.36532 66.932 5.27865C67.6611 5.19199 68.3902 5.14471 69.1193 5.14471C70.5378 5.14471 71.782 5.30229 72.8597 5.62531C73.9296 5.94833 74.833 6.42105 75.5462 7.05922C76.2673 7.69738 76.8062 8.49312 77.1708 9.43856C77.5353 10.384 77.7176 11.487 77.7176 12.7318V18.8299V24.9279C77.7176 25.4243 77.5115 25.8891 77.1866 26.2279C76.8617 26.5667 76.41 26.7794 75.9107 26.7636C75.4273 26.7479 74.9994 26.5509 74.6903 26.2358C74.3813 25.9206 74.1911 25.4873 74.1911 25.0146V24.0376C73.6284 24.4867 73.042 24.8885 72.4318 25.2431C71.8216 25.5976 71.1955 25.9049 70.5536 26.1648C69.8404 26.4485 69.1034 26.6612 68.3506 26.803C67.5977 26.9448 66.8211 27.0157 66.0286 27.0157L66.0048 27ZM67.3917 16.7972C66.5596 16.7972 65.8146 16.8681 65.149 17.0099C64.4833 17.1517 63.9206 17.3644 63.4452 17.6481C62.9776 17.9238 62.6368 18.2705 62.407 18.7038C62.1772 19.1371 62.0663 19.6492 62.0663 20.2559C62.0663 20.768 62.1534 21.2171 62.3278 21.611C62.5021 22.0049 62.7636 22.3358 63.1202 22.6195C63.4769 22.9031 63.9048 23.1158 64.412 23.2576C64.9192 23.3995 65.4977 23.4704 66.1475 23.4704C67.5819 23.4704 68.9528 23.171 70.2525 22.5801C71.5521 21.9892 72.7884 21.1068 73.9454 19.9329V17.7426C73.462 17.5929 72.9707 17.459 72.4556 17.3487C71.9405 17.2305 71.4095 17.136 70.8627 17.0572C70.2921 16.9705 69.7136 16.9075 69.1272 16.8681C68.5487 16.8287 67.9622 16.8051 67.3837 16.8051L67.3917 16.7972Z" fill="#39B9AF"/>
<path d="M49.062 25.0304L52.9293 16.3954L56.7965 7.76044C57.0026 7.29561 57.0026 6.79925 56.8361 6.35805C56.6697 5.91685 56.329 5.54655 55.8693 5.34171L55.8376 5.32595L55.8059 5.3102C55.3384 5.10535 54.8391 5.10535 54.3953 5.2708C53.9515 5.43625 53.5791 5.77503 53.373 6.23199L49.7673 14.2839L46.1615 22.3359L42.5558 14.2839L38.9501 6.23199C38.744 5.76716 38.3716 5.43625 37.9278 5.2708C37.484 5.10535 36.9847 5.10535 36.5172 5.3102L36.4855 5.32595L36.4538 5.34171C35.9862 5.54655 35.6534 5.91685 35.487 6.35805C35.3205 6.79137 35.3205 7.29561 35.5266 7.76044L39.3938 16.3954L43.2611 25.0304C43.4909 25.5425 43.8634 25.9679 44.3151 26.2594C44.7668 26.5509 45.3057 26.7164 45.8763 26.7164H46.4627C47.0253 26.7164 47.5642 26.5509 48.0239 26.2594C48.4835 25.9679 48.848 25.5425 49.0778 25.0304H49.062Z" fill="#39B9AF"/>
<path d="M118.744 26.9606C115.638 26.9606 112.872 25.8261 110.867 23.9352C108.862 22.0444 107.602 19.3971 107.515 16.3875C107.467 14.8984 107.721 13.4488 108.244 12.1015C108.767 10.7543 109.567 9.51736 110.613 8.44587C111.659 7.37438 112.88 6.53924 114.219 5.97986C115.558 5.4126 117.008 5.12109 118.506 5.12109C121.415 5.12109 124.141 6.29501 126.146 8.13072C128.151 9.96644 129.427 12.4718 129.427 15.1427V15.253C129.427 15.7021 129.244 16.1039 128.951 16.4033C128.658 16.7027 128.246 16.876 127.794 16.876H117.365C116.882 16.876 116.438 16.679 116.121 16.3639C115.804 16.0487 115.606 15.6075 115.606 15.1269V15.0166C115.606 14.536 115.804 14.0948 116.121 13.7797C116.438 13.4645 116.882 13.2676 117.365 13.2676H125.306C124.806 11.9991 123.84 10.8961 122.627 10.1161C121.423 9.32827 119.972 8.86343 118.514 8.86343C117.508 8.86343 116.517 9.07616 115.606 9.47797C114.694 9.87978 113.87 10.4628 113.181 11.2034C112.483 11.9519 111.976 12.8185 111.651 13.7482C111.334 14.6779 111.208 15.6784 111.295 16.6948C111.453 18.5305 112.349 20.1692 113.696 21.351C115.043 22.5328 116.826 23.2498 118.76 23.2498C118.879 23.2498 118.99 23.2498 119.109 23.2419C119.227 23.234 119.346 23.2261 119.457 23.2183C120.59 23.1158 121.692 22.8401 122.722 22.4068C123.752 21.9734 124.727 21.3747 125.607 20.6341C125.781 20.4844 125.971 20.3741 126.177 20.2953C126.383 20.2165 126.605 20.1771 126.827 20.1771C127.049 20.1771 127.279 20.2165 127.485 20.2953C127.691 20.3741 127.881 20.4923 128.056 20.642L128.087 20.6735L128.119 20.705C128.317 20.8783 128.468 21.0989 128.571 21.3353C128.674 21.5716 128.729 21.8316 128.729 22.0916C128.729 22.3516 128.666 22.5959 128.563 22.8243C128.46 23.0528 128.301 23.2577 128.111 23.4231C127.033 24.3449 125.845 25.1091 124.569 25.6843C123.301 26.2594 121.946 26.6612 120.551 26.8582C120.25 26.8976 119.949 26.9291 119.647 26.9527C119.346 26.9764 119.045 26.9842 118.744 26.9842V26.9606Z" fill="#39B9AF"/>
<path d="M158.09 26.7321C157.583 26.7321 157.123 26.5273 156.791 26.1964C156.458 25.8655 156.252 25.4085 156.252 24.9043V11.55C156.252 10.8016 155.816 10.1319 155.103 9.64342C154.389 9.15495 153.415 8.84768 152.337 8.84768C151.259 8.84768 150.276 9.14707 149.571 9.64342C148.858 10.1319 148.422 10.8095 148.422 11.55V24.7861C148.422 25.3219 148.2 25.8103 147.844 26.1649C147.487 26.5194 146.996 26.74 146.457 26.74C145.918 26.74 145.395 26.5194 145.038 26.1649C144.682 25.8103 144.46 25.3219 144.46 24.7861V11.55C144.46 10.8016 144.024 10.1319 143.311 9.64342C142.597 9.15495 141.623 8.84768 140.545 8.84768C139.467 8.84768 138.484 9.14707 137.779 9.64342C137.074 10.1398 136.63 10.8095 136.63 11.55V24.9043C136.63 25.4085 136.424 25.8655 136.091 26.1964C135.758 26.5273 135.299 26.7321 134.792 26.7321H134.712C134.205 26.7321 133.746 26.5273 133.413 26.1964C133.08 25.8655 132.874 25.4085 132.874 24.9043V6.94894C132.874 6.44471 133.08 5.98775 133.413 5.65684C133.746 5.32594 134.205 5.1211 134.712 5.1211H134.792C135.251 5.1211 135.671 5.28655 135.988 5.5623C136.305 5.83805 136.535 6.2241 136.606 6.66531C137.256 6.16108 137.977 5.77502 138.762 5.51503C139.546 5.25504 140.371 5.11322 141.211 5.11322C142.352 5.11322 143.461 5.36534 144.46 5.83805C145.45 6.31077 146.33 6.98833 147.011 7.8471C147.693 6.98833 148.565 6.30289 149.563 5.83805C150.562 5.37321 151.663 5.11322 152.812 5.11322C154.801 5.11322 156.6 5.86957 157.908 7.09075C159.216 8.31194 160.024 9.99796 160.024 11.8652V24.9043C160.024 25.4085 159.818 25.8655 159.485 26.1964C159.152 26.5273 158.693 26.7321 158.185 26.7321H158.106H158.09Z" fill="#39B9AF"/>
<path d="M12.0059 26.7321C10.6429 26.7321 9.684 26.0861 9.16097 24.8176L0.174344 2.6157C0.0633977 2.42661 0 2.19025 0 1.92238C0 1.40239 0.182268 0.953312 0.546805 0.575139C0.911342 0.196965 1.37098 0 1.91778 0C2.87667 0 3.47895 0.425445 3.71669 1.23694L12.0059 22.2965L20.3031 1.22118C20.6518 0.417566 21.2541 0 22.0941 0C22.6171 0 23.0688 0.189087 23.4492 0.56726C23.8217 0.945433 24.0198 1.39451 24.0198 1.9145C24.0198 2.12723 23.9643 2.3557 23.8455 2.6157L14.8588 24.8097C14.3596 26.0782 13.4007 26.7242 12.0059 26.7242V26.7321Z" fill="#39B9AF"/>
<path d="M31.4929 7.97313C31.4929 6.94103 30.6529 6.1059 29.6147 6.1059C28.5766 6.1059 27.7366 6.94103 27.7366 7.97313V24.8649C27.7366 25.897 28.5766 26.7321 29.6147 26.7321C30.6529 26.7321 31.4929 25.897 31.4929 24.8649V7.97313Z" fill="#39B9AF"/>
<path d="M104.4 16.8524C104.202 16.1748 103.901 15.5524 103.505 15.0009C103.14 14.4967 102.712 14.0555 102.205 13.6616C101.698 13.2755 101.127 12.9446 100.485 12.6689C100.889 12.401 101.254 12.1016 101.579 11.7707C101.904 11.4398 102.181 11.0695 102.419 10.6756C102.688 10.2186 102.886 9.73014 103.021 9.1944C103.156 8.66653 103.227 8.09927 103.227 7.50049C103.227 6.7599 103.148 6.06659 102.99 5.41266C102.831 4.75874 102.593 4.15208 102.276 3.5927C101.959 3.03332 101.563 2.52909 101.088 2.08789C100.612 1.64669 100.065 1.26851 99.4392 0.953368C98.8211 0.638223 98.1237 0.401865 97.3709 0.244293C96.618 0.0867207 95.7939 0.00793457 94.9063 0.00793457H84.0891C83.5898 0.00793457 83.1381 0.212778 82.8132 0.535802C82.4883 0.858825 82.2822 1.31578 82.2822 1.80426C82.2822 2.29273 82.4883 2.74969 82.8132 3.07271C83.1381 3.39574 83.5898 3.60058 84.0891 3.60058H94.415C96.0871 3.60058 97.3313 3.91573 98.1554 4.56965C98.9796 5.2157 99.3838 6.19264 99.3838 7.50049C99.3838 8.1229 99.2807 8.66653 99.0826 9.13925C98.8766 9.61196 98.5675 10.0138 98.1554 10.3447C97.7433 10.6756 97.2203 10.9277 96.5943 11.101C95.9682 11.2665 95.2391 11.3531 94.415 11.3531H87.6393V8.30411C87.6393 7.27201 86.7993 6.43688 85.7612 6.43688C84.723 6.43688 83.883 7.27201 83.883 8.30411V17.5536C83.883 18.5857 84.723 19.4208 85.7612 19.4208C86.7993 19.4208 87.6393 18.5857 87.6393 17.5536V14.9537H95.3739C96.2852 14.9537 97.0856 15.0403 97.775 15.2137C98.4645 15.387 99.043 15.647 99.5026 15.9858C99.9623 16.3245 100.295 16.75 100.525 17.2621C100.747 17.7742 100.858 18.373 100.858 19.0742C100.858 19.7754 100.747 20.3348 100.517 20.8311C100.287 21.3353 99.9464 21.7529 99.4789 22.0917C99.0113 22.4383 98.4407 22.6905 97.775 22.8638C97.1094 23.0371 96.3407 23.1238 95.4848 23.1238H84.0891C83.5898 23.1238 83.1381 23.3286 82.8132 23.6516C82.4883 23.9747 82.2822 24.4237 82.2822 24.9201C82.2822 25.4165 82.4883 25.8655 82.8132 26.1886C83.1381 26.5116 83.5898 26.7164 84.0891 26.7164H95.9286C96.8479 26.7164 97.7037 26.6376 98.4962 26.4879C99.2887 26.3383 100.01 26.1098 100.66 25.8104C101.317 25.511 101.896 25.1328 102.403 24.6916C102.902 24.2504 103.33 23.7383 103.679 23.1711C104.02 22.6038 104.281 21.9656 104.456 21.2802C104.63 20.5947 104.717 19.8542 104.717 19.0584C104.717 18.2627 104.614 17.5142 104.416 16.8288L104.4 16.8524Z" fill="#39B9AF"/>
<path d="M29.6225 3.94724C30.7167 3.94724 31.6037 3.0654 31.6037 1.97759C31.6037 0.889778 30.7167 0.00793457 29.6225 0.00793457C28.5284 0.00793457 27.6414 0.889778 27.6414 1.97759C27.6414 3.0654 28.5284 3.94724 29.6225 3.94724Z" fill="#39B9AF"/>
</g>
<defs>
<clipPath id="clip0_43_173">
<rect width="160" height="27" fill="white"/>
</clipPath>
</defs>
</svg>
