<svg width="14" height="14" viewBox="0 0 14 14" fill="none" xmlns="http://www.w3.org/2000/svg">
<path fill-rule="evenodd" clip-rule="evenodd" d="M5.28604 4.97925H7.76204V6.21258C8.11871 5.50325 9.03337 4.86592 10.4074 4.86592C13.0414 4.86592 13.6667 6.27792 13.6667 8.86858V13.6666H11V9.45858C11 7.98325 10.6434 7.15125 9.73537 7.15125C8.47604 7.15125 7.95271 8.04792 7.95271 9.45792V13.6666H5.28604V4.97925ZM0.713374 13.5533H3.38004V4.86592H0.713374V13.5533ZM3.76204 2.03325C3.76214 2.25677 3.71781 2.47808 3.63163 2.68431C3.54545 2.89054 3.41914 3.07759 3.26004 3.23459C2.93764 3.555 2.50125 3.73435 2.04671 3.73325C1.59297 3.73295 1.15758 3.55405 0.834707 3.23525C0.676182 3.07773 0.550298 2.89047 0.46427 2.68421C0.378242 2.47794 0.33376 2.25673 0.333374 2.03325C0.333374 1.58192 0.513374 1.14992 0.835374 0.831252C1.15796 0.512024 1.59353 0.333052 2.04737 0.333252C2.50204 0.333252 2.93804 0.512585 3.26004 0.831252C3.58137 1.14992 3.76204 1.58192 3.76204 2.03325Z" fill="white"/>
</svg>
