<svg width="16" height="16" viewBox="0 0 16 16" fill="none" xmlns="http://www.w3.org/2000/svg">
<path d="M13.9183 4.76525C14.4605 5.75708 14.744 6.86961 14.7425 8C14.7428 9.17993 14.4333 10.3393 13.845 11.3621C13.2566 12.3849 12.4101 13.2353 11.39 13.8282L13.4495 7.874C13.8343 6.9125 13.9625 6.14225 13.9625 5.45975C13.9628 5.22754 13.948 4.99555 13.9183 4.76525ZM8.93 4.8305C9.18722 4.81785 9.44389 4.79584 9.6995 4.7645C10.0632 4.71725 10.0205 4.18325 9.6575 4.20275C9.6575 4.20275 8.56025 4.28675 7.8575 4.28675C7.19225 4.28675 6.07625 4.193 6.07625 4.193C5.711 4.175 5.66375 4.72775 6.0305 4.7465C6.0305 4.7465 6.36725 4.7855 6.734 4.80275L7.78325 7.68125L6.302 12.1055L3.8465 4.8125C4.10407 4.79955 4.36119 4.77879 4.6175 4.75025C4.98275 4.703 4.94 4.169 4.57625 4.19C4.57625 4.19 3.485 4.27625 2.78 4.27625C2.65475 4.27625 2.50625 4.271 2.34875 4.2665C3.56975 2.46875 5.6465 1.259 8 1.259C9.75575 1.259 11.3532 1.9295 12.5532 3.029C12.5247 3.0275 12.4963 3.023 12.4655 3.023C11.8033 3.023 11.333 3.6005 11.333 4.22C11.333 4.77575 11.6532 5.24675 11.9952 5.801C12.2525 6.25175 12.5518 6.8285 12.5518 7.66175C12.5518 8.234 12.3305 8.90825 12.038 9.836L11.366 12.0763L8.9285 4.82L8.93 4.8305ZM8 14.7395C7.35521 14.7401 6.71366 14.6482 6.095 14.4665L8.11775 8.588L10.19 14.267C10.2058 14.3 10.2215 14.3307 10.2387 14.36C9.51931 14.6123 8.76239 14.7411 8 14.741M1.2575 8C1.25641 7.05459 1.45526 6.11964 1.841 5.2565L5.05625 14.0682C3.91735 13.5153 2.95708 12.6529 2.2853 11.5797C1.61351 10.5066 1.25733 9.26606 1.2575 8ZM8 0.5C3.86525 0.5 0.5 3.86525 0.5 8C0.5 12.1348 3.86525 15.5 8 15.5C12.1348 15.5 15.5 12.1348 15.5 8C15.5 3.86525 12.1348 0.5 8 0.5Z" fill="white"/>
</svg>
