<svg width="16" height="16" viewBox="0 0 16 16" fill="none" xmlns="http://www.w3.org/2000/svg">
<path d="M7.99812 4.15177C5.86856 4.15177 4.1499 5.87044 4.1499 8C4.1499 10.1296 5.86856 11.8482 7.99812 11.8482C10.1277 11.8482 11.8463 10.1296 11.8463 8C11.8463 5.87044 10.1277 4.15177 7.99812 4.15177ZM7.99812 10.5011C6.62094 10.5011 5.49706 9.37718 5.49706 8C5.49706 6.62282 6.62094 5.49894 7.99812 5.49894C9.3753 5.49894 10.4992 6.62282 10.4992 8C10.4992 9.37718 9.3753 10.5011 7.99812 10.5011ZM12.004 3.09731C11.5067 3.09731 11.1052 3.49883 11.1052 3.99604C11.1052 4.49326 11.5067 4.89478 12.004 4.89478C12.5012 4.89478 12.9027 4.49513 12.9027 3.99604C12.9028 3.87798 12.8797 3.76105 12.8346 3.65194C12.7895 3.54283 12.7233 3.4437 12.6398 3.36021C12.5563 3.27673 12.4572 3.21054 12.3481 3.16542C12.239 3.12031 12.122 3.09716 12.004 3.09731ZM15.4994 8C15.4994 6.9643 15.5088 5.93798 15.4507 4.90416C15.3925 3.70335 15.1186 2.63763 14.2405 1.75953C13.3605 0.879564 12.2967 0.607505 11.0958 0.549341C10.0601 0.491177 9.03382 0.500558 8 0.500558C6.9643 0.500558 5.93798 0.491177 4.90416 0.549341C3.70335 0.607505 2.63763 0.88144 1.75953 1.75953C0.879564 2.6395 0.607505 3.70335 0.549341 4.90416C0.491177 5.93986 0.500558 6.96618 0.500558 8C0.500558 9.03382 0.491177 10.062 0.549341 11.0958C0.607505 12.2967 0.88144 13.3624 1.75953 14.2405C2.6395 15.1204 3.70335 15.3925 4.90416 15.4507C5.93986 15.5088 6.96618 15.4994 8 15.4994C9.0357 15.4994 10.062 15.5088 11.0958 15.4507C12.2967 15.3925 13.3624 15.1186 14.2405 14.2405C15.1204 13.3605 15.3925 12.2967 15.4507 11.0958C15.5107 10.062 15.4994 9.0357 15.4994 8ZM13.8483 12.4242C13.7114 12.7657 13.5462 13.0209 13.2817 13.2836C13.0171 13.5481 12.7638 13.7132 12.4224 13.8502C11.4354 14.2423 9.09199 14.1542 7.99812 14.1542C6.90426 14.1542 4.55893 14.2423 3.57201 13.8521C3.23053 13.7151 2.97536 13.55 2.71268 13.2854C2.44812 13.0209 2.28301 12.7676 2.14605 12.4261C1.75578 11.4373 1.84397 9.09386 1.84397 8C1.84397 6.90614 1.75578 4.5608 2.14605 3.57388C2.28301 3.2324 2.44812 2.97723 2.71268 2.71455C2.97723 2.45188 3.23053 2.28489 3.57201 2.14792C4.55893 1.75766 6.90426 1.84584 7.99812 1.84584C9.09199 1.84584 11.4373 1.75766 12.4242 2.14792C12.7657 2.28489 13.0209 2.45 13.2836 2.71455C13.5481 2.97911 13.7132 3.2324 13.8502 3.57388C14.2405 4.5608 14.1523 6.90614 14.1523 8C14.1523 9.09386 14.2405 11.4373 13.8483 12.4242Z" fill="white"/>
</svg>
