<svg width="16" height="11" viewBox="0 0 16 11" fill="none" xmlns="http://www.w3.org/2000/svg">
<path d="M15.1869 1.6423C15.1016 1.32428 14.9341 1.03427 14.7014 0.801288C14.4688 0.568305 14.179 0.400522 13.861 0.314732C12.6908 6.38621e-08 8 0 8 0C8 0 3.30915 -6.38621e-08 2.13895 0.313058C1.8209 0.39857 1.53096 0.566259 1.29822 0.799285C1.06549 1.03231 0.898168 1.32247 0.813058 1.64063C0.5 2.8125 0.5 5.2567 0.5 5.2567C0.5 5.2567 0.5 7.70089 0.813058 8.87109C0.985491 9.5173 1.49442 10.0262 2.13895 10.1987C3.30915 10.5134 8 10.5134 8 10.5134C8 10.5134 12.6908 10.5134 13.861 10.1987C14.5073 10.0262 15.0145 9.5173 15.1869 8.87109C15.5 7.70089 15.5 5.2567 15.5 5.2567C15.5 5.2567 15.5 2.8125 15.1869 1.6423ZM6.51004 7.5V3.01339L10.394 5.23996L6.51004 7.5Z" fill="white"/>
</svg>
