<svg width="10" height="16" viewBox="0 0 10 16" fill="none" xmlns="http://www.w3.org/2000/svg">
<path d="M9.16366 0.921456C9.16366 0.810985 9.11977 0.705039 9.04166 0.626925C8.96354 0.54881 8.8576 0.504926 8.74713 0.504926H6.66448C5.61576 0.452685 4.58899 0.817649 3.80852 1.52008C3.02804 2.2225 2.55731 3.20529 2.49918 4.25369V6.50295H0.41653C0.306059 6.50295 0.200113 6.54684 0.121999 6.62495C0.0438843 6.70307 0 6.80901 0 6.91949V9.08544C0 9.19591 0.0438843 9.30186 0.121999 9.37997C0.200113 9.45809 0.306059 9.50197 0.41653 9.50197H2.49918V15.0835C2.49918 15.1939 2.54306 15.2999 2.62118 15.378C2.69929 15.4561 2.80524 15.5 2.91571 15.5H5.41489C5.52536 15.5 5.6313 15.4561 5.70942 15.378C5.78753 15.2999 5.83142 15.1939 5.83142 15.0835V9.50197H8.01403C8.10666 9.5033 8.19709 9.47371 8.27102 9.41789C8.34495 9.36207 8.39816 9.28319 8.42223 9.19374L9.02204 7.02778C9.03861 6.96624 9.04084 6.90171 9.02855 6.83917C9.01626 6.77663 8.98978 6.71774 8.95115 6.66704C8.91253 6.61635 8.86278 6.57519 8.80574 6.54674C8.74871 6.51829 8.6859 6.50331 8.62217 6.50295H5.83142V4.25369C5.85214 4.04749 5.94897 3.85642 6.10301 3.71778C6.25706 3.57914 6.45724 3.5029 6.66448 3.50394H8.74713C8.8576 3.50394 8.96354 3.46006 9.04166 3.38194C9.11977 3.30383 9.16366 3.19788 9.16366 3.08741V0.921456Z" fill="white"/>
</svg>
