<svg width="94" height="22" viewBox="0 0 94 22" fill="none" xmlns="http://www.w3.org/2000/svg">
<mask id="mask0_3218_9949" style="mask-type:alpha" maskUnits="userSpaceOnUse" x="0" y="0" width="94" height="22">
<path d="M19.635 21.5283H2.98402C1.88587 21.5283 0.831936 20.9571 0.332774 19.9795C-0.255164 18.859 -0.0332753 17.5188 0.85416 16.6401L12.4465 5.16123H4.13768C1.85248 5.16123 0 3.32685 0 1.06403H15.3419C16.4401 1.06403 17.4939 1.63513 17.9931 2.61276C18.5811 3.73315 18.3592 5.07332 17.4718 5.95207L5.87938 17.431H15.4862C17.7714 17.431 19.6238 19.2655 19.6238 21.5283H19.635ZM85.5613 0.756435C83.1766 0.756435 81.0358 1.77803 79.5606 3.40374C78.0853 1.77803 75.9326 0.745444 73.5587 0.756435C69.1329 0.756435 65.5168 4.5022 65.5168 8.88509V21.5283C67.8018 21.5283 69.6543 19.6939 69.6543 17.431V8.83002C69.6543 6.72101 71.3073 4.93057 73.4254 4.85361C75.6551 4.76581 77.5086 6.5453 77.5086 8.74222V17.442C77.5086 19.7048 79.3611 21.5393 81.6461 21.5393V8.85203C81.6461 6.74302 83.2991 4.95257 85.4172 4.87561C87.6469 4.78781 89.5004 6.56731 89.5004 8.76423V17.4639C89.5004 19.7267 91.3529 21.5612 93.6379 21.5612V8.91804C93.6379 4.53515 90.0207 0.800398 85.595 0.789418L85.5613 0.756435ZM40.5013 11.2906C40.5013 17.1014 35.7311 21.8249 29.8629 21.8249C23.9946 21.8249 19.2245 17.1014 19.2245 11.2906C19.2245 5.4798 23.9946 0.756435 29.8629 0.756435C35.7311 0.756435 40.5013 5.4798 40.5013 11.2906ZM36.3635 11.2906C36.3635 7.73156 33.4459 4.84266 29.8517 4.84266C26.2575 4.84266 23.3401 7.73156 23.3401 11.2906C23.3401 14.8497 26.2575 17.7386 29.8517 17.7386C33.4459 17.7386 36.3635 14.8497 36.3635 11.2906ZM63.4313 11.2906C63.4313 17.1014 58.6608 21.8249 52.7925 21.8249C46.9241 21.8249 42.1541 17.1014 42.1541 11.2906C42.1541 5.4798 46.9241 0.756435 52.7925 0.756435C58.6608 0.756435 63.4313 5.4798 63.4313 11.2906ZM59.2932 11.2906C59.2932 7.73156 56.3756 4.84266 52.7814 4.84266C49.1872 4.84266 46.2698 7.73156 46.2698 11.2906C46.2698 14.8497 49.1872 17.7386 52.7814 17.7386C56.3756 17.7386 59.2932 14.8497 59.2932 11.2906Z" fill="#0B5CFF"/>
</mask>
<g mask="url(#mask0_3218_9949)">
<rect y="0.756348" width="93.6379" height="21.0685" fill="white"/>
</g>
</svg>
